<svg xmlns="http://www.w3.org/2000/svg" width="1280" height="760" viewBox="0 0 1280 760" role="img">
<rect x="0.0" y="0.0" width="1280.0" height="760.0" fill="#ffffff" stroke="none" stroke-width="1.0" rx="0.0" />
<text x="40.0" y="34.0" fill="#1f2430" font-size="22" font-family="Segoe UI, Arial, sans-serif" font-weight="600" text-anchor="start">Bounded hard + input anchor: predicted Lyapunov decrement across rho</text>
<text x="40.0" y="56.0" fill="#5d6574" font-size="13" font-family="Segoe UI, Arial, sans-serif" font-weight="400" text-anchor="start">Each curve plots ΔV_pred = V_next_first - V_k. The expected pattern is negative during the transient and near zero in the tail.</text>
<rect x="40.0" y="88.0" width="1200.0" height="250.0" fill="#fbfbfd" stroke="#d7dbe5" stroke-width="1.0" rx="8.0" />
<text x="56.0" y="112.0" fill="#1f2430" font-size="16" font-family="Segoe UI, Arial, sans-serif" font-weight="600" text-anchor="start">Transient ΔV_pred</text>
<text x="56.0" y="130.0" fill="#5d6574" font-size="12" font-family="Segoe UI, Arial, sans-serif" font-weight="400" text-anchor="start">Steps 0-250</text>
<line x1="98.0" y1="306.0" x2="1216.0" y2="306.0" stroke="#d7dbe5" stroke-width="1.0" stroke-dasharray="4 4" />
<text x="90.0" y="310.0" fill="#5d6574" font-size="11" font-family="Segoe UI, Arial, sans-serif" font-weight="400" text-anchor="end">-68.538</text>
<line x1="98.0" y1="226.0" x2="1216.0" y2="226.0" stroke="#d7dbe5" stroke-width="1.0" stroke-dasharray="4 4" />
<text x="90.0" y="230.0" fill="#5d6574" font-size="11" font-family="Segoe UI, Arial, sans-serif" font-weight="400" text-anchor="end">-31.73</text>
<line x1="98.0" y1="146.0" x2="1216.0" y2="146.0" stroke="#d7dbe5" stroke-width="1.0" stroke-dasharray="4 4" />
<text x="90.0" y="150.0" fill="#5d6574" font-size="11" font-family="Segoe UI, Arial, sans-serif" font-weight="400" text-anchor="end">5.077</text>
<line x1="98.0" y1="146.0" x2="98.0" y2="306.0" stroke="#d7dbe5" stroke-width="1.0" stroke-dasharray="4 4" />
<text x="98.0" y="324.0" fill="#5d6574" font-size="11" font-family="Segoe UI, Arial, sans-serif" font-weight="400" text-anchor="middle">0</text>
<line x1="657.0" y1="146.0" x2="657.0" y2="306.0" stroke="#d7dbe5" stroke-width="1.0" stroke-dasharray="4 4" />
<text x="657.0" y="324.0" fill="#5d6574" font-size="11" font-family="Segoe UI, Arial, sans-serif" font-weight="400" text-anchor="middle">125</text>
<line x1="1216.0" y1="146.0" x2="1216.0" y2="306.0" stroke="#d7dbe5" stroke-width="1.0" stroke-dasharray="4 4" />
<text x="1216.0" y="324.0" fill="#5d6574" font-size="11" font-family="Segoe UI, Arial, sans-serif" font-weight="400" text-anchor="middle">250</text>
<line x1="98.0" y1="146.0" x2="98.0" y2="306.0" stroke="#2d3440" stroke-width="1.2" />
<line x1="98.0" y1="306.0" x2="1216.0" y2="306.0" stroke="#2d3440" stroke-width="1.2" />
<text x="56.0" y="160.0" fill="#5d6574" font-size="12" font-family="Segoe UI, Arial, sans-serif" font-weight="400" text-anchor="start">ΔV</text>
<line x1="98.0" y1="157.0" x2="1216.0" y2="157.0" stroke="#2d3440" stroke-width="1.2" stroke-dasharray="6 4" />
<polyline points="98.00,157.03 102.47,157.03 106.94,157.05 111.42,157.14 115.89,157.35 120.36,157.70 124.83,158.19 129.30,158.77 133.78,159.40 138.25,160.02 142.72,160.60 147.19,161.10 151.66,161.48 156.14,161.74 160.61,161.86 165.08,161.86 169.55,161.75 174.02,161.55 178.50,161.28 182.97,160.96 187.44,160.62 191.91,160.27 196.38,159.93 200.86,159.61 205.33,159.32 209.80,159.07 214.27,158.91 218.74,158.85 223.22,159.34 227.69,160.97 232.16,163.37 236.63,165.96 241.10,168.23 245.58,169.86 250.05,170.78 254.52,171.04 258.99,170.76 263.46,170.08 267.94,169.10 272.41,167.95 276.88,166.71 281.35,165.43 285.82,164.18 290.30,163.00 294.77,161.92 299.24,160.97 303.71,160.16 308.18,159.51 312.66,159.02 317.13,158.68 321.60,158.49 326.07,158.42 330.54,158.47 335.02,158.60 339.49,158.79 343.96,159.03 348.43,159.28 352.90,159.53 357.38,159.76 361.85,159.95 366.32,160.11 370.79,160.22 375.26,160.27 379.74,160.29 384.21,160.25 388.68,160.18 393.15,160.07 397.62,159.94 402.10,159.78 406.57,159.61 411.04,159.43 415.51,159.25 419.98,159.07 424.46,158.89 428.93,158.71 433.40,158.54 437.87,158.38 442.34,158.23 446.82,158.09 451.29,157.96 455.76,157.85 460.23,157.74 464.70,157.65 469.18,157.57 473.65,157.50 478.12,157.45 482.59,157.41 487.06,157.37 491.54,157.36 496.01,157.38 500.48,157.46 504.95,158.38 509.42,159.85 513.90,161.20 518.37,162.12 522.84,162.57 527.31,162.59 531.78,162.28 536.26,161.75 540.73,161.10 545.20,160.39 549.67,159.71 554.14,159.08 558.62,158.53 563.09,158.08 567.56,157.72 572.03,157.46 576.50,157.27 580.98,157.15 585.45,157.13 589.92,157.16 594.39,161.75 598.86,193.79 603.34,239.02 607.81,274.73 612.28,293.15 616.75,294.97 621.22,283.92 625.70,264.53 630.17,241.13 639.11,196.26 643.58,182.54 648.06,171.24 679.36,162.17 683.83,162.97 688.30,166.01 692.78,171.24 697.25,177.84 701.72,184.86 706.19,191.55 710.66,197.33 715.14,201.79 719.61,204.65 724.08,205.81 728.55,205.33 733.02,203.42 737.50,200.36 741.97,196.49 746.44,192.18 750.91,187.74 755.38,183.43 759.86,179.44 764.33,175.90 768.80,172.87 773.27,170.35 777.74,168.31 782.22,166.71 786.69,165.49 791.16,164.56 795.63,163.88 800.10,163.38 804.58,163.01 809.05,162.73 813.52,162.51 817.99,162.32 822.46,162.14 826.94,161.97 831.41,161.79 835.88,161.60 840.35,161.40 844.82,161.19 849.30,160.96 853.77,160.73 858.24,160.49 862.71,160.25 867.18,160.00 871.66,159.76 876.13,159.52 880.60,159.29 885.07,159.07 889.54,158.86 894.02,158.66 898.49,158.47 902.96,158.30 907.43,158.14 911.90,158.00 916.38,157.87 920.85,157.75 925.32,157.65 929.79,157.56 934.26,157.48 938.74,157.41 943.21,157.36 947.68,157.31 952.15,157.27 956.62,157.23 961.10,157.20 965.57,157.18 970.04,157.16 974.51,157.15 978.98,157.13 983.46,157.12 987.93,157.12 992.40,157.12 996.87,157.16 1001.34,157.40 1005.82,157.70 1010.29,157.90 1014.76,157.98 1019.23,157.96 1023.70,157.87 1028.18,157.75 1032.65,157.61 1037.12,157.47 1041.59,157.34 1046.06,157.24 1050.54,157.16 1055.01,157.10 1059.48,157.06 1063.95,157.04 1068.42,157.04 1072.90,157.04 1077.37,157.23 1081.84,157.44 1086.31,157.42 1090.78,157.30 1095.26,157.17 1099.73,157.10 1104.20,157.08 1108.67,157.11 1113.14,157.16 1117.62,157.23 1122.09,157.31 1126.56,157.39 1131.03,157.46 1135.50,157.54 1139.98,157.60 1144.45,157.64 1148.92,157.68 1153.39,157.70 1157.86,157.70 1162.34,157.70 1166.81,157.68 1171.28,157.65 1175.75,157.62 1180.22,157.57 1184.70,157.53 1189.17,157.48 1193.64,157.43 1198.11,157.38 1202.58,157.33 1207.06,157.29 1211.53,157.25 1216.00,157.21" fill="none" stroke="#bf1e2d" stroke-width="2.2" stroke-linejoin="round" stroke-linecap="round" />
<polyline points="98.00,157.03 102.47,157.03 106.94,157.05 111.42,157.14 115.89,157.35 120.36,157.70 124.83,158.19 129.30,158.77 133.78,159.40 138.25,160.02 142.72,160.60 147.19,161.10 151.66,161.48 156.14,161.74 160.61,161.86 165.08,161.86 169.55,161.75 174.02,161.55 178.50,161.28 182.97,160.96 187.44,160.62 191.91,160.27 196.38,159.93 200.86,159.61 205.33,159.32 209.80,159.07 214.27,158.85 218.74,158.68 223.22,158.54 227.69,158.43 232.16,158.35 236.63,158.30 241.10,158.27 245.58,158.25 250.05,158.25 254.52,158.25 258.99,158.25 263.46,158.26 267.94,158.27 272.41,158.27 276.88,158.28 281.35,158.27 285.82,158.26 290.30,158.25 294.77,158.23 299.24,158.20 303.71,158.17 308.18,158.14 312.66,158.10 317.13,158.06 321.60,158.01 326.07,157.97 330.54,157.92 335.02,157.87 339.49,157.83 343.96,157.78 348.43,157.74 352.90,157.70 357.38,157.66 361.85,157.62 366.32,157.58 370.79,157.55 375.26,157.52 379.74,157.49 384.21,157.47 388.68,157.44 393.15,157.42 397.62,157.40 402.10,157.39 406.57,157.37 411.04,157.36 415.51,157.35 419.98,157.34 424.46,157.33 428.93,157.32 433.40,157.31 437.87,157.31 442.34,157.30 446.82,157.29 451.29,157.29 455.76,157.29 460.23,157.28 464.70,157.28 469.18,157.28 473.65,157.27 478.12,157.27 482.59,157.27 487.06,157.26 491.54,157.26 496.01,157.25 500.48,157.25 504.95,157.25 509.42,157.24 513.90,157.24 518.37,157.24 522.84,157.23 527.31,157.23 531.78,157.22 536.26,157.22 540.73,157.21 545.20,157.21 549.67,157.20 554.14,157.20 558.62,157.19 563.09,157.19 567.56,157.18 572.03,157.18 576.50,157.17 580.98,157.17 585.45,157.16 589.92,157.16 594.39,157.15 598.86,157.15 603.34,157.15 607.81,157.14 612.28,157.14 616.75,157.13 621.22,157.13 625.70,157.13 630.17,157.12 634.64,157.12 639.11,157.11 643.58,157.11 648.06,157.11 652.53,157.11 657.00,157.10 661.47,157.10 665.94,157.10 670.42,157.09 674.89,157.09 679.36,157.09 683.83,157.09 688.30,157.09 692.78,157.08 697.25,157.08 701.72,157.08 706.19,157.08 710.66,157.08 715.14,157.07 719.61,157.07 724.08,157.07 728.55,157.07 733.02,157.07 737.50,157.07 741.97,157.07 746.44,157.06 750.91,157.06 755.38,157.06 759.86,157.06 764.33,157.06 768.80,157.06 773.27,157.06 777.74,157.06 782.22,157.06 786.69,157.05 791.16,157.05 795.63,157.05 800.10,157.05 804.58,157.05 809.05,157.05 813.52,157.05 817.99,157.05 822.46,157.05 826.94,157.05 831.41,157.05 835.88,157.05 840.35,157.05 844.82,157.05 849.30,157.05 853.77,157.05 858.24,157.04 862.71,157.04 867.18,157.04 871.66,157.04 876.13,157.04 880.60,157.04 885.07,157.04 889.54,157.04 894.02,157.04 898.49,157.04 902.96,157.04 907.43,157.04 911.90,157.04 916.38,157.04 920.85,157.04 925.32,157.04 929.79,157.04 934.26,157.04 938.74,157.04 943.21,157.04 947.68,157.04 952.15,157.04 956.62,157.04 961.10,157.04 965.57,157.04 970.04,157.04 974.51,157.04 978.98,157.04 983.46,157.04 987.93,157.04 992.40,157.04 996.87,157.04 1001.34,157.04 1005.82,157.04 1010.29,157.04 1014.76,157.04 1019.23,157.04 1023.70,157.04 1028.18,157.04 1032.65,157.04 1037.12,157.04 1041.59,157.04 1046.06,157.04 1050.54,157.04 1055.01,157.04 1059.48,157.04 1063.95,157.04 1068.42,157.04 1072.90,157.04 1077.37,157.04 1081.84,157.04 1086.31,157.03 1090.78,157.03 1095.26,157.04 1099.73,157.04 1104.20,157.04 1108.67,157.05 1113.14,157.05 1117.62,157.05 1122.09,157.05 1126.56,157.04 1131.03,157.04 1135.50,157.04 1139.98,157.04 1144.45,157.04 1148.92,157.04 1153.39,157.04 1157.86,157.04 1162.34,157.03 1166.81,157.03 1171.28,157.03 1175.75,157.03 1180.22,157.03 1184.70,157.04 1189.17,157.04 1193.64,157.04 1198.11,157.04 1202.58,157.04 1207.06,157.04 1211.53,157.04 1216.00,157.04" fill="none" stroke="#c96b17" stroke-width="2.2" stroke-linejoin="round" stroke-linecap="round" />
<polyline points="98.00,157.03 102.47,157.03 106.94,157.05 111.42,157.14 115.89,157.35 120.36,157.70 124.83,158.19 129.30,158.77 133.78,159.40 138.25,160.02 142.72,160.60 147.19,161.10 151.66,161.48 156.14,161.74 160.61,161.86 165.08,161.86 169.55,161.75 174.02,161.55 178.50,161.28 182.97,160.96 187.44,160.62 191.91,160.27 196.38,159.93 200.86,159.61 205.33,159.32 209.80,159.07 214.27,158.85 218.74,158.68 223.22,158.54 227.69,158.43 232.16,158.35 236.63,158.30 241.10,158.27 245.58,158.25 250.05,158.25 254.52,158.25 258.99,158.25 263.46,158.26 267.94,158.27 272.41,158.27 276.88,158.28 281.35,158.27 285.82,158.26 290.30,158.25 294.77,158.23 299.24,158.20 303.71,158.17 308.18,158.14 312.66,158.10 317.13,158.06 321.60,158.01 326.07,157.97 330.54,157.92 335.02,157.87 339.49,157.83 343.96,157.78 348.43,157.74 352.90,157.70 357.38,157.66 361.85,157.62 366.32,157.58 370.79,157.55 375.26,157.52 379.74,157.49 384.21,157.47 388.68,157.44 393.15,157.42 397.62,157.40 402.10,157.39 406.57,157.37 411.04,157.36 415.51,157.35 419.98,157.34 424.46,157.33 428.93,157.32 433.40,157.31 437.87,157.31 442.34,157.30 446.82,157.29 451.29,157.29 455.76,157.29 460.23,157.28 464.70,157.28 469.18,157.28 473.65,157.27 478.12,157.27 482.59,157.27 487.06,157.26 491.54,157.26 496.01,157.25 500.48,157.25 504.95,157.25 509.42,157.24 513.90,157.24 518.37,157.24 522.84,157.23 527.31,157.23 531.78,157.22 536.26,157.22 540.73,157.21 545.20,157.21 549.67,157.20 554.14,157.20 558.62,157.19 563.09,157.19 567.56,157.18 572.03,157.18 576.50,157.17 580.98,157.17 585.45,157.16 589.92,157.16 594.39,157.15 598.86,157.15 603.34,157.15 607.81,157.14 612.28,157.14 616.75,157.13 621.22,157.13 625.70,157.13 630.17,157.12 634.64,157.12 639.11,157.11 643.58,157.11 648.06,157.11 652.53,157.11 657.00,157.10 661.47,157.10 665.94,157.10 670.42,157.09 674.89,157.09 679.36,157.09 683.83,157.09 688.30,157.09 692.78,157.08 697.25,157.08 701.72,157.08 706.19,157.08 710.66,157.08 715.14,157.07 719.61,157.07 724.08,157.07 728.55,157.07 733.02,157.07 737.50,157.07 741.97,157.07 746.44,157.06 750.91,157.06 755.38,157.06 759.86,157.06 764.33,157.06 768.80,157.06 773.27,157.06 777.74,157.06 782.22,157.06 786.69,157.05 791.16,157.05 795.63,157.05 800.10,157.05 804.58,157.05 809.05,157.05 813.52,157.05 817.99,157.05 822.46,157.05 826.94,157.05 831.41,157.05 835.88,157.05 840.35,157.05 844.82,157.05 849.30,157.05 853.77,157.05 858.24,157.04 862.71,157.04 867.18,157.04 871.66,157.04 876.13,157.04 880.60,157.04 885.07,157.04 889.54,157.04 894.02,157.04 898.49,157.04 902.96,157.04 907.43,157.04 911.90,157.04 916.38,157.04 920.85,157.04 925.32,157.04 929.79,157.04 934.26,157.04 938.74,157.04 943.21,157.04 947.68,157.04 952.15,157.04 956.62,157.04 961.10,157.04 965.57,157.04 970.04,157.04 974.51,157.04 978.98,157.04 983.46,157.04 987.93,157.04 992.40,157.04 996.87,157.04 1001.34,157.04 1005.82,157.04 1010.29,157.04 1014.76,157.04 1019.23,157.04 1023.70,157.04 1028.18,157.04 1032.65,157.04 1037.12,157.04 1041.59,157.04 1046.06,157.04 1050.54,157.04 1055.01,157.04 1059.48,157.04 1063.95,157.04 1068.42,157.04 1072.90,157.04 1077.37,157.04 1081.84,157.04 1086.31,157.03 1090.78,157.03 1095.26,157.03 1099.73,157.03 1104.20,157.03 1108.67,157.03 1113.14,157.03 1117.62,157.03 1122.09,157.03 1126.56,157.03 1131.03,157.03 1135.50,157.03 1139.98,157.05 1144.45,157.05 1148.92,157.05 1153.39,157.05 1157.86,157.05 1162.34,157.05 1166.81,157.05 1171.28,157.05 1175.75,157.04 1180.22,157.04 1184.70,157.04 1189.17,157.04 1193.64,157.04 1198.11,157.04 1202.58,157.04 1207.06,157.03 1211.53,157.03 1216.00,157.04" fill="none" stroke="#2a7f62" stroke-width="2.2" stroke-linejoin="round" stroke-linecap="round" />
<polyline points="98.00,157.03 102.47,157.03 106.94,157.05 111.42,157.14 115.89,157.35 120.36,157.70 124.83,158.19 129.30,158.77 133.78,159.40 138.25,160.02 142.72,160.60 147.19,161.10 151.66,161.48 156.14,161.74 160.61,161.86 165.08,161.86 169.55,161.75 174.02,161.55 178.50,161.28 182.97,160.96 187.44,160.62 191.91,160.27 196.38,159.93 200.86,159.61 205.33,159.32 209.80,159.07 214.27,158.85 218.74,158.68 223.22,158.54 227.69,158.43 232.16,158.35 236.63,158.30 241.10,158.27 245.58,158.25 250.05,158.25 254.52,158.25 258.99,158.25 263.46,158.26 267.94,158.27 272.41,158.27 276.88,158.28 281.35,158.27 285.82,158.26 290.30,158.25 294.77,158.23 299.24,158.20 303.71,158.17 308.18,158.14 312.66,158.10 317.13,158.06 321.60,158.01 326.07,157.97 330.54,157.92 335.02,157.87 339.49,157.83 343.96,157.78 348.43,157.74 352.90,157.70 357.38,157.66 361.85,157.62 366.32,157.58 370.79,157.55 375.26,157.52 379.74,157.49 384.21,157.47 388.68,157.44 393.15,157.42 397.62,157.40 402.10,157.39 406.57,157.37 411.04,157.36 415.51,157.35 419.98,157.34 424.46,157.33 428.93,157.32 433.40,157.31 437.87,157.31 442.34,157.30 446.82,157.29 451.29,157.29 455.76,157.29 460.23,157.28 464.70,157.28 469.18,157.28 473.65,157.27 478.12,157.27 482.59,157.27 487.06,157.26 491.54,157.26 496.01,157.25 500.48,157.25 504.95,157.25 509.42,157.24 513.90,157.24 518.37,157.24 522.84,157.23 527.31,157.23 531.78,157.22 536.26,157.22 540.73,157.21 545.20,157.21 549.67,157.20 554.14,157.20 558.62,157.19 563.09,157.19 567.56,157.18 572.03,157.18 576.50,157.17 580.98,157.17 585.45,157.16 589.92,157.16 594.39,157.15 598.86,157.15 603.34,157.15 607.81,157.14 612.28,157.14 616.75,157.13 621.22,157.13 625.70,157.13 630.17,157.12 634.64,157.12 639.11,157.11 643.58,157.11 648.06,157.11 652.53,157.11 657.00,157.10 661.47,157.10 665.94,157.10 670.42,157.09 674.89,157.09 679.36,157.09 683.83,157.09 688.30,157.09 692.78,157.08 697.25,157.08 701.72,157.08 706.19,157.08 710.66,157.08 715.14,157.07 719.61,157.07 724.08,157.07 728.55,157.07 733.02,157.07 737.50,157.07 741.97,157.07 746.44,157.06 750.91,157.06 755.38,157.06 759.86,157.06 764.33,157.06 768.80,157.06 773.27,157.06 777.74,157.06 782.22,157.06 786.69,157.05 791.16,157.05 795.63,157.05 800.10,157.05 804.58,157.05 809.05,157.05 813.52,157.05 817.99,157.05 822.46,157.05 826.94,157.05 831.41,157.05 835.88,157.05 840.35,157.05 844.82,157.05 849.30,157.05 853.77,157.05 858.24,157.04 862.71,157.04 867.18,157.04 871.66,157.04 876.13,157.04 880.60,157.04 885.07,157.04 889.54,157.04 894.02,157.04 898.49,157.04 902.96,157.04 907.43,157.04 911.90,157.04 916.38,157.04 920.85,157.04 925.32,157.04 929.79,157.04 934.26,157.04 938.74,157.04 943.21,157.04 947.68,157.04 952.15,157.04 956.62,157.04 961.10,157.04 965.57,157.04 970.04,157.04 974.51,157.04 978.98,157.04 983.46,157.04 987.93,157.04 992.40,157.04 996.87,157.04 1001.34,157.04 1005.82,157.04 1010.29,157.04 1014.76,157.04 1019.23,157.04 1023.70,157.04 1028.18,157.04 1032.65,157.04 1037.12,157.04 1041.59,157.04 1046.06,157.04 1050.54,157.04 1055.01,157.04 1059.48,157.04 1063.95,157.04 1068.42,157.04 1072.90,157.04 1077.37,157.04 1081.84,157.04 1086.31,157.03 1090.78,157.03 1095.26,157.03 1099.73,157.03 1104.20,157.03 1108.67,157.03 1113.14,157.03 1117.62,157.03 1122.09,157.03 1126.56,157.03 1131.03,157.03 1135.50,157.03 1139.98,157.03 1144.45,157.03 1148.92,157.03 1153.39,157.03 1157.86,157.03 1162.34,157.03 1166.81,157.03 1171.28,157.03 1175.75,157.03 1180.22,157.03 1184.70,157.03 1189.17,157.03 1193.64,157.03 1198.11,157.03 1202.58,157.03 1207.06,157.03 1211.53,157.03 1216.00,157.03" fill="none" stroke="#2458d3" stroke-width="2.2" stroke-linejoin="round" stroke-linecap="round" />
<rect x="40.0" y="370.0" width="1200.0" height="250.0" fill="#fbfbfd" stroke="#d7dbe5" stroke-width="1.0" rx="8.0" />
<text x="56.0" y="394.0" fill="#1f2430" font-size="16" font-family="Segoe UI, Arial, sans-serif" font-weight="600" text-anchor="start">Tail ΔV_pred</text>
<text x="56.0" y="412.0" fill="#5d6574" font-size="12" font-family="Segoe UI, Arial, sans-serif" font-weight="400" text-anchor="start">Steps 1800-1899</text>
<line x1="98.0" y1="588.0" x2="1216.0" y2="588.0" stroke="#d7dbe5" stroke-width="1.0" stroke-dasharray="4 4" />
<text x="90.0" y="592.0" fill="#5d6574" font-size="11" font-family="Segoe UI, Arial, sans-serif" font-weight="400" text-anchor="end">-0.386</text>
<line x1="98.0" y1="508.0" x2="1216.0" y2="508.0" stroke="#d7dbe5" stroke-width="1.0" stroke-dasharray="4 4" />
<text x="90.0" y="512.0" fill="#5d6574" font-size="11" font-family="Segoe UI, Arial, sans-serif" font-weight="400" text-anchor="end">-0.179</text>
<line x1="98.0" y1="428.0" x2="1216.0" y2="428.0" stroke="#d7dbe5" stroke-width="1.0" stroke-dasharray="4 4" />
<text x="90.0" y="432.0" fill="#5d6574" font-size="11" font-family="Segoe UI, Arial, sans-serif" font-weight="400" text-anchor="end">0.029</text>
<line x1="98.0" y1="428.0" x2="98.0" y2="588.0" stroke="#d7dbe5" stroke-width="1.0" stroke-dasharray="4 4" />
<text x="98.0" y="606.0" fill="#5d6574" font-size="11" font-family="Segoe UI, Arial, sans-serif" font-weight="400" text-anchor="middle">1800</text>
<line x1="657.0" y1="428.0" x2="657.0" y2="588.0" stroke="#d7dbe5" stroke-width="1.0" stroke-dasharray="4 4" />
<text x="657.0" y="606.0" fill="#5d6574" font-size="11" font-family="Segoe UI, Arial, sans-serif" font-weight="400" text-anchor="middle">1850</text>
<line x1="1216.0" y1="428.0" x2="1216.0" y2="588.0" stroke="#d7dbe5" stroke-width="1.0" stroke-dasharray="4 4" />
<text x="1216.0" y="606.0" fill="#5d6574" font-size="11" font-family="Segoe UI, Arial, sans-serif" font-weight="400" text-anchor="middle">1899</text>
<line x1="98.0" y1="428.0" x2="98.0" y2="588.0" stroke="#2d3440" stroke-width="1.2" />
<line x1="98.0" y1="588.0" x2="1216.0" y2="588.0" stroke="#2d3440" stroke-width="1.2" />
<text x="56.0" y="442.0" fill="#5d6574" font-size="12" font-family="Segoe UI, Arial, sans-serif" font-weight="400" text-anchor="start">ΔV</text>
<line x1="98.0" y1="439.0" x2="1216.0" y2="439.0" stroke="#2d3440" stroke-width="1.2" stroke-dasharray="6 4" />
<polyline points="98.00,439.28 109.29,439.27 120.59,439.27 131.88,439.26 143.17,439.25 154.46,439.24 165.76,439.24 177.05,439.23 188.34,439.22 199.64,439.22 210.93,439.21 222.22,439.20 233.52,439.20 244.81,439.19 256.10,439.19 267.39,439.18 278.69,439.18 289.98,439.17 301.27,439.17 312.57,439.16 323.86,439.16 335.15,439.15 346.44,439.15 357.74,439.14 369.03,439.14 380.32,439.14 391.62,439.13 402.91,439.13 414.20,439.26 425.49,439.24 436.79,454.16 448.08,490.34 459.37,529.77 470.67,559.34 481.96,574.80 493.25,576.97 504.55,568.80 515.84,553.87 527.13,535.48 538.42,516.31 549.72,498.26 561.01,482.53 572.30,469.74 583.60,460.03 594.89,453.24 606.18,448.99 617.47,446.81 628.77,446.17 640.06,446.61 651.35,447.69 662.65,449.05 673.94,450.44 685.23,451.65 696.53,452.58 707.82,462.69 719.11,459.12 730.40,453.44 741.70,453.66 752.99,453.61 764.28,453.22 775.58,452.58 786.87,451.81 798.16,450.99 809.45,450.19 820.75,449.45 832.04,448.80 843.33,448.26 854.63,447.82 865.92,447.47 877.21,447.19 888.51,446.96 899.80,446.78 911.09,446.61 922.38,446.45 933.68,446.28 944.97,446.09 956.26,445.88 967.56,445.63 978.85,445.36 990.14,445.05 1001.43,444.72 1012.73,444.36 1024.02,443.99 1035.31,443.60 1046.61,443.21 1057.90,442.82 1069.19,442.44 1080.48,442.07 1091.78,441.72 1103.07,441.39 1114.36,441.09 1125.66,440.81 1136.95,440.55 1148.24,440.33 1159.54,440.13 1170.83,439.95 1182.12,439.81 1193.41,439.68 1204.71,439.58 1216.00,439.50" fill="none" stroke="#bf1e2d" stroke-width="2.2" stroke-linejoin="round" stroke-linecap="round" />
<polyline points="98.00,439.03 109.29,439.03 120.59,439.03 131.88,439.03 143.17,439.03 154.46,439.03 165.76,439.03 177.05,439.03 188.34,439.03 199.64,439.03 210.93,439.03 222.22,439.03 233.52,439.03 244.81,439.03 256.10,439.03 267.39,439.03 278.69,439.03 289.98,439.03 301.27,439.03 312.57,439.03 323.86,439.03 335.15,439.03 346.44,439.03 357.74,439.03 369.03,439.03 380.32,439.03 391.62,439.03 402.91,439.03 414.20,439.03 425.49,439.03 436.79,439.03 448.08,439.03 459.37,439.03 470.67,439.03 481.96,439.03 493.25,439.03 504.55,439.03 515.84,439.03 527.13,439.03 538.42,439.03 549.72,439.03 561.01,439.03 572.30,439.03 583.60,439.03 594.89,439.03 606.18,439.03 617.47,439.03 628.77,439.03 640.06,439.03 651.35,439.03 662.65,439.03 673.94,439.03 685.23,439.03 696.53,439.03 707.82,439.03 719.11,439.03 730.40,439.03 741.70,439.03 752.99,439.03 764.28,439.03 775.58,439.03 786.87,439.03 798.16,439.03 809.45,439.03 820.75,439.03 832.04,439.03 843.33,439.03 854.63,439.03 865.92,439.03 877.21,439.03 888.51,439.03 899.80,439.03 911.09,439.03 922.38,439.03 933.68,439.03 944.97,439.03 956.26,439.03 967.56,439.03 978.85,439.03 990.14,439.03 1001.43,439.03 1012.73,439.03 1024.02,439.03 1035.31,439.03 1046.61,439.03 1057.90,439.03 1069.19,439.03 1080.48,439.03 1091.78,439.03 1103.07,439.03 1114.36,439.03 1125.66,439.03 1136.95,439.03 1148.24,439.03 1159.54,439.03 1170.83,439.03 1182.12,439.03 1193.41,439.03 1204.71,439.03 1216.00,439.03" fill="none" stroke="#c96b17" stroke-width="2.2" stroke-linejoin="round" stroke-linecap="round" />
<polyline points="98.00,450.75 109.29,450.22 120.59,449.72 131.88,449.24 143.17,448.78 154.46,448.33 165.76,447.91 177.05,447.50 188.34,447.11 199.64,446.74 210.93,446.38 222.22,446.04 233.52,445.72 244.81,445.41 256.10,445.11 267.39,444.82 278.69,444.55 289.98,444.29 301.27,444.04 312.57,443.81 323.86,443.58 335.15,443.37 346.44,443.16 357.74,442.96 369.03,442.77 380.32,442.60 391.62,442.42 402.91,442.26 414.20,442.11 425.49,441.96 436.79,441.82 448.08,441.68 459.37,441.55 470.67,441.43 481.96,441.32 493.25,441.20 504.55,441.10 515.84,441.00 527.13,440.90 538.42,440.81 549.72,440.72 561.01,440.64 572.30,440.56 583.60,440.49 594.89,440.42 606.18,440.35 617.47,440.28 628.77,440.22 640.06,440.16 651.35,440.11 662.65,440.05 673.94,440.00 685.23,439.96 696.53,439.91 707.82,439.87 719.11,439.82 730.40,439.79 741.70,439.75 752.99,439.71 764.28,439.68 775.58,439.65 786.87,439.62 798.16,439.59 809.45,439.56 820.75,439.53 832.04,439.51 843.33,439.48 854.63,439.46 865.92,439.44 877.21,439.42 888.51,439.40 899.80,439.38 911.09,439.36 922.38,439.12 933.68,439.12 944.97,439.11 956.26,439.11 967.56,439.11 978.85,439.10 990.14,439.10 1001.43,439.10 1012.73,439.09 1024.02,439.09 1035.31,439.09 1046.61,439.08 1057.90,439.08 1069.19,439.08 1080.48,439.08 1091.78,439.07 1103.07,439.07 1114.36,439.07 1125.66,439.07 1136.95,439.07 1148.24,439.07 1159.54,439.06 1170.83,439.06 1182.12,439.06 1193.41,439.06 1204.71,439.06 1216.00,439.06" fill="none" stroke="#2a7f62" stroke-width="2.2" stroke-linejoin="round" stroke-linecap="round" />
<polyline points="98.00,439.03 109.29,439.03 120.59,439.03 131.88,439.03 143.17,439.03 154.46,439.03 165.76,439.03 177.05,439.03 188.34,439.03 199.64,439.03 210.93,439.03 222.22,439.03 233.52,439.03 244.81,439.03 256.10,439.03 267.39,439.03 278.69,439.03 289.98,439.03 301.27,439.03 312.57,439.03 323.86,439.03 335.15,439.03 346.44,439.03 357.74,439.03 369.03,439.03 380.32,439.03 391.62,439.03 402.91,439.03 414.20,439.03 425.49,439.03 436.79,439.03 448.08,439.03 459.37,439.03 470.67,439.03 481.96,439.03 493.25,439.03 504.55,439.03 515.84,439.03 527.13,439.03 538.42,439.03 549.72,439.03 561.01,439.03 572.30,439.03 583.60,439.03 594.89,439.03 606.18,439.03 617.47,439.03 628.77,439.03 640.06,439.03 651.35,439.03 662.65,439.03 673.94,439.03 685.23,439.03 696.53,439.03 707.82,439.03 719.11,439.03 730.40,439.03 741.70,439.03 752.99,439.03 764.28,439.03 775.58,439.03 786.87,439.03 798.16,439.03 809.45,439.03 820.75,439.03 832.04,439.03 843.33,439.03 854.63,439.03 865.92,439.03 877.21,439.03 888.51,439.03 899.80,439.03 911.09,439.03 922.38,439.03 933.68,439.03 944.97,439.03 956.26,439.03 967.56,439.03 978.85,439.03 990.14,439.03 1001.43,439.03 1012.73,439.03 1024.02,439.03 1035.31,439.03 1046.61,439.03 1057.90,439.03 1069.19,439.03 1080.48,439.03 1091.78,439.03 1103.07,439.03 1114.36,439.03 1125.66,439.03 1136.95,439.03 1148.24,439.03 1159.54,439.03 1170.83,439.03 1182.12,439.03 1193.41,439.03 1204.71,439.03 1216.00,439.03" fill="none" stroke="#2458d3" stroke-width="2.2" stroke-linejoin="round" stroke-linecap="round" />
<line x1="54.0" y1="686.0" x2="82.0" y2="686.0" stroke="#2d3440" stroke-width="1.8" stroke-dasharray="6 4" />
<text x="92.0" y="690.0" fill="#1f2430" font-size="12" font-family="Segoe UI, Arial, sans-serif" font-weight="400" text-anchor="start">ΔV = 0</text>
<line x1="220.0" y1="686.0" x2="248.0" y2="686.0" stroke="#bf1e2d" stroke-width="2.4" />
<text x="258.0" y="690.0" fill="#1f2430" font-size="12" font-family="Segoe UI, Arial, sans-serif" font-weight="400" text-anchor="start">rho=0.95</text>
<line x1="385.0" y1="686.0" x2="413.0" y2="686.0" stroke="#c96b17" stroke-width="2.4" />
<text x="423.0" y="690.0" fill="#1f2430" font-size="12" font-family="Segoe UI, Arial, sans-serif" font-weight="400" text-anchor="start">rho=0.98</text>
<line x1="550.0" y1="686.0" x2="578.0" y2="686.0" stroke="#2a7f62" stroke-width="2.4" />
<text x="588.0" y="690.0" fill="#1f2430" font-size="12" font-family="Segoe UI, Arial, sans-serif" font-weight="400" text-anchor="start">rho=0.985</text>
<line x1="715.0" y1="686.0" x2="743.0" y2="686.0" stroke="#2458d3" stroke-width="2.4" />
<text x="753.0" y="690.0" fill="#1f2430" font-size="12" font-family="Segoe UI, Arial, sans-serif" font-weight="400" text-anchor="start">rho=0.99</text>
</svg>