<svg xmlns="http://www.w3.org/2000/svg" width="1200" height="1120" viewBox="0 0 1200 1120" role="img">
<rect x="0.0" y="0.0" width="1200.0" height="1120.0" fill="#ffffff" stroke="none" stroke-width="1.0" rx="0.0" />
<text x="40.0" y="34.0" fill="#1f2430" font-size="22" font-family="Segoe UI, Arial, sans-serif" font-weight="600" text-anchor="start">Bounded hard: Lyapunov contraction ratio across rho</text>
<text x="40.0" y="56.0" fill="#5d6574" font-size="13" font-family="Segoe UI, Arial, sans-serif" font-weight="400" text-anchor="start">Each panel plots V_next_first / V_k against the run-specific rho line. Red markers indicate first-step contraction violations.</text>
<rect x="40.0" y="80.0" width="1120.0" height="235.0" fill="#fbfbfd" stroke="#d7dbe5" stroke-width="1.0" rx="8.0" />
<text x="56.0" y="104.0" fill="#1f2430" font-size="16" font-family="Segoe UI, Arial, sans-serif" font-weight="600" text-anchor="start">Run 20260501_001425</text>
<text x="56.0" y="122.0" fill="#5d6574" font-size="12" font-family="Segoe UI, Arial, sans-serif" font-weight="400" text-anchor="start">rho=0.95 | solver=90.25% | hard=90.20% | bounded-LS=2000 | y-max=1.02 | clipped=0</text>
<line x1="98.0" y1="289.0" x2="1132.0" y2="289.0" stroke="#d7dbe5" stroke-width="1.0" stroke-dasharray="4 4" />
<text x="88.0" y="293.0" fill="#5d6574" font-size="11" font-family="Segoe UI, Arial, sans-serif" font-weight="400" text-anchor="end">0.00</text>
<line x1="98.0" y1="213.5" x2="1132.0" y2="213.5" stroke="#d7dbe5" stroke-width="1.0" stroke-dasharray="4 4" />
<text x="88.0" y="217.5" fill="#5d6574" font-size="11" font-family="Segoe UI, Arial, sans-serif" font-weight="400" text-anchor="end">0.51</text>
<line x1="98.0" y1="138.0" x2="1132.0" y2="138.0" stroke="#d7dbe5" stroke-width="1.0" stroke-dasharray="4 4" />
<text x="88.0" y="142.0" fill="#5d6574" font-size="11" font-family="Segoe UI, Arial, sans-serif" font-weight="400" text-anchor="end">1.02</text>
<line x1="98.0" y1="138.0" x2="98.0" y2="289.0" stroke="#d7dbe5" stroke-width="1.0" stroke-dasharray="4 4" />
<text x="98.0" y="307.0" fill="#5d6574" font-size="11" font-family="Segoe UI, Arial, sans-serif" font-weight="400" text-anchor="middle">0</text>
<line x1="356.5" y1="138.0" x2="356.5" y2="289.0" stroke="#d7dbe5" stroke-width="1.0" stroke-dasharray="4 4" />
<text x="356.5" y="307.0" fill="#5d6574" font-size="11" font-family="Segoe UI, Arial, sans-serif" font-weight="400" text-anchor="middle">500</text>
<line x1="615.0" y1="138.0" x2="615.0" y2="289.0" stroke="#d7dbe5" stroke-width="1.0" stroke-dasharray="4 4" />
<text x="615.0" y="307.0" fill="#5d6574" font-size="11" font-family="Segoe UI, Arial, sans-serif" font-weight="400" text-anchor="middle">1000</text>
<line x1="873.5" y1="138.0" x2="873.5" y2="289.0" stroke="#d7dbe5" stroke-width="1.0" stroke-dasharray="4 4" />
<text x="873.5" y="307.0" fill="#5d6574" font-size="11" font-family="Segoe UI, Arial, sans-serif" font-weight="400" text-anchor="middle">1500</text>
<line x1="1132.0" y1="138.0" x2="1132.0" y2="289.0" stroke="#d7dbe5" stroke-width="1.0" stroke-dasharray="4 4" />
<text x="1132.0" y="307.0" fill="#5d6574" font-size="11" font-family="Segoe UI, Arial, sans-serif" font-weight="400" text-anchor="middle">2000</text>
<line x1="98.0" y1="138.0" x2="98.0" y2="289.0" stroke="#2d3440" stroke-width="1.2" />
<line x1="98.0" y1="289.0" x2="1132.0" y2="289.0" stroke="#2d3440" stroke-width="1.2" />
<polyline points="98.00,148.36 100.07,148.36 102.14,148.36 104.20,148.36 106.27,148.36 108.34,148.36 110.41,148.36 112.48,148.36 114.54,148.36 116.61,148.36 118.68,148.36 120.75,148.36 122.82,148.36 124.88,148.36 126.95,148.36 129.02,148.36 131.09,148.36 133.16,148.36 135.22,148.36 137.29,148.36 139.36,148.36 141.43,148.36 143.50,148.36 145.56,148.36 147.63,148.36 149.70,148.36 151.77,148.36 153.84,148.36 155.90,148.36 157.97,148.36 160.04,148.36 162.11,148.36 164.18,148.36 166.24,148.36 168.31,148.36 170.38,148.36 172.45,148.36 174.52,148.36 176.58,148.36 178.65,148.36 180.72,148.36 182.79,148.36 184.86,148.36 186.92,148.36 188.99,148.36 191.06,148.36 193.13,148.36 195.20,148.36 197.26,148.36 199.33,148.36 201.40,148.36 203.47,148.36 205.54,148.36 207.60,148.36 209.67,148.36 211.74,148.36 213.81,148.36 215.88,148.36 217.94,148.36 220.01,148.36 222.08,148.36 224.15,148.36 226.22,148.36 228.28,148.36 230.35,148.36 232.42,148.36 234.49,148.36 236.56,148.36 238.62,148.36 240.69,148.36 242.76,148.36 244.83,148.36 246.90,148.36 248.96,148.36 251.03,148.36 253.10,148.36 255.17,148.36 257.24,148.36 259.30,148.36 261.37,148.36 263.44,148.36 265.51,148.36 267.58,148.36 269.64,148.36 271.71,148.36 273.78,148.36 275.85,148.36 277.92,148.36 279.98,148.36 282.05,148.36 284.12,148.36 286.19,148.36 288.26,148.36 290.32,148.36 292.39,148.36 294.46,148.36 296.53,148.36 298.60,148.36 300.66,148.36 302.73,148.36 304.80,148.36 306.87,148.36 308.94,148.36 311.00,148.36 313.07,148.36 315.14,148.36 317.21,148.36 319.28,148.36 321.34,148.36 323.41,148.36 325.48,148.36 327.55,148.36 329.62,148.36 331.68,148.36 333.75,148.36 335.82,148.36 337.89,148.36 339.96,148.36 342.02,148.36 344.09,148.36 346.16,148.36 348.23,148.36 350.30,148.36 352.36,148.36 354.43,148.36 356.50,148.36 358.57,148.36 360.64,148.36 362.70,148.36 364.77,148.36 366.84,148.36 368.91,148.36 370.98,148.36 373.04,148.36 375.11,148.36 377.18,148.36 379.25,148.36 381.32,148.36 383.38,148.36 385.45,148.36 387.52,148.36 389.59,148.36 391.66,148.36 393.72,148.36 395.79,148.36 397.86,148.36 399.93,148.36 402.00,148.36 404.06,148.36 406.13,148.36 408.20,148.36 410.27,148.36 412.34,148.36 414.40,148.36 416.47,148.36 418.54,148.36 420.61,148.36 422.68,148.36 424.74,148.36 426.81,148.36 428.88,148.36 430.95,148.36 433.02,148.36 435.08,148.36 437.15,148.36 439.22,148.36 441.29,148.36 443.36,148.36 445.42,148.36 447.49,148.36 449.56,148.36 451.63,148.36 453.70,148.36 455.76,148.36 457.83,148.36 459.90,148.36 461.97,148.36 464.04,148.36 466.10,148.36 468.17,148.36 470.24,148.36 472.31,148.36 474.38,148.36 476.44,148.36 478.51,148.36 480.58,148.36 482.65,148.36 484.72,148.36 486.78,148.36 488.85,148.36 490.92,148.36 492.99,148.36 495.06,148.36 497.12,148.36 499.19,148.36 501.26,148.36 503.33,148.36 505.40,148.36 507.46,148.36 509.53,148.36 511.60,148.36 513.67,148.36 515.74,148.36 517.80,148.36 519.87,148.36 521.94,148.36 524.01,148.36 526.08,148.36 528.14,148.36 530.21,148.36 532.28,148.36 534.35,148.36 536.42,148.36 538.48,148.36 540.55,148.36 542.62,148.36 544.69,148.36 546.76,148.36 548.82,148.36 550.89,148.36 552.96,148.36 555.03,148.36 557.10,148.36 559.16,148.36 561.23,148.36 563.30,148.36 565.37,148.36 567.44,148.36 569.50,148.36 571.57,148.36 573.64,148.36 575.71,148.36 577.78,148.36 579.84,148.36 581.91,148.36 583.98,148.36 586.05,148.36 588.12,148.36 590.18,148.36 592.25,148.36 594.32,148.36 596.39,148.36 598.46,148.36 600.52,148.36 602.59,148.36 604.66,148.36 606.73,148.36 608.80,148.36 610.86,148.36 612.93,148.36 615.00,148.36 617.07,148.36 619.14,148.36 621.20,148.36 623.27,148.36 625.34,148.36 627.41,148.36 629.48,148.36 631.54,148.36 633.61,148.36 635.68,148.36 637.75,148.36 639.82,148.36 641.88,148.36 643.95,148.36 646.02,148.36 648.09,148.36 650.16,148.36 652.22,148.36 654.29,148.36 656.36,148.36 658.43,148.36 660.50,148.36 662.56,148.36 664.63,148.36 666.70,148.36 668.77,148.36 670.84,148.36 672.90,148.36 674.97,148.36 677.04,148.36 679.11,148.36 681.18,148.36 683.24,148.36 685.31,148.36 687.38,148.36 689.45,148.36 691.52,148.36 693.58,148.36 695.65,148.36 697.72,148.36 699.79,148.36 701.86,148.36 703.92,148.36 705.99,148.36 708.06,148.36 710.13,148.36 712.20,148.36 714.26,148.36 716.33,148.36 718.40,148.36 720.47,148.36 722.54,148.36 724.60,148.36 726.67,148.36 728.74,148.36 730.81,148.36 732.88,148.36 734.94,148.36 737.01,148.36 739.08,148.36 741.15,148.36 743.22,148.36 745.28,148.36 747.35,148.36 749.42,148.36 751.49,148.36 753.56,148.36 755.62,148.36 757.69,148.36 759.76,148.36 761.83,148.36 763.90,148.36 765.96,148.36 768.03,148.36 770.10,148.36 772.17,148.36 774.24,148.36 776.30,148.36 778.37,148.36 780.44,148.36 782.51,148.36 784.58,148.36 786.64,148.36 788.71,148.36 790.78,148.36 792.85,148.36 794.92,148.36 796.98,148.36 799.05,148.36 801.12,148.36 803.19,148.36 805.26,148.36 807.32,148.36 809.39,148.36 811.46,148.36 813.53,148.36 815.60,148.36 817.66,148.36 819.73,148.36 821.80,148.36 823.87,148.36 825.94,148.36 828.00,148.36 830.07,148.36 832.14,148.36 834.21,148.36 836.28,148.36 838.34,148.36 840.41,148.36 842.48,148.36 844.55,148.36 846.62,148.36 848.68,148.36 850.75,148.36 852.82,148.36 854.89,148.36 856.96,148.36 859.02,148.36 861.09,148.36 863.16,148.36 865.23,148.36 867.30,148.36 869.36,148.36 871.43,148.36 873.50,148.36 875.57,148.36 877.64,148.36 879.70,148.36 881.77,148.36 883.84,148.36 885.91,148.36 887.98,148.36 890.04,148.36 892.11,148.36 894.18,148.36 896.25,148.36 898.32,148.36 900.38,148.36 902.45,148.36 904.52,148.36 906.59,148.36 908.66,148.36 910.72,148.36 912.79,148.36 914.86,148.36 916.93,148.36 919.00,148.36 921.06,148.36 923.13,148.36 925.20,148.36 927.27,148.36 929.34,148.36 931.40,148.36 933.47,148.36 935.54,148.36 937.61,148.36 939.68,148.36 941.74,148.36 943.81,148.36 945.88,148.36 947.95,148.36 950.02,148.36 952.08,148.36 954.15,148.36 956.22,148.36 958.29,148.36 960.36,148.36 962.42,148.36 964.49,148.36 966.56,148.36 968.63,148.36 970.70,148.36 972.76,148.36 974.83,148.36 976.90,148.36 978.97,148.36 981.04,148.36 983.10,148.36 985.17,148.36 987.24,148.36 989.31,148.36 991.38,148.36 993.44,148.36 995.51,148.36 997.58,148.36 999.65,148.36 1001.72,148.36 1003.78,148.36 1005.85,148.36 1007.92,148.36 1009.99,148.36 1012.06,148.36 1014.12,148.36 1016.19,148.36 1018.26,148.36 1020.33,148.36 1022.40,148.36 1024.46,148.36 1026.53,148.36 1028.60,148.36 1030.67,148.36 1032.74,148.36 1034.80,148.36 1036.87,148.36 1038.94,148.36 1041.01,148.36 1043.08,148.36 1045.14,148.36 1047.21,148.36 1049.28,148.36 1051.35,148.36 1053.42,148.36 1055.48,148.36 1057.55,148.36 1059.62,148.36 1061.69,148.36 1063.76,148.36 1065.82,148.36 1067.89,148.36 1069.96,148.36 1072.03,148.36 1074.10,148.36 1076.16,148.36 1078.23,148.36 1080.30,148.36 1082.37,148.36 1084.44,148.36 1086.50,148.36 1088.57,148.36 1090.64,148.36 1092.71,148.36 1094.78,148.36 1096.84,148.36 1098.91,148.36 1100.98,148.36 1103.05,148.36 1105.12,148.36 1107.18,148.36 1109.25,148.36 1111.32,148.36 1113.39,148.36 1115.46,148.36 1117.52,148.36 1119.59,148.36 1121.66,148.36 1123.73,148.36 1125.80,148.36 1127.86,148.36 1129.93,148.36 1131.48,148.36" fill="none" stroke="#b35c00" stroke-width="1.8" stroke-linejoin="round" stroke-linecap="round" />
<polyline points="98.00,148.36 100.07,159.62 102.14,158.74 104.20,155.84 106.27,151.98 108.34,149.56 110.41,150.07 112.48,152.44 114.54,153.84 116.61,153.85 118.68,153.23 120.75,152.33 122.82,151.21 124.88,149.87 126.95,148.44 129.02,154.34 131.09,160.28 133.16,162.32 135.22,157.30 137.29,150.87 139.36,159.86 141.43,159.20 143.50,159.31 145.56,148.36 147.63,157.00 149.70,159.21 151.77,184.41 153.84,160.80 155.90,153.70 157.97,149.70 160.04,154.32 162.11,154.73 164.18,155.03 166.24,158.93 168.31,170.20 170.38,214.77 172.45,174.65 174.52,149.31 176.58,149.66 178.65,154.41 180.72,154.04 182.79,153.51 184.86,157.43 186.92,170.94 188.99,199.36 191.06,181.59 193.13,150.29 195.20,156.69 197.26,157.71 199.33,158.13 201.40,158.60 203.47,158.21 205.54,155.32 213.81,152.58 215.88,156.14 217.94,156.60 220.01,158.53 222.08,189.25 224.15,208.57 226.22,150.78 234.49,148.78 236.56,158.86 238.62,160.24 240.69,161.26 244.83,150.37 246.90,156.52 248.96,161.57 251.03,161.17 253.10,156.41 255.17,151.04 257.24,148.70 259.30,149.81 261.37,152.61 263.44,155.08 265.51,156.13 267.58,156.18 269.64,156.49 271.71,155.26 273.78,152.75 275.85,149.71 277.92,148.69 279.98,163.02 282.05,169.29 284.12,173.09 286.19,167.37 288.26,157.70 290.32,162.76 292.39,159.00 294.46,157.24 298.60,153.37 300.66,149.42 302.73,154.96 304.80,164.53 306.87,165.35 308.94,157.12 311.00,148.87 313.07,153.00 315.14,154.86 317.21,156.51 319.28,160.67 321.34,168.64 323.41,186.03 325.48,153.16 327.55,151.83 329.62,155.82 331.68,156.17 333.75,157.22 335.82,166.55 337.89,227.40 339.96,181.00 350.30,157.84 352.36,159.97 354.43,159.14 362.70,148.36 364.77,157.86 366.84,160.98 368.91,157.99 370.98,156.21 373.04,159.75 375.11,187.88 377.18,162.36 379.25,155.20 381.32,155.48 383.38,156.28 385.45,157.64 387.52,158.49 389.59,162.84 391.66,156.29 393.72,148.36 395.79,157.72 397.86,158.19 399.93,158.07 404.06,155.28 406.13,160.39 408.20,158.82 410.27,151.85 414.40,152.38 416.47,153.79 418.54,157.66 420.61,167.04 422.68,192.23 424.74,178.13 426.81,155.65 428.88,152.01 430.95,151.44 433.02,151.79 435.08,153.07 437.15,155.66 439.22,159.39 441.29,160.66 443.36,153.36 445.42,148.36 447.49,158.93 449.56,159.83 451.63,160.25 453.70,167.85 455.76,223.50 457.83,162.20 459.90,148.36 461.97,157.56 464.04,157.25 466.10,157.77 468.17,159.26 470.24,160.61 472.31,158.19 480.58,151.13 482.65,156.50 484.72,156.78 486.78,157.86 488.85,180.39 490.92,188.25 492.99,153.50 501.26,148.77 503.33,159.36 505.40,166.30 507.46,172.34 509.53,149.64 511.60,152.56 513.67,155.07 515.74,157.53 517.80,158.92 519.87,159.15 521.94,159.04 524.01,159.34 526.08,157.50 528.14,148.36 530.21,155.28 532.28,156.88 534.35,157.00 536.42,158.57 538.48,179.44 540.55,193.05 550.89,148.36 552.96,158.41 555.03,160.91 557.10,161.92 561.23,148.36 563.30,158.30 565.37,159.88 567.44,154.86 569.50,150.35 571.57,152.76 573.64,160.09 575.71,163.08 577.78,160.03 579.84,157.28 581.91,156.82 583.98,155.53 586.05,155.38 588.12,155.59 590.18,153.47 592.25,150.33 594.32,149.68 596.39,160.26 598.46,161.66 600.52,164.16 602.59,164.86 604.66,178.06 606.73,158.04 608.80,148.36 610.86,161.05 612.93,172.62 615.00,153.33 617.07,152.77 619.14,153.49 621.20,154.42 623.27,155.17 625.34,155.47 627.41,154.95 629.48,152.56 631.54,150.58 633.61,153.85 635.68,155.72 637.75,156.67 639.82,157.26 641.88,157.02 643.95,154.45 646.02,149.68 648.09,152.11 650.16,157.79 652.22,158.47 654.29,159.40 658.43,156.90 660.50,157.85 662.56,152.91 664.63,148.36 670.84,152.52 672.90,173.40 674.97,211.50 677.04,175.11 679.11,156.69 681.18,154.91 683.24,156.09 685.31,157.86 687.38,159.91 689.45,162.95 691.52,169.28 693.58,157.15 695.65,151.17 697.72,152.02 699.79,152.42 701.86,152.30 703.92,151.75 705.99,150.85 708.06,149.82 710.13,148.89 712.20,148.36 714.26,151.69 716.33,154.64 718.40,154.24 720.47,151.98 722.54,148.36 724.60,157.77 726.67,161.26 728.74,164.73 730.81,183.50 732.88,158.76 734.94,157.72 737.01,156.95 739.08,158.18 741.15,160.77 743.22,162.46 745.28,149.74 749.42,151.81 751.49,156.48 753.56,156.53 755.62,155.99 757.69,157.97 759.76,170.98 761.83,167.06 763.90,152.81 770.10,148.36 772.17,158.19 774.24,162.03 776.30,166.75 782.51,157.62 784.58,159.68 786.64,157.57 788.71,157.39 790.78,161.15 792.85,175.51 794.92,155.40 796.98,152.40 799.05,153.81 801.12,154.93 803.19,155.80 805.26,157.80 807.32,163.54 809.39,166.14 811.46,155.51 813.53,152.34 815.60,157.68 817.66,159.49 819.73,160.33 821.80,148.36 823.87,158.35 825.94,161.64 828.00,208.62 830.07,157.16 832.14,158.31 834.21,154.79 836.28,150.28 838.34,148.36 840.41,149.80 842.48,152.86 844.55,155.61 846.62,156.84 848.68,156.35 850.75,156.42 852.82,155.12 854.89,152.55 856.96,149.45 859.02,152.42 861.09,164.18 863.16,168.41 865.23,185.11 867.30,183.63 869.36,177.44 871.43,151.86 873.50,158.41 875.57,159.66 877.64,148.94 885.91,154.47 887.98,159.42 890.04,159.73 892.11,157.43 894.18,158.28 896.25,165.71 898.32,167.28 900.38,154.52 902.45,155.66 904.52,156.65 906.59,157.34 908.66,159.34 910.72,163.30 912.79,163.93 916.93,156.28 919.00,158.91 921.06,160.15 923.13,148.95 933.47,148.70 935.54,162.39 937.61,199.07 939.68,156.60 941.74,155.11 943.81,155.77 945.88,156.69 947.95,157.37 950.02,157.68 952.08,157.52 954.15,155.20 956.22,148.36 958.29,155.48 960.36,157.49 962.42,157.71 964.49,156.34 966.56,153.59 968.63,150.34 970.70,148.36 972.76,154.20 974.83,158.13 976.90,159.98 978.97,158.50 981.04,148.36 983.10,158.22 985.17,162.70 987.24,152.72 989.31,156.91 991.38,159.05 993.44,158.10 995.51,154.48 997.58,155.61 999.65,166.68 1001.72,177.96 1003.78,160.22 1005.85,155.19 1007.92,153.89 1009.99,154.13 1012.06,154.68 1014.12,155.39 1016.19,156.83 1018.26,157.95 1020.33,152.63 1022.40,148.36 1024.46,158.64 1026.53,159.19 1028.60,158.42 1030.67,153.81 1032.74,160.49 1034.80,164.58 1036.87,156.65 1038.94,149.59 1041.01,153.49 1043.08,156.17 1045.14,156.23 1047.21,158.80 1049.28,168.04 1051.35,218.93 1053.42,159.39 1055.48,149.37 1057.55,149.70 1059.62,150.54 1061.69,151.64 1063.76,153.38 1065.82,156.14 1067.89,159.73 1069.96,161.27 1072.03,155.60 1074.10,148.59 1076.16,156.43 1078.23,159.57 1080.30,160.47 1082.37,162.58 1084.44,191.63 1086.50,169.28 1096.84,158.05 1098.91,158.41 1100.98,156.47 1107.18,148.36 1109.25,157.76 1111.32,161.36 1113.39,159.69 1115.46,154.34 1117.52,151.70 1119.59,154.24 1121.66,160.24 1123.73,160.52 1125.80,157.63 1127.86,155.67 1129.93,154.52 1131.48,154.19" fill="none" stroke="#2458d3" stroke-width="1.8" stroke-linejoin="round" stroke-linecap="round" />
<circle cx="127.99" cy="148.36" r="2.20" fill="#bf1e2d" stroke="none" stroke-width="0.0" />
<line x1="56.0" y1="293.0" x2="80.0" y2="293.0" stroke="#2458d3" stroke-width="2.0" />
<text x="86.0" y="297.0" fill="#1f2430" font-size="12" font-family="Segoe UI, Arial, sans-serif" font-weight="400" text-anchor="start">V_next / V_k</text>
<line x1="208.0" y1="293.0" x2="232.0" y2="293.0" stroke="#b35c00" stroke-width="2.0" />
<text x="238.0" y="297.0" fill="#1f2430" font-size="12" font-family="Segoe UI, Arial, sans-serif" font-weight="400" text-anchor="start">rho</text>
<circle cx="308.00" cy="293.00" r="2.40" fill="#bf1e2d" stroke="none" stroke-width="0.0" />
<text x="320.0" y="297.0" fill="#1f2430" font-size="12" font-family="Segoe UI, Arial, sans-serif" font-weight="400" text-anchor="start">violations</text>
<rect x="40.0" y="333.0" width="1120.0" height="235.0" fill="#fbfbfd" stroke="#d7dbe5" stroke-width="1.0" rx="8.0" />
<text x="56.0" y="357.0" fill="#1f2430" font-size="16" font-family="Segoe UI, Arial, sans-serif" font-weight="600" text-anchor="start">Run 20260501_003638</text>
<text x="56.0" y="375.0" fill="#5d6574" font-size="12" font-family="Segoe UI, Arial, sans-serif" font-weight="400" text-anchor="start">rho=0.98 | solver=97.95% | hard=97.95% | bounded-LS=1152 | y-max=1.04 | clipped=19</text>
<line x1="98.0" y1="542.0" x2="1132.0" y2="542.0" stroke="#d7dbe5" stroke-width="1.0" stroke-dasharray="4 4" />
<text x="88.0" y="546.0" fill="#5d6574" font-size="11" font-family="Segoe UI, Arial, sans-serif" font-weight="400" text-anchor="end">0.00</text>
<line x1="98.0" y1="466.5" x2="1132.0" y2="466.5" stroke="#d7dbe5" stroke-width="1.0" stroke-dasharray="4 4" />
<text x="88.0" y="470.5" fill="#5d6574" font-size="11" font-family="Segoe UI, Arial, sans-serif" font-weight="400" text-anchor="end">0.52</text>
<line x1="98.0" y1="391.0" x2="1132.0" y2="391.0" stroke="#d7dbe5" stroke-width="1.0" stroke-dasharray="4 4" />
<text x="88.0" y="395.0" fill="#5d6574" font-size="11" font-family="Segoe UI, Arial, sans-serif" font-weight="400" text-anchor="end">1.04</text>
<line x1="98.0" y1="391.0" x2="98.0" y2="542.0" stroke="#d7dbe5" stroke-width="1.0" stroke-dasharray="4 4" />
<text x="98.0" y="560.0" fill="#5d6574" font-size="11" font-family="Segoe UI, Arial, sans-serif" font-weight="400" text-anchor="middle">0</text>
<line x1="356.5" y1="391.0" x2="356.5" y2="542.0" stroke="#d7dbe5" stroke-width="1.0" stroke-dasharray="4 4" />
<text x="356.5" y="560.0" fill="#5d6574" font-size="11" font-family="Segoe UI, Arial, sans-serif" font-weight="400" text-anchor="middle">500</text>
<line x1="615.0" y1="391.0" x2="615.0" y2="542.0" stroke="#d7dbe5" stroke-width="1.0" stroke-dasharray="4 4" />
<text x="615.0" y="560.0" fill="#5d6574" font-size="11" font-family="Segoe UI, Arial, sans-serif" font-weight="400" text-anchor="middle">1000</text>
<line x1="873.5" y1="391.0" x2="873.5" y2="542.0" stroke="#d7dbe5" stroke-width="1.0" stroke-dasharray="4 4" />
<text x="873.5" y="560.0" fill="#5d6574" font-size="11" font-family="Segoe UI, Arial, sans-serif" font-weight="400" text-anchor="middle">1500</text>
<line x1="1132.0" y1="391.0" x2="1132.0" y2="542.0" stroke="#d7dbe5" stroke-width="1.0" stroke-dasharray="4 4" />
<text x="1132.0" y="560.0" fill="#5d6574" font-size="11" font-family="Segoe UI, Arial, sans-serif" font-weight="400" text-anchor="middle">2000</text>
<line x1="98.0" y1="391.0" x2="98.0" y2="542.0" stroke="#2d3440" stroke-width="1.2" />
<line x1="98.0" y1="542.0" x2="1132.0" y2="542.0" stroke="#2d3440" stroke-width="1.2" />
<polyline points="98.00,399.22 100.07,399.22 102.14,399.22 104.20,399.22 106.27,399.22 108.34,399.22 110.41,399.22 112.48,399.22 114.54,399.22 116.61,399.22 118.68,399.22 120.75,399.22 122.82,399.22 124.88,399.22 126.95,399.22 129.02,399.22 131.09,399.22 133.16,399.22 135.22,399.22 137.29,399.22 139.36,399.22 141.43,399.22 143.50,399.22 145.56,399.22 147.63,399.22 149.70,399.22 151.77,399.22 153.84,399.22 155.90,399.22 157.97,399.22 160.04,399.22 162.11,399.22 164.18,399.22 166.24,399.22 168.31,399.22 170.38,399.22 172.45,399.22 174.52,399.22 176.58,399.22 178.65,399.22 180.72,399.22 182.79,399.22 184.86,399.22 186.92,399.22 188.99,399.22 191.06,399.22 193.13,399.22 195.20,399.22 197.26,399.22 199.33,399.22 201.40,399.22 203.47,399.22 205.54,399.22 207.60,399.22 209.67,399.22 211.74,399.22 213.81,399.22 215.88,399.22 217.94,399.22 220.01,399.22 222.08,399.22 224.15,399.22 226.22,399.22 228.28,399.22 230.35,399.22 232.42,399.22 234.49,399.22 236.56,399.22 238.62,399.22 240.69,399.22 242.76,399.22 244.83,399.22 246.90,399.22 248.96,399.22 251.03,399.22 253.10,399.22 255.17,399.22 257.24,399.22 259.30,399.22 261.37,399.22 263.44,399.22 265.51,399.22 267.58,399.22 269.64,399.22 271.71,399.22 273.78,399.22 275.85,399.22 277.92,399.22 279.98,399.22 282.05,399.22 284.12,399.22 286.19,399.22 288.26,399.22 290.32,399.22 292.39,399.22 294.46,399.22 296.53,399.22 298.60,399.22 300.66,399.22 302.73,399.22 304.80,399.22 306.87,399.22 308.94,399.22 311.00,399.22 313.07,399.22 315.14,399.22 317.21,399.22 319.28,399.22 321.34,399.22 323.41,399.22 325.48,399.22 327.55,399.22 329.62,399.22 331.68,399.22 333.75,399.22 335.82,399.22 337.89,399.22 339.96,399.22 342.02,399.22 344.09,399.22 346.16,399.22 348.23,399.22 350.30,399.22 352.36,399.22 354.43,399.22 356.50,399.22 358.57,399.22 360.64,399.22 362.70,399.22 364.77,399.22 366.84,399.22 368.91,399.22 370.98,399.22 373.04,399.22 375.11,399.22 377.18,399.22 379.25,399.22 381.32,399.22 383.38,399.22 385.45,399.22 387.52,399.22 389.59,399.22 391.66,399.22 393.72,399.22 395.79,399.22 397.86,399.22 399.93,399.22 402.00,399.22 404.06,399.22 406.13,399.22 408.20,399.22 410.27,399.22 412.34,399.22 414.40,399.22 416.47,399.22 418.54,399.22 420.61,399.22 422.68,399.22 424.74,399.22 426.81,399.22 428.88,399.22 430.95,399.22 433.02,399.22 435.08,399.22 437.15,399.22 439.22,399.22 441.29,399.22 443.36,399.22 445.42,399.22 447.49,399.22 449.56,399.22 451.63,399.22 453.70,399.22 455.76,399.22 457.83,399.22 459.90,399.22 461.97,399.22 464.04,399.22 466.10,399.22 468.17,399.22 470.24,399.22 472.31,399.22 474.38,399.22 476.44,399.22 478.51,399.22 480.58,399.22 482.65,399.22 484.72,399.22 486.78,399.22 488.85,399.22 490.92,399.22 492.99,399.22 495.06,399.22 497.12,399.22 499.19,399.22 501.26,399.22 503.33,399.22 505.40,399.22 507.46,399.22 509.53,399.22 511.60,399.22 513.67,399.22 515.74,399.22 517.80,399.22 519.87,399.22 521.94,399.22 524.01,399.22 526.08,399.22 528.14,399.22 530.21,399.22 532.28,399.22 534.35,399.22 536.42,399.22 538.48,399.22 540.55,399.22 542.62,399.22 544.69,399.22 546.76,399.22 548.82,399.22 550.89,399.22 552.96,399.22 555.03,399.22 557.10,399.22 559.16,399.22 561.23,399.22 563.30,399.22 565.37,399.22 567.44,399.22 569.50,399.22 571.57,399.22 573.64,399.22 575.71,399.22 577.78,399.22 579.84,399.22 581.91,399.22 583.98,399.22 586.05,399.22 588.12,399.22 590.18,399.22 592.25,399.22 594.32,399.22 596.39,399.22 598.46,399.22 600.52,399.22 602.59,399.22 604.66,399.22 606.73,399.22 608.80,399.22 610.86,399.22 612.93,399.22 615.00,399.22 617.07,399.22 619.14,399.22 621.20,399.22 623.27,399.22 625.34,399.22 627.41,399.22 629.48,399.22 631.54,399.22 633.61,399.22 635.68,399.22 637.75,399.22 639.82,399.22 641.88,399.22 643.95,399.22 646.02,399.22 648.09,399.22 650.16,399.22 652.22,399.22 654.29,399.22 656.36,399.22 658.43,399.22 660.50,399.22 662.56,399.22 664.63,399.22 666.70,399.22 668.77,399.22 670.84,399.22 672.90,399.22 674.97,399.22 677.04,399.22 679.11,399.22 681.18,399.22 683.24,399.22 685.31,399.22 687.38,399.22 689.45,399.22 691.52,399.22 693.58,399.22 695.65,399.22 697.72,399.22 699.79,399.22 701.86,399.22 703.92,399.22 705.99,399.22 708.06,399.22 710.13,399.22 712.20,399.22 714.26,399.22 716.33,399.22 718.40,399.22 720.47,399.22 722.54,399.22 724.60,399.22 726.67,399.22 728.74,399.22 730.81,399.22 732.88,399.22 734.94,399.22 737.01,399.22 739.08,399.22 741.15,399.22 743.22,399.22 745.28,399.22 747.35,399.22 749.42,399.22 751.49,399.22 753.56,399.22 755.62,399.22 757.69,399.22 759.76,399.22 761.83,399.22 763.90,399.22 765.96,399.22 768.03,399.22 770.10,399.22 772.17,399.22 774.24,399.22 776.30,399.22 778.37,399.22 780.44,399.22 782.51,399.22 784.58,399.22 786.64,399.22 788.71,399.22 790.78,399.22 792.85,399.22 794.92,399.22 796.98,399.22 799.05,399.22 801.12,399.22 803.19,399.22 805.26,399.22 807.32,399.22 809.39,399.22 811.46,399.22 813.53,399.22 815.60,399.22 817.66,399.22 819.73,399.22 821.80,399.22 823.87,399.22 825.94,399.22 828.00,399.22 830.07,399.22 832.14,399.22 834.21,399.22 836.28,399.22 838.34,399.22 840.41,399.22 842.48,399.22 844.55,399.22 846.62,399.22 848.68,399.22 850.75,399.22 852.82,399.22 854.89,399.22 856.96,399.22 859.02,399.22 861.09,399.22 863.16,399.22 865.23,399.22 867.30,399.22 869.36,399.22 871.43,399.22 873.50,399.22 875.57,399.22 877.64,399.22 879.70,399.22 881.77,399.22 883.84,399.22 885.91,399.22 887.98,399.22 890.04,399.22 892.11,399.22 894.18,399.22 896.25,399.22 898.32,399.22 900.38,399.22 902.45,399.22 904.52,399.22 906.59,399.22 908.66,399.22 910.72,399.22 912.79,399.22 914.86,399.22 916.93,399.22 919.00,399.22 921.06,399.22 923.13,399.22 925.20,399.22 927.27,399.22 929.34,399.22 931.40,399.22 933.47,399.22 935.54,399.22 937.61,399.22 939.68,399.22 941.74,399.22 943.81,399.22 945.88,399.22 947.95,399.22 950.02,399.22 952.08,399.22 954.15,399.22 956.22,399.22 958.29,399.22 960.36,399.22 962.42,399.22 964.49,399.22 966.56,399.22 968.63,399.22 970.70,399.22 972.76,399.22 974.83,399.22 976.90,399.22 978.97,399.22 981.04,399.22 983.10,399.22 985.17,399.22 987.24,399.22 989.31,399.22 991.38,399.22 993.44,399.22 995.51,399.22 997.58,399.22 999.65,399.22 1001.72,399.22 1003.78,399.22 1005.85,399.22 1007.92,399.22 1009.99,399.22 1012.06,399.22 1014.12,399.22 1016.19,399.22 1018.26,399.22 1020.33,399.22 1022.40,399.22 1024.46,399.22 1026.53,399.22 1028.60,399.22 1030.67,399.22 1032.74,399.22 1034.80,399.22 1036.87,399.22 1038.94,399.22 1041.01,399.22 1043.08,399.22 1045.14,399.22 1047.21,399.22 1049.28,399.22 1051.35,399.22 1053.42,399.22 1055.48,399.22 1057.55,399.22 1059.62,399.22 1061.69,399.22 1063.76,399.22 1065.82,399.22 1067.89,399.22 1069.96,399.22 1072.03,399.22 1074.10,399.22 1076.16,399.22 1078.23,399.22 1080.30,399.22 1082.37,399.22 1084.44,399.22 1086.50,399.22 1088.57,399.22 1090.64,399.22 1092.71,399.22 1094.78,399.22 1096.84,399.22 1098.91,399.22 1100.98,399.22 1103.05,399.22 1105.12,399.22 1107.18,399.22 1109.25,399.22 1111.32,399.22 1113.39,399.22 1115.46,399.22 1117.52,399.22 1119.59,399.22 1121.66,399.22 1123.73,399.22 1125.80,399.22 1127.86,399.22 1129.93,399.22 1131.48,399.22" fill="none" stroke="#b35c00" stroke-width="1.8" stroke-linejoin="round" stroke-linecap="round" />
<polyline points="98.00,399.22 100.07,415.03 102.14,415.07 104.20,412.66 106.27,408.98 108.34,405.12 110.41,402.64 112.48,402.44 114.54,403.81 116.61,405.27 118.68,406.05 120.75,406.15 122.82,405.80 124.88,405.15 126.95,404.36 129.02,403.57 131.09,402.91 133.16,402.47 135.22,402.25 137.29,402.22 139.36,402.29 141.43,402.44 143.50,402.82 145.56,403.19 147.63,403.53 149.70,403.81 151.77,404.04 153.84,404.22 155.90,404.37 157.97,404.49 160.04,404.60 162.11,404.71 164.18,404.83 166.24,404.97 168.31,405.13 170.38,405.30 172.45,405.49 174.52,405.70 176.58,405.92 178.65,406.16 180.72,406.40 182.79,406.64 184.86,406.87 186.92,407.09 188.99,407.27 191.06,407.39 193.13,407.41 195.20,407.28 197.26,406.95 199.33,406.37 201.40,405.48 203.47,404.30 205.54,402.91 207.60,401.41 209.67,399.96 211.74,399.22 213.81,412.07 215.88,427.49 217.94,415.46 220.01,405.90 222.08,411.77 224.15,415.98 226.22,413.94 228.28,399.24 230.35,410.07 232.42,411.81 234.49,412.65 236.56,412.38 238.62,411.48 240.69,407.47 242.76,399.39 244.83,412.36 246.90,433.40 248.96,413.73 251.03,410.36 253.10,410.71 255.17,411.69 257.24,411.53 259.30,410.90 261.37,409.44 263.44,407.18 265.51,405.10 267.58,404.16 269.64,404.25 271.71,404.88 273.78,405.67 275.85,406.44 277.92,407.07 279.98,407.47 282.05,407.61 284.12,407.45 286.19,407.01 288.26,406.35 290.32,405.58 292.39,404.80 294.46,404.09 296.53,403.46 298.60,402.92 300.66,402.43 302.73,401.99 304.80,401.60 306.87,401.24 308.94,400.94 311.00,400.69 313.07,400.48 315.14,400.32 317.21,400.20 319.28,400.10 321.34,400.15 323.41,400.26 325.48,400.37 327.55,400.48 329.62,400.59 331.68,400.70 333.75,400.81 335.82,400.90 337.89,400.99 339.96,401.07 342.02,401.14 344.09,401.20 346.16,401.24 348.23,401.26 350.30,401.26 352.36,401.24 354.43,401.18 356.50,401.10 358.57,400.99 360.64,400.84 362.70,400.66 364.77,400.45 366.84,400.20 368.91,399.93 383.38,399.22 385.45,421.15 387.52,417.84 389.59,414.11 391.66,405.45 393.72,406.73 395.79,406.71 397.86,406.47 399.93,403.99 402.00,402.82 404.06,402.98 406.13,403.84 408.20,404.86 410.27,405.51 412.34,405.31 414.40,404.15 416.47,402.52 418.54,401.18 420.61,400.50 422.68,400.41 424.74,400.64 426.81,400.98 428.88,401.30 430.95,401.55 433.02,401.70 435.08,401.78 437.15,401.80 439.22,401.80 441.29,401.78 443.36,401.75 445.42,401.73 447.49,401.71 449.56,401.67 451.63,401.62 453.70,401.53 455.76,401.41 457.83,401.24 459.90,401.02 461.97,400.76 464.04,400.45 466.10,400.11 468.17,399.75 470.24,399.37 472.31,399.46 474.38,399.50 476.44,408.53 478.51,399.22 480.58,414.26 482.65,412.13 484.72,404.92 486.78,407.21 488.85,415.66 490.92,414.67 492.99,416.09 495.06,414.50 497.12,410.45 499.19,407.57 501.26,406.17 503.33,406.77 505.40,408.78 507.46,412.25 509.53,415.00 511.60,414.75 513.67,409.88 515.74,404.03 517.80,401.38 519.87,401.28 521.94,402.00 524.01,402.66 526.08,402.99 528.14,403.03 530.21,402.89 532.28,402.68 534.35,402.44 536.42,402.16 538.48,401.86 540.55,401.55 542.62,401.26 544.69,400.98 546.76,400.71 548.82,400.44 550.89,400.15 552.96,399.85 555.03,399.53 557.10,399.22 559.16,400.16 561.23,399.22 563.30,404.43 565.37,415.53 567.44,416.66 569.50,404.66 571.57,412.73 573.64,414.66 575.71,409.93 579.84,409.58 581.91,412.19 583.98,413.60 586.05,413.01 588.12,412.53 590.18,411.56 592.25,399.27 594.32,406.87 596.39,410.30 598.46,411.49 600.52,412.27 602.59,414.98 604.66,424.89 606.73,423.78 608.80,399.22 610.86,409.95 612.93,413.96 615.00,416.13 617.07,422.66 619.14,406.00 621.20,410.15 623.27,407.40 625.34,404.03 627.41,402.17 629.48,402.37 631.54,403.89 633.61,405.79 635.68,407.42 637.75,408.89 639.82,410.33 641.88,411.07 643.95,410.78 646.02,409.97 648.09,408.73 650.16,407.25 652.22,406.03 654.29,405.26 656.36,404.93 658.43,404.98 660.50,405.31 662.56,405.81 664.63,406.41 666.70,407.05 668.77,407.68 670.84,408.29 672.90,408.85 674.97,409.38 677.04,409.91 679.11,410.44 681.18,411.02 683.24,411.65 685.31,412.33 687.38,412.98 689.45,413.44 691.52,413.36 693.58,412.26 695.65,409.61 697.72,410.01 699.79,410.61 701.86,411.23 703.92,411.85 705.99,412.47 708.06,413.09 710.13,413.74 712.20,414.43 714.26,415.15 716.33,415.89 718.40,416.62 720.47,417.29 722.54,417.87 724.60,418.31 726.67,418.59 728.74,418.68 730.81,418.59 732.88,418.30 734.94,417.83 737.01,417.17 739.08,416.36 741.15,415.41 743.22,414.35 745.28,413.23 747.35,412.08 749.42,410.93 751.49,409.81 753.56,408.74 755.62,407.73 757.69,406.80 759.76,405.94 761.83,405.15 763.90,404.43 765.96,403.78 768.03,403.19 770.10,402.66 772.17,402.19 774.24,401.76 776.30,401.37 778.37,401.02 780.44,400.71 782.51,400.42 784.58,400.17 786.64,399.95 788.71,399.76 790.78,399.59 792.85,399.46 794.92,399.36 796.98,399.29 799.05,399.29 801.12,399.34 803.19,399.41 805.26,399.48 807.32,399.56 809.39,399.69 811.46,399.80 813.53,399.88 815.60,399.94 817.66,399.98 819.73,399.99 821.80,399.98 823.87,399.96 825.94,400.19 828.00,400.39 830.07,400.27 832.14,400.17 834.21,400.45 836.28,401.40 838.34,403.03 840.41,405.74 842.48,409.58 844.55,414.08 846.62,418.45 848.68,421.53 850.75,422.50 852.82,421.53 854.89,419.40 856.96,416.89 859.02,414.53 861.09,412.65 863.16,411.26 865.23,410.27 867.30,409.56 869.36,409.04 871.43,408.65 873.50,408.37 875.57,408.17 877.64,408.05 879.70,408.03 881.77,408.10 883.84,408.33 885.91,408.78 887.98,409.56 890.04,410.79 892.11,412.68 894.18,415.62 896.25,420.51 898.32,429.93 900.38,453.23 902.45,391.00 904.52,391.00 906.59,391.00 908.66,391.00 910.72,391.00 912.79,392.20 914.86,394.32 916.93,395.92 919.00,397.27 921.06,398.52 923.13,399.78 925.20,401.12 927.27,402.64 929.34,404.49 931.40,406.94 933.47,410.35 935.54,415.01 937.61,420.36 939.68,422.33 941.74,417.67 943.81,412.03 945.88,408.35 947.95,406.34 950.02,405.30 952.08,404.88 954.15,404.76 956.22,404.82 958.29,404.84 960.36,404.84 962.42,404.92 964.49,405.11 966.56,405.24 968.63,405.06 970.70,404.51 972.76,403.43 974.83,401.40 976.90,399.07 978.97,397.38 981.04,396.50 983.10,396.43 985.17,396.64 987.24,396.96 989.31,396.63 991.38,396.07 993.44,395.79 995.51,395.69 997.58,395.76 999.65,395.82 1001.72,396.09 1003.78,396.67 1005.85,396.97 1007.92,396.91 1009.99,396.82 1012.06,396.50 1014.12,395.66 1016.19,395.29 1018.26,395.27 1020.33,395.71 1022.40,395.95 1024.46,396.04 1026.53,396.22 1028.60,396.49 1030.67,396.62 1032.74,396.39 1034.80,396.02 1036.87,395.61 1038.94,395.61 1041.01,396.37 1043.08,397.06 1045.14,397.17 1047.21,396.74 1049.28,396.42 1051.35,396.35 1053.42,396.16 1055.48,395.97 1057.55,395.91 1059.62,396.01 1061.69,396.25 1063.76,396.28 1065.82,396.63 1067.89,396.77 1069.96,396.61 1072.03,396.46 1074.10,396.33 1076.16,396.08 1078.23,395.62 1080.30,395.39 1082.37,395.67 1084.44,396.38 1086.50,397.13 1088.57,397.54 1090.64,397.25 1092.71,396.40 1094.78,395.72 1096.84,395.41 1098.91,395.64 1100.98,395.93 1103.05,396.07 1105.12,396.20 1107.18,396.45 1109.25,396.83 1111.32,397.07 1113.39,396.98 1115.46,396.63 1117.52,396.30 1119.59,395.87 1121.66,395.32 1123.73,395.50 1125.80,396.11 1127.86,396.55 1129.93,396.72 1131.48,396.76" fill="none" stroke="#2458d3" stroke-width="1.8" stroke-linejoin="round" stroke-linecap="round" />
<line x1="56.0" y1="546.0" x2="80.0" y2="546.0" stroke="#2458d3" stroke-width="2.0" />
<text x="86.0" y="550.0" fill="#1f2430" font-size="12" font-family="Segoe UI, Arial, sans-serif" font-weight="400" text-anchor="start">V_next / V_k</text>
<line x1="208.0" y1="546.0" x2="232.0" y2="546.0" stroke="#b35c00" stroke-width="2.0" />
<text x="238.0" y="550.0" fill="#1f2430" font-size="12" font-family="Segoe UI, Arial, sans-serif" font-weight="400" text-anchor="start">rho</text>
<circle cx="308.00" cy="546.00" r="2.40" fill="#bf1e2d" stroke="none" stroke-width="0.0" />
<text x="320.0" y="550.0" fill="#1f2430" font-size="12" font-family="Segoe UI, Arial, sans-serif" font-weight="400" text-anchor="start">violations</text>
<rect x="40.0" y="586.0" width="1120.0" height="235.0" fill="#fbfbfd" stroke="#d7dbe5" stroke-width="1.0" rx="8.0" />
<text x="56.0" y="610.0" fill="#1f2430" font-size="16" font-family="Segoe UI, Arial, sans-serif" font-weight="600" text-anchor="start">Run 20260501_002805</text>
<text x="56.0" y="628.0" fill="#5d6574" font-size="12" font-family="Segoe UI, Arial, sans-serif" font-weight="400" text-anchor="start">rho=0.985 | solver=96.50% | hard=96.50% | bounded-LS=1263 | y-max=1.02 | clipped=24</text>
<line x1="98.0" y1="795.0" x2="1132.0" y2="795.0" stroke="#d7dbe5" stroke-width="1.0" stroke-dasharray="4 4" />
<text x="88.0" y="799.0" fill="#5d6574" font-size="11" font-family="Segoe UI, Arial, sans-serif" font-weight="400" text-anchor="end">0.00</text>
<line x1="98.0" y1="719.5" x2="1132.0" y2="719.5" stroke="#d7dbe5" stroke-width="1.0" stroke-dasharray="4 4" />
<text x="88.0" y="723.5" fill="#5d6574" font-size="11" font-family="Segoe UI, Arial, sans-serif" font-weight="400" text-anchor="end">0.51</text>
<line x1="98.0" y1="644.0" x2="1132.0" y2="644.0" stroke="#d7dbe5" stroke-width="1.0" stroke-dasharray="4 4" />
<text x="88.0" y="648.0" fill="#5d6574" font-size="11" font-family="Segoe UI, Arial, sans-serif" font-weight="400" text-anchor="end">1.02</text>
<line x1="98.0" y1="644.0" x2="98.0" y2="795.0" stroke="#d7dbe5" stroke-width="1.0" stroke-dasharray="4 4" />
<text x="98.0" y="813.0" fill="#5d6574" font-size="11" font-family="Segoe UI, Arial, sans-serif" font-weight="400" text-anchor="middle">0</text>
<line x1="356.5" y1="644.0" x2="356.5" y2="795.0" stroke="#d7dbe5" stroke-width="1.0" stroke-dasharray="4 4" />
<text x="356.5" y="813.0" fill="#5d6574" font-size="11" font-family="Segoe UI, Arial, sans-serif" font-weight="400" text-anchor="middle">500</text>
<line x1="615.0" y1="644.0" x2="615.0" y2="795.0" stroke="#d7dbe5" stroke-width="1.0" stroke-dasharray="4 4" />
<text x="615.0" y="813.0" fill="#5d6574" font-size="11" font-family="Segoe UI, Arial, sans-serif" font-weight="400" text-anchor="middle">1000</text>
<line x1="873.5" y1="644.0" x2="873.5" y2="795.0" stroke="#d7dbe5" stroke-width="1.0" stroke-dasharray="4 4" />
<text x="873.5" y="813.0" fill="#5d6574" font-size="11" font-family="Segoe UI, Arial, sans-serif" font-weight="400" text-anchor="middle">1500</text>
<line x1="1132.0" y1="644.0" x2="1132.0" y2="795.0" stroke="#d7dbe5" stroke-width="1.0" stroke-dasharray="4 4" />
<text x="1132.0" y="813.0" fill="#5d6574" font-size="11" font-family="Segoe UI, Arial, sans-serif" font-weight="400" text-anchor="middle">2000</text>
<line x1="98.0" y1="644.0" x2="98.0" y2="795.0" stroke="#2d3440" stroke-width="1.2" />
<line x1="98.0" y1="795.0" x2="1132.0" y2="795.0" stroke="#2d3440" stroke-width="1.2" />
<polyline points="98.00,649.18 100.07,649.18 102.14,649.18 104.20,649.18 106.27,649.18 108.34,649.18 110.41,649.18 112.48,649.18 114.54,649.18 116.61,649.18 118.68,649.18 120.75,649.18 122.82,649.18 124.88,649.18 126.95,649.18 129.02,649.18 131.09,649.18 133.16,649.18 135.22,649.18 137.29,649.18 139.36,649.18 141.43,649.18 143.50,649.18 145.56,649.18 147.63,649.18 149.70,649.18 151.77,649.18 153.84,649.18 155.90,649.18 157.97,649.18 160.04,649.18 162.11,649.18 164.18,649.18 166.24,649.18 168.31,649.18 170.38,649.18 172.45,649.18 174.52,649.18 176.58,649.18 178.65,649.18 180.72,649.18 182.79,649.18 184.86,649.18 186.92,649.18 188.99,649.18 191.06,649.18 193.13,649.18 195.20,649.18 197.26,649.18 199.33,649.18 201.40,649.18 203.47,649.18 205.54,649.18 207.60,649.18 209.67,649.18 211.74,649.18 213.81,649.18 215.88,649.18 217.94,649.18 220.01,649.18 222.08,649.18 224.15,649.18 226.22,649.18 228.28,649.18 230.35,649.18 232.42,649.18 234.49,649.18 236.56,649.18 238.62,649.18 240.69,649.18 242.76,649.18 244.83,649.18 246.90,649.18 248.96,649.18 251.03,649.18 253.10,649.18 255.17,649.18 257.24,649.18 259.30,649.18 261.37,649.18 263.44,649.18 265.51,649.18 267.58,649.18 269.64,649.18 271.71,649.18 273.78,649.18 275.85,649.18 277.92,649.18 279.98,649.18 282.05,649.18 284.12,649.18 286.19,649.18 288.26,649.18 290.32,649.18 292.39,649.18 294.46,649.18 296.53,649.18 298.60,649.18 300.66,649.18 302.73,649.18 304.80,649.18 306.87,649.18 308.94,649.18 311.00,649.18 313.07,649.18 315.14,649.18 317.21,649.18 319.28,649.18 321.34,649.18 323.41,649.18 325.48,649.18 327.55,649.18 329.62,649.18 331.68,649.18 333.75,649.18 335.82,649.18 337.89,649.18 339.96,649.18 342.02,649.18 344.09,649.18 346.16,649.18 348.23,649.18 350.30,649.18 352.36,649.18 354.43,649.18 356.50,649.18 358.57,649.18 360.64,649.18 362.70,649.18 364.77,649.18 366.84,649.18 368.91,649.18 370.98,649.18 373.04,649.18 375.11,649.18 377.18,649.18 379.25,649.18 381.32,649.18 383.38,649.18 385.45,649.18 387.52,649.18 389.59,649.18 391.66,649.18 393.72,649.18 395.79,649.18 397.86,649.18 399.93,649.18 402.00,649.18 404.06,649.18 406.13,649.18 408.20,649.18 410.27,649.18 412.34,649.18 414.40,649.18 416.47,649.18 418.54,649.18 420.61,649.18 422.68,649.18 424.74,649.18 426.81,649.18 428.88,649.18 430.95,649.18 433.02,649.18 435.08,649.18 437.15,649.18 439.22,649.18 441.29,649.18 443.36,649.18 445.42,649.18 447.49,649.18 449.56,649.18 451.63,649.18 453.70,649.18 455.76,649.18 457.83,649.18 459.90,649.18 461.97,649.18 464.04,649.18 466.10,649.18 468.17,649.18 470.24,649.18 472.31,649.18 474.38,649.18 476.44,649.18 478.51,649.18 480.58,649.18 482.65,649.18 484.72,649.18 486.78,649.18 488.85,649.18 490.92,649.18 492.99,649.18 495.06,649.18 497.12,649.18 499.19,649.18 501.26,649.18 503.33,649.18 505.40,649.18 507.46,649.18 509.53,649.18 511.60,649.18 513.67,649.18 515.74,649.18 517.80,649.18 519.87,649.18 521.94,649.18 524.01,649.18 526.08,649.18 528.14,649.18 530.21,649.18 532.28,649.18 534.35,649.18 536.42,649.18 538.48,649.18 540.55,649.18 542.62,649.18 544.69,649.18 546.76,649.18 548.82,649.18 550.89,649.18 552.96,649.18 555.03,649.18 557.10,649.18 559.16,649.18 561.23,649.18 563.30,649.18 565.37,649.18 567.44,649.18 569.50,649.18 571.57,649.18 573.64,649.18 575.71,649.18 577.78,649.18 579.84,649.18 581.91,649.18 583.98,649.18 586.05,649.18 588.12,649.18 590.18,649.18 592.25,649.18 594.32,649.18 596.39,649.18 598.46,649.18 600.52,649.18 602.59,649.18 604.66,649.18 606.73,649.18 608.80,649.18 610.86,649.18 612.93,649.18 615.00,649.18 617.07,649.18 619.14,649.18 621.20,649.18 623.27,649.18 625.34,649.18 627.41,649.18 629.48,649.18 631.54,649.18 633.61,649.18 635.68,649.18 637.75,649.18 639.82,649.18 641.88,649.18 643.95,649.18 646.02,649.18 648.09,649.18 650.16,649.18 652.22,649.18 654.29,649.18 656.36,649.18 658.43,649.18 660.50,649.18 662.56,649.18 664.63,649.18 666.70,649.18 668.77,649.18 670.84,649.18 672.90,649.18 674.97,649.18 677.04,649.18 679.11,649.18 681.18,649.18 683.24,649.18 685.31,649.18 687.38,649.18 689.45,649.18 691.52,649.18 693.58,649.18 695.65,649.18 697.72,649.18 699.79,649.18 701.86,649.18 703.92,649.18 705.99,649.18 708.06,649.18 710.13,649.18 712.20,649.18 714.26,649.18 716.33,649.18 718.40,649.18 720.47,649.18 722.54,649.18 724.60,649.18 726.67,649.18 728.74,649.18 730.81,649.18 732.88,649.18 734.94,649.18 737.01,649.18 739.08,649.18 741.15,649.18 743.22,649.18 745.28,649.18 747.35,649.18 749.42,649.18 751.49,649.18 753.56,649.18 755.62,649.18 757.69,649.18 759.76,649.18 761.83,649.18 763.90,649.18 765.96,649.18 768.03,649.18 770.10,649.18 772.17,649.18 774.24,649.18 776.30,649.18 778.37,649.18 780.44,649.18 782.51,649.18 784.58,649.18 786.64,649.18 788.71,649.18 790.78,649.18 792.85,649.18 794.92,649.18 796.98,649.18 799.05,649.18 801.12,649.18 803.19,649.18 805.26,649.18 807.32,649.18 809.39,649.18 811.46,649.18 813.53,649.18 815.60,649.18 817.66,649.18 819.73,649.18 821.80,649.18 823.87,649.18 825.94,649.18 828.00,649.18 830.07,649.18 832.14,649.18 834.21,649.18 836.28,649.18 838.34,649.18 840.41,649.18 842.48,649.18 844.55,649.18 846.62,649.18 848.68,649.18 850.75,649.18 852.82,649.18 854.89,649.18 856.96,649.18 859.02,649.18 861.09,649.18 863.16,649.18 865.23,649.18 867.30,649.18 869.36,649.18 871.43,649.18 873.50,649.18 875.57,649.18 877.64,649.18 879.70,649.18 881.77,649.18 883.84,649.18 885.91,649.18 887.98,649.18 890.04,649.18 892.11,649.18 894.18,649.18 896.25,649.18 898.32,649.18 900.38,649.18 902.45,649.18 904.52,649.18 906.59,649.18 908.66,649.18 910.72,649.18 912.79,649.18 914.86,649.18 916.93,649.18 919.00,649.18 921.06,649.18 923.13,649.18 925.20,649.18 927.27,649.18 929.34,649.18 931.40,649.18 933.47,649.18 935.54,649.18 937.61,649.18 939.68,649.18 941.74,649.18 943.81,649.18 945.88,649.18 947.95,649.18 950.02,649.18 952.08,649.18 954.15,649.18 956.22,649.18 958.29,649.18 960.36,649.18 962.42,649.18 964.49,649.18 966.56,649.18 968.63,649.18 970.70,649.18 972.76,649.18 974.83,649.18 976.90,649.18 978.97,649.18 981.04,649.18 983.10,649.18 985.17,649.18 987.24,649.18 989.31,649.18 991.38,649.18 993.44,649.18 995.51,649.18 997.58,649.18 999.65,649.18 1001.72,649.18 1003.78,649.18 1005.85,649.18 1007.92,649.18 1009.99,649.18 1012.06,649.18 1014.12,649.18 1016.19,649.18 1018.26,649.18 1020.33,649.18 1022.40,649.18 1024.46,649.18 1026.53,649.18 1028.60,649.18 1030.67,649.18 1032.74,649.18 1034.80,649.18 1036.87,649.18 1038.94,649.18 1041.01,649.18 1043.08,649.18 1045.14,649.18 1047.21,649.18 1049.28,649.18 1051.35,649.18 1053.42,649.18 1055.48,649.18 1057.55,649.18 1059.62,649.18 1061.69,649.18 1063.76,649.18 1065.82,649.18 1067.89,649.18 1069.96,649.18 1072.03,649.18 1074.10,649.18 1076.16,649.18 1078.23,649.18 1080.30,649.18 1082.37,649.18 1084.44,649.18 1086.50,649.18 1088.57,649.18 1090.64,649.18 1092.71,649.18 1094.78,649.18 1096.84,649.18 1098.91,649.18 1100.98,649.18 1103.05,649.18 1105.12,649.18 1107.18,649.18 1109.25,649.18 1111.32,649.18 1113.39,649.18 1115.46,649.18 1117.52,649.18 1119.59,649.18 1121.66,649.18 1123.73,649.18 1125.80,649.18 1127.86,649.18 1129.93,649.18 1131.48,649.18" fill="none" stroke="#b35c00" stroke-width="1.8" stroke-linejoin="round" stroke-linecap="round" />
<polyline points="98.00,649.18 100.07,663.72 102.14,666.48 104.20,664.02 106.27,660.36 108.34,656.33 110.41,653.43 112.48,652.75 114.54,653.89 116.61,655.44 118.68,656.46 120.75,656.79 122.82,656.59 124.88,656.06 126.95,655.33 129.02,654.57 131.09,653.88 133.16,653.38 135.22,653.09 137.29,652.99 139.36,653.02 141.43,653.16 143.50,653.53 145.56,653.90 147.63,654.24 149.70,654.54 151.77,654.78 153.84,654.98 155.90,655.14 157.97,655.27 160.04,655.39 162.11,655.51 164.18,655.63 166.24,655.77 168.31,655.92 170.38,656.09 172.45,656.29 174.52,656.49 176.58,656.72 178.65,656.95 180.72,657.19 182.79,657.43 184.86,657.67 186.92,657.88 188.99,658.06 191.06,658.18 193.13,658.19 195.20,658.05 197.26,657.70 199.33,657.09 201.40,656.19 203.47,654.99 205.54,653.58 207.60,652.08 209.67,650.62 213.81,652.92 215.88,649.18 217.94,649.18 220.01,666.03 222.08,664.39 224.15,656.98 226.22,655.30 228.28,663.75 230.35,664.45 232.42,667.91 234.49,667.74 236.56,662.49 238.62,657.97 240.69,656.02 242.76,656.65 244.83,658.75 246.90,662.00 248.96,664.31 251.03,663.81 253.10,659.56 255.17,654.58 257.24,652.11 259.30,651.79 261.37,652.25 263.44,652.72 265.51,652.97 267.58,652.99 269.64,652.89 271.71,652.72 273.78,652.52 275.85,652.29 277.92,652.04 279.98,651.77 282.05,651.50 284.12,651.22 286.19,650.93 288.26,650.64 290.32,650.34 292.39,650.03 294.46,649.71 296.53,649.40 298.60,649.18 300.66,649.75 302.73,649.18 304.80,650.61 306.87,649.18 308.94,664.57 311.00,664.48 313.07,660.56 315.14,650.34 317.21,660.65 319.28,667.24 321.34,670.30 323.41,665.78 325.48,659.50 327.55,654.82 329.62,653.95 331.68,656.12 333.75,659.02 335.82,662.32 337.89,664.44 339.96,663.95 342.02,660.17 344.09,655.49 346.16,652.64 348.23,651.61 350.30,651.36 352.36,651.27 354.43,651.17 356.50,651.08 358.57,651.01 360.64,650.97 362.70,650.91 364.77,650.80 381.32,685.63 383.38,672.85 385.45,669.70 387.52,652.74 389.59,651.87 391.66,654.86 393.72,654.74 395.79,653.18 397.86,652.55 399.93,652.91 402.00,653.81 404.06,654.74 406.13,655.20 408.20,654.86 410.27,653.76 412.34,652.39 414.40,651.36 416.47,650.91 418.54,650.92 420.61,651.18 422.68,651.51 424.74,651.82 426.81,652.05 428.88,652.20 430.95,652.29 433.02,652.33 435.08,652.33 437.15,652.32 439.22,652.29 441.29,652.25 443.36,652.20 445.42,652.13 447.49,652.04 449.56,651.90 451.63,651.73 453.70,651.51 455.76,651.24 457.83,650.94 459.90,650.61 461.97,650.26 464.04,649.89 466.10,649.53 468.17,649.18 472.31,649.18 474.38,654.48 476.44,677.99 478.51,667.21 480.58,656.21 482.65,663.00 484.72,665.08 486.78,663.84 490.92,649.18 492.99,661.59 495.06,665.58 497.12,666.56 499.19,664.90 501.26,664.93 503.33,677.25 505.40,660.65 507.46,659.24 509.53,659.98 511.60,660.53 513.67,662.08 515.74,663.71 517.80,664.14 519.87,663.35 521.94,657.76 524.01,651.66 526.08,650.34 528.14,651.33 530.21,652.79 532.28,654.09 534.35,655.05 536.42,656.02 538.48,656.79 540.55,657.25 542.62,657.44 544.69,657.42 546.76,657.29 548.82,657.13 550.89,657.01 552.96,656.98 555.03,657.05 557.10,657.23 559.16,657.50 561.23,657.83 563.30,658.23 565.37,658.68 567.44,659.16 569.50,659.69 571.57,660.28 573.64,660.94 575.71,661.71 577.78,662.62 579.84,663.72 588.12,667.24 590.18,666.26 592.25,665.53 594.32,664.92 596.39,664.30 598.46,663.56 600.52,662.64 602.59,661.57 604.66,660.40 606.73,659.23 608.80,658.11 610.86,657.09 612.93,656.18 615.00,655.39 617.07,654.70 619.14,654.09 621.20,653.55 623.27,653.07 625.34,652.63 627.41,652.24 629.48,651.87 631.54,651.54 633.61,651.24 635.68,650.97 637.75,650.72 639.82,650.50 641.88,650.30 643.95,650.12 646.02,649.96 648.09,649.81 650.16,649.68 652.22,649.56 654.29,649.45 656.36,649.35 658.43,649.26 660.50,649.18 662.56,649.44 664.63,649.41 666.70,649.40 668.77,649.49 670.84,649.54 672.90,649.51 674.97,649.41 677.04,649.24 679.11,649.31 681.18,649.77 683.24,649.25 685.31,649.27 687.38,649.56 689.45,649.84 691.52,650.02 693.58,650.04 695.65,649.94 697.72,649.82 699.79,649.73 701.86,649.69 703.92,649.64 705.99,649.53 708.06,649.38 710.13,649.21 712.20,649.20 714.26,649.27 716.33,650.50 718.40,648.89 720.47,703.93 722.54,679.52 724.60,665.68 726.67,664.51 728.74,662.72 730.81,669.55 732.88,680.29 734.94,663.44 737.01,658.75 739.08,656.92 741.15,655.87 743.22,655.80 745.28,656.65 747.35,657.77 749.42,658.87 751.49,659.61 753.56,658.02 755.62,654.05 757.69,650.91 759.76,650.05 761.83,650.37 763.90,651.08 765.96,651.95 768.03,652.61 770.10,653.03 772.17,653.25 774.24,653.31 776.30,653.28 778.37,653.21 780.44,653.16 782.51,653.15 784.58,653.20 786.64,653.31 788.71,653.46 790.78,653.64 792.85,653.84 794.92,654.04 796.98,654.23 799.05,654.41 801.12,654.56 803.19,654.68 805.26,654.78 807.32,654.85 809.39,654.88 811.46,654.86 813.53,654.79 815.60,654.65 817.66,654.44 819.73,654.14 821.80,653.73 823.87,653.24 825.94,652.66 828.00,652.01 830.07,651.31 832.14,650.61 834.21,649.93 836.28,649.30 838.34,649.18 840.41,649.42 842.48,652.38 846.62,665.56 848.68,665.05 850.75,662.54 852.82,651.13 854.89,658.47 856.96,665.43 859.02,670.85 861.09,667.88 863.16,661.34 865.23,655.53 867.30,653.30 869.36,655.09 871.43,657.50 873.50,660.72 875.57,663.11 877.64,663.60 879.70,661.31 881.77,657.26 883.84,653.73 890.04,649.67 894.18,649.30 896.25,650.54 900.38,649.51 902.45,650.01 904.52,650.55 906.59,650.85 908.66,650.83 910.72,650.49 912.79,649.99 914.86,649.48 916.93,649.18 919.00,650.70 921.06,649.48 923.13,649.30 925.20,650.24 927.27,651.46 929.34,652.53 931.40,653.13 933.47,653.09 935.54,652.72 937.61,652.62 939.68,652.97 941.74,653.40 943.81,653.53 945.88,653.18 947.95,652.47 950.02,651.64 952.08,650.92 954.15,650.45 956.22,650.24 958.29,650.24 960.36,650.36 962.42,650.56 964.49,650.79 966.56,651.01 968.63,651.21 970.70,651.38 972.76,651.50 974.83,651.57 976.90,651.60 978.97,651.60 981.04,651.59 983.10,651.59 985.17,651.59 987.24,651.61 989.31,651.65 991.38,651.71 993.44,651.79 995.51,651.88 997.58,651.99 999.65,652.10 1001.72,652.20 1003.78,652.29 1005.85,652.40 1007.92,652.51 1009.99,652.61 1012.06,652.72 1014.12,652.85 1016.19,653.03 1018.26,653.20 1020.33,653.39 1022.40,653.58 1024.46,653.65 1026.53,653.72 1028.60,653.86 1030.67,654.17 1032.74,654.95 1034.80,655.30 1036.87,655.56 1038.94,655.94 1041.01,655.84 1043.08,655.75 1045.14,656.03 1047.21,657.10 1049.28,660.13 1051.35,664.95 1053.42,670.01 1055.48,673.53 1057.55,674.17 1059.62,672.78 1061.69,670.94 1063.76,669.42 1065.82,668.30 1067.89,667.42 1069.96,666.57 1072.03,665.60 1074.10,664.48 1076.16,663.34 1078.23,662.33 1080.30,661.52 1082.37,660.92 1084.44,660.52 1086.50,660.27 1088.57,660.17 1090.64,660.20 1092.71,660.34 1094.78,660.60 1096.84,661.00 1098.91,661.57 1100.98,662.39 1103.05,663.61 1105.12,665.48 1107.18,668.51 1109.25,673.81 1111.32,684.62 1113.39,710.27 1115.46,644.00 1117.52,644.00 1119.59,644.00 1121.66,644.00 1123.73,644.00 1125.80,644.00 1127.86,644.62 1129.93,646.16 1131.48,647.12" fill="none" stroke="#2458d3" stroke-width="1.8" stroke-linejoin="round" stroke-linecap="round" />
<line x1="56.0" y1="799.0" x2="80.0" y2="799.0" stroke="#2458d3" stroke-width="2.0" />
<text x="86.0" y="803.0" fill="#1f2430" font-size="12" font-family="Segoe UI, Arial, sans-serif" font-weight="400" text-anchor="start">V_next / V_k</text>
<line x1="208.0" y1="799.0" x2="232.0" y2="799.0" stroke="#b35c00" stroke-width="2.0" />
<text x="238.0" y="803.0" fill="#1f2430" font-size="12" font-family="Segoe UI, Arial, sans-serif" font-weight="400" text-anchor="start">rho</text>
<circle cx="308.00" cy="799.00" r="2.40" fill="#bf1e2d" stroke="none" stroke-width="0.0" />
<text x="320.0" y="803.0" fill="#1f2430" font-size="12" font-family="Segoe UI, Arial, sans-serif" font-weight="400" text-anchor="start">violations</text>
<rect x="40.0" y="839.0" width="1120.0" height="235.0" fill="#fbfbfd" stroke="#d7dbe5" stroke-width="1.0" rx="8.0" />
<text x="56.0" y="863.0" fill="#1f2430" font-size="16" font-family="Segoe UI, Arial, sans-serif" font-weight="600" text-anchor="start">Run 20260501_001948</text>
<text x="56.0" y="881.0" fill="#5d6574" font-size="12" font-family="Segoe UI, Arial, sans-serif" font-weight="400" text-anchor="start">rho=0.99 | solver=99.85% | hard=99.85% | bounded-LS=221 | y-max=1.04 | clipped=21</text>
<line x1="98.0" y1="1048.0" x2="1132.0" y2="1048.0" stroke="#d7dbe5" stroke-width="1.0" stroke-dasharray="4 4" />
<text x="88.0" y="1052.0" fill="#5d6574" font-size="11" font-family="Segoe UI, Arial, sans-serif" font-weight="400" text-anchor="end">0.00</text>
<line x1="98.0" y1="972.5" x2="1132.0" y2="972.5" stroke="#d7dbe5" stroke-width="1.0" stroke-dasharray="4 4" />
<text x="88.0" y="976.5" fill="#5d6574" font-size="11" font-family="Segoe UI, Arial, sans-serif" font-weight="400" text-anchor="end">0.52</text>
<line x1="98.0" y1="897.0" x2="1132.0" y2="897.0" stroke="#d7dbe5" stroke-width="1.0" stroke-dasharray="4 4" />
<text x="88.0" y="901.0" fill="#5d6574" font-size="11" font-family="Segoe UI, Arial, sans-serif" font-weight="400" text-anchor="end">1.04</text>
<line x1="98.0" y1="897.0" x2="98.0" y2="1048.0" stroke="#d7dbe5" stroke-width="1.0" stroke-dasharray="4 4" />
<text x="98.0" y="1066.0" fill="#5d6574" font-size="11" font-family="Segoe UI, Arial, sans-serif" font-weight="400" text-anchor="middle">0</text>
<line x1="356.5" y1="897.0" x2="356.5" y2="1048.0" stroke="#d7dbe5" stroke-width="1.0" stroke-dasharray="4 4" />
<text x="356.5" y="1066.0" fill="#5d6574" font-size="11" font-family="Segoe UI, Arial, sans-serif" font-weight="400" text-anchor="middle">500</text>
<line x1="615.0" y1="897.0" x2="615.0" y2="1048.0" stroke="#d7dbe5" stroke-width="1.0" stroke-dasharray="4 4" />
<text x="615.0" y="1066.0" fill="#5d6574" font-size="11" font-family="Segoe UI, Arial, sans-serif" font-weight="400" text-anchor="middle">1000</text>
<line x1="873.5" y1="897.0" x2="873.5" y2="1048.0" stroke="#d7dbe5" stroke-width="1.0" stroke-dasharray="4 4" />
<text x="873.5" y="1066.0" fill="#5d6574" font-size="11" font-family="Segoe UI, Arial, sans-serif" font-weight="400" text-anchor="middle">1500</text>
<line x1="1132.0" y1="897.0" x2="1132.0" y2="1048.0" stroke="#d7dbe5" stroke-width="1.0" stroke-dasharray="4 4" />
<text x="1132.0" y="1066.0" fill="#5d6574" font-size="11" font-family="Segoe UI, Arial, sans-serif" font-weight="400" text-anchor="middle">2000</text>
<line x1="98.0" y1="897.0" x2="98.0" y2="1048.0" stroke="#2d3440" stroke-width="1.2" />
<line x1="98.0" y1="1048.0" x2="1132.0" y2="1048.0" stroke="#2d3440" stroke-width="1.2" />
<polyline points="98.00,903.85 100.07,903.85 102.14,903.85 104.20,903.85 106.27,903.85 108.34,903.85 110.41,903.85 112.48,903.85 114.54,903.85 116.61,903.85 118.68,903.85 120.75,903.85 122.82,903.85 124.88,903.85 126.95,903.85 129.02,903.85 131.09,903.85 133.16,903.85 135.22,903.85 137.29,903.85 139.36,903.85 141.43,903.85 143.50,903.85 145.56,903.85 147.63,903.85 149.70,903.85 151.77,903.85 153.84,903.85 155.90,903.85 157.97,903.85 160.04,903.85 162.11,903.85 164.18,903.85 166.24,903.85 168.31,903.85 170.38,903.85 172.45,903.85 174.52,903.85 176.58,903.85 178.65,903.85 180.72,903.85 182.79,903.85 184.86,903.85 186.92,903.85 188.99,903.85 191.06,903.85 193.13,903.85 195.20,903.85 197.26,903.85 199.33,903.85 201.40,903.85 203.47,903.85 205.54,903.85 207.60,903.85 209.67,903.85 211.74,903.85 213.81,903.85 215.88,903.85 217.94,903.85 220.01,903.85 222.08,903.85 224.15,903.85 226.22,903.85 228.28,903.85 230.35,903.85 232.42,903.85 234.49,903.85 236.56,903.85 238.62,903.85 240.69,903.85 242.76,903.85 244.83,903.85 246.90,903.85 248.96,903.85 251.03,903.85 253.10,903.85 255.17,903.85 257.24,903.85 259.30,903.85 261.37,903.85 263.44,903.85 265.51,903.85 267.58,903.85 269.64,903.85 271.71,903.85 273.78,903.85 275.85,903.85 277.92,903.85 279.98,903.85 282.05,903.85 284.12,903.85 286.19,903.85 288.26,903.85 290.32,903.85 292.39,903.85 294.46,903.85 296.53,903.85 298.60,903.85 300.66,903.85 302.73,903.85 304.80,903.85 306.87,903.85 308.94,903.85 311.00,903.85 313.07,903.85 315.14,903.85 317.21,903.85 319.28,903.85 321.34,903.85 323.41,903.85 325.48,903.85 327.55,903.85 329.62,903.85 331.68,903.85 333.75,903.85 335.82,903.85 337.89,903.85 339.96,903.85 342.02,903.85 344.09,903.85 346.16,903.85 348.23,903.85 350.30,903.85 352.36,903.85 354.43,903.85 356.50,903.85 358.57,903.85 360.64,903.85 362.70,903.85 364.77,903.85 366.84,903.85 368.91,903.85 370.98,903.85 373.04,903.85 375.11,903.85 377.18,903.85 379.25,903.85 381.32,903.85 383.38,903.85 385.45,903.85 387.52,903.85 389.59,903.85 391.66,903.85 393.72,903.85 395.79,903.85 397.86,903.85 399.93,903.85 402.00,903.85 404.06,903.85 406.13,903.85 408.20,903.85 410.27,903.85 412.34,903.85 414.40,903.85 416.47,903.85 418.54,903.85 420.61,903.85 422.68,903.85 424.74,903.85 426.81,903.85 428.88,903.85 430.95,903.85 433.02,903.85 435.08,903.85 437.15,903.85 439.22,903.85 441.29,903.85 443.36,903.85 445.42,903.85 447.49,903.85 449.56,903.85 451.63,903.85 453.70,903.85 455.76,903.85 457.83,903.85 459.90,903.85 461.97,903.85 464.04,903.85 466.10,903.85 468.17,903.85 470.24,903.85 472.31,903.85 474.38,903.85 476.44,903.85 478.51,903.85 480.58,903.85 482.65,903.85 484.72,903.85 486.78,903.85 488.85,903.85 490.92,903.85 492.99,903.85 495.06,903.85 497.12,903.85 499.19,903.85 501.26,903.85 503.33,903.85 505.40,903.85 507.46,903.85 509.53,903.85 511.60,903.85 513.67,903.85 515.74,903.85 517.80,903.85 519.87,903.85 521.94,903.85 524.01,903.85 526.08,903.85 528.14,903.85 530.21,903.85 532.28,903.85 534.35,903.85 536.42,903.85 538.48,903.85 540.55,903.85 542.62,903.85 544.69,903.85 546.76,903.85 548.82,903.85 550.89,903.85 552.96,903.85 555.03,903.85 557.10,903.85 559.16,903.85 561.23,903.85 563.30,903.85 565.37,903.85 567.44,903.85 569.50,903.85 571.57,903.85 573.64,903.85 575.71,903.85 577.78,903.85 579.84,903.85 581.91,903.85 583.98,903.85 586.05,903.85 588.12,903.85 590.18,903.85 592.25,903.85 594.32,903.85 596.39,903.85 598.46,903.85 600.52,903.85 602.59,903.85 604.66,903.85 606.73,903.85 608.80,903.85 610.86,903.85 612.93,903.85 615.00,903.85 617.07,903.85 619.14,903.85 621.20,903.85 623.27,903.85 625.34,903.85 627.41,903.85 629.48,903.85 631.54,903.85 633.61,903.85 635.68,903.85 637.75,903.85 639.82,903.85 641.88,903.85 643.95,903.85 646.02,903.85 648.09,903.85 650.16,903.85 652.22,903.85 654.29,903.85 656.36,903.85 658.43,903.85 660.50,903.85 662.56,903.85 664.63,903.85 666.70,903.85 668.77,903.85 670.84,903.85 672.90,903.85 674.97,903.85 677.04,903.85 679.11,903.85 681.18,903.85 683.24,903.85 685.31,903.85 687.38,903.85 689.45,903.85 691.52,903.85 693.58,903.85 695.65,903.85 697.72,903.85 699.79,903.85 701.86,903.85 703.92,903.85 705.99,903.85 708.06,903.85 710.13,903.85 712.20,903.85 714.26,903.85 716.33,903.85 718.40,903.85 720.47,903.85 722.54,903.85 724.60,903.85 726.67,903.85 728.74,903.85 730.81,903.85 732.88,903.85 734.94,903.85 737.01,903.85 739.08,903.85 741.15,903.85 743.22,903.85 745.28,903.85 747.35,903.85 749.42,903.85 751.49,903.85 753.56,903.85 755.62,903.85 757.69,903.85 759.76,903.85 761.83,903.85 763.90,903.85 765.96,903.85 768.03,903.85 770.10,903.85 772.17,903.85 774.24,903.85 776.30,903.85 778.37,903.85 780.44,903.85 782.51,903.85 784.58,903.85 786.64,903.85 788.71,903.85 790.78,903.85 792.85,903.85 794.92,903.85 796.98,903.85 799.05,903.85 801.12,903.85 803.19,903.85 805.26,903.85 807.32,903.85 809.39,903.85 811.46,903.85 813.53,903.85 815.60,903.85 817.66,903.85 819.73,903.85 821.80,903.85 823.87,903.85 825.94,903.85 828.00,903.85 830.07,903.85 832.14,903.85 834.21,903.85 836.28,903.85 838.34,903.85 840.41,903.85 842.48,903.85 844.55,903.85 846.62,903.85 848.68,903.85 850.75,903.85 852.82,903.85 854.89,903.85 856.96,903.85 859.02,903.85 861.09,903.85 863.16,903.85 865.23,903.85 867.30,903.85 869.36,903.85 871.43,903.85 873.50,903.85 875.57,903.85 877.64,903.85 879.70,903.85 881.77,903.85 883.84,903.85 885.91,903.85 887.98,903.85 890.04,903.85 892.11,903.85 894.18,903.85 896.25,903.85 898.32,903.85 900.38,903.85 902.45,903.85 904.52,903.85 906.59,903.85 908.66,903.85 910.72,903.85 912.79,903.85 914.86,903.85 916.93,903.85 919.00,903.85 921.06,903.85 923.13,903.85 925.20,903.85 927.27,903.85 929.34,903.85 931.40,903.85 933.47,903.85 935.54,903.85 937.61,903.85 939.68,903.85 941.74,903.85 943.81,903.85 945.88,903.85 947.95,903.85 950.02,903.85 952.08,903.85 954.15,903.85 956.22,903.85 958.29,903.85 960.36,903.85 962.42,903.85 964.49,903.85 966.56,903.85 968.63,903.85 970.70,903.85 972.76,903.85 974.83,903.85 976.90,903.85 978.97,903.85 981.04,903.85 983.10,903.85 985.17,903.85 987.24,903.85 989.31,903.85 991.38,903.85 993.44,903.85 995.51,903.85 997.58,903.85 999.65,903.85 1001.72,903.85 1003.78,903.85 1005.85,903.85 1007.92,903.85 1009.99,903.85 1012.06,903.85 1014.12,903.85 1016.19,903.85 1018.26,903.85 1020.33,903.85 1022.40,903.85 1024.46,903.85 1026.53,903.85 1028.60,903.85 1030.67,903.85 1032.74,903.85 1034.80,903.85 1036.87,903.85 1038.94,903.85 1041.01,903.85 1043.08,903.85 1045.14,903.85 1047.21,903.85 1049.28,903.85 1051.35,903.85 1053.42,903.85 1055.48,903.85 1057.55,903.85 1059.62,903.85 1061.69,903.85 1063.76,903.85 1065.82,903.85 1067.89,903.85 1069.96,903.85 1072.03,903.85 1074.10,903.85 1076.16,903.85 1078.23,903.85 1080.30,903.85 1082.37,903.85 1084.44,903.85 1086.50,903.85 1088.57,903.85 1090.64,903.85 1092.71,903.85 1094.78,903.85 1096.84,903.85 1098.91,903.85 1100.98,903.85 1103.05,903.85 1105.12,903.85 1107.18,903.85 1109.25,903.85 1111.32,903.85 1113.39,903.85 1115.46,903.85 1117.52,903.85 1119.59,903.85 1121.66,903.85 1123.73,903.85 1125.80,903.85 1127.86,903.85 1129.93,903.85 1131.48,903.85" fill="none" stroke="#b35c00" stroke-width="1.8" stroke-linejoin="round" stroke-linecap="round" />
<polyline points="98.00,903.85 100.07,918.89 102.14,922.19 104.20,919.67 106.27,916.18 108.34,912.12 110.41,908.95 112.48,907.82 114.54,908.64 116.61,910.18 118.68,911.38 120.75,911.92 122.82,911.89 124.88,911.47 126.95,910.83 129.02,910.10 131.09,909.41 133.16,908.87 135.22,908.52 137.29,908.36 139.36,908.34 141.43,908.47 143.50,908.81 145.56,909.16 147.63,909.50 149.70,909.80 151.77,910.05 153.84,910.26 155.90,910.43 157.97,910.57 160.04,910.69 162.11,910.81 164.18,910.93 166.24,911.06 168.31,911.21 170.38,911.37 172.45,911.56 174.52,911.76 176.58,911.98 178.65,912.21 180.72,912.44 182.79,912.68 184.86,912.91 186.92,913.11 188.99,913.29 191.06,913.39 193.13,913.39 195.20,913.24 197.26,912.89 199.33,912.28 201.40,911.37 203.47,910.20 205.54,908.81 207.60,907.35 209.67,905.94 213.81,904.26 215.88,904.10 217.94,904.02 220.01,903.98 222.08,903.95 224.15,903.92 226.22,903.91 228.28,903.90 230.35,903.91 232.42,903.93 234.49,903.95 236.56,903.98 238.62,904.00 240.69,904.03 242.76,904.05 244.83,904.06 246.90,904.07 248.96,904.08 251.03,904.08 253.10,904.09 255.17,904.09 257.24,904.09 259.30,904.09 261.37,904.09 263.44,904.09 265.51,904.09 267.58,904.09 269.64,904.09 271.71,904.10 273.78,904.10 275.85,904.10 277.92,904.11 279.98,904.11 282.05,904.12 284.12,904.12 286.19,904.12 288.26,904.13 290.32,904.14 292.39,904.15 294.46,904.17 296.53,904.18 298.60,904.19 300.66,904.21 302.73,904.22 304.80,904.25 306.87,904.30 308.94,904.35 311.00,904.43 313.07,904.47 315.14,904.53 317.21,904.57 319.28,904.63 321.34,904.70 323.41,904.95 325.48,905.12 327.55,905.16 329.62,905.25 331.68,905.62 333.75,906.08 335.82,906.33 337.89,906.45 339.96,906.56 342.02,907.04 344.09,907.51 346.16,907.75 348.23,907.96 350.30,908.43 352.36,910.70 354.43,914.03 356.50,917.72 358.57,921.64 360.64,925.11 362.70,927.23 364.77,927.94 366.84,927.89 368.91,927.87 370.98,927.67 373.04,926.88 375.11,925.23 377.18,923.07 379.25,920.96 381.32,919.23 383.38,917.96 385.45,917.12 387.52,916.61 389.59,916.36 391.66,916.30 393.72,916.38 395.79,916.56 397.86,916.83 399.93,917.18 402.00,917.62 404.06,918.18 406.13,918.98 408.20,920.22 410.27,922.29 412.34,925.85 414.40,932.38 416.47,945.50 418.54,936.67 420.61,897.00 422.68,897.00 424.74,897.00 426.81,897.00 428.88,897.00 430.95,898.21 433.02,900.14 435.08,901.60 437.15,902.79 439.22,903.88 441.29,905.10 443.36,906.68 445.42,908.95 447.49,912.26 449.56,916.90 451.63,922.10 453.70,925.43 455.76,925.83 457.83,924.54 459.90,922.65 461.97,920.56 464.04,918.44 466.10,916.50 468.17,914.87 470.24,913.76 472.31,913.26 474.38,913.25 476.44,913.57 478.51,914.04 480.58,914.35 482.65,914.05 484.72,912.96 486.78,910.97 488.85,908.67 490.92,906.20 492.99,904.30 495.06,903.37 497.12,903.17 499.19,903.25 501.26,903.12 503.33,902.33 505.40,902.12 507.46,901.77 509.53,901.48 511.60,901.85 513.67,902.06 515.74,902.49 517.80,902.96 519.87,903.19 521.94,903.67 524.01,903.85 526.08,903.56 528.14,903.20 530.21,902.78 532.28,902.19 534.35,902.26 536.42,902.49 538.48,902.79 540.55,903.02 542.62,903.21 544.69,903.28 546.76,902.90 548.82,902.50 550.89,901.94 552.96,901.76 555.03,901.95 557.10,902.14 559.16,902.57 561.23,903.01 563.30,902.96 565.37,902.29 567.44,901.79 569.50,901.63 571.57,901.95 573.64,902.57 575.71,903.12 577.78,903.22 579.84,903.21 581.91,903.00 583.98,902.69 586.05,902.18 588.12,901.81 590.18,901.57 592.25,901.78 594.32,901.83 596.39,901.83 598.46,902.09 600.52,902.75 602.59,903.38 604.66,903.73 606.73,903.33 608.80,902.70 610.86,901.91 612.93,901.43 615.00,901.39 617.07,901.67 619.14,902.15 621.20,902.61 623.27,903.18 625.34,903.36 627.41,903.14 629.48,902.54 631.54,902.21 633.61,902.03 635.68,901.94 637.75,901.85 639.82,902.21 641.88,902.61 643.95,902.89 646.02,902.65 648.09,902.33 650.16,902.06 652.22,902.14 654.29,902.01 656.36,902.13 658.43,902.39 660.50,902.59 662.56,902.95 664.63,903.02 666.70,902.75 668.77,902.45 670.84,902.03 672.90,901.73 674.97,901.69 677.04,901.87 679.11,902.16 681.18,902.64 683.24,903.11 685.31,903.01 687.38,902.77 689.45,902.63 691.52,902.38 693.58,902.18 695.65,902.05 697.72,901.94 699.79,902.05 701.86,902.40 703.92,902.94 705.99,902.97 708.06,902.52 710.13,902.13 712.20,902.14 714.26,902.06 716.33,902.26 718.40,902.43 720.47,902.56 722.54,902.69 724.60,902.49 726.67,902.37 728.74,902.38 730.81,902.30 732.88,902.19 734.94,901.83 737.01,901.51 739.08,902.14 741.15,902.95 743.22,903.60 745.28,903.77 747.35,903.40 749.42,902.42 751.49,901.45 753.56,901.24 755.62,901.70 757.69,902.06 759.76,902.04 761.83,902.20 763.90,902.72 765.96,903.08 768.03,903.04 770.10,902.71 772.17,902.42 774.24,902.10 776.30,902.01 778.37,901.96 780.44,902.13 782.51,902.28 784.58,902.53 786.64,902.56 788.71,902.43 790.78,902.25 792.85,902.67 794.92,902.94 796.98,902.89 799.05,902.67 801.12,902.30 803.19,902.01 805.26,902.01 807.32,902.27 809.39,901.98 811.46,901.82 813.53,902.13 815.60,902.63 817.66,903.12 819.73,903.06 821.80,902.81 823.87,902.39 825.94,902.18 828.00,902.17 830.07,902.30 832.14,902.39 834.21,902.46 836.28,902.28 838.34,902.12 840.41,902.01 842.48,902.13 844.55,902.46 846.62,902.82 848.68,902.72 850.75,902.18 852.82,902.17 854.89,902.11 856.96,902.27 859.02,902.78 861.09,902.94 863.16,902.44 865.23,902.16 867.30,902.28 869.36,902.43 871.43,902.49 873.50,902.54 875.57,902.55 877.64,902.49 879.70,902.50 881.77,902.58 883.84,902.75 885.91,902.51 887.98,902.19 890.04,901.95 892.11,901.88 894.18,902.12 896.25,902.40 898.32,902.53 900.38,902.62 902.45,902.66 904.52,902.30 906.59,901.72 908.66,901.73 910.72,902.37 912.79,902.67 914.86,902.64 916.93,902.79 919.00,902.67 921.06,902.44 923.13,902.36 925.20,902.49 927.27,902.69 929.34,902.82 931.40,902.69 933.47,902.75 935.54,902.38 937.61,901.77 939.68,901.71 941.74,901.99 943.81,902.02 945.88,902.32 947.95,902.23 950.02,902.31 952.08,902.73 954.15,903.18 956.22,902.78 958.29,902.52 960.36,902.51 962.42,902.33 964.49,902.07 966.56,901.87 968.63,902.12 970.70,902.37 972.76,902.66 974.83,902.78 976.90,902.69 978.97,902.25 981.04,901.81 983.10,901.88 985.17,902.25 987.24,902.70 989.31,903.01 991.38,902.97 993.44,902.84 995.51,902.38 997.58,902.18 999.65,902.27 1001.72,902.23 1003.78,902.10 1005.85,902.05 1007.92,901.85 1009.99,901.98 1012.06,902.16 1014.12,902.40 1016.19,902.89 1018.26,903.30 1020.33,903.21 1022.40,902.61 1024.46,902.19 1026.53,901.87 1028.60,902.06 1030.67,902.59 1032.74,902.67 1034.80,902.61 1036.87,902.52 1038.94,902.24 1041.01,902.06 1043.08,901.96 1045.14,902.07 1047.21,902.30 1049.28,902.63 1051.35,902.83 1053.42,902.66 1055.48,902.23 1057.55,901.79 1059.62,902.01 1061.69,902.36 1063.76,902.57 1065.82,902.53 1067.89,902.39 1069.96,902.73 1072.03,902.69 1074.10,902.72 1076.16,902.69 1078.23,902.53 1080.30,902.40 1082.37,902.28 1084.44,902.16 1086.50,902.03 1088.57,902.29 1090.64,902.22 1092.71,902.14 1094.78,902.17 1096.84,902.42 1098.91,902.48 1100.98,902.68 1103.05,902.53 1105.12,902.56 1107.18,902.39 1109.25,902.36 1111.32,902.43 1113.39,902.41 1115.46,902.42 1117.52,902.15 1119.59,902.20 1121.66,902.31 1123.73,902.42 1125.80,902.85 1127.86,902.80 1129.93,902.16 1131.48,902.06" fill="none" stroke="#2458d3" stroke-width="1.8" stroke-linejoin="round" stroke-linecap="round" />
<line x1="56.0" y1="1052.0" x2="80.0" y2="1052.0" stroke="#2458d3" stroke-width="2.0" />
<text x="86.0" y="1056.0" fill="#1f2430" font-size="12" font-family="Segoe UI, Arial, sans-serif" font-weight="400" text-anchor="start">V_next / V_k</text>
<line x1="208.0" y1="1052.0" x2="232.0" y2="1052.0" stroke="#b35c00" stroke-width="2.0" />
<text x="238.0" y="1056.0" fill="#1f2430" font-size="12" font-family="Segoe UI, Arial, sans-serif" font-weight="400" text-anchor="start">rho</text>
<circle cx="308.00" cy="1052.00" r="2.40" fill="#bf1e2d" stroke="none" stroke-width="0.0" />
<text x="320.0" y="1056.0" fill="#1f2430" font-size="12" font-family="Segoe UI, Arial, sans-serif" font-weight="400" text-anchor="start">violations</text>
</svg>