<svg xmlns="http://www.w3.org/2000/svg" width="1280" height="760" viewBox="0 0 1280 760" role="img">
<rect x="0.0" y="0.0" width="1280.0" height="760.0" fill="#ffffff" stroke="none" stroke-width="1.0" rx="0.0" />
<text x="40.0" y="34.0" fill="#1f2430" font-size="22" font-family="Segoe UI, Arial, sans-serif" font-weight="600" text-anchor="start">Bounded hard: output tracking and steady targets across rho</text>
<text x="40.0" y="56.0" fill="#5d6574" font-size="13" font-family="Segoe UI, Arial, sans-serif" font-weight="400" text-anchor="start">Solid lines are plant outputs y. Dashed lines are steady targets y_s. Black dashed line is the raw setpoint y_sp.</text>
<rect x="40.0" y="88.0" width="1200.0" height="250.0" fill="#fbfbfd" stroke="#d7dbe5" stroke-width="1.0" rx="8.0" />
<text x="56.0" y="112.0" fill="#1f2430" font-size="16" font-family="Segoe UI, Arial, sans-serif" font-weight="600" text-anchor="start">Output y[0]</text>
<text x="56.0" y="130.0" fill="#5d6574" font-size="12" font-family="Segoe UI, Arial, sans-serif" font-weight="400" text-anchor="start">Transient window 0-250 steps</text>
<line x1="98.0" y1="306.0" x2="1216.0" y2="306.0" stroke="#d7dbe5" stroke-width="1.0" stroke-dasharray="4 4" />
<text x="90.0" y="310.0" fill="#5d6574" font-size="11" font-family="Segoe UI, Arial, sans-serif" font-weight="400" text-anchor="end">2.794</text>
<line x1="98.0" y1="226.0" x2="1216.0" y2="226.0" stroke="#d7dbe5" stroke-width="1.0" stroke-dasharray="4 4" />
<text x="90.0" y="230.0" fill="#5d6574" font-size="11" font-family="Segoe UI, Arial, sans-serif" font-weight="400" text-anchor="end">3.952</text>
<line x1="98.0" y1="146.0" x2="1216.0" y2="146.0" stroke="#d7dbe5" stroke-width="1.0" stroke-dasharray="4 4" />
<text x="90.0" y="150.0" fill="#5d6574" font-size="11" font-family="Segoe UI, Arial, sans-serif" font-weight="400" text-anchor="end">5.11</text>
<line x1="98.0" y1="146.0" x2="98.0" y2="306.0" stroke="#d7dbe5" stroke-width="1.0" stroke-dasharray="4 4" />
<text x="98.0" y="324.0" fill="#5d6574" font-size="11" font-family="Segoe UI, Arial, sans-serif" font-weight="400" text-anchor="middle">0</text>
<line x1="657.0" y1="146.0" x2="657.0" y2="306.0" stroke="#d7dbe5" stroke-width="1.0" stroke-dasharray="4 4" />
<text x="657.0" y="324.0" fill="#5d6574" font-size="11" font-family="Segoe UI, Arial, sans-serif" font-weight="400" text-anchor="middle">125</text>
<line x1="1216.0" y1="146.0" x2="1216.0" y2="306.0" stroke="#d7dbe5" stroke-width="1.0" stroke-dasharray="4 4" />
<text x="1216.0" y="324.0" fill="#5d6574" font-size="11" font-family="Segoe UI, Arial, sans-serif" font-weight="400" text-anchor="middle">250</text>
<line x1="98.0" y1="146.0" x2="98.0" y2="306.0" stroke="#2d3440" stroke-width="1.2" />
<line x1="98.0" y1="306.0" x2="1216.0" y2="306.0" stroke="#2d3440" stroke-width="1.2" />
<text x="56.0" y="160.0" fill="#5d6574" font-size="12" font-family="Segoe UI, Arial, sans-serif" font-weight="400" text-anchor="start">physical</text>
<polyline points="98.00,188.11 102.47,188.11 106.94,188.11 111.42,188.11 115.89,188.11 120.36,188.11 124.83,188.11 129.30,188.11 133.78,188.11 138.25,188.11 142.72,188.11 147.19,188.11 151.66,188.11 156.14,188.11 160.61,188.11 165.08,188.11 169.55,188.11 174.02,188.11 178.50,188.11 182.97,188.11 187.44,188.11 191.91,188.11 196.38,188.11 200.86,188.11 205.33,188.11 209.80,188.11 214.27,188.11 218.74,188.11 223.22,188.11 227.69,188.11 232.16,188.11 236.63,188.11 241.10,188.11 245.58,188.11 250.05,188.11 254.52,188.11 258.99,188.11 263.46,188.11 267.94,188.11 272.41,188.11 276.88,188.11 281.35,188.11 285.82,188.11 290.30,188.11 294.77,188.11 299.24,188.11 303.71,188.11 308.18,188.11 312.66,188.11 317.13,188.11 321.60,188.11 326.07,188.11 330.54,188.11 335.02,188.11 339.49,188.11 343.96,188.11 348.43,188.11 352.90,188.11 357.38,188.11 361.85,188.11 366.32,188.11 370.79,188.11 375.26,188.11 379.74,188.11 384.21,188.11 388.68,188.11 393.15,188.11 397.62,188.11 402.10,188.11 406.57,188.11 411.04,188.11 415.51,188.11 419.98,188.11 424.46,188.11 428.93,188.11 433.40,188.11 437.87,188.11 442.34,188.11 446.82,188.11 451.29,188.11 455.76,188.11 460.23,188.11 464.70,188.11 469.18,188.11 473.65,188.11 478.12,188.11 482.59,188.11 487.06,188.11 491.54,188.11 496.01,188.11 500.48,188.11 504.95,188.11 509.42,188.11 513.90,188.11 518.37,188.11 522.84,188.11 527.31,188.11 531.78,188.11 536.26,188.11 540.73,188.11 545.20,188.11 549.67,188.11 554.14,188.11 558.62,188.11 563.09,188.11 567.56,188.11 572.03,188.11 576.50,188.11 580.98,188.11 585.45,188.11 589.92,188.11 594.39,188.11 598.86,188.11 603.34,188.11 607.81,188.11 612.28,188.11 616.75,188.11 621.22,188.11 625.70,188.11 630.17,188.11 634.64,188.11 639.11,188.11 643.58,188.11 648.06,188.11 652.53,188.11 657.00,188.11 661.47,188.11 665.94,188.11 670.42,188.11 674.89,188.11 679.36,188.11 683.83,188.11 688.30,188.11 692.78,188.11 697.25,188.11 701.72,188.11 706.19,188.11 710.66,188.11 715.14,188.11 719.61,188.11 724.08,188.11 728.55,188.11 733.02,188.11 737.50,188.11 741.97,188.11 746.44,188.11 750.91,188.11 755.38,188.11 759.86,188.11 764.33,188.11 768.80,188.11 773.27,188.11 777.74,188.11 782.22,188.11 786.69,188.11 791.16,188.11 795.63,188.11 800.10,188.11 804.58,188.11 809.05,188.11 813.52,188.11 817.99,188.11 822.46,188.11 826.94,188.11 831.41,188.11 835.88,188.11 840.35,188.11 844.82,188.11 849.30,188.11 853.77,188.11 858.24,188.11 862.71,188.11 867.18,188.11 871.66,188.11 876.13,188.11 880.60,188.11 885.07,188.11 889.54,188.11 894.02,188.11 898.49,188.11 902.96,188.11 907.43,188.11 911.90,188.11 916.38,188.11 920.85,188.11 925.32,188.11 929.79,188.11 934.26,188.11 938.74,188.11 943.21,188.11 947.68,188.11 952.15,188.11 956.62,188.11 961.10,188.11 965.57,188.11 970.04,188.11 974.51,188.11 978.98,188.11 983.46,188.11 987.93,188.11 992.40,188.11 996.87,188.11 1001.34,188.11 1005.82,188.11 1010.29,188.11 1014.76,188.11 1019.23,188.11 1023.70,188.11 1028.18,188.11 1032.65,188.11 1037.12,188.11 1041.59,188.11 1046.06,188.11 1050.54,188.11 1055.01,188.11 1059.48,188.11 1063.95,188.11 1068.42,188.11 1072.90,188.11 1077.37,188.11 1081.84,188.11 1086.31,188.11 1090.78,188.11 1095.26,188.11 1099.73,188.11 1104.20,188.11 1108.67,188.11 1113.14,188.11 1117.62,188.11 1122.09,188.11 1126.56,188.11 1131.03,188.11 1135.50,188.11 1139.98,188.11 1144.45,188.11 1148.92,188.11 1153.39,188.11 1157.86,188.11 1162.34,188.11 1166.81,188.11 1171.28,188.11 1175.75,188.11 1180.22,188.11 1184.70,188.11 1189.17,188.11 1193.64,188.11 1198.11,188.11 1202.58,188.11 1207.06,188.11 1211.53,188.11 1216.00,188.11" fill="none" stroke="#2d3440" stroke-width="1.6" stroke-linejoin="round" stroke-linecap="round" stroke-dasharray="4 4" />
<polyline points="98.00,230.26 102.47,229.87 106.94,228.81 111.42,227.23 115.89,225.27 120.36,223.05 124.83,220.68 129.30,218.25 133.78,215.85 138.25,213.54 142.72,211.36 147.19,209.34 151.66,207.52 156.14,205.89 160.61,204.47 165.08,203.26 169.55,202.26 174.02,201.44 178.50,200.81 182.97,200.34 187.44,200.02 191.91,199.84 196.38,199.78 200.86,199.82 205.33,199.96 209.80,200.16 214.27,200.43 218.74,200.73 223.22,201.08 227.69,201.44 232.16,201.82 236.63,202.20 241.10,202.57 245.58,202.92 250.05,203.26 254.52,203.57 258.99,203.85 263.46,204.10 267.94,204.31 272.41,204.47 276.88,204.60 281.35,204.69 285.82,204.73 290.30,204.73 294.77,204.69 299.24,204.61 303.71,204.49 308.18,204.33 312.66,204.14 317.13,203.91 321.60,203.66 326.07,203.38 330.54,203.08 335.02,202.76 339.49,202.41 343.96,202.06 348.43,201.69 352.90,201.31 357.38,201.01 361.85,200.90 366.32,201.01 370.79,201.24 375.26,201.52 379.74,201.81 384.21,202.08 388.68,202.31 393.15,202.47 397.62,202.57 402.10,202.58 406.57,202.52 411.04,202.38 415.51,202.17 419.98,201.88 424.46,201.53 428.93,201.11 433.40,200.65 437.87,200.14 442.34,199.60 446.82,199.06 451.29,199.17 455.76,200.32 460.23,202.19 464.70,204.44 469.18,206.86 473.65,209.32 478.12,211.70 482.59,213.93 487.06,215.94 491.54,217.70 496.01,219.18 500.48,220.33 504.95,221.14 509.42,221.61 513.90,221.98 518.37,222.43 522.84,222.84 527.31,223.11 531.78,223.15 536.26,222.90 540.73,222.33 545.20,221.42 549.67,220.16 554.14,218.55 558.62,216.61 563.09,214.37 567.56,211.86 572.03,209.13 576.50,206.24 580.98,203.22 585.45,200.14 589.92,197.04 594.39,193.98 598.86,190.99 603.34,188.11 607.81,185.38 612.28,182.81 616.75,180.42 621.22,178.23 625.70,175.66 630.17,172.46 634.64,169.07 639.11,165.82 643.58,162.92 648.06,160.54 652.53,158.76 657.00,157.59 661.47,157.03 665.94,157.06 670.42,157.62 674.89,158.65 679.36,160.11 683.83,161.93 688.30,164.05 692.78,166.42 697.25,168.99 701.72,171.72 706.19,174.55 710.66,177.47 715.14,180.42 719.61,183.38 724.08,186.32 728.55,189.22 733.02,192.06 737.50,194.82 741.97,197.48 746.44,200.04 750.91,202.47 755.38,204.77 759.86,206.93 764.33,208.95 768.80,210.81 773.27,212.67 777.74,214.72 782.22,216.91 786.69,219.11 791.16,221.22 795.63,223.18 800.10,224.93 804.58,226.44 809.05,227.68 813.52,228.64 817.99,229.31 822.46,229.67 826.94,229.73 831.41,229.48 835.88,228.95 840.35,228.13 844.82,227.06 849.30,225.74 853.77,224.22 858.24,222.52 862.71,220.67 867.18,218.71 871.66,216.68 876.13,214.59 880.60,212.50 885.07,210.42 889.54,208.37 894.02,206.40 898.49,204.50 902.96,202.70 907.43,201.01 911.90,199.44 916.38,197.99 920.85,196.67 925.32,195.47 929.79,194.27 934.26,193.08 938.74,192.06 943.21,191.31 947.68,190.93 952.15,190.96 956.62,191.45 961.10,192.40 965.57,193.81 970.04,195.66 974.51,197.92 978.98,200.57 983.46,203.57 987.93,206.86 992.40,210.42 996.87,214.19 1001.34,218.14 1005.82,222.23 1010.29,226.41 1014.76,230.65 1019.23,234.92 1023.70,239.17 1028.18,243.37 1032.65,247.50 1037.12,251.52 1041.59,255.42 1046.06,259.15 1050.54,262.70 1055.01,266.01 1059.48,269.06 1063.95,271.84 1068.42,274.36 1072.90,276.62 1077.37,278.64 1081.84,280.42 1086.31,281.98 1090.78,283.72 1095.26,285.78 1099.73,287.89 1104.20,289.88 1108.67,291.64 1113.14,293.08 1117.62,294.15 1122.09,294.80 1126.56,294.97 1131.03,294.60 1135.50,293.63 1139.98,292.01 1144.45,289.68 1148.92,286.60 1153.39,282.76 1157.86,278.16 1162.34,272.84 1166.81,266.87 1171.28,260.37 1175.75,253.45 1180.22,246.26 1184.70,238.95 1189.17,231.65 1193.64,224.51 1198.11,217.63 1202.58,211.10 1207.06,205.00 1211.53,199.38 1216.00,194.27" fill="none" stroke="#bf1e2d" stroke-width="2.2" stroke-linejoin="round" stroke-linecap="round" />
<polyline points="98.00,229.88 102.47,229.88 106.94,229.53 111.42,230.08 115.89,229.38 120.36,228.24 124.83,226.70 129.30,224.84 133.78,222.78 138.25,220.63 142.72,218.50 147.19,216.47 151.66,214.58 156.14,212.88 160.61,211.38 165.08,210.09 169.55,209.01 174.02,208.13 178.50,207.43 182.97,206.89 187.44,206.51 191.91,206.25 196.38,206.11 200.86,206.05 205.33,206.08 209.80,206.17 214.27,206.31 218.74,206.48 223.22,206.68 227.69,206.89 232.16,207.11 236.63,207.33 241.10,207.54 245.58,207.74 250.05,207.92 254.52,208.08 258.99,208.21 263.46,208.32 267.94,208.40 272.41,208.45 276.88,208.46 281.35,208.45 285.82,208.40 290.30,208.32 294.77,208.21 299.24,208.07 303.71,207.90 308.18,207.71 312.66,207.49 317.13,207.24 321.60,206.98 326.07,206.69 330.54,206.39 335.02,206.07 339.49,205.74 343.96,205.40 348.43,205.05 352.90,204.69 357.38,204.33 361.85,203.98 366.32,202.96 370.79,202.66 375.26,202.81 379.74,203.14 384.21,203.41 388.68,203.65 393.15,203.90 397.62,204.12 402.10,204.27 406.57,204.27 411.04,204.17 415.51,203.97 419.98,203.68 424.46,203.38 428.93,203.08 433.40,202.71 437.87,202.29 442.34,201.83 446.82,201.49 451.29,200.98 455.76,200.91 460.23,200.92 464.70,201.52 469.18,202.76 473.65,204.51 478.12,206.60 482.59,208.82 487.06,211.02 491.54,213.06 496.01,214.88 500.48,216.41 504.95,217.63 509.42,218.52 513.90,219.08 518.37,219.37 522.84,219.50 527.31,219.56 531.78,219.60 536.26,219.60 540.73,219.50 545.20,219.24 549.67,218.75 554.14,218.01 558.62,216.98 563.09,215.66 567.56,214.06 572.03,212.22 576.50,210.15 580.98,207.91 585.45,205.53 589.92,203.07 594.39,200.57 598.86,198.08 603.34,195.53 607.81,193.04 612.28,190.72 616.75,188.58 621.22,187.64 625.70,185.92 630.17,183.91 634.64,182.04 639.11,179.88 643.58,177.47 648.06,174.98 652.53,172.61 657.00,170.56 661.47,168.97 665.94,167.92 670.42,167.44 674.89,167.50 679.36,168.05 683.83,169.03 688.30,170.36 692.78,171.98 697.25,173.82 701.72,175.83 706.19,177.96 710.66,180.15 715.14,182.39 719.61,184.63 724.08,186.86 728.55,189.06 733.02,191.20 737.50,193.28 741.97,195.29 746.44,197.22 750.91,199.06 755.38,200.81 759.86,202.47 764.33,204.02 768.80,205.46 773.27,206.80 777.74,208.07 782.22,208.62 786.69,210.26 791.16,211.74 795.63,213.29 800.10,214.86 804.58,216.38 809.05,217.78 813.52,219.00 817.99,220.00 822.46,220.77 826.94,221.29 831.41,221.56 835.88,221.57 840.35,221.34 844.82,220.88 849.30,220.19 853.77,219.16 858.24,217.79 862.71,216.58 867.18,215.24 871.66,214.21 876.13,213.16 880.60,211.61 885.07,210.05 889.54,208.49 894.02,206.97 898.49,205.50 902.96,204.10 907.43,202.78 911.90,201.55 916.38,200.41 920.85,199.38 925.32,198.44 929.79,197.61 934.26,196.84 938.74,196.12 943.21,195.42 947.68,194.80 952.15,194.35 956.62,194.13 961.10,194.22 965.57,194.68 970.04,195.53 974.51,196.77 978.98,198.38 983.46,200.35 987.93,202.63 992.40,205.19 996.87,207.98 1001.34,210.97 1005.82,214.10 1010.29,217.35 1014.76,220.68 1019.23,224.05 1023.70,227.44 1028.18,230.82 1032.65,234.17 1037.12,237.46 1041.59,240.67 1046.06,243.78 1050.54,246.78 1055.01,249.65 1059.48,252.36 1063.95,254.90 1068.42,257.23 1072.90,259.37 1077.37,261.29 1081.84,263.02 1086.31,264.55 1090.78,265.91 1095.26,267.19 1099.73,268.53 1104.20,269.17 1108.67,271.27 1113.14,272.96 1117.62,274.58 1122.09,276.02 1126.56,277.19 1131.03,278.01 1135.50,278.43 1139.98,278.38 1144.45,277.84 1148.92,276.74 1153.39,275.06 1157.86,272.76 1162.34,269.83 1166.81,266.27 1171.28,262.12 1175.75,257.44 1180.22,251.85 1184.70,246.38 1189.17,240.70 1193.64,235.79 1198.11,230.07 1202.58,224.52 1207.06,219.23 1211.53,214.28 1216.00,209.74" fill="none" stroke="#bf1e2d" stroke-width="1.8" stroke-linejoin="round" stroke-linecap="round" stroke-dasharray="8 5" />
<polyline points="98.00,230.26 102.47,230.10 106.94,229.66 111.42,228.95 115.89,228.00 120.36,226.85 124.83,225.53 129.30,224.07 133.78,222.51 138.25,220.87 142.72,219.20 147.19,217.53 151.66,215.87 156.14,214.25 160.61,212.69 165.08,211.22 169.55,209.83 174.02,208.54 178.50,207.35 182.97,206.27 187.44,205.31 191.91,204.45 196.38,203.69 200.86,203.04 205.33,202.48 209.80,202.01 214.27,201.63 218.74,201.31 223.22,201.07 227.69,200.88 232.16,200.75 236.63,200.66 241.10,200.61 245.58,200.59 250.05,200.59 254.52,200.62 258.99,200.65 263.46,200.69 267.94,200.74 272.41,200.78 276.88,200.82 281.35,200.85 285.82,200.87 290.30,200.88 294.77,200.87 299.24,200.85 303.71,200.81 308.18,200.76 312.66,200.68 317.13,200.59 321.60,200.48 326.07,200.35 330.54,200.21 335.02,200.04 339.49,199.87 343.96,199.68 348.43,199.48 352.90,199.26 357.38,199.04 361.85,198.81 366.32,198.57 370.79,198.33 375.26,198.08 379.74,197.82 384.21,197.57 388.68,197.31 393.15,197.06 397.62,196.80 402.10,196.55 406.57,196.30 411.04,196.05 415.51,195.81 419.98,195.57 424.46,195.34 428.93,195.12 433.40,194.90 437.87,194.68 442.34,194.48 446.82,194.28 451.29,194.08 455.76,193.90 460.23,193.72 464.70,193.54 469.18,193.38 473.65,193.22 478.12,193.07 482.59,192.92 487.06,192.78 491.54,192.64 496.01,192.51 500.48,192.38 504.95,192.26 509.42,192.15 513.90,192.04 518.37,191.93 522.84,191.83 527.31,191.73 531.78,191.63 536.26,191.54 540.73,191.45 545.20,191.36 549.67,191.28 554.14,191.20 558.62,191.12 563.09,191.04 567.56,190.97 572.03,190.89 576.50,190.82 580.98,190.76 585.45,190.69 589.92,190.62 594.39,190.56 598.86,190.50 603.34,190.44 607.81,190.38 612.28,190.32 616.75,190.26 621.22,190.21 625.70,190.15 630.17,190.10 634.64,190.05 639.11,190.00 643.58,189.95 648.06,189.90 652.53,189.86 657.00,189.81 661.47,189.77 665.94,189.72 670.42,189.68 674.89,189.64 679.36,189.60 683.83,189.56 688.30,189.52 692.78,189.49 697.25,189.45 701.72,189.41 706.19,189.38 710.66,189.35 715.14,189.31 719.61,189.28 724.08,189.25 728.55,189.22 733.02,189.19 737.50,189.17 741.97,189.14 746.44,189.11 750.91,189.09 755.38,189.06 759.86,189.04 764.33,189.01 768.80,188.99 773.27,188.97 777.74,188.95 782.22,188.93 786.69,188.90 791.16,188.88 795.63,188.87 800.10,188.85 804.58,188.83 809.05,188.81 813.52,188.79 817.99,188.78 822.46,188.76 826.94,188.74 831.41,188.73 835.88,188.71 840.35,188.70 844.82,188.68 849.30,188.67 853.77,188.65 858.24,188.64 862.71,188.63 867.18,188.62 871.66,188.60 876.13,188.59 880.60,188.58 885.07,188.57 889.54,188.56 894.02,188.55 898.49,188.54 902.96,188.53 907.43,188.52 911.90,188.51 916.38,188.50 920.85,188.49 925.32,188.48 929.79,188.47 934.26,188.46 938.74,188.45 943.21,188.44 947.68,188.44 952.15,188.43 956.62,188.42 961.10,188.41 965.57,188.40 970.04,188.40 974.51,188.39 978.98,188.38 983.46,188.38 987.93,188.37 992.40,188.36 996.87,188.36 1001.34,188.35 1005.82,188.35 1010.29,188.34 1014.76,188.34 1019.23,188.33 1023.70,188.33 1028.18,188.32 1032.65,188.32 1037.12,188.31 1041.59,188.31 1046.06,188.30 1050.54,188.30 1055.01,188.29 1059.48,188.29 1063.95,188.28 1068.42,188.28 1072.90,188.28 1077.37,188.27 1081.84,188.27 1086.31,188.27 1090.78,188.29 1095.26,188.33 1099.73,188.37 1104.20,188.41 1108.67,188.46 1113.14,188.26 1117.62,187.43 1122.09,185.93 1126.56,184.02 1131.03,181.92 1135.50,179.78 1139.98,177.73 1144.45,175.83 1148.92,174.14 1153.39,172.69 1157.86,171.48 1162.34,170.52 1166.81,171.72 1171.28,175.63 1175.75,180.97 1180.22,187.09 1184.70,193.61 1189.17,200.33 1193.64,207.11 1198.11,213.88 1202.58,220.59 1207.06,227.21 1211.53,233.70 1216.00,240.06" fill="none" stroke="#c96b17" stroke-width="2.2" stroke-linejoin="round" stroke-linecap="round" />
<polyline points="98.00,229.88 102.47,229.88 106.94,229.57 111.42,229.44 115.89,229.57 120.36,229.49 124.83,228.76 129.30,227.82 133.78,226.70 138.25,225.45 142.72,224.10 147.19,222.70 151.66,221.27 156.14,219.85 160.61,218.46 165.08,217.13 169.55,215.86 174.02,214.68 178.50,213.58 182.97,212.58 187.44,211.67 191.91,210.85 196.38,210.13 200.86,209.49 205.33,208.94 209.80,208.46 214.27,208.05 218.74,207.71 223.22,207.42 227.69,207.18 232.16,206.97 236.63,206.81 241.10,206.67 245.58,206.56 250.05,206.47 254.52,206.38 258.99,206.31 263.46,206.25 267.94,206.18 272.41,206.11 276.88,206.04 281.35,205.97 285.82,205.88 290.30,205.79 294.77,205.68 299.24,205.56 303.71,205.43 308.18,205.29 312.66,205.13 317.13,204.97 321.60,204.79 326.07,204.59 330.54,204.39 335.02,204.17 339.49,203.94 343.96,203.71 348.43,203.46 352.90,203.21 357.38,202.95 361.85,202.69 366.32,202.42 370.79,202.15 375.26,201.87 379.74,201.60 384.21,201.32 388.68,201.05 393.15,200.77 397.62,200.50 402.10,200.23 406.57,199.96 411.04,199.69 415.51,199.43 419.98,199.18 424.46,198.93 428.93,198.68 433.40,198.44 437.87,198.20 442.34,197.98 446.82,197.75 451.29,197.53 455.76,197.32 460.23,197.12 464.70,196.92 469.18,196.72 473.65,196.52 478.12,196.32 482.59,196.12 487.06,195.92 491.54,195.73 496.01,195.55 500.48,195.37 504.95,195.19 509.42,195.02 513.90,194.85 518.37,194.69 522.84,194.53 527.31,194.38 531.78,194.23 536.26,194.08 540.73,193.94 545.20,193.80 549.67,193.66 554.14,193.53 558.62,193.40 563.09,193.28 567.56,193.15 572.03,193.03 576.50,192.91 580.98,192.80 585.45,192.68 589.92,192.57 594.39,192.47 598.86,192.36 603.34,192.26 607.81,192.15 612.28,192.05 616.75,191.96 621.22,191.86 625.70,191.77 630.17,191.68 634.64,191.59 639.11,191.50 643.58,191.42 648.06,191.33 652.53,191.25 657.00,191.17 661.47,191.09 665.94,191.01 670.42,190.94 674.89,190.86 679.36,190.79 683.83,190.72 688.30,190.65 692.78,190.59 697.25,190.52 701.72,190.46 706.19,190.39 710.66,190.33 715.14,190.27 719.61,190.21 724.08,190.16 728.55,190.10 733.02,190.05 737.50,189.99 741.97,189.94 746.44,189.89 750.91,189.84 755.38,189.79 759.86,189.74 764.33,189.70 768.80,189.65 773.27,189.61 777.74,189.56 782.22,189.52 786.69,189.48 791.16,189.44 795.63,189.40 800.10,189.36 804.58,189.33 809.05,189.29 813.52,189.25 817.99,189.22 822.46,189.18 826.94,189.15 831.41,189.12 835.88,189.09 840.35,189.06 844.82,189.03 849.30,189.00 853.77,188.97 858.24,188.94 862.71,188.91 867.18,188.88 871.66,188.86 876.13,188.83 880.60,188.81 885.07,188.78 889.54,188.76 894.02,188.74 898.49,188.71 902.96,188.69 907.43,188.67 911.90,188.65 916.38,188.63 920.85,188.61 925.32,188.59 929.79,188.57 934.26,188.55 938.74,188.53 943.21,188.51 947.68,188.49 952.15,188.48 956.62,188.46 961.10,188.44 965.57,188.43 970.04,188.41 974.51,188.40 978.98,188.38 983.46,188.37 987.93,188.35 992.40,188.34 996.87,188.33 1001.34,188.31 1005.82,188.30 1010.29,188.29 1014.76,188.27 1019.23,188.26 1023.70,188.25 1028.18,188.24 1032.65,188.23 1037.12,188.22 1041.59,188.21 1046.06,188.20 1050.54,188.19 1055.01,188.18 1059.48,188.17 1063.95,188.16 1068.42,188.15 1072.90,188.14 1077.37,188.13 1081.84,188.12 1086.31,188.11 1090.78,188.11 1095.26,188.11 1099.73,188.13 1104.20,188.18 1108.67,188.22 1113.14,188.27 1117.62,188.98 1122.09,188.78 1126.56,188.21 1131.03,187.19 1135.50,185.74 1139.98,183.99 1144.45,182.11 1148.92,180.23 1153.39,178.47 1157.86,176.92 1162.34,175.63 1166.81,174.60 1171.28,173.80 1175.75,174.68 1180.22,177.17 1184.70,181.18 1189.17,186.33 1193.64,192.19 1198.11,198.36 1202.58,204.56 1207.06,210.62 1211.53,216.44 1216.00,222.00" fill="none" stroke="#c96b17" stroke-width="1.8" stroke-linejoin="round" stroke-linecap="round" stroke-dasharray="8 5" />
<polyline points="98.00,230.26 102.47,230.14 106.94,229.79 111.42,229.22 115.89,228.44 120.36,227.46 124.83,226.31 129.30,225.01 133.78,223.59 138.25,222.07 142.72,220.50 147.19,218.88 151.66,217.26 156.14,215.66 160.61,214.08 165.08,212.57 169.55,211.12 174.02,209.76 178.50,208.48 182.97,207.31 187.44,206.23 191.91,205.25 196.38,204.38 200.86,203.61 205.33,202.94 209.80,202.35 214.27,201.85 218.74,201.43 223.22,201.09 227.69,200.81 232.16,200.59 236.63,200.42 241.10,200.30 245.58,200.21 250.05,200.16 254.52,200.14 258.99,200.13 263.46,200.14 267.94,200.16 272.41,200.18 276.88,200.20 281.35,200.23 285.82,200.24 290.30,200.25 294.77,200.25 299.24,200.24 303.71,200.22 308.18,200.18 312.66,200.12 317.13,200.05 321.60,199.96 326.07,199.86 330.54,199.74 335.02,199.60 339.49,199.46 343.96,199.29 348.43,199.12 352.90,198.93 357.38,198.73 361.85,198.53 366.32,198.31 370.79,198.09 375.26,197.86 379.74,197.63 384.21,197.39 388.68,197.15 393.15,196.91 397.62,196.67 402.10,196.43 406.57,196.20 411.04,195.96 415.51,195.73 419.98,195.50 424.46,195.28 428.93,195.06 433.40,194.84 437.87,194.64 442.34,194.43 446.82,194.24 451.29,194.05 455.76,193.86 460.23,193.69 464.70,193.51 469.18,193.35 473.65,193.19 478.12,193.04 482.59,192.89 487.06,192.75 491.54,192.61 496.01,192.48 500.48,192.36 504.95,192.24 509.42,192.12 513.90,192.01 518.37,191.90 522.84,191.80 527.31,191.70 531.78,191.60 536.26,191.51 540.73,191.42 545.20,191.34 549.67,191.25 554.14,191.17 558.62,191.09 563.09,191.02 567.56,190.94 572.03,190.87 576.50,190.80 580.98,190.73 585.45,190.67 589.92,190.60 594.39,190.54 598.86,190.48 603.34,190.42 607.81,190.36 612.28,190.30 616.75,190.25 621.22,190.19 625.70,190.14 630.17,190.09 634.64,190.04 639.11,189.99 643.58,189.94 648.06,189.89 652.53,189.85 657.00,189.80 661.47,189.76 665.94,189.72 670.42,189.68 674.89,189.63 679.36,189.59 683.83,189.56 688.30,189.52 692.78,189.48 697.25,189.45 701.72,189.41 706.19,189.38 710.66,189.34 715.14,189.31 719.61,189.28 724.08,189.25 728.55,189.22 733.02,189.19 737.50,189.16 741.97,189.14 746.44,189.11 750.91,189.09 755.38,189.06 759.86,189.04 764.33,189.01 768.80,188.99 773.27,188.97 777.74,188.95 782.22,188.92 786.69,188.90 791.16,188.88 795.63,188.86 800.10,188.85 804.58,188.83 809.05,188.81 813.52,188.79 817.99,188.78 822.46,188.76 826.94,188.74 831.41,188.73 835.88,188.71 840.35,188.70 844.82,188.68 849.30,188.67 853.77,188.66 858.24,188.64 862.71,188.63 867.18,188.62 871.66,188.60 876.13,188.59 880.60,188.58 885.07,188.57 889.54,188.56 894.02,188.55 898.49,188.54 902.96,188.53 907.43,188.52 911.90,188.51 916.38,188.50 920.85,188.49 925.32,188.48 929.79,188.47 934.26,188.46 938.74,188.45 943.21,188.44 947.68,188.44 952.15,188.43 956.62,188.42 961.10,188.41 965.57,188.41 970.04,188.40 974.51,188.39 978.98,188.38 983.46,188.38 987.93,188.37 992.40,188.37 996.87,188.36 1001.34,188.35 1005.82,188.35 1010.29,188.34 1014.76,188.34 1019.23,188.33 1023.70,188.33 1028.18,188.32 1032.65,188.32 1037.12,188.31 1041.59,188.31 1046.06,188.30 1050.54,188.30 1055.01,188.29 1059.48,188.29 1063.95,188.28 1068.42,188.28 1072.90,188.28 1077.37,188.27 1081.84,188.27 1086.31,188.26 1090.78,188.26 1095.26,188.27 1099.73,188.27 1104.20,188.28 1108.67,188.29 1113.14,188.30 1117.62,188.31 1122.09,188.33 1126.56,188.35 1131.03,188.39 1135.50,188.35 1139.98,187.82 1144.45,186.58 1148.92,184.93 1153.39,183.07 1157.86,181.17 1162.34,179.37 1166.81,177.74 1171.28,176.33 1175.75,175.17 1180.22,174.28 1184.70,173.64 1189.17,173.26 1193.64,173.11 1198.11,173.17 1202.58,173.42 1207.06,173.84 1211.53,174.40 1216.00,175.09" fill="none" stroke="#2a7f62" stroke-width="2.2" stroke-linejoin="round" stroke-linecap="round" />
<polyline points="98.00,229.88 102.47,229.88 106.94,229.58 111.42,229.48 115.89,229.24 120.36,229.49 124.83,229.09 129.30,228.29 133.78,227.33 138.25,226.22 142.72,225.01 147.19,223.71 151.66,222.37 156.14,221.00 160.61,219.64 165.08,218.31 169.55,217.02 174.02,215.79 178.50,214.64 182.97,213.56 187.44,212.57 191.91,211.66 196.38,210.84 200.86,210.10 205.33,209.45 209.80,208.88 214.27,208.37 218.74,207.94 223.22,207.56 227.69,207.24 232.16,206.97 236.63,206.74 241.10,206.54 245.58,206.37 250.05,206.23 254.52,206.11 258.99,206.00 263.46,205.91 267.94,205.82 272.41,205.73 276.88,205.65 281.35,205.56 285.82,205.47 290.30,205.38 294.77,205.27 299.24,205.16 303.71,205.04 308.18,204.90 312.66,204.76 317.13,204.60 321.60,204.43 326.07,204.26 330.54,204.07 335.02,203.87 339.49,203.66 343.96,203.44 348.43,203.21 352.90,202.98 357.38,202.73 361.85,202.48 366.32,202.23 370.79,201.97 375.26,201.71 379.74,201.45 384.21,201.18 388.68,200.92 393.15,200.65 397.62,200.39 402.10,200.13 406.57,199.87 411.04,199.61 415.51,199.35 419.98,199.10 424.46,198.86 428.93,198.62 433.40,198.38 437.87,198.15 442.34,197.92 446.82,197.70 451.29,197.48 455.76,197.27 460.23,197.07 464.70,196.87 469.18,196.67 473.65,196.47 478.12,196.26 482.59,196.06 487.06,195.87 491.54,195.68 496.01,195.49 500.48,195.32 504.95,195.14 509.42,194.97 513.90,194.80 518.37,194.64 522.84,194.49 527.31,194.33 531.78,194.18 536.26,194.04 540.73,193.90 545.20,193.76 549.67,193.62 554.14,193.49 558.62,193.36 563.09,193.24 567.56,193.11 572.03,192.99 576.50,192.88 580.98,192.76 585.45,192.65 589.92,192.54 594.39,192.43 598.86,192.33 603.34,192.22 607.81,192.12 612.28,192.02 616.75,191.93 621.22,191.83 625.70,191.74 630.17,191.65 634.64,191.56 639.11,191.48 643.58,191.39 648.06,191.31 652.53,191.23 657.00,191.15 661.47,191.07 665.94,190.99 670.42,190.92 674.89,190.85 679.36,190.78 683.83,190.71 688.30,190.64 692.78,190.57 697.25,190.51 701.72,190.44 706.19,190.38 710.66,190.32 715.14,190.26 719.61,190.20 724.08,190.14 728.55,190.09 733.02,190.03 737.50,189.98 741.97,189.93 746.44,189.88 750.91,189.83 755.38,189.78 759.86,189.73 764.33,189.69 768.80,189.64 773.27,189.60 777.74,189.56 782.22,189.51 786.69,189.47 791.16,189.43 795.63,189.39 800.10,189.36 804.58,189.32 809.05,189.28 813.52,189.25 817.99,189.21 822.46,189.18 826.94,189.15 831.41,189.11 835.88,189.08 840.35,189.05 844.82,189.02 849.30,188.99 853.77,188.96 858.24,188.93 862.71,188.91 867.18,188.88 871.66,188.85 876.13,188.83 880.60,188.80 885.07,188.78 889.54,188.76 894.02,188.73 898.49,188.71 902.96,188.69 907.43,188.67 911.90,188.65 916.38,188.62 920.85,188.60 925.32,188.58 929.79,188.57 934.26,188.55 938.74,188.53 943.21,188.51 947.68,188.49 952.15,188.48 956.62,188.46 961.10,188.44 965.57,188.43 970.04,188.41 974.51,188.40 978.98,188.38 983.46,188.37 987.93,188.35 992.40,188.34 996.87,188.32 1001.34,188.31 1005.82,188.30 1010.29,188.29 1014.76,188.27 1019.23,188.26 1023.70,188.25 1028.18,188.24 1032.65,188.23 1037.12,188.22 1041.59,188.21 1046.06,188.20 1050.54,188.18 1055.01,188.17 1059.48,188.17 1063.95,188.16 1068.42,188.15 1072.90,188.14 1077.37,188.13 1081.84,188.12 1086.31,188.11 1090.78,188.11 1095.26,188.11 1099.73,188.11 1104.20,188.11 1108.67,188.11 1113.14,188.11 1117.62,188.11 1122.09,188.11 1126.56,188.11 1131.03,188.18 1135.50,188.29 1139.98,188.15 1144.45,188.83 1148.92,188.44 1153.39,187.63 1157.86,186.42 1162.34,184.91 1166.81,183.25 1171.28,181.60 1175.75,180.06 1180.22,178.74 1184.70,177.68 1189.17,176.90 1193.64,176.39 1198.11,176.14 1202.58,176.12 1207.06,176.29 1211.53,176.64 1216.00,177.11" fill="none" stroke="#2a7f62" stroke-width="1.8" stroke-linejoin="round" stroke-linecap="round" stroke-dasharray="8 5" />
<polyline points="98.00,230.26 102.47,230.18 106.94,229.93 111.42,229.50 115.89,228.87 120.36,228.06 124.83,227.08 129.30,225.94 133.78,224.66 138.25,223.26 142.72,221.78 147.19,220.24 151.66,218.66 156.14,217.06 160.61,215.48 165.08,213.93 169.55,212.43 174.02,210.99 178.50,209.63 182.97,208.35 187.44,207.16 191.91,206.08 196.38,205.09 200.86,204.19 205.33,203.40 209.80,202.70 214.27,202.09 218.74,201.56 223.22,201.11 227.69,200.74 232.16,200.43 236.63,200.18 241.10,199.99 245.58,199.84 250.05,199.73 254.52,199.66 258.99,199.61 263.46,199.58 267.94,199.58 272.41,199.58 276.88,199.59 281.35,199.61 285.82,199.62 290.30,199.63 294.77,199.64 299.24,199.64 303.71,199.62 308.18,199.60 312.66,199.56 317.13,199.51 321.60,199.45 326.07,199.37 330.54,199.28 335.02,199.17 339.49,199.05 343.96,198.91 348.43,198.76 352.90,198.60 357.38,198.43 361.85,198.24 366.32,198.05 370.79,197.85 375.26,197.64 379.74,197.43 384.21,197.21 388.68,196.99 393.15,196.77 397.62,196.54 402.10,196.32 406.57,196.09 411.04,195.87 415.51,195.64 419.98,195.43 424.46,195.21 428.93,195.00 433.40,194.79 437.87,194.59 442.34,194.39 446.82,194.19 451.29,194.01 455.76,193.83 460.23,193.65 464.70,193.48 469.18,193.32 473.65,193.16 478.12,193.01 482.59,192.86 487.06,192.72 491.54,192.58 496.01,192.45 500.48,192.33 504.95,192.21 509.42,192.09 513.90,191.98 518.37,191.87 522.84,191.77 527.31,191.67 531.78,191.57 536.26,191.48 540.73,191.39 545.20,191.31 549.67,191.22 554.14,191.14 558.62,191.07 563.09,190.99 567.56,190.92 572.03,190.85 576.50,190.78 580.98,190.71 585.45,190.65 589.92,190.58 594.39,190.52 598.86,190.46 603.34,190.40 607.81,190.34 612.28,190.29 616.75,190.23 621.22,190.18 625.70,190.13 630.17,190.08 634.64,190.03 639.11,189.98 643.58,189.93 648.06,189.88 652.53,189.84 657.00,189.79 661.47,189.75 665.94,189.71 670.42,189.67 674.89,189.63 679.36,189.59 683.83,189.55 688.30,189.51 692.78,189.48 697.25,189.44 701.72,189.41 706.19,189.37 710.66,189.34 715.14,189.31 719.61,189.28 724.08,189.25 728.55,189.22 733.02,189.19 737.50,189.16 741.97,189.14 746.44,189.11 750.91,189.08 755.38,189.06 759.86,189.03 764.33,189.01 768.80,188.99 773.27,188.97 777.74,188.94 782.22,188.92 786.69,188.90 791.16,188.88 795.63,188.86 800.10,188.85 804.58,188.83 809.05,188.81 813.52,188.79 817.99,188.78 822.46,188.76 826.94,188.74 831.41,188.73 835.88,188.71 840.35,188.70 844.82,188.68 849.30,188.67 853.77,188.66 858.24,188.64 862.71,188.63 867.18,188.62 871.66,188.60 876.13,188.59 880.60,188.58 885.07,188.57 889.54,188.56 894.02,188.55 898.49,188.54 902.96,188.53 907.43,188.52 911.90,188.51 916.38,188.50 920.85,188.49 925.32,188.48 929.79,188.47 934.26,188.46 938.74,188.45 943.21,188.44 947.68,188.44 952.15,188.43 956.62,188.42 961.10,188.41 965.57,188.41 970.04,188.40 974.51,188.39 978.98,188.39 983.46,188.38 987.93,188.37 992.40,188.37 996.87,188.36 1001.34,188.35 1005.82,188.35 1010.29,188.34 1014.76,188.34 1019.23,188.33 1023.70,188.33 1028.18,188.32 1032.65,188.32 1037.12,188.31 1041.59,188.31 1046.06,188.30 1050.54,188.30 1055.01,188.29 1059.48,188.29 1063.95,188.28 1068.42,188.28 1072.90,188.28 1077.37,188.27 1081.84,188.27 1086.31,188.27 1090.78,188.26 1095.26,188.26 1099.73,188.25 1104.20,188.25 1108.67,188.25 1113.14,188.25 1117.62,188.24 1122.09,188.24 1126.56,188.24 1131.03,188.23 1135.50,188.23 1139.98,188.23 1144.45,188.23 1148.92,188.22 1153.39,188.22 1157.86,188.22 1162.34,188.22 1166.81,188.22 1171.28,188.21 1175.75,188.21 1180.22,188.21 1184.70,188.21 1189.17,188.21 1193.64,188.21 1198.11,188.20 1202.58,188.20 1207.06,188.20 1211.53,188.20 1216.00,188.20" fill="none" stroke="#2458d3" stroke-width="2.2" stroke-linejoin="round" stroke-linecap="round" />
<polyline points="98.00,229.88 102.47,229.88 106.94,229.59 111.42,229.52 115.89,229.34 120.36,229.03 124.83,229.23 129.30,228.77 133.78,227.95 138.25,226.99 142.72,225.91 147.19,224.72 151.66,223.46 156.14,222.15 160.61,220.82 165.08,219.49 169.55,218.19 174.02,216.92 178.50,215.70 182.97,214.55 187.44,213.47 191.91,212.48 196.38,211.56 200.86,210.72 205.33,209.97 209.80,209.30 214.27,208.70 218.74,208.17 223.22,207.71 227.69,207.31 232.16,206.96 236.63,206.66 241.10,206.41 245.58,206.19 250.05,206.00 254.52,205.84 258.99,205.70 263.46,205.57 267.94,205.46 272.41,205.36 276.88,205.26 281.35,205.16 285.82,205.07 290.30,204.97 294.77,204.87 299.24,204.76 303.71,204.64 308.18,204.52 312.66,204.38 317.13,204.24 321.60,204.09 326.07,203.92 330.54,203.75 335.02,203.57 339.49,203.37 343.96,203.17 348.43,202.96 352.90,202.74 357.38,202.51 361.85,202.28 366.32,202.04 370.79,201.80 375.26,201.55 379.74,201.30 384.21,201.05 388.68,200.79 393.15,200.54 397.62,200.28 402.10,200.03 406.57,199.77 411.04,199.52 415.51,199.27 419.98,199.03 424.46,198.79 428.93,198.55 433.40,198.32 437.87,198.09 442.34,197.86 446.82,197.64 451.29,197.43 455.76,197.22 460.23,197.01 464.70,196.82 469.18,196.62 473.65,196.41 478.12,196.20 482.59,196.01 487.06,195.81 491.54,195.62 496.01,195.44 500.48,195.26 504.95,195.09 509.42,194.92 513.90,194.75 518.37,194.59 522.84,194.44 527.31,194.28 531.78,194.13 536.26,193.99 540.73,193.85 545.20,193.71 549.67,193.58 554.14,193.45 558.62,193.32 563.09,193.19 567.56,193.07 572.03,192.95 576.50,192.84 580.98,192.72 585.45,192.61 589.92,192.50 594.39,192.40 598.86,192.29 603.34,192.19 607.81,192.09 612.28,191.99 616.75,191.90 621.22,191.80 625.70,191.71 630.17,191.62 634.64,191.54 639.11,191.45 643.58,191.37 648.06,191.28 652.53,191.20 657.00,191.13 661.47,191.05 665.94,190.97 670.42,190.90 674.89,190.83 679.36,190.76 683.83,190.69 688.30,190.62 692.78,190.55 697.25,190.49 701.72,190.43 706.19,190.37 710.66,190.30 715.14,190.25 719.61,190.19 724.08,190.13 728.55,190.08 733.02,190.02 737.50,189.97 741.97,189.92 746.44,189.87 750.91,189.82 755.38,189.77 759.86,189.72 764.33,189.68 768.80,189.63 773.27,189.59 777.74,189.55 782.22,189.51 786.69,189.47 791.16,189.43 795.63,189.39 800.10,189.35 804.58,189.31 809.05,189.28 813.52,189.24 817.99,189.21 822.46,189.17 826.94,189.14 831.41,189.11 835.88,189.08 840.35,189.05 844.82,189.02 849.30,188.99 853.77,188.96 858.24,188.93 862.71,188.90 867.18,188.88 871.66,188.85 876.13,188.83 880.60,188.80 885.07,188.78 889.54,188.75 894.02,188.73 898.49,188.71 902.96,188.68 907.43,188.66 911.90,188.64 916.38,188.62 920.85,188.60 925.32,188.58 929.79,188.56 934.26,188.54 938.74,188.53 943.21,188.51 947.68,188.49 952.15,188.47 956.62,188.46 961.10,188.44 965.57,188.42 970.04,188.41 974.51,188.39 978.98,188.38 983.46,188.36 987.93,188.35 992.40,188.34 996.87,188.32 1001.34,188.31 1005.82,188.30 1010.29,188.28 1014.76,188.27 1019.23,188.26 1023.70,188.25 1028.18,188.24 1032.65,188.23 1037.12,188.22 1041.59,188.20 1046.06,188.19 1050.54,188.18 1055.01,188.17 1059.48,188.16 1063.95,188.16 1068.42,188.15 1072.90,188.14 1077.37,188.13 1081.84,188.12 1086.31,188.11 1090.78,188.11 1095.26,188.11 1099.73,188.11 1104.20,188.11 1108.67,188.11 1113.14,188.11 1117.62,188.11 1122.09,188.11 1126.56,188.11 1131.03,188.11 1135.50,188.11 1139.98,188.11 1144.45,188.11 1148.92,188.11 1153.39,188.11 1157.86,188.11 1162.34,188.11 1166.81,188.11 1171.28,188.11 1175.75,188.11 1180.22,188.11 1184.70,188.11 1189.17,188.11 1193.64,188.11 1198.11,188.11 1202.58,188.11 1207.06,188.11 1211.53,188.11 1216.00,188.11" fill="none" stroke="#2458d3" stroke-width="1.8" stroke-linejoin="round" stroke-linecap="round" stroke-dasharray="8 5" />
<rect x="40.0" y="370.0" width="1200.0" height="250.0" fill="#fbfbfd" stroke="#d7dbe5" stroke-width="1.0" rx="8.0" />
<text x="56.0" y="394.0" fill="#1f2430" font-size="16" font-family="Segoe UI, Arial, sans-serif" font-weight="600" text-anchor="start">Output y[1]</text>
<text x="56.0" y="412.0" fill="#5d6574" font-size="12" font-family="Segoe UI, Arial, sans-serif" font-weight="400" text-anchor="start">Transient window 0-250 steps</text>
<line x1="98.0" y1="588.0" x2="1216.0" y2="588.0" stroke="#d7dbe5" stroke-width="1.0" stroke-dasharray="4 4" />
<text x="90.0" y="592.0" fill="#5d6574" font-size="11" font-family="Segoe UI, Arial, sans-serif" font-weight="400" text-anchor="end">316.503</text>
<line x1="98.0" y1="508.0" x2="1216.0" y2="508.0" stroke="#d7dbe5" stroke-width="1.0" stroke-dasharray="4 4" />
<text x="90.0" y="512.0" fill="#5d6574" font-size="11" font-family="Segoe UI, Arial, sans-serif" font-weight="400" text-anchor="end">325.402</text>
<line x1="98.0" y1="428.0" x2="1216.0" y2="428.0" stroke="#d7dbe5" stroke-width="1.0" stroke-dasharray="4 4" />
<text x="90.0" y="432.0" fill="#5d6574" font-size="11" font-family="Segoe UI, Arial, sans-serif" font-weight="400" text-anchor="end">334.3</text>
<line x1="98.0" y1="428.0" x2="98.0" y2="588.0" stroke="#d7dbe5" stroke-width="1.0" stroke-dasharray="4 4" />
<text x="98.0" y="606.0" fill="#5d6574" font-size="11" font-family="Segoe UI, Arial, sans-serif" font-weight="400" text-anchor="middle">0</text>
<line x1="657.0" y1="428.0" x2="657.0" y2="588.0" stroke="#d7dbe5" stroke-width="1.0" stroke-dasharray="4 4" />
<text x="657.0" y="606.0" fill="#5d6574" font-size="11" font-family="Segoe UI, Arial, sans-serif" font-weight="400" text-anchor="middle">125</text>
<line x1="1216.0" y1="428.0" x2="1216.0" y2="588.0" stroke="#d7dbe5" stroke-width="1.0" stroke-dasharray="4 4" />
<text x="1216.0" y="606.0" fill="#5d6574" font-size="11" font-family="Segoe UI, Arial, sans-serif" font-weight="400" text-anchor="middle">250</text>
<line x1="98.0" y1="428.0" x2="98.0" y2="588.0" stroke="#2d3440" stroke-width="1.2" />
<line x1="98.0" y1="588.0" x2="1216.0" y2="588.0" stroke="#2d3440" stroke-width="1.2" />
<text x="56.0" y="442.0" fill="#5d6574" font-size="12" font-family="Segoe UI, Arial, sans-serif" font-weight="400" text-anchor="start">physical</text>
<polyline points="98.00,520.60 102.47,520.60 106.94,520.60 111.42,520.60 115.89,520.60 120.36,520.60 124.83,520.60 129.30,520.60 133.78,520.60 138.25,520.60 142.72,520.60 147.19,520.60 151.66,520.60 156.14,520.60 160.61,520.60 165.08,520.60 169.55,520.60 174.02,520.60 178.50,520.60 182.97,520.60 187.44,520.60 191.91,520.60 196.38,520.60 200.86,520.60 205.33,520.60 209.80,520.60 214.27,520.60 218.74,520.60 223.22,520.60 227.69,520.60 232.16,520.60 236.63,520.60 241.10,520.60 245.58,520.60 250.05,520.60 254.52,520.60 258.99,520.60 263.46,520.60 267.94,520.60 272.41,520.60 276.88,520.60 281.35,520.60 285.82,520.60 290.30,520.60 294.77,520.60 299.24,520.60 303.71,520.60 308.18,520.60 312.66,520.60 317.13,520.60 321.60,520.60 326.07,520.60 330.54,520.60 335.02,520.60 339.49,520.60 343.96,520.60 348.43,520.60 352.90,520.60 357.38,520.60 361.85,520.60 366.32,520.60 370.79,520.60 375.26,520.60 379.74,520.60 384.21,520.60 388.68,520.60 393.15,520.60 397.62,520.60 402.10,520.60 406.57,520.60 411.04,520.60 415.51,520.60 419.98,520.60 424.46,520.60 428.93,520.60 433.40,520.60 437.87,520.60 442.34,520.60 446.82,520.60 451.29,520.60 455.76,520.60 460.23,520.60 464.70,520.60 469.18,520.60 473.65,520.60 478.12,520.60 482.59,520.60 487.06,520.60 491.54,520.60 496.01,520.60 500.48,520.60 504.95,520.60 509.42,520.60 513.90,520.60 518.37,520.60 522.84,520.60 527.31,520.60 531.78,520.60 536.26,520.60 540.73,520.60 545.20,520.60 549.67,520.60 554.14,520.60 558.62,520.60 563.09,520.60 567.56,520.60 572.03,520.60 576.50,520.60 580.98,520.60 585.45,520.60 589.92,520.60 594.39,520.60 598.86,520.60 603.34,520.60 607.81,520.60 612.28,520.60 616.75,520.60 621.22,520.60 625.70,520.60 630.17,520.60 634.64,520.60 639.11,520.60 643.58,520.60 648.06,520.60 652.53,520.60 657.00,520.60 661.47,520.60 665.94,520.60 670.42,520.60 674.89,520.60 679.36,520.60 683.83,520.60 688.30,520.60 692.78,520.60 697.25,520.60 701.72,520.60 706.19,520.60 710.66,520.60 715.14,520.60 719.61,520.60 724.08,520.60 728.55,520.60 733.02,520.60 737.50,520.60 741.97,520.60 746.44,520.60 750.91,520.60 755.38,520.60 759.86,520.60 764.33,520.60 768.80,520.60 773.27,520.60 777.74,520.60 782.22,520.60 786.69,520.60 791.16,520.60 795.63,520.60 800.10,520.60 804.58,520.60 809.05,520.60 813.52,520.60 817.99,520.60 822.46,520.60 826.94,520.60 831.41,520.60 835.88,520.60 840.35,520.60 844.82,520.60 849.30,520.60 853.77,520.60 858.24,520.60 862.71,520.60 867.18,520.60 871.66,520.60 876.13,520.60 880.60,520.60 885.07,520.60 889.54,520.60 894.02,520.60 898.49,520.60 902.96,520.60 907.43,520.60 911.90,520.60 916.38,520.60 920.85,520.60 925.32,520.60 929.79,520.60 934.26,520.60 938.74,520.60 943.21,520.60 947.68,520.60 952.15,520.60 956.62,520.60 961.10,520.60 965.57,520.60 970.04,520.60 974.51,520.60 978.98,520.60 983.46,520.60 987.93,520.60 992.40,520.60 996.87,520.60 1001.34,520.60 1005.82,520.60 1010.29,520.60 1014.76,520.60 1019.23,520.60 1023.70,520.60 1028.18,520.60 1032.65,520.60 1037.12,520.60 1041.59,520.60 1046.06,520.60 1050.54,520.60 1055.01,520.60 1059.48,520.60 1063.95,520.60 1068.42,520.60 1072.90,520.60 1077.37,520.60 1081.84,520.60 1086.31,520.60 1090.78,520.60 1095.26,520.60 1099.73,520.60 1104.20,520.60 1108.67,520.60 1113.14,520.60 1117.62,520.60 1122.09,520.60 1126.56,520.60 1131.03,520.60 1135.50,520.60 1139.98,520.60 1144.45,520.60 1148.92,520.60 1153.39,520.60 1157.86,520.60 1162.34,520.60 1166.81,520.60 1171.28,520.60 1175.75,520.60 1180.22,520.60 1184.70,520.60 1189.17,520.60 1193.64,520.60 1198.11,520.60 1202.58,520.60 1207.06,520.60 1211.53,520.60 1216.00,520.60" fill="none" stroke="#2d3440" stroke-width="1.6" stroke-linejoin="round" stroke-linecap="round" stroke-dasharray="4 4" />
<polyline points="98.00,524.16 102.47,523.23 106.94,522.18 111.42,521.04 115.89,519.84 120.36,518.62 124.83,517.40 129.30,516.20 133.78,515.03 138.25,513.91 142.72,512.85 147.19,511.84 151.66,510.91 156.14,510.06 160.61,509.28 165.08,508.58 169.55,507.96 174.02,507.41 178.50,506.95 182.97,506.55 187.44,506.24 191.91,505.98 196.38,505.80 200.86,505.68 205.33,505.61 209.80,505.60 214.27,505.64 218.74,505.72 223.22,505.85 227.69,506.01 232.16,506.20 236.63,506.42 241.10,506.67 245.58,506.93 250.05,507.21 254.52,507.50 258.99,507.80 263.46,508.11 267.94,508.41 272.41,508.72 276.88,509.03 281.35,509.33 285.82,509.63 290.30,509.92 294.77,510.20 299.24,510.47 303.71,510.73 308.18,510.99 312.66,511.23 317.13,511.46 321.60,511.68 326.07,511.89 330.54,512.10 335.02,512.29 339.49,512.47 343.96,512.65 348.43,512.81 352.90,512.97 357.38,513.27 361.85,513.76 366.32,514.27 370.79,514.77 375.26,515.26 379.74,515.73 384.21,516.17 388.68,516.58 393.15,516.95 397.62,517.28 402.10,517.57 406.57,517.83 411.04,518.04 415.51,518.22 419.98,518.36 424.46,518.47 428.93,518.55 433.40,518.60 437.87,518.63 442.34,518.64 446.82,518.69 451.29,520.06 455.76,521.74 460.23,523.42 464.70,525.04 469.18,526.56 473.65,527.95 478.12,529.19 482.59,530.25 487.06,531.13 491.54,531.82 496.01,532.33 500.48,532.65 504.95,532.81 509.42,532.79 513.90,533.54 518.37,534.51 522.84,535.49 527.31,536.42 531.78,537.24 536.26,537.91 540.73,538.42 545.20,538.76 549.67,538.92 554.14,538.93 558.62,538.79 563.09,538.52 567.56,538.14 572.03,537.66 576.50,537.11 580.98,536.50 585.45,535.86 589.92,535.19 594.39,534.51 598.86,533.83 603.34,533.16 607.81,532.52 612.28,531.91 616.75,531.32 621.22,530.78 625.70,528.85 630.17,526.75 634.64,524.55 639.11,522.34 643.58,520.16 648.06,518.05 652.53,516.03 657.00,514.12 661.47,512.32 665.94,510.65 670.42,509.11 674.89,507.70 679.36,506.42 683.83,505.27 688.30,504.25 692.78,503.35 697.25,502.58 701.72,501.92 706.19,501.39 710.66,500.96 715.14,500.64 719.61,500.43 724.08,500.31 728.55,500.28 733.02,500.34 737.50,500.48 741.97,500.68 746.44,500.95 750.91,501.28 755.38,501.65 759.86,502.05 764.33,502.49 768.80,502.95 773.27,503.75 777.74,504.93 782.22,506.27 786.69,507.71 791.16,509.19 795.63,510.67 800.10,512.11 804.58,513.46 809.05,514.72 813.52,515.85 817.99,516.85 822.46,517.71 826.94,518.43 831.41,519.00 835.88,519.45 840.35,519.76 844.82,519.96 849.30,520.06 853.77,520.06 858.24,519.98 862.71,519.84 867.18,519.63 871.66,519.39 876.13,519.10 880.60,518.80 885.07,518.48 889.54,518.15 894.02,517.83 898.49,517.51 902.96,517.21 907.43,516.92 911.90,516.65 916.38,516.40 920.85,516.18 925.32,515.98 929.79,515.22 934.26,513.91 938.74,512.18 943.21,510.12 947.68,507.81 952.15,505.33 956.62,502.72 961.10,500.03 965.57,497.29 970.04,494.53 974.51,491.78 978.98,489.06 983.46,486.38 987.93,483.76 992.40,481.22 996.87,478.78 1001.34,476.46 1005.82,474.27 1010.29,472.23 1014.76,470.36 1019.23,468.67 1023.70,467.20 1028.18,465.96 1032.65,464.96 1037.12,464.21 1041.59,463.74 1046.06,463.55 1050.54,463.61 1055.01,463.88 1059.48,464.33 1063.95,464.91 1068.42,465.59 1072.90,466.35 1077.37,467.17 1081.84,468.02 1086.31,468.89 1090.78,470.50 1095.26,473.27 1099.73,476.95 1104.20,481.26 1108.67,485.97 1113.14,490.85 1117.62,495.69 1122.09,500.32 1126.56,504.62 1131.03,508.49 1135.50,511.87 1139.98,514.74 1144.45,517.10 1148.92,518.96 1153.39,520.36 1157.86,521.35 1162.34,521.96 1166.81,522.26 1171.28,522.30 1175.75,522.12 1180.22,521.79 1184.70,521.33 1189.17,520.78 1193.64,520.19 1198.11,519.58 1202.58,518.97 1207.06,518.38 1211.53,517.83 1216.00,517.34" fill="none" stroke="#bf1e2d" stroke-width="2.2" stroke-linejoin="round" stroke-linecap="round" />
<polyline points="98.00,523.00 102.47,523.00 106.94,517.67 111.42,513.50 115.89,508.64 120.36,505.02 124.83,502.34 129.30,500.37 133.78,498.93 138.25,497.93 142.72,497.28 147.19,496.92 151.66,496.81 156.14,496.91 160.61,497.19 165.08,497.62 169.55,498.18 174.02,498.84 178.50,499.59 182.97,500.40 187.44,501.27 191.91,502.17 196.38,503.10 200.86,504.05 205.33,505.00 209.80,505.94 214.27,506.87 218.74,507.79 223.22,508.67 227.69,509.53 232.16,510.35 236.63,511.12 241.10,511.86 245.58,512.54 250.05,513.18 254.52,513.76 258.99,514.30 263.46,514.79 267.94,515.22 272.41,515.61 276.88,515.95 281.35,516.25 285.82,516.51 290.30,516.74 294.77,516.92 299.24,517.08 303.71,517.21 308.18,517.32 312.66,517.40 317.13,517.47 321.60,517.52 326.07,517.56 330.54,517.60 335.02,517.63 339.49,517.65 343.96,517.67 348.43,517.69 352.90,517.72 357.38,517.74 361.85,518.77 366.32,519.27 370.79,520.81 375.26,521.44 379.74,521.46 384.21,521.69 388.68,521.91 393.15,521.93 397.62,521.81 402.10,521.58 406.57,521.53 411.04,521.52 415.51,521.51 419.98,521.49 424.46,521.23 428.93,520.76 433.40,520.30 437.87,519.86 442.34,519.44 446.82,519.40 451.29,519.45 455.76,526.60 460.23,536.45 464.70,543.32 469.18,547.38 473.65,549.40 478.12,550.00 482.59,549.57 487.06,548.39 491.54,546.64 496.01,544.47 500.48,541.99 504.95,539.31 509.42,536.51 513.90,533.68 518.37,536.86 522.84,541.67 527.31,545.44 531.78,547.63 536.26,548.36 540.73,547.91 545.20,546.56 549.67,544.59 554.14,542.21 558.62,539.61 563.09,536.94 567.56,534.31 572.03,531.79 576.50,529.46 580.98,527.36 585.45,525.50 589.92,523.90 594.39,522.56 598.86,521.47 603.34,521.03 607.81,520.88 612.28,520.75 616.75,520.63 621.22,520.64 625.70,520.80 630.17,513.56 634.64,504.30 639.11,497.12 643.58,491.99 648.06,488.51 652.53,486.24 657.00,484.87 661.47,484.16 665.94,483.95 670.42,484.10 674.89,484.54 679.36,485.19 683.83,486.02 688.30,486.99 692.78,488.07 697.25,489.25 701.72,490.51 706.19,491.85 710.66,493.25 715.14,494.70 719.61,496.19 724.08,497.71 728.55,499.25 733.02,500.79 737.50,502.31 741.97,503.81 746.44,505.26 750.91,506.66 755.38,507.99 759.86,509.23 764.33,510.38 768.80,511.43 773.27,512.36 777.74,515.38 782.22,518.76 786.69,521.87 791.16,526.15 795.63,529.60 800.10,532.13 804.58,533.80 809.05,534.68 813.52,534.88 817.99,534.51 822.46,533.66 826.94,532.44 831.41,530.93 835.88,529.23 840.35,527.41 844.82,525.53 849.30,523.65 853.77,522.38 858.24,521.76 862.71,520.14 867.18,518.64 871.66,518.26 876.13,518.12 880.60,517.09 885.07,516.22 889.54,515.49 894.02,514.92 898.49,514.48 902.96,514.17 907.43,513.97 911.90,513.88 916.38,513.88 920.85,513.96 925.32,514.11 929.79,514.32 934.26,510.93 938.74,504.09 943.21,495.77 947.68,487.38 952.15,479.62 956.62,472.73 961.10,466.76 965.57,461.61 970.04,457.19 974.51,453.39 978.98,450.12 983.46,447.32 987.93,444.95 992.40,442.98 996.87,441.40 1001.34,440.20 1005.82,439.41 1010.29,439.03 1014.76,439.11 1019.23,439.65 1023.70,440.69 1028.18,442.24 1032.65,444.33 1037.12,446.95 1041.59,450.10 1046.06,453.75 1050.54,457.87 1055.01,462.26 1059.48,466.55 1063.95,470.50 1068.42,474.02 1072.90,477.07 1077.37,479.69 1081.84,481.91 1086.31,483.77 1090.78,485.33 1095.26,491.15 1099.73,504.29 1104.20,519.01 1108.67,534.25 1113.14,549.24 1117.62,561.23 1122.09,569.79 1126.56,574.94 1131.03,576.97 1135.50,576.30 1139.98,573.45 1144.45,568.94 1148.92,563.30 1153.39,556.97 1157.86,550.34 1162.34,543.74 1166.81,537.41 1171.28,531.52 1175.75,526.21 1180.22,523.21 1184.70,519.21 1189.17,515.88 1193.64,515.21 1198.11,513.13 1202.58,511.60 1207.06,510.56 1211.53,509.96 1216.00,509.73" fill="none" stroke="#bf1e2d" stroke-width="1.8" stroke-linejoin="round" stroke-linecap="round" stroke-dasharray="8 5" />
<polyline points="98.00,524.16 102.47,523.78 106.94,523.30 111.42,522.73 115.89,522.08 120.36,521.38 124.83,520.64 129.30,519.87 133.78,519.08 138.25,518.29 142.72,517.49 147.19,516.71 151.66,515.95 156.14,515.22 160.61,514.52 165.08,513.85 169.55,513.22 174.02,512.64 178.50,512.10 182.97,511.61 187.44,511.17 191.91,510.77 196.38,510.42 200.86,510.12 205.33,509.86 209.80,509.65 214.27,509.48 218.74,509.35 223.22,509.26 227.69,509.20 232.16,509.18 236.63,509.19 241.10,509.23 245.58,509.29 250.05,509.38 254.52,509.49 258.99,509.62 263.46,509.76 267.94,509.91 272.41,510.08 276.88,510.26 281.35,510.45 285.82,510.64 290.30,510.83 294.77,511.03 299.24,511.23 303.71,511.43 308.18,511.63 312.66,511.83 317.13,512.02 321.60,512.21 326.07,512.40 330.54,512.58 335.02,512.76 339.49,512.93 343.96,513.10 348.43,513.26 352.90,513.42 357.38,513.58 361.85,513.72 366.32,513.87 370.79,514.01 375.26,514.14 379.74,514.28 384.21,514.40 388.68,514.53 393.15,514.65 397.62,514.77 402.10,514.88 406.57,514.99 411.04,515.10 415.51,515.21 419.98,515.32 424.46,515.42 428.93,515.52 433.40,515.62 437.87,515.72 442.34,515.82 446.82,515.92 451.29,516.01 455.76,516.11 460.23,516.20 464.70,516.29 469.18,516.38 473.65,516.47 478.12,516.56 482.59,516.65 487.06,516.73 491.54,516.82 496.01,516.90 500.48,516.99 504.95,517.07 509.42,517.15 513.90,517.23 518.37,517.31 522.84,517.38 527.31,517.46 531.78,517.53 536.26,517.61 540.73,517.68 545.20,517.75 549.67,517.82 554.14,517.88 558.62,517.95 563.09,518.01 567.56,518.08 572.03,518.14 576.50,518.20 580.98,518.26 585.45,518.31 589.92,518.37 594.39,518.43 598.86,518.48 603.34,518.53 607.81,518.58 612.28,518.63 616.75,518.68 621.22,518.73 625.70,518.77 630.17,518.82 634.64,518.86 639.11,518.90 643.58,518.95 648.06,518.99 652.53,519.03 657.00,519.06 661.47,519.10 665.94,519.14 670.42,519.17 674.89,519.21 679.36,519.24 683.83,519.27 688.30,519.31 692.78,519.34 697.25,519.37 701.72,519.40 706.19,519.43 710.66,519.46 715.14,519.48 719.61,519.51 724.08,519.54 728.55,519.56 733.02,519.59 737.50,519.61 741.97,519.64 746.44,519.66 750.91,519.68 755.38,519.70 759.86,519.72 764.33,519.75 768.80,519.77 773.27,519.79 777.74,519.81 782.22,519.83 786.69,519.84 791.16,519.86 795.63,519.88 800.10,519.90 804.58,519.91 809.05,519.93 813.52,519.95 817.99,519.96 822.46,519.98 826.94,519.99 831.41,520.01 835.88,520.02 840.35,520.04 844.82,520.05 849.30,520.06 853.77,520.08 858.24,520.09 862.71,520.10 867.18,520.11 871.66,520.13 876.13,520.14 880.60,520.15 885.07,520.16 889.54,520.17 894.02,520.18 898.49,520.19 902.96,520.20 907.43,520.21 911.90,520.22 916.38,520.23 920.85,520.24 925.32,520.25 929.79,520.25 934.26,520.26 938.74,520.27 943.21,520.28 947.68,520.29 952.15,520.29 956.62,520.30 961.10,520.31 965.57,520.32 970.04,520.32 974.51,520.33 978.98,520.34 983.46,520.34 987.93,520.35 992.40,520.35 996.87,520.36 1001.34,520.37 1005.82,520.37 1010.29,520.38 1014.76,520.38 1019.23,520.39 1023.70,520.39 1028.18,520.40 1032.65,520.40 1037.12,520.41 1041.59,520.41 1046.06,520.42 1050.54,520.42 1055.01,520.42 1059.48,520.43 1063.95,520.43 1068.42,520.44 1072.90,520.44 1077.37,520.44 1081.84,520.45 1086.31,520.47 1090.78,520.50 1095.26,520.54 1099.73,520.57 1104.20,520.61 1108.67,520.64 1113.14,520.21 1117.62,519.30 1122.09,518.47 1126.56,517.74 1131.03,517.10 1135.50,516.55 1139.98,516.09 1144.45,515.72 1148.92,515.43 1153.39,515.22 1157.86,515.08 1162.34,515.01 1166.81,518.41 1171.28,521.34 1175.75,523.85 1180.22,525.96 1184.70,527.67 1189.17,529.01 1193.64,529.97 1198.11,530.59 1202.58,530.86 1207.06,530.80 1211.53,530.43 1216.00,529.75" fill="none" stroke="#c96b17" stroke-width="2.2" stroke-linejoin="round" stroke-linecap="round" />
<polyline points="98.00,523.00 102.47,523.00 106.94,521.41 111.42,518.52 115.89,516.87 120.36,515.57 124.83,513.54 129.30,511.77 133.78,510.23 138.25,508.91 142.72,507.80 147.19,506.87 151.66,506.12 156.14,505.54 160.61,505.12 165.08,504.84 169.55,504.69 174.02,504.65 178.50,504.73 182.97,504.89 187.44,505.14 191.91,505.46 196.38,505.83 200.86,506.26 205.33,506.73 209.80,507.24 214.27,507.77 218.74,508.31 223.22,508.87 227.69,509.44 232.16,510.00 236.63,510.56 241.10,511.11 245.58,511.65 250.05,512.17 254.52,512.68 258.99,513.16 263.46,513.62 267.94,514.06 272.41,514.47 276.88,514.86 281.35,515.21 285.82,515.55 290.30,515.85 294.77,516.14 299.24,516.39 303.71,516.63 308.18,516.84 312.66,517.03 317.13,517.20 321.60,517.36 326.07,517.50 330.54,517.62 335.02,517.74 339.49,517.84 343.96,517.93 348.43,518.01 352.90,518.09 357.38,518.16 361.85,518.23 366.32,518.29 370.79,518.35 375.26,518.41 379.74,518.47 384.21,518.52 388.68,518.58 393.15,518.64 397.62,518.70 402.10,518.76 406.57,518.82 411.04,518.88 415.51,518.95 419.98,519.01 424.46,519.08 428.93,519.15 433.40,519.22 437.87,519.29 442.34,519.36 446.82,519.43 451.29,519.51 455.76,519.58 460.23,519.65 464.70,519.72 469.18,519.80 473.65,519.85 478.12,519.86 482.59,519.88 487.06,519.90 491.54,519.92 496.01,519.93 500.48,519.95 504.95,519.97 509.42,519.98 513.90,520.00 518.37,520.01 522.84,520.02 527.31,520.04 531.78,520.05 536.26,520.07 540.73,520.08 545.20,520.09 549.67,520.10 554.14,520.11 558.62,520.13 563.09,520.14 567.56,520.15 572.03,520.16 576.50,520.17 580.98,520.18 585.45,520.19 589.92,520.20 594.39,520.21 598.86,520.22 603.34,520.23 607.81,520.24 612.28,520.25 616.75,520.26 621.22,520.26 625.70,520.27 630.17,520.28 634.64,520.29 639.11,520.30 643.58,520.31 648.06,520.31 652.53,520.32 657.00,520.33 661.47,520.33 665.94,520.34 670.42,520.35 674.89,520.35 679.36,520.36 683.83,520.37 688.30,520.37 692.78,520.38 697.25,520.39 701.72,520.39 706.19,520.40 710.66,520.40 715.14,520.41 719.61,520.41 724.08,520.42 728.55,520.42 733.02,520.43 737.50,520.43 741.97,520.44 746.44,520.44 750.91,520.45 755.38,520.45 759.86,520.46 764.33,520.46 768.80,520.46 773.27,520.47 777.74,520.47 782.22,520.48 786.69,520.48 791.16,520.48 795.63,520.49 800.10,520.49 804.58,520.49 809.05,520.50 813.52,520.50 817.99,520.50 822.46,520.51 826.94,520.51 831.41,520.51 835.88,520.51 840.35,520.52 844.82,520.52 849.30,520.52 853.77,520.53 858.24,520.53 862.71,520.53 867.18,520.53 871.66,520.53 876.13,520.54 880.60,520.54 885.07,520.54 889.54,520.54 894.02,520.55 898.49,520.55 902.96,520.55 907.43,520.55 911.90,520.55 916.38,520.56 920.85,520.56 925.32,520.56 929.79,520.56 934.26,520.56 938.74,520.56 943.21,520.57 947.68,520.57 952.15,520.57 956.62,520.57 961.10,520.57 965.57,520.57 970.04,520.58 974.51,520.58 978.98,520.58 983.46,520.58 987.93,520.58 992.40,520.58 996.87,520.58 1001.34,520.58 1005.82,520.59 1010.29,520.59 1014.76,520.59 1019.23,520.59 1023.70,520.59 1028.18,520.59 1032.65,520.59 1037.12,520.59 1041.59,520.59 1046.06,520.59 1050.54,520.60 1055.01,520.60 1059.48,520.60 1063.95,520.60 1068.42,520.60 1072.90,520.60 1077.37,520.60 1081.84,520.60 1086.31,520.60 1090.78,520.60 1095.26,520.60 1099.73,520.60 1104.20,520.61 1108.67,520.61 1113.14,520.61 1117.62,519.95 1122.09,513.99 1126.56,510.11 1131.03,508.33 1135.50,507.92 1139.98,508.29 1144.45,509.08 1148.92,510.07 1153.39,511.16 1157.86,512.31 1162.34,513.47 1166.81,514.63 1171.28,535.92 1175.75,553.14 1180.22,560.91 1184.70,562.39 1189.17,560.34 1193.64,556.43 1198.11,551.56 1202.58,546.20 1207.06,540.57 1211.53,534.78 1216.00,528.90" fill="none" stroke="#c96b17" stroke-width="1.8" stroke-linejoin="round" stroke-linecap="round" stroke-dasharray="8 5" />
<polyline points="98.00,524.16 102.47,523.87 106.94,523.48 111.42,523.01 115.89,522.46 120.36,521.85 124.83,521.19 129.30,520.49 133.78,519.77 138.25,519.03 142.72,518.28 147.19,517.53 151.66,516.80 156.14,516.08 160.61,515.39 165.08,514.73 169.55,514.10 174.02,513.51 178.50,512.95 182.97,512.44 187.44,511.97 191.91,511.55 196.38,511.17 200.86,510.84 205.33,510.55 209.80,510.30 214.27,510.09 218.74,509.92 223.22,509.80 227.69,509.70 232.16,509.65 236.63,509.62 241.10,509.62 245.58,509.66 250.05,509.71 254.52,509.79 258.99,509.89 263.46,510.01 267.94,510.14 272.41,510.29 276.88,510.45 281.35,510.62 285.82,510.79 290.30,510.97 294.77,511.16 299.24,511.35 303.71,511.54 308.18,511.73 312.66,511.92 317.13,512.11 321.60,512.29 326.07,512.48 330.54,512.66 335.02,512.83 339.49,513.01 343.96,513.17 348.43,513.34 352.90,513.50 357.38,513.65 361.85,513.80 366.32,513.95 370.79,514.09 375.26,514.22 379.74,514.35 384.21,514.48 388.68,514.61 393.15,514.73 397.62,514.85 402.10,514.96 406.57,515.07 411.04,515.18 415.51,515.29 419.98,515.39 424.46,515.50 428.93,515.60 433.40,515.70 437.87,515.79 442.34,515.89 446.82,515.99 451.29,516.08 455.76,516.17 460.23,516.26 464.70,516.35 469.18,516.44 473.65,516.53 478.12,516.61 482.59,516.70 487.06,516.78 491.54,516.87 496.01,516.95 500.48,517.03 504.95,517.11 509.42,517.19 513.90,517.27 518.37,517.34 522.84,517.42 527.31,517.49 531.78,517.56 536.26,517.63 540.73,517.70 545.20,517.77 549.67,517.84 554.14,517.91 558.62,517.97 563.09,518.03 567.56,518.10 572.03,518.16 576.50,518.22 580.98,518.27 585.45,518.33 589.92,518.39 594.39,518.44 598.86,518.49 603.34,518.55 607.81,518.60 612.28,518.64 616.75,518.69 621.22,518.74 625.70,518.78 630.17,518.83 634.64,518.87 639.11,518.91 643.58,518.96 648.06,519.00 652.53,519.03 657.00,519.07 661.47,519.11 665.94,519.15 670.42,519.18 674.89,519.22 679.36,519.25 683.83,519.28 688.30,519.31 692.78,519.34 697.25,519.37 701.72,519.40 706.19,519.43 710.66,519.46 715.14,519.49 719.61,519.52 724.08,519.54 728.55,519.57 733.02,519.59 737.50,519.62 741.97,519.64 746.44,519.66 750.91,519.69 755.38,519.71 759.86,519.73 764.33,519.75 768.80,519.77 773.27,519.79 777.74,519.81 782.22,519.83 786.69,519.85 791.16,519.87 795.63,519.88 800.10,519.90 804.58,519.92 809.05,519.93 813.52,519.95 817.99,519.97 822.46,519.98 826.94,520.00 831.41,520.01 835.88,520.02 840.35,520.04 844.82,520.05 849.30,520.06 853.77,520.08 858.24,520.09 862.71,520.10 867.18,520.11 871.66,520.13 876.13,520.14 880.60,520.15 885.07,520.16 889.54,520.17 894.02,520.18 898.49,520.19 902.96,520.20 907.43,520.21 911.90,520.22 916.38,520.23 920.85,520.24 925.32,520.25 929.79,520.25 934.26,520.26 938.74,520.27 943.21,520.28 947.68,520.29 952.15,520.29 956.62,520.30 961.10,520.31 965.57,520.32 970.04,520.32 974.51,520.33 978.98,520.34 983.46,520.34 987.93,520.35 992.40,520.35 996.87,520.36 1001.34,520.37 1005.82,520.37 1010.29,520.38 1014.76,520.38 1019.23,520.39 1023.70,520.39 1028.18,520.40 1032.65,520.40 1037.12,520.41 1041.59,520.41 1046.06,520.42 1050.54,520.42 1055.01,520.42 1059.48,520.43 1063.95,520.43 1068.42,520.44 1072.90,520.44 1077.37,520.44 1081.84,520.45 1086.31,520.45 1090.78,520.46 1095.26,520.47 1099.73,520.48 1104.20,520.49 1108.67,520.51 1113.14,520.52 1117.62,520.53 1122.09,520.56 1126.56,520.61 1131.03,520.69 1135.50,520.65 1139.98,519.75 1144.45,518.82 1148.92,517.90 1153.39,517.01 1157.86,516.18 1162.34,515.41 1166.81,514.72 1171.28,514.10 1175.75,513.57 1180.22,513.11 1184.70,512.74 1189.17,512.45 1193.64,512.24 1198.11,512.10 1202.58,512.03 1207.06,512.03 1211.53,512.08 1216.00,512.19" fill="none" stroke="#2a7f62" stroke-width="2.2" stroke-linejoin="round" stroke-linecap="round" />
<polyline points="98.00,523.00 102.47,523.00 106.94,522.03 111.42,519.70 115.89,517.43 120.36,516.88 124.83,515.44 129.30,513.70 133.78,512.15 138.25,510.78 142.72,509.58 147.19,508.55 151.66,507.69 156.14,506.98 160.61,506.43 165.08,506.01 169.55,505.73 174.02,505.57 178.50,505.52 182.97,505.57 187.44,505.71 191.91,505.93 196.38,506.21 200.86,506.55 205.33,506.95 209.80,507.38 214.27,507.84 218.74,508.34 223.22,508.85 227.69,509.37 232.16,509.90 236.63,510.43 241.10,510.96 245.58,511.48 250.05,511.99 254.52,512.49 258.99,512.97 263.46,513.43 267.94,513.87 272.41,514.29 276.88,514.68 281.35,515.05 285.82,515.40 290.30,515.72 294.77,516.02 299.24,516.29 303.71,516.54 308.18,516.77 312.66,516.98 317.13,517.17 321.60,517.34 326.07,517.50 330.54,517.64 335.02,517.76 339.49,517.88 343.96,517.98 348.43,518.07 352.90,518.16 357.38,518.24 361.85,518.31 366.32,518.37 370.79,518.44 375.26,518.50 379.74,518.56 384.21,518.62 388.68,518.67 393.15,518.73 397.62,518.79 402.10,518.85 406.57,518.90 411.04,518.96 415.51,519.02 419.98,519.09 424.46,519.15 428.93,519.21 433.40,519.28 437.87,519.34 442.34,519.41 446.82,519.48 451.29,519.55 455.76,519.62 460.23,519.68 464.70,519.75 469.18,519.82 473.65,519.85 478.12,519.87 482.59,519.89 487.06,519.90 491.54,519.92 496.01,519.94 500.48,519.95 504.95,519.97 509.42,519.99 513.90,520.00 518.37,520.01 522.84,520.03 527.31,520.04 531.78,520.06 536.26,520.07 540.73,520.08 545.20,520.09 549.67,520.11 554.14,520.12 558.62,520.13 563.09,520.14 567.56,520.15 572.03,520.16 576.50,520.17 580.98,520.18 585.45,520.19 589.92,520.20 594.39,520.21 598.86,520.22 603.34,520.23 607.81,520.24 612.28,520.25 616.75,520.26 621.22,520.27 625.70,520.28 630.17,520.28 634.64,520.29 639.11,520.30 643.58,520.31 648.06,520.31 652.53,520.32 657.00,520.33 661.47,520.34 665.94,520.34 670.42,520.35 674.89,520.36 679.36,520.36 683.83,520.37 688.30,520.37 692.78,520.38 697.25,520.39 701.72,520.39 706.19,520.40 710.66,520.40 715.14,520.41 719.61,520.41 724.08,520.42 728.55,520.42 733.02,520.43 737.50,520.43 741.97,520.44 746.44,520.44 750.91,520.45 755.38,520.45 759.86,520.46 764.33,520.46 768.80,520.46 773.27,520.47 777.74,520.47 782.22,520.48 786.69,520.48 791.16,520.48 795.63,520.49 800.10,520.49 804.58,520.49 809.05,520.50 813.52,520.50 817.99,520.50 822.46,520.51 826.94,520.51 831.41,520.51 835.88,520.51 840.35,520.52 844.82,520.52 849.30,520.52 853.77,520.53 858.24,520.53 862.71,520.53 867.18,520.53 871.66,520.54 876.13,520.54 880.60,520.54 885.07,520.54 889.54,520.54 894.02,520.55 898.49,520.55 902.96,520.55 907.43,520.55 911.90,520.55 916.38,520.56 920.85,520.56 925.32,520.56 929.79,520.56 934.26,520.56 938.74,520.56 943.21,520.57 947.68,520.57 952.15,520.57 956.62,520.57 961.10,520.57 965.57,520.57 970.04,520.58 974.51,520.58 978.98,520.58 983.46,520.58 987.93,520.58 992.40,520.58 996.87,520.58 1001.34,520.58 1005.82,520.59 1010.29,520.59 1014.76,520.59 1019.23,520.59 1023.70,520.59 1028.18,520.59 1032.65,520.59 1037.12,520.59 1041.59,520.59 1046.06,520.59 1050.54,520.60 1055.01,520.60 1059.48,520.60 1063.95,520.60 1068.42,520.60 1072.90,520.60 1077.37,520.60 1081.84,520.60 1086.31,520.60 1090.78,520.60 1095.26,520.60 1099.73,520.60 1104.20,520.60 1108.67,520.60 1113.14,520.60 1117.62,520.60 1122.09,520.60 1126.56,520.60 1131.03,520.61 1135.50,520.61 1139.98,520.60 1144.45,516.57 1148.92,511.19 1153.39,507.67 1157.86,505.65 1162.34,504.65 1166.81,504.34 1171.28,504.48 1175.75,504.93 1180.22,505.61 1184.70,506.45 1189.17,507.41 1193.64,508.45 1198.11,509.55 1202.58,510.68 1207.06,511.82 1211.53,512.96 1216.00,514.08" fill="none" stroke="#2a7f62" stroke-width="1.8" stroke-linejoin="round" stroke-linecap="round" stroke-dasharray="8 5" />
<polyline points="98.00,524.16 102.47,523.96 106.94,523.67 111.42,523.29 115.89,522.84 120.36,522.32 124.83,521.74 129.30,521.11 133.78,520.45 138.25,519.77 142.72,519.07 147.19,518.36 151.66,517.65 156.14,516.95 160.61,516.27 165.08,515.61 169.55,514.97 174.02,514.37 178.50,513.80 182.97,513.27 187.44,512.78 191.91,512.32 196.38,511.91 200.86,511.54 205.33,511.22 209.80,510.93 214.27,510.69 218.74,510.49 223.22,510.32 227.69,510.19 232.16,510.10 236.63,510.04 241.10,510.01 245.58,510.01 250.05,510.04 254.52,510.09 258.99,510.16 263.46,510.25 267.94,510.36 272.41,510.49 276.88,510.63 281.35,510.78 285.82,510.94 290.30,511.11 294.77,511.28 299.24,511.46 303.71,511.64 308.18,511.82 312.66,512.01 317.13,512.19 321.60,512.38 326.07,512.56 330.54,512.73 335.02,512.91 339.49,513.08 343.96,513.25 348.43,513.41 352.90,513.57 357.38,513.73 361.85,513.88 366.32,514.02 370.79,514.16 375.26,514.30 379.74,514.43 384.21,514.56 388.68,514.69 393.15,514.81 397.62,514.93 402.10,515.04 406.57,515.15 411.04,515.26 415.51,515.37 419.98,515.47 424.46,515.57 428.93,515.67 433.40,515.77 437.87,515.87 442.34,515.96 446.82,516.05 451.29,516.15 455.76,516.24 460.23,516.32 464.70,516.41 469.18,516.50 473.65,516.58 478.12,516.67 482.59,516.75 487.06,516.83 491.54,516.91 496.01,516.99 500.48,517.07 504.95,517.15 509.42,517.23 513.90,517.30 518.37,517.38 522.84,517.45 527.31,517.52 531.78,517.59 536.26,517.66 540.73,517.73 545.20,517.80 549.67,517.87 554.14,517.93 558.62,517.99 563.09,518.06 567.56,518.12 572.03,518.18 576.50,518.24 580.98,518.29 585.45,518.35 589.92,518.40 594.39,518.46 598.86,518.51 603.34,518.56 607.81,518.61 612.28,518.66 616.75,518.71 621.22,518.75 625.70,518.80 630.17,518.84 634.64,518.88 639.11,518.93 643.58,518.97 648.06,519.01 652.53,519.04 657.00,519.08 661.47,519.12 665.94,519.15 670.42,519.19 674.89,519.22 679.36,519.26 683.83,519.29 688.30,519.32 692.78,519.35 697.25,519.38 701.72,519.41 706.19,519.44 710.66,519.47 715.14,519.49 719.61,519.52 724.08,519.55 728.55,519.57 733.02,519.60 737.50,519.62 741.97,519.64 746.44,519.67 750.91,519.69 755.38,519.71 759.86,519.73 764.33,519.75 768.80,519.77 773.27,519.79 777.74,519.81 782.22,519.83 786.69,519.85 791.16,519.87 795.63,519.89 800.10,519.90 804.58,519.92 809.05,519.94 813.52,519.95 817.99,519.97 822.46,519.98 826.94,520.00 831.41,520.01 835.88,520.03 840.35,520.04 844.82,520.05 849.30,520.07 853.77,520.08 858.24,520.09 862.71,520.10 867.18,520.12 871.66,520.13 876.13,520.14 880.60,520.15 885.07,520.16 889.54,520.17 894.02,520.18 898.49,520.19 902.96,520.20 907.43,520.21 911.90,520.22 916.38,520.23 920.85,520.24 925.32,520.25 929.79,520.26 934.26,520.26 938.74,520.27 943.21,520.28 947.68,520.29 952.15,520.29 956.62,520.30 961.10,520.31 965.57,520.32 970.04,520.32 974.51,520.33 978.98,520.34 983.46,520.34 987.93,520.35 992.40,520.35 996.87,520.36 1001.34,520.37 1005.82,520.37 1010.29,520.38 1014.76,520.38 1019.23,520.39 1023.70,520.39 1028.18,520.40 1032.65,520.40 1037.12,520.41 1041.59,520.41 1046.06,520.42 1050.54,520.42 1055.01,520.42 1059.48,520.43 1063.95,520.43 1068.42,520.44 1072.90,520.44 1077.37,520.44 1081.84,520.45 1086.31,520.45 1090.78,520.45 1095.26,520.46 1099.73,520.46 1104.20,520.46 1108.67,520.47 1113.14,520.47 1117.62,520.47 1122.09,520.48 1126.56,520.48 1131.03,520.48 1135.50,520.48 1139.98,520.49 1144.45,520.49 1148.92,520.49 1153.39,520.49 1157.86,520.50 1162.34,520.50 1166.81,520.50 1171.28,520.50 1175.75,520.50 1180.22,520.51 1184.70,520.51 1189.17,520.51 1193.64,520.51 1198.11,520.52 1202.58,520.52 1207.06,520.52 1211.53,520.52 1216.00,520.52" fill="none" stroke="#2458d3" stroke-width="2.2" stroke-linejoin="round" stroke-linecap="round" />
<polyline points="98.00,523.00 102.47,523.00 106.94,522.65 111.42,520.87 115.89,518.99 120.36,517.12 124.83,516.91 129.30,515.65 133.78,514.08 138.25,512.66 142.72,511.37 147.19,510.24 151.66,509.25 156.14,508.42 160.61,507.73 165.08,507.19 169.55,506.77 174.02,506.48 178.50,506.31 182.97,506.24 187.44,506.27 191.91,506.38 196.38,506.57 200.86,506.82 205.33,507.14 209.80,507.50 214.27,507.90 218.74,508.34 223.22,508.81 227.69,509.29 232.16,509.78 236.63,510.29 241.10,510.80 245.58,511.30 250.05,511.80 254.52,512.29 258.99,512.77 263.46,513.23 267.94,513.68 272.41,514.11 276.88,514.51 281.35,514.89 285.82,515.26 290.30,515.59 294.77,515.91 299.24,516.20 303.71,516.47 308.18,516.71 312.66,516.94 317.13,517.15 321.60,517.33 326.07,517.50 330.54,517.66 335.02,517.80 339.49,517.92 343.96,518.03 348.43,518.14 352.90,518.23 357.38,518.31 361.85,518.39 366.32,518.46 370.79,518.53 375.26,518.59 379.74,518.65 384.21,518.71 388.68,518.77 393.15,518.82 397.62,518.88 402.10,518.93 406.57,518.99 411.04,519.04 415.51,519.10 419.98,519.16 424.46,519.22 428.93,519.28 433.40,519.34 437.87,519.40 442.34,519.46 446.82,519.52 451.29,519.59 455.76,519.65 460.23,519.72 464.70,519.78 469.18,519.84 473.65,519.86 478.12,519.87 482.59,519.89 487.06,519.91 491.54,519.93 496.01,519.94 500.48,519.96 504.95,519.97 509.42,519.99 513.90,520.00 518.37,520.02 522.84,520.03 527.31,520.05 531.78,520.06 536.26,520.07 540.73,520.09 545.20,520.10 549.67,520.11 554.14,520.12 558.62,520.13 563.09,520.15 567.56,520.16 572.03,520.17 576.50,520.18 580.98,520.19 585.45,520.20 589.92,520.21 594.39,520.22 598.86,520.23 603.34,520.24 607.81,520.24 612.28,520.25 616.75,520.26 621.22,520.27 625.70,520.28 630.17,520.29 634.64,520.29 639.11,520.30 643.58,520.31 648.06,520.32 652.53,520.32 657.00,520.33 661.47,520.34 665.94,520.34 670.42,520.35 674.89,520.36 679.36,520.36 683.83,520.37 688.30,520.38 692.78,520.38 697.25,520.39 701.72,520.39 706.19,520.40 710.66,520.40 715.14,520.41 719.61,520.42 724.08,520.42 728.55,520.43 733.02,520.43 737.50,520.44 741.97,520.44 746.44,520.44 750.91,520.45 755.38,520.45 759.86,520.46 764.33,520.46 768.80,520.47 773.27,520.47 777.74,520.47 782.22,520.48 786.69,520.48 791.16,520.48 795.63,520.49 800.10,520.49 804.58,520.49 809.05,520.50 813.52,520.50 817.99,520.50 822.46,520.51 826.94,520.51 831.41,520.51 835.88,520.52 840.35,520.52 844.82,520.52 849.30,520.52 853.77,520.53 858.24,520.53 862.71,520.53 867.18,520.53 871.66,520.54 876.13,520.54 880.60,520.54 885.07,520.54 889.54,520.54 894.02,520.55 898.49,520.55 902.96,520.55 907.43,520.55 911.90,520.55 916.38,520.56 920.85,520.56 925.32,520.56 929.79,520.56 934.26,520.56 938.74,520.56 943.21,520.57 947.68,520.57 952.15,520.57 956.62,520.57 961.10,520.57 965.57,520.57 970.04,520.58 974.51,520.58 978.98,520.58 983.46,520.58 987.93,520.58 992.40,520.58 996.87,520.58 1001.34,520.58 1005.82,520.59 1010.29,520.59 1014.76,520.59 1019.23,520.59 1023.70,520.59 1028.18,520.59 1032.65,520.59 1037.12,520.59 1041.59,520.59 1046.06,520.59 1050.54,520.60 1055.01,520.60 1059.48,520.60 1063.95,520.60 1068.42,520.60 1072.90,520.60 1077.37,520.60 1081.84,520.60 1086.31,520.60 1090.78,520.60 1095.26,520.60 1099.73,520.60 1104.20,520.60 1108.67,520.60 1113.14,520.60 1117.62,520.60 1122.09,520.60 1126.56,520.60 1131.03,520.60 1135.50,520.60 1139.98,520.60 1144.45,520.60 1148.92,520.60 1153.39,520.60 1157.86,520.60 1162.34,520.60 1166.81,520.60 1171.28,520.60 1175.75,520.60 1180.22,520.60 1184.70,520.60 1189.17,520.60 1193.64,520.60 1198.11,520.60 1202.58,520.60 1207.06,520.60 1211.53,520.60 1216.00,520.60" fill="none" stroke="#2458d3" stroke-width="1.8" stroke-linejoin="round" stroke-linecap="round" stroke-dasharray="8 5" />
<line x1="54.0" y1="686.0" x2="82.0" y2="686.0" stroke="#2d3440" stroke-width="1.8" stroke-dasharray="4 4" />
<text x="92.0" y="690.0" fill="#1f2430" font-size="12" font-family="Segoe UI, Arial, sans-serif" font-weight="400" text-anchor="start">y_sp</text>
<line x1="156.0" y1="686.0" x2="184.0" y2="686.0" stroke="#2d3440" stroke-width="2.0" />
<text x="194.0" y="690.0" fill="#1f2430" font-size="12" font-family="Segoe UI, Arial, sans-serif" font-weight="400" text-anchor="start">solid = y</text>
<line x1="290.0" y1="686.0" x2="318.0" y2="686.0" stroke="#2d3440" stroke-width="2.0" stroke-dasharray="8 5" />
<text x="328.0" y="690.0" fill="#1f2430" font-size="12" font-family="Segoe UI, Arial, sans-serif" font-weight="400" text-anchor="start">dashed = y_s</text>
<line x1="470.0" y1="686.0" x2="498.0" y2="686.0" stroke="#bf1e2d" stroke-width="2.4" />
<text x="508.0" y="690.0" fill="#1f2430" font-size="12" font-family="Segoe UI, Arial, sans-serif" font-weight="400" text-anchor="start">rho=0.95</text>
<line x1="635.0" y1="686.0" x2="663.0" y2="686.0" stroke="#c96b17" stroke-width="2.4" />
<text x="673.0" y="690.0" fill="#1f2430" font-size="12" font-family="Segoe UI, Arial, sans-serif" font-weight="400" text-anchor="start">rho=0.98</text>
<line x1="800.0" y1="686.0" x2="828.0" y2="686.0" stroke="#2a7f62" stroke-width="2.4" />
<text x="838.0" y="690.0" fill="#1f2430" font-size="12" font-family="Segoe UI, Arial, sans-serif" font-weight="400" text-anchor="start">rho=0.985</text>
<line x1="965.0" y1="686.0" x2="993.0" y2="686.0" stroke="#2458d3" stroke-width="2.4" />
<text x="1003.0" y="690.0" fill="#1f2430" font-size="12" font-family="Segoe UI, Arial, sans-serif" font-weight="400" text-anchor="start">rho=0.99</text>
</svg>