<svg xmlns="http://www.w3.org/2000/svg" width="1280" height="760" viewBox="0 0 1280 760" role="img">
<rect x="0.0" y="0.0" width="1280.0" height="760.0" fill="#ffffff" stroke="none" stroke-width="1.0" rx="0.0" />
<text x="40.0" y="34.0" fill="#1f2430" font-size="22" font-family="Segoe UI, Arial, sans-serif" font-weight="600" text-anchor="start">Bounded hard: applied inputs and steady input targets across rho</text>
<text x="40.0" y="56.0" fill="#5d6574" font-size="13" font-family="Segoe UI, Arial, sans-serif" font-weight="400" text-anchor="start">Solid lines are applied physical inputs u. Dashed lines are steady targets u_s.</text>
<rect x="40.0" y="88.0" width="1200.0" height="250.0" fill="#fbfbfd" stroke="#d7dbe5" stroke-width="1.0" rx="8.0" />
<text x="56.0" y="112.0" fill="#1f2430" font-size="16" font-family="Segoe UI, Arial, sans-serif" font-weight="600" text-anchor="start">Input u[0]</text>
<text x="56.0" y="130.0" fill="#5d6574" font-size="12" font-family="Segoe UI, Arial, sans-serif" font-weight="400" text-anchor="start">Transient window 0-249 steps</text>
<line x1="98.0" y1="306.0" x2="1216.0" y2="306.0" stroke="#d7dbe5" stroke-width="1.0" stroke-dasharray="4 4" />
<text x="90.0" y="310.0" fill="#5d6574" font-size="11" font-family="Segoe UI, Arial, sans-serif" font-weight="400" text-anchor="end">7.728</text>
<line x1="98.0" y1="226.0" x2="1216.0" y2="226.0" stroke="#d7dbe5" stroke-width="1.0" stroke-dasharray="4 4" />
<text x="90.0" y="230.0" fill="#5d6574" font-size="11" font-family="Segoe UI, Arial, sans-serif" font-weight="400" text-anchor="end">470.8</text>
<line x1="98.0" y1="146.0" x2="1216.0" y2="146.0" stroke="#d7dbe5" stroke-width="1.0" stroke-dasharray="4 4" />
<text x="90.0" y="150.0" fill="#5d6574" font-size="11" font-family="Segoe UI, Arial, sans-serif" font-weight="400" text-anchor="end">933.872</text>
<line x1="98.0" y1="146.0" x2="98.0" y2="306.0" stroke="#d7dbe5" stroke-width="1.0" stroke-dasharray="4 4" />
<text x="98.0" y="324.0" fill="#5d6574" font-size="11" font-family="Segoe UI, Arial, sans-serif" font-weight="400" text-anchor="middle">0</text>
<line x1="657.0" y1="146.0" x2="657.0" y2="306.0" stroke="#d7dbe5" stroke-width="1.0" stroke-dasharray="4 4" />
<text x="657.0" y="324.0" fill="#5d6574" font-size="11" font-family="Segoe UI, Arial, sans-serif" font-weight="400" text-anchor="middle">124</text>
<line x1="1216.0" y1="146.0" x2="1216.0" y2="306.0" stroke="#d7dbe5" stroke-width="1.0" stroke-dasharray="4 4" />
<text x="1216.0" y="324.0" fill="#5d6574" font-size="11" font-family="Segoe UI, Arial, sans-serif" font-weight="400" text-anchor="middle">249</text>
<line x1="98.0" y1="146.0" x2="98.0" y2="306.0" stroke="#2d3440" stroke-width="1.2" />
<line x1="98.0" y1="306.0" x2="1216.0" y2="306.0" stroke="#2d3440" stroke-width="1.2" />
<text x="56.0" y="160.0" fill="#5d6574" font-size="12" font-family="Segoe UI, Arial, sans-serif" font-weight="400" text-anchor="start">physical</text>
<polyline points="98.00,232.82 102.49,232.75 106.98,232.61 111.47,232.40 115.96,232.11 120.45,231.78 124.94,231.41 129.43,231.00 133.92,230.57 138.41,230.11 142.90,229.64 147.39,229.15 151.88,228.65 156.37,228.14 160.86,227.63 165.35,227.11 169.84,226.59 174.33,226.06 178.82,225.54 183.31,225.02 187.80,224.50 192.29,223.98 196.78,223.46 201.27,222.95 205.76,222.45 210.25,221.96 214.74,221.47 219.23,220.99 223.72,220.51 228.21,220.05 232.70,219.59 237.19,219.15 241.68,218.71 246.17,218.29 250.66,217.87 255.15,217.46 259.64,217.07 264.13,216.68 268.62,216.30 273.11,215.93 277.60,215.57 282.09,215.22 286.58,214.87 291.07,214.53 295.56,214.21 300.05,213.88 304.54,213.57 309.03,213.26 313.52,212.96 318.01,212.66 322.50,212.37 326.99,212.09 331.48,211.81 335.97,211.54 340.46,211.27 344.95,211.01 349.44,210.76 353.93,209.36 358.42,207.71 362.91,207.48 367.40,207.28 371.89,207.11 376.38,206.96 380.87,206.83 385.36,206.71 389.85,206.60 394.34,206.50 398.83,206.40 403.32,206.30 407.81,206.21 412.30,206.11 416.79,206.02 421.28,205.93 425.77,205.83 430.26,205.74 434.75,205.64 439.24,205.55 443.73,205.29 448.22,203.23 452.71,202.86 457.20,202.88 461.69,203.02 466.18,203.25 470.67,203.55 475.16,203.89 479.65,204.25 484.14,204.62 488.63,204.99 493.12,205.34 497.61,205.69 502.10,206.01 506.59,206.31 511.08,159.20 515.57,159.20 520.06,159.49 524.55,159.84 529.04,160.24 533.53,160.68 538.02,161.14 542.51,161.62 547.00,162.09 551.49,162.55 555.98,163.00 560.47,163.43 564.96,163.84 569.45,164.23 573.94,164.59 578.43,164.94 582.92,165.27 587.41,165.58 591.90,165.87 596.39,166.15 600.88,166.42 605.37,166.68 609.86,166.93 614.35,167.18 618.84,167.43 623.33,243.67 627.82,243.67 632.31,243.78 636.80,243.78 641.29,243.68 645.78,243.50 650.27,243.26 654.76,242.97 659.24,242.63 663.73,242.26 668.22,241.85 672.71,241.42 677.20,240.96 681.69,240.47 686.18,239.97 690.67,239.44 695.16,238.89 699.65,238.33 704.14,237.75 708.63,237.16 713.12,236.56 717.61,235.96 722.10,235.35 726.59,234.74 731.08,234.13 735.57,233.52 740.06,232.91 744.55,232.32 749.04,231.72 753.53,231.14 758.02,230.57 762.51,230.01 767.00,229.46 771.49,220.50 775.98,213.20 780.47,212.72 784.96,212.29 789.45,211.93 793.94,211.63 798.43,211.38 802.92,211.18 807.41,211.02 811.90,210.88 816.39,210.77 820.88,210.66 825.37,210.57 829.86,210.48 834.35,210.39 838.84,210.30 843.33,210.20 847.82,210.10 852.31,209.98 856.80,209.85 861.29,209.71 865.78,209.57 870.27,209.41 874.76,209.25 879.25,209.07 883.74,208.89 888.23,208.71 892.72,208.52 897.21,208.33 901.70,208.13 906.19,207.93 910.68,207.73 915.17,207.54 919.66,207.34 924.15,207.14 928.64,291.96 933.13,291.96 937.62,291.72 942.11,291.39 946.60,290.96 951.09,290.41 955.58,289.76 960.07,288.99 964.56,288.11 969.05,287.13 973.54,286.06 978.03,284.89 982.52,283.62 987.01,282.27 991.50,280.84 995.99,279.32 1000.48,277.72 1004.97,276.05 1009.46,274.31 1013.95,272.51 1018.44,270.66 1022.93,268.76 1027.42,266.81 1031.91,264.84 1036.40,262.84 1040.89,260.84 1045.38,258.83 1049.87,258.83 1054.36,258.83 1058.85,258.83 1063.34,258.83 1067.83,258.83 1072.32,258.83 1076.81,258.83 1081.30,258.83 1085.79,258.83 1090.28,199.43 1094.77,197.74 1099.26,196.12 1103.75,194.67 1108.24,193.43 1112.73,192.43 1117.22,191.65 1121.71,191.07 1126.20,190.66 1130.69,190.38 1135.18,190.21 1139.67,190.10 1144.16,190.04 1148.65,190.00 1153.14,189.96 1157.63,189.90 1162.12,189.83 1166.61,189.73 1171.10,189.60 1175.59,189.45 1180.08,189.27 1184.57,189.07 1189.06,188.86 1193.55,188.63 1198.04,188.40 1202.53,188.16 1207.02,187.93 1211.51,187.70 1216.00,187.70" fill="none" stroke="#bf1e2d" stroke-width="2.2" stroke-linejoin="round" stroke-linecap="round" />
<polyline points="98.00,239.35 102.49,239.35 106.98,157.03 111.47,157.03 115.96,157.03 120.45,157.03 124.94,157.03 129.43,157.03 133.92,157.03 138.41,157.03 142.90,157.03 147.39,157.03 151.88,157.03 156.37,157.03 160.86,157.03 165.35,157.03 169.84,157.03 174.33,157.03 178.82,157.03 183.31,157.03 187.80,157.03 192.29,157.03 196.78,157.03 201.27,157.03 205.76,157.03 210.25,157.03 214.74,157.03 219.23,157.03 223.72,157.03 228.21,157.03 232.70,157.03 237.19,157.03 241.68,157.03 246.17,157.03 250.66,157.03 255.15,157.03 259.64,157.03 264.13,157.03 268.62,157.03 273.11,157.03 277.60,157.03 282.09,157.03 286.58,157.03 291.07,157.03 295.56,157.03 300.05,157.03 304.54,157.03 309.03,157.03 313.52,157.03 318.01,157.03 322.50,157.03 326.99,157.03 331.48,157.03 335.97,157.03 340.46,157.03 344.95,157.03 349.44,157.03 353.93,157.03 358.42,157.03 362.91,157.03 367.40,157.03 371.89,157.03 376.38,210.36 380.87,275.55 385.36,294.97 389.85,294.97 394.34,294.97 398.83,294.97 403.32,294.97 407.81,273.37 412.30,242.74 416.79,208.93 421.28,173.25 425.77,157.03 430.26,157.03 434.75,157.03 439.24,157.03 443.73,157.03 448.22,157.03 452.71,157.03 457.20,294.97 461.69,294.97 466.18,294.97 470.67,294.97 475.16,294.97 479.65,294.97 484.14,294.97 488.63,294.97 493.12,294.97 497.61,294.97 502.10,294.97 506.59,294.97 511.08,294.97 515.57,294.97 520.06,294.97 524.55,294.97 529.04,294.97 533.53,294.97 538.02,294.97 542.51,294.97 547.00,294.97 551.49,294.97 555.98,294.97 560.47,294.97 564.96,294.97 569.45,294.97 573.94,294.97 578.43,294.97 582.92,294.97 587.41,294.97 591.90,294.97 596.39,294.97 600.88,294.97 605.37,260.86 609.86,220.28 614.35,195.12 618.84,183.49 623.33,294.97 627.82,294.97 632.31,157.03 636.80,157.03 641.29,157.03 645.78,157.03 650.27,157.03 654.76,157.03 659.24,157.03 663.73,157.03 668.22,157.03 672.71,157.03 677.20,157.03 681.69,157.03 686.18,157.03 690.67,157.03 695.16,157.03 699.65,157.03 704.14,157.03 708.63,157.03 713.12,157.03 717.61,157.03 722.10,157.03 726.59,157.03 731.08,157.03 735.57,157.03 740.06,157.03 744.55,157.03 749.04,157.03 753.53,157.03 758.02,157.03 762.51,157.03 767.00,157.03 771.49,157.03 775.98,157.03 780.47,157.03 784.96,157.03 789.45,287.98 793.94,294.97 798.43,294.97 802.92,294.97 807.41,294.97 811.90,294.97 816.39,294.97 820.88,294.97 825.37,294.97 829.86,294.97 834.35,294.97 838.84,294.97 843.33,294.97 847.82,294.97 852.31,294.97 856.80,249.30 861.29,157.03 865.78,157.03 870.27,157.03 874.76,157.03 879.25,157.03 883.74,157.03 888.23,157.03 892.72,157.03 897.21,157.03 901.70,157.03 906.19,157.03 910.68,157.03 915.17,157.03 919.66,157.03 924.15,157.03 928.64,157.03 933.13,157.03 937.62,157.03 942.11,157.03 946.60,157.03 951.09,157.03 955.58,157.03 960.07,157.03 964.56,157.03 969.05,157.03 973.54,157.03 978.03,157.03 982.52,157.03 987.01,157.03 991.50,157.03 995.99,157.03 1000.48,157.03 1004.97,157.03 1009.46,157.03 1013.95,157.03 1018.44,157.03 1022.93,157.03 1027.42,157.03 1031.91,157.03 1036.40,157.03 1040.89,157.03 1045.38,157.03 1049.87,157.03 1054.36,157.03 1058.85,157.03 1063.34,157.03 1067.83,157.03 1072.32,157.03 1076.81,157.03 1081.30,157.03 1085.79,157.03 1090.28,157.03 1094.77,157.03 1099.26,157.03 1103.75,157.03 1108.24,157.03 1112.73,294.97 1117.22,294.97 1121.71,294.97 1126.20,294.97 1130.69,294.97 1135.18,294.97 1139.67,294.97 1144.16,294.97 1148.65,294.97 1153.14,294.97 1157.63,294.97 1162.12,294.97 1166.61,294.97 1171.10,294.97 1175.59,294.97 1180.08,294.97 1184.57,157.03 1189.06,157.03 1193.55,157.03 1198.04,157.03 1202.53,157.03 1207.02,157.03 1211.51,157.03 1216.00,157.03" fill="none" stroke="#bf1e2d" stroke-width="1.8" stroke-linejoin="round" stroke-linecap="round" stroke-dasharray="8 5" />
<polyline points="98.00,228.22 102.49,228.15 106.98,228.05 111.47,227.92 115.96,227.76 120.45,227.56 124.94,227.33 129.43,227.08 133.92,226.80 138.41,226.51 142.90,226.19 147.39,225.85 151.88,225.50 156.37,225.14 160.86,224.77 165.35,224.38 169.84,223.99 174.33,223.59 178.82,223.19 183.31,222.78 187.80,222.37 192.29,221.95 196.78,221.54 201.27,221.12 205.76,220.71 210.25,220.30 214.74,219.89 219.23,219.49 223.72,219.08 228.21,218.69 232.70,218.29 237.19,217.90 241.68,217.52 246.17,217.15 250.66,216.77 255.15,216.41 259.64,216.05 264.13,215.70 268.62,215.36 273.11,215.02 277.60,214.69 282.09,214.36 286.58,214.05 291.07,213.74 295.56,213.43 300.05,213.13 304.54,212.84 309.03,212.56 313.52,212.28 318.01,212.00 322.50,211.73 326.99,211.47 331.48,211.21 335.97,210.96 340.46,210.72 344.95,210.47 349.44,210.24 353.93,210.01 358.42,209.78 362.91,209.56 367.40,209.34 371.89,209.12 376.38,208.91 380.87,208.71 385.36,208.51 389.85,208.31 394.34,208.12 398.83,207.93 403.32,207.74 407.81,207.56 412.30,207.39 416.79,207.21 421.28,207.04 425.77,206.88 430.26,206.71 434.75,206.55 439.24,206.40 443.73,206.25 448.22,206.10 452.71,205.95 457.20,205.81 461.69,205.67 466.18,205.53 470.67,205.40 475.16,205.27 479.65,205.15 484.14,205.02 488.63,204.90 493.12,204.78 497.61,204.67 502.10,204.56 506.59,204.45 511.08,204.34 515.57,204.24 520.06,204.13 524.55,204.03 529.04,203.94 533.53,203.84 538.02,203.75 542.51,203.66 547.00,203.57 551.49,203.49 555.98,203.40 560.47,203.32 564.96,203.24 569.45,203.17 573.94,203.09 578.43,203.02 582.92,202.94 587.41,202.87 591.90,202.81 596.39,202.74 600.88,202.67 605.37,202.61 609.86,202.55 614.35,202.49 618.84,202.43 623.33,202.37 627.82,202.32 632.31,202.26 636.80,202.21 641.29,202.16 645.78,202.11 650.27,202.06 654.76,202.01 659.24,201.96 663.73,201.91 668.22,201.87 672.71,201.83 677.20,201.78 681.69,201.74 686.18,201.70 690.67,201.66 695.16,201.62 699.65,201.58 704.14,201.55 708.63,201.51 713.12,201.48 717.61,201.44 722.10,201.41 726.59,201.38 731.08,201.34 735.57,201.31 740.06,201.28 744.55,201.25 749.04,201.22 753.53,201.20 758.02,201.17 762.51,201.14 767.00,201.12 771.49,201.09 775.98,201.07 780.47,201.04 784.96,201.02 789.45,200.99 793.94,200.97 798.43,200.95 802.92,200.93 807.41,200.91 811.90,200.89 816.39,200.87 820.88,200.85 825.37,200.83 829.86,200.81 834.35,200.79 838.84,200.77 843.33,200.76 847.82,200.74 852.31,200.72 856.80,200.71 861.29,200.69 865.78,200.68 870.27,200.66 874.76,200.65 879.25,200.63 883.74,200.62 888.23,200.60 892.72,200.59 897.21,200.58 901.70,200.57 906.19,200.55 910.68,200.54 915.17,200.53 919.66,200.52 924.15,200.51 928.64,200.50 933.13,200.48 937.62,200.47 942.11,200.46 946.60,200.45 951.09,200.44 955.58,200.44 960.07,200.43 964.56,200.42 969.05,200.41 973.54,200.40 978.03,200.39 982.52,200.38 987.01,200.38 991.50,200.37 995.99,200.36 1000.48,200.35 1004.97,200.35 1009.46,200.34 1013.95,200.33 1018.44,200.32 1022.93,200.32 1027.42,200.31 1031.91,200.31 1036.40,200.30 1040.89,200.29 1045.38,200.29 1049.87,200.28 1054.36,200.28 1058.85,200.27 1063.34,200.27 1067.83,200.26 1072.32,200.26 1076.81,200.26 1081.30,200.26 1085.79,199.89 1090.28,199.68 1094.77,199.68 1099.26,199.68 1103.75,199.68 1108.24,199.69 1112.73,194.14 1117.22,191.41 1121.71,191.37 1126.20,191.27 1130.69,191.11 1135.18,190.93 1139.67,190.75 1144.16,190.56 1148.65,190.38 1153.14,190.21 1157.63,190.05 1162.12,189.91 1166.61,294.50 1171.10,294.50 1175.59,294.68 1180.08,294.84 1184.57,294.94 1189.06,294.97 1193.55,294.97 1198.04,294.97 1202.53,294.97 1207.02,294.97 1211.51,294.97 1216.00,294.97" fill="none" stroke="#c96b17" stroke-width="2.2" stroke-linejoin="round" stroke-linecap="round" />
<polyline points="98.00,239.35 102.49,239.35 106.98,157.03 111.47,157.03 115.96,157.03 120.45,157.03 124.94,157.03 129.43,157.03 133.92,157.03 138.41,157.03 142.90,157.03 147.39,157.03 151.88,157.03 156.37,157.03 160.86,157.03 165.35,157.03 169.84,157.03 174.33,157.03 178.82,157.03 183.31,157.03 187.80,157.03 192.29,157.03 196.78,157.03 201.27,157.03 205.76,157.03 210.25,157.03 214.74,157.03 219.23,157.03 223.72,157.03 228.21,157.03 232.70,157.03 237.19,157.03 241.68,157.03 246.17,157.03 250.66,157.03 255.15,157.03 259.64,157.03 264.13,157.03 268.62,157.03 273.11,157.03 277.60,157.03 282.09,157.03 286.58,157.03 291.07,157.03 295.56,157.03 300.05,157.03 304.54,157.03 309.03,157.03 313.52,157.03 318.01,157.03 322.50,157.03 326.99,157.03 331.48,157.03 335.97,157.03 340.46,157.03 344.95,157.03 349.44,157.03 353.93,157.03 358.42,157.03 362.91,157.03 367.40,157.03 371.89,157.03 376.38,157.03 380.87,157.03 385.36,157.03 389.85,157.03 394.34,157.03 398.83,157.03 403.32,157.03 407.81,157.03 412.30,157.03 416.79,157.03 421.28,157.03 425.77,157.03 430.26,157.03 434.75,157.03 439.24,157.03 443.73,157.03 448.22,157.03 452.71,157.03 457.20,157.03 461.69,157.03 466.18,157.03 470.67,157.03 475.16,157.03 479.65,157.03 484.14,157.03 488.63,157.03 493.12,157.03 497.61,157.03 502.10,157.03 506.59,157.03 511.08,157.03 515.57,157.03 520.06,157.03 524.55,157.03 529.04,157.03 533.53,157.03 538.02,157.03 542.51,157.03 547.00,157.03 551.49,157.03 555.98,157.03 560.47,157.03 564.96,157.03 569.45,157.03 573.94,157.03 578.43,157.03 582.92,157.03 587.41,157.03 591.90,157.03 596.39,157.03 600.88,157.03 605.37,157.03 609.86,157.03 614.35,157.03 618.84,157.03 623.33,157.03 627.82,157.03 632.31,157.03 636.80,157.03 641.29,157.03 645.78,157.03 650.27,157.03 654.76,157.03 659.24,157.03 663.73,157.03 668.22,157.03 672.71,157.03 677.20,157.03 681.69,157.03 686.18,157.03 690.67,157.03 695.16,157.03 699.65,157.03 704.14,157.03 708.63,157.03 713.12,157.03 717.61,157.03 722.10,157.03 726.59,157.03 731.08,157.03 735.57,157.03 740.06,157.03 744.55,157.03 749.04,157.03 753.53,157.03 758.02,157.03 762.51,157.03 767.00,157.03 771.49,157.03 775.98,157.03 780.47,157.03 784.96,157.03 789.45,157.03 793.94,157.03 798.43,157.03 802.92,157.03 807.41,157.03 811.90,157.03 816.39,157.03 820.88,157.03 825.37,157.03 829.86,157.03 834.35,157.03 838.84,157.03 843.33,157.03 847.82,157.03 852.31,157.03 856.80,157.03 861.29,157.03 865.78,157.03 870.27,157.03 874.76,157.03 879.25,157.03 883.74,157.03 888.23,157.03 892.72,157.03 897.21,157.03 901.70,157.03 906.19,157.03 910.68,157.03 915.17,157.03 919.66,157.03 924.15,157.03 928.64,157.03 933.13,157.03 937.62,157.03 942.11,157.03 946.60,157.03 951.09,157.03 955.58,157.03 960.07,157.03 964.56,157.03 969.05,157.03 973.54,157.03 978.03,157.03 982.52,157.03 987.01,157.03 991.50,157.03 995.99,157.03 1000.48,157.03 1004.97,157.03 1009.46,157.03 1013.95,157.03 1018.44,157.03 1022.93,157.03 1027.42,157.03 1031.91,157.03 1036.40,157.03 1040.89,157.03 1045.38,157.03 1049.87,157.03 1054.36,157.03 1058.85,157.03 1063.34,157.03 1067.83,157.03 1072.32,157.03 1076.81,157.03 1081.30,157.03 1085.79,157.03 1090.28,157.23 1094.77,164.32 1099.26,173.66 1103.75,182.28 1108.24,190.47 1112.73,195.58 1117.22,198.38 1121.71,157.03 1126.20,157.03 1130.69,157.03 1135.18,157.03 1139.67,157.03 1144.16,157.03 1148.65,157.03 1153.14,157.03 1157.63,157.03 1162.12,157.03 1166.61,157.03 1171.10,157.03 1175.59,294.97 1180.08,294.97 1184.57,294.97 1189.06,294.97 1193.55,294.97 1198.04,294.97 1202.53,294.97 1207.02,294.97 1211.51,294.97 1216.00,294.97" fill="none" stroke="#c96b17" stroke-width="1.8" stroke-linejoin="round" stroke-linecap="round" stroke-dasharray="8 5" />
<polyline points="98.00,227.46 102.49,227.39 106.98,227.30 111.47,227.19 115.96,227.04 120.45,226.86 124.94,226.66 129.43,226.44 133.92,226.19 138.41,225.92 142.90,225.63 147.39,225.32 151.88,224.99 156.37,224.65 160.86,224.30 165.35,223.94 169.84,223.57 174.33,223.19 178.82,222.81 183.31,222.41 187.80,222.02 192.29,221.62 196.78,221.22 201.27,220.82 205.76,220.42 210.25,220.03 214.74,219.63 219.23,219.23 223.72,218.84 228.21,218.45 232.70,218.07 237.19,217.69 241.68,217.32 246.17,216.95 250.66,216.58 255.15,216.23 259.64,215.87 264.13,215.53 268.62,215.19 273.11,214.86 277.60,214.53 282.09,214.21 286.58,213.90 291.07,213.59 295.56,213.29 300.05,213.00 304.54,212.71 309.03,212.43 313.52,212.15 318.01,211.88 322.50,211.61 326.99,211.36 331.48,211.10 335.97,210.85 340.46,210.61 344.95,210.37 349.44,210.14 353.93,209.91 358.42,209.69 362.91,209.47 367.40,209.25 371.89,209.04 376.38,208.83 380.87,208.63 385.36,208.43 389.85,208.24 394.34,208.05 398.83,207.86 403.32,207.68 407.81,207.50 412.30,207.33 416.79,207.16 421.28,206.99 425.77,206.83 430.26,206.66 434.75,206.51 439.24,206.35 443.73,206.20 448.22,206.06 452.71,205.91 457.20,205.77 461.69,205.64 466.18,205.50 470.67,205.37 475.16,205.24 479.65,205.12 484.14,204.99 488.63,204.87 493.12,204.76 497.61,204.64 502.10,204.53 506.59,204.42 511.08,204.32 515.57,204.22 520.06,204.11 524.55,204.02 529.04,203.92 533.53,203.83 538.02,203.73 542.51,203.65 547.00,203.56 551.49,203.47 555.98,203.39 560.47,203.31 564.96,203.23 569.45,203.15 573.94,203.08 578.43,203.01 582.92,202.93 587.41,202.87 591.90,202.80 596.39,202.73 600.88,202.67 605.37,202.60 609.86,202.54 614.35,202.48 618.84,202.42 623.33,202.37 627.82,202.31 632.31,202.26 636.80,202.20 641.29,202.15 645.78,202.10 650.27,202.05 654.76,202.00 659.24,201.96 663.73,201.91 668.22,201.87 672.71,201.82 677.20,201.78 681.69,201.74 686.18,201.70 690.67,201.66 695.16,201.62 699.65,201.58 704.14,201.55 708.63,201.51 713.12,201.47 717.61,201.44 722.10,201.41 726.59,201.37 731.08,201.34 735.57,201.31 740.06,201.28 744.55,201.25 749.04,201.22 753.53,201.20 758.02,201.17 762.51,201.14 767.00,201.12 771.49,201.09 775.98,201.07 780.47,201.04 784.96,201.02 789.45,200.99 793.94,200.97 798.43,200.95 802.92,200.93 807.41,200.91 811.90,200.89 816.39,200.87 820.88,200.85 825.37,200.83 829.86,200.81 834.35,200.79 838.84,200.77 843.33,200.76 847.82,200.74 852.31,200.72 856.80,200.71 861.29,200.69 865.78,200.68 870.27,200.66 874.76,200.65 879.25,200.63 883.74,200.62 888.23,200.60 892.72,200.59 897.21,200.58 901.70,200.57 906.19,200.55 910.68,200.54 915.17,200.53 919.66,200.52 924.15,200.51 928.64,200.50 933.13,200.49 937.62,200.48 942.11,200.47 946.60,200.46 951.09,200.45 955.58,200.44 960.07,200.43 964.56,200.42 969.05,200.41 973.54,200.40 978.03,200.39 982.52,200.38 987.01,200.38 991.50,200.37 995.99,200.36 1000.48,200.35 1004.97,200.35 1009.46,200.34 1013.95,200.33 1018.44,200.33 1022.93,200.32 1027.42,200.31 1031.91,200.31 1036.40,200.30 1040.89,200.29 1045.38,200.29 1049.87,200.28 1054.36,200.28 1058.85,200.27 1063.34,200.27 1067.83,200.26 1072.32,200.26 1076.81,200.26 1081.30,200.26 1085.79,200.26 1090.28,200.15 1094.77,200.10 1099.26,200.09 1103.75,200.09 1108.24,200.09 1112.73,200.08 1117.22,200.08 1121.71,198.88 1126.20,195.84 1130.69,195.84 1135.18,195.27 1139.67,208.37 1144.16,208.37 1148.65,208.30 1153.14,208.16 1157.63,207.98 1162.12,207.76 1166.61,207.52 1171.10,207.28 1175.59,207.03 1180.08,206.78 1184.57,206.53 1189.06,206.29 1193.55,206.05 1198.04,205.82 1202.53,205.60 1207.02,205.39 1211.51,205.18 1216.00,204.98" fill="none" stroke="#2a7f62" stroke-width="2.2" stroke-linejoin="round" stroke-linecap="round" />
<polyline points="98.00,239.35 102.49,239.35 106.98,157.03 111.47,157.03 115.96,157.03 120.45,157.03 124.94,157.03 129.43,157.03 133.92,157.03 138.41,157.03 142.90,157.03 147.39,157.03 151.88,157.03 156.37,157.03 160.86,157.03 165.35,157.03 169.84,157.03 174.33,157.03 178.82,157.03 183.31,157.03 187.80,157.03 192.29,157.03 196.78,157.03 201.27,157.03 205.76,157.03 210.25,157.03 214.74,157.03 219.23,157.03 223.72,157.03 228.21,157.03 232.70,157.03 237.19,157.03 241.68,157.03 246.17,157.03 250.66,157.03 255.15,157.03 259.64,157.03 264.13,157.03 268.62,157.03 273.11,157.03 277.60,157.03 282.09,157.03 286.58,157.03 291.07,157.03 295.56,157.03 300.05,157.03 304.54,157.03 309.03,157.03 313.52,157.03 318.01,157.03 322.50,157.03 326.99,157.03 331.48,157.03 335.97,157.03 340.46,157.03 344.95,157.03 349.44,157.03 353.93,157.03 358.42,157.03 362.91,157.03 367.40,157.03 371.89,157.03 376.38,157.03 380.87,157.03 385.36,157.03 389.85,157.03 394.34,157.03 398.83,157.03 403.32,157.03 407.81,157.03 412.30,157.03 416.79,157.03 421.28,157.03 425.77,157.03 430.26,157.03 434.75,157.03 439.24,157.03 443.73,157.03 448.22,157.03 452.71,157.03 457.20,157.03 461.69,157.03 466.18,157.03 470.67,157.03 475.16,157.03 479.65,157.03 484.14,157.03 488.63,157.03 493.12,157.03 497.61,157.03 502.10,157.03 506.59,157.03 511.08,157.03 515.57,157.03 520.06,157.03 524.55,157.03 529.04,157.03 533.53,157.03 538.02,157.03 542.51,157.03 547.00,157.03 551.49,157.03 555.98,157.03 560.47,157.03 564.96,157.03 569.45,157.03 573.94,157.03 578.43,157.03 582.92,157.03 587.41,157.03 591.90,157.03 596.39,157.03 600.88,157.03 605.37,157.03 609.86,157.03 614.35,157.03 618.84,157.03 623.33,157.03 627.82,157.03 632.31,157.03 636.80,157.03 641.29,157.03 645.78,157.03 650.27,157.03 654.76,157.03 659.24,157.03 663.73,157.03 668.22,157.03 672.71,157.03 677.20,157.03 681.69,157.03 686.18,157.03 690.67,157.03 695.16,157.03 699.65,157.03 704.14,157.03 708.63,157.03 713.12,157.03 717.61,157.03 722.10,157.03 726.59,157.03 731.08,157.03 735.57,157.03 740.06,157.03 744.55,157.03 749.04,157.03 753.53,157.03 758.02,157.03 762.51,157.03 767.00,157.03 771.49,157.03 775.98,157.03 780.47,157.03 784.96,157.03 789.45,157.03 793.94,157.03 798.43,157.03 802.92,157.03 807.41,157.03 811.90,157.03 816.39,157.03 820.88,157.03 825.37,157.03 829.86,157.03 834.35,157.03 838.84,157.03 843.33,157.03 847.82,157.03 852.31,157.03 856.80,157.03 861.29,157.03 865.78,157.03 870.27,157.03 874.76,157.03 879.25,157.03 883.74,157.03 888.23,157.03 892.72,157.03 897.21,157.03 901.70,157.03 906.19,157.03 910.68,157.03 915.17,157.03 919.66,157.03 924.15,157.03 928.64,157.03 933.13,157.03 937.62,157.03 942.11,157.03 946.60,157.03 951.09,157.03 955.58,157.03 960.07,157.03 964.56,157.03 969.05,157.03 973.54,157.03 978.03,157.03 982.52,157.03 987.01,157.03 991.50,157.03 995.99,157.03 1000.48,157.03 1004.97,157.03 1009.46,157.03 1013.95,157.03 1018.44,157.03 1022.93,157.03 1027.42,157.03 1031.91,157.03 1036.40,157.03 1040.89,157.03 1045.38,157.03 1049.87,157.03 1054.36,157.03 1058.85,157.03 1063.34,157.03 1067.83,157.03 1072.32,157.03 1076.81,157.03 1081.30,157.03 1085.79,157.03 1090.28,157.23 1094.77,158.17 1099.26,160.82 1103.75,163.97 1108.24,166.30 1112.73,167.68 1117.22,168.27 1121.71,168.31 1126.20,168.01 1130.69,174.86 1135.18,194.24 1139.67,222.66 1144.16,178.91 1148.65,157.03 1153.14,157.03 1157.63,157.03 1162.12,157.03 1166.61,157.03 1171.10,157.03 1175.59,157.03 1180.08,157.03 1184.57,157.03 1189.06,157.03 1193.55,157.03 1198.04,157.03 1202.53,157.03 1207.02,157.03 1211.51,157.03 1216.00,157.03" fill="none" stroke="#2a7f62" stroke-width="1.8" stroke-linejoin="round" stroke-linecap="round" stroke-dasharray="8 5" />
<polyline points="98.00,226.70 102.49,226.63 106.98,226.55 111.47,226.45 115.96,226.32 120.45,226.17 124.94,226.00 129.43,225.80 133.92,225.57 138.41,225.33 142.90,225.07 147.39,224.78 151.88,224.48 156.37,224.17 160.86,223.84 165.35,223.50 169.84,223.15 174.33,222.79 178.82,222.43 183.31,222.05 187.80,221.68 192.29,221.29 196.78,220.91 201.27,220.53 205.76,220.14 210.25,219.75 214.74,219.37 219.23,218.98 223.72,218.60 228.21,218.22 232.70,217.85 237.19,217.48 241.68,217.11 246.17,216.75 250.66,216.39 255.15,216.04 259.64,215.69 264.13,215.35 268.62,215.02 273.11,214.69 277.60,214.37 282.09,214.05 286.58,213.75 291.07,213.44 295.56,213.15 300.05,212.86 304.54,212.57 309.03,212.29 313.52,212.02 318.01,211.75 322.50,211.49 326.99,211.24 331.48,210.99 335.97,210.74 340.46,210.50 344.95,210.27 349.44,210.04 353.93,209.81 358.42,209.59 362.91,209.37 367.40,209.16 371.89,208.95 376.38,208.75 380.87,208.55 385.36,208.36 389.85,208.17 394.34,207.98 398.83,207.80 403.32,207.62 407.81,207.44 412.30,207.27 416.79,207.10 421.28,206.93 425.77,206.77 430.26,206.61 434.75,206.46 439.24,206.31 443.73,206.16 448.22,206.01 452.71,205.87 457.20,205.73 461.69,205.60 466.18,205.46 470.67,205.34 475.16,205.21 479.65,205.08 484.14,204.96 488.63,204.85 493.12,204.73 497.61,204.62 502.10,204.51 506.59,204.40 511.08,204.29 515.57,204.19 520.06,204.09 524.55,204.00 529.04,203.90 533.53,203.81 538.02,203.72 542.51,203.63 547.00,203.54 551.49,203.46 555.98,203.38 560.47,203.30 564.96,203.22 569.45,203.14 573.94,203.07 578.43,202.99 582.92,202.92 587.41,202.85 591.90,202.79 596.39,202.72 600.88,202.66 605.37,202.59 609.86,202.53 614.35,202.47 618.84,202.42 623.33,202.36 627.82,202.30 632.31,202.25 636.80,202.20 641.29,202.14 645.78,202.09 650.27,202.05 654.76,202.00 659.24,201.95 663.73,201.91 668.22,201.86 672.71,201.82 677.20,201.78 681.69,201.73 686.18,201.69 690.67,201.65 695.16,201.62 699.65,201.58 704.14,201.54 708.63,201.51 713.12,201.47 717.61,201.44 722.10,201.40 726.59,201.37 731.08,201.34 735.57,201.31 740.06,201.28 744.55,201.25 749.04,201.22 753.53,201.19 758.02,201.17 762.51,201.14 767.00,201.11 771.49,201.09 775.98,201.06 780.47,201.04 784.96,201.02 789.45,200.99 793.94,200.97 798.43,200.95 802.92,200.93 807.41,200.91 811.90,200.89 816.39,200.87 820.88,200.85 825.37,200.83 829.86,200.81 834.35,200.79 838.84,200.77 843.33,200.76 847.82,200.74 852.31,200.72 856.80,200.71 861.29,200.69 865.78,200.68 870.27,200.66 874.76,200.65 879.25,200.63 883.74,200.62 888.23,200.61 892.72,200.59 897.21,200.58 901.70,200.57 906.19,200.55 910.68,200.54 915.17,200.53 919.66,200.52 924.15,200.51 928.64,200.50 933.13,200.49 937.62,200.48 942.11,200.47 946.60,200.46 951.09,200.45 955.58,200.44 960.07,200.43 964.56,200.42 969.05,200.41 973.54,200.40 978.03,200.39 982.52,200.38 987.01,200.38 991.50,200.37 995.99,200.36 1000.48,200.35 1004.97,200.35 1009.46,200.34 1013.95,200.33 1018.44,200.33 1022.93,200.32 1027.42,200.31 1031.91,200.31 1036.40,200.30 1040.89,200.29 1045.38,200.29 1049.87,200.28 1054.36,200.28 1058.85,200.27 1063.34,200.27 1067.83,200.26 1072.32,200.26 1076.81,200.26 1081.30,200.26 1085.79,200.26 1090.28,200.25 1094.77,200.25 1099.26,200.24 1103.75,200.24 1108.24,200.23 1112.73,200.23 1117.22,200.23 1121.71,200.22 1126.20,200.22 1130.69,200.21 1135.18,200.21 1139.67,200.21 1144.16,200.20 1148.65,200.20 1153.14,200.20 1157.63,200.19 1162.12,200.19 1166.61,200.19 1171.10,200.18 1175.59,200.18 1180.08,200.18 1184.57,200.17 1189.06,200.17 1193.55,200.17 1198.04,200.17 1202.53,200.16 1207.02,200.16 1211.51,200.16 1216.00,200.16" fill="none" stroke="#2458d3" stroke-width="2.2" stroke-linejoin="round" stroke-linecap="round" />
<polyline points="98.00,239.35 102.49,239.35 106.98,157.03 111.47,157.03 115.96,157.03 120.45,157.03 124.94,157.03 129.43,157.03 133.92,157.03 138.41,157.03 142.90,157.03 147.39,157.03 151.88,157.03 156.37,157.03 160.86,157.03 165.35,157.03 169.84,157.03 174.33,157.03 178.82,157.03 183.31,157.03 187.80,157.03 192.29,157.03 196.78,157.03 201.27,157.03 205.76,157.03 210.25,157.03 214.74,157.03 219.23,157.03 223.72,157.03 228.21,157.03 232.70,157.03 237.19,157.03 241.68,157.03 246.17,157.03 250.66,157.03 255.15,157.03 259.64,157.03 264.13,157.03 268.62,157.03 273.11,157.03 277.60,157.03 282.09,157.03 286.58,157.03 291.07,157.03 295.56,157.03 300.05,157.03 304.54,157.03 309.03,157.03 313.52,157.03 318.01,157.03 322.50,157.03 326.99,157.03 331.48,157.03 335.97,157.03 340.46,157.03 344.95,157.03 349.44,157.03 353.93,157.03 358.42,157.03 362.91,157.03 367.40,157.03 371.89,157.03 376.38,157.03 380.87,157.03 385.36,157.03 389.85,157.03 394.34,157.03 398.83,157.03 403.32,157.03 407.81,157.03 412.30,157.03 416.79,157.03 421.28,157.03 425.77,157.03 430.26,157.03 434.75,157.03 439.24,157.03 443.73,157.03 448.22,157.03 452.71,157.03 457.20,157.03 461.69,157.03 466.18,157.03 470.67,157.03 475.16,157.03 479.65,157.03 484.14,157.03 488.63,157.03 493.12,157.03 497.61,157.03 502.10,157.03 506.59,157.03 511.08,157.03 515.57,157.03 520.06,157.03 524.55,157.03 529.04,157.03 533.53,157.03 538.02,157.03 542.51,157.03 547.00,157.03 551.49,157.03 555.98,157.03 560.47,157.03 564.96,157.03 569.45,157.03 573.94,157.03 578.43,157.03 582.92,157.03 587.41,157.03 591.90,157.03 596.39,157.03 600.88,157.03 605.37,157.03 609.86,157.03 614.35,157.03 618.84,157.03 623.33,157.03 627.82,157.03 632.31,157.03 636.80,157.03 641.29,157.03 645.78,157.03 650.27,157.03 654.76,157.03 659.24,157.03 663.73,157.03 668.22,157.03 672.71,157.03 677.20,157.03 681.69,157.03 686.18,157.03 690.67,157.03 695.16,157.03 699.65,157.03 704.14,157.03 708.63,157.03 713.12,157.03 717.61,157.03 722.10,157.03 726.59,157.03 731.08,157.03 735.57,157.03 740.06,157.03 744.55,157.03 749.04,157.03 753.53,157.03 758.02,157.03 762.51,157.03 767.00,157.03 771.49,157.03 775.98,157.03 780.47,157.03 784.96,157.03 789.45,157.03 793.94,157.03 798.43,157.03 802.92,157.03 807.41,157.03 811.90,157.03 816.39,157.03 820.88,157.03 825.37,157.03 829.86,157.03 834.35,157.03 838.84,157.03 843.33,157.03 847.82,157.03 852.31,157.03 856.80,157.03 861.29,157.03 865.78,157.03 870.27,157.03 874.76,157.03 879.25,157.03 883.74,157.03 888.23,157.03 892.72,157.03 897.21,157.03 901.70,157.03 906.19,157.03 910.68,157.03 915.17,157.03 919.66,157.03 924.15,157.03 928.64,157.03 933.13,157.03 937.62,157.03 942.11,157.03 946.60,157.03 951.09,157.03 955.58,157.03 960.07,157.03 964.56,157.03 969.05,157.03 973.54,157.03 978.03,157.03 982.52,157.03 987.01,157.03 991.50,157.03 995.99,157.03 1000.48,157.03 1004.97,157.03 1009.46,157.03 1013.95,157.03 1018.44,157.03 1022.93,157.03 1027.42,157.03 1031.91,157.03 1036.40,157.03 1040.89,157.03 1045.38,157.03 1049.87,157.03 1054.36,157.03 1058.85,157.03 1063.34,157.03 1067.83,157.03 1072.32,157.03 1076.81,157.03 1081.30,157.03 1085.79,157.03 1090.28,157.31 1094.77,158.26 1099.26,159.18 1103.75,160.08 1108.24,160.97 1112.73,161.85 1117.22,162.70 1121.71,163.55 1126.20,164.37 1130.69,165.18 1135.18,165.97 1139.67,166.74 1144.16,167.49 1148.65,168.22 1153.14,168.94 1157.63,169.63 1162.12,170.31 1166.61,170.97 1171.10,171.61 1175.59,172.24 1180.08,172.85 1184.57,173.45 1189.06,174.03 1193.55,174.60 1198.04,175.15 1202.53,175.70 1207.02,176.23 1211.51,176.75 1216.00,177.25" fill="none" stroke="#2458d3" stroke-width="1.8" stroke-linejoin="round" stroke-linecap="round" stroke-dasharray="8 5" />
<rect x="40.0" y="370.0" width="1200.0" height="250.0" fill="#fbfbfd" stroke="#d7dbe5" stroke-width="1.0" rx="8.0" />
<text x="56.0" y="394.0" fill="#1f2430" font-size="16" font-family="Segoe UI, Arial, sans-serif" font-weight="600" text-anchor="start">Input u[1]</text>
<text x="56.0" y="412.0" fill="#5d6574" font-size="12" font-family="Segoe UI, Arial, sans-serif" font-weight="400" text-anchor="start">Transient window 0-249 steps</text>
<line x1="98.0" y1="588.0" x2="1216.0" y2="588.0" stroke="#d7dbe5" stroke-width="1.0" stroke-dasharray="4 4" />
<text x="90.0" y="592.0" fill="#5d6574" font-size="11" font-family="Segoe UI, Arial, sans-serif" font-weight="400" text-anchor="end">30.64</text>
<line x1="98.0" y1="508.0" x2="1216.0" y2="508.0" stroke="#d7dbe5" stroke-width="1.0" stroke-dasharray="4 4" />
<text x="90.0" y="512.0" fill="#5d6574" font-size="11" font-family="Segoe UI, Arial, sans-serif" font-weight="400" text-anchor="end">374</text>
<line x1="98.0" y1="428.0" x2="1216.0" y2="428.0" stroke="#d7dbe5" stroke-width="1.0" stroke-dasharray="4 4" />
<text x="90.0" y="432.0" fill="#5d6574" font-size="11" font-family="Segoe UI, Arial, sans-serif" font-weight="400" text-anchor="end">717.36</text>
<line x1="98.0" y1="428.0" x2="98.0" y2="588.0" stroke="#d7dbe5" stroke-width="1.0" stroke-dasharray="4 4" />
<text x="98.0" y="606.0" fill="#5d6574" font-size="11" font-family="Segoe UI, Arial, sans-serif" font-weight="400" text-anchor="middle">0</text>
<line x1="657.0" y1="428.0" x2="657.0" y2="588.0" stroke="#d7dbe5" stroke-width="1.0" stroke-dasharray="4 4" />
<text x="657.0" y="606.0" fill="#5d6574" font-size="11" font-family="Segoe UI, Arial, sans-serif" font-weight="400" text-anchor="middle">124</text>
<line x1="1216.0" y1="428.0" x2="1216.0" y2="588.0" stroke="#d7dbe5" stroke-width="1.0" stroke-dasharray="4 4" />
<text x="1216.0" y="606.0" fill="#5d6574" font-size="11" font-family="Segoe UI, Arial, sans-serif" font-weight="400" text-anchor="middle">249</text>
<line x1="98.0" y1="428.0" x2="98.0" y2="588.0" stroke="#2d3440" stroke-width="1.2" />
<line x1="98.0" y1="588.0" x2="1216.0" y2="588.0" stroke="#2d3440" stroke-width="1.2" />
<text x="56.0" y="442.0" fill="#5d6574" font-size="12" font-family="Segoe UI, Arial, sans-serif" font-weight="400" text-anchor="start">physical</text>
<polyline points="98.00,485.43 102.49,483.32 106.98,481.39 111.47,479.67 115.96,478.16 120.45,476.84 124.94,475.73 129.43,474.83 133.92,474.13 138.41,473.63 142.90,473.32 147.39,473.18 151.88,473.19 156.37,473.35 160.86,473.62 165.35,473.99 169.84,474.45 174.33,474.96 178.82,475.53 183.31,476.12 187.80,476.73 192.29,477.35 196.78,477.96 201.27,478.56 205.76,479.13 210.25,479.68 214.74,480.18 219.23,480.65 223.72,481.08 228.21,481.46 232.70,481.80 237.19,482.08 241.68,482.33 246.17,482.52 250.66,482.67 255.15,482.78 259.64,482.85 264.13,482.87 268.62,482.87 273.11,482.82 277.60,482.75 282.09,482.66 286.58,482.54 291.07,482.40 295.56,482.24 300.05,482.07 304.54,481.88 309.03,481.69 313.52,481.50 318.01,481.30 322.50,481.10 326.99,480.90 331.48,480.70 335.97,480.51 340.46,480.32 344.95,480.15 349.44,479.98 353.93,484.02 358.42,489.14 362.91,488.97 367.40,488.73 371.89,488.44 376.38,488.10 380.87,487.70 385.36,487.26 389.85,486.78 394.34,486.26 398.83,485.71 403.32,485.14 407.81,484.56 412.30,483.97 416.79,483.38 421.28,482.80 425.77,482.24 430.26,481.69 434.75,481.17 439.24,480.68 443.73,481.85 448.22,516.41 452.71,523.62 457.20,522.96 461.69,522.00 466.18,520.76 470.67,519.29 475.16,517.61 479.65,515.72 484.14,513.66 488.63,511.46 493.12,509.13 497.61,506.72 502.10,504.24 506.59,501.75 511.08,514.92 515.57,514.92 520.06,512.32 524.55,509.56 529.04,506.67 533.53,503.69 538.02,500.66 542.51,497.61 547.00,494.58 551.49,491.62 555.98,488.75 560.47,485.99 564.96,483.39 569.45,480.94 573.94,478.69 578.43,476.63 582.92,474.77 587.41,473.12 591.90,471.69 596.39,470.46 600.88,469.43 605.37,468.60 609.86,467.95 614.35,467.47 618.84,467.14 623.33,439.03 627.82,439.03 632.31,439.40 636.80,440.17 641.29,441.33 645.78,442.83 650.27,444.66 654.76,446.76 659.24,449.10 663.73,451.63 668.22,454.30 672.71,457.06 677.20,459.88 681.69,462.71 686.18,465.52 690.67,468.27 695.16,470.95 699.65,473.52 704.14,475.98 708.63,478.30 713.12,480.49 717.61,482.51 722.10,484.38 726.59,486.09 731.08,487.63 735.57,489.00 740.06,490.21 744.55,491.25 749.04,492.13 753.53,492.86 758.02,493.43 762.51,493.85 767.00,494.14 771.49,504.35 775.98,512.20 780.47,512.04 784.96,511.64 789.45,510.99 793.94,510.10 798.43,508.97 802.92,507.63 807.41,506.10 811.90,504.42 816.39,502.60 820.88,500.69 825.37,498.71 829.86,496.70 834.35,494.68 838.84,492.67 843.33,490.71 847.82,488.80 852.31,486.98 856.80,485.26 861.29,483.64 865.78,482.14 870.27,480.77 874.76,479.53 879.25,478.42 883.74,477.45 888.23,476.61 892.72,475.90 897.21,475.31 901.70,474.84 906.19,474.48 910.68,474.22 915.17,474.06 919.66,473.98 924.15,473.97 928.64,466.70 933.13,466.70 937.62,467.00 942.11,467.54 946.60,468.39 951.09,469.56 955.58,471.04 960.07,472.80 964.56,474.81 969.05,477.04 973.54,479.44 978.03,481.99 982.52,484.65 987.01,487.39 991.50,490.17 995.99,492.98 1000.48,495.78 1004.97,498.55 1009.46,501.27 1013.95,503.91 1018.44,506.45 1022.93,508.88 1027.42,511.17 1031.91,513.30 1036.40,515.26 1040.89,517.02 1045.38,518.55 1049.87,518.55 1054.36,518.55 1058.85,518.55 1063.34,518.55 1067.83,518.55 1072.32,518.55 1076.81,518.55 1081.30,518.55 1085.79,518.55 1090.28,546.70 1094.77,545.84 1099.26,544.72 1103.75,543.13 1108.24,540.92 1112.73,538.07 1117.22,534.57 1121.71,530.50 1126.20,525.95 1130.69,521.01 1135.18,515.79 1139.67,510.40 1144.16,504.93 1148.65,499.47 1153.14,494.10 1157.63,488.90 1162.12,483.93 1166.61,479.24 1171.10,474.89 1175.59,470.91 1180.08,467.32 1184.57,464.16 1189.06,461.43 1193.55,459.14 1198.04,457.27 1202.53,455.82 1207.02,454.76 1211.51,454.06 1216.00,454.06" fill="none" stroke="#bf1e2d" stroke-width="2.2" stroke-linejoin="round" stroke-linecap="round" />
<polyline points="98.00,439.03 102.49,439.03 106.98,439.03 111.47,576.97 115.96,576.97 120.45,576.97 124.94,576.97 129.43,576.97 133.92,576.97 138.41,576.97 142.90,576.97 147.39,576.97 151.88,576.97 156.37,576.97 160.86,576.97 165.35,576.97 169.84,576.97 174.33,576.97 178.82,576.97 183.31,576.97 187.80,576.97 192.29,576.97 196.78,576.97 201.27,576.97 205.76,576.97 210.25,576.97 214.74,576.97 219.23,576.97 223.72,576.97 228.21,576.97 232.70,576.97 237.19,576.97 241.68,576.97 246.17,576.97 250.66,576.97 255.15,576.97 259.64,576.97 264.13,576.97 268.62,576.97 273.11,576.97 277.60,576.97 282.09,576.97 286.58,576.97 291.07,576.97 295.56,576.97 300.05,576.97 304.54,576.97 309.03,576.97 313.52,576.97 318.01,576.97 322.50,576.97 326.99,576.97 331.48,576.97 335.97,576.97 340.46,576.97 344.95,576.97 349.44,576.97 353.93,576.97 358.42,576.97 362.91,576.97 367.40,459.43 371.89,439.03 376.38,439.03 380.87,439.03 385.36,439.03 389.85,439.03 394.34,439.03 398.83,439.03 403.32,439.03 407.81,439.03 412.30,439.03 416.79,439.03 421.28,439.03 425.77,439.03 430.26,439.03 434.75,439.03 439.24,439.03 443.73,439.03 448.22,462.57 452.71,461.30 457.20,439.03 461.69,439.03 466.18,439.03 470.67,439.03 475.16,439.03 479.65,439.03 484.14,439.03 488.63,439.03 493.12,439.03 497.61,439.03 502.10,439.03 506.59,439.03 511.08,439.03 515.57,439.03 520.06,439.03 524.55,439.03 529.04,439.03 533.53,439.03 538.02,439.03 542.51,439.03 547.00,439.03 551.49,439.03 555.98,439.03 560.47,439.03 564.96,439.03 569.45,439.03 573.94,439.03 578.43,439.03 582.92,439.03 587.41,439.03 591.90,439.03 596.39,439.03 600.88,439.03 605.37,439.03 609.86,439.03 614.35,439.03 618.84,439.03 623.33,540.50 627.82,549.66 632.31,576.97 636.80,576.97 641.29,576.97 645.78,576.97 650.27,576.97 654.76,576.97 659.24,576.97 663.73,576.97 668.22,576.97 672.71,576.97 677.20,576.97 681.69,576.97 686.18,576.97 690.67,576.97 695.16,576.97 699.65,576.97 704.14,576.97 708.63,576.97 713.12,576.97 717.61,576.97 722.10,576.97 726.59,576.97 731.08,576.97 735.57,576.97 740.06,576.97 744.55,576.97 749.04,576.97 753.53,576.97 758.02,576.97 762.51,576.97 767.00,576.97 771.49,576.97 775.98,576.97 780.47,576.97 784.96,462.78 789.45,439.03 793.94,439.03 798.43,439.03 802.92,439.03 807.41,439.03 811.90,439.03 816.39,439.03 820.88,439.03 825.37,439.03 829.86,439.03 834.35,439.03 838.84,439.03 843.33,439.03 847.82,439.03 852.31,439.03 856.80,439.03 861.29,439.03 865.78,439.03 870.27,439.03 874.76,504.66 879.25,576.97 883.74,576.97 888.23,576.97 892.72,576.97 897.21,576.97 901.70,576.97 906.19,576.97 910.68,576.97 915.17,576.97 919.66,576.97 924.15,576.97 928.64,576.97 933.13,576.97 937.62,576.97 942.11,576.97 946.60,576.97 951.09,576.97 955.58,576.97 960.07,576.97 964.56,576.97 969.05,576.97 973.54,576.97 978.03,576.97 982.52,576.97 987.01,576.97 991.50,576.97 995.99,576.97 1000.48,576.97 1004.97,576.97 1009.46,576.97 1013.95,576.97 1018.44,576.97 1022.93,576.97 1027.42,576.97 1031.91,576.97 1036.40,576.97 1040.89,576.97 1045.38,576.97 1049.87,576.97 1054.36,576.97 1058.85,576.97 1063.34,576.97 1067.83,576.97 1072.32,576.97 1076.81,576.97 1081.30,576.97 1085.79,576.97 1090.28,576.97 1094.77,576.97 1099.26,576.97 1103.75,576.97 1108.24,439.03 1112.73,439.03 1117.22,439.03 1121.71,439.03 1126.20,439.03 1130.69,439.03 1135.18,439.03 1139.67,439.03 1144.16,439.03 1148.65,439.03 1153.14,439.03 1157.63,439.03 1162.12,439.03 1166.61,439.03 1171.10,439.03 1175.59,439.03 1180.08,439.03 1184.57,439.03 1189.06,439.03 1193.55,439.03 1198.04,576.97 1202.53,576.97 1207.02,576.97 1211.51,576.97 1216.00,576.97" fill="none" stroke="#bf1e2d" stroke-width="1.8" stroke-linejoin="round" stroke-linecap="round" stroke-dasharray="8 5" />
<polyline points="98.00,498.21 102.49,496.10 106.98,494.06 111.47,492.11 115.96,490.27 120.45,488.54 124.94,486.92 129.43,485.44 133.92,484.09 138.41,482.88 142.90,481.81 147.39,480.87 151.88,480.07 156.37,479.40 160.86,478.85 165.35,478.42 169.84,478.09 174.33,477.86 178.82,477.71 183.31,477.64 187.80,477.64 192.29,477.70 196.78,477.81 201.27,477.95 205.76,478.13 210.25,478.33 214.74,478.54 219.23,478.77 223.72,479.00 228.21,479.23 232.70,479.45 237.19,479.67 241.68,479.88 246.17,480.07 250.66,480.24 255.15,480.40 259.64,480.54 264.13,480.66 268.62,480.75 273.11,480.83 277.60,480.89 282.09,480.93 286.58,480.95 291.07,480.96 295.56,480.94 300.05,480.92 304.54,480.88 309.03,480.83 313.52,480.76 318.01,480.69 322.50,480.61 326.99,480.52 331.48,480.43 335.97,480.33 340.46,480.24 344.95,480.14 349.44,480.04 353.93,479.94 358.42,479.84 362.91,479.74 367.40,479.65 371.89,479.56 376.38,479.47 380.87,479.39 385.36,479.31 389.85,479.24 394.34,479.17 398.83,479.10 403.32,479.05 407.81,478.99 412.30,478.94 416.79,478.90 421.28,478.86 425.77,478.83 430.26,478.80 434.75,478.77 439.24,478.75 443.73,478.73 448.22,478.71 452.71,478.70 457.20,478.69 461.69,478.69 466.18,478.68 470.67,478.68 475.16,478.68 479.65,478.68 484.14,478.68 488.63,478.68 493.12,478.68 497.61,478.69 502.10,478.69 506.59,478.70 511.08,478.70 515.57,478.71 520.06,478.71 524.55,478.72 529.04,478.72 533.53,478.73 538.02,478.73 542.51,478.74 547.00,478.74 551.49,478.75 555.98,478.75 560.47,478.76 564.96,478.76 569.45,478.77 573.94,478.77 578.43,478.77 582.92,478.77 587.41,478.78 591.90,478.78 596.39,478.78 600.88,478.79 605.37,478.79 609.86,478.79 614.35,478.79 618.84,478.79 623.33,478.80 627.82,478.80 632.31,478.80 636.80,478.80 641.29,478.80 645.78,478.80 650.27,478.81 654.76,478.81 659.24,478.81 663.73,478.81 668.22,478.81 672.71,478.82 677.20,478.82 681.69,478.82 686.18,478.82 690.67,478.82 695.16,478.83 699.65,478.83 704.14,478.83 708.63,478.83 713.12,478.83 717.61,478.84 722.10,478.84 726.59,478.84 731.08,478.84 735.57,478.85 740.06,478.85 744.55,478.85 749.04,478.85 753.53,478.85 758.02,478.86 762.51,478.86 767.00,478.86 771.49,478.86 775.98,478.87 780.47,478.87 784.96,478.87 789.45,478.87 793.94,478.87 798.43,478.88 802.92,478.88 807.41,478.88 811.90,478.88 816.39,478.88 820.88,478.88 825.37,478.89 829.86,478.89 834.35,478.89 838.84,478.89 843.33,478.89 847.82,478.89 852.31,478.90 856.80,478.90 861.29,478.90 865.78,478.90 870.27,478.90 874.76,478.90 879.25,478.90 883.74,478.91 888.23,478.91 892.72,478.91 897.21,478.91 901.70,478.91 906.19,478.91 910.68,478.91 915.17,478.91 919.66,478.92 924.15,478.92 928.64,478.92 933.13,478.92 937.62,478.92 942.11,478.92 946.60,478.92 951.09,478.92 955.58,478.92 960.07,478.92 964.56,478.93 969.05,478.93 973.54,478.93 978.03,478.93 982.52,478.93 987.01,478.93 991.50,478.93 995.99,478.93 1000.48,478.93 1004.97,478.93 1009.46,478.93 1013.95,478.93 1018.44,478.93 1022.93,478.94 1027.42,478.94 1031.91,478.94 1036.40,478.94 1040.89,478.94 1045.38,478.94 1049.87,478.94 1054.36,478.94 1058.85,478.94 1063.34,478.94 1067.83,478.94 1072.32,478.94 1076.81,478.94 1081.30,478.94 1085.79,479.40 1090.28,479.63 1094.77,479.63 1099.26,479.62 1103.75,479.61 1108.24,479.59 1112.73,466.97 1117.22,452.70 1121.71,452.77 1126.20,453.03 1130.69,453.44 1135.18,453.99 1139.67,454.65 1144.16,455.43 1148.65,456.32 1153.14,457.32 1157.63,458.39 1162.12,459.55 1166.61,567.03 1171.10,567.03 1175.59,567.57 1180.08,567.54 1184.57,567.06 1189.06,566.21 1193.55,565.04 1198.04,563.56 1202.53,561.80 1207.02,559.77 1211.51,557.52 1216.00,555.06" fill="none" stroke="#c96b17" stroke-width="2.2" stroke-linejoin="round" stroke-linecap="round" />
<polyline points="98.00,439.03 102.49,439.03 106.98,439.03 111.47,439.03 115.96,507.20 120.45,576.97 124.94,576.97 129.43,576.97 133.92,576.97 138.41,576.97 142.90,576.97 147.39,576.97 151.88,576.97 156.37,576.97 160.86,576.97 165.35,576.97 169.84,576.97 174.33,576.97 178.82,576.97 183.31,576.97 187.80,576.97 192.29,576.97 196.78,576.97 201.27,576.97 205.76,576.97 210.25,576.97 214.74,576.97 219.23,576.97 223.72,576.97 228.21,576.97 232.70,576.97 237.19,576.97 241.68,576.97 246.17,576.97 250.66,576.97 255.15,576.97 259.64,576.97 264.13,576.97 268.62,576.97 273.11,576.97 277.60,576.97 282.09,576.97 286.58,576.97 291.07,576.97 295.56,576.97 300.05,576.97 304.54,576.97 309.03,576.97 313.52,576.97 318.01,576.97 322.50,576.97 326.99,576.97 331.48,576.97 335.97,576.97 340.46,576.97 344.95,576.97 349.44,576.97 353.93,576.97 358.42,576.97 362.91,576.97 367.40,576.97 371.89,576.97 376.38,576.97 380.87,576.97 385.36,576.97 389.85,576.97 394.34,576.97 398.83,576.97 403.32,576.97 407.81,576.97 412.30,576.97 416.79,576.97 421.28,576.97 425.77,576.97 430.26,576.97 434.75,576.97 439.24,576.97 443.73,576.97 448.22,576.97 452.71,576.97 457.20,576.97 461.69,576.97 466.18,576.97 470.67,576.97 475.16,575.53 479.65,571.96 484.14,568.42 488.63,564.91 493.12,561.46 497.61,558.06 502.10,554.72 506.59,551.45 511.08,548.26 515.57,545.15 520.06,542.12 524.55,539.19 529.04,536.34 533.53,533.59 538.02,530.93 542.51,528.36 547.00,525.88 551.49,523.50 555.98,521.21 560.47,519.00 564.96,516.88 569.45,514.85 573.94,512.89 578.43,511.01 582.92,509.21 587.41,507.48 591.90,505.81 596.39,504.21 600.88,502.67 605.37,501.19 609.86,499.76 614.35,498.38 618.84,497.05 623.33,495.76 627.82,494.52 632.31,493.32 636.80,492.16 641.29,491.03 645.78,489.93 650.27,488.86 654.76,487.83 659.24,486.82 663.73,485.84 668.22,484.88 672.71,483.95 677.20,483.03 681.69,482.14 686.18,481.27 690.67,480.42 695.16,479.59 699.65,478.78 704.14,477.98 708.63,477.21 713.12,476.44 717.61,475.70 722.10,474.97 726.59,474.26 731.08,473.56 735.57,472.88 740.06,472.21 744.55,471.56 749.04,470.92 753.53,470.29 758.02,469.69 762.51,469.09 767.00,468.51 771.49,467.94 775.98,467.39 780.47,466.84 784.96,466.32 789.45,465.80 793.94,465.30 798.43,464.81 802.92,464.33 807.41,463.86 811.90,463.41 816.39,462.96 820.88,462.53 825.37,462.11 829.86,461.70 834.35,461.30 838.84,460.91 843.33,460.53 847.82,460.16 852.31,459.80 856.80,459.45 861.29,459.11 865.78,458.78 870.27,458.45 874.76,458.13 879.25,457.83 883.74,457.52 888.23,457.23 892.72,456.95 897.21,456.67 901.70,456.39 906.19,456.13 910.68,455.87 915.17,455.62 919.66,455.37 924.15,455.13 928.64,454.90 933.13,454.67 937.62,454.45 942.11,454.23 946.60,454.02 951.09,453.81 955.58,453.61 960.07,453.41 964.56,453.22 969.05,453.03 973.54,452.85 978.03,452.67 982.52,452.50 987.01,452.33 991.50,452.16 995.99,452.00 1000.48,451.84 1004.97,451.68 1009.46,451.53 1013.95,451.38 1018.44,451.24 1022.93,451.10 1027.42,450.96 1031.91,450.83 1036.40,450.70 1040.89,450.57 1045.38,450.44 1049.87,450.32 1054.36,450.20 1058.85,450.09 1063.34,449.97 1067.83,449.86 1072.32,449.76 1076.81,449.65 1081.30,449.56 1085.79,449.50 1090.28,449.63 1094.77,446.83 1099.26,441.94 1103.75,439.03 1108.24,439.03 1112.73,439.03 1117.22,439.03 1121.71,576.97 1126.20,576.97 1130.69,576.97 1135.18,576.97 1139.67,576.97 1144.16,576.97 1148.65,576.97 1153.14,576.97 1157.63,576.97 1162.12,576.97 1166.61,576.97 1171.10,576.97 1175.59,439.03 1180.08,439.03 1184.57,439.03 1189.06,439.03 1193.55,439.03 1198.04,439.03 1202.53,439.03 1207.02,439.03 1211.51,439.03 1216.00,439.03" fill="none" stroke="#c96b17" stroke-width="1.8" stroke-linejoin="round" stroke-linecap="round" stroke-dasharray="8 5" />
<polyline points="98.00,500.33 102.49,498.21 106.98,496.15 111.47,494.16 115.96,492.27 120.45,490.47 124.94,488.77 129.43,487.19 133.92,485.73 138.41,484.41 142.90,483.21 147.39,482.14 151.88,481.20 156.37,480.39 160.86,479.71 165.35,479.14 169.84,478.68 174.33,478.32 178.82,478.06 183.31,477.88 187.80,477.78 192.29,477.74 196.78,477.76 201.27,477.83 205.76,477.94 210.25,478.08 214.74,478.25 219.23,478.44 223.72,478.64 228.21,478.85 232.70,479.06 237.19,479.26 241.68,479.47 246.17,479.66 250.66,479.84 255.15,480.00 259.64,480.16 264.13,480.29 268.62,480.41 273.11,480.50 277.60,480.58 282.09,480.65 286.58,480.69 291.07,480.72 295.56,480.73 300.05,480.73 304.54,480.71 309.03,480.68 313.52,480.64 318.01,480.59 322.50,480.53 326.99,480.46 331.48,480.38 335.97,480.30 340.46,480.22 344.95,480.13 349.44,480.04 353.93,479.95 358.42,479.86 362.91,479.77 367.40,479.68 371.89,479.60 376.38,479.51 380.87,479.43 385.36,479.36 389.85,479.29 394.34,479.22 398.83,479.15 403.32,479.09 407.81,479.04 412.30,478.99 416.79,478.94 421.28,478.90 425.77,478.87 430.26,478.83 434.75,478.81 439.24,478.78 443.73,478.76 448.22,478.74 452.71,478.73 457.20,478.71 461.69,478.70 466.18,478.70 470.67,478.69 475.16,478.69 479.65,478.69 484.14,478.69 488.63,478.69 493.12,478.69 497.61,478.69 502.10,478.69 506.59,478.70 511.08,478.70 515.57,478.71 520.06,478.71 524.55,478.72 529.04,478.72 533.53,478.73 538.02,478.73 542.51,478.74 547.00,478.74 551.49,478.75 555.98,478.75 560.47,478.76 564.96,478.76 569.45,478.77 573.94,478.77 578.43,478.77 582.92,478.78 587.41,478.78 591.90,478.78 596.39,478.79 600.88,478.79 605.37,478.79 609.86,478.79 614.35,478.80 618.84,478.80 623.33,478.80 627.82,478.80 632.31,478.80 636.80,478.81 641.29,478.81 645.78,478.81 650.27,478.81 654.76,478.81 659.24,478.81 663.73,478.82 668.22,478.82 672.71,478.82 677.20,478.82 681.69,478.82 686.18,478.83 690.67,478.83 695.16,478.83 699.65,478.83 704.14,478.83 708.63,478.84 713.12,478.84 717.61,478.84 722.10,478.84 726.59,478.84 731.08,478.85 735.57,478.85 740.06,478.85 744.55,478.85 749.04,478.85 753.53,478.86 758.02,478.86 762.51,478.86 767.00,478.86 771.49,478.87 775.98,478.87 780.47,478.87 784.96,478.87 789.45,478.87 793.94,478.88 798.43,478.88 802.92,478.88 807.41,478.88 811.90,478.88 816.39,478.88 820.88,478.89 825.37,478.89 829.86,478.89 834.35,478.89 838.84,478.89 843.33,478.89 847.82,478.90 852.31,478.90 856.80,478.90 861.29,478.90 865.78,478.90 870.27,478.90 874.76,478.90 879.25,478.91 883.74,478.91 888.23,478.91 892.72,478.91 897.21,478.91 901.70,478.91 906.19,478.91 910.68,478.91 915.17,478.92 919.66,478.92 924.15,478.92 928.64,478.92 933.13,478.92 937.62,478.92 942.11,478.92 946.60,478.92 951.09,478.92 955.58,478.92 960.07,478.93 964.56,478.93 969.05,478.93 973.54,478.93 978.03,478.93 982.52,478.93 987.01,478.93 991.50,478.93 995.99,478.93 1000.48,478.93 1004.97,478.93 1009.46,478.93 1013.95,478.93 1018.44,478.94 1022.93,478.94 1027.42,478.94 1031.91,478.94 1036.40,478.94 1040.89,478.94 1045.38,478.94 1049.87,478.94 1054.36,478.94 1058.85,478.94 1063.34,478.94 1067.83,478.94 1072.32,478.94 1076.81,478.94 1081.30,478.94 1085.79,478.94 1090.28,479.07 1094.77,479.13 1099.26,479.13 1103.75,479.13 1108.24,479.12 1112.73,479.12 1117.22,479.11 1121.71,479.58 1126.20,479.73 1130.69,479.71 1135.18,476.24 1139.67,454.46 1144.16,454.46 1148.65,454.63 1153.14,455.00 1157.63,455.52 1162.12,456.21 1166.61,457.04 1171.10,458.00 1175.59,459.09 1180.08,460.29 1184.57,461.56 1189.06,462.90 1193.55,464.28 1198.04,465.68 1202.53,467.08 1207.02,468.46 1211.51,469.81 1216.00,471.11" fill="none" stroke="#2a7f62" stroke-width="2.2" stroke-linejoin="round" stroke-linecap="round" />
<polyline points="98.00,439.03 102.49,439.03 106.98,439.03 111.47,439.03 115.96,439.03 120.45,544.92 124.94,576.97 129.43,576.97 133.92,576.97 138.41,576.97 142.90,576.97 147.39,576.97 151.88,576.97 156.37,576.97 160.86,576.97 165.35,576.97 169.84,576.97 174.33,576.97 178.82,576.97 183.31,576.97 187.80,576.97 192.29,576.97 196.78,576.97 201.27,576.97 205.76,576.97 210.25,576.97 214.74,576.97 219.23,576.97 223.72,576.97 228.21,576.97 232.70,576.97 237.19,576.97 241.68,576.97 246.17,576.97 250.66,576.97 255.15,576.97 259.64,576.97 264.13,576.97 268.62,576.97 273.11,576.97 277.60,576.97 282.09,576.97 286.58,576.97 291.07,576.97 295.56,576.97 300.05,576.97 304.54,576.97 309.03,576.97 313.52,576.97 318.01,576.97 322.50,576.97 326.99,576.97 331.48,576.97 335.97,576.97 340.46,576.97 344.95,576.97 349.44,576.97 353.93,576.97 358.42,576.97 362.91,576.97 367.40,576.97 371.89,576.97 376.38,576.97 380.87,576.97 385.36,576.97 389.85,576.97 394.34,576.97 398.83,576.97 403.32,576.97 407.81,576.97 412.30,576.97 416.79,576.97 421.28,576.97 425.77,576.97 430.26,576.97 434.75,576.97 439.24,576.97 443.73,576.97 448.22,576.97 452.71,576.97 457.20,576.97 461.69,576.97 466.18,576.97 470.67,576.97 475.16,574.25 479.65,570.86 484.14,567.49 488.63,564.14 493.12,560.82 497.61,557.54 502.10,554.31 506.59,551.14 511.08,548.03 515.57,544.99 520.06,542.03 524.55,539.14 529.04,536.33 533.53,533.61 538.02,530.97 542.51,528.42 547.00,525.95 551.49,523.57 555.98,521.28 560.47,519.07 564.96,516.94 569.45,514.90 573.94,512.93 578.43,511.04 582.92,509.22 587.41,507.47 591.90,505.79 596.39,504.17 600.88,502.62 605.37,501.12 609.86,499.68 614.35,498.29 618.84,496.95 623.33,495.66 627.82,494.41 632.31,493.20 636.80,492.03 641.29,490.90 645.78,489.80 650.27,488.73 654.76,487.70 659.24,486.69 663.73,485.71 668.22,484.75 672.71,483.82 677.20,482.91 681.69,482.03 686.18,481.16 690.67,480.32 695.16,479.49 699.65,478.69 704.14,477.90 708.63,477.13 713.12,476.37 717.61,475.63 722.10,474.91 726.59,474.20 731.08,473.51 735.57,472.83 740.06,472.17 744.55,471.52 749.04,470.89 753.53,470.27 758.02,469.67 762.51,469.08 767.00,468.50 771.49,467.93 775.98,467.38 780.47,466.84 784.96,466.32 789.45,465.81 793.94,465.31 798.43,464.82 802.92,464.34 807.41,463.88 811.90,463.42 816.39,462.98 820.88,462.55 825.37,462.13 829.86,461.72 834.35,461.32 838.84,460.93 843.33,460.55 847.82,460.18 852.31,459.82 856.80,459.47 861.29,459.13 865.78,458.80 870.27,458.47 874.76,458.15 879.25,457.85 883.74,457.55 888.23,457.25 892.72,456.97 897.21,456.69 901.70,456.42 906.19,456.15 910.68,455.89 915.17,455.64 919.66,455.39 924.15,455.15 928.64,454.92 933.13,454.69 937.62,454.47 942.11,454.25 946.60,454.04 951.09,453.83 955.58,453.63 960.07,453.43 964.56,453.24 969.05,453.05 973.54,452.87 978.03,452.69 982.52,452.52 987.01,452.35 991.50,452.18 995.99,452.02 1000.48,451.86 1004.97,451.70 1009.46,451.55 1013.95,451.40 1018.44,451.26 1022.93,451.12 1027.42,450.98 1031.91,450.85 1036.40,450.72 1040.89,450.59 1045.38,450.46 1049.87,450.34 1054.36,450.22 1058.85,450.11 1063.34,449.99 1067.83,449.88 1072.32,449.77 1076.81,449.67 1081.30,449.58 1085.79,449.52 1090.28,449.65 1094.77,450.38 1099.26,450.10 1103.75,449.28 1108.24,448.46 1112.73,447.69 1117.22,446.94 1121.71,446.23 1126.20,445.62 1130.69,441.01 1135.18,439.03 1139.67,439.03 1144.16,439.03 1148.65,576.97 1153.14,576.97 1157.63,576.97 1162.12,576.97 1166.61,576.97 1171.10,576.97 1175.59,576.97 1180.08,576.97 1184.57,576.97 1189.06,576.97 1193.55,576.97 1198.04,576.97 1202.53,576.97 1207.02,576.97 1211.51,576.97 1216.00,576.97" fill="none" stroke="#2a7f62" stroke-width="1.8" stroke-linejoin="round" stroke-linecap="round" stroke-dasharray="8 5" />
<polyline points="98.00,502.43 102.49,500.31 106.98,498.23 111.47,496.21 115.96,494.26 120.45,492.39 124.94,490.61 129.43,488.94 133.92,487.37 138.41,485.92 142.90,484.60 147.39,483.40 151.88,482.33 156.37,481.38 160.86,480.56 165.35,479.85 169.84,479.26 174.33,478.78 178.82,478.40 183.31,478.11 187.80,477.90 192.29,477.77 196.78,477.71 201.27,477.71 205.76,477.75 210.25,477.84 214.74,477.96 219.23,478.11 223.72,478.28 228.21,478.47 232.70,478.66 237.19,478.86 241.68,479.05 246.17,479.25 250.66,479.43 255.15,479.61 259.64,479.77 264.13,479.92 268.62,480.06 273.11,480.18 277.60,480.28 282.09,480.37 286.58,480.43 291.07,480.49 295.56,480.52 300.05,480.54 304.54,480.55 309.03,480.54 313.52,480.52 318.01,480.49 322.50,480.45 326.99,480.40 331.48,480.34 335.97,480.27 340.46,480.20 344.95,480.12 349.44,480.05 353.93,479.96 358.42,479.88 362.91,479.80 367.40,479.72 371.89,479.64 376.38,479.56 380.87,479.48 385.36,479.41 389.85,479.33 394.34,479.27 398.83,479.20 403.32,479.14 407.81,479.09 412.30,479.03 416.79,478.99 421.28,478.94 425.77,478.90 430.26,478.87 434.75,478.84 439.24,478.81 443.73,478.79 448.22,478.77 452.71,478.75 457.20,478.73 461.69,478.72 466.18,478.71 470.67,478.70 475.16,478.70 479.65,478.69 484.14,478.69 488.63,478.69 493.12,478.69 497.61,478.69 502.10,478.70 506.59,478.70 511.08,478.70 515.57,478.71 520.06,478.71 524.55,478.72 529.04,478.72 533.53,478.73 538.02,478.73 542.51,478.74 547.00,478.75 551.49,478.75 555.98,478.75 560.47,478.76 564.96,478.76 569.45,478.77 573.94,478.77 578.43,478.78 582.92,478.78 587.41,478.78 591.90,478.79 596.39,478.79 600.88,478.79 605.37,478.79 609.86,478.80 614.35,478.80 618.84,478.80 623.33,478.80 627.82,478.81 632.31,478.81 636.80,478.81 641.29,478.81 645.78,478.81 650.27,478.81 654.76,478.82 659.24,478.82 663.73,478.82 668.22,478.82 672.71,478.82 677.20,478.83 681.69,478.83 686.18,478.83 690.67,478.83 695.16,478.83 699.65,478.83 704.14,478.84 708.63,478.84 713.12,478.84 717.61,478.84 722.10,478.84 726.59,478.85 731.08,478.85 735.57,478.85 740.06,478.85 744.55,478.85 749.04,478.86 753.53,478.86 758.02,478.86 762.51,478.86 767.00,478.86 771.49,478.87 775.98,478.87 780.47,478.87 784.96,478.87 789.45,478.87 793.94,478.88 798.43,478.88 802.92,478.88 807.41,478.88 811.90,478.88 816.39,478.89 820.88,478.89 825.37,478.89 829.86,478.89 834.35,478.89 838.84,478.89 843.33,478.90 847.82,478.90 852.31,478.90 856.80,478.90 861.29,478.90 865.78,478.90 870.27,478.90 874.76,478.91 879.25,478.91 883.74,478.91 888.23,478.91 892.72,478.91 897.21,478.91 901.70,478.91 906.19,478.91 910.68,478.92 915.17,478.92 919.66,478.92 924.15,478.92 928.64,478.92 933.13,478.92 937.62,478.92 942.11,478.92 946.60,478.92 951.09,478.92 955.58,478.92 960.07,478.93 964.56,478.93 969.05,478.93 973.54,478.93 978.03,478.93 982.52,478.93 987.01,478.93 991.50,478.93 995.99,478.93 1000.48,478.93 1004.97,478.93 1009.46,478.93 1013.95,478.93 1018.44,478.94 1022.93,478.94 1027.42,478.94 1031.91,478.94 1036.40,478.94 1040.89,478.94 1045.38,478.94 1049.87,478.94 1054.36,478.94 1058.85,478.94 1063.34,478.94 1067.83,478.94 1072.32,478.94 1076.81,478.94 1081.30,478.94 1085.79,478.94 1090.28,478.94 1094.77,478.94 1099.26,478.94 1103.75,478.94 1108.24,478.95 1112.73,478.95 1117.22,478.95 1121.71,478.95 1126.20,478.95 1130.69,478.95 1135.18,478.95 1139.67,478.95 1144.16,478.95 1148.65,478.95 1153.14,478.95 1157.63,478.95 1162.12,478.95 1166.61,478.95 1171.10,478.95 1175.59,478.95 1180.08,478.95 1184.57,478.95 1189.06,478.95 1193.55,478.96 1198.04,478.96 1202.53,478.96 1207.02,478.96 1211.51,478.96 1216.00,478.96" fill="none" stroke="#2458d3" stroke-width="2.2" stroke-linejoin="round" stroke-linecap="round" />
<polyline points="98.00,439.03 102.49,439.03 106.98,439.03 111.47,439.03 115.96,439.03 120.45,439.03 124.94,547.20 129.43,576.97 133.92,576.97 138.41,576.97 142.90,576.97 147.39,576.97 151.88,576.97 156.37,576.97 160.86,576.97 165.35,576.97 169.84,576.97 174.33,576.97 178.82,576.97 183.31,576.97 187.80,576.97 192.29,576.97 196.78,576.97 201.27,576.97 205.76,576.97 210.25,576.97 214.74,576.97 219.23,576.97 223.72,576.97 228.21,576.97 232.70,576.97 237.19,576.97 241.68,576.97 246.17,576.97 250.66,576.97 255.15,576.97 259.64,576.97 264.13,576.97 268.62,576.97 273.11,576.97 277.60,576.97 282.09,576.97 286.58,576.97 291.07,576.97 295.56,576.97 300.05,576.97 304.54,576.97 309.03,576.97 313.52,576.97 318.01,576.97 322.50,576.97 326.99,576.97 331.48,576.97 335.97,576.97 340.46,576.97 344.95,576.97 349.44,576.97 353.93,576.97 358.42,576.97 362.91,576.97 367.40,576.97 371.89,576.97 376.38,576.97 380.87,576.97 385.36,576.97 389.85,576.97 394.34,576.97 398.83,576.97 403.32,576.97 407.81,576.97 412.30,576.97 416.79,576.97 421.28,576.97 425.77,576.97 430.26,576.97 434.75,576.97 439.24,576.97 443.73,576.97 448.22,576.97 452.71,576.97 457.20,576.97 461.69,576.97 466.18,576.97 470.67,576.10 475.16,572.91 479.65,569.71 484.14,566.50 488.63,563.30 493.12,560.12 497.61,556.96 502.10,553.84 506.59,550.77 511.08,547.74 515.57,544.77 520.06,541.87 524.55,539.03 529.04,536.26 533.53,533.57 538.02,530.95 542.51,528.42 547.00,525.96 551.49,523.59 555.98,521.29 560.47,519.08 564.96,516.95 569.45,514.89 573.94,512.91 578.43,511.01 582.92,509.18 587.41,507.41 591.90,505.72 596.39,504.09 600.88,502.52 605.37,501.01 609.86,499.56 614.35,498.16 618.84,496.81 623.33,495.51 627.82,494.25 632.31,493.04 636.80,491.87 641.29,490.73 645.78,489.63 650.27,488.56 654.76,487.53 659.24,486.52 663.73,485.54 668.22,484.59 672.71,483.67 677.20,482.76 681.69,481.88 686.18,481.02 690.67,480.18 695.16,479.37 699.65,478.57 704.14,477.78 708.63,477.02 713.12,476.27 717.61,475.54 722.10,474.82 726.59,474.12 731.08,473.44 735.57,472.77 740.06,472.11 744.55,471.47 749.04,470.84 753.53,470.23 758.02,469.63 762.51,469.04 767.00,468.47 771.49,467.91 775.98,467.36 780.47,466.82 784.96,466.30 789.45,465.79 793.94,465.29 798.43,464.81 802.92,464.33 807.41,463.87 811.90,463.42 816.39,462.98 820.88,462.55 825.37,462.13 829.86,461.72 834.35,461.32 838.84,460.94 843.33,460.56 847.82,460.19 852.31,459.83 856.80,459.48 861.29,459.14 865.78,458.80 870.27,458.48 874.76,458.16 879.25,457.85 883.74,457.55 888.23,457.26 892.72,456.97 897.21,456.70 901.70,456.42 906.19,456.16 910.68,455.90 915.17,455.65 919.66,455.40 924.15,455.16 928.64,454.93 933.13,454.70 937.62,454.48 942.11,454.26 946.60,454.05 951.09,453.84 955.58,453.64 960.07,453.45 964.56,453.25 969.05,453.07 973.54,452.88 978.03,452.70 982.52,452.53 987.01,452.36 991.50,452.19 995.99,452.03 1000.48,451.87 1004.97,451.72 1009.46,451.57 1013.95,451.42 1018.44,451.27 1022.93,451.13 1027.42,451.00 1031.91,450.86 1036.40,450.73 1040.89,450.60 1045.38,450.48 1049.87,450.36 1054.36,450.24 1058.85,450.12 1063.34,450.01 1067.83,449.90 1072.32,449.79 1076.81,449.68 1081.30,449.59 1085.79,449.52 1090.28,449.68 1094.77,450.40 1099.26,451.10 1103.75,451.78 1108.24,452.45 1112.73,453.09 1117.22,453.71 1121.71,454.30 1126.20,454.88 1130.69,455.43 1135.18,455.97 1139.67,456.48 1144.16,456.98 1148.65,457.47 1153.14,457.94 1157.63,458.39 1162.12,458.84 1166.61,459.27 1171.10,459.69 1175.59,460.10 1180.08,460.50 1184.57,460.89 1189.06,461.27 1193.55,461.65 1198.04,462.02 1202.53,462.38 1207.02,462.73 1211.51,463.08 1216.00,463.42" fill="none" stroke="#2458d3" stroke-width="1.8" stroke-linejoin="round" stroke-linecap="round" stroke-dasharray="8 5" />
<line x1="54.0" y1="686.0" x2="82.0" y2="686.0" stroke="#2d3440" stroke-width="2.0" />
<text x="92.0" y="690.0" fill="#1f2430" font-size="12" font-family="Segoe UI, Arial, sans-serif" font-weight="400" text-anchor="start">solid = u</text>
<line x1="176.0" y1="686.0" x2="204.0" y2="686.0" stroke="#2d3440" stroke-width="2.0" stroke-dasharray="8 5" />
<text x="214.0" y="690.0" fill="#1f2430" font-size="12" font-family="Segoe UI, Arial, sans-serif" font-weight="400" text-anchor="start">dashed = u_s</text>
<line x1="390.0" y1="686.0" x2="418.0" y2="686.0" stroke="#bf1e2d" stroke-width="2.4" />
<text x="428.0" y="690.0" fill="#1f2430" font-size="12" font-family="Segoe UI, Arial, sans-serif" font-weight="400" text-anchor="start">rho=0.95</text>
<line x1="555.0" y1="686.0" x2="583.0" y2="686.0" stroke="#c96b17" stroke-width="2.4" />
<text x="593.0" y="690.0" fill="#1f2430" font-size="12" font-family="Segoe UI, Arial, sans-serif" font-weight="400" text-anchor="start">rho=0.98</text>
<line x1="720.0" y1="686.0" x2="748.0" y2="686.0" stroke="#2a7f62" stroke-width="2.4" />
<text x="758.0" y="690.0" fill="#1f2430" font-size="12" font-family="Segoe UI, Arial, sans-serif" font-weight="400" text-anchor="start">rho=0.985</text>
<line x1="885.0" y1="686.0" x2="913.0" y2="686.0" stroke="#2458d3" stroke-width="2.4" />
<text x="923.0" y="690.0" fill="#1f2430" font-size="12" font-family="Segoe UI, Arial, sans-serif" font-weight="400" text-anchor="start">rho=0.99</text>
</svg>