<svg xmlns="http://www.w3.org/2000/svg" width="1280" height="760" viewBox="0 0 1280 760" role="img">
<rect x="0.0" y="0.0" width="1280.0" height="760.0" fill="#ffffff" stroke="none" stroke-width="1.0" rx="0.0" />
<text x="40.0" y="34.0" fill="#1f2430" font-size="22" font-family="Segoe UI, Arial, sans-serif" font-weight="600" text-anchor="start">Bounded hard + input anchor: steady disturbance targets d_s across rho</text>
<text x="40.0" y="56.0" fill="#5d6574" font-size="13" font-family="Segoe UI, Arial, sans-serif" font-weight="400" text-anchor="start">These are the saved steady disturbance targets used by the frozen-output-disturbance target solve.</text>
<rect x="40.0" y="88.0" width="1200.0" height="250.0" fill="#fbfbfd" stroke="#d7dbe5" stroke-width="1.0" rx="8.0" />
<text x="56.0" y="112.0" fill="#1f2430" font-size="16" font-family="Segoe UI, Arial, sans-serif" font-weight="600" text-anchor="start">Disturbance target d_s[0]</text>
<text x="56.0" y="130.0" fill="#5d6574" font-size="12" font-family="Segoe UI, Arial, sans-serif" font-weight="400" text-anchor="start">Transient window 0-249 steps</text>
<line x1="98.0" y1="306.0" x2="1216.0" y2="306.0" stroke="#d7dbe5" stroke-width="1.0" stroke-dasharray="4 4" />
<text x="90.0" y="310.0" fill="#5d6574" font-size="11" font-family="Segoe UI, Arial, sans-serif" font-weight="400" text-anchor="end">-1.579</text>
<line x1="98.0" y1="226.0" x2="1216.0" y2="226.0" stroke="#d7dbe5" stroke-width="1.0" stroke-dasharray="4 4" />
<text x="90.0" y="230.0" fill="#5d6574" font-size="11" font-family="Segoe UI, Arial, sans-serif" font-weight="400" text-anchor="end">0.732</text>
<line x1="98.0" y1="146.0" x2="1216.0" y2="146.0" stroke="#d7dbe5" stroke-width="1.0" stroke-dasharray="4 4" />
<text x="90.0" y="150.0" fill="#5d6574" font-size="11" font-family="Segoe UI, Arial, sans-serif" font-weight="400" text-anchor="end">3.043</text>
<line x1="98.0" y1="146.0" x2="98.0" y2="306.0" stroke="#d7dbe5" stroke-width="1.0" stroke-dasharray="4 4" />
<text x="98.0" y="324.0" fill="#5d6574" font-size="11" font-family="Segoe UI, Arial, sans-serif" font-weight="400" text-anchor="middle">0</text>
<line x1="657.0" y1="146.0" x2="657.0" y2="306.0" stroke="#d7dbe5" stroke-width="1.0" stroke-dasharray="4 4" />
<text x="657.0" y="324.0" fill="#5d6574" font-size="11" font-family="Segoe UI, Arial, sans-serif" font-weight="400" text-anchor="middle">124</text>
<line x1="1216.0" y1="146.0" x2="1216.0" y2="306.0" stroke="#d7dbe5" stroke-width="1.0" stroke-dasharray="4 4" />
<text x="1216.0" y="324.0" fill="#5d6574" font-size="11" font-family="Segoe UI, Arial, sans-serif" font-weight="400" text-anchor="middle">249</text>
<line x1="98.0" y1="146.0" x2="98.0" y2="306.0" stroke="#2d3440" stroke-width="1.2" />
<line x1="98.0" y1="306.0" x2="1216.0" y2="306.0" stroke="#2d3440" stroke-width="1.2" />
<text x="56.0" y="160.0" fill="#5d6574" font-size="12" font-family="Segoe UI, Arial, sans-serif" font-weight="400" text-anchor="start">target</text>
<polyline points="98.00,251.34 102.49,251.34 106.98,251.32 111.47,251.24 115.96,251.01 120.45,250.56 124.94,249.82 129.43,248.75 133.92,247.32 138.41,245.54 142.90,243.44 147.39,241.06 151.88,238.44 156.37,235.64 160.86,232.72 165.35,229.74 169.84,226.74 174.33,223.77 178.82,220.87 183.31,218.07 187.80,215.41 192.29,212.91 196.78,210.57 201.27,208.42 205.76,206.44 210.25,204.65 214.74,203.04 219.23,201.60 223.72,200.28 228.21,198.91 232.70,197.33 237.19,195.48 241.68,193.44 246.17,191.38 250.66,189.46 255.15,187.87 259.64,186.72 264.13,186.06 268.62,185.92 273.11,186.29 277.60,187.13 282.09,188.38 286.58,189.98 291.07,191.87 295.56,193.99 300.05,196.28 304.54,198.69 309.03,201.17 313.52,203.67 318.01,206.16 322.50,208.62 326.99,211.00 331.48,213.28 335.97,215.45 340.46,217.49 344.95,219.38 349.44,221.11 353.93,222.67 358.42,224.05 362.91,225.26 367.40,226.27 371.89,227.10 376.38,227.74 380.87,228.20 385.36,228.46 389.85,228.54 394.34,228.45 398.83,228.18 403.32,227.75 407.81,227.17 412.30,226.44 416.79,225.57 421.28,224.58 425.77,223.49 430.26,222.29 434.75,221.01 439.24,219.65 443.73,218.24 448.22,216.78 452.71,215.29 457.20,213.77 461.69,212.24 466.18,210.71 470.67,209.19 475.16,207.68 479.65,206.20 484.14,204.75 488.63,203.33 493.12,201.95 497.61,200.61 502.10,199.32 506.59,198.21 511.08,197.48 515.57,197.29 520.06,197.65 524.55,198.44 529.04,199.51 533.53,200.67 538.02,201.78 542.51,202.74 547.00,203.47 551.49,203.93 555.98,204.11 560.47,204.01 564.96,203.63 569.45,203.01 573.94,202.16 578.43,201.11 582.92,199.89 587.41,198.52 591.90,197.04 596.39,195.81 600.88,195.80 605.37,198.00 609.86,202.77 614.35,209.76 618.84,218.26 623.33,227.52 627.82,236.92 632.31,246.01 636.80,254.55 641.29,262.39 645.78,269.45 650.27,275.73 654.76,281.19 659.24,285.78 663.73,289.43 668.22,292.10 672.71,293.84 677.20,294.75 681.69,294.97 686.18,294.64 690.67,293.83 695.16,292.41 699.65,290.17 704.14,286.92 708.63,282.55 713.12,277.04 717.61,270.46 722.10,262.98 726.59,254.80 731.08,246.17 735.57,237.33 740.06,228.53 744.55,219.97 749.04,211.83 753.53,204.25 758.02,197.31 762.51,191.08 767.00,185.59 771.49,180.83 775.98,176.77 780.47,173.38 784.96,170.61 789.45,168.40 793.94,166.70 798.43,165.44 802.92,164.57 807.41,164.03 811.90,163.78 816.39,163.77 820.88,163.95 825.37,164.29 829.86,164.76 834.35,165.33 838.84,165.96 843.33,166.65 847.82,167.36 852.31,168.08 856.80,168.81 861.29,169.52 865.78,170.21 870.27,170.86 874.76,171.47 879.25,172.04 883.74,172.56 888.23,173.03 892.72,173.44 897.21,173.80 901.70,174.09 906.19,174.33 910.68,174.52 915.17,174.64 919.66,174.71 924.15,174.73 928.64,174.70 933.13,174.62 937.62,174.50 942.11,174.34 946.60,174.14 951.09,173.91 955.58,173.65 960.07,173.36 964.56,173.05 969.05,172.72 973.54,172.38 978.03,172.02 982.52,171.66 987.01,171.28 991.50,170.91 995.99,170.53 1000.48,170.18 1004.97,169.94 1009.46,169.90 1013.95,170.14 1018.44,170.63 1022.93,171.31 1027.42,172.09 1031.91,172.88 1036.40,173.61 1040.89,174.25 1045.38,174.76 1049.87,175.12 1054.36,175.33 1058.85,175.41 1063.34,175.34 1067.83,175.16 1072.32,174.87 1076.81,174.49 1081.30,174.12 1085.79,173.97 1090.28,174.13 1094.77,174.61 1099.26,175.34 1103.75,176.22 1108.24,177.14 1112.73,178.04 1117.22,178.85 1121.71,179.54 1126.20,180.08 1130.69,180.49 1135.18,180.76 1139.67,180.90 1144.16,180.92 1148.65,180.84 1153.14,180.68 1157.63,180.44 1162.12,180.15 1166.61,179.81 1171.10,179.43 1175.59,179.04 1180.08,178.63 1184.57,178.21 1189.06,177.79 1193.55,177.38 1198.04,176.99 1202.53,176.60 1207.02,176.24 1211.51,175.90 1216.00,175.57" fill="none" stroke="#bf1e2d" stroke-width="2.2" stroke-linejoin="round" stroke-linecap="round" />
<polyline points="98.00,251.34 102.49,251.34 106.98,251.32 111.47,251.24 115.96,251.01 120.45,250.56 124.94,249.82 129.43,248.75 133.92,247.32 138.41,245.54 142.90,243.44 147.39,241.06 151.88,238.44 156.37,235.64 160.86,232.72 165.35,229.74 169.84,226.74 174.33,223.77 178.82,220.87 183.31,218.07 187.80,215.41 192.29,212.91 196.78,210.57 201.27,208.42 205.76,206.44 210.25,204.65 214.74,203.04 219.23,201.60 223.72,200.32 228.21,199.20 232.70,198.21 237.19,197.35 241.68,196.61 246.17,195.97 250.66,195.41 255.15,194.94 259.64,194.52 264.13,194.16 268.62,193.85 273.11,193.56 277.60,193.31 282.09,193.07 286.58,192.84 291.07,192.61 295.56,192.39 300.05,192.15 304.54,191.91 309.03,191.66 313.52,191.38 318.01,191.09 322.50,190.79 326.99,190.46 331.48,190.11 335.97,189.73 340.46,189.34 344.95,188.93 349.44,188.49 353.93,188.04 358.42,187.57 362.91,187.09 367.40,186.58 371.89,186.07 376.38,185.55 380.87,185.01 385.36,184.47 389.85,183.93 394.34,183.37 398.83,182.82 403.32,182.27 407.81,181.72 412.30,181.17 416.79,180.62 421.28,180.08 425.77,179.54 430.26,179.01 434.75,178.49 439.24,177.98 443.73,177.48 448.22,176.99 452.71,176.51 457.20,176.04 461.69,175.58 466.18,175.13 470.67,174.70 475.16,174.27 479.65,173.86 484.14,173.46 488.63,173.06 493.12,172.68 497.61,172.31 502.10,171.95 506.59,171.60 511.08,171.26 515.57,170.93 520.06,170.61 524.55,170.30 529.04,169.99 533.53,169.70 538.02,169.41 542.51,169.13 547.00,168.85 551.49,168.58 555.98,168.32 560.47,168.07 564.96,167.82 569.45,167.57 573.94,167.34 578.43,167.10 582.92,166.87 587.41,166.65 591.90,166.43 596.39,166.22 600.88,166.01 605.37,165.80 609.86,165.60 614.35,165.40 618.84,165.21 623.33,165.02 627.82,164.84 632.31,164.65 636.80,164.47 641.29,164.30 645.78,164.13 650.27,163.96 654.76,163.80 659.24,163.63 663.73,163.48 668.22,163.32 672.71,163.17 677.20,163.02 681.69,162.88 686.18,162.73 690.67,162.60 695.16,162.46 699.65,162.33 704.14,162.20 708.63,162.07 713.12,161.94 717.61,161.82 722.10,161.70 726.59,161.59 731.08,161.47 735.57,161.36 740.06,161.25 744.55,161.15 749.04,161.04 753.53,160.94 758.02,160.84 762.51,160.75 767.00,160.65 771.49,160.56 775.98,160.47 780.47,160.38 784.96,160.30 789.45,160.21 793.94,160.13 798.43,160.05 802.92,159.97 807.41,159.90 811.90,159.82 816.39,159.75 820.88,159.68 825.37,159.61 829.86,159.54 834.35,159.47 838.84,159.41 843.33,159.34 847.82,159.28 852.31,159.22 856.80,159.16 861.29,159.11 865.78,159.05 870.27,158.99 874.76,158.94 879.25,158.89 883.74,158.84 888.23,158.79 892.72,158.74 897.21,158.69 901.70,158.64 906.19,158.60 910.68,158.55 915.17,158.51 919.66,158.47 924.15,158.42 928.64,158.38 933.13,158.34 937.62,158.31 942.11,158.27 946.60,158.23 951.09,158.19 955.58,158.16 960.07,158.12 964.56,158.09 969.05,158.06 973.54,158.03 978.03,157.99 982.52,157.96 987.01,157.93 991.50,157.90 995.99,157.87 1000.48,157.85 1004.97,157.82 1009.46,157.79 1013.95,157.77 1018.44,157.74 1022.93,157.72 1027.42,157.69 1031.91,157.67 1036.40,157.64 1040.89,157.62 1045.38,157.60 1049.87,157.58 1054.36,157.56 1058.85,157.54 1063.34,157.52 1067.83,157.50 1072.32,157.48 1076.81,157.46 1081.30,157.44 1085.79,157.42 1090.28,157.40 1094.77,157.39 1099.26,157.38 1103.75,157.38 1108.24,157.41 1112.73,157.45 1117.22,157.52 1121.71,157.59 1126.20,157.67 1130.69,157.74 1135.18,157.79 1139.67,157.84 1144.16,157.86 1148.65,157.87 1153.14,157.87 1157.63,157.85 1162.12,157.82 1166.61,157.78 1171.10,157.73 1175.59,157.67 1180.08,157.61 1184.57,157.54 1189.06,157.47 1193.55,157.40 1198.04,157.32 1202.53,157.25 1207.02,157.17 1211.51,157.10 1216.00,157.03" fill="none" stroke="#c96b17" stroke-width="2.2" stroke-linejoin="round" stroke-linecap="round" />
<polyline points="98.00,251.34 102.49,251.34 106.98,251.32 111.47,251.24 115.96,251.01 120.45,250.56 124.94,249.82 129.43,248.75 133.92,247.32 138.41,245.54 142.90,243.44 147.39,241.06 151.88,238.44 156.37,235.64 160.86,232.72 165.35,229.74 169.84,226.74 174.33,223.77 178.82,220.87 183.31,218.07 187.80,215.41 192.29,212.91 196.78,210.57 201.27,208.42 205.76,206.44 210.25,204.65 214.74,203.04 219.23,201.60 223.72,200.32 228.21,199.20 232.70,198.21 237.19,197.35 241.68,196.61 246.17,195.97 250.66,195.41 255.15,194.94 259.64,194.52 264.13,194.16 268.62,193.85 273.11,193.56 277.60,193.31 282.09,193.07 286.58,192.84 291.07,192.61 295.56,192.39 300.05,192.15 304.54,191.91 309.03,191.66 313.52,191.38 318.01,191.09 322.50,190.79 326.99,190.46 331.48,190.11 335.97,189.73 340.46,189.34 344.95,188.93 349.44,188.49 353.93,188.04 358.42,187.57 362.91,187.09 367.40,186.58 371.89,186.07 376.38,185.55 380.87,185.01 385.36,184.47 389.85,183.93 394.34,183.37 398.83,182.82 403.32,182.27 407.81,181.72 412.30,181.17 416.79,180.62 421.28,180.08 425.77,179.54 430.26,179.01 434.75,178.49 439.24,177.98 443.73,177.48 448.22,176.99 452.71,176.51 457.20,176.04 461.69,175.58 466.18,175.13 470.67,174.70 475.16,174.27 479.65,173.86 484.14,173.46 488.63,173.06 493.12,172.68 497.61,172.31 502.10,171.95 506.59,171.60 511.08,171.26 515.57,170.93 520.06,170.61 524.55,170.30 529.04,169.99 533.53,169.70 538.02,169.41 542.51,169.13 547.00,168.85 551.49,168.58 555.98,168.32 560.47,168.07 564.96,167.82 569.45,167.57 573.94,167.34 578.43,167.10 582.92,166.87 587.41,166.65 591.90,166.43 596.39,166.22 600.88,166.01 605.37,165.80 609.86,165.60 614.35,165.40 618.84,165.21 623.33,165.02 627.82,164.84 632.31,164.65 636.80,164.47 641.29,164.30 645.78,164.13 650.27,163.96 654.76,163.80 659.24,163.63 663.73,163.48 668.22,163.32 672.71,163.17 677.20,163.02 681.69,162.88 686.18,162.73 690.67,162.60 695.16,162.46 699.65,162.33 704.14,162.20 708.63,162.07 713.12,161.94 717.61,161.82 722.10,161.70 726.59,161.59 731.08,161.47 735.57,161.36 740.06,161.25 744.55,161.15 749.04,161.04 753.53,160.94 758.02,160.84 762.51,160.75 767.00,160.65 771.49,160.56 775.98,160.47 780.47,160.38 784.96,160.30 789.45,160.21 793.94,160.13 798.43,160.05 802.92,159.97 807.41,159.90 811.90,159.82 816.39,159.75 820.88,159.68 825.37,159.61 829.86,159.54 834.35,159.47 838.84,159.41 843.33,159.34 847.82,159.28 852.31,159.22 856.80,159.16 861.29,159.11 865.78,159.05 870.27,158.99 874.76,158.94 879.25,158.89 883.74,158.84 888.23,158.79 892.72,158.74 897.21,158.69 901.70,158.64 906.19,158.60 910.68,158.55 915.17,158.51 919.66,158.47 924.15,158.42 928.64,158.38 933.13,158.34 937.62,158.31 942.11,158.27 946.60,158.23 951.09,158.19 955.58,158.16 960.07,158.12 964.56,158.09 969.05,158.06 973.54,158.03 978.03,157.99 982.52,157.96 987.01,157.93 991.50,157.90 995.99,157.87 1000.48,157.85 1004.97,157.82 1009.46,157.79 1013.95,157.77 1018.44,157.74 1022.93,157.72 1027.42,157.69 1031.91,157.67 1036.40,157.64 1040.89,157.62 1045.38,157.60 1049.87,157.58 1054.36,157.56 1058.85,157.54 1063.34,157.52 1067.83,157.50 1072.32,157.48 1076.81,157.46 1081.30,157.44 1085.79,157.42 1090.28,157.40 1094.77,157.39 1099.26,157.37 1103.75,157.36 1108.24,157.35 1112.73,157.34 1117.22,157.34 1121.71,157.33 1126.20,157.33 1130.69,157.33 1135.18,157.32 1139.67,157.33 1144.16,157.35 1148.65,157.40 1153.14,157.46 1157.63,157.53 1162.12,157.60 1166.61,157.66 1171.10,157.71 1175.59,157.75 1180.08,157.76 1184.57,157.76 1189.06,157.74 1193.55,157.71 1198.04,157.65 1202.53,157.59 1207.02,157.52 1211.51,157.43 1216.00,157.34" fill="none" stroke="#2a7f62" stroke-width="2.2" stroke-linejoin="round" stroke-linecap="round" />
<polyline points="98.00,251.34 102.49,251.34 106.98,251.32 111.47,251.24 115.96,251.01 120.45,250.56 124.94,249.82 129.43,248.75 133.92,247.32 138.41,245.54 142.90,243.44 147.39,241.06 151.88,238.44 156.37,235.64 160.86,232.72 165.35,229.74 169.84,226.74 174.33,223.77 178.82,220.87 183.31,218.07 187.80,215.41 192.29,212.91 196.78,210.57 201.27,208.42 205.76,206.44 210.25,204.65 214.74,203.04 219.23,201.60 223.72,200.32 228.21,199.20 232.70,198.21 237.19,197.35 241.68,196.61 246.17,195.97 250.66,195.41 255.15,194.94 259.64,194.52 264.13,194.16 268.62,193.85 273.11,193.56 277.60,193.31 282.09,193.07 286.58,192.84 291.07,192.61 295.56,192.39 300.05,192.15 304.54,191.91 309.03,191.66 313.52,191.38 318.01,191.09 322.50,190.79 326.99,190.46 331.48,190.11 335.97,189.73 340.46,189.34 344.95,188.93 349.44,188.49 353.93,188.04 358.42,187.57 362.91,187.09 367.40,186.58 371.89,186.07 376.38,185.55 380.87,185.01 385.36,184.47 389.85,183.93 394.34,183.37 398.83,182.82 403.32,182.27 407.81,181.72 412.30,181.17 416.79,180.62 421.28,180.08 425.77,179.54 430.26,179.01 434.75,178.49 439.24,177.98 443.73,177.48 448.22,176.99 452.71,176.51 457.20,176.04 461.69,175.58 466.18,175.13 470.67,174.70 475.16,174.27 479.65,173.86 484.14,173.46 488.63,173.06 493.12,172.68 497.61,172.31 502.10,171.95 506.59,171.60 511.08,171.26 515.57,170.93 520.06,170.61 524.55,170.30 529.04,169.99 533.53,169.70 538.02,169.41 542.51,169.13 547.00,168.85 551.49,168.58 555.98,168.32 560.47,168.07 564.96,167.82 569.45,167.57 573.94,167.34 578.43,167.10 582.92,166.87 587.41,166.65 591.90,166.43 596.39,166.22 600.88,166.01 605.37,165.80 609.86,165.60 614.35,165.40 618.84,165.21 623.33,165.02 627.82,164.84 632.31,164.65 636.80,164.47 641.29,164.30 645.78,164.13 650.27,163.96 654.76,163.80 659.24,163.63 663.73,163.48 668.22,163.32 672.71,163.17 677.20,163.02 681.69,162.88 686.18,162.73 690.67,162.60 695.16,162.46 699.65,162.33 704.14,162.20 708.63,162.07 713.12,161.94 717.61,161.82 722.10,161.70 726.59,161.59 731.08,161.47 735.57,161.36 740.06,161.25 744.55,161.15 749.04,161.04 753.53,160.94 758.02,160.84 762.51,160.75 767.00,160.65 771.49,160.56 775.98,160.47 780.47,160.38 784.96,160.30 789.45,160.21 793.94,160.13 798.43,160.05 802.92,159.97 807.41,159.90 811.90,159.82 816.39,159.75 820.88,159.68 825.37,159.61 829.86,159.54 834.35,159.47 838.84,159.41 843.33,159.34 847.82,159.28 852.31,159.22 856.80,159.16 861.29,159.11 865.78,159.05 870.27,158.99 874.76,158.94 879.25,158.89 883.74,158.84 888.23,158.79 892.72,158.74 897.21,158.69 901.70,158.64 906.19,158.60 910.68,158.55 915.17,158.51 919.66,158.47 924.15,158.42 928.64,158.38 933.13,158.34 937.62,158.31 942.11,158.27 946.60,158.23 951.09,158.19 955.58,158.16 960.07,158.12 964.56,158.09 969.05,158.06 973.54,158.03 978.03,157.99 982.52,157.96 987.01,157.93 991.50,157.90 995.99,157.87 1000.48,157.85 1004.97,157.82 1009.46,157.79 1013.95,157.77 1018.44,157.74 1022.93,157.72 1027.42,157.69 1031.91,157.67 1036.40,157.64 1040.89,157.62 1045.38,157.60 1049.87,157.58 1054.36,157.56 1058.85,157.54 1063.34,157.52 1067.83,157.50 1072.32,157.48 1076.81,157.46 1081.30,157.44 1085.79,157.42 1090.28,157.40 1094.77,157.39 1099.26,157.37 1103.75,157.35 1108.24,157.34 1112.73,157.32 1117.22,157.31 1121.71,157.29 1126.20,157.28 1130.69,157.26 1135.18,157.25 1139.67,157.24 1144.16,157.22 1148.65,157.21 1153.14,157.20 1157.63,157.19 1162.12,157.17 1166.61,157.16 1171.10,157.15 1175.59,157.14 1180.08,157.13 1184.57,157.12 1189.06,157.11 1193.55,157.10 1198.04,157.09 1202.53,157.08 1207.02,157.07 1211.51,157.06 1216.00,157.05" fill="none" stroke="#2458d3" stroke-width="2.2" stroke-linejoin="round" stroke-linecap="round" />
<rect x="40.0" y="370.0" width="1200.0" height="250.0" fill="#fbfbfd" stroke="#d7dbe5" stroke-width="1.0" rx="8.0" />
<text x="56.0" y="394.0" fill="#1f2430" font-size="16" font-family="Segoe UI, Arial, sans-serif" font-weight="600" text-anchor="start">Disturbance target d_s[1]</text>
<text x="56.0" y="412.0" fill="#5d6574" font-size="12" font-family="Segoe UI, Arial, sans-serif" font-weight="400" text-anchor="start">Transient window 0-249 steps</text>
<line x1="98.0" y1="588.0" x2="1216.0" y2="588.0" stroke="#d7dbe5" stroke-width="1.0" stroke-dasharray="4 4" />
<text x="90.0" y="592.0" fill="#5d6574" font-size="11" font-family="Segoe UI, Arial, sans-serif" font-weight="400" text-anchor="end">-11.615</text>
<line x1="98.0" y1="508.0" x2="1216.0" y2="508.0" stroke="#d7dbe5" stroke-width="1.0" stroke-dasharray="4 4" />
<text x="90.0" y="512.0" fill="#5d6574" font-size="11" font-family="Segoe UI, Arial, sans-serif" font-weight="400" text-anchor="end">-2.372</text>
<line x1="98.0" y1="428.0" x2="1216.0" y2="428.0" stroke="#d7dbe5" stroke-width="1.0" stroke-dasharray="4 4" />
<text x="90.0" y="432.0" fill="#5d6574" font-size="11" font-family="Segoe UI, Arial, sans-serif" font-weight="400" text-anchor="end">6.872</text>
<line x1="98.0" y1="428.0" x2="98.0" y2="588.0" stroke="#d7dbe5" stroke-width="1.0" stroke-dasharray="4 4" />
<text x="98.0" y="606.0" fill="#5d6574" font-size="11" font-family="Segoe UI, Arial, sans-serif" font-weight="400" text-anchor="middle">0</text>
<line x1="657.0" y1="428.0" x2="657.0" y2="588.0" stroke="#d7dbe5" stroke-width="1.0" stroke-dasharray="4 4" />
<text x="657.0" y="606.0" fill="#5d6574" font-size="11" font-family="Segoe UI, Arial, sans-serif" font-weight="400" text-anchor="middle">124</text>
<line x1="1216.0" y1="428.0" x2="1216.0" y2="588.0" stroke="#d7dbe5" stroke-width="1.0" stroke-dasharray="4 4" />
<text x="1216.0" y="606.0" fill="#5d6574" font-size="11" font-family="Segoe UI, Arial, sans-serif" font-weight="400" text-anchor="middle">249</text>
<line x1="98.0" y1="428.0" x2="98.0" y2="588.0" stroke="#2d3440" stroke-width="1.2" />
<line x1="98.0" y1="588.0" x2="1216.0" y2="588.0" stroke="#2d3440" stroke-width="1.2" />
<text x="56.0" y="442.0" fill="#5d6574" font-size="12" font-family="Segoe UI, Arial, sans-serif" font-weight="400" text-anchor="start">target</text>
<polyline points="98.00,487.47 102.49,487.47 106.98,486.72 111.47,485.35 115.96,483.59 120.45,481.63 124.94,479.60 129.43,477.58 133.92,475.63 138.41,473.79 142.90,472.08 147.39,470.53 151.88,469.14 156.37,467.92 160.86,466.87 165.35,465.99 169.84,465.28 174.33,464.72 178.82,464.32 183.31,464.06 187.80,463.92 192.29,463.91 196.78,464.00 201.27,464.19 205.76,464.46 210.25,464.81 214.74,465.22 219.23,465.68 223.72,464.30 228.21,460.08 232.70,455.23 237.19,450.74 241.68,446.98 246.17,444.03 250.66,441.86 255.15,440.36 259.64,439.45 264.13,439.03 268.62,439.04 273.11,439.40 277.60,440.05 282.09,440.97 286.58,442.09 291.07,443.39 295.56,444.85 300.05,446.42 304.54,448.09 309.03,449.83 313.52,451.61 318.01,453.41 322.50,455.22 326.99,457.01 331.48,458.76 335.97,460.45 340.46,462.06 344.95,463.59 349.44,465.02 353.93,466.34 358.42,467.54 362.91,468.62 367.40,469.58 371.89,470.42 376.38,471.14 380.87,471.74 385.36,472.24 389.85,472.64 394.34,472.94 398.83,473.17 403.32,473.33 407.81,473.42 412.30,473.47 416.79,473.48 421.28,473.46 425.77,473.41 430.26,473.36 434.75,473.30 439.24,473.24 443.73,473.18 448.22,473.14 452.71,473.11 457.20,473.10 461.69,473.11 466.18,473.14 470.67,473.20 475.16,473.27 479.65,473.37 484.14,473.49 488.63,473.63 493.12,473.79 497.61,473.97 502.10,474.50 506.59,478.30 511.08,482.29 515.57,485.33 520.06,487.42 524.55,488.76 529.04,489.56 533.53,489.93 538.02,489.98 542.51,489.76 547.00,489.34 551.49,488.76 555.98,488.06 560.47,487.28 564.96,486.44 569.45,485.57 573.94,484.69 578.43,483.83 582.92,483.00 587.41,482.21 591.90,481.63 596.39,494.35 600.88,522.60 605.37,545.79 609.86,561.55 614.35,571.11 618.84,575.89 623.33,576.97 627.82,575.09 632.31,570.87 636.80,564.85 641.29,557.49 645.78,551.78 650.27,545.07 654.76,537.28 659.24,528.87 663.73,523.02 668.22,519.41 672.71,517.27 677.20,516.02 681.69,515.29 686.18,514.89 690.67,508.49 695.16,501.07 699.65,493.97 704.14,487.52 708.63,481.79 713.12,476.76 717.61,472.41 722.10,468.73 726.59,465.67 731.08,463.21 735.57,461.30 740.06,459.89 744.55,458.94 749.04,458.40 753.53,458.20 758.02,458.31 762.51,458.67 767.00,459.24 771.49,459.97 775.98,460.84 780.47,461.80 784.96,462.84 789.45,463.93 793.94,465.05 798.43,466.19 802.92,467.32 807.41,468.45 811.90,469.56 816.39,470.63 820.88,471.68 825.37,472.68 829.86,473.64 834.35,474.56 838.84,475.42 843.33,476.22 847.82,476.97 852.31,477.66 856.80,478.30 861.29,478.88 865.78,479.40 870.27,479.86 874.76,480.27 879.25,480.63 883.74,480.93 888.23,481.19 892.72,481.40 897.21,481.57 901.70,481.70 906.19,481.80 910.68,481.86 915.17,481.90 919.66,481.91 924.15,481.90 928.64,481.87 933.13,481.83 937.62,481.78 942.11,481.72 946.60,481.65 951.09,481.58 955.58,481.50 960.07,481.43 964.56,481.36 969.05,481.29 973.54,481.22 978.03,481.17 982.52,481.11 987.01,481.07 991.50,481.03 995.99,481.00 1000.48,481.83 1004.97,484.05 1009.46,485.75 1013.95,486.76 1018.44,487.27 1022.93,487.45 1027.42,487.42 1031.91,487.25 1036.40,486.98 1040.89,486.64 1045.38,486.25 1049.87,485.82 1054.36,485.38 1058.85,484.92 1063.34,484.46 1067.83,484.01 1072.32,483.57 1076.81,483.15 1081.30,486.69 1085.79,488.24 1090.28,488.33 1094.77,487.64 1099.26,486.60 1103.75,485.46 1108.24,484.34 1112.73,483.30 1117.22,482.34 1121.71,481.46 1126.20,480.67 1130.69,479.96 1135.18,479.32 1139.67,478.75 1144.16,478.23 1148.65,477.78 1153.14,477.38 1157.63,477.03 1162.12,476.73 1166.61,476.48 1171.10,476.27 1175.59,476.10 1180.08,475.97 1184.57,475.88 1189.06,475.81 1193.55,475.78 1198.04,475.78 1202.53,475.80 1207.02,475.85 1211.51,475.92 1216.00,476.00" fill="none" stroke="#bf1e2d" stroke-width="2.2" stroke-linejoin="round" stroke-linecap="round" />
<polyline points="98.00,487.47 102.49,487.47 106.98,486.72 111.47,485.35 115.96,483.59 120.45,481.63 124.94,479.60 129.43,477.58 133.92,475.63 138.41,473.79 142.90,472.08 147.39,470.53 151.88,469.14 156.37,467.92 160.86,466.87 165.35,465.99 169.84,465.28 174.33,464.72 178.82,464.32 183.31,464.06 187.80,463.92 192.29,463.91 196.78,464.00 201.27,464.19 205.76,464.46 210.25,464.81 214.74,465.22 219.23,465.68 223.72,466.18 228.21,466.72 232.70,467.29 237.19,467.87 241.68,468.47 246.17,469.07 250.66,469.68 255.15,470.27 259.64,470.86 264.13,471.44 268.62,471.99 273.11,472.53 277.60,473.05 282.09,473.54 286.58,474.00 291.07,474.44 295.56,474.86 300.05,475.24 304.54,475.60 309.03,475.93 313.52,476.23 318.01,476.51 322.50,476.76 326.99,476.99 331.48,477.20 335.97,477.39 340.46,477.56 344.95,477.72 349.44,477.85 353.93,477.98 358.42,478.09 362.91,478.20 367.40,478.29 371.89,478.38 376.38,478.46 380.87,478.53 385.36,478.60 389.85,478.67 394.34,478.74 398.83,478.80 403.32,478.87 407.81,478.93 412.30,478.99 416.79,479.06 421.28,479.12 425.77,479.19 430.26,479.26 434.75,479.33 439.24,479.40 443.73,479.47 448.22,479.54 452.71,479.61 457.20,479.69 461.69,479.76 466.18,479.84 470.67,479.91 475.16,479.99 479.65,480.07 484.14,480.14 488.63,480.22 493.12,480.29 497.61,480.37 502.10,480.44 506.59,480.51 511.08,480.59 515.57,480.66 520.06,480.72 524.55,480.79 529.04,480.86 533.53,480.92 538.02,480.98 542.51,481.05 547.00,481.11 551.49,481.16 555.98,481.22 560.47,481.27 564.96,481.32 569.45,481.38 573.94,481.42 578.43,481.47 582.92,481.52 587.41,481.56 591.90,481.60 596.39,481.65 600.88,481.69 605.37,481.72 609.86,481.76 614.35,481.80 618.84,481.83 623.33,481.87 627.82,481.90 632.31,481.93 636.80,481.96 641.29,481.99 645.78,482.02 650.27,482.05 654.76,482.08 659.24,482.10 663.73,482.13 668.22,482.15 672.71,482.18 677.20,482.20 681.69,482.23 686.18,482.25 690.67,482.27 695.16,482.29 699.65,482.31 704.14,482.34 708.63,482.36 713.12,482.38 717.61,482.40 722.10,482.41 726.59,482.43 731.08,482.45 735.57,482.47 740.06,482.49 744.55,482.50 749.04,482.52 753.53,482.54 758.02,482.55 762.51,482.57 767.00,482.58 771.49,482.60 775.98,482.61 780.47,482.63 784.96,482.64 789.45,482.66 793.94,482.67 798.43,482.68 802.92,482.69 807.41,482.71 811.90,482.72 816.39,482.73 820.88,482.74 825.37,482.75 829.86,482.76 834.35,482.77 838.84,482.79 843.33,482.80 847.82,482.81 852.31,482.81 856.80,482.82 861.29,482.83 865.78,482.84 870.27,482.85 874.76,482.86 879.25,482.87 883.74,482.88 888.23,482.88 892.72,482.89 897.21,482.90 901.70,482.91 906.19,482.91 910.68,482.92 915.17,482.93 919.66,482.93 924.15,482.94 928.64,482.95 933.13,482.95 937.62,482.96 942.11,482.97 946.60,482.97 951.09,482.98 955.58,482.98 960.07,482.99 964.56,482.99 969.05,483.00 973.54,483.00 978.03,483.01 982.52,483.01 987.01,483.02 991.50,483.02 995.99,483.03 1000.48,483.03 1004.97,483.04 1009.46,483.04 1013.95,483.04 1018.44,483.05 1022.93,483.05 1027.42,483.05 1031.91,483.06 1036.40,483.06 1040.89,483.07 1045.38,483.07 1049.87,483.07 1054.36,483.08 1058.85,483.08 1063.34,483.08 1067.83,483.08 1072.32,483.09 1076.81,483.09 1081.30,483.09 1085.79,483.10 1090.28,483.10 1094.77,483.10 1099.26,483.33 1103.75,483.54 1108.24,483.70 1112.73,483.81 1117.22,483.87 1121.71,483.91 1126.20,483.92 1130.69,483.92 1135.18,483.90 1139.67,483.87 1144.16,483.83 1148.65,483.79 1153.14,483.75 1157.63,483.70 1162.12,483.65 1166.61,483.60 1171.10,483.56 1175.59,483.51 1180.08,483.47 1184.57,483.43 1189.06,483.39 1193.55,483.35 1198.04,483.32 1202.53,483.30 1207.02,483.27 1211.51,483.25 1216.00,483.23" fill="none" stroke="#c96b17" stroke-width="2.2" stroke-linejoin="round" stroke-linecap="round" />
<polyline points="98.00,487.47 102.49,487.47 106.98,486.72 111.47,485.35 115.96,483.59 120.45,481.63 124.94,479.60 129.43,477.58 133.92,475.63 138.41,473.79 142.90,472.08 147.39,470.53 151.88,469.14 156.37,467.92 160.86,466.87 165.35,465.99 169.84,465.28 174.33,464.72 178.82,464.32 183.31,464.06 187.80,463.92 192.29,463.91 196.78,464.00 201.27,464.19 205.76,464.46 210.25,464.81 214.74,465.22 219.23,465.68 223.72,466.18 228.21,466.72 232.70,467.29 237.19,467.87 241.68,468.47 246.17,469.07 250.66,469.68 255.15,470.27 259.64,470.86 264.13,471.44 268.62,471.99 273.11,472.53 277.60,473.05 282.09,473.54 286.58,474.00 291.07,474.44 295.56,474.86 300.05,475.24 304.54,475.60 309.03,475.93 313.52,476.23 318.01,476.51 322.50,476.76 326.99,476.99 331.48,477.20 335.97,477.39 340.46,477.56 344.95,477.72 349.44,477.85 353.93,477.98 358.42,478.09 362.91,478.20 367.40,478.29 371.89,478.38 376.38,478.46 380.87,478.53 385.36,478.60 389.85,478.67 394.34,478.74 398.83,478.80 403.32,478.87 407.81,478.93 412.30,478.99 416.79,479.06 421.28,479.12 425.77,479.19 430.26,479.26 434.75,479.33 439.24,479.40 443.73,479.47 448.22,479.54 452.71,479.61 457.20,479.69 461.69,479.76 466.18,479.84 470.67,479.91 475.16,479.99 479.65,480.07 484.14,480.14 488.63,480.22 493.12,480.29 497.61,480.37 502.10,480.44 506.59,480.51 511.08,480.59 515.57,480.66 520.06,480.72 524.55,480.79 529.04,480.86 533.53,480.92 538.02,480.98 542.51,481.05 547.00,481.11 551.49,481.16 555.98,481.22 560.47,481.27 564.96,481.32 569.45,481.38 573.94,481.42 578.43,481.47 582.92,481.52 587.41,481.56 591.90,481.60 596.39,481.65 600.88,481.69 605.37,481.72 609.86,481.76 614.35,481.80 618.84,481.83 623.33,481.87 627.82,481.90 632.31,481.93 636.80,481.96 641.29,481.99 645.78,482.02 650.27,482.05 654.76,482.08 659.24,482.10 663.73,482.13 668.22,482.15 672.71,482.18 677.20,482.20 681.69,482.23 686.18,482.25 690.67,482.27 695.16,482.29 699.65,482.31 704.14,482.34 708.63,482.36 713.12,482.38 717.61,482.40 722.10,482.41 726.59,482.43 731.08,482.45 735.57,482.47 740.06,482.49 744.55,482.50 749.04,482.52 753.53,482.54 758.02,482.55 762.51,482.57 767.00,482.58 771.49,482.60 775.98,482.61 780.47,482.63 784.96,482.64 789.45,482.66 793.94,482.67 798.43,482.68 802.92,482.69 807.41,482.71 811.90,482.72 816.39,482.73 820.88,482.74 825.37,482.75 829.86,482.76 834.35,482.77 838.84,482.79 843.33,482.80 847.82,482.81 852.31,482.81 856.80,482.82 861.29,482.83 865.78,482.84 870.27,482.85 874.76,482.86 879.25,482.87 883.74,482.88 888.23,482.88 892.72,482.89 897.21,482.90 901.70,482.91 906.19,482.91 910.68,482.92 915.17,482.93 919.66,482.93 924.15,482.94 928.64,482.95 933.13,482.95 937.62,482.96 942.11,482.97 946.60,482.97 951.09,482.98 955.58,482.98 960.07,482.99 964.56,482.99 969.05,483.00 973.54,483.00 978.03,483.01 982.52,483.01 987.01,483.02 991.50,483.02 995.99,483.03 1000.48,483.03 1004.97,483.04 1009.46,483.04 1013.95,483.04 1018.44,483.05 1022.93,483.05 1027.42,483.05 1031.91,483.06 1036.40,483.06 1040.89,483.07 1045.38,483.07 1049.87,483.07 1054.36,483.08 1058.85,483.08 1063.34,483.08 1067.83,483.08 1072.32,483.09 1076.81,483.09 1081.30,483.09 1085.79,483.10 1090.28,483.10 1094.77,483.10 1099.26,483.13 1103.75,483.16 1108.24,483.19 1112.73,483.20 1117.22,483.21 1121.71,483.22 1126.20,483.22 1130.69,483.22 1135.18,483.34 1139.67,483.58 1144.16,483.81 1148.65,483.99 1153.14,484.11 1157.63,484.19 1162.12,484.23 1166.61,484.25 1171.10,484.25 1175.59,484.22 1180.08,484.19 1184.57,484.14 1189.06,484.09 1193.55,484.03 1198.04,483.97 1202.53,483.91 1207.02,483.85 1211.51,483.79 1216.00,483.73" fill="none" stroke="#2a7f62" stroke-width="2.2" stroke-linejoin="round" stroke-linecap="round" />
<polyline points="98.00,487.47 102.49,487.47 106.98,486.72 111.47,485.35 115.96,483.59 120.45,481.63 124.94,479.60 129.43,477.58 133.92,475.63 138.41,473.79 142.90,472.08 147.39,470.53 151.88,469.14 156.37,467.92 160.86,466.87 165.35,465.99 169.84,465.28 174.33,464.72 178.82,464.32 183.31,464.06 187.80,463.92 192.29,463.91 196.78,464.00 201.27,464.19 205.76,464.46 210.25,464.81 214.74,465.22 219.23,465.68 223.72,466.18 228.21,466.72 232.70,467.29 237.19,467.87 241.68,468.47 246.17,469.07 250.66,469.68 255.15,470.27 259.64,470.86 264.13,471.44 268.62,471.99 273.11,472.53 277.60,473.05 282.09,473.54 286.58,474.00 291.07,474.44 295.56,474.86 300.05,475.24 304.54,475.60 309.03,475.93 313.52,476.23 318.01,476.51 322.50,476.76 326.99,476.99 331.48,477.20 335.97,477.39 340.46,477.56 344.95,477.72 349.44,477.85 353.93,477.98 358.42,478.09 362.91,478.20 367.40,478.29 371.89,478.38 376.38,478.46 380.87,478.53 385.36,478.60 389.85,478.67 394.34,478.74 398.83,478.80 403.32,478.87 407.81,478.93 412.30,478.99 416.79,479.06 421.28,479.12 425.77,479.19 430.26,479.26 434.75,479.33 439.24,479.40 443.73,479.47 448.22,479.54 452.71,479.61 457.20,479.69 461.69,479.76 466.18,479.84 470.67,479.91 475.16,479.99 479.65,480.07 484.14,480.14 488.63,480.22 493.12,480.29 497.61,480.37 502.10,480.44 506.59,480.51 511.08,480.59 515.57,480.66 520.06,480.72 524.55,480.79 529.04,480.86 533.53,480.92 538.02,480.98 542.51,481.05 547.00,481.11 551.49,481.16 555.98,481.22 560.47,481.27 564.96,481.32 569.45,481.38 573.94,481.42 578.43,481.47 582.92,481.52 587.41,481.56 591.90,481.60 596.39,481.65 600.88,481.69 605.37,481.72 609.86,481.76 614.35,481.80 618.84,481.83 623.33,481.87 627.82,481.90 632.31,481.93 636.80,481.96 641.29,481.99 645.78,482.02 650.27,482.05 654.76,482.08 659.24,482.10 663.73,482.13 668.22,482.15 672.71,482.18 677.20,482.20 681.69,482.23 686.18,482.25 690.67,482.27 695.16,482.29 699.65,482.31 704.14,482.34 708.63,482.36 713.12,482.38 717.61,482.40 722.10,482.41 726.59,482.43 731.08,482.45 735.57,482.47 740.06,482.49 744.55,482.50 749.04,482.52 753.53,482.54 758.02,482.55 762.51,482.57 767.00,482.58 771.49,482.60 775.98,482.61 780.47,482.63 784.96,482.64 789.45,482.66 793.94,482.67 798.43,482.68 802.92,482.69 807.41,482.71 811.90,482.72 816.39,482.73 820.88,482.74 825.37,482.75 829.86,482.76 834.35,482.77 838.84,482.79 843.33,482.80 847.82,482.81 852.31,482.81 856.80,482.82 861.29,482.83 865.78,482.84 870.27,482.85 874.76,482.86 879.25,482.87 883.74,482.88 888.23,482.88 892.72,482.89 897.21,482.90 901.70,482.91 906.19,482.91 910.68,482.92 915.17,482.93 919.66,482.93 924.15,482.94 928.64,482.95 933.13,482.95 937.62,482.96 942.11,482.97 946.60,482.97 951.09,482.98 955.58,482.98 960.07,482.99 964.56,482.99 969.05,483.00 973.54,483.00 978.03,483.01 982.52,483.01 987.01,483.02 991.50,483.02 995.99,483.03 1000.48,483.03 1004.97,483.04 1009.46,483.04 1013.95,483.04 1018.44,483.05 1022.93,483.05 1027.42,483.05 1031.91,483.06 1036.40,483.06 1040.89,483.07 1045.38,483.07 1049.87,483.07 1054.36,483.08 1058.85,483.08 1063.34,483.08 1067.83,483.08 1072.32,483.09 1076.81,483.09 1081.30,483.09 1085.79,483.10 1090.28,483.10 1094.77,483.10 1099.26,483.10 1103.75,483.11 1108.24,483.11 1112.73,483.11 1117.22,483.11 1121.71,483.12 1126.20,483.12 1130.69,483.12 1135.18,483.12 1139.67,483.12 1144.16,483.13 1148.65,483.13 1153.14,483.13 1157.63,483.13 1162.12,483.13 1166.61,483.14 1171.10,483.14 1175.59,483.14 1180.08,483.14 1184.57,483.14 1189.06,483.14 1193.55,483.15 1198.04,483.15 1202.53,483.15 1207.02,483.15 1211.51,483.15 1216.00,483.15" fill="none" stroke="#2458d3" stroke-width="2.2" stroke-linejoin="round" stroke-linecap="round" />
<line x1="120.0" y1="686.0" x2="148.0" y2="686.0" stroke="#bf1e2d" stroke-width="2.4" />
<text x="158.0" y="690.0" fill="#1f2430" font-size="12" font-family="Segoe UI, Arial, sans-serif" font-weight="400" text-anchor="start">rho=0.95</text>
<line x1="285.0" y1="686.0" x2="313.0" y2="686.0" stroke="#c96b17" stroke-width="2.4" />
<text x="323.0" y="690.0" fill="#1f2430" font-size="12" font-family="Segoe UI, Arial, sans-serif" font-weight="400" text-anchor="start">rho=0.98</text>
<line x1="450.0" y1="686.0" x2="478.0" y2="686.0" stroke="#2a7f62" stroke-width="2.4" />
<text x="488.0" y="690.0" fill="#1f2430" font-size="12" font-family="Segoe UI, Arial, sans-serif" font-weight="400" text-anchor="start">rho=0.985</text>
<line x1="615.0" y1="686.0" x2="643.0" y2="686.0" stroke="#2458d3" stroke-width="2.4" />
<text x="653.0" y="690.0" fill="#1f2430" font-size="12" font-family="Segoe UI, Arial, sans-serif" font-weight="400" text-anchor="start">rho=0.99</text>
</svg>