<svg xmlns="http://www.w3.org/2000/svg" width="1280" height="760" viewBox="0 0 1280 760" role="img">
<rect x="0.0" y="0.0" width="1280.0" height="760.0" fill="#ffffff" stroke="none" stroke-width="1.0" rx="0.0" />
<text x="40.0" y="34.0" fill="#1f2430" font-size="22" font-family="Segoe UI, Arial, sans-serif" font-weight="600" text-anchor="start">Bounded hard + x_s smoothing: applied inputs and steady input targets across rho</text>
<text x="40.0" y="56.0" fill="#5d6574" font-size="13" font-family="Segoe UI, Arial, sans-serif" font-weight="400" text-anchor="start">Solid lines are applied physical inputs u. Dashed lines are steady targets u_s.</text>
<rect x="40.0" y="88.0" width="1200.0" height="250.0" fill="#fbfbfd" stroke="#d7dbe5" stroke-width="1.0" rx="8.0" />
<text x="56.0" y="112.0" fill="#1f2430" font-size="16" font-family="Segoe UI, Arial, sans-serif" font-weight="600" text-anchor="start">Input u[0]</text>
<text x="56.0" y="130.0" fill="#5d6574" font-size="12" font-family="Segoe UI, Arial, sans-serif" font-weight="400" text-anchor="start">Transient window 0-249 steps</text>
<line x1="98.0" y1="306.0" x2="1216.0" y2="306.0" stroke="#d7dbe5" stroke-width="1.0" stroke-dasharray="4 4" />
<text x="90.0" y="310.0" fill="#5d6574" font-size="11" font-family="Segoe UI, Arial, sans-serif" font-weight="400" text-anchor="end">7.728</text>
<line x1="98.0" y1="226.0" x2="1216.0" y2="226.0" stroke="#d7dbe5" stroke-width="1.0" stroke-dasharray="4 4" />
<text x="90.0" y="230.0" fill="#5d6574" font-size="11" font-family="Segoe UI, Arial, sans-serif" font-weight="400" text-anchor="end">470.8</text>
<line x1="98.0" y1="146.0" x2="1216.0" y2="146.0" stroke="#d7dbe5" stroke-width="1.0" stroke-dasharray="4 4" />
<text x="90.0" y="150.0" fill="#5d6574" font-size="11" font-family="Segoe UI, Arial, sans-serif" font-weight="400" text-anchor="end">933.872</text>
<line x1="98.0" y1="146.0" x2="98.0" y2="306.0" stroke="#d7dbe5" stroke-width="1.0" stroke-dasharray="4 4" />
<text x="98.0" y="324.0" fill="#5d6574" font-size="11" font-family="Segoe UI, Arial, sans-serif" font-weight="400" text-anchor="middle">0</text>
<line x1="657.0" y1="146.0" x2="657.0" y2="306.0" stroke="#d7dbe5" stroke-width="1.0" stroke-dasharray="4 4" />
<text x="657.0" y="324.0" fill="#5d6574" font-size="11" font-family="Segoe UI, Arial, sans-serif" font-weight="400" text-anchor="middle">124</text>
<line x1="1216.0" y1="146.0" x2="1216.0" y2="306.0" stroke="#d7dbe5" stroke-width="1.0" stroke-dasharray="4 4" />
<text x="1216.0" y="324.0" fill="#5d6574" font-size="11" font-family="Segoe UI, Arial, sans-serif" font-weight="400" text-anchor="middle">249</text>
<line x1="98.0" y1="146.0" x2="98.0" y2="306.0" stroke="#2d3440" stroke-width="1.2" />
<line x1="98.0" y1="306.0" x2="1216.0" y2="306.0" stroke="#2d3440" stroke-width="1.2" />
<text x="56.0" y="160.0" fill="#5d6574" font-size="12" font-family="Segoe UI, Arial, sans-serif" font-weight="400" text-anchor="start">physical</text>
<polyline points="98.00,232.82 102.49,232.75 106.98,232.61 111.47,232.40 115.96,232.11 120.45,231.78 124.94,231.41 129.43,231.00 133.92,230.57 138.41,230.11 142.90,229.64 147.39,229.15 151.88,228.65 156.37,228.14 160.86,227.63 165.35,227.11 169.84,226.59 174.33,226.06 178.82,225.54 183.31,225.02 187.80,224.50 192.29,223.98 196.78,223.46 201.27,222.95 205.76,222.45 210.25,221.96 214.74,221.47 219.23,220.99 223.72,220.51 228.21,220.05 232.70,219.59 237.19,219.15 241.68,218.71 246.17,218.29 250.66,217.87 255.15,217.46 259.64,217.07 264.13,216.68 268.62,216.30 273.11,215.93 277.60,215.57 282.09,215.22 286.58,214.87 291.07,214.53 295.56,214.21 300.05,213.88 304.54,213.57 309.03,213.26 313.52,212.96 318.01,212.66 322.50,212.37 326.99,212.09 331.48,211.81 335.97,211.54 340.46,211.27 344.95,211.01 349.44,210.76 353.93,209.36 358.42,207.71 362.91,207.48 367.40,207.28 371.89,207.11 376.38,206.96 380.87,206.83 385.36,206.71 389.85,206.60 394.34,206.50 398.83,206.40 403.32,206.30 407.81,206.21 412.30,206.11 416.79,206.02 421.28,205.93 425.77,205.83 430.26,205.74 434.75,205.64 439.24,202.82 443.73,199.80 448.22,199.75 452.71,199.83 457.20,200.01 461.69,200.27 466.18,200.57 470.67,200.92 475.16,201.27 479.65,201.64 484.14,202.00 488.63,202.35 493.12,202.68 497.61,202.99 502.10,203.27 506.59,203.27 511.08,203.27 515.57,203.27 520.06,203.48 524.55,203.67 529.04,203.85 533.53,204.02 538.02,204.16 542.51,204.29 547.00,204.39 551.49,204.48 555.98,204.54 560.47,204.59 564.96,204.61 569.45,204.63 573.94,204.63 578.43,204.61 582.92,204.59 587.41,204.56 591.90,204.51 596.39,204.46 600.88,204.41 605.37,204.35 609.86,204.28 614.35,204.21 618.84,204.14 623.33,204.07 627.82,203.99 632.31,223.47 636.80,240.62 641.29,240.53 645.78,240.44 650.27,240.33 654.76,240.19 659.24,240.02 663.73,239.81 668.22,239.56 672.71,239.28 677.20,238.98 681.69,238.64 686.18,238.29 690.67,237.91 695.16,237.51 699.65,237.09 704.14,236.66 708.63,236.22 713.12,235.76 717.61,235.29 722.10,234.82 726.59,234.33 731.08,233.84 735.57,233.35 740.06,232.84 744.55,232.56 749.04,232.56 753.53,233.27 758.02,232.71 762.51,232.10 767.00,231.42 771.49,230.70 775.98,229.96 780.47,229.20 784.96,228.43 789.45,227.66 793.94,226.89 798.43,226.13 802.92,225.37 807.41,224.63 811.90,223.90 816.39,225.14 820.88,225.14 825.37,207.19 829.86,206.53 834.35,206.06 838.84,205.81 843.33,205.77 847.82,205.92 852.31,206.24 856.80,206.70 861.29,207.27 865.78,207.91 870.27,208.61 874.76,209.34 879.25,210.07 883.74,210.78 888.23,211.45 892.72,212.06 897.21,212.62 901.70,212.62 906.19,212.62 910.68,212.62 915.17,213.17 919.66,213.47 924.15,213.57 928.64,213.50 933.13,213.30 937.62,213.02 942.11,212.69 946.60,212.32 951.09,211.94 955.58,211.54 960.07,211.14 964.56,210.75 969.05,210.36 973.54,209.98 978.03,209.61 982.52,209.25 987.01,208.90 991.50,208.90 995.99,208.90 1000.48,208.90 1004.97,208.90 1009.46,279.94 1013.95,279.60 1018.44,279.37 1022.93,279.17 1027.42,278.98 1031.91,278.75 1036.40,278.47 1040.89,278.12 1045.38,277.71 1049.87,277.23 1054.36,276.69 1058.85,276.08 1063.34,275.41 1067.83,274.69 1072.32,273.91 1076.81,273.07 1081.30,272.19 1085.79,271.25 1090.28,270.28 1094.77,269.26 1099.26,268.20 1103.75,267.10 1108.24,265.97 1112.73,264.81 1117.22,263.62 1121.71,262.41 1126.20,261.17 1130.69,259.91 1135.18,258.63 1139.67,257.34 1144.16,256.03 1148.65,254.72 1153.14,253.40 1157.63,252.07 1162.12,250.75 1166.61,249.42 1171.10,248.10 1175.59,246.78 1180.08,245.47 1184.57,244.17 1189.06,242.88 1193.55,241.61 1198.04,240.35 1202.53,239.10 1207.02,237.88 1211.51,236.67 1216.00,235.49" fill="none" stroke="#bf1e2d" stroke-width="2.2" stroke-linejoin="round" stroke-linecap="round" />
<polyline points="98.00,239.35 102.49,239.35 106.98,229.87 111.47,211.50 115.96,186.54 120.45,157.11 124.94,157.03 129.43,157.03 133.92,157.03 138.41,157.03 142.90,157.03 147.39,157.03 151.88,157.03 156.37,157.03 160.86,157.03 165.35,157.03 169.84,157.03 174.33,157.03 178.82,157.03 183.31,157.03 187.80,157.03 192.29,157.03 196.78,157.03 201.27,157.03 205.76,157.03 210.25,157.03 214.74,157.03 219.23,157.03 223.72,157.03 228.21,157.03 232.70,157.03 237.19,157.03 241.68,157.03 246.17,157.03 250.66,157.03 255.15,157.03 259.64,157.03 264.13,157.03 268.62,157.03 273.11,157.03 277.60,157.03 282.09,157.03 286.58,157.03 291.07,157.03 295.56,157.03 300.05,157.03 304.54,157.03 309.03,157.03 313.52,157.03 318.01,157.03 322.50,157.03 326.99,157.03 331.48,157.03 335.97,157.03 340.46,157.03 344.95,157.03 349.44,157.03 353.93,157.03 358.42,157.03 362.91,157.03 367.40,157.03 371.89,158.90 376.38,162.53 380.87,167.14 385.36,172.19 389.85,177.28 394.34,182.13 398.83,186.54 403.32,190.37 407.81,193.51 412.30,195.91 416.79,197.55 421.28,198.40 425.77,198.49 430.26,197.86 434.75,196.54 439.24,194.59 443.73,192.08 448.22,194.95 452.71,212.63 457.20,241.64 461.69,277.97 466.18,294.97 470.67,294.97 475.16,294.97 479.65,294.97 484.14,294.97 488.63,294.97 493.12,294.97 497.61,294.97 502.10,294.97 506.59,294.97 511.08,294.97 515.57,294.97 520.06,294.97 524.55,294.97 529.04,294.97 533.53,294.97 538.02,294.97 542.51,294.97 547.00,293.04 551.49,288.86 555.98,282.71 560.47,274.89 564.96,265.72 569.45,255.49 573.94,244.49 578.43,232.96 582.92,221.13 587.41,209.20 591.90,197.36 596.39,185.75 600.88,174.51 605.37,163.75 609.86,157.03 614.35,157.03 618.84,157.03 623.33,157.03 627.82,157.03 632.31,157.03 636.80,157.03 641.29,157.03 645.78,157.03 650.27,157.03 654.76,157.03 659.24,157.03 663.73,157.03 668.22,157.03 672.71,157.03 677.20,157.03 681.69,157.03 686.18,157.03 690.67,157.03 695.16,157.03 699.65,157.03 704.14,157.03 708.63,157.03 713.12,157.03 717.61,157.03 722.10,157.03 726.59,157.03 731.08,157.03 735.57,157.03 740.06,157.03 744.55,157.03 749.04,157.03 753.53,157.03 758.02,157.03 762.51,157.03 767.00,157.03 771.49,157.03 775.98,157.03 780.47,157.03 784.96,157.03 789.45,157.03 793.94,157.03 798.43,157.03 802.92,157.03 807.41,157.03 811.90,157.03 816.39,157.03 820.88,157.03 825.37,157.03 829.86,157.03 834.35,157.03 838.84,178.63 843.33,223.73 847.82,287.58 852.31,294.97 856.80,294.97 861.29,294.97 865.78,294.97 870.27,294.97 874.76,294.97 879.25,294.97 883.74,294.97 888.23,294.97 892.72,294.97 897.21,294.97 901.70,294.97 906.19,294.97 910.68,294.97 915.17,294.97 919.66,294.97 924.15,288.04 928.64,260.34 933.13,219.67 937.62,172.00 942.11,157.03 946.60,157.03 951.09,157.03 955.58,157.03 960.07,157.03 964.56,157.03 969.05,157.03 973.54,157.03 978.03,157.03 982.52,157.03 987.01,157.03 991.50,157.03 995.99,157.03 1000.48,157.03 1004.97,157.03 1009.46,157.03 1013.95,157.03 1018.44,157.03 1022.93,157.03 1027.42,157.03 1031.91,157.03 1036.40,157.03 1040.89,157.03 1045.38,157.03 1049.87,157.03 1054.36,157.03 1058.85,157.03 1063.34,157.03 1067.83,157.03 1072.32,157.03 1076.81,157.03 1081.30,157.03 1085.79,157.03 1090.28,157.03 1094.77,157.03 1099.26,157.03 1103.75,157.03 1108.24,157.03 1112.73,157.03 1117.22,157.03 1121.71,157.03 1126.20,157.03 1130.69,157.03 1135.18,157.03 1139.67,157.03 1144.16,157.03 1148.65,157.03 1153.14,157.03 1157.63,157.03 1162.12,157.03 1166.61,157.03 1171.10,157.03 1175.59,157.03 1180.08,157.03 1184.57,157.03 1189.06,157.03 1193.55,157.03 1198.04,157.03 1202.53,157.03 1207.02,157.03 1211.51,157.03 1216.00,157.03" fill="none" stroke="#bf1e2d" stroke-width="1.8" stroke-linejoin="round" stroke-linecap="round" stroke-dasharray="8 5" />
<polyline points="98.00,228.22 102.49,228.15 106.98,228.05 111.47,227.92 115.96,227.76 120.45,227.56 124.94,227.33 129.43,227.08 133.92,226.80 138.41,226.51 142.90,226.19 147.39,225.85 151.88,225.50 156.37,225.14 160.86,224.77 165.35,224.38 169.84,223.99 174.33,223.59 178.82,223.19 183.31,222.78 187.80,222.37 192.29,221.95 196.78,221.54 201.27,221.12 205.76,220.71 210.25,220.30 214.74,219.89 219.23,219.49 223.72,219.08 228.21,218.69 232.70,218.29 237.19,217.90 241.68,217.52 246.17,217.15 250.66,216.77 255.15,216.41 259.64,216.05 264.13,215.70 268.62,215.36 273.11,215.02 277.60,214.69 282.09,214.36 286.58,214.05 291.07,213.74 295.56,213.43 300.05,213.13 304.54,212.84 309.03,212.56 313.52,212.28 318.01,212.00 322.50,211.73 326.99,211.47 331.48,211.21 335.97,210.96 340.46,210.72 344.95,210.47 349.44,210.24 353.93,210.01 358.42,209.78 362.91,209.56 367.40,209.34 371.89,209.12 376.38,208.91 380.87,208.71 385.36,208.51 389.85,208.31 394.34,208.12 398.83,207.93 403.32,207.74 407.81,207.56 412.30,207.39 416.79,207.21 421.28,207.04 425.77,206.88 430.26,206.71 434.75,206.55 439.24,206.40 443.73,206.25 448.22,206.10 452.71,205.95 457.20,205.81 461.69,205.67 466.18,205.53 470.67,205.40 475.16,205.27 479.65,205.15 484.14,205.02 488.63,204.90 493.12,204.78 497.61,204.67 502.10,204.56 506.59,204.45 511.08,204.34 515.57,204.24 520.06,204.13 524.55,204.03 529.04,203.94 533.53,203.84 538.02,203.75 542.51,203.66 547.00,203.57 551.49,203.49 555.98,203.40 560.47,203.32 564.96,203.24 569.45,203.24 573.94,203.17 578.43,203.09 582.92,203.02 587.41,202.95 591.90,202.88 596.39,202.82 600.88,202.75 605.37,202.69 609.86,202.62 614.35,202.56 618.84,202.50 623.33,202.45 627.82,202.39 632.31,202.33 636.80,202.28 641.29,202.23 645.78,202.18 650.27,202.13 654.76,202.08 659.24,202.03 663.73,201.98 668.22,201.94 672.71,201.89 677.20,201.85 681.69,201.81 686.18,201.76 690.67,201.72 695.16,201.68 699.65,201.65 704.14,201.61 708.63,201.57 713.12,201.53 717.61,201.50 722.10,201.47 726.59,201.43 731.08,201.40 735.57,201.37 740.06,201.34 744.55,201.31 749.04,201.28 753.53,201.25 758.02,201.22 762.51,201.19 767.00,201.17 771.49,201.14 775.98,201.11 780.47,201.09 784.96,201.06 789.45,201.04 793.94,201.02 798.43,200.99 802.92,200.97 807.41,200.95 811.90,200.93 816.39,200.91 820.88,200.89 825.37,200.87 829.86,200.85 834.35,200.83 838.84,200.81 843.33,200.79 847.82,200.78 852.31,200.76 856.80,200.74 861.29,200.73 865.78,200.71 870.27,200.69 874.76,200.68 879.25,200.66 883.74,200.65 888.23,200.64 892.72,200.62 897.21,200.61 901.70,200.60 906.19,200.58 910.68,200.57 915.17,200.56 919.66,200.55 924.15,200.53 928.64,200.52 933.13,200.51 937.62,200.50 942.11,200.49 946.60,200.48 951.09,200.47 955.58,200.46 960.07,200.45 964.56,200.44 969.05,200.43 973.54,200.42 978.03,200.41 982.52,200.41 987.01,200.40 991.50,200.39 995.99,200.38 1000.48,200.37 1004.97,200.37 1009.46,200.36 1013.95,200.35 1018.44,200.34 1022.93,200.34 1027.42,200.33 1031.91,200.32 1036.40,200.32 1040.89,200.31 1045.38,200.30 1049.87,200.30 1054.36,200.29 1058.85,200.29 1063.34,200.28 1067.83,200.28 1072.32,200.27 1076.81,200.27 1081.30,200.26 1085.79,200.26 1090.28,200.25 1094.77,200.25 1099.26,199.64 1103.75,199.61 1108.24,199.61 1112.73,199.61 1117.22,199.61 1121.71,199.62 1126.20,199.62 1130.69,199.63 1135.18,199.64 1139.67,199.64 1144.16,198.83 1148.65,190.23 1153.14,188.73 1157.63,188.72 1162.12,188.68 1166.61,188.63 1171.10,188.57 1175.59,188.52 1180.08,188.48 1184.57,188.44 1189.06,188.42 1193.55,188.40 1198.04,188.78 1202.53,188.26 1207.02,188.29 1211.51,188.40 1216.00,188.58" fill="none" stroke="#c96b17" stroke-width="2.2" stroke-linejoin="round" stroke-linecap="round" />
<polyline points="98.00,239.35 102.49,239.35 106.98,235.47 111.47,227.35 115.96,215.49 120.45,200.51 124.94,183.00 129.43,163.45 133.92,157.03 138.41,157.03 142.90,157.03 147.39,157.03 151.88,157.03 156.37,157.03 160.86,157.03 165.35,157.03 169.84,157.03 174.33,157.03 178.82,157.03 183.31,157.03 187.80,157.03 192.29,157.03 196.78,157.03 201.27,157.03 205.76,157.03 210.25,157.03 214.74,157.03 219.23,157.03 223.72,157.03 228.21,157.03 232.70,157.03 237.19,157.03 241.68,157.03 246.17,157.03 250.66,157.03 255.15,157.03 259.64,157.03 264.13,157.03 268.62,157.03 273.11,157.03 277.60,157.03 282.09,157.03 286.58,157.03 291.07,157.03 295.56,157.03 300.05,157.03 304.54,157.03 309.03,157.03 313.52,157.03 318.01,157.03 322.50,157.03 326.99,157.03 331.48,157.03 335.97,157.03 340.46,157.03 344.95,157.03 349.44,157.03 353.93,157.03 358.42,157.03 362.91,157.03 367.40,157.03 371.89,157.03 376.38,157.03 380.87,157.03 385.36,157.03 389.85,157.03 394.34,157.03 398.83,157.03 403.32,157.03 407.81,157.03 412.30,157.03 416.79,157.03 421.28,157.03 425.77,157.03 430.26,157.03 434.75,157.03 439.24,157.03 443.73,157.03 448.22,157.03 452.71,157.03 457.20,157.03 461.69,157.03 466.18,157.03 470.67,157.03 475.16,157.03 479.65,157.03 484.14,157.03 488.63,157.03 493.12,157.03 497.61,157.03 502.10,157.03 506.59,157.03 511.08,157.03 515.57,157.03 520.06,157.03 524.55,157.03 529.04,157.03 533.53,157.03 538.02,157.03 542.51,157.03 547.00,157.03 551.49,157.03 555.98,157.03 560.47,157.03 564.96,157.03 569.45,157.03 573.94,157.03 578.43,157.05 582.92,157.11 587.41,157.19 591.90,157.30 596.39,157.43 600.88,157.59 605.37,157.77 609.86,157.98 614.35,158.21 618.84,158.46 623.33,158.74 627.82,159.03 632.31,159.34 636.80,159.67 641.29,160.02 645.78,160.38 650.27,160.76 654.76,161.14 659.24,161.54 663.73,161.95 668.22,162.37 672.71,162.80 677.20,163.24 681.69,163.68 686.18,164.13 690.67,164.58 695.16,165.04 699.65,165.50 704.14,165.97 708.63,166.43 713.12,166.90 717.61,167.37 722.10,167.84 726.59,168.31 731.08,168.78 735.57,169.25 740.06,169.72 744.55,170.18 749.04,170.65 753.53,171.11 758.02,171.57 762.51,172.03 767.00,172.48 771.49,172.93 775.98,173.38 780.47,173.82 784.96,174.26 789.45,174.70 793.94,175.13 798.43,175.56 802.92,175.99 807.41,176.41 811.90,176.82 816.39,177.24 820.88,177.64 825.37,178.05 829.86,178.44 834.35,178.84 838.84,179.22 843.33,179.61 847.82,179.98 852.31,180.36 856.80,180.73 861.29,181.09 865.78,181.45 870.27,181.80 874.76,182.15 879.25,182.49 883.74,182.83 888.23,183.16 892.72,183.49 897.21,183.81 901.70,184.13 906.19,184.44 910.68,184.75 915.17,185.05 919.66,185.35 924.15,185.65 928.64,185.93 933.13,186.22 937.62,186.50 942.11,186.77 946.60,187.04 951.09,187.30 955.58,187.56 960.07,187.82 964.56,188.07 969.05,188.32 973.54,188.56 978.03,188.80 982.52,189.03 987.01,189.26 991.50,189.48 995.99,189.70 1000.48,189.92 1004.97,190.13 1009.46,190.34 1013.95,190.54 1018.44,190.75 1022.93,190.94 1027.42,191.13 1031.91,191.32 1036.40,191.51 1040.89,191.69 1045.38,191.87 1049.87,192.05 1054.36,192.22 1058.85,192.39 1063.34,192.55 1067.83,192.71 1072.32,192.87 1076.81,193.03 1081.30,193.18 1085.79,193.33 1090.28,193.47 1094.77,193.62 1099.26,157.37 1103.75,158.36 1108.24,168.89 1112.73,178.25 1117.22,178.46 1121.71,178.80 1126.20,179.21 1130.69,179.65 1135.18,180.10 1139.67,180.53 1144.16,180.92 1148.65,181.27 1153.14,181.59 1157.63,179.04 1162.12,173.65 1166.61,167.10 1171.10,160.64 1175.59,157.03 1180.08,157.03 1184.57,157.03 1189.06,157.03 1193.55,157.03 1198.04,157.03 1202.53,157.06 1207.02,159.70 1211.51,172.56 1216.00,193.17" fill="none" stroke="#c96b17" stroke-width="1.8" stroke-linejoin="round" stroke-linecap="round" stroke-dasharray="8 5" />
<polyline points="98.00,227.46 102.49,227.39 106.98,227.30 111.47,227.19 115.96,227.04 120.45,226.86 124.94,226.66 129.43,226.44 133.92,226.44 138.41,226.17 142.90,225.88 147.39,225.58 151.88,225.27 156.37,224.94 160.86,224.60 165.35,224.25 169.84,223.89 174.33,223.52 178.82,223.15 183.31,222.77 187.80,222.38 192.29,221.99 196.78,221.60 201.27,221.21 205.76,220.81 210.25,220.42 214.74,220.03 219.23,219.63 223.72,219.24 228.21,218.86 232.70,218.47 237.19,218.10 241.68,217.72 246.17,217.35 250.66,216.98 255.15,216.62 259.64,216.27 264.13,215.92 268.62,215.58 273.11,215.24 277.60,214.91 282.09,214.59 286.58,214.27 291.07,213.95 295.56,213.65 300.05,213.35 304.54,213.05 309.03,212.77 313.52,212.48 318.01,212.21 322.50,211.94 326.99,211.67 331.48,211.41 335.97,211.16 340.46,210.91 344.95,210.66 349.44,210.42 353.93,210.19 358.42,209.96 362.91,209.73 367.40,209.51 371.89,209.30 376.38,209.09 380.87,208.88 385.36,208.68 389.85,208.48 394.34,208.28 398.83,208.09 403.32,207.90 407.81,207.72 412.30,207.54 416.79,207.36 421.28,207.19 425.77,207.02 430.26,206.86 434.75,206.70 439.24,206.54 443.73,206.39 448.22,206.24 452.71,206.09 457.20,205.94 461.69,205.80 466.18,205.67 470.67,205.53 475.16,205.40 479.65,205.27 484.14,205.14 488.63,205.02 493.12,204.90 497.61,204.78 502.10,204.67 506.59,204.56 511.08,204.45 515.57,204.34 520.06,204.24 524.55,204.14 529.04,204.04 533.53,203.94 538.02,203.85 542.51,203.76 547.00,203.67 551.49,203.58 555.98,203.50 560.47,203.41 564.96,203.33 569.45,203.25 573.94,203.17 578.43,203.17 582.92,196.72 587.41,196.65 591.90,196.67 596.39,196.77 600.88,196.93 605.37,197.13 609.86,197.36 614.35,197.61 618.84,197.87 623.33,198.13 627.82,198.38 632.31,198.63 636.80,198.87 641.29,199.10 645.78,199.31 650.27,199.51 654.76,199.69 659.24,199.85 663.73,199.99 668.22,200.12 672.71,200.23 677.20,200.33 681.69,200.41 686.18,200.48 690.67,200.53 695.16,200.57 699.65,200.61 704.14,200.63 708.63,200.65 713.12,200.65 717.61,200.66 722.10,200.65 726.59,200.64 731.08,200.63 735.57,200.62 740.06,200.60 744.55,200.58 749.04,200.55 753.53,200.53 758.02,200.51 762.51,200.48 767.00,200.46 771.49,200.44 775.98,200.41 780.47,200.39 784.96,200.37 789.45,200.34 793.94,200.32 798.43,200.30 802.92,200.29 807.41,200.27 811.90,200.25 816.39,200.24 820.88,200.23 825.37,200.21 829.86,200.20 834.35,200.19 838.84,200.18 843.33,200.17 847.82,200.17 852.31,200.16 856.80,200.15 861.29,200.15 865.78,200.14 870.27,200.14 874.76,200.14 879.25,200.13 883.74,200.13 888.23,200.13 892.72,200.13 897.21,200.12 901.70,200.12 906.19,200.12 910.68,200.12 915.17,200.12 919.66,200.11 924.15,200.11 928.64,200.11 933.13,200.11 937.62,200.11 942.11,200.10 946.60,200.10 951.09,200.10 955.58,200.10 960.07,200.10 964.56,200.09 969.05,200.09 973.54,200.09 978.03,200.09 982.52,200.08 987.01,200.08 991.50,200.08 995.99,200.08 1000.48,200.07 1004.97,200.07 1009.46,200.07 1013.95,200.06 1018.44,200.06 1022.93,200.06 1027.42,200.06 1031.91,200.05 1036.40,200.05 1040.89,200.05 1045.38,200.05 1049.87,200.05 1054.36,200.04 1058.85,200.04 1063.34,200.04 1067.83,200.04 1072.32,200.04 1076.81,200.04 1081.30,200.03 1085.79,200.03 1090.28,200.03 1094.77,200.03 1099.26,200.03 1103.75,200.03 1108.24,200.03 1112.73,200.03 1117.22,200.02 1121.71,200.02 1126.20,200.02 1130.69,200.02 1135.18,200.02 1139.67,200.02 1144.16,200.02 1148.65,200.02 1153.14,200.02 1157.63,200.02 1162.12,200.02 1166.61,200.02 1171.10,200.02 1175.59,200.02 1180.08,200.02 1184.57,200.02 1189.06,200.02 1193.55,200.02 1198.04,200.02 1202.53,200.02 1207.02,200.01 1211.51,200.01 1216.00,200.01" fill="none" stroke="#2a7f62" stroke-width="2.2" stroke-linejoin="round" stroke-linecap="round" />
<polyline points="98.00,239.35 102.49,239.35 106.98,236.40 111.47,230.02 115.96,220.38 120.45,207.88 124.94,192.91 129.43,175.84 133.92,157.04 138.41,157.03 142.90,157.03 147.39,157.03 151.88,157.03 156.37,157.03 160.86,157.03 165.35,157.03 169.84,157.03 174.33,157.03 178.82,157.03 183.31,157.03 187.80,157.03 192.29,157.03 196.78,157.03 201.27,157.03 205.76,157.03 210.25,157.03 214.74,157.03 219.23,157.03 223.72,157.03 228.21,157.03 232.70,157.03 237.19,157.03 241.68,157.03 246.17,157.03 250.66,157.03 255.15,157.03 259.64,157.03 264.13,157.03 268.62,157.03 273.11,157.03 277.60,157.03 282.09,157.03 286.58,157.03 291.07,157.03 295.56,157.03 300.05,157.03 304.54,157.03 309.03,157.03 313.52,157.03 318.01,157.03 322.50,157.03 326.99,157.03 331.48,157.03 335.97,157.03 340.46,157.03 344.95,157.03 349.44,157.03 353.93,157.03 358.42,157.03 362.91,157.03 367.40,157.03 371.89,157.03 376.38,157.03 380.87,157.03 385.36,157.03 389.85,157.03 394.34,157.03 398.83,157.03 403.32,157.03 407.81,157.03 412.30,157.03 416.79,157.03 421.28,157.03 425.77,157.03 430.26,157.03 434.75,157.03 439.24,157.03 443.73,157.03 448.22,157.03 452.71,157.03 457.20,157.03 461.69,157.03 466.18,157.03 470.67,157.03 475.16,157.03 479.65,157.03 484.14,157.03 488.63,157.03 493.12,157.03 497.61,157.03 502.10,157.03 506.59,157.03 511.08,157.03 515.57,157.03 520.06,157.03 524.55,157.03 529.04,157.03 533.53,157.03 538.02,157.03 542.51,157.03 547.00,157.03 551.49,157.03 555.98,157.03 560.47,157.03 564.96,157.03 569.45,157.03 573.94,157.03 578.43,157.03 582.92,157.05 587.41,157.10 591.90,167.99 596.39,187.99 600.88,213.67 605.37,242.22 609.86,271.66 614.35,294.97 618.84,294.97 623.33,294.97 627.82,294.97 632.31,294.97 636.80,294.97 641.29,294.97 645.78,294.97 650.27,294.97 654.76,294.97 659.24,294.97 663.73,294.97 668.22,294.97 672.71,294.97 677.20,294.64 681.69,292.55 686.18,288.92 690.67,284.03 695.16,278.11 699.65,271.39 704.14,264.08 708.63,256.37 713.12,248.44 717.61,240.43 722.10,232.48 726.59,224.70 731.08,217.18 735.57,210.00 740.06,203.23 744.55,196.92 749.04,191.09 753.53,185.78 758.02,181.00 762.51,176.75 767.00,173.04 771.49,169.84 775.98,167.16 780.47,164.95 784.96,163.22 789.45,161.92 793.94,161.02 798.43,160.50 802.92,158.21 807.41,163.78 811.90,167.06 816.39,168.38 820.88,168.03 825.37,166.28 829.86,163.40 834.35,159.60 838.84,159.75 843.33,160.03 847.82,160.42 852.31,160.89 856.80,161.41 861.29,161.98 865.78,162.57 870.27,163.17 874.76,163.76 879.25,164.35 883.74,164.91 888.23,165.43 892.72,165.93 897.21,166.37 901.70,166.78 906.19,167.14 910.68,167.44 915.17,167.70 919.66,167.92 924.15,168.08 928.64,168.20 933.13,168.28 937.62,168.32 942.11,168.32 946.60,168.29 951.09,168.22 955.58,168.14 960.07,168.02 964.56,167.89 969.05,167.74 973.54,167.58 978.03,167.41 982.52,167.23 987.01,167.05 991.50,166.87 995.99,166.69 1000.48,166.50 1004.97,166.33 1009.46,166.16 1013.95,165.99 1018.44,165.84 1022.93,165.69 1027.42,165.56 1031.91,165.43 1036.40,158.34 1040.89,160.45 1045.38,162.45 1049.87,164.33 1054.36,166.10 1058.85,167.75 1063.34,169.31 1067.83,170.76 1072.32,172.11 1076.81,173.38 1081.30,174.56 1085.79,175.66 1090.28,176.69 1094.77,177.65 1099.26,178.54 1103.75,179.38 1108.24,180.17 1112.73,180.91 1117.22,181.61 1121.71,182.26 1126.20,182.89 1130.69,183.48 1135.18,184.04 1139.67,184.59 1144.16,185.10 1148.65,185.60 1153.14,186.09 1157.63,186.56 1162.12,187.01 1166.61,187.45 1171.10,187.89 1175.59,188.31 1180.08,188.73 1184.57,189.13 1189.06,189.53 1193.55,189.93 1198.04,190.31 1202.53,190.69 1207.02,191.06 1211.51,191.43 1216.00,191.79" fill="none" stroke="#2a7f62" stroke-width="1.8" stroke-linejoin="round" stroke-linecap="round" stroke-dasharray="8 5" />
<polyline points="98.00,226.70 102.49,226.63 106.98,226.55 111.47,226.45 115.96,226.32 120.45,226.17 124.94,226.00 129.43,225.80 133.92,225.57 138.41,225.33 142.90,225.07 147.39,224.78 151.88,224.48 156.37,224.17 160.86,223.84 165.35,223.50 169.84,223.15 174.33,222.79 178.82,222.43 183.31,222.05 187.80,221.68 192.29,221.29 196.78,220.91 201.27,220.53 205.76,220.14 210.25,219.75 214.74,219.37 219.23,218.98 223.72,218.60 228.21,218.22 232.70,217.85 237.19,217.48 241.68,217.11 246.17,216.75 250.66,216.39 255.15,216.04 259.64,215.69 264.13,215.35 268.62,215.02 273.11,214.69 277.60,214.37 282.09,214.05 286.58,213.75 291.07,213.44 295.56,213.15 300.05,212.86 304.54,212.57 309.03,212.29 313.52,212.02 318.01,211.75 322.50,211.49 326.99,211.24 331.48,210.99 335.97,210.74 340.46,210.50 344.95,210.27 349.44,210.04 353.93,209.81 358.42,209.59 362.91,209.37 367.40,209.16 371.89,208.95 376.38,208.75 380.87,208.55 385.36,208.36 389.85,208.17 394.34,207.98 398.83,207.80 403.32,207.62 407.81,207.44 412.30,207.27 416.79,207.10 421.28,206.93 425.77,206.77 430.26,206.61 434.75,206.46 439.24,206.31 443.73,206.16 448.22,206.01 452.71,205.87 457.20,205.73 461.69,205.60 466.18,205.46 470.67,205.34 475.16,205.21 479.65,205.08 484.14,204.96 488.63,204.85 493.12,204.73 497.61,204.62 502.10,204.51 506.59,204.40 511.08,204.29 515.57,204.19 520.06,204.09 524.55,204.00 529.04,203.90 533.53,203.81 538.02,203.72 542.51,203.63 547.00,203.54 551.49,203.46 555.98,203.38 560.47,203.38 564.96,203.30 569.45,203.30 573.94,203.22 578.43,203.22 582.92,203.15 587.41,203.08 591.90,203.01 596.39,202.95 600.88,202.88 605.37,202.82 609.86,202.75 614.35,202.69 618.84,202.63 623.33,202.57 627.82,202.52 632.31,202.46 636.80,202.41 641.29,202.35 645.78,202.30 650.27,202.25 654.76,202.20 659.24,202.15 663.73,202.10 668.22,202.06 672.71,202.01 677.20,201.97 681.69,201.92 686.18,201.88 690.67,201.84 695.16,201.80 699.65,201.76 704.14,201.72 708.63,201.68 713.12,201.64 717.61,201.61 722.10,201.57 726.59,201.54 731.08,201.50 735.57,201.47 740.06,201.44 744.55,201.41 749.04,201.38 753.53,201.35 758.02,201.32 762.51,201.29 767.00,201.26 771.49,201.23 775.98,201.21 780.47,201.18 784.96,201.15 789.45,201.13 793.94,201.10 798.43,201.08 802.92,201.06 807.41,201.03 811.90,201.01 816.39,200.99 820.88,200.97 825.37,200.95 829.86,200.93 834.35,200.91 838.84,200.89 843.33,200.87 847.82,200.85 852.31,200.83 856.80,200.81 861.29,200.80 865.78,200.78 870.27,200.76 874.76,200.75 879.25,200.73 883.74,200.71 888.23,200.70 892.72,200.68 897.21,200.67 901.70,200.66 906.19,200.64 910.68,200.63 915.17,200.62 919.66,200.60 924.15,200.59 928.64,200.58 933.13,200.57 937.62,200.55 942.11,200.54 946.60,200.53 951.09,200.52 955.58,200.51 960.07,200.50 964.56,200.49 969.05,200.48 973.54,200.47 978.03,200.46 982.52,200.45 987.01,200.44 991.50,200.43 995.99,200.42 1000.48,200.41 1004.97,200.41 1009.46,200.40 1013.95,200.39 1018.44,200.38 1022.93,200.38 1027.42,200.37 1031.91,200.36 1036.40,200.35 1040.89,200.35 1045.38,200.34 1049.87,200.33 1054.36,200.33 1058.85,200.32 1063.34,200.31 1067.83,200.31 1072.32,200.30 1076.81,200.30 1081.30,200.29 1085.79,200.29 1090.28,200.28 1094.77,200.27 1099.26,200.27 1103.75,200.26 1108.24,200.26 1112.73,200.25 1117.22,200.25 1121.71,200.25 1126.20,200.24 1130.69,200.24 1135.18,200.23 1139.67,200.23 1144.16,200.22 1148.65,200.22 1153.14,200.22 1157.63,200.21 1162.12,200.21 1166.61,200.20 1171.10,200.20 1175.59,200.20 1180.08,200.19 1184.57,200.19 1189.06,200.19 1193.55,200.18 1198.04,200.18 1202.53,200.18 1207.02,200.18 1211.51,200.17 1216.00,200.17" fill="none" stroke="#2458d3" stroke-width="2.2" stroke-linejoin="round" stroke-linecap="round" />
<polyline points="98.00,239.35 102.49,239.35 106.98,237.33 111.47,232.69 115.96,225.32 120.45,215.33 124.94,202.94 129.43,188.40 133.92,172.01 138.41,157.03 142.90,157.03 147.39,157.03 151.88,157.03 156.37,157.03 160.86,157.03 165.35,157.03 169.84,157.03 174.33,157.03 178.82,157.03 183.31,157.03 187.80,157.03 192.29,157.03 196.78,157.03 201.27,157.03 205.76,157.03 210.25,157.03 214.74,157.03 219.23,157.03 223.72,157.03 228.21,157.03 232.70,157.03 237.19,157.03 241.68,157.03 246.17,157.03 250.66,157.03 255.15,157.03 259.64,157.03 264.13,157.03 268.62,157.03 273.11,157.03 277.60,157.03 282.09,157.03 286.58,157.03 291.07,157.03 295.56,157.03 300.05,157.03 304.54,157.03 309.03,157.03 313.52,157.03 318.01,157.03 322.50,157.03 326.99,157.03 331.48,157.03 335.97,157.03 340.46,157.03 344.95,157.03 349.44,157.03 353.93,157.03 358.42,157.03 362.91,157.03 367.40,157.03 371.89,157.03 376.38,157.03 380.87,157.03 385.36,157.03 389.85,157.03 394.34,157.03 398.83,157.03 403.32,157.03 407.81,157.03 412.30,157.03 416.79,157.03 421.28,157.03 425.77,157.03 430.26,157.03 434.75,157.03 439.24,157.03 443.73,157.03 448.22,157.03 452.71,157.03 457.20,157.03 461.69,157.03 466.18,157.03 470.67,157.03 475.16,157.03 479.65,157.03 484.14,157.03 488.63,157.03 493.12,157.03 497.61,157.03 502.10,157.03 506.59,157.03 511.08,157.03 515.57,157.03 520.06,157.03 524.55,157.03 529.04,157.03 533.53,157.03 538.02,157.03 542.51,157.03 547.00,157.03 551.49,157.03 555.98,157.03 560.47,157.03 564.96,157.03 569.45,157.03 573.94,157.03 578.43,157.04 582.92,157.08 587.41,157.13 591.90,157.20 596.39,157.28 600.88,157.38 605.37,157.49 609.86,157.62 614.35,157.78 618.84,157.96 623.33,158.16 627.82,158.38 632.31,158.63 636.80,158.90 641.29,159.19 645.78,159.51 650.27,159.84 654.76,160.19 659.24,160.55 663.73,160.93 668.22,161.32 672.71,161.73 677.20,162.15 681.69,162.57 686.18,163.00 690.67,163.45 695.16,163.89 699.65,164.34 704.14,164.80 708.63,165.26 713.12,165.72 717.61,166.18 722.10,166.64 726.59,167.10 731.08,167.56 735.57,168.03 740.06,168.49 744.55,168.94 749.04,169.40 753.53,169.85 758.02,170.31 762.51,170.75 767.00,171.20 771.49,171.64 775.98,172.08 780.47,172.52 784.96,172.95 789.45,173.38 793.94,173.80 798.43,174.22 802.92,174.64 807.41,175.05 811.90,175.46 816.39,175.86 820.88,176.26 825.37,176.66 829.86,177.05 834.35,177.44 838.84,177.82 843.33,178.20 847.82,178.57 852.31,178.94 856.80,179.31 861.29,179.67 865.78,180.03 870.27,180.38 874.76,180.73 879.25,181.07 883.74,181.41 888.23,181.74 892.72,182.07 897.21,182.40 901.70,182.72 906.19,183.03 910.68,183.34 915.17,183.65 919.66,183.95 924.15,184.25 928.64,184.54 933.13,184.83 937.62,185.11 942.11,185.39 946.60,185.67 951.09,185.94 955.58,186.20 960.07,186.47 964.56,186.72 969.05,186.98 973.54,187.22 978.03,187.47 982.52,187.71 987.01,187.94 991.50,188.18 995.99,188.40 1000.48,188.63 1004.97,188.85 1009.46,189.06 1013.95,189.27 1018.44,189.48 1022.93,189.68 1027.42,189.88 1031.91,190.08 1036.40,190.27 1040.89,190.46 1045.38,190.65 1049.87,190.83 1054.36,191.01 1058.85,191.18 1063.34,191.36 1067.83,191.53 1072.32,191.69 1076.81,191.85 1081.30,192.01 1085.79,192.17 1090.28,192.32 1094.77,192.47 1099.26,192.62 1103.75,192.76 1108.24,192.90 1112.73,193.04 1117.22,157.67 1121.71,158.62 1126.20,159.55 1130.69,160.46 1135.18,161.36 1139.67,162.23 1144.16,163.08 1148.65,163.91 1153.14,164.72 1157.63,165.52 1162.12,166.30 1166.61,167.05 1171.10,167.80 1175.59,168.52 1180.08,169.23 1184.57,169.93 1189.06,170.60 1193.55,171.27 1198.04,171.91 1202.53,172.55 1207.02,173.17 1211.51,173.77 1216.00,174.36" fill="none" stroke="#2458d3" stroke-width="1.8" stroke-linejoin="round" stroke-linecap="round" stroke-dasharray="8 5" />
<rect x="40.0" y="370.0" width="1200.0" height="250.0" fill="#fbfbfd" stroke="#d7dbe5" stroke-width="1.0" rx="8.0" />
<text x="56.0" y="394.0" fill="#1f2430" font-size="16" font-family="Segoe UI, Arial, sans-serif" font-weight="600" text-anchor="start">Input u[1]</text>
<text x="56.0" y="412.0" fill="#5d6574" font-size="12" font-family="Segoe UI, Arial, sans-serif" font-weight="400" text-anchor="start">Transient window 0-249 steps</text>
<line x1="98.0" y1="588.0" x2="1216.0" y2="588.0" stroke="#d7dbe5" stroke-width="1.0" stroke-dasharray="4 4" />
<text x="90.0" y="592.0" fill="#5d6574" font-size="11" font-family="Segoe UI, Arial, sans-serif" font-weight="400" text-anchor="end">30.64</text>
<line x1="98.0" y1="508.0" x2="1216.0" y2="508.0" stroke="#d7dbe5" stroke-width="1.0" stroke-dasharray="4 4" />
<text x="90.0" y="512.0" fill="#5d6574" font-size="11" font-family="Segoe UI, Arial, sans-serif" font-weight="400" text-anchor="end">374</text>
<line x1="98.0" y1="428.0" x2="1216.0" y2="428.0" stroke="#d7dbe5" stroke-width="1.0" stroke-dasharray="4 4" />
<text x="90.0" y="432.0" fill="#5d6574" font-size="11" font-family="Segoe UI, Arial, sans-serif" font-weight="400" text-anchor="end">717.36</text>
<line x1="98.0" y1="428.0" x2="98.0" y2="588.0" stroke="#d7dbe5" stroke-width="1.0" stroke-dasharray="4 4" />
<text x="98.0" y="606.0" fill="#5d6574" font-size="11" font-family="Segoe UI, Arial, sans-serif" font-weight="400" text-anchor="middle">0</text>
<line x1="657.0" y1="428.0" x2="657.0" y2="588.0" stroke="#d7dbe5" stroke-width="1.0" stroke-dasharray="4 4" />
<text x="657.0" y="606.0" fill="#5d6574" font-size="11" font-family="Segoe UI, Arial, sans-serif" font-weight="400" text-anchor="middle">124</text>
<line x1="1216.0" y1="428.0" x2="1216.0" y2="588.0" stroke="#d7dbe5" stroke-width="1.0" stroke-dasharray="4 4" />
<text x="1216.0" y="606.0" fill="#5d6574" font-size="11" font-family="Segoe UI, Arial, sans-serif" font-weight="400" text-anchor="middle">249</text>
<line x1="98.0" y1="428.0" x2="98.0" y2="588.0" stroke="#2d3440" stroke-width="1.2" />
<line x1="98.0" y1="588.0" x2="1216.0" y2="588.0" stroke="#2d3440" stroke-width="1.2" />
<text x="56.0" y="442.0" fill="#5d6574" font-size="12" font-family="Segoe UI, Arial, sans-serif" font-weight="400" text-anchor="start">physical</text>
<polyline points="98.00,485.43 102.49,483.32 106.98,481.39 111.47,479.67 115.96,478.16 120.45,476.84 124.94,475.73 129.43,474.83 133.92,474.13 138.41,473.63 142.90,473.32 147.39,473.18 151.88,473.19 156.37,473.35 160.86,473.62 165.35,473.99 169.84,474.45 174.33,474.96 178.82,475.53 183.31,476.12 187.80,476.73 192.29,477.35 196.78,477.96 201.27,478.56 205.76,479.13 210.25,479.68 214.74,480.18 219.23,480.65 223.72,481.08 228.21,481.46 232.70,481.80 237.19,482.08 241.68,482.33 246.17,482.52 250.66,482.67 255.15,482.78 259.64,482.85 264.13,482.87 268.62,482.87 273.11,482.82 277.60,482.75 282.09,482.66 286.58,482.54 291.07,482.40 295.56,482.24 300.05,482.07 304.54,481.88 309.03,481.69 313.52,481.50 318.01,481.30 322.50,481.10 326.99,480.90 331.48,480.70 335.97,480.51 340.46,480.32 344.95,480.15 349.44,479.98 353.93,484.02 358.42,489.14 362.91,488.97 367.40,488.73 371.89,488.44 376.38,488.10 380.87,487.70 385.36,487.26 389.85,486.78 394.34,486.26 398.83,485.71 403.32,485.14 407.81,484.56 412.30,483.97 416.79,483.38 421.28,482.80 425.77,482.24 430.26,481.69 434.75,481.17 439.24,495.96 443.73,522.01 448.22,521.45 452.71,520.60 457.20,519.48 461.69,518.11 466.18,516.52 470.67,514.73 475.16,512.77 479.65,510.65 484.14,508.40 488.63,506.07 493.12,503.67 497.61,501.23 502.10,498.79 506.59,498.79 511.08,498.79 515.57,498.79 520.06,496.53 524.55,494.32 529.04,492.18 533.53,490.14 538.02,488.20 542.51,486.39 547.00,484.70 551.49,483.14 555.98,481.72 560.47,480.44 564.96,479.30 569.45,478.29 573.94,477.42 578.43,476.67 582.92,476.06 587.41,475.55 591.90,475.16 596.39,474.87 600.88,474.68 605.37,474.56 609.86,474.52 614.35,474.55 618.84,474.63 623.33,474.76 627.82,474.94 632.31,474.41 636.80,480.12 641.29,480.39 645.78,480.68 650.27,481.03 654.76,481.44 659.24,481.91 663.73,482.44 668.22,483.01 672.71,483.60 677.20,484.21 681.69,484.81 686.18,485.41 690.67,485.99 695.16,486.54 699.65,487.06 704.14,487.54 708.63,487.98 713.12,488.38 717.61,488.73 722.10,489.04 726.59,489.29 731.08,489.50 735.57,489.66 740.06,489.76 744.55,481.04 749.04,481.04 753.53,460.55 758.02,460.61 762.51,460.80 767.00,461.15 771.49,461.64 775.98,462.27 780.47,463.04 784.96,463.94 789.45,464.96 793.94,466.08 798.43,467.28 802.92,468.54 807.41,469.83 811.90,471.14 816.39,472.15 820.88,472.15 825.37,563.00 829.86,564.14 834.35,564.78 838.84,564.77 843.33,564.07 847.82,562.66 852.31,560.55 856.80,557.79 861.29,554.43 865.78,550.55 870.27,546.26 874.76,541.64 879.25,536.78 883.74,531.75 888.23,526.62 892.72,521.46 897.21,516.32 901.70,516.32 906.19,516.32 910.68,516.32 915.17,473.15 919.66,468.48 924.15,464.35 928.64,460.77 933.13,457.72 937.62,455.17 942.11,453.12 946.60,451.59 951.09,450.56 955.58,450.02 960.07,449.93 964.56,450.24 969.05,450.91 973.54,451.88 978.03,453.10 982.52,454.50 987.01,456.05 991.50,456.05 995.99,456.05 1000.48,456.05 1004.97,456.05 1009.46,503.92 1013.95,505.70 1018.44,507.22 1022.93,508.55 1027.42,509.76 1031.91,510.88 1036.40,511.91 1040.89,512.83 1045.38,513.63 1049.87,514.31 1054.36,514.85 1058.85,515.27 1063.34,515.56 1067.83,515.74 1072.32,515.80 1076.81,515.76 1081.30,515.62 1085.79,515.39 1090.28,515.08 1094.77,514.69 1099.26,514.23 1103.75,513.71 1108.24,513.14 1112.73,512.52 1117.22,511.85 1121.71,511.14 1126.20,510.41 1130.69,509.64 1135.18,508.85 1139.67,508.04 1144.16,507.22 1148.65,506.38 1153.14,505.53 1157.63,504.67 1162.12,503.80 1166.61,502.93 1171.10,502.06 1175.59,501.19 1180.08,500.31 1184.57,499.43 1189.06,498.56 1193.55,497.68 1198.04,496.81 1202.53,495.94 1207.02,495.07 1211.51,494.21 1216.00,493.35" fill="none" stroke="#bf1e2d" stroke-width="2.2" stroke-linejoin="round" stroke-linecap="round" />
<polyline points="98.00,439.03 102.49,439.03 106.98,439.14 111.47,447.18 115.96,461.18 120.45,479.37 124.94,500.92 129.43,524.88 133.92,550.49 138.41,576.97 142.90,576.97 147.39,576.97 151.88,576.97 156.37,576.97 160.86,576.97 165.35,576.97 169.84,576.97 174.33,576.97 178.82,576.97 183.31,576.97 187.80,576.97 192.29,576.97 196.78,576.97 201.27,576.97 205.76,576.97 210.25,576.97 214.74,576.97 219.23,576.97 223.72,576.97 228.21,576.97 232.70,576.97 237.19,576.97 241.68,576.97 246.17,576.97 250.66,576.97 255.15,576.97 259.64,576.97 264.13,576.97 268.62,576.97 273.11,576.97 277.60,576.97 282.09,576.97 286.58,576.97 291.07,576.97 295.56,576.97 300.05,576.97 304.54,576.97 309.03,576.97 313.52,576.97 318.01,576.97 322.50,576.97 326.99,576.97 331.48,576.97 335.97,576.97 340.46,576.97 344.95,576.97 349.44,576.97 353.93,576.97 358.42,576.97 362.91,576.97 367.40,574.60 371.89,569.89 376.38,563.63 380.87,556.48 385.36,548.92 389.85,541.27 394.34,533.79 398.83,526.66 403.32,520.03 407.81,513.99 412.30,508.61 416.79,503.94 421.28,499.99 425.77,496.77 430.26,494.26 434.75,492.43 439.24,491.25 443.73,490.65 448.22,485.39 452.71,467.07 457.20,439.03 461.69,439.03 466.18,439.03 470.67,439.03 475.16,439.03 479.65,439.03 484.14,439.03 488.63,439.03 493.12,439.03 497.61,439.03 502.10,439.03 506.59,439.03 511.08,439.03 515.57,439.03 520.06,439.03 524.55,439.03 529.04,439.03 533.53,439.03 538.02,439.03 542.51,439.03 547.00,439.03 551.49,439.03 555.98,440.04 560.47,442.76 564.96,446.96 569.45,452.36 573.94,458.74 578.43,465.85 582.92,473.50 587.41,481.50 591.90,489.67 596.39,497.87 600.88,505.96 605.37,513.84 609.86,521.45 614.35,528.83 618.84,535.89 623.33,542.56 627.82,548.81 632.31,554.58 636.80,559.86 641.29,565.39 645.78,570.76 650.27,576.97 654.76,576.97 659.24,576.97 663.73,576.97 668.22,576.97 672.71,576.97 677.20,576.97 681.69,576.97 686.18,576.97 690.67,576.97 695.16,576.97 699.65,576.97 704.14,576.97 708.63,576.97 713.12,576.97 717.61,576.97 722.10,576.97 726.59,576.97 731.08,576.97 735.57,576.97 740.06,576.97 744.55,576.97 749.04,576.97 753.53,576.97 758.02,576.97 762.51,576.97 767.00,576.97 771.49,576.97 775.98,576.97 780.47,576.97 784.96,576.97 789.45,576.97 793.94,576.97 798.43,576.97 802.92,576.97 807.41,576.97 811.90,576.97 816.39,576.97 820.88,576.97 825.37,576.97 829.86,576.97 834.35,576.97 838.84,555.45 843.33,512.62 847.82,452.50 852.31,439.03 856.80,439.03 861.29,439.03 865.78,439.03 870.27,439.03 874.76,439.03 879.25,439.03 883.74,439.03 888.23,439.03 892.72,439.03 897.21,439.03 901.70,439.03 906.19,439.03 910.68,439.03 915.17,439.03 919.66,439.03 924.15,439.03 928.64,451.87 933.13,476.78 937.62,508.69 942.11,544.86 946.60,576.97 951.09,576.97 955.58,576.97 960.07,576.97 964.56,576.97 969.05,576.97 973.54,576.97 978.03,576.97 982.52,576.97 987.01,576.97 991.50,576.97 995.99,576.97 1000.48,576.97 1004.97,576.97 1009.46,576.97 1013.95,576.97 1018.44,576.97 1022.93,576.97 1027.42,576.97 1031.91,576.97 1036.40,576.97 1040.89,576.97 1045.38,576.97 1049.87,576.97 1054.36,576.97 1058.85,576.97 1063.34,576.97 1067.83,576.97 1072.32,576.97 1076.81,576.97 1081.30,576.97 1085.79,576.97 1090.28,576.97 1094.77,576.97 1099.26,576.97 1103.75,576.97 1108.24,576.97 1112.73,576.97 1117.22,576.97 1121.71,576.97 1126.20,576.97 1130.69,576.97 1135.18,576.97 1139.67,576.97 1144.16,576.97 1148.65,576.97 1153.14,576.97 1157.63,576.97 1162.12,576.97 1166.61,576.97 1171.10,576.97 1175.59,576.97 1180.08,576.97 1184.57,576.97 1189.06,576.97 1193.55,576.97 1198.04,576.97 1202.53,576.97 1207.02,576.97 1211.51,576.97 1216.00,576.97" fill="none" stroke="#bf1e2d" stroke-width="1.8" stroke-linejoin="round" stroke-linecap="round" stroke-dasharray="8 5" />
<polyline points="98.00,498.21 102.49,496.10 106.98,494.06 111.47,492.11 115.96,490.27 120.45,488.54 124.94,486.92 129.43,485.44 133.92,484.09 138.41,482.88 142.90,481.81 147.39,480.87 151.88,480.07 156.37,479.40 160.86,478.85 165.35,478.42 169.84,478.09 174.33,477.86 178.82,477.71 183.31,477.64 187.80,477.64 192.29,477.70 196.78,477.81 201.27,477.95 205.76,478.13 210.25,478.33 214.74,478.54 219.23,478.77 223.72,479.00 228.21,479.23 232.70,479.45 237.19,479.67 241.68,479.88 246.17,480.07 250.66,480.24 255.15,480.40 259.64,480.54 264.13,480.66 268.62,480.75 273.11,480.83 277.60,480.89 282.09,480.93 286.58,480.95 291.07,480.96 295.56,480.94 300.05,480.92 304.54,480.88 309.03,480.83 313.52,480.76 318.01,480.69 322.50,480.61 326.99,480.52 331.48,480.43 335.97,480.33 340.46,480.24 344.95,480.14 349.44,480.04 353.93,479.94 358.42,479.84 362.91,479.74 367.40,479.65 371.89,479.56 376.38,479.47 380.87,479.39 385.36,479.31 389.85,479.24 394.34,479.17 398.83,479.10 403.32,479.05 407.81,478.99 412.30,478.94 416.79,478.90 421.28,478.86 425.77,478.83 430.26,478.80 434.75,478.77 439.24,478.75 443.73,478.73 448.22,478.71 452.71,478.70 457.20,478.69 461.69,478.69 466.18,478.68 470.67,478.68 475.16,478.68 479.65,478.68 484.14,478.68 488.63,478.68 493.12,478.68 497.61,478.69 502.10,478.69 506.59,478.70 511.08,478.70 515.57,478.71 520.06,478.71 524.55,478.72 529.04,478.72 533.53,478.73 538.02,478.73 542.51,478.74 547.00,478.74 551.49,478.75 555.98,478.75 560.47,478.76 564.96,478.76 569.45,478.76 573.94,478.76 578.43,478.77 582.92,478.77 587.41,478.77 591.90,478.78 596.39,478.78 600.88,478.78 605.37,478.79 609.86,478.79 614.35,478.79 618.84,478.80 623.33,478.80 627.82,478.80 632.31,478.81 636.80,478.81 641.29,478.81 645.78,478.82 650.27,478.82 654.76,478.82 659.24,478.82 663.73,478.83 668.22,478.83 672.71,478.83 677.20,478.83 681.69,478.84 686.18,478.84 690.67,478.84 695.16,478.84 699.65,478.84 704.14,478.85 708.63,478.85 713.12,478.85 717.61,478.85 722.10,478.85 726.59,478.86 731.08,478.86 735.57,478.86 740.06,478.86 744.55,478.86 749.04,478.86 753.53,478.87 758.02,478.87 762.51,478.87 767.00,478.87 771.49,478.87 775.98,478.87 780.47,478.88 784.96,478.88 789.45,478.88 793.94,478.88 798.43,478.88 802.92,478.88 807.41,478.89 811.90,478.89 816.39,478.89 820.88,478.89 825.37,478.89 829.86,478.89 834.35,478.89 838.84,478.90 843.33,478.90 847.82,478.90 852.31,478.90 856.80,478.90 861.29,478.90 865.78,478.90 870.27,478.91 874.76,478.91 879.25,478.91 883.74,478.91 888.23,478.91 892.72,478.91 897.21,478.91 901.70,478.91 906.19,478.91 910.68,478.92 915.17,478.92 919.66,478.92 924.15,478.92 928.64,478.92 933.13,478.92 937.62,478.92 942.11,478.92 946.60,478.92 951.09,478.92 955.58,478.93 960.07,478.93 964.56,478.93 969.05,478.93 973.54,478.93 978.03,478.93 982.52,478.93 987.01,478.93 991.50,478.93 995.99,478.93 1000.48,478.93 1004.97,478.93 1009.46,478.93 1013.95,478.94 1018.44,478.94 1022.93,478.94 1027.42,478.94 1031.91,478.94 1036.40,478.94 1040.89,478.94 1045.38,478.94 1049.87,478.94 1054.36,478.94 1058.85,478.94 1063.34,478.94 1067.83,478.94 1072.32,478.94 1076.81,478.94 1081.30,478.94 1085.79,478.94 1090.28,478.94 1094.77,478.94 1099.26,479.65 1103.75,479.67 1108.24,479.66 1112.73,479.65 1117.22,479.63 1121.71,479.61 1126.20,479.58 1130.69,479.55 1135.18,479.51 1139.67,479.47 1144.16,479.45 1148.65,471.32 1153.14,468.12 1157.63,468.13 1162.12,468.20 1166.61,468.33 1171.10,468.50 1175.59,468.71 1180.08,468.95 1184.57,469.23 1189.06,469.55 1193.55,469.91 1198.04,475.24 1202.53,496.79 1207.02,497.17 1211.51,497.36 1216.00,497.38" fill="none" stroke="#c96b17" stroke-width="2.2" stroke-linejoin="round" stroke-linecap="round" />
<polyline points="98.00,439.03 102.49,439.03 106.98,439.03 111.47,439.03 115.96,441.33 120.45,446.48 124.94,454.03 129.43,463.57 133.92,474.99 138.41,488.08 142.90,502.54 147.39,518.11 151.88,534.52 156.37,551.54 160.86,568.94 165.35,576.97 169.84,576.97 174.33,576.97 178.82,576.97 183.31,576.97 187.80,576.97 192.29,576.97 196.78,576.97 201.27,576.97 205.76,576.97 210.25,576.97 214.74,576.97 219.23,576.97 223.72,576.97 228.21,576.97 232.70,576.97 237.19,576.97 241.68,576.97 246.17,576.97 250.66,576.97 255.15,576.97 259.64,576.97 264.13,576.97 268.62,576.97 273.11,576.97 277.60,576.97 282.09,576.97 286.58,576.97 291.07,576.97 295.56,576.97 300.05,576.97 304.54,576.97 309.03,576.97 313.52,576.97 318.01,576.97 322.50,576.97 326.99,576.97 331.48,576.97 335.97,576.97 340.46,576.97 344.95,576.97 349.44,576.97 353.93,576.97 358.42,576.97 362.91,576.97 367.40,576.97 371.89,576.97 376.38,576.97 380.87,576.97 385.36,576.97 389.85,576.97 394.34,576.97 398.83,576.97 403.32,576.97 407.81,576.97 412.30,576.97 416.79,576.97 421.28,576.97 425.77,576.97 430.26,576.97 434.75,576.97 439.24,576.97 443.73,576.97 448.22,576.97 452.71,576.97 457.20,576.97 461.69,576.97 466.18,576.97 470.67,576.97 475.16,576.94 479.65,576.84 484.14,576.67 488.63,576.43 493.12,576.13 497.61,575.76 502.10,575.34 506.59,574.86 511.08,574.32 515.57,573.74 520.06,573.10 524.55,572.42 529.04,571.69 533.53,570.92 538.02,570.12 542.51,569.28 547.00,568.40 551.49,567.50 555.98,566.57 560.47,565.61 564.96,564.63 569.45,563.63 573.94,562.60 578.43,561.57 582.92,560.53 587.41,559.48 591.90,558.43 596.39,557.38 600.88,556.33 605.37,555.27 609.86,554.22 614.35,553.16 618.84,552.10 623.33,551.04 627.82,549.98 632.31,548.93 636.80,547.87 641.29,546.82 645.78,545.77 650.27,544.72 654.76,543.68 659.24,542.64 663.73,541.61 668.22,540.58 672.71,539.56 677.20,538.55 681.69,537.55 686.18,536.55 690.67,535.56 695.16,534.59 699.65,533.62 704.14,532.66 708.63,531.72 713.12,530.78 717.61,529.86 722.10,528.94 726.59,528.04 731.08,527.15 735.57,526.26 740.06,525.40 744.55,524.54 749.04,523.69 753.53,522.86 758.02,522.04 762.51,521.23 767.00,520.43 771.49,519.64 775.98,518.86 780.47,518.10 784.96,517.35 789.45,516.61 793.94,515.88 798.43,515.16 802.92,514.46 807.41,513.76 811.90,513.08 816.39,512.41 820.88,511.74 825.37,511.09 829.86,510.45 834.35,509.83 838.84,509.21 843.33,508.60 847.82,508.00 852.31,507.42 856.80,506.84 861.29,506.28 865.78,505.72 870.27,505.17 874.76,504.64 879.25,504.11 883.74,503.60 888.23,503.09 892.72,502.59 897.21,502.10 901.70,501.62 906.19,501.15 910.68,500.69 915.17,500.24 919.66,499.79 924.15,499.35 928.64,498.93 933.13,498.51 937.62,498.10 942.11,497.69 946.60,497.30 951.09,496.91 955.58,496.53 960.07,496.16 964.56,495.79 969.05,495.43 973.54,495.08 978.03,494.74 982.52,494.40 987.01,494.07 991.50,493.75 995.99,493.43 1000.48,493.12 1004.97,492.81 1009.46,492.52 1013.95,492.22 1018.44,491.94 1022.93,491.66 1027.42,491.38 1031.91,491.11 1036.40,490.85 1040.89,490.59 1045.38,490.34 1049.87,490.09 1054.36,489.85 1058.85,489.62 1063.34,489.38 1067.83,489.16 1072.32,488.93 1076.81,488.72 1081.30,488.50 1085.79,488.29 1090.28,488.09 1094.77,487.89 1099.26,449.72 1103.75,450.39 1108.24,445.58 1112.73,440.20 1117.22,440.01 1121.71,439.71 1126.20,439.33 1130.69,439.03 1135.18,439.03 1139.67,439.03 1144.16,439.03 1148.65,439.03 1153.14,439.03 1157.63,441.25 1162.12,446.00 1166.61,451.83 1171.10,457.68 1175.59,463.02 1180.08,467.67 1184.57,471.57 1189.06,474.73 1193.55,477.19 1198.04,478.98 1202.53,480.16 1207.02,479.12 1211.51,469.11 1216.00,452.24" fill="none" stroke="#c96b17" stroke-width="1.8" stroke-linejoin="round" stroke-linecap="round" stroke-dasharray="8 5" />
<polyline points="98.00,500.33 102.49,498.21 106.98,496.15 111.47,494.16 115.96,492.27 120.45,490.47 124.94,488.77 129.43,487.19 133.92,487.19 138.41,485.86 142.90,484.65 147.39,483.56 151.88,482.59 156.37,481.75 160.86,481.01 165.35,480.39 169.84,479.87 174.33,479.45 178.82,479.11 183.31,478.86 187.80,478.68 192.29,478.57 196.78,478.51 201.27,478.51 205.76,478.54 210.25,478.61 214.74,478.71 219.23,478.84 223.72,478.98 228.21,479.13 232.70,479.29 237.19,479.45 241.68,479.61 246.17,479.76 250.66,479.91 255.15,480.05 259.64,480.17 264.13,480.29 268.62,480.39 273.11,480.47 277.60,480.54 282.09,480.60 286.58,480.64 291.07,480.67 295.56,480.68 300.05,480.68 304.54,480.66 309.03,480.64 313.52,480.60 318.01,480.56 322.50,480.50 326.99,480.44 331.48,480.37 335.97,480.30 340.46,480.22 344.95,480.14 349.44,480.06 353.93,479.97 358.42,479.89 362.91,479.80 367.40,479.72 371.89,479.64 376.38,479.56 380.87,479.48 385.36,479.41 389.85,479.34 394.34,479.27 398.83,479.21 403.32,479.15 407.81,479.09 412.30,479.04 416.79,478.99 421.28,478.95 425.77,478.91 430.26,478.88 434.75,478.85 439.24,478.82 443.73,478.80 448.22,478.78 452.71,478.76 457.20,478.75 461.69,478.73 466.18,478.72 470.67,478.72 475.16,478.71 479.65,478.71 484.14,478.70 488.63,478.70 493.12,478.70 497.61,478.70 502.10,478.70 506.59,478.71 511.08,478.71 515.57,478.71 520.06,478.72 524.55,478.72 529.04,478.73 533.53,478.73 538.02,478.74 542.51,478.74 547.00,478.74 551.49,478.75 555.98,478.75 560.47,478.76 564.96,478.76 569.45,478.76 573.94,478.77 578.43,478.77 582.92,506.99 587.41,506.97 591.90,506.75 596.39,506.30 600.88,505.66 605.37,504.85 609.86,503.86 614.35,502.73 618.84,501.46 623.33,500.08 627.82,498.60 632.31,497.05 636.80,495.46 641.29,493.84 645.78,492.22 650.27,490.61 654.76,489.04 659.24,487.51 663.73,486.05 668.22,484.66 672.71,483.36 677.20,482.15 681.69,481.04 686.18,480.03 690.67,479.13 695.16,478.33 699.65,477.63 704.14,477.03 708.63,476.53 713.12,476.12 717.61,475.79 722.10,475.55 726.59,475.38 731.08,475.27 735.57,475.23 740.06,475.23 744.55,475.29 749.04,475.38 753.53,475.50 758.02,475.66 762.51,475.83 767.00,476.02 771.49,476.23 775.98,476.44 780.47,476.65 784.96,476.87 789.45,477.08 793.94,477.29 798.43,477.50 802.92,477.69 807.41,477.87 811.90,478.05 816.39,478.21 820.88,478.36 825.37,478.49 829.86,478.62 834.35,478.73 838.84,478.82 843.33,478.91 847.82,478.98 852.31,479.04 856.80,479.10 861.29,479.14 865.78,479.17 870.27,479.19 874.76,479.21 879.25,479.22 883.74,479.22 888.23,479.22 892.72,479.21 897.21,479.20 901.70,479.19 906.19,479.17 910.68,479.15 915.17,479.13 919.66,479.11 924.15,479.09 928.64,479.07 933.13,479.05 937.62,479.02 942.11,479.00 946.60,478.98 951.09,478.96 955.58,478.95 960.07,478.93 964.56,478.91 969.05,478.90 973.54,478.89 978.03,478.88 982.52,478.87 987.01,478.86 991.50,478.86 995.99,478.85 1000.48,478.85 1004.97,478.84 1009.46,478.84 1013.95,478.84 1018.44,478.84 1022.93,478.84 1027.42,478.84 1031.91,478.85 1036.40,478.85 1040.89,478.85 1045.38,478.86 1049.87,478.86 1054.36,478.87 1058.85,478.87 1063.34,478.87 1067.83,478.88 1072.32,478.88 1076.81,478.89 1081.30,478.89 1085.79,478.90 1090.28,478.90 1094.77,478.90 1099.26,478.91 1103.75,478.91 1108.24,478.91 1112.73,478.92 1117.22,478.92 1121.71,478.92 1126.20,478.92 1130.69,478.93 1135.18,478.93 1139.67,478.93 1144.16,478.93 1148.65,478.93 1153.14,478.93 1157.63,478.94 1162.12,478.94 1166.61,478.94 1171.10,478.94 1175.59,478.94 1180.08,478.94 1184.57,478.94 1189.06,478.94 1193.55,478.94 1198.04,478.94 1202.53,478.94 1207.02,478.94 1211.51,478.94 1216.00,478.94" fill="none" stroke="#2a7f62" stroke-width="2.2" stroke-linejoin="round" stroke-linecap="round" />
<polyline points="98.00,439.03 102.49,439.03 106.98,439.03 111.47,439.03 115.96,439.34 120.45,442.26 124.94,447.50 129.43,454.75 133.92,463.73 138.41,474.48 142.90,486.25 147.39,498.90 151.88,512.37 156.37,526.55 160.86,541.31 165.35,556.50 169.84,571.94 174.33,576.97 178.82,576.97 183.31,576.97 187.80,576.97 192.29,576.97 196.78,576.97 201.27,576.97 205.76,576.97 210.25,576.97 214.74,576.97 219.23,576.97 223.72,576.97 228.21,576.97 232.70,576.97 237.19,576.97 241.68,576.97 246.17,576.97 250.66,576.97 255.15,576.97 259.64,576.97 264.13,576.97 268.62,576.97 273.11,576.97 277.60,576.97 282.09,576.97 286.58,576.97 291.07,576.97 295.56,576.97 300.05,576.97 304.54,576.97 309.03,576.97 313.52,576.97 318.01,576.97 322.50,576.97 326.99,576.97 331.48,576.97 335.97,576.97 340.46,576.97 344.95,576.97 349.44,576.97 353.93,576.97 358.42,576.97 362.91,576.97 367.40,576.97 371.89,576.97 376.38,576.97 380.87,576.97 385.36,576.97 389.85,576.97 394.34,576.97 398.83,576.97 403.32,576.97 407.81,576.97 412.30,576.97 416.79,576.97 421.28,576.97 425.77,576.97 430.26,576.97 434.75,576.97 439.24,576.97 443.73,576.97 448.22,576.97 452.71,576.97 457.20,576.97 461.69,576.97 466.18,576.97 470.67,576.97 475.16,576.97 479.65,576.91 484.14,576.78 488.63,576.59 493.12,576.33 497.61,576.02 502.10,575.64 506.59,575.21 511.08,574.73 515.57,574.19 520.06,573.60 524.55,572.97 529.04,572.29 533.53,571.57 538.02,570.81 542.51,570.02 547.00,569.19 551.49,568.32 555.98,567.43 560.47,566.51 564.96,565.56 569.45,564.60 573.94,563.60 578.43,562.59 582.92,561.57 587.41,560.53 591.90,549.90 596.39,531.17 600.88,507.29 605.37,480.66 609.86,452.98 614.35,439.03 618.84,439.03 623.33,439.03 627.82,439.03 632.31,439.03 636.80,439.03 641.29,439.03 645.78,439.03 650.27,439.03 654.76,439.03 659.24,439.03 663.73,439.03 668.22,439.03 672.71,439.03 677.20,439.03 681.69,439.03 686.18,439.43 690.67,441.15 695.16,443.99 699.65,447.75 704.14,452.24 708.63,457.30 713.12,462.76 717.61,468.48 722.10,474.33 726.59,480.20 731.08,485.99 735.57,491.62 740.06,497.02 744.55,502.13 749.04,506.90 753.53,511.31 758.02,515.32 762.51,518.92 767.00,522.10 771.49,524.86 775.98,527.20 780.47,529.13 784.96,530.67 789.45,531.83 793.94,532.63 798.43,533.10 802.92,539.29 807.41,529.53 811.90,518.77 816.39,507.33 820.88,495.50 825.37,483.52 829.86,471.61 834.35,459.94 838.84,459.79 843.33,459.51 847.82,459.12 852.31,458.64 856.80,458.10 861.29,457.51 865.78,456.88 870.27,456.24 874.76,455.59 879.25,454.94 883.74,454.31 888.23,453.70 892.72,453.12 897.21,452.58 901.70,452.07 906.19,451.61 910.68,451.19 915.17,450.81 919.66,450.48 924.15,450.19 928.64,449.95 933.13,449.75 937.62,449.59 942.11,449.47 946.60,449.38 951.09,449.33 955.58,449.30 960.07,449.31 964.56,449.33 969.05,449.38 973.54,449.45 978.03,449.53 982.52,449.62 987.01,449.72 991.50,449.83 995.99,449.95 1000.48,450.07 1004.97,450.19 1009.46,450.31 1013.95,450.43 1018.44,450.55 1022.93,450.66 1027.42,450.77 1031.91,450.87 1036.40,450.12 1040.89,451.62 1045.38,452.99 1049.87,454.25 1054.36,455.40 1058.85,456.45 1063.34,457.40 1067.83,458.27 1072.32,459.07 1076.81,459.80 1081.30,460.46 1085.79,461.07 1090.28,461.64 1094.77,462.16 1099.26,462.64 1103.75,463.10 1108.24,463.52 1112.73,463.93 1117.22,464.31 1121.71,464.69 1126.20,465.05 1130.69,465.40 1135.18,465.74 1139.67,466.08 1144.16,466.41 1148.65,466.74 1153.14,467.07 1157.63,467.40 1162.12,467.72 1166.61,468.05 1171.10,468.38 1175.59,468.70 1180.08,469.03 1184.57,469.35 1189.06,469.68 1193.55,470.00 1198.04,470.32 1202.53,470.64 1207.02,470.95 1211.51,471.26 1216.00,471.57" fill="none" stroke="#2a7f62" stroke-width="1.8" stroke-linejoin="round" stroke-linecap="round" stroke-dasharray="8 5" />
<polyline points="98.00,502.43 102.49,500.31 106.98,498.23 111.47,496.21 115.96,494.26 120.45,492.39 124.94,490.61 129.43,488.94 133.92,487.37 138.41,485.92 142.90,484.60 147.39,483.40 151.88,482.33 156.37,481.38 160.86,480.56 165.35,479.85 169.84,479.26 174.33,478.78 178.82,478.40 183.31,478.11 187.80,477.90 192.29,477.77 196.78,477.71 201.27,477.71 205.76,477.75 210.25,477.84 214.74,477.96 219.23,478.11 223.72,478.28 228.21,478.47 232.70,478.66 237.19,478.86 241.68,479.05 246.17,479.25 250.66,479.43 255.15,479.61 259.64,479.77 264.13,479.92 268.62,480.06 273.11,480.18 277.60,480.28 282.09,480.37 286.58,480.43 291.07,480.49 295.56,480.52 300.05,480.54 304.54,480.55 309.03,480.54 313.52,480.52 318.01,480.49 322.50,480.45 326.99,480.40 331.48,480.34 335.97,480.27 340.46,480.20 344.95,480.12 349.44,480.05 353.93,479.96 358.42,479.88 362.91,479.80 367.40,479.72 371.89,479.64 376.38,479.56 380.87,479.48 385.36,479.41 389.85,479.33 394.34,479.27 398.83,479.20 403.32,479.14 407.81,479.09 412.30,479.03 416.79,478.99 421.28,478.94 425.77,478.90 430.26,478.87 434.75,478.84 439.24,478.81 443.73,478.79 448.22,478.77 452.71,478.75 457.20,478.73 461.69,478.72 466.18,478.71 470.67,478.70 475.16,478.70 479.65,478.69 484.14,478.69 488.63,478.69 493.12,478.69 497.61,478.69 502.10,478.70 506.59,478.70 511.08,478.70 515.57,478.71 520.06,478.71 524.55,478.72 529.04,478.72 533.53,478.73 538.02,478.73 542.51,478.74 547.00,478.75 551.49,478.75 555.98,478.75 560.47,478.75 564.96,478.76 569.45,478.76 573.94,478.76 578.43,478.76 582.92,478.77 587.41,478.77 591.90,478.78 596.39,478.78 600.88,478.79 605.37,478.80 609.86,478.80 614.35,478.81 618.84,478.81 623.33,478.82 627.82,478.83 632.31,478.83 636.80,478.84 641.29,478.84 645.78,478.85 650.27,478.85 654.76,478.86 659.24,478.86 663.73,478.86 668.22,478.87 672.71,478.87 677.20,478.87 681.69,478.88 686.18,478.88 690.67,478.88 695.16,478.88 699.65,478.88 704.14,478.88 708.63,478.89 713.12,478.89 717.61,478.89 722.10,478.89 726.59,478.89 731.08,478.89 735.57,478.89 740.06,478.89 744.55,478.89 749.04,478.89 753.53,478.89 758.02,478.89 762.51,478.89 767.00,478.89 771.49,478.89 775.98,478.89 780.47,478.90 784.96,478.90 789.45,478.90 793.94,478.90 798.43,478.90 802.92,478.90 807.41,478.90 811.90,478.90 816.39,478.90 820.88,478.90 825.37,478.90 829.86,478.90 834.35,478.91 838.84,478.91 843.33,478.91 847.82,478.91 852.31,478.91 856.80,478.91 861.29,478.91 865.78,478.91 870.27,478.91 874.76,478.91 879.25,478.92 883.74,478.92 888.23,478.92 892.72,478.92 897.21,478.92 901.70,478.92 906.19,478.92 910.68,478.92 915.17,478.92 919.66,478.92 924.15,478.93 928.64,478.93 933.13,478.93 937.62,478.93 942.11,478.93 946.60,478.93 951.09,478.93 955.58,478.93 960.07,478.93 964.56,478.93 969.05,478.93 973.54,478.93 978.03,478.93 982.52,478.93 987.01,478.94 991.50,478.94 995.99,478.94 1000.48,478.94 1004.97,478.94 1009.46,478.94 1013.95,478.94 1018.44,478.94 1022.93,478.94 1027.42,478.94 1031.91,478.94 1036.40,478.94 1040.89,478.94 1045.38,478.94 1049.87,478.94 1054.36,478.94 1058.85,478.94 1063.34,478.94 1067.83,478.94 1072.32,478.94 1076.81,478.95 1081.30,478.95 1085.79,478.95 1090.28,478.95 1094.77,478.95 1099.26,478.95 1103.75,478.95 1108.24,478.95 1112.73,478.95 1117.22,478.95 1121.71,478.95 1126.20,478.95 1130.69,478.95 1135.18,478.95 1139.67,478.95 1144.16,478.95 1148.65,478.95 1153.14,478.95 1157.63,478.95 1162.12,478.95 1166.61,478.95 1171.10,478.95 1175.59,478.95 1180.08,478.95 1184.57,478.95 1189.06,478.95 1193.55,478.95 1198.04,478.95 1202.53,478.95 1207.02,478.95 1211.51,478.95 1216.00,478.95" fill="none" stroke="#2458d3" stroke-width="2.2" stroke-linejoin="round" stroke-linecap="round" />
<polyline points="98.00,439.03 102.49,439.03 106.98,439.03 111.47,439.03 115.96,439.03 120.45,439.70 124.94,442.58 129.43,447.50 133.92,454.23 138.41,462.60 142.90,472.62 147.39,484.09 151.88,496.78 156.37,510.47 160.86,524.95 165.35,540.02 169.84,555.50 174.33,571.20 178.82,576.97 183.31,576.97 187.80,576.97 192.29,576.97 196.78,576.97 201.27,576.97 205.76,576.97 210.25,576.97 214.74,576.97 219.23,576.97 223.72,576.97 228.21,576.97 232.70,576.97 237.19,576.97 241.68,576.97 246.17,576.97 250.66,576.97 255.15,576.97 259.64,576.97 264.13,576.97 268.62,576.97 273.11,576.97 277.60,576.97 282.09,576.97 286.58,576.97 291.07,576.97 295.56,576.97 300.05,576.97 304.54,576.97 309.03,576.97 313.52,576.97 318.01,576.97 322.50,576.97 326.99,576.97 331.48,576.97 335.97,576.97 340.46,576.97 344.95,576.97 349.44,576.97 353.93,576.97 358.42,576.97 362.91,576.97 367.40,576.97 371.89,576.97 376.38,576.97 380.87,576.97 385.36,576.97 389.85,576.97 394.34,576.97 398.83,576.97 403.32,576.97 407.81,576.97 412.30,576.97 416.79,576.97 421.28,576.97 425.77,576.97 430.26,576.97 434.75,576.97 439.24,576.97 443.73,576.97 448.22,576.97 452.71,576.97 457.20,576.97 461.69,576.97 466.18,576.97 470.67,576.95 475.16,576.87 479.65,576.72 484.14,576.52 488.63,576.25 493.12,575.93 497.61,575.54 502.10,575.11 506.59,574.62 511.08,574.08 515.57,573.49 520.06,572.85 524.55,572.17 529.04,571.44 533.53,570.68 538.02,569.88 542.51,569.05 547.00,568.18 551.49,567.28 555.98,566.36 560.47,565.40 564.96,564.43 569.45,563.43 573.94,562.43 578.43,561.42 582.92,560.41 587.41,559.40 591.90,558.40 596.39,557.41 600.88,556.43 605.37,555.45 609.86,554.47 614.35,553.49 618.84,552.51 623.33,551.52 627.82,550.53 632.31,549.54 636.80,548.54 641.29,547.54 645.78,546.54 650.27,545.53 654.76,544.53 659.24,543.52 663.73,542.52 668.22,541.52 672.71,540.52 677.20,539.52 681.69,538.53 686.18,537.54 690.67,536.56 695.16,535.59 699.65,534.63 704.14,533.67 708.63,532.73 713.12,531.79 717.61,530.86 722.10,529.95 726.59,529.04 731.08,528.14 735.57,527.26 740.06,526.39 744.55,525.53 749.04,524.68 753.53,523.84 758.02,523.02 762.51,522.20 767.00,521.40 771.49,520.61 775.98,519.83 780.47,519.07 784.96,518.31 789.45,517.57 793.94,516.84 798.43,516.11 802.92,515.41 807.41,514.71 811.90,514.02 816.39,513.34 820.88,512.68 825.37,512.02 829.86,511.38 834.35,510.75 838.84,510.12 843.33,509.51 847.82,508.91 852.31,508.31 856.80,507.73 861.29,507.16 865.78,506.59 870.27,506.04 874.76,505.49 879.25,504.96 883.74,504.43 888.23,503.91 892.72,503.41 897.21,502.91 901.70,502.41 906.19,501.93 910.68,501.46 915.17,500.99 919.66,500.54 924.15,500.09 928.64,499.65 933.13,499.22 937.62,498.79 942.11,498.38 946.60,497.97 951.09,497.57 955.58,497.17 960.07,496.79 964.56,496.41 969.05,496.04 973.54,495.67 978.03,495.32 982.52,494.97 987.01,494.62 991.50,494.29 995.99,493.96 1000.48,493.63 1004.97,493.32 1009.46,493.00 1013.95,492.70 1018.44,492.40 1022.93,492.11 1027.42,491.82 1031.91,491.54 1036.40,491.26 1040.89,490.99 1045.38,490.73 1049.87,490.47 1054.36,490.22 1058.85,489.97 1063.34,489.72 1067.83,489.48 1072.32,489.25 1076.81,489.02 1081.30,488.80 1085.79,488.58 1090.28,488.36 1094.77,488.15 1099.26,487.94 1103.75,487.74 1108.24,487.54 1112.73,487.35 1117.22,450.14 1121.71,450.79 1126.20,451.42 1130.69,452.04 1135.18,452.64 1139.67,453.24 1144.16,453.81 1148.65,454.38 1153.14,454.93 1157.63,455.47 1162.12,456.00 1166.61,456.52 1171.10,457.02 1175.59,457.52 1180.08,458.00 1184.57,458.47 1189.06,458.93 1193.55,459.38 1198.04,459.82 1202.53,460.25 1207.02,460.67 1211.51,461.08 1216.00,461.49" fill="none" stroke="#2458d3" stroke-width="1.8" stroke-linejoin="round" stroke-linecap="round" stroke-dasharray="8 5" />
<line x1="54.0" y1="686.0" x2="82.0" y2="686.0" stroke="#2d3440" stroke-width="2.0" />
<text x="92.0" y="690.0" fill="#1f2430" font-size="12" font-family="Segoe UI, Arial, sans-serif" font-weight="400" text-anchor="start">solid = u</text>
<line x1="176.0" y1="686.0" x2="204.0" y2="686.0" stroke="#2d3440" stroke-width="2.0" stroke-dasharray="8 5" />
<text x="214.0" y="690.0" fill="#1f2430" font-size="12" font-family="Segoe UI, Arial, sans-serif" font-weight="400" text-anchor="start">dashed = u_s</text>
<line x1="390.0" y1="686.0" x2="418.0" y2="686.0" stroke="#bf1e2d" stroke-width="2.4" />
<text x="428.0" y="690.0" fill="#1f2430" font-size="12" font-family="Segoe UI, Arial, sans-serif" font-weight="400" text-anchor="start">rho=0.95</text>
<line x1="555.0" y1="686.0" x2="583.0" y2="686.0" stroke="#c96b17" stroke-width="2.4" />
<text x="593.0" y="690.0" fill="#1f2430" font-size="12" font-family="Segoe UI, Arial, sans-serif" font-weight="400" text-anchor="start">rho=0.98</text>
<line x1="720.0" y1="686.0" x2="748.0" y2="686.0" stroke="#2a7f62" stroke-width="2.4" />
<text x="758.0" y="690.0" fill="#1f2430" font-size="12" font-family="Segoe UI, Arial, sans-serif" font-weight="400" text-anchor="start">rho=0.985</text>
<line x1="885.0" y1="686.0" x2="913.0" y2="686.0" stroke="#2458d3" stroke-width="2.4" />
<text x="923.0" y="690.0" fill="#1f2430" font-size="12" font-family="Segoe UI, Arial, sans-serif" font-weight="400" text-anchor="start">rho=0.99</text>
</svg>