<svg xmlns="http://www.w3.org/2000/svg" width="1200" height="1120" viewBox="0 0 1200 1120" role="img">
<rect x="0.0" y="0.0" width="1200.0" height="1120.0" fill="#ffffff" stroke="none" stroke-width="1.0" rx="0.0" />
<text x="40.0" y="34.0" fill="#1f2430" font-size="22" font-family="Segoe UI, Arial, sans-serif" font-weight="600" text-anchor="start">Bounded hard + x_s smoothing: Lyapunov contraction ratio across rho</text>
<text x="40.0" y="56.0" fill="#5d6574" font-size="13" font-family="Segoe UI, Arial, sans-serif" font-weight="400" text-anchor="start">Each panel plots V_next_first / V_k against the run-specific rho line. Red markers indicate first-step contraction violations.</text>
<rect x="40.0" y="80.0" width="1120.0" height="235.0" fill="#fbfbfd" stroke="#d7dbe5" stroke-width="1.0" rx="8.0" />
<text x="56.0" y="104.0" fill="#1f2430" font-size="16" font-family="Segoe UI, Arial, sans-serif" font-weight="600" text-anchor="start">Run 20260501_001425</text>
<text x="56.0" y="122.0" fill="#5d6574" font-size="12" font-family="Segoe UI, Arial, sans-serif" font-weight="400" text-anchor="start">rho=0.95 | solver=95.00% | hard=94.95% | bounded-LS=1999 | y-max=1.02 | clipped=0</text>
<line x1="98.0" y1="289.0" x2="1132.0" y2="289.0" stroke="#d7dbe5" stroke-width="1.0" stroke-dasharray="4 4" />
<text x="88.0" y="293.0" fill="#5d6574" font-size="11" font-family="Segoe UI, Arial, sans-serif" font-weight="400" text-anchor="end">0.00</text>
<line x1="98.0" y1="213.5" x2="1132.0" y2="213.5" stroke="#d7dbe5" stroke-width="1.0" stroke-dasharray="4 4" />
<text x="88.0" y="217.5" fill="#5d6574" font-size="11" font-family="Segoe UI, Arial, sans-serif" font-weight="400" text-anchor="end">0.51</text>
<line x1="98.0" y1="138.0" x2="1132.0" y2="138.0" stroke="#d7dbe5" stroke-width="1.0" stroke-dasharray="4 4" />
<text x="88.0" y="142.0" fill="#5d6574" font-size="11" font-family="Segoe UI, Arial, sans-serif" font-weight="400" text-anchor="end">1.02</text>
<line x1="98.0" y1="138.0" x2="98.0" y2="289.0" stroke="#d7dbe5" stroke-width="1.0" stroke-dasharray="4 4" />
<text x="98.0" y="307.0" fill="#5d6574" font-size="11" font-family="Segoe UI, Arial, sans-serif" font-weight="400" text-anchor="middle">0</text>
<line x1="356.5" y1="138.0" x2="356.5" y2="289.0" stroke="#d7dbe5" stroke-width="1.0" stroke-dasharray="4 4" />
<text x="356.5" y="307.0" fill="#5d6574" font-size="11" font-family="Segoe UI, Arial, sans-serif" font-weight="400" text-anchor="middle">500</text>
<line x1="615.0" y1="138.0" x2="615.0" y2="289.0" stroke="#d7dbe5" stroke-width="1.0" stroke-dasharray="4 4" />
<text x="615.0" y="307.0" fill="#5d6574" font-size="11" font-family="Segoe UI, Arial, sans-serif" font-weight="400" text-anchor="middle">1000</text>
<line x1="873.5" y1="138.0" x2="873.5" y2="289.0" stroke="#d7dbe5" stroke-width="1.0" stroke-dasharray="4 4" />
<text x="873.5" y="307.0" fill="#5d6574" font-size="11" font-family="Segoe UI, Arial, sans-serif" font-weight="400" text-anchor="middle">1500</text>
<line x1="1132.0" y1="138.0" x2="1132.0" y2="289.0" stroke="#d7dbe5" stroke-width="1.0" stroke-dasharray="4 4" />
<text x="1132.0" y="307.0" fill="#5d6574" font-size="11" font-family="Segoe UI, Arial, sans-serif" font-weight="400" text-anchor="middle">2000</text>
<line x1="98.0" y1="138.0" x2="98.0" y2="289.0" stroke="#2d3440" stroke-width="1.2" />
<line x1="98.0" y1="289.0" x2="1132.0" y2="289.0" stroke="#2d3440" stroke-width="1.2" />
<polyline points="98.00,148.36 100.07,148.36 102.14,148.36 104.20,148.36 106.27,148.36 108.34,148.36 110.41,148.36 112.48,148.36 114.54,148.36 116.61,148.36 118.68,148.36 120.75,148.36 122.82,148.36 124.88,148.36 126.95,148.36 129.02,148.36 131.09,148.36 133.16,148.36 135.22,148.36 137.29,148.36 139.36,148.36 141.43,148.36 143.50,148.36 145.56,148.36 147.63,148.36 149.70,148.36 151.77,148.36 153.84,148.36 155.90,148.36 157.97,148.36 160.04,148.36 162.11,148.36 164.18,148.36 166.24,148.36 168.31,148.36 170.38,148.36 172.45,148.36 174.52,148.36 176.58,148.36 178.65,148.36 180.72,148.36 182.79,148.36 184.86,148.36 186.92,148.36 188.99,148.36 191.06,148.36 193.13,148.36 195.20,148.36 197.26,148.36 199.33,148.36 201.40,148.36 203.47,148.36 205.54,148.36 207.60,148.36 209.67,148.36 211.74,148.36 213.81,148.36 215.88,148.36 217.94,148.36 220.01,148.36 222.08,148.36 224.15,148.36 226.22,148.36 228.28,148.36 230.35,148.36 232.42,148.36 234.49,148.36 236.56,148.36 238.62,148.36 240.69,148.36 242.76,148.36 244.83,148.36 246.90,148.36 248.96,148.36 251.03,148.36 253.10,148.36 255.17,148.36 257.24,148.36 259.30,148.36 261.37,148.36 263.44,148.36 265.51,148.36 267.58,148.36 269.64,148.36 271.71,148.36 273.78,148.36 275.85,148.36 277.92,148.36 279.98,148.36 282.05,148.36 284.12,148.36 286.19,148.36 288.26,148.36 290.32,148.36 292.39,148.36 294.46,148.36 296.53,148.36 298.60,148.36 300.66,148.36 302.73,148.36 304.80,148.36 306.87,148.36 308.94,148.36 311.00,148.36 313.07,148.36 315.14,148.36 317.21,148.36 319.28,148.36 321.34,148.36 323.41,148.36 325.48,148.36 327.55,148.36 329.62,148.36 331.68,148.36 333.75,148.36 335.82,148.36 337.89,148.36 339.96,148.36 342.02,148.36 344.09,148.36 346.16,148.36 348.23,148.36 350.30,148.36 352.36,148.36 354.43,148.36 356.50,148.36 358.57,148.36 360.64,148.36 362.70,148.36 364.77,148.36 366.84,148.36 368.91,148.36 370.98,148.36 373.04,148.36 375.11,148.36 377.18,148.36 379.25,148.36 381.32,148.36 383.38,148.36 385.45,148.36 387.52,148.36 389.59,148.36 391.66,148.36 393.72,148.36 395.79,148.36 397.86,148.36 399.93,148.36 402.00,148.36 404.06,148.36 406.13,148.36 408.20,148.36 410.27,148.36 412.34,148.36 414.40,148.36 416.47,148.36 418.54,148.36 420.61,148.36 422.68,148.36 424.74,148.36 426.81,148.36 428.88,148.36 430.95,148.36 433.02,148.36 435.08,148.36 437.15,148.36 439.22,148.36 441.29,148.36 443.36,148.36 445.42,148.36 447.49,148.36 449.56,148.36 451.63,148.36 453.70,148.36 455.76,148.36 457.83,148.36 459.90,148.36 461.97,148.36 464.04,148.36 466.10,148.36 468.17,148.36 470.24,148.36 472.31,148.36 474.38,148.36 476.44,148.36 478.51,148.36 480.58,148.36 482.65,148.36 484.72,148.36 486.78,148.36 488.85,148.36 490.92,148.36 492.99,148.36 495.06,148.36 497.12,148.36 499.19,148.36 501.26,148.36 503.33,148.36 505.40,148.36 507.46,148.36 509.53,148.36 511.60,148.36 513.67,148.36 515.74,148.36 517.80,148.36 519.87,148.36 521.94,148.36 524.01,148.36 526.08,148.36 528.14,148.36 530.21,148.36 532.28,148.36 534.35,148.36 536.42,148.36 538.48,148.36 540.55,148.36 542.62,148.36 544.69,148.36 546.76,148.36 548.82,148.36 550.89,148.36 552.96,148.36 555.03,148.36 557.10,148.36 559.16,148.36 561.23,148.36 563.30,148.36 565.37,148.36 567.44,148.36 569.50,148.36 571.57,148.36 573.64,148.36 575.71,148.36 577.78,148.36 579.84,148.36 581.91,148.36 583.98,148.36 586.05,148.36 588.12,148.36 590.18,148.36 592.25,148.36 594.32,148.36 596.39,148.36 598.46,148.36 600.52,148.36 602.59,148.36 604.66,148.36 606.73,148.36 608.80,148.36 610.86,148.36 612.93,148.36 615.00,148.36 617.07,148.36 619.14,148.36 621.20,148.36 623.27,148.36 625.34,148.36 627.41,148.36 629.48,148.36 631.54,148.36 633.61,148.36 635.68,148.36 637.75,148.36 639.82,148.36 641.88,148.36 643.95,148.36 646.02,148.36 648.09,148.36 650.16,148.36 652.22,148.36 654.29,148.36 656.36,148.36 658.43,148.36 660.50,148.36 662.56,148.36 664.63,148.36 666.70,148.36 668.77,148.36 670.84,148.36 672.90,148.36 674.97,148.36 677.04,148.36 679.11,148.36 681.18,148.36 683.24,148.36 685.31,148.36 687.38,148.36 689.45,148.36 691.52,148.36 693.58,148.36 695.65,148.36 697.72,148.36 699.79,148.36 701.86,148.36 703.92,148.36 705.99,148.36 708.06,148.36 710.13,148.36 712.20,148.36 714.26,148.36 716.33,148.36 718.40,148.36 720.47,148.36 722.54,148.36 724.60,148.36 726.67,148.36 728.74,148.36 730.81,148.36 732.88,148.36 734.94,148.36 737.01,148.36 739.08,148.36 741.15,148.36 743.22,148.36 745.28,148.36 747.35,148.36 749.42,148.36 751.49,148.36 753.56,148.36 755.62,148.36 757.69,148.36 759.76,148.36 761.83,148.36 763.90,148.36 765.96,148.36 768.03,148.36 770.10,148.36 772.17,148.36 774.24,148.36 776.30,148.36 778.37,148.36 780.44,148.36 782.51,148.36 784.58,148.36 786.64,148.36 788.71,148.36 790.78,148.36 792.85,148.36 794.92,148.36 796.98,148.36 799.05,148.36 801.12,148.36 803.19,148.36 805.26,148.36 807.32,148.36 809.39,148.36 811.46,148.36 813.53,148.36 815.60,148.36 817.66,148.36 819.73,148.36 821.80,148.36 823.87,148.36 825.94,148.36 828.00,148.36 830.07,148.36 832.14,148.36 834.21,148.36 836.28,148.36 838.34,148.36 840.41,148.36 842.48,148.36 844.55,148.36 846.62,148.36 848.68,148.36 850.75,148.36 852.82,148.36 854.89,148.36 856.96,148.36 859.02,148.36 861.09,148.36 863.16,148.36 865.23,148.36 867.30,148.36 869.36,148.36 871.43,148.36 873.50,148.36 875.57,148.36 877.64,148.36 879.70,148.36 881.77,148.36 883.84,148.36 885.91,148.36 887.98,148.36 890.04,148.36 892.11,148.36 894.18,148.36 896.25,148.36 898.32,148.36 900.38,148.36 902.45,148.36 904.52,148.36 906.59,148.36 908.66,148.36 910.72,148.36 912.79,148.36 914.86,148.36 916.93,148.36 919.00,148.36 921.06,148.36 923.13,148.36 925.20,148.36 927.27,148.36 929.34,148.36 931.40,148.36 933.47,148.36 935.54,148.36 937.61,148.36 939.68,148.36 941.74,148.36 943.81,148.36 945.88,148.36 947.95,148.36 950.02,148.36 952.08,148.36 954.15,148.36 956.22,148.36 958.29,148.36 960.36,148.36 962.42,148.36 964.49,148.36 966.56,148.36 968.63,148.36 970.70,148.36 972.76,148.36 974.83,148.36 976.90,148.36 978.97,148.36 981.04,148.36 983.10,148.36 985.17,148.36 987.24,148.36 989.31,148.36 991.38,148.36 993.44,148.36 995.51,148.36 997.58,148.36 999.65,148.36 1001.72,148.36 1003.78,148.36 1005.85,148.36 1007.92,148.36 1009.99,148.36 1012.06,148.36 1014.12,148.36 1016.19,148.36 1018.26,148.36 1020.33,148.36 1022.40,148.36 1024.46,148.36 1026.53,148.36 1028.60,148.36 1030.67,148.36 1032.74,148.36 1034.80,148.36 1036.87,148.36 1038.94,148.36 1041.01,148.36 1043.08,148.36 1045.14,148.36 1047.21,148.36 1049.28,148.36 1051.35,148.36 1053.42,148.36 1055.48,148.36 1057.55,148.36 1059.62,148.36 1061.69,148.36 1063.76,148.36 1065.82,148.36 1067.89,148.36 1069.96,148.36 1072.03,148.36 1074.10,148.36 1076.16,148.36 1078.23,148.36 1080.30,148.36 1082.37,148.36 1084.44,148.36 1086.50,148.36 1088.57,148.36 1090.64,148.36 1092.71,148.36 1094.78,148.36 1096.84,148.36 1098.91,148.36 1100.98,148.36 1103.05,148.36 1105.12,148.36 1107.18,148.36 1109.25,148.36 1111.32,148.36 1113.39,148.36 1115.46,148.36 1117.52,148.36 1119.59,148.36 1121.66,148.36 1123.73,148.36 1125.80,148.36 1127.86,148.36 1129.93,148.36 1131.48,148.36" fill="none" stroke="#b35c00" stroke-width="1.8" stroke-linejoin="round" stroke-linecap="round" />
<polyline points="98.00,148.36 100.07,157.45 102.14,158.54 104.20,155.84 106.27,151.98 108.34,149.56 110.41,150.07 112.48,152.44 114.54,153.84 116.61,153.85 118.68,153.23 120.75,152.33 122.82,151.21 124.88,149.87 126.95,148.44 129.02,151.50 131.09,154.94 133.16,155.94 135.22,154.58 137.29,148.36 139.36,158.23 141.43,159.46 143.50,157.95 147.63,154.85 149.70,157.60 151.77,157.56 153.84,156.27 155.90,153.39 157.97,149.74 160.04,148.36 162.11,154.65 164.18,161.40 166.24,164.51 168.31,167.87 170.38,166.32 172.45,148.36 174.52,157.26 176.58,162.55 178.65,165.62 180.72,148.36 182.79,156.36 184.86,157.81 186.92,156.93 188.99,154.40 193.13,154.65 195.20,161.70 197.26,162.34 199.33,153.31 203.47,149.11 205.54,165.22 207.60,198.75 209.67,167.32 211.74,154.32 213.81,149.99 215.88,148.67 217.94,148.66 220.01,149.46 222.08,151.09 224.15,153.71 226.22,156.76 228.28,158.68 230.35,158.69 232.42,157.29 234.49,155.14 236.56,152.78 238.62,150.71 240.69,149.24 242.76,148.42 244.83,149.47 246.90,151.58 248.96,151.85 251.03,150.78 253.10,149.05 255.17,148.84 257.24,156.44 259.30,160.31 261.37,159.87 263.44,148.36 265.51,158.88 267.58,178.40 269.64,150.02 271.71,152.16 273.78,155.29 275.85,157.43 277.92,158.88 279.98,159.82 282.05,160.72 284.12,162.88 286.19,168.54 288.26,154.59 290.32,156.85 292.39,157.20 294.46,157.57 296.53,168.29 298.60,188.58 300.66,153.86 304.80,152.72 306.87,151.99 308.94,153.44 311.00,158.91 313.07,170.91 315.14,179.48 317.21,163.04 319.28,155.36 321.34,153.02 323.41,152.33 325.48,152.61 327.55,154.04 329.62,156.54 331.68,157.68 333.75,152.11 335.82,148.36 337.89,156.25 339.96,158.90 342.02,160.48 344.09,173.78 346.16,158.22 348.23,154.07 350.30,150.57 352.36,148.36 354.43,156.83 356.50,155.82 358.57,155.83 360.64,161.40 362.70,190.45 364.77,176.55 366.84,154.61 368.91,151.71 370.98,151.21 373.04,151.42 375.11,152.28 377.18,154.07 379.25,156.75 381.32,158.87 383.38,156.12 385.45,149.22 387.52,152.54 389.59,156.10 391.66,157.83 393.72,160.17 395.79,226.59 397.86,155.76 399.93,150.17 402.00,148.36 404.06,156.79 406.13,155.54 408.20,154.79 410.27,159.66 412.34,172.99 414.40,163.19 416.47,155.34 418.54,152.49 420.61,151.31 422.68,150.96 424.74,151.27 426.81,152.10 428.88,152.73 430.95,151.60 433.02,148.36 435.08,152.48 437.15,154.75 439.22,155.42 441.29,156.00 443.36,164.23 445.42,150.13 447.49,154.94 449.56,162.25 451.63,160.54 457.83,156.01 459.90,159.92 461.97,159.01 464.04,154.13 466.10,155.03 468.17,167.31 470.24,160.77 472.31,156.33 474.38,154.78 476.44,154.17 478.51,154.06 480.58,154.58 482.65,156.16 484.72,158.81 486.78,159.14 488.85,151.32 490.92,152.03 492.99,157.85 495.06,160.01 497.12,158.95 499.19,154.06 501.26,157.63 503.33,156.06 505.40,153.16 507.46,149.59 509.53,150.45 511.60,156.31 513.67,155.84 515.74,157.53 517.80,168.12 519.87,203.91 521.94,162.29 524.01,152.11 526.08,150.26 528.14,149.98 530.21,150.44 532.28,151.62 534.35,153.48 536.42,155.41 538.48,155.48 540.55,151.72 542.62,148.36 544.69,153.26 546.76,154.96 548.82,155.27 550.89,155.38 552.96,154.75 555.03,148.36 557.10,158.71 559.16,159.87 561.23,152.70 563.30,154.48 565.37,158.76 567.44,182.88 569.50,165.69 571.57,154.51 573.64,149.43 575.71,151.52 577.78,155.29 579.84,154.63 581.91,156.73 583.98,165.21 586.05,198.19 588.12,194.82 590.18,152.38 592.25,148.70 594.32,148.54 596.39,149.14 598.46,150.44 600.52,152.70 602.59,156.11 604.66,160.36 606.73,163.36 608.80,159.43 610.86,150.83 612.93,148.36 615.00,154.07 617.07,155.55 619.14,155.90 621.20,156.69 623.27,158.73 625.34,148.36 627.41,158.47 629.48,160.12 631.54,149.83 635.68,155.34 637.75,160.22 639.82,159.33 641.88,152.45 643.95,149.08 646.02,154.51 648.09,159.61 650.16,158.90 652.22,156.81 654.29,155.16 656.36,154.01 658.43,153.27 660.50,153.06 662.56,153.27 664.63,152.88 666.70,149.13 668.77,153.07 670.84,156.76 672.90,159.09 674.97,162.78 677.04,158.29 679.11,154.57 681.18,152.61 683.24,149.97 685.31,148.36 687.38,156.60 689.45,155.67 691.52,154.19 693.58,157.26 695.65,160.73 697.72,156.74 699.79,153.24 701.86,151.06 703.92,149.72 705.99,148.98 708.06,148.75 710.13,148.53 712.20,148.36 714.26,149.62 716.33,149.27 718.40,148.36 720.47,152.22 722.54,153.87 724.60,154.22 726.67,158.91 728.74,201.23 730.81,152.89 732.88,148.36 734.94,159.47 737.01,160.63 739.08,163.45 741.15,169.87 743.22,170.68 747.35,182.68 749.42,157.38 751.49,149.08 753.56,149.23 755.62,151.27 757.69,153.96 759.76,156.83 761.83,159.48 763.90,162.38 765.96,165.97 768.03,170.44 770.10,169.65 772.17,150.32 774.24,153.69 776.30,155.75 778.37,154.24 780.44,151.33 782.51,162.16 784.58,179.68 786.64,180.94 788.71,164.53 790.78,148.36 796.98,148.36 799.05,157.69 801.12,161.64 803.19,149.57 805.26,148.36 807.32,158.44 809.39,159.82 823.87,152.12 825.94,159.14 828.00,159.86 830.07,157.83 832.14,157.53 834.21,157.86 836.28,155.76 838.34,154.68 840.41,156.06 842.48,157.05 844.55,157.23 846.62,157.33 848.68,156.46 850.75,153.65 852.82,149.44 854.89,150.94 856.96,156.73 859.02,158.99 861.09,159.68 863.16,151.79 865.23,154.53 867.30,165.97 869.36,163.69 871.43,156.57 873.50,156.52 875.57,156.86 877.64,157.34 879.70,157.58 881.77,157.57 883.84,157.07 885.91,152.92 890.04,154.60 892.11,156.71 894.18,157.01 896.25,158.33 898.32,180.76 900.38,169.40 910.72,148.76 912.79,159.07 914.86,164.14 916.93,171.33 919.00,181.79 921.06,152.59 923.13,156.27 925.20,157.83 927.27,157.05 929.34,153.36 931.40,150.02 933.47,148.97 935.54,150.10 937.61,152.06 939.68,153.49 941.74,153.81 943.81,153.21 945.88,151.98 947.95,150.30 950.02,148.48 952.08,151.71 954.15,155.90 956.22,157.75 958.29,158.48 960.36,163.33 962.42,154.83 964.49,151.56 966.56,148.36 968.63,157.81 970.70,158.24 972.76,158.65 974.83,164.31 976.90,177.47 978.97,156.31 981.04,150.63 983.10,149.07 985.17,148.52 987.24,148.44 989.31,148.62 991.38,148.72 993.44,148.36 995.51,149.78 997.58,150.31 999.65,149.69 1001.72,148.36 1003.78,152.01 1005.85,153.82 1007.92,154.12 1009.99,154.22 1012.06,150.74 1014.12,148.36 1016.19,160.51 1018.26,170.93 1020.33,155.95 1022.40,159.51 1024.46,158.64 1026.53,151.56 1028.60,151.43 1030.67,160.00 1032.74,159.02 1034.80,156.45 1036.87,154.75 1038.94,153.74 1041.01,153.16 1043.08,153.24 1045.14,154.53 1047.21,157.42 1049.28,160.92 1051.35,159.76 1053.42,151.02 1055.48,151.74 1057.55,157.07 1059.62,159.52 1061.69,158.49 1063.76,149.34 1065.82,153.94 1067.89,153.76 1069.96,152.01 1072.03,149.59 1074.10,148.36 1076.16,156.25 1078.23,155.70 1080.30,153.96 1082.37,157.31 1084.44,160.27 1086.50,156.41 1088.57,153.08 1090.64,150.98 1092.71,149.65 1094.78,148.95 1096.84,148.81 1098.91,148.92 1100.98,148.61 1103.05,148.83 1105.12,152.18 1107.18,152.74 1109.25,152.82 1111.32,157.04 1113.39,201.11 1115.46,156.36 1117.52,156.94 1119.59,159.77 1121.66,157.52 1127.86,154.65 1129.93,160.53 1131.48,161.46" fill="none" stroke="#2458d3" stroke-width="1.8" stroke-linejoin="round" stroke-linecap="round" />
<circle cx="127.99" cy="148.36" r="2.20" fill="#bf1e2d" stroke="none" stroke-width="0.0" />
<line x1="56.0" y1="293.0" x2="80.0" y2="293.0" stroke="#2458d3" stroke-width="2.0" />
<text x="86.0" y="297.0" fill="#1f2430" font-size="12" font-family="Segoe UI, Arial, sans-serif" font-weight="400" text-anchor="start">V_next / V_k</text>
<line x1="208.0" y1="293.0" x2="232.0" y2="293.0" stroke="#b35c00" stroke-width="2.0" />
<text x="238.0" y="297.0" fill="#1f2430" font-size="12" font-family="Segoe UI, Arial, sans-serif" font-weight="400" text-anchor="start">rho</text>
<circle cx="308.00" cy="293.00" r="2.40" fill="#bf1e2d" stroke="none" stroke-width="0.0" />
<text x="320.0" y="297.0" fill="#1f2430" font-size="12" font-family="Segoe UI, Arial, sans-serif" font-weight="400" text-anchor="start">violations</text>
<rect x="40.0" y="333.0" width="1120.0" height="235.0" fill="#fbfbfd" stroke="#d7dbe5" stroke-width="1.0" rx="8.0" />
<text x="56.0" y="357.0" fill="#1f2430" font-size="16" font-family="Segoe UI, Arial, sans-serif" font-weight="600" text-anchor="start">Run 20260501_003638</text>
<text x="56.0" y="375.0" fill="#5d6574" font-size="12" font-family="Segoe UI, Arial, sans-serif" font-weight="400" text-anchor="start">rho=0.98 | solver=99.85% | hard=99.85% | bounded-LS=510 | y-max=1.04 | clipped=14</text>
<line x1="98.0" y1="542.0" x2="1132.0" y2="542.0" stroke="#d7dbe5" stroke-width="1.0" stroke-dasharray="4 4" />
<text x="88.0" y="546.0" fill="#5d6574" font-size="11" font-family="Segoe UI, Arial, sans-serif" font-weight="400" text-anchor="end">0.00</text>
<line x1="98.0" y1="466.5" x2="1132.0" y2="466.5" stroke="#d7dbe5" stroke-width="1.0" stroke-dasharray="4 4" />
<text x="88.0" y="470.5" fill="#5d6574" font-size="11" font-family="Segoe UI, Arial, sans-serif" font-weight="400" text-anchor="end">0.52</text>
<line x1="98.0" y1="391.0" x2="1132.0" y2="391.0" stroke="#d7dbe5" stroke-width="1.0" stroke-dasharray="4 4" />
<text x="88.0" y="395.0" fill="#5d6574" font-size="11" font-family="Segoe UI, Arial, sans-serif" font-weight="400" text-anchor="end">1.04</text>
<line x1="98.0" y1="391.0" x2="98.0" y2="542.0" stroke="#d7dbe5" stroke-width="1.0" stroke-dasharray="4 4" />
<text x="98.0" y="560.0" fill="#5d6574" font-size="11" font-family="Segoe UI, Arial, sans-serif" font-weight="400" text-anchor="middle">0</text>
<line x1="356.5" y1="391.0" x2="356.5" y2="542.0" stroke="#d7dbe5" stroke-width="1.0" stroke-dasharray="4 4" />
<text x="356.5" y="560.0" fill="#5d6574" font-size="11" font-family="Segoe UI, Arial, sans-serif" font-weight="400" text-anchor="middle">500</text>
<line x1="615.0" y1="391.0" x2="615.0" y2="542.0" stroke="#d7dbe5" stroke-width="1.0" stroke-dasharray="4 4" />
<text x="615.0" y="560.0" fill="#5d6574" font-size="11" font-family="Segoe UI, Arial, sans-serif" font-weight="400" text-anchor="middle">1000</text>
<line x1="873.5" y1="391.0" x2="873.5" y2="542.0" stroke="#d7dbe5" stroke-width="1.0" stroke-dasharray="4 4" />
<text x="873.5" y="560.0" fill="#5d6574" font-size="11" font-family="Segoe UI, Arial, sans-serif" font-weight="400" text-anchor="middle">1500</text>
<line x1="1132.0" y1="391.0" x2="1132.0" y2="542.0" stroke="#d7dbe5" stroke-width="1.0" stroke-dasharray="4 4" />
<text x="1132.0" y="560.0" fill="#5d6574" font-size="11" font-family="Segoe UI, Arial, sans-serif" font-weight="400" text-anchor="middle">2000</text>
<line x1="98.0" y1="391.0" x2="98.0" y2="542.0" stroke="#2d3440" stroke-width="1.2" />
<line x1="98.0" y1="542.0" x2="1132.0" y2="542.0" stroke="#2d3440" stroke-width="1.2" />
<polyline points="98.00,399.37 100.07,399.37 102.14,399.37 104.20,399.37 106.27,399.37 108.34,399.37 110.41,399.37 112.48,399.37 114.54,399.37 116.61,399.37 118.68,399.37 120.75,399.37 122.82,399.37 124.88,399.37 126.95,399.37 129.02,399.37 131.09,399.37 133.16,399.37 135.22,399.37 137.29,399.37 139.36,399.37 141.43,399.37 143.50,399.37 145.56,399.37 147.63,399.37 149.70,399.37 151.77,399.37 153.84,399.37 155.90,399.37 157.97,399.37 160.04,399.37 162.11,399.37 164.18,399.37 166.24,399.37 168.31,399.37 170.38,399.37 172.45,399.37 174.52,399.37 176.58,399.37 178.65,399.37 180.72,399.37 182.79,399.37 184.86,399.37 186.92,399.37 188.99,399.37 191.06,399.37 193.13,399.37 195.20,399.37 197.26,399.37 199.33,399.37 201.40,399.37 203.47,399.37 205.54,399.37 207.60,399.37 209.67,399.37 211.74,399.37 213.81,399.37 215.88,399.37 217.94,399.37 220.01,399.37 222.08,399.37 224.15,399.37 226.22,399.37 228.28,399.37 230.35,399.37 232.42,399.37 234.49,399.37 236.56,399.37 238.62,399.37 240.69,399.37 242.76,399.37 244.83,399.37 246.90,399.37 248.96,399.37 251.03,399.37 253.10,399.37 255.17,399.37 257.24,399.37 259.30,399.37 261.37,399.37 263.44,399.37 265.51,399.37 267.58,399.37 269.64,399.37 271.71,399.37 273.78,399.37 275.85,399.37 277.92,399.37 279.98,399.37 282.05,399.37 284.12,399.37 286.19,399.37 288.26,399.37 290.32,399.37 292.39,399.37 294.46,399.37 296.53,399.37 298.60,399.37 300.66,399.37 302.73,399.37 304.80,399.37 306.87,399.37 308.94,399.37 311.00,399.37 313.07,399.37 315.14,399.37 317.21,399.37 319.28,399.37 321.34,399.37 323.41,399.37 325.48,399.37 327.55,399.37 329.62,399.37 331.68,399.37 333.75,399.37 335.82,399.37 337.89,399.37 339.96,399.37 342.02,399.37 344.09,399.37 346.16,399.37 348.23,399.37 350.30,399.37 352.36,399.37 354.43,399.37 356.50,399.37 358.57,399.37 360.64,399.37 362.70,399.37 364.77,399.37 366.84,399.37 368.91,399.37 370.98,399.37 373.04,399.37 375.11,399.37 377.18,399.37 379.25,399.37 381.32,399.37 383.38,399.37 385.45,399.37 387.52,399.37 389.59,399.37 391.66,399.37 393.72,399.37 395.79,399.37 397.86,399.37 399.93,399.37 402.00,399.37 404.06,399.37 406.13,399.37 408.20,399.37 410.27,399.37 412.34,399.37 414.40,399.37 416.47,399.37 418.54,399.37 420.61,399.37 422.68,399.37 424.74,399.37 426.81,399.37 428.88,399.37 430.95,399.37 433.02,399.37 435.08,399.37 437.15,399.37 439.22,399.37 441.29,399.37 443.36,399.37 445.42,399.37 447.49,399.37 449.56,399.37 451.63,399.37 453.70,399.37 455.76,399.37 457.83,399.37 459.90,399.37 461.97,399.37 464.04,399.37 466.10,399.37 468.17,399.37 470.24,399.37 472.31,399.37 474.38,399.37 476.44,399.37 478.51,399.37 480.58,399.37 482.65,399.37 484.72,399.37 486.78,399.37 488.85,399.37 490.92,399.37 492.99,399.37 495.06,399.37 497.12,399.37 499.19,399.37 501.26,399.37 503.33,399.37 505.40,399.37 507.46,399.37 509.53,399.37 511.60,399.37 513.67,399.37 515.74,399.37 517.80,399.37 519.87,399.37 521.94,399.37 524.01,399.37 526.08,399.37 528.14,399.37 530.21,399.37 532.28,399.37 534.35,399.37 536.42,399.37 538.48,399.37 540.55,399.37 542.62,399.37 544.69,399.37 546.76,399.37 548.82,399.37 550.89,399.37 552.96,399.37 555.03,399.37 557.10,399.37 559.16,399.37 561.23,399.37 563.30,399.37 565.37,399.37 567.44,399.37 569.50,399.37 571.57,399.37 573.64,399.37 575.71,399.37 577.78,399.37 579.84,399.37 581.91,399.37 583.98,399.37 586.05,399.37 588.12,399.37 590.18,399.37 592.25,399.37 594.32,399.37 596.39,399.37 598.46,399.37 600.52,399.37 602.59,399.37 604.66,399.37 606.73,399.37 608.80,399.37 610.86,399.37 612.93,399.37 615.00,399.37 617.07,399.37 619.14,399.37 621.20,399.37 623.27,399.37 625.34,399.37 627.41,399.37 629.48,399.37 631.54,399.37 633.61,399.37 635.68,399.37 637.75,399.37 639.82,399.37 641.88,399.37 643.95,399.37 646.02,399.37 648.09,399.37 650.16,399.37 652.22,399.37 654.29,399.37 656.36,399.37 658.43,399.37 660.50,399.37 662.56,399.37 664.63,399.37 666.70,399.37 668.77,399.37 670.84,399.37 672.90,399.37 674.97,399.37 677.04,399.37 679.11,399.37 681.18,399.37 683.24,399.37 685.31,399.37 687.38,399.37 689.45,399.37 691.52,399.37 693.58,399.37 695.65,399.37 697.72,399.37 699.79,399.37 701.86,399.37 703.92,399.37 705.99,399.37 708.06,399.37 710.13,399.37 712.20,399.37 714.26,399.37 716.33,399.37 718.40,399.37 720.47,399.37 722.54,399.37 724.60,399.37 726.67,399.37 728.74,399.37 730.81,399.37 732.88,399.37 734.94,399.37 737.01,399.37 739.08,399.37 741.15,399.37 743.22,399.37 745.28,399.37 747.35,399.37 749.42,399.37 751.49,399.37 753.56,399.37 755.62,399.37 757.69,399.37 759.76,399.37 761.83,399.37 763.90,399.37 765.96,399.37 768.03,399.37 770.10,399.37 772.17,399.37 774.24,399.37 776.30,399.37 778.37,399.37 780.44,399.37 782.51,399.37 784.58,399.37 786.64,399.37 788.71,399.37 790.78,399.37 792.85,399.37 794.92,399.37 796.98,399.37 799.05,399.37 801.12,399.37 803.19,399.37 805.26,399.37 807.32,399.37 809.39,399.37 811.46,399.37 813.53,399.37 815.60,399.37 817.66,399.37 819.73,399.37 821.80,399.37 823.87,399.37 825.94,399.37 828.00,399.37 830.07,399.37 832.14,399.37 834.21,399.37 836.28,399.37 838.34,399.37 840.41,399.37 842.48,399.37 844.55,399.37 846.62,399.37 848.68,399.37 850.75,399.37 852.82,399.37 854.89,399.37 856.96,399.37 859.02,399.37 861.09,399.37 863.16,399.37 865.23,399.37 867.30,399.37 869.36,399.37 871.43,399.37 873.50,399.37 875.57,399.37 877.64,399.37 879.70,399.37 881.77,399.37 883.84,399.37 885.91,399.37 887.98,399.37 890.04,399.37 892.11,399.37 894.18,399.37 896.25,399.37 898.32,399.37 900.38,399.37 902.45,399.37 904.52,399.37 906.59,399.37 908.66,399.37 910.72,399.37 912.79,399.37 914.86,399.37 916.93,399.37 919.00,399.37 921.06,399.37 923.13,399.37 925.20,399.37 927.27,399.37 929.34,399.37 931.40,399.37 933.47,399.37 935.54,399.37 937.61,399.37 939.68,399.37 941.74,399.37 943.81,399.37 945.88,399.37 947.95,399.37 950.02,399.37 952.08,399.37 954.15,399.37 956.22,399.37 958.29,399.37 960.36,399.37 962.42,399.37 964.49,399.37 966.56,399.37 968.63,399.37 970.70,399.37 972.76,399.37 974.83,399.37 976.90,399.37 978.97,399.37 981.04,399.37 983.10,399.37 985.17,399.37 987.24,399.37 989.31,399.37 991.38,399.37 993.44,399.37 995.51,399.37 997.58,399.37 999.65,399.37 1001.72,399.37 1003.78,399.37 1005.85,399.37 1007.92,399.37 1009.99,399.37 1012.06,399.37 1014.12,399.37 1016.19,399.37 1018.26,399.37 1020.33,399.37 1022.40,399.37 1024.46,399.37 1026.53,399.37 1028.60,399.37 1030.67,399.37 1032.74,399.37 1034.80,399.37 1036.87,399.37 1038.94,399.37 1041.01,399.37 1043.08,399.37 1045.14,399.37 1047.21,399.37 1049.28,399.37 1051.35,399.37 1053.42,399.37 1055.48,399.37 1057.55,399.37 1059.62,399.37 1061.69,399.37 1063.76,399.37 1065.82,399.37 1067.89,399.37 1069.96,399.37 1072.03,399.37 1074.10,399.37 1076.16,399.37 1078.23,399.37 1080.30,399.37 1082.37,399.37 1084.44,399.37 1086.50,399.37 1088.57,399.37 1090.64,399.37 1092.71,399.37 1094.78,399.37 1096.84,399.37 1098.91,399.37 1100.98,399.37 1103.05,399.37 1105.12,399.37 1107.18,399.37 1109.25,399.37 1111.32,399.37 1113.39,399.37 1115.46,399.37 1117.52,399.37 1119.59,399.37 1121.66,399.37 1123.73,399.37 1125.80,399.37 1127.86,399.37 1129.93,399.37 1131.48,399.37" fill="none" stroke="#b35c00" stroke-width="1.8" stroke-linejoin="round" stroke-linecap="round" />
<polyline points="98.00,399.37 100.07,411.37 102.14,413.71 104.20,412.58 106.27,409.11 108.34,405.26 110.41,402.78 112.48,402.58 114.54,403.95 116.61,405.41 118.68,406.19 120.75,406.30 122.82,405.94 124.88,405.29 126.95,404.51 129.02,403.72 131.09,403.06 133.16,402.61 135.22,402.40 137.29,402.36 139.36,402.44 141.43,402.56 143.50,402.68 145.56,402.78 147.63,402.84 149.70,402.86 151.77,402.83 153.84,402.76 155.90,402.65 157.97,402.56 160.04,402.49 162.11,402.43 164.18,402.37 166.24,402.31 168.31,402.25 170.38,402.20 172.45,402.15 174.52,402.10 176.58,402.07 178.65,402.03 180.72,402.00 182.79,401.98 184.86,401.95 186.92,401.93 188.99,401.91 191.06,401.89 193.13,401.87 195.20,401.85 197.26,401.83 199.33,401.81 201.40,401.79 203.47,401.77 205.54,401.76 207.60,401.74 209.67,401.72 211.74,401.71 213.81,399.37 215.88,414.64 217.94,404.04 220.01,409.75 222.08,418.45 224.15,403.78 226.22,410.61 228.28,415.47 230.35,417.49 232.42,410.33 234.49,405.39 236.56,414.54 238.62,413.81 240.69,400.21 242.76,407.81 244.83,436.95 246.90,468.16 248.96,403.76 251.03,400.70 253.10,402.96 255.17,405.63 257.24,408.08 259.30,410.16 261.37,411.85 263.44,413.17 265.51,413.75 267.58,412.54 269.64,410.78 271.71,410.06 273.78,409.73 275.85,409.26 277.92,408.46 279.98,407.31 282.05,406.00 284.12,404.80 286.19,403.95 288.26,403.49 290.32,403.35 292.39,403.40 294.46,403.55 296.53,403.71 298.60,403.84 300.66,403.94 302.73,403.99 304.80,404.02 306.87,404.01 308.94,403.98 311.00,403.92 313.07,403.81 315.14,403.75 317.21,403.74 319.28,403.75 321.34,403.75 323.41,403.74 325.48,403.71 327.55,403.67 329.62,403.63 331.68,403.58 333.75,403.53 335.82,403.50 337.89,403.47 339.96,403.44 342.02,403.43 344.09,403.42 346.16,403.42 348.23,403.42 350.30,403.43 352.36,403.43 354.43,403.44 356.50,403.45 358.57,403.45 360.64,403.46 362.70,403.48 364.77,404.42 366.84,404.70 368.91,405.00 370.98,405.32 373.04,405.66 375.11,406.03 377.18,406.42 379.25,406.84 381.32,407.29 383.38,407.77 385.45,408.28 387.52,408.82 389.59,409.40 391.66,410.02 393.72,410.67 395.79,411.36 397.86,412.09 399.93,412.85 402.00,413.63 404.06,414.42 406.13,415.22 408.20,416.00 410.27,416.74 412.34,417.42 414.40,417.99 416.47,418.44 418.54,418.74 420.61,418.84 422.68,418.74 424.74,418.43 426.81,417.91 428.88,417.20 430.95,416.33 433.02,415.32 435.08,414.24 437.15,413.09 439.22,411.94 441.29,410.80 443.36,409.69 445.42,408.64 447.49,407.65 449.56,406.74 451.63,405.89 453.70,405.13 455.76,404.44 457.83,403.82 459.90,403.26 461.97,402.76 464.04,402.31 466.10,401.91 468.17,401.54 470.24,401.20 472.31,400.94 474.38,400.80 476.44,400.75 478.51,400.78 480.58,400.86 482.65,400.97 484.72,401.09 486.78,401.21 488.85,401.31 490.92,401.38 492.99,401.41 495.06,401.40 497.12,401.35 499.19,401.37 501.26,401.50 503.33,401.48 505.40,401.84 507.46,402.02 509.53,402.29 511.60,403.39 513.67,405.82 515.74,410.08 517.80,415.85 519.87,419.45 521.94,418.90 524.01,417.49 526.08,416.78 528.14,416.58 530.21,416.34 532.28,415.55 534.35,414.28 536.42,413.12 538.48,412.03 540.55,410.53 542.62,408.95 544.69,408.00 546.76,407.98 548.82,408.83 550.89,410.37 552.96,412.44 555.03,414.90 557.10,417.70 559.16,421.46 561.23,427.11 563.30,432.17 565.37,429.64 567.44,422.77 569.50,418.86 571.57,402.19 573.64,391.00 575.71,391.00 577.78,391.00 579.84,391.47 581.91,395.07 583.98,397.81 586.05,399.97 588.12,401.80 590.18,403.71 592.25,405.42 594.32,404.91 596.39,400.64 598.46,396.04 600.52,395.86 602.59,401.21 604.66,413.07 606.73,423.91 608.80,416.47 610.86,409.47 612.93,407.02 615.00,405.93 617.07,404.48 619.14,402.31 621.20,400.58 623.27,400.64 625.34,402.27 627.41,403.93 629.48,404.53 631.54,403.85 633.61,402.66 635.68,400.56 637.75,397.83 639.82,395.69 641.88,395.19 643.95,395.82 646.02,396.86 648.09,397.78 650.16,398.32 652.22,398.32 654.29,397.69 656.36,396.59 658.43,395.43 660.50,394.86 662.56,395.14 664.63,395.70 666.70,396.23 668.77,396.67 670.84,396.62 672.90,396.20 674.97,396.25 677.04,396.51 679.11,396.68 681.18,396.81 683.24,396.38 685.31,396.11 687.38,396.13 689.45,396.18 691.52,396.24 693.58,396.40 695.65,396.34 697.72,396.61 699.79,396.57 701.86,396.40 703.92,396.10 705.99,395.84 708.06,396.24 710.13,396.76 712.20,396.63 714.26,396.57 716.33,396.63 718.40,396.55 720.47,396.36 722.54,396.24 724.60,396.21 726.67,396.09 728.74,396.42 730.81,396.68 732.88,396.47 734.94,396.12 737.01,396.04 739.08,396.55 741.15,397.10 743.22,397.21 745.28,397.01 747.35,396.57 749.42,396.24 751.49,396.03 753.56,395.84 755.62,395.64 757.69,395.39 759.76,396.05 761.83,397.09 763.90,397.42 765.96,397.34 768.03,396.89 770.10,396.25 772.17,396.03 774.24,396.39 776.30,396.54 778.37,396.58 780.44,396.63 782.51,396.48 784.58,396.54 786.64,396.86 788.71,396.94 790.78,396.77 792.85,396.46 794.92,396.05 796.98,395.91 799.05,395.78 801.12,396.09 803.19,396.35 805.26,396.83 807.32,396.90 809.39,396.84 811.46,396.63 813.53,396.46 815.60,396.27 817.66,396.15 819.73,396.09 821.80,396.20 823.87,396.31 825.94,396.13 828.00,396.53 830.07,396.71 832.14,396.80 834.21,396.78 836.28,396.68 838.34,396.49 840.41,396.40 842.48,396.60 844.55,396.80 846.62,396.94 848.68,396.74 850.75,396.31 852.82,395.76 854.89,395.56 856.96,395.78 859.02,396.42 861.09,397.05 863.16,397.07 865.23,396.79 867.30,396.59 869.36,396.60 871.43,396.61 873.50,396.32 875.57,396.11 877.64,396.07 879.70,396.28 881.77,396.31 883.84,396.38 885.91,396.31 887.98,396.45 890.04,396.91 892.11,397.08 894.18,396.87 896.25,396.44 898.32,396.06 900.38,396.13 902.45,396.26 904.52,396.03 906.59,396.24 908.66,396.65 910.72,397.04 912.79,397.05 914.86,396.58 916.93,396.17 919.00,396.10 921.06,395.98 923.13,396.02 925.20,396.31 927.27,396.57 929.34,396.55 931.40,396.46 933.47,396.54 935.54,396.56 937.61,396.65 939.68,396.75 941.74,396.90 943.81,396.91 945.88,396.49 947.95,396.18 950.02,395.91 952.08,396.02 954.15,395.94 956.22,395.83 958.29,396.26 960.36,396.82 962.42,397.33 964.49,397.24 966.56,397.11 968.63,396.82 970.70,396.13 972.76,396.03 974.83,396.03 976.90,396.34 978.97,396.53 981.04,396.45 983.10,396.32 985.17,396.26 987.24,396.51 989.31,396.55 991.38,396.45 993.44,396.21 995.51,396.22 997.58,396.33 999.65,396.61 1001.72,396.74 1003.78,396.67 1005.85,396.59 1007.92,396.48 1009.99,396.57 1012.06,396.53 1014.12,396.52 1016.19,396.43 1018.26,396.36 1020.33,396.46 1022.40,396.44 1024.46,396.40 1026.53,396.38 1028.60,396.50 1030.67,396.68 1032.74,396.47 1034.80,396.15 1036.87,396.12 1038.94,396.21 1041.01,396.60 1043.08,396.86 1045.14,396.90 1047.21,396.87 1049.28,396.69 1051.35,396.66 1053.42,396.51 1055.48,396.27 1057.55,396.04 1059.62,396.00 1061.69,396.15 1063.76,396.06 1065.82,396.55 1067.89,396.79 1069.96,396.81 1072.03,396.88 1074.10,396.46 1076.16,396.21 1078.23,396.17 1080.30,396.02 1082.37,396.18 1084.44,396.55 1086.50,396.75 1088.57,396.75 1090.64,396.70 1092.71,396.66 1094.78,396.81 1096.84,396.57 1098.91,396.21 1100.98,395.57 1103.05,395.54 1105.12,396.00 1107.18,396.67 1109.25,397.20 1111.32,397.57 1113.39,397.54 1115.46,397.23 1117.52,396.70 1119.59,396.03 1121.66,395.64 1123.73,395.47 1125.80,395.46 1127.86,395.31 1129.93,395.80 1131.48,396.59" fill="none" stroke="#2458d3" stroke-width="1.8" stroke-linejoin="round" stroke-linecap="round" />
<line x1="56.0" y1="546.0" x2="80.0" y2="546.0" stroke="#2458d3" stroke-width="2.0" />
<text x="86.0" y="550.0" fill="#1f2430" font-size="12" font-family="Segoe UI, Arial, sans-serif" font-weight="400" text-anchor="start">V_next / V_k</text>
<line x1="208.0" y1="546.0" x2="232.0" y2="546.0" stroke="#b35c00" stroke-width="2.0" />
<text x="238.0" y="550.0" fill="#1f2430" font-size="12" font-family="Segoe UI, Arial, sans-serif" font-weight="400" text-anchor="start">rho</text>
<circle cx="308.00" cy="546.00" r="2.40" fill="#bf1e2d" stroke="none" stroke-width="0.0" />
<text x="320.0" y="550.0" fill="#1f2430" font-size="12" font-family="Segoe UI, Arial, sans-serif" font-weight="400" text-anchor="start">violations</text>
<rect x="40.0" y="586.0" width="1120.0" height="235.0" fill="#fbfbfd" stroke="#d7dbe5" stroke-width="1.0" rx="8.0" />
<text x="56.0" y="610.0" fill="#1f2430" font-size="16" font-family="Segoe UI, Arial, sans-serif" font-weight="600" text-anchor="start">Run 20260501_002805</text>
<text x="56.0" y="628.0" fill="#5d6574" font-size="12" font-family="Segoe UI, Arial, sans-serif" font-weight="400" text-anchor="start">rho=0.985 | solver=99.90% | hard=99.90% | bounded-LS=201 | y-max=1.04 | clipped=21</text>
<line x1="98.0" y1="795.0" x2="1132.0" y2="795.0" stroke="#d7dbe5" stroke-width="1.0" stroke-dasharray="4 4" />
<text x="88.0" y="799.0" fill="#5d6574" font-size="11" font-family="Segoe UI, Arial, sans-serif" font-weight="400" text-anchor="end">0.00</text>
<line x1="98.0" y1="719.5" x2="1132.0" y2="719.5" stroke="#d7dbe5" stroke-width="1.0" stroke-dasharray="4 4" />
<text x="88.0" y="723.5" fill="#5d6574" font-size="11" font-family="Segoe UI, Arial, sans-serif" font-weight="400" text-anchor="end">0.52</text>
<line x1="98.0" y1="644.0" x2="1132.0" y2="644.0" stroke="#d7dbe5" stroke-width="1.0" stroke-dasharray="4 4" />
<text x="88.0" y="648.0" fill="#5d6574" font-size="11" font-family="Segoe UI, Arial, sans-serif" font-weight="400" text-anchor="end">1.04</text>
<line x1="98.0" y1="644.0" x2="98.0" y2="795.0" stroke="#d7dbe5" stroke-width="1.0" stroke-dasharray="4 4" />
<text x="98.0" y="813.0" fill="#5d6574" font-size="11" font-family="Segoe UI, Arial, sans-serif" font-weight="400" text-anchor="middle">0</text>
<line x1="356.5" y1="644.0" x2="356.5" y2="795.0" stroke="#d7dbe5" stroke-width="1.0" stroke-dasharray="4 4" />
<text x="356.5" y="813.0" fill="#5d6574" font-size="11" font-family="Segoe UI, Arial, sans-serif" font-weight="400" text-anchor="middle">500</text>
<line x1="615.0" y1="644.0" x2="615.0" y2="795.0" stroke="#d7dbe5" stroke-width="1.0" stroke-dasharray="4 4" />
<text x="615.0" y="813.0" fill="#5d6574" font-size="11" font-family="Segoe UI, Arial, sans-serif" font-weight="400" text-anchor="middle">1000</text>
<line x1="873.5" y1="644.0" x2="873.5" y2="795.0" stroke="#d7dbe5" stroke-width="1.0" stroke-dasharray="4 4" />
<text x="873.5" y="813.0" fill="#5d6574" font-size="11" font-family="Segoe UI, Arial, sans-serif" font-weight="400" text-anchor="middle">1500</text>
<line x1="1132.0" y1="644.0" x2="1132.0" y2="795.0" stroke="#d7dbe5" stroke-width="1.0" stroke-dasharray="4 4" />
<text x="1132.0" y="813.0" fill="#5d6574" font-size="11" font-family="Segoe UI, Arial, sans-serif" font-weight="400" text-anchor="middle">2000</text>
<line x1="98.0" y1="644.0" x2="98.0" y2="795.0" stroke="#2d3440" stroke-width="1.2" />
<line x1="98.0" y1="795.0" x2="1132.0" y2="795.0" stroke="#2d3440" stroke-width="1.2" />
<polyline points="98.00,651.44 100.07,651.44 102.14,651.44 104.20,651.44 106.27,651.44 108.34,651.44 110.41,651.44 112.48,651.44 114.54,651.44 116.61,651.44 118.68,651.44 120.75,651.44 122.82,651.44 124.88,651.44 126.95,651.44 129.02,651.44 131.09,651.44 133.16,651.44 135.22,651.44 137.29,651.44 139.36,651.44 141.43,651.44 143.50,651.44 145.56,651.44 147.63,651.44 149.70,651.44 151.77,651.44 153.84,651.44 155.90,651.44 157.97,651.44 160.04,651.44 162.11,651.44 164.18,651.44 166.24,651.44 168.31,651.44 170.38,651.44 172.45,651.44 174.52,651.44 176.58,651.44 178.65,651.44 180.72,651.44 182.79,651.44 184.86,651.44 186.92,651.44 188.99,651.44 191.06,651.44 193.13,651.44 195.20,651.44 197.26,651.44 199.33,651.44 201.40,651.44 203.47,651.44 205.54,651.44 207.60,651.44 209.67,651.44 211.74,651.44 213.81,651.44 215.88,651.44 217.94,651.44 220.01,651.44 222.08,651.44 224.15,651.44 226.22,651.44 228.28,651.44 230.35,651.44 232.42,651.44 234.49,651.44 236.56,651.44 238.62,651.44 240.69,651.44 242.76,651.44 244.83,651.44 246.90,651.44 248.96,651.44 251.03,651.44 253.10,651.44 255.17,651.44 257.24,651.44 259.30,651.44 261.37,651.44 263.44,651.44 265.51,651.44 267.58,651.44 269.64,651.44 271.71,651.44 273.78,651.44 275.85,651.44 277.92,651.44 279.98,651.44 282.05,651.44 284.12,651.44 286.19,651.44 288.26,651.44 290.32,651.44 292.39,651.44 294.46,651.44 296.53,651.44 298.60,651.44 300.66,651.44 302.73,651.44 304.80,651.44 306.87,651.44 308.94,651.44 311.00,651.44 313.07,651.44 315.14,651.44 317.21,651.44 319.28,651.44 321.34,651.44 323.41,651.44 325.48,651.44 327.55,651.44 329.62,651.44 331.68,651.44 333.75,651.44 335.82,651.44 337.89,651.44 339.96,651.44 342.02,651.44 344.09,651.44 346.16,651.44 348.23,651.44 350.30,651.44 352.36,651.44 354.43,651.44 356.50,651.44 358.57,651.44 360.64,651.44 362.70,651.44 364.77,651.44 366.84,651.44 368.91,651.44 370.98,651.44 373.04,651.44 375.11,651.44 377.18,651.44 379.25,651.44 381.32,651.44 383.38,651.44 385.45,651.44 387.52,651.44 389.59,651.44 391.66,651.44 393.72,651.44 395.79,651.44 397.86,651.44 399.93,651.44 402.00,651.44 404.06,651.44 406.13,651.44 408.20,651.44 410.27,651.44 412.34,651.44 414.40,651.44 416.47,651.44 418.54,651.44 420.61,651.44 422.68,651.44 424.74,651.44 426.81,651.44 428.88,651.44 430.95,651.44 433.02,651.44 435.08,651.44 437.15,651.44 439.22,651.44 441.29,651.44 443.36,651.44 445.42,651.44 447.49,651.44 449.56,651.44 451.63,651.44 453.70,651.44 455.76,651.44 457.83,651.44 459.90,651.44 461.97,651.44 464.04,651.44 466.10,651.44 468.17,651.44 470.24,651.44 472.31,651.44 474.38,651.44 476.44,651.44 478.51,651.44 480.58,651.44 482.65,651.44 484.72,651.44 486.78,651.44 488.85,651.44 490.92,651.44 492.99,651.44 495.06,651.44 497.12,651.44 499.19,651.44 501.26,651.44 503.33,651.44 505.40,651.44 507.46,651.44 509.53,651.44 511.60,651.44 513.67,651.44 515.74,651.44 517.80,651.44 519.87,651.44 521.94,651.44 524.01,651.44 526.08,651.44 528.14,651.44 530.21,651.44 532.28,651.44 534.35,651.44 536.42,651.44 538.48,651.44 540.55,651.44 542.62,651.44 544.69,651.44 546.76,651.44 548.82,651.44 550.89,651.44 552.96,651.44 555.03,651.44 557.10,651.44 559.16,651.44 561.23,651.44 563.30,651.44 565.37,651.44 567.44,651.44 569.50,651.44 571.57,651.44 573.64,651.44 575.71,651.44 577.78,651.44 579.84,651.44 581.91,651.44 583.98,651.44 586.05,651.44 588.12,651.44 590.18,651.44 592.25,651.44 594.32,651.44 596.39,651.44 598.46,651.44 600.52,651.44 602.59,651.44 604.66,651.44 606.73,651.44 608.80,651.44 610.86,651.44 612.93,651.44 615.00,651.44 617.07,651.44 619.14,651.44 621.20,651.44 623.27,651.44 625.34,651.44 627.41,651.44 629.48,651.44 631.54,651.44 633.61,651.44 635.68,651.44 637.75,651.44 639.82,651.44 641.88,651.44 643.95,651.44 646.02,651.44 648.09,651.44 650.16,651.44 652.22,651.44 654.29,651.44 656.36,651.44 658.43,651.44 660.50,651.44 662.56,651.44 664.63,651.44 666.70,651.44 668.77,651.44 670.84,651.44 672.90,651.44 674.97,651.44 677.04,651.44 679.11,651.44 681.18,651.44 683.24,651.44 685.31,651.44 687.38,651.44 689.45,651.44 691.52,651.44 693.58,651.44 695.65,651.44 697.72,651.44 699.79,651.44 701.86,651.44 703.92,651.44 705.99,651.44 708.06,651.44 710.13,651.44 712.20,651.44 714.26,651.44 716.33,651.44 718.40,651.44 720.47,651.44 722.54,651.44 724.60,651.44 726.67,651.44 728.74,651.44 730.81,651.44 732.88,651.44 734.94,651.44 737.01,651.44 739.08,651.44 741.15,651.44 743.22,651.44 745.28,651.44 747.35,651.44 749.42,651.44 751.49,651.44 753.56,651.44 755.62,651.44 757.69,651.44 759.76,651.44 761.83,651.44 763.90,651.44 765.96,651.44 768.03,651.44 770.10,651.44 772.17,651.44 774.24,651.44 776.30,651.44 778.37,651.44 780.44,651.44 782.51,651.44 784.58,651.44 786.64,651.44 788.71,651.44 790.78,651.44 792.85,651.44 794.92,651.44 796.98,651.44 799.05,651.44 801.12,651.44 803.19,651.44 805.26,651.44 807.32,651.44 809.39,651.44 811.46,651.44 813.53,651.44 815.60,651.44 817.66,651.44 819.73,651.44 821.80,651.44 823.87,651.44 825.94,651.44 828.00,651.44 830.07,651.44 832.14,651.44 834.21,651.44 836.28,651.44 838.34,651.44 840.41,651.44 842.48,651.44 844.55,651.44 846.62,651.44 848.68,651.44 850.75,651.44 852.82,651.44 854.89,651.44 856.96,651.44 859.02,651.44 861.09,651.44 863.16,651.44 865.23,651.44 867.30,651.44 869.36,651.44 871.43,651.44 873.50,651.44 875.57,651.44 877.64,651.44 879.70,651.44 881.77,651.44 883.84,651.44 885.91,651.44 887.98,651.44 890.04,651.44 892.11,651.44 894.18,651.44 896.25,651.44 898.32,651.44 900.38,651.44 902.45,651.44 904.52,651.44 906.59,651.44 908.66,651.44 910.72,651.44 912.79,651.44 914.86,651.44 916.93,651.44 919.00,651.44 921.06,651.44 923.13,651.44 925.20,651.44 927.27,651.44 929.34,651.44 931.40,651.44 933.47,651.44 935.54,651.44 937.61,651.44 939.68,651.44 941.74,651.44 943.81,651.44 945.88,651.44 947.95,651.44 950.02,651.44 952.08,651.44 954.15,651.44 956.22,651.44 958.29,651.44 960.36,651.44 962.42,651.44 964.49,651.44 966.56,651.44 968.63,651.44 970.70,651.44 972.76,651.44 974.83,651.44 976.90,651.44 978.97,651.44 981.04,651.44 983.10,651.44 985.17,651.44 987.24,651.44 989.31,651.44 991.38,651.44 993.44,651.44 995.51,651.44 997.58,651.44 999.65,651.44 1001.72,651.44 1003.78,651.44 1005.85,651.44 1007.92,651.44 1009.99,651.44 1012.06,651.44 1014.12,651.44 1016.19,651.44 1018.26,651.44 1020.33,651.44 1022.40,651.44 1024.46,651.44 1026.53,651.44 1028.60,651.44 1030.67,651.44 1032.74,651.44 1034.80,651.44 1036.87,651.44 1038.94,651.44 1041.01,651.44 1043.08,651.44 1045.14,651.44 1047.21,651.44 1049.28,651.44 1051.35,651.44 1053.42,651.44 1055.48,651.44 1057.55,651.44 1059.62,651.44 1061.69,651.44 1063.76,651.44 1065.82,651.44 1067.89,651.44 1069.96,651.44 1072.03,651.44 1074.10,651.44 1076.16,651.44 1078.23,651.44 1080.30,651.44 1082.37,651.44 1084.44,651.44 1086.50,651.44 1088.57,651.44 1090.64,651.44 1092.71,651.44 1094.78,651.44 1096.84,651.44 1098.91,651.44 1100.98,651.44 1103.05,651.44 1105.12,651.44 1107.18,651.44 1109.25,651.44 1111.32,651.44 1113.39,651.44 1115.46,651.44 1117.52,651.44 1119.59,651.44 1121.66,651.44 1123.73,651.44 1125.80,651.44 1127.86,651.44 1129.93,651.44 1131.48,651.44" fill="none" stroke="#b35c00" stroke-width="1.8" stroke-linejoin="round" stroke-linecap="round" />
<polyline points="98.00,651.44 100.07,663.70 104.20,665.56 106.27,662.37 108.34,658.71 110.41,655.91 112.48,654.91 114.54,655.63 116.61,656.99 118.68,658.03 120.75,658.48 122.82,658.41 124.88,658.01 126.95,657.42 129.02,656.76 131.09,656.16 133.16,655.69 135.22,655.41 137.29,655.29 139.36,655.29 141.43,655.35 143.50,655.43 145.56,655.52 147.63,655.58 149.70,655.60 151.77,655.59 153.84,658.08 155.90,665.60 157.97,668.34 160.04,665.43 162.11,652.68 164.18,663.33 166.24,665.83 168.31,665.18 170.38,662.71 172.45,659.20 174.52,656.44 176.58,656.21 178.65,658.06 180.72,661.20 182.79,665.39 184.86,667.37 186.92,668.70 188.99,669.56 191.06,670.07 193.13,670.10 195.20,669.39 197.26,668.36 199.33,668.09 201.40,668.77 203.47,670.09 205.54,671.74 207.60,667.86 209.67,667.52 211.74,667.99 213.81,668.90 215.88,670.02 217.94,671.17 220.01,672.17 222.08,672.86 224.15,673.09 226.22,672.78 228.28,671.90 230.35,670.58 232.42,669.04 234.49,667.48 236.56,666.03 238.62,664.75 240.69,663.61 242.76,662.59 244.83,661.65 246.90,660.76 248.96,659.91 251.03,659.09 253.10,658.31 255.17,657.58 257.24,656.90 259.30,656.28 261.37,655.72 263.44,655.22 265.51,654.77 267.58,654.37 269.64,654.02 271.71,653.70 273.78,653.41 275.85,653.15 277.92,652.92 279.98,652.71 282.05,652.52 284.12,652.34 286.19,652.18 288.26,652.04 290.32,651.92 292.39,651.80 294.46,651.70 296.53,651.61 298.60,651.54 300.66,651.50 302.73,651.49 304.80,651.50 306.87,651.52 308.94,651.54 311.00,651.61 313.07,651.67 315.14,651.71 317.21,651.76 319.28,651.79 321.34,651.78 323.41,651.81 325.48,651.81 327.55,651.83 329.62,651.83 331.68,651.81 333.75,651.95 335.82,652.06 337.89,652.09 339.96,652.20 342.02,652.42 344.09,652.80 346.16,653.46 348.23,654.00 350.30,654.54 352.36,655.26 354.43,656.37 356.50,658.01 358.57,660.18 360.64,663.30 362.70,667.17 364.77,670.93 366.84,673.90 368.91,676.21 370.98,677.32 373.04,676.47 375.11,673.84 377.18,670.66 379.25,668.00 381.32,666.09 383.38,664.81 385.45,663.94 387.52,663.33 389.59,662.87 391.66,662.51 393.72,662.22 395.79,661.99 397.86,661.82 399.93,661.70 402.00,661.63 404.06,661.63 406.13,661.74 408.20,662.10 410.27,662.87 412.34,664.24 414.40,666.48 416.47,670.15 418.54,676.55 420.61,689.44 422.68,704.02 424.74,644.00 426.81,644.00 428.88,644.00 430.95,644.00 433.02,644.00 435.08,644.97 437.15,646.93 439.22,648.45 441.29,649.81 443.36,651.18 445.42,652.64 447.49,654.26 449.56,656.21 451.63,658.74 453.70,662.18 455.76,666.76 457.83,671.86 459.90,675.17 461.97,673.38 464.04,668.26 466.10,664.06 468.17,661.45 470.24,659.77 472.31,658.74 474.38,658.26 476.44,658.11 478.51,658.14 480.58,658.17 482.65,658.11 484.72,658.00 486.78,657.83 488.85,657.86 490.92,657.73 492.99,657.07 495.06,656.00 497.12,654.22 499.19,652.11 501.26,650.37 503.33,648.99 505.40,648.55 507.46,648.81 509.53,649.26 511.60,649.42 513.67,649.33 515.74,649.14 517.80,649.07 519.87,649.08 521.94,649.15 524.01,648.92 526.08,649.12 528.14,649.58 530.21,649.56 532.28,649.24 534.35,648.77 536.42,648.79 538.48,649.01 540.55,649.18 542.62,649.02 544.69,648.78 546.76,649.01 548.82,649.04 550.89,649.03 552.96,648.69 555.03,648.82 557.10,649.08 559.16,649.14 561.23,649.29 563.30,649.27 565.37,649.66 567.44,649.76 569.50,649.35 571.57,649.09 573.64,649.00 575.71,648.89 577.78,648.61 579.84,648.98 581.91,649.43 583.98,649.69 586.05,650.14 588.12,650.01 590.18,649.61 592.25,649.22 594.32,648.94 596.39,648.99 598.46,648.96 600.52,648.98 602.59,648.91 604.66,649.03 606.73,649.12 608.80,649.21 610.86,649.14 612.93,649.41 615.00,649.67 617.07,649.60 619.14,649.56 621.20,649.47 623.27,649.27 625.34,649.02 627.41,648.82 629.48,648.83 631.54,648.92 633.61,649.11 635.68,649.12 637.75,649.42 639.82,649.60 641.88,649.66 643.95,649.74 646.02,649.83 648.09,649.35 650.16,649.04 652.22,648.71 654.29,648.62 656.36,648.91 658.43,649.12 660.50,648.83 662.56,648.81 664.63,648.89 666.70,649.32 668.77,650.00 670.84,650.15 672.90,649.76 674.97,649.30 677.04,649.13 679.11,648.84 681.18,648.89 683.24,649.17 685.31,649.44 687.38,649.34 689.45,649.31 691.52,649.27 693.58,649.02 695.65,648.59 697.72,648.72 699.79,649.11 701.86,649.46 703.92,649.75 705.99,649.89 708.06,649.76 710.13,649.61 712.20,649.44 714.26,649.14 716.33,648.44 718.40,648.29 720.47,648.84 722.54,649.45 724.60,649.74 726.67,649.82 728.74,649.65 730.81,649.33 732.88,649.33 734.94,649.15 737.01,649.23 739.08,649.53 741.15,649.50 743.22,649.22 745.28,648.86 747.35,648.81 749.42,648.77 751.49,649.06 753.56,649.38 755.62,649.75 757.69,649.76 759.76,649.24 761.83,648.92 763.90,648.76 765.96,648.80 768.03,649.13 770.10,649.25 772.17,649.40 774.24,649.36 776.30,649.14 778.37,649.24 780.44,649.71 782.51,649.66 784.58,649.46 786.64,649.37 788.71,649.30 790.78,649.37 792.85,649.31 794.92,649.15 796.98,649.02 799.05,649.09 801.12,649.16 803.19,649.23 805.26,649.30 807.32,649.20 809.39,649.07 811.46,648.83 813.53,649.26 815.60,649.76 817.66,649.61 819.73,649.44 821.80,649.00 823.87,648.75 825.94,648.93 828.00,648.99 830.07,648.92 832.14,649.11 834.21,649.61 836.28,649.81 838.34,649.64 840.41,649.56 842.48,649.57 844.55,649.14 846.62,649.05 848.68,649.18 850.75,649.41 852.82,649.57 854.89,649.64 856.96,649.40 859.02,648.98 861.09,648.95 863.16,648.54 865.23,648.61 867.30,648.81 869.36,649.21 871.43,649.87 873.50,650.13 875.57,649.60 877.64,649.20 879.70,649.02 881.77,649.00 883.84,649.25 885.91,649.32 887.98,649.08 890.04,649.13 892.11,648.90 894.18,649.16 896.25,649.67 898.32,649.62 900.38,649.40 902.45,649.31 904.52,649.18 906.59,649.03 908.66,648.85 910.72,648.93 912.79,649.07 914.86,649.10 916.93,649.24 919.00,649.39 921.06,649.70 923.13,649.90 925.20,649.73 927.27,649.38 929.34,649.00 931.40,648.99 933.47,648.82 935.54,648.60 937.61,648.48 939.68,649.11 941.74,649.66 943.81,650.19 945.88,650.33 947.95,649.92 950.02,649.37 952.08,648.78 954.15,648.45 956.22,648.52 958.29,648.64 960.36,648.96 962.42,649.63 964.49,649.78 966.56,649.36 968.63,649.06 970.70,649.03 972.76,649.29 974.83,649.54 976.90,649.38 978.97,648.85 981.04,648.78 983.10,649.18 985.17,649.24 987.24,649.84 989.31,650.01 991.38,649.89 993.44,649.77 995.51,649.57 997.58,649.05 999.65,648.37 1001.72,648.32 1003.78,648.79 1005.85,649.14 1007.92,649.70 1009.99,649.77 1012.06,649.55 1014.12,649.55 1016.19,649.44 1018.26,649.33 1020.33,649.44 1022.40,649.35 1024.46,649.17 1026.53,649.15 1028.60,649.01 1030.67,649.00 1032.74,648.60 1034.80,648.67 1036.87,649.08 1038.94,649.40 1041.01,649.12 1043.08,648.93 1045.14,649.37 1047.21,649.74 1049.28,649.82 1051.35,649.88 1053.42,649.46 1055.48,649.04 1057.55,648.72 1059.62,648.97 1061.69,649.12 1063.76,649.18 1065.82,649.13 1067.89,649.34 1069.96,649.86 1072.03,649.76 1074.10,649.35 1076.16,648.98 1078.23,649.17 1080.30,649.35 1082.37,649.37 1084.44,649.16 1086.50,649.31 1088.57,649.34 1090.64,649.11 1092.71,648.91 1094.78,648.63 1096.84,648.41 1098.91,649.07 1100.98,649.58 1103.05,650.07 1105.12,649.87 1107.18,649.64 1109.25,649.59 1111.32,649.44 1113.39,649.31 1115.46,649.00 1117.52,648.91 1119.59,649.02 1121.66,648.90 1123.73,649.04 1125.80,649.13 1127.86,649.03 1129.93,648.94 1131.48,649.06" fill="none" stroke="#2458d3" stroke-width="1.8" stroke-linejoin="round" stroke-linecap="round" />
<line x1="56.0" y1="799.0" x2="80.0" y2="799.0" stroke="#2458d3" stroke-width="2.0" />
<text x="86.0" y="803.0" fill="#1f2430" font-size="12" font-family="Segoe UI, Arial, sans-serif" font-weight="400" text-anchor="start">V_next / V_k</text>
<line x1="208.0" y1="799.0" x2="232.0" y2="799.0" stroke="#b35c00" stroke-width="2.0" />
<text x="238.0" y="803.0" fill="#1f2430" font-size="12" font-family="Segoe UI, Arial, sans-serif" font-weight="400" text-anchor="start">rho</text>
<circle cx="308.00" cy="799.00" r="2.40" fill="#bf1e2d" stroke="none" stroke-width="0.0" />
<text x="320.0" y="803.0" fill="#1f2430" font-size="12" font-family="Segoe UI, Arial, sans-serif" font-weight="400" text-anchor="start">violations</text>
<rect x="40.0" y="839.0" width="1120.0" height="235.0" fill="#fbfbfd" stroke="#d7dbe5" stroke-width="1.0" rx="8.0" />
<text x="56.0" y="863.0" fill="#1f2430" font-size="16" font-family="Segoe UI, Arial, sans-serif" font-weight="600" text-anchor="start">Run 20260501_001948</text>
<text x="56.0" y="881.0" fill="#5d6574" font-size="12" font-family="Segoe UI, Arial, sans-serif" font-weight="400" text-anchor="start">rho=0.99 | solver=99.85% | hard=99.85% | bounded-LS=227 | y-max=1.04 | clipped=21</text>
<line x1="98.0" y1="1048.0" x2="1132.0" y2="1048.0" stroke="#d7dbe5" stroke-width="1.0" stroke-dasharray="4 4" />
<text x="88.0" y="1052.0" fill="#5d6574" font-size="11" font-family="Segoe UI, Arial, sans-serif" font-weight="400" text-anchor="end">0.00</text>
<line x1="98.0" y1="972.5" x2="1132.0" y2="972.5" stroke="#d7dbe5" stroke-width="1.0" stroke-dasharray="4 4" />
<text x="88.0" y="976.5" fill="#5d6574" font-size="11" font-family="Segoe UI, Arial, sans-serif" font-weight="400" text-anchor="end">0.52</text>
<line x1="98.0" y1="897.0" x2="1132.0" y2="897.0" stroke="#d7dbe5" stroke-width="1.0" stroke-dasharray="4 4" />
<text x="88.0" y="901.0" fill="#5d6574" font-size="11" font-family="Segoe UI, Arial, sans-serif" font-weight="400" text-anchor="end">1.04</text>
<line x1="98.0" y1="897.0" x2="98.0" y2="1048.0" stroke="#d7dbe5" stroke-width="1.0" stroke-dasharray="4 4" />
<text x="98.0" y="1066.0" fill="#5d6574" font-size="11" font-family="Segoe UI, Arial, sans-serif" font-weight="400" text-anchor="middle">0</text>
<line x1="356.5" y1="897.0" x2="356.5" y2="1048.0" stroke="#d7dbe5" stroke-width="1.0" stroke-dasharray="4 4" />
<text x="356.5" y="1066.0" fill="#5d6574" font-size="11" font-family="Segoe UI, Arial, sans-serif" font-weight="400" text-anchor="middle">500</text>
<line x1="615.0" y1="897.0" x2="615.0" y2="1048.0" stroke="#d7dbe5" stroke-width="1.0" stroke-dasharray="4 4" />
<text x="615.0" y="1066.0" fill="#5d6574" font-size="11" font-family="Segoe UI, Arial, sans-serif" font-weight="400" text-anchor="middle">1000</text>
<line x1="873.5" y1="897.0" x2="873.5" y2="1048.0" stroke="#d7dbe5" stroke-width="1.0" stroke-dasharray="4 4" />
<text x="873.5" y="1066.0" fill="#5d6574" font-size="11" font-family="Segoe UI, Arial, sans-serif" font-weight="400" text-anchor="middle">1500</text>
<line x1="1132.0" y1="897.0" x2="1132.0" y2="1048.0" stroke="#d7dbe5" stroke-width="1.0" stroke-dasharray="4 4" />
<text x="1132.0" y="1066.0" fill="#5d6574" font-size="11" font-family="Segoe UI, Arial, sans-serif" font-weight="400" text-anchor="middle">2000</text>
<line x1="98.0" y1="897.0" x2="98.0" y2="1048.0" stroke="#2d3440" stroke-width="1.2" />
<line x1="98.0" y1="1048.0" x2="1132.0" y2="1048.0" stroke="#2d3440" stroke-width="1.2" />
<polyline points="98.00,904.36 100.07,904.36 102.14,904.36 104.20,904.36 106.27,904.36 108.34,904.36 110.41,904.36 112.48,904.36 114.54,904.36 116.61,904.36 118.68,904.36 120.75,904.36 122.82,904.36 124.88,904.36 126.95,904.36 129.02,904.36 131.09,904.36 133.16,904.36 135.22,904.36 137.29,904.36 139.36,904.36 141.43,904.36 143.50,904.36 145.56,904.36 147.63,904.36 149.70,904.36 151.77,904.36 153.84,904.36 155.90,904.36 157.97,904.36 160.04,904.36 162.11,904.36 164.18,904.36 166.24,904.36 168.31,904.36 170.38,904.36 172.45,904.36 174.52,904.36 176.58,904.36 178.65,904.36 180.72,904.36 182.79,904.36 184.86,904.36 186.92,904.36 188.99,904.36 191.06,904.36 193.13,904.36 195.20,904.36 197.26,904.36 199.33,904.36 201.40,904.36 203.47,904.36 205.54,904.36 207.60,904.36 209.67,904.36 211.74,904.36 213.81,904.36 215.88,904.36 217.94,904.36 220.01,904.36 222.08,904.36 224.15,904.36 226.22,904.36 228.28,904.36 230.35,904.36 232.42,904.36 234.49,904.36 236.56,904.36 238.62,904.36 240.69,904.36 242.76,904.36 244.83,904.36 246.90,904.36 248.96,904.36 251.03,904.36 253.10,904.36 255.17,904.36 257.24,904.36 259.30,904.36 261.37,904.36 263.44,904.36 265.51,904.36 267.58,904.36 269.64,904.36 271.71,904.36 273.78,904.36 275.85,904.36 277.92,904.36 279.98,904.36 282.05,904.36 284.12,904.36 286.19,904.36 288.26,904.36 290.32,904.36 292.39,904.36 294.46,904.36 296.53,904.36 298.60,904.36 300.66,904.36 302.73,904.36 304.80,904.36 306.87,904.36 308.94,904.36 311.00,904.36 313.07,904.36 315.14,904.36 317.21,904.36 319.28,904.36 321.34,904.36 323.41,904.36 325.48,904.36 327.55,904.36 329.62,904.36 331.68,904.36 333.75,904.36 335.82,904.36 337.89,904.36 339.96,904.36 342.02,904.36 344.09,904.36 346.16,904.36 348.23,904.36 350.30,904.36 352.36,904.36 354.43,904.36 356.50,904.36 358.57,904.36 360.64,904.36 362.70,904.36 364.77,904.36 366.84,904.36 368.91,904.36 370.98,904.36 373.04,904.36 375.11,904.36 377.18,904.36 379.25,904.36 381.32,904.36 383.38,904.36 385.45,904.36 387.52,904.36 389.59,904.36 391.66,904.36 393.72,904.36 395.79,904.36 397.86,904.36 399.93,904.36 402.00,904.36 404.06,904.36 406.13,904.36 408.20,904.36 410.27,904.36 412.34,904.36 414.40,904.36 416.47,904.36 418.54,904.36 420.61,904.36 422.68,904.36 424.74,904.36 426.81,904.36 428.88,904.36 430.95,904.36 433.02,904.36 435.08,904.36 437.15,904.36 439.22,904.36 441.29,904.36 443.36,904.36 445.42,904.36 447.49,904.36 449.56,904.36 451.63,904.36 453.70,904.36 455.76,904.36 457.83,904.36 459.90,904.36 461.97,904.36 464.04,904.36 466.10,904.36 468.17,904.36 470.24,904.36 472.31,904.36 474.38,904.36 476.44,904.36 478.51,904.36 480.58,904.36 482.65,904.36 484.72,904.36 486.78,904.36 488.85,904.36 490.92,904.36 492.99,904.36 495.06,904.36 497.12,904.36 499.19,904.36 501.26,904.36 503.33,904.36 505.40,904.36 507.46,904.36 509.53,904.36 511.60,904.36 513.67,904.36 515.74,904.36 517.80,904.36 519.87,904.36 521.94,904.36 524.01,904.36 526.08,904.36 528.14,904.36 530.21,904.36 532.28,904.36 534.35,904.36 536.42,904.36 538.48,904.36 540.55,904.36 542.62,904.36 544.69,904.36 546.76,904.36 548.82,904.36 550.89,904.36 552.96,904.36 555.03,904.36 557.10,904.36 559.16,904.36 561.23,904.36 563.30,904.36 565.37,904.36 567.44,904.36 569.50,904.36 571.57,904.36 573.64,904.36 575.71,904.36 577.78,904.36 579.84,904.36 581.91,904.36 583.98,904.36 586.05,904.36 588.12,904.36 590.18,904.36 592.25,904.36 594.32,904.36 596.39,904.36 598.46,904.36 600.52,904.36 602.59,904.36 604.66,904.36 606.73,904.36 608.80,904.36 610.86,904.36 612.93,904.36 615.00,904.36 617.07,904.36 619.14,904.36 621.20,904.36 623.27,904.36 625.34,904.36 627.41,904.36 629.48,904.36 631.54,904.36 633.61,904.36 635.68,904.36 637.75,904.36 639.82,904.36 641.88,904.36 643.95,904.36 646.02,904.36 648.09,904.36 650.16,904.36 652.22,904.36 654.29,904.36 656.36,904.36 658.43,904.36 660.50,904.36 662.56,904.36 664.63,904.36 666.70,904.36 668.77,904.36 670.84,904.36 672.90,904.36 674.97,904.36 677.04,904.36 679.11,904.36 681.18,904.36 683.24,904.36 685.31,904.36 687.38,904.36 689.45,904.36 691.52,904.36 693.58,904.36 695.65,904.36 697.72,904.36 699.79,904.36 701.86,904.36 703.92,904.36 705.99,904.36 708.06,904.36 710.13,904.36 712.20,904.36 714.26,904.36 716.33,904.36 718.40,904.36 720.47,904.36 722.54,904.36 724.60,904.36 726.67,904.36 728.74,904.36 730.81,904.36 732.88,904.36 734.94,904.36 737.01,904.36 739.08,904.36 741.15,904.36 743.22,904.36 745.28,904.36 747.35,904.36 749.42,904.36 751.49,904.36 753.56,904.36 755.62,904.36 757.69,904.36 759.76,904.36 761.83,904.36 763.90,904.36 765.96,904.36 768.03,904.36 770.10,904.36 772.17,904.36 774.24,904.36 776.30,904.36 778.37,904.36 780.44,904.36 782.51,904.36 784.58,904.36 786.64,904.36 788.71,904.36 790.78,904.36 792.85,904.36 794.92,904.36 796.98,904.36 799.05,904.36 801.12,904.36 803.19,904.36 805.26,904.36 807.32,904.36 809.39,904.36 811.46,904.36 813.53,904.36 815.60,904.36 817.66,904.36 819.73,904.36 821.80,904.36 823.87,904.36 825.94,904.36 828.00,904.36 830.07,904.36 832.14,904.36 834.21,904.36 836.28,904.36 838.34,904.36 840.41,904.36 842.48,904.36 844.55,904.36 846.62,904.36 848.68,904.36 850.75,904.36 852.82,904.36 854.89,904.36 856.96,904.36 859.02,904.36 861.09,904.36 863.16,904.36 865.23,904.36 867.30,904.36 869.36,904.36 871.43,904.36 873.50,904.36 875.57,904.36 877.64,904.36 879.70,904.36 881.77,904.36 883.84,904.36 885.91,904.36 887.98,904.36 890.04,904.36 892.11,904.36 894.18,904.36 896.25,904.36 898.32,904.36 900.38,904.36 902.45,904.36 904.52,904.36 906.59,904.36 908.66,904.36 910.72,904.36 912.79,904.36 914.86,904.36 916.93,904.36 919.00,904.36 921.06,904.36 923.13,904.36 925.20,904.36 927.27,904.36 929.34,904.36 931.40,904.36 933.47,904.36 935.54,904.36 937.61,904.36 939.68,904.36 941.74,904.36 943.81,904.36 945.88,904.36 947.95,904.36 950.02,904.36 952.08,904.36 954.15,904.36 956.22,904.36 958.29,904.36 960.36,904.36 962.42,904.36 964.49,904.36 966.56,904.36 968.63,904.36 970.70,904.36 972.76,904.36 974.83,904.36 976.90,904.36 978.97,904.36 981.04,904.36 983.10,904.36 985.17,904.36 987.24,904.36 989.31,904.36 991.38,904.36 993.44,904.36 995.51,904.36 997.58,904.36 999.65,904.36 1001.72,904.36 1003.78,904.36 1005.85,904.36 1007.92,904.36 1009.99,904.36 1012.06,904.36 1014.12,904.36 1016.19,904.36 1018.26,904.36 1020.33,904.36 1022.40,904.36 1024.46,904.36 1026.53,904.36 1028.60,904.36 1030.67,904.36 1032.74,904.36 1034.80,904.36 1036.87,904.36 1038.94,904.36 1041.01,904.36 1043.08,904.36 1045.14,904.36 1047.21,904.36 1049.28,904.36 1051.35,904.36 1053.42,904.36 1055.48,904.36 1057.55,904.36 1059.62,904.36 1061.69,904.36 1063.76,904.36 1065.82,904.36 1067.89,904.36 1069.96,904.36 1072.03,904.36 1074.10,904.36 1076.16,904.36 1078.23,904.36 1080.30,904.36 1082.37,904.36 1084.44,904.36 1086.50,904.36 1088.57,904.36 1090.64,904.36 1092.71,904.36 1094.78,904.36 1096.84,904.36 1098.91,904.36 1100.98,904.36 1103.05,904.36 1105.12,904.36 1107.18,904.36 1109.25,904.36 1111.32,904.36 1113.39,904.36 1115.46,904.36 1117.52,904.36 1119.59,904.36 1121.66,904.36 1123.73,904.36 1125.80,904.36 1127.86,904.36 1129.93,904.36 1131.48,904.36" fill="none" stroke="#b35c00" stroke-width="1.8" stroke-linejoin="round" stroke-linecap="round" />
<polyline points="98.00,904.36 100.07,916.65 102.14,919.64 104.20,919.46 106.27,916.72 108.34,912.60 110.41,909.44 112.48,908.32 114.54,909.13 116.61,910.67 118.68,911.86 120.75,912.40 122.82,912.37 124.88,911.95 126.95,911.32 129.02,910.59 131.09,909.90 133.16,909.36 135.22,909.01 137.29,908.85 139.36,908.84 141.43,908.90 143.50,908.99 145.56,909.09 147.63,909.16 149.70,909.19 151.77,909.18 153.84,909.09 155.90,908.94 157.97,908.86 160.04,908.82 162.11,908.79 164.18,908.74 166.24,908.67 168.31,908.59 170.38,908.51 172.45,908.42 174.52,908.35 176.58,908.28 178.65,908.23 180.72,908.20 182.79,908.17 184.86,908.15 186.92,908.14 188.99,908.13 191.06,908.11 193.13,908.10 195.20,908.09 197.26,908.07 199.33,908.06 201.40,908.04 203.47,908.02 205.54,908.01 207.60,907.99 209.67,907.98 211.74,907.97 213.81,907.96 215.88,904.66 217.94,904.65 220.01,904.65 222.08,904.65 224.15,904.65 226.22,904.65 228.28,904.64 230.35,904.64 232.42,904.64 234.49,904.64 236.56,904.64 238.62,904.64 240.69,904.64 242.76,904.64 244.83,904.63 246.90,904.63 248.96,904.63 251.03,904.63 253.10,904.63 255.17,904.63 257.24,904.63 259.30,904.63 261.37,904.63 263.44,904.63 265.51,904.63 267.58,904.63 269.64,904.63 271.71,904.63 273.78,904.63 275.85,904.64 277.92,904.63 279.98,904.63 282.05,904.64 284.12,904.64 286.19,904.65 288.26,904.65 290.32,904.65 292.39,904.66 294.46,904.67 296.53,904.69 298.60,904.70 300.66,904.72 302.73,904.73 304.80,904.74 306.87,904.76 308.94,904.82 311.00,904.83 313.07,904.89 315.14,904.93 317.21,905.00 319.28,905.06 321.34,905.11 323.41,905.15 325.48,905.37 327.55,905.56 329.62,905.60 331.68,905.65 333.75,906.04 335.82,906.42 337.89,906.65 339.96,906.81 342.02,907.01 344.09,907.60 346.16,908.22 348.23,908.65 350.30,908.85 352.36,909.59 354.43,911.62 356.50,915.09 358.57,918.51 360.64,921.38 362.70,923.93 364.77,926.58 366.84,929.16 368.91,930.63 370.98,930.92 373.04,929.94 375.11,927.74 377.18,925.06 379.25,922.66 381.32,920.84 383.38,919.57 385.45,918.69 387.52,918.08 389.59,917.62 391.66,917.27 393.72,917.00 395.79,916.80 397.86,916.66 399.93,916.57 402.00,916.57 404.06,916.71 406.13,917.08 408.20,917.85 410.27,919.18 412.34,921.32 414.40,924.72 416.47,930.41 418.54,940.97 420.61,960.10 422.68,897.00 424.74,897.00 426.81,897.00 428.88,897.00 430.95,897.00 433.02,897.00 435.08,898.99 437.15,900.78 439.22,902.32 441.29,903.80 443.36,905.33 445.42,907.06 447.49,909.13 449.56,911.81 451.63,915.28 453.70,919.46 455.76,923.85 457.83,927.52 459.90,928.99 461.97,927.16 464.04,923.04 466.10,918.97 468.17,916.09 470.24,914.42 472.31,913.67 474.38,913.63 476.44,913.99 478.51,914.55 480.58,915.11 482.65,915.31 484.72,914.78 486.78,913.02 488.85,910.65 490.92,908.78 492.99,907.59 495.06,906.65 497.12,905.95 499.19,905.36 501.26,904.51 503.33,903.75 505.40,902.99 507.46,901.86 509.53,901.12 511.60,901.15 513.67,901.73 515.74,902.58 517.80,903.30 519.87,903.76 521.94,904.08 524.01,904.13 526.08,903.75 528.14,903.31 530.21,903.02 532.28,902.90 534.35,902.82 536.42,903.13 538.48,903.66 540.55,904.20 542.62,904.16 544.69,903.86 546.76,903.25 548.82,902.76 550.89,902.31 552.96,902.16 555.03,902.49 557.10,903.00 559.16,903.58 561.23,903.75 563.30,903.69 565.37,903.40 567.44,902.94 569.50,902.06 571.57,901.58 573.64,901.92 575.71,902.77 577.78,903.30 579.84,903.41 581.91,903.27 583.98,902.74 586.05,902.59 588.12,902.88 590.18,903.26 592.25,903.38 594.32,903.57 596.39,903.72 598.46,903.50 600.52,902.84 602.59,902.38 604.66,901.84 606.73,901.81 608.80,901.97 610.86,902.70 612.93,903.77 615.00,904.14 617.07,903.82 619.14,903.40 621.20,902.63 623.27,901.74 625.34,901.40 627.41,901.90 629.48,902.64 631.54,903.47 633.61,904.47 635.68,904.66 637.75,904.07 639.82,903.21 641.88,902.39 643.95,901.97 646.02,901.91 648.09,902.27 650.16,902.76 652.22,902.93 654.29,903.07 656.36,903.14 658.43,903.11 660.50,902.95 662.56,902.80 664.63,902.31 666.70,902.46 668.77,903.09 670.84,903.54 672.90,903.28 674.97,902.80 677.04,902.73 679.11,902.75 681.18,902.73 683.24,902.96 685.31,903.15 687.38,903.21 689.45,903.21 691.52,903.09 693.58,902.84 695.65,902.61 697.72,902.58 699.79,902.59 701.86,902.89 703.92,903.21 705.99,903.24 708.06,903.19 710.13,903.06 712.20,903.16 714.26,902.86 716.33,902.46 718.40,902.54 720.47,902.64 722.54,902.87 724.60,903.11 726.67,903.29 728.74,903.12 730.81,902.81 732.88,902.43 734.94,902.37 737.01,902.88 739.08,903.00 741.15,902.93 743.22,903.20 745.28,903.41 747.35,903.41 749.42,902.99 751.49,902.69 753.56,902.69 755.62,902.84 757.69,902.46 759.76,902.31 761.83,902.64 763.90,903.10 765.96,903.23 768.03,903.35 770.10,903.49 772.17,903.17 774.24,902.71 776.30,902.63 778.37,902.68 780.44,902.86 782.51,902.84 784.58,902.85 786.64,903.07 788.71,903.19 790.78,903.04 792.85,902.81 794.92,902.76 796.98,902.73 799.05,902.74 801.12,902.98 803.19,903.38 805.26,903.62 807.32,903.28 809.39,903.01 811.46,902.91 813.53,902.45 815.60,902.09 817.66,902.07 819.73,902.09 821.80,902.50 823.87,903.27 825.94,903.80 828.00,904.00 830.07,903.97 832.14,903.27 834.21,902.30 836.28,902.30 838.34,902.57 840.41,902.67 842.48,902.49 844.55,902.97 846.62,903.13 848.68,903.08 850.75,902.97 852.82,902.72 854.89,902.82 856.96,903.06 859.02,903.19 861.09,903.26 863.16,903.17 865.23,902.96 867.30,902.62 869.36,902.57 871.43,902.76 873.50,902.98 875.57,902.90 877.64,902.79 879.70,903.07 881.77,903.08 883.84,903.03 885.91,902.94 887.98,902.98 890.04,903.15 892.11,903.12 894.18,903.10 896.25,903.07 898.32,902.83 900.38,902.63 902.45,902.38 904.52,902.25 906.59,902.29 908.66,902.42 910.72,902.96 912.79,903.38 914.86,903.60 916.93,903.22 919.00,902.96 921.06,902.79 923.13,902.64 925.20,902.67 927.27,902.64 929.34,902.73 931.40,903.13 933.47,903.30 935.54,903.27 937.61,902.99 939.68,902.93 941.74,902.97 943.81,903.02 945.88,903.04 947.95,902.78 950.02,902.71 952.08,902.71 954.15,902.58 956.22,902.70 958.29,903.11 960.36,903.39 962.42,903.46 964.49,903.44 966.56,903.29 968.63,902.73 970.70,902.17 972.76,902.24 974.83,902.56 976.90,902.80 978.97,902.69 981.04,902.78 983.10,903.15 985.17,903.26 987.24,903.22 989.31,903.09 991.38,902.86 993.44,902.86 995.51,902.67 997.58,902.73 999.65,902.92 1001.72,903.11 1003.78,903.22 1005.85,903.25 1007.92,903.25 1009.99,903.22 1012.06,902.83 1014.12,902.57 1016.19,902.45 1018.26,902.54 1020.33,902.48 1022.40,902.54 1024.46,902.81 1026.53,902.75 1028.60,902.90 1030.67,903.07 1032.74,903.05 1034.80,903.27 1036.87,903.64 1038.94,903.32 1041.01,902.88 1043.08,902.77 1045.14,902.69 1047.21,902.71 1049.28,902.90 1051.35,903.02 1053.42,903.11 1055.48,903.19 1057.55,903.11 1059.62,903.00 1061.69,902.72 1063.76,902.53 1065.82,902.43 1067.89,902.22 1069.96,902.06 1072.03,902.27 1074.10,903.09 1076.16,904.03 1078.23,904.59 1080.30,904.18 1082.37,903.34 1084.44,902.87 1086.50,902.70 1088.57,902.34 1090.64,902.18 1092.71,902.18 1094.78,902.20 1096.84,902.49 1098.91,903.16 1100.98,903.66 1103.05,903.49 1105.12,902.86 1107.18,902.65 1109.25,902.84 1111.32,903.07 1113.39,902.87 1115.46,902.53 1117.52,902.69 1119.59,903.19 1121.66,903.57 1123.73,903.57 1125.80,903.39 1127.86,903.02 1129.93,902.57 1131.48,902.41" fill="none" stroke="#2458d3" stroke-width="1.8" stroke-linejoin="round" stroke-linecap="round" />
<line x1="56.0" y1="1052.0" x2="80.0" y2="1052.0" stroke="#2458d3" stroke-width="2.0" />
<text x="86.0" y="1056.0" fill="#1f2430" font-size="12" font-family="Segoe UI, Arial, sans-serif" font-weight="400" text-anchor="start">V_next / V_k</text>
<line x1="208.0" y1="1052.0" x2="232.0" y2="1052.0" stroke="#b35c00" stroke-width="2.0" />
<text x="238.0" y="1056.0" fill="#1f2430" font-size="12" font-family="Segoe UI, Arial, sans-serif" font-weight="400" text-anchor="start">rho</text>
<circle cx="308.00" cy="1052.00" r="2.40" fill="#bf1e2d" stroke="none" stroke-width="0.0" />
<text x="320.0" y="1056.0" fill="#1f2430" font-size="12" font-family="Segoe UI, Arial, sans-serif" font-weight="400" text-anchor="start">violations</text>
</svg>