<svg xmlns="http://www.w3.org/2000/svg" width="1200" height="1120" viewBox="0 0 1200 1120" role="img">
<rect x="0.0" y="0.0" width="1200.0" height="1120.0" fill="#ffffff" stroke="none" stroke-width="1.0" rx="0.0" />
<text x="40.0" y="34.0" fill="#1f2430" font-size="22" font-family="Segoe UI, Arial, sans-serif" font-weight="600" text-anchor="start">Bounded hard + input anchor: Lyapunov contraction ratio across rho</text>
<text x="40.0" y="56.0" fill="#5d6574" font-size="13" font-family="Segoe UI, Arial, sans-serif" font-weight="400" text-anchor="start">Each panel plots V_next_first / V_k against the run-specific rho line. Red markers indicate first-step contraction violations.</text>
<rect x="40.0" y="80.0" width="1120.0" height="235.0" fill="#fbfbfd" stroke="#d7dbe5" stroke-width="1.0" rx="8.0" />
<text x="56.0" y="104.0" fill="#1f2430" font-size="16" font-family="Segoe UI, Arial, sans-serif" font-weight="600" text-anchor="start">Run 20260501_001425</text>
<text x="56.0" y="122.0" fill="#5d6574" font-size="12" font-family="Segoe UI, Arial, sans-serif" font-weight="400" text-anchor="start">rho=0.95 | solver=95.85% | hard=95.80% | bounded-LS=1986 | y-max=1.02 | clipped=0</text>
<line x1="98.0" y1="289.0" x2="1132.0" y2="289.0" stroke="#d7dbe5" stroke-width="1.0" stroke-dasharray="4 4" />
<text x="88.0" y="293.0" fill="#5d6574" font-size="11" font-family="Segoe UI, Arial, sans-serif" font-weight="400" text-anchor="end">0.00</text>
<line x1="98.0" y1="213.5" x2="1132.0" y2="213.5" stroke="#d7dbe5" stroke-width="1.0" stroke-dasharray="4 4" />
<text x="88.0" y="217.5" fill="#5d6574" font-size="11" font-family="Segoe UI, Arial, sans-serif" font-weight="400" text-anchor="end">0.51</text>
<line x1="98.0" y1="138.0" x2="1132.0" y2="138.0" stroke="#d7dbe5" stroke-width="1.0" stroke-dasharray="4 4" />
<text x="88.0" y="142.0" fill="#5d6574" font-size="11" font-family="Segoe UI, Arial, sans-serif" font-weight="400" text-anchor="end">1.02</text>
<line x1="98.0" y1="138.0" x2="98.0" y2="289.0" stroke="#d7dbe5" stroke-width="1.0" stroke-dasharray="4 4" />
<text x="98.0" y="307.0" fill="#5d6574" font-size="11" font-family="Segoe UI, Arial, sans-serif" font-weight="400" text-anchor="middle">0</text>
<line x1="356.5" y1="138.0" x2="356.5" y2="289.0" stroke="#d7dbe5" stroke-width="1.0" stroke-dasharray="4 4" />
<text x="356.5" y="307.0" fill="#5d6574" font-size="11" font-family="Segoe UI, Arial, sans-serif" font-weight="400" text-anchor="middle">500</text>
<line x1="615.0" y1="138.0" x2="615.0" y2="289.0" stroke="#d7dbe5" stroke-width="1.0" stroke-dasharray="4 4" />
<text x="615.0" y="307.0" fill="#5d6574" font-size="11" font-family="Segoe UI, Arial, sans-serif" font-weight="400" text-anchor="middle">1000</text>
<line x1="873.5" y1="138.0" x2="873.5" y2="289.0" stroke="#d7dbe5" stroke-width="1.0" stroke-dasharray="4 4" />
<text x="873.5" y="307.0" fill="#5d6574" font-size="11" font-family="Segoe UI, Arial, sans-serif" font-weight="400" text-anchor="middle">1500</text>
<line x1="1132.0" y1="138.0" x2="1132.0" y2="289.0" stroke="#d7dbe5" stroke-width="1.0" stroke-dasharray="4 4" />
<text x="1132.0" y="307.0" fill="#5d6574" font-size="11" font-family="Segoe UI, Arial, sans-serif" font-weight="400" text-anchor="middle">2000</text>
<line x1="98.0" y1="138.0" x2="98.0" y2="289.0" stroke="#2d3440" stroke-width="1.2" />
<line x1="98.0" y1="289.0" x2="1132.0" y2="289.0" stroke="#2d3440" stroke-width="1.2" />
<polyline points="98.00,148.36 100.07,148.36 102.14,148.36 104.20,148.36 106.27,148.36 108.34,148.36 110.41,148.36 112.48,148.36 114.54,148.36 116.61,148.36 118.68,148.36 120.75,148.36 122.82,148.36 124.88,148.36 126.95,148.36 129.02,148.36 131.09,148.36 133.16,148.36 135.22,148.36 137.29,148.36 139.36,148.36 141.43,148.36 143.50,148.36 145.56,148.36 147.63,148.36 149.70,148.36 151.77,148.36 153.84,148.36 155.90,148.36 157.97,148.36 160.04,148.36 162.11,148.36 164.18,148.36 166.24,148.36 168.31,148.36 170.38,148.36 172.45,148.36 174.52,148.36 176.58,148.36 178.65,148.36 180.72,148.36 182.79,148.36 184.86,148.36 186.92,148.36 188.99,148.36 191.06,148.36 193.13,148.36 195.20,148.36 197.26,148.36 199.33,148.36 201.40,148.36 203.47,148.36 205.54,148.36 207.60,148.36 209.67,148.36 211.74,148.36 213.81,148.36 215.88,148.36 217.94,148.36 220.01,148.36 222.08,148.36 224.15,148.36 226.22,148.36 228.28,148.36 230.35,148.36 232.42,148.36 234.49,148.36 236.56,148.36 238.62,148.36 240.69,148.36 242.76,148.36 244.83,148.36 246.90,148.36 248.96,148.36 251.03,148.36 253.10,148.36 255.17,148.36 257.24,148.36 259.30,148.36 261.37,148.36 263.44,148.36 265.51,148.36 267.58,148.36 269.64,148.36 271.71,148.36 273.78,148.36 275.85,148.36 277.92,148.36 279.98,148.36 282.05,148.36 284.12,148.36 286.19,148.36 288.26,148.36 290.32,148.36 292.39,148.36 294.46,148.36 296.53,148.36 298.60,148.36 300.66,148.36 302.73,148.36 304.80,148.36 306.87,148.36 308.94,148.36 311.00,148.36 313.07,148.36 315.14,148.36 317.21,148.36 319.28,148.36 321.34,148.36 323.41,148.36 325.48,148.36 327.55,148.36 329.62,148.36 331.68,148.36 333.75,148.36 335.82,148.36 337.89,148.36 339.96,148.36 342.02,148.36 344.09,148.36 346.16,148.36 348.23,148.36 350.30,148.36 352.36,148.36 354.43,148.36 356.50,148.36 358.57,148.36 360.64,148.36 362.70,148.36 364.77,148.36 366.84,148.36 368.91,148.36 370.98,148.36 373.04,148.36 375.11,148.36 377.18,148.36 379.25,148.36 381.32,148.36 383.38,148.36 385.45,148.36 387.52,148.36 389.59,148.36 391.66,148.36 393.72,148.36 395.79,148.36 397.86,148.36 399.93,148.36 402.00,148.36 404.06,148.36 406.13,148.36 408.20,148.36 410.27,148.36 412.34,148.36 414.40,148.36 416.47,148.36 418.54,148.36 420.61,148.36 422.68,148.36 424.74,148.36 426.81,148.36 428.88,148.36 430.95,148.36 433.02,148.36 435.08,148.36 437.15,148.36 439.22,148.36 441.29,148.36 443.36,148.36 445.42,148.36 447.49,148.36 449.56,148.36 451.63,148.36 453.70,148.36 455.76,148.36 457.83,148.36 459.90,148.36 461.97,148.36 464.04,148.36 466.10,148.36 468.17,148.36 470.24,148.36 472.31,148.36 474.38,148.36 476.44,148.36 478.51,148.36 480.58,148.36 482.65,148.36 484.72,148.36 486.78,148.36 488.85,148.36 490.92,148.36 492.99,148.36 495.06,148.36 497.12,148.36 499.19,148.36 501.26,148.36 503.33,148.36 505.40,148.36 507.46,148.36 509.53,148.36 511.60,148.36 513.67,148.36 515.74,148.36 517.80,148.36 519.87,148.36 521.94,148.36 524.01,148.36 526.08,148.36 528.14,148.36 530.21,148.36 532.28,148.36 534.35,148.36 536.42,148.36 538.48,148.36 540.55,148.36 542.62,148.36 544.69,148.36 546.76,148.36 548.82,148.36 550.89,148.36 552.96,148.36 555.03,148.36 557.10,148.36 559.16,148.36 561.23,148.36 563.30,148.36 565.37,148.36 567.44,148.36 569.50,148.36 571.57,148.36 573.64,148.36 575.71,148.36 577.78,148.36 579.84,148.36 581.91,148.36 583.98,148.36 586.05,148.36 588.12,148.36 590.18,148.36 592.25,148.36 594.32,148.36 596.39,148.36 598.46,148.36 600.52,148.36 602.59,148.36 604.66,148.36 606.73,148.36 608.80,148.36 610.86,148.36 612.93,148.36 615.00,148.36 617.07,148.36 619.14,148.36 621.20,148.36 623.27,148.36 625.34,148.36 627.41,148.36 629.48,148.36 631.54,148.36 633.61,148.36 635.68,148.36 637.75,148.36 639.82,148.36 641.88,148.36 643.95,148.36 646.02,148.36 648.09,148.36 650.16,148.36 652.22,148.36 654.29,148.36 656.36,148.36 658.43,148.36 660.50,148.36 662.56,148.36 664.63,148.36 666.70,148.36 668.77,148.36 670.84,148.36 672.90,148.36 674.97,148.36 677.04,148.36 679.11,148.36 681.18,148.36 683.24,148.36 685.31,148.36 687.38,148.36 689.45,148.36 691.52,148.36 693.58,148.36 695.65,148.36 697.72,148.36 699.79,148.36 701.86,148.36 703.92,148.36 705.99,148.36 708.06,148.36 710.13,148.36 712.20,148.36 714.26,148.36 716.33,148.36 718.40,148.36 720.47,148.36 722.54,148.36 724.60,148.36 726.67,148.36 728.74,148.36 730.81,148.36 732.88,148.36 734.94,148.36 737.01,148.36 739.08,148.36 741.15,148.36 743.22,148.36 745.28,148.36 747.35,148.36 749.42,148.36 751.49,148.36 753.56,148.36 755.62,148.36 757.69,148.36 759.76,148.36 761.83,148.36 763.90,148.36 765.96,148.36 768.03,148.36 770.10,148.36 772.17,148.36 774.24,148.36 776.30,148.36 778.37,148.36 780.44,148.36 782.51,148.36 784.58,148.36 786.64,148.36 788.71,148.36 790.78,148.36 792.85,148.36 794.92,148.36 796.98,148.36 799.05,148.36 801.12,148.36 803.19,148.36 805.26,148.36 807.32,148.36 809.39,148.36 811.46,148.36 813.53,148.36 815.60,148.36 817.66,148.36 819.73,148.36 821.80,148.36 823.87,148.36 825.94,148.36 828.00,148.36 830.07,148.36 832.14,148.36 834.21,148.36 836.28,148.36 838.34,148.36 840.41,148.36 842.48,148.36 844.55,148.36 846.62,148.36 848.68,148.36 850.75,148.36 852.82,148.36 854.89,148.36 856.96,148.36 859.02,148.36 861.09,148.36 863.16,148.36 865.23,148.36 867.30,148.36 869.36,148.36 871.43,148.36 873.50,148.36 875.57,148.36 877.64,148.36 879.70,148.36 881.77,148.36 883.84,148.36 885.91,148.36 887.98,148.36 890.04,148.36 892.11,148.36 894.18,148.36 896.25,148.36 898.32,148.36 900.38,148.36 902.45,148.36 904.52,148.36 906.59,148.36 908.66,148.36 910.72,148.36 912.79,148.36 914.86,148.36 916.93,148.36 919.00,148.36 921.06,148.36 923.13,148.36 925.20,148.36 927.27,148.36 929.34,148.36 931.40,148.36 933.47,148.36 935.54,148.36 937.61,148.36 939.68,148.36 941.74,148.36 943.81,148.36 945.88,148.36 947.95,148.36 950.02,148.36 952.08,148.36 954.15,148.36 956.22,148.36 958.29,148.36 960.36,148.36 962.42,148.36 964.49,148.36 966.56,148.36 968.63,148.36 970.70,148.36 972.76,148.36 974.83,148.36 976.90,148.36 978.97,148.36 981.04,148.36 983.10,148.36 985.17,148.36 987.24,148.36 989.31,148.36 991.38,148.36 993.44,148.36 995.51,148.36 997.58,148.36 999.65,148.36 1001.72,148.36 1003.78,148.36 1005.85,148.36 1007.92,148.36 1009.99,148.36 1012.06,148.36 1014.12,148.36 1016.19,148.36 1018.26,148.36 1020.33,148.36 1022.40,148.36 1024.46,148.36 1026.53,148.36 1028.60,148.36 1030.67,148.36 1032.74,148.36 1034.80,148.36 1036.87,148.36 1038.94,148.36 1041.01,148.36 1043.08,148.36 1045.14,148.36 1047.21,148.36 1049.28,148.36 1051.35,148.36 1053.42,148.36 1055.48,148.36 1057.55,148.36 1059.62,148.36 1061.69,148.36 1063.76,148.36 1065.82,148.36 1067.89,148.36 1069.96,148.36 1072.03,148.36 1074.10,148.36 1076.16,148.36 1078.23,148.36 1080.30,148.36 1082.37,148.36 1084.44,148.36 1086.50,148.36 1088.57,148.36 1090.64,148.36 1092.71,148.36 1094.78,148.36 1096.84,148.36 1098.91,148.36 1100.98,148.36 1103.05,148.36 1105.12,148.36 1107.18,148.36 1109.25,148.36 1111.32,148.36 1113.39,148.36 1115.46,148.36 1117.52,148.36 1119.59,148.36 1121.66,148.36 1123.73,148.36 1125.80,148.36 1127.86,148.36 1129.93,148.36 1131.48,148.36" fill="none" stroke="#b35c00" stroke-width="1.8" stroke-linejoin="round" stroke-linecap="round" />
<polyline points="98.00,163.74 100.07,157.13 102.14,157.33 104.20,156.66 106.27,154.64 108.34,151.77 110.41,149.09 112.48,149.25 114.54,154.02 116.61,154.81 118.68,156.55 120.75,162.65 122.82,198.63 124.88,170.93 126.95,155.81 129.02,154.39 131.09,154.80 133.16,156.19 135.22,158.78 137.29,162.21 139.36,162.25 141.43,154.59 143.50,148.36 145.56,154.51 147.63,157.25 149.70,157.76 151.77,156.67 153.84,148.36 155.90,156.90 157.97,157.34 166.24,152.33 168.31,158.76 170.38,160.52 172.45,158.65 174.52,154.16 176.58,150.25 178.65,149.04 180.72,150.41 182.79,153.16 184.86,156.04 186.92,158.18 188.99,159.20 191.06,159.08 193.13,157.92 195.20,155.75 197.26,152.73 199.33,149.72 201.40,148.36 203.47,157.03 205.54,160.35 207.60,161.23 209.67,156.41 211.74,156.91 213.81,188.12 215.88,154.68 217.94,155.39 220.01,156.82 222.08,157.83 224.15,158.23 226.22,157.89 228.28,156.38 230.35,152.35 232.42,148.36 234.49,156.34 236.56,156.75 238.62,157.59 240.69,160.05 242.76,161.67 246.90,162.50 248.96,168.47 251.03,148.36 253.10,157.12 257.24,157.13 259.30,152.29 261.37,151.90 263.44,159.08 265.51,158.87 271.71,148.78 273.78,159.69 275.85,165.16 277.92,160.24 286.19,148.59 288.26,158.14 290.32,161.25 292.39,158.74 294.46,152.72 296.53,150.21 298.60,159.72 300.66,164.67 302.73,161.43 304.80,158.17 306.87,155.87 308.94,154.52 311.00,154.46 313.07,156.65 315.14,162.99 317.21,177.25 319.28,191.20 321.34,159.04 323.41,148.36 325.48,157.26 327.55,157.97 329.62,155.23 331.68,150.93 333.75,167.46 335.82,163.80 337.89,157.74 339.96,152.48 342.02,148.67 344.09,153.34 346.16,154.70 348.23,153.79 350.30,154.77 352.36,165.83 354.43,178.72 356.50,165.27 358.57,156.99 360.64,153.18 362.70,151.78 364.77,152.38 366.84,155.20 368.91,160.88 370.98,170.70 373.04,183.41 375.11,174.69 377.18,154.59 379.25,149.29 381.32,149.06 383.38,149.73 385.45,150.36 387.52,150.75 389.59,150.90 391.66,150.86 393.72,150.68 395.79,150.43 397.86,150.17 399.93,149.94 402.00,149.77 404.06,149.66 406.13,149.61 408.20,149.60 410.27,149.63 412.34,149.67 414.40,149.71 416.47,149.76 418.54,149.79 420.61,149.82 422.68,149.84 424.74,149.85 426.81,149.86 428.88,149.86 430.95,149.87 433.02,149.87 435.08,149.88 437.15,149.88 439.22,149.89 441.29,149.90 443.36,149.91 445.42,149.92 447.49,149.93 449.56,157.02 451.63,157.14 453.70,156.23 455.76,156.14 457.83,192.74 459.90,169.64 461.97,148.36 464.04,156.06 466.10,154.40 468.17,150.92 470.24,150.76 472.31,158.89 474.38,167.79 476.44,168.11 478.51,162.94 480.58,156.08 482.65,149.87 484.72,151.98 486.78,155.68 488.85,154.76 490.92,154.26 492.99,164.69 495.06,177.02 497.12,163.73 499.19,155.90 501.26,151.70 503.33,149.95 505.40,150.37 507.46,152.74 509.53,156.86 511.60,162.82 513.67,171.48 515.74,183.26 517.80,182.31 519.87,161.47 521.94,153.29 524.01,151.78 526.08,151.72 528.14,151.82 530.21,151.81 532.28,151.64 534.35,151.35 536.42,150.99 538.48,150.62 540.55,150.30 542.62,150.04 544.69,149.85 546.76,149.74 548.82,149.69 550.89,149.68 552.96,149.68 555.03,149.71 557.10,149.73 559.16,156.98 561.23,157.01 563.30,156.50 565.37,157.72 567.44,174.41 569.50,171.38 571.57,149.72 573.64,148.36 575.71,151.04 577.78,151.22 579.84,151.51 581.91,153.97 583.98,160.27 586.05,171.53 588.12,188.46 590.18,205.12 592.25,169.28 594.32,148.36 596.39,157.34 598.46,157.05 600.52,149.89 604.66,155.76 606.73,162.53 608.80,161.34 615.00,148.36 617.07,157.69 619.14,159.69 621.20,157.90 631.54,148.47 633.61,158.61 635.68,161.13 637.75,156.44 639.82,153.96 641.88,157.80 643.95,179.02 646.02,164.37 648.09,157.40 650.16,156.24 652.22,156.15 654.29,156.68 656.36,158.26 658.43,161.27 660.50,160.42 662.56,148.65 664.63,156.59 666.70,157.41 668.77,157.12 670.84,152.94 674.97,156.18 677.04,160.24 679.11,159.99 681.18,156.47 683.24,151.70 685.31,148.82 687.38,148.83 689.45,150.81 691.52,153.48 693.58,155.94 695.65,157.67 697.72,158.48 699.79,158.35 701.86,157.26 703.92,155.25 705.99,152.64 708.06,150.25 710.13,148.73 712.20,148.38 714.26,154.20 716.33,157.29 718.40,155.66 720.47,150.30 722.54,148.36 724.60,158.39 726.67,160.85 728.74,148.36 730.81,156.02 732.88,156.80 734.94,158.75 737.01,171.11 739.08,149.65 741.15,154.92 743.22,156.25 745.28,156.43 747.35,157.63 749.42,158.76 751.49,157.87 753.56,152.47 761.83,148.36 763.90,157.05 765.96,165.73 768.03,161.01 772.17,150.66 774.24,149.10 776.30,150.03 778.37,151.90 780.44,153.83 782.51,155.53 784.58,156.96 786.64,158.15 788.71,159.15 790.78,159.99 792.85,160.66 794.92,160.98 796.98,160.63 799.05,159.53 801.12,158.55 803.19,158.27 805.26,158.46 807.32,158.68 809.39,158.57 811.46,157.89 813.53,156.67 815.60,155.19 817.66,153.80 819.73,152.69 821.80,151.90 823.87,151.36 825.94,151.00 828.00,150.76 830.07,150.58 832.14,150.46 834.21,150.35 836.28,150.27 838.34,150.19 840.41,150.12 842.48,150.06 844.55,150.01 846.62,149.96 848.68,149.93 850.75,149.89 852.82,149.87 854.89,149.85 856.96,149.83 859.02,149.81 861.09,149.80 863.16,149.79 865.23,149.78 867.30,149.77 869.36,149.77 871.43,149.76 873.50,149.76 875.57,149.75 877.64,149.75 879.70,149.75 881.77,149.75 883.84,149.75 885.91,149.75 887.98,149.75 890.04,149.75 892.11,149.75 894.18,149.75 896.25,149.76 898.32,149.76 900.38,149.76 902.45,149.77 904.52,149.77 906.59,149.77 908.66,149.78 910.72,149.78 912.79,149.79 914.86,149.79 916.93,149.80 919.00,149.80 921.06,149.81 923.13,149.81 925.20,149.82 927.27,157.08 929.34,157.15 931.40,156.53 933.47,156.66 935.54,167.31 937.61,215.21 939.68,153.71 941.74,149.59 943.81,148.69 945.88,148.87 947.95,150.02 950.02,152.20 952.08,155.44 954.15,159.80 956.22,165.58 958.29,173.44 960.36,181.38 962.42,174.48 964.49,159.81 966.56,154.31 968.63,152.96 970.70,152.62 972.76,152.41 974.83,152.13 976.90,151.73 978.97,151.26 981.04,150.78 983.10,150.36 985.17,150.02 987.24,149.79 989.31,149.66 991.38,149.60 993.44,149.61 995.51,149.64 997.58,149.68 999.65,149.73 1001.72,149.77 1003.78,149.80 1005.85,149.83 1007.92,149.84 1009.99,149.85 1012.06,149.85 1014.12,149.85 1016.19,149.86 1018.26,149.86 1020.33,149.87 1022.40,149.88 1024.46,149.89 1026.53,149.90 1028.60,149.91 1030.67,149.92 1032.74,149.94 1034.80,149.95 1036.87,149.96 1038.94,149.96 1041.01,149.97 1043.08,148.36 1045.14,157.10 1047.21,157.02 1049.28,155.89 1051.35,157.35 1053.42,202.98 1055.48,164.23 1057.55,154.53 1059.62,150.80 1061.69,148.87 1063.76,148.71 1065.82,150.23 1067.89,153.01 1069.96,156.59 1072.03,160.70 1074.10,165.49 1076.16,171.60 1078.23,178.77 1080.30,177.02 1082.37,163.73 1084.44,157.17 1086.50,155.21 1088.57,154.49 1090.64,153.99 1092.71,153.44 1094.78,152.79 1096.84,152.08 1098.91,151.40 1100.98,150.80 1103.05,150.35 1105.12,150.04 1107.18,149.85 1109.25,149.76 1111.32,149.73 1113.39,149.73 1115.46,149.75 1117.52,157.08 1119.59,157.06 1121.66,156.62 1123.73,157.08 1125.80,165.16 1127.86,195.62 1129.93,150.11 1131.48,148.36" fill="none" stroke="#2458d3" stroke-width="1.8" stroke-linejoin="round" stroke-linecap="round" />
<circle cx="244.31" cy="148.36" r="2.20" fill="#bf1e2d" stroke="none" stroke-width="0.0" />
<line x1="56.0" y1="293.0" x2="80.0" y2="293.0" stroke="#2458d3" stroke-width="2.0" />
<text x="86.0" y="297.0" fill="#1f2430" font-size="12" font-family="Segoe UI, Arial, sans-serif" font-weight="400" text-anchor="start">V_next / V_k</text>
<line x1="208.0" y1="293.0" x2="232.0" y2="293.0" stroke="#b35c00" stroke-width="2.0" />
<text x="238.0" y="297.0" fill="#1f2430" font-size="12" font-family="Segoe UI, Arial, sans-serif" font-weight="400" text-anchor="start">rho</text>
<circle cx="308.00" cy="293.00" r="2.40" fill="#bf1e2d" stroke="none" stroke-width="0.0" />
<text x="320.0" y="297.0" fill="#1f2430" font-size="12" font-family="Segoe UI, Arial, sans-serif" font-weight="400" text-anchor="start">violations</text>
<rect x="40.0" y="333.0" width="1120.0" height="235.0" fill="#fbfbfd" stroke="#d7dbe5" stroke-width="1.0" rx="8.0" />
<text x="56.0" y="357.0" fill="#1f2430" font-size="16" font-family="Segoe UI, Arial, sans-serif" font-weight="600" text-anchor="start">Run 20260501_003638</text>
<text x="56.0" y="375.0" fill="#5d6574" font-size="12" font-family="Segoe UI, Arial, sans-serif" font-weight="400" text-anchor="start">rho=0.98 | solver=100.00% | hard=100.00% | bounded-LS=311 | y-max=1.04 | clipped=23</text>
<line x1="98.0" y1="542.0" x2="1132.0" y2="542.0" stroke="#d7dbe5" stroke-width="1.0" stroke-dasharray="4 4" />
<text x="88.0" y="546.0" fill="#5d6574" font-size="11" font-family="Segoe UI, Arial, sans-serif" font-weight="400" text-anchor="end">0.00</text>
<line x1="98.0" y1="466.5" x2="1132.0" y2="466.5" stroke="#d7dbe5" stroke-width="1.0" stroke-dasharray="4 4" />
<text x="88.0" y="470.5" fill="#5d6574" font-size="11" font-family="Segoe UI, Arial, sans-serif" font-weight="400" text-anchor="end">0.52</text>
<line x1="98.0" y1="391.0" x2="1132.0" y2="391.0" stroke="#d7dbe5" stroke-width="1.0" stroke-dasharray="4 4" />
<text x="88.0" y="395.0" fill="#5d6574" font-size="11" font-family="Segoe UI, Arial, sans-serif" font-weight="400" text-anchor="end">1.04</text>
<line x1="98.0" y1="391.0" x2="98.0" y2="542.0" stroke="#d7dbe5" stroke-width="1.0" stroke-dasharray="4 4" />
<text x="98.0" y="560.0" fill="#5d6574" font-size="11" font-family="Segoe UI, Arial, sans-serif" font-weight="400" text-anchor="middle">0</text>
<line x1="356.5" y1="391.0" x2="356.5" y2="542.0" stroke="#d7dbe5" stroke-width="1.0" stroke-dasharray="4 4" />
<text x="356.5" y="560.0" fill="#5d6574" font-size="11" font-family="Segoe UI, Arial, sans-serif" font-weight="400" text-anchor="middle">500</text>
<line x1="615.0" y1="391.0" x2="615.0" y2="542.0" stroke="#d7dbe5" stroke-width="1.0" stroke-dasharray="4 4" />
<text x="615.0" y="560.0" fill="#5d6574" font-size="11" font-family="Segoe UI, Arial, sans-serif" font-weight="400" text-anchor="middle">1000</text>
<line x1="873.5" y1="391.0" x2="873.5" y2="542.0" stroke="#d7dbe5" stroke-width="1.0" stroke-dasharray="4 4" />
<text x="873.5" y="560.0" fill="#5d6574" font-size="11" font-family="Segoe UI, Arial, sans-serif" font-weight="400" text-anchor="middle">1500</text>
<line x1="1132.0" y1="391.0" x2="1132.0" y2="542.0" stroke="#d7dbe5" stroke-width="1.0" stroke-dasharray="4 4" />
<text x="1132.0" y="560.0" fill="#5d6574" font-size="11" font-family="Segoe UI, Arial, sans-serif" font-weight="400" text-anchor="middle">2000</text>
<line x1="98.0" y1="391.0" x2="98.0" y2="542.0" stroke="#2d3440" stroke-width="1.2" />
<line x1="98.0" y1="542.0" x2="1132.0" y2="542.0" stroke="#2d3440" stroke-width="1.2" />
<polyline points="98.00,399.43 100.07,399.43 102.14,399.43 104.20,399.43 106.27,399.43 108.34,399.43 110.41,399.43 112.48,399.43 114.54,399.43 116.61,399.43 118.68,399.43 120.75,399.43 122.82,399.43 124.88,399.43 126.95,399.43 129.02,399.43 131.09,399.43 133.16,399.43 135.22,399.43 137.29,399.43 139.36,399.43 141.43,399.43 143.50,399.43 145.56,399.43 147.63,399.43 149.70,399.43 151.77,399.43 153.84,399.43 155.90,399.43 157.97,399.43 160.04,399.43 162.11,399.43 164.18,399.43 166.24,399.43 168.31,399.43 170.38,399.43 172.45,399.43 174.52,399.43 176.58,399.43 178.65,399.43 180.72,399.43 182.79,399.43 184.86,399.43 186.92,399.43 188.99,399.43 191.06,399.43 193.13,399.43 195.20,399.43 197.26,399.43 199.33,399.43 201.40,399.43 203.47,399.43 205.54,399.43 207.60,399.43 209.67,399.43 211.74,399.43 213.81,399.43 215.88,399.43 217.94,399.43 220.01,399.43 222.08,399.43 224.15,399.43 226.22,399.43 228.28,399.43 230.35,399.43 232.42,399.43 234.49,399.43 236.56,399.43 238.62,399.43 240.69,399.43 242.76,399.43 244.83,399.43 246.90,399.43 248.96,399.43 251.03,399.43 253.10,399.43 255.17,399.43 257.24,399.43 259.30,399.43 261.37,399.43 263.44,399.43 265.51,399.43 267.58,399.43 269.64,399.43 271.71,399.43 273.78,399.43 275.85,399.43 277.92,399.43 279.98,399.43 282.05,399.43 284.12,399.43 286.19,399.43 288.26,399.43 290.32,399.43 292.39,399.43 294.46,399.43 296.53,399.43 298.60,399.43 300.66,399.43 302.73,399.43 304.80,399.43 306.87,399.43 308.94,399.43 311.00,399.43 313.07,399.43 315.14,399.43 317.21,399.43 319.28,399.43 321.34,399.43 323.41,399.43 325.48,399.43 327.55,399.43 329.62,399.43 331.68,399.43 333.75,399.43 335.82,399.43 337.89,399.43 339.96,399.43 342.02,399.43 344.09,399.43 346.16,399.43 348.23,399.43 350.30,399.43 352.36,399.43 354.43,399.43 356.50,399.43 358.57,399.43 360.64,399.43 362.70,399.43 364.77,399.43 366.84,399.43 368.91,399.43 370.98,399.43 373.04,399.43 375.11,399.43 377.18,399.43 379.25,399.43 381.32,399.43 383.38,399.43 385.45,399.43 387.52,399.43 389.59,399.43 391.66,399.43 393.72,399.43 395.79,399.43 397.86,399.43 399.93,399.43 402.00,399.43 404.06,399.43 406.13,399.43 408.20,399.43 410.27,399.43 412.34,399.43 414.40,399.43 416.47,399.43 418.54,399.43 420.61,399.43 422.68,399.43 424.74,399.43 426.81,399.43 428.88,399.43 430.95,399.43 433.02,399.43 435.08,399.43 437.15,399.43 439.22,399.43 441.29,399.43 443.36,399.43 445.42,399.43 447.49,399.43 449.56,399.43 451.63,399.43 453.70,399.43 455.76,399.43 457.83,399.43 459.90,399.43 461.97,399.43 464.04,399.43 466.10,399.43 468.17,399.43 470.24,399.43 472.31,399.43 474.38,399.43 476.44,399.43 478.51,399.43 480.58,399.43 482.65,399.43 484.72,399.43 486.78,399.43 488.85,399.43 490.92,399.43 492.99,399.43 495.06,399.43 497.12,399.43 499.19,399.43 501.26,399.43 503.33,399.43 505.40,399.43 507.46,399.43 509.53,399.43 511.60,399.43 513.67,399.43 515.74,399.43 517.80,399.43 519.87,399.43 521.94,399.43 524.01,399.43 526.08,399.43 528.14,399.43 530.21,399.43 532.28,399.43 534.35,399.43 536.42,399.43 538.48,399.43 540.55,399.43 542.62,399.43 544.69,399.43 546.76,399.43 548.82,399.43 550.89,399.43 552.96,399.43 555.03,399.43 557.10,399.43 559.16,399.43 561.23,399.43 563.30,399.43 565.37,399.43 567.44,399.43 569.50,399.43 571.57,399.43 573.64,399.43 575.71,399.43 577.78,399.43 579.84,399.43 581.91,399.43 583.98,399.43 586.05,399.43 588.12,399.43 590.18,399.43 592.25,399.43 594.32,399.43 596.39,399.43 598.46,399.43 600.52,399.43 602.59,399.43 604.66,399.43 606.73,399.43 608.80,399.43 610.86,399.43 612.93,399.43 615.00,399.43 617.07,399.43 619.14,399.43 621.20,399.43 623.27,399.43 625.34,399.43 627.41,399.43 629.48,399.43 631.54,399.43 633.61,399.43 635.68,399.43 637.75,399.43 639.82,399.43 641.88,399.43 643.95,399.43 646.02,399.43 648.09,399.43 650.16,399.43 652.22,399.43 654.29,399.43 656.36,399.43 658.43,399.43 660.50,399.43 662.56,399.43 664.63,399.43 666.70,399.43 668.77,399.43 670.84,399.43 672.90,399.43 674.97,399.43 677.04,399.43 679.11,399.43 681.18,399.43 683.24,399.43 685.31,399.43 687.38,399.43 689.45,399.43 691.52,399.43 693.58,399.43 695.65,399.43 697.72,399.43 699.79,399.43 701.86,399.43 703.92,399.43 705.99,399.43 708.06,399.43 710.13,399.43 712.20,399.43 714.26,399.43 716.33,399.43 718.40,399.43 720.47,399.43 722.54,399.43 724.60,399.43 726.67,399.43 728.74,399.43 730.81,399.43 732.88,399.43 734.94,399.43 737.01,399.43 739.08,399.43 741.15,399.43 743.22,399.43 745.28,399.43 747.35,399.43 749.42,399.43 751.49,399.43 753.56,399.43 755.62,399.43 757.69,399.43 759.76,399.43 761.83,399.43 763.90,399.43 765.96,399.43 768.03,399.43 770.10,399.43 772.17,399.43 774.24,399.43 776.30,399.43 778.37,399.43 780.44,399.43 782.51,399.43 784.58,399.43 786.64,399.43 788.71,399.43 790.78,399.43 792.85,399.43 794.92,399.43 796.98,399.43 799.05,399.43 801.12,399.43 803.19,399.43 805.26,399.43 807.32,399.43 809.39,399.43 811.46,399.43 813.53,399.43 815.60,399.43 817.66,399.43 819.73,399.43 821.80,399.43 823.87,399.43 825.94,399.43 828.00,399.43 830.07,399.43 832.14,399.43 834.21,399.43 836.28,399.43 838.34,399.43 840.41,399.43 842.48,399.43 844.55,399.43 846.62,399.43 848.68,399.43 850.75,399.43 852.82,399.43 854.89,399.43 856.96,399.43 859.02,399.43 861.09,399.43 863.16,399.43 865.23,399.43 867.30,399.43 869.36,399.43 871.43,399.43 873.50,399.43 875.57,399.43 877.64,399.43 879.70,399.43 881.77,399.43 883.84,399.43 885.91,399.43 887.98,399.43 890.04,399.43 892.11,399.43 894.18,399.43 896.25,399.43 898.32,399.43 900.38,399.43 902.45,399.43 904.52,399.43 906.59,399.43 908.66,399.43 910.72,399.43 912.79,399.43 914.86,399.43 916.93,399.43 919.00,399.43 921.06,399.43 923.13,399.43 925.20,399.43 927.27,399.43 929.34,399.43 931.40,399.43 933.47,399.43 935.54,399.43 937.61,399.43 939.68,399.43 941.74,399.43 943.81,399.43 945.88,399.43 947.95,399.43 950.02,399.43 952.08,399.43 954.15,399.43 956.22,399.43 958.29,399.43 960.36,399.43 962.42,399.43 964.49,399.43 966.56,399.43 968.63,399.43 970.70,399.43 972.76,399.43 974.83,399.43 976.90,399.43 978.97,399.43 981.04,399.43 983.10,399.43 985.17,399.43 987.24,399.43 989.31,399.43 991.38,399.43 993.44,399.43 995.51,399.43 997.58,399.43 999.65,399.43 1001.72,399.43 1003.78,399.43 1005.85,399.43 1007.92,399.43 1009.99,399.43 1012.06,399.43 1014.12,399.43 1016.19,399.43 1018.26,399.43 1020.33,399.43 1022.40,399.43 1024.46,399.43 1026.53,399.43 1028.60,399.43 1030.67,399.43 1032.74,399.43 1034.80,399.43 1036.87,399.43 1038.94,399.43 1041.01,399.43 1043.08,399.43 1045.14,399.43 1047.21,399.43 1049.28,399.43 1051.35,399.43 1053.42,399.43 1055.48,399.43 1057.55,399.43 1059.62,399.43 1061.69,399.43 1063.76,399.43 1065.82,399.43 1067.89,399.43 1069.96,399.43 1072.03,399.43 1074.10,399.43 1076.16,399.43 1078.23,399.43 1080.30,399.43 1082.37,399.43 1084.44,399.43 1086.50,399.43 1088.57,399.43 1090.64,399.43 1092.71,399.43 1094.78,399.43 1096.84,399.43 1098.91,399.43 1100.98,399.43 1103.05,399.43 1105.12,399.43 1107.18,399.43 1109.25,399.43 1111.32,399.43 1113.39,399.43 1115.46,399.43 1117.52,399.43 1119.59,399.43 1121.66,399.43 1123.73,399.43 1125.80,399.43 1127.86,399.43 1129.93,399.43 1131.48,399.43" fill="none" stroke="#b35c00" stroke-width="1.8" stroke-linejoin="round" stroke-linecap="round" />
<polyline points="98.00,418.90 100.07,412.41 102.14,412.61 104.20,411.95 106.27,409.96 108.34,407.14 110.41,404.51 112.48,403.07 114.54,403.24 116.61,404.62 118.68,406.26 120.75,407.44 122.82,407.94 124.88,407.83 126.95,407.29 129.02,406.49 131.09,405.62 133.16,404.87 135.22,404.35 137.29,404.12 139.36,404.11 141.43,404.26 143.50,404.50 145.56,404.76 147.63,405.00 149.70,405.21 151.77,405.36 153.84,405.46 155.90,405.52 157.97,405.54 160.04,405.54 162.11,405.52 164.18,405.51 166.24,405.50 168.31,405.50 170.38,405.50 172.45,405.52 174.52,405.54 176.58,405.56 178.65,405.59 180.72,405.61 182.79,405.63 184.86,405.65 186.92,405.66 188.99,405.68 191.06,405.68 193.13,405.69 195.20,405.69 197.26,405.70 199.33,405.70 201.40,405.71 203.47,405.71 205.54,405.72 207.60,405.72 209.67,405.73 211.74,405.73 213.81,412.49 215.88,413.73 217.94,413.57 220.01,412.71 222.08,413.11 224.15,411.20 226.22,422.57 228.28,411.33 230.35,401.72 232.42,400.61 234.49,401.34 236.56,402.30 238.62,403.08 240.69,403.52 242.76,403.53 244.83,403.12 246.90,402.41 248.96,401.61 251.03,400.88 253.10,400.32 255.17,399.91 257.24,399.63 259.30,399.44 261.37,399.75 263.44,400.01 265.51,400.07 267.58,400.38 269.64,400.71 271.71,400.86 273.78,400.76 275.85,400.41 277.92,399.92 279.98,399.43 282.05,401.79 284.12,399.87 286.19,399.66 288.26,432.56 290.32,399.43 292.39,412.41 294.46,412.48 296.53,407.02 298.60,404.59 300.66,416.32 302.73,420.48 304.80,416.68 306.87,412.87 308.94,409.88 311.00,407.59 313.07,406.28 315.14,406.50 317.21,408.58 319.28,412.01 321.34,415.79 323.41,419.09 325.48,421.62 327.55,423.39 329.62,407.94 331.68,404.34 333.75,403.32 335.82,403.09 337.89,402.47 339.96,401.64 342.02,401.05 344.09,400.79 346.16,400.76 348.23,400.81 350.30,400.84 352.36,400.77 354.43,400.59 356.50,400.32 358.57,400.00 360.64,399.68 362.70,399.43 364.77,400.58 366.84,400.02 368.91,399.75 370.98,400.49 373.04,401.59 375.11,402.62 377.18,403.24 379.25,403.22 381.32,402.72 383.38,402.38 385.45,402.55 387.52,402.94 389.59,403.13 391.66,402.88 393.72,402.22 395.79,401.40 397.86,400.66 399.93,400.16 402.00,399.92 404.06,399.89 406.13,400.00 408.20,400.20 410.27,400.43 412.34,400.66 414.40,400.88 416.47,401.07 418.54,401.21 420.61,401.30 422.68,401.35 424.74,401.38 426.81,401.38 428.88,401.38 430.95,401.42 433.02,401.43 435.08,401.46 437.15,401.53 439.22,401.65 441.29,401.81 443.36,401.93 445.42,402.05 447.49,402.21 449.56,402.55 451.63,402.86 453.70,403.07 455.76,402.99 457.83,403.11 459.90,403.79 461.97,404.28 464.04,404.71 466.10,405.43 468.17,405.73 470.24,405.17 472.31,405.64 474.38,407.78 476.44,411.13 478.51,414.77 480.58,417.43 482.65,419.50 484.72,421.40 486.78,423.47 488.85,424.78 490.92,425.06 492.99,424.07 495.06,421.84 497.12,419.11 499.19,416.70 501.26,414.91 503.33,413.67 505.40,412.84 507.46,412.25 509.53,411.80 511.60,411.44 513.67,411.14 515.74,410.90 517.80,410.71 519.87,410.58 521.94,410.50 524.01,410.53 526.08,410.79 528.14,411.43 530.21,412.61 532.28,414.56 534.35,417.65 536.42,422.66 538.48,431.46 540.55,447.37 542.62,404.79 544.69,391.00 546.76,391.00 548.82,391.00 550.89,391.00 552.96,391.00 555.03,391.57 557.10,393.50 559.16,395.16 561.23,396.73 563.30,398.36 565.37,400.13 567.44,402.21 569.50,404.86 571.57,408.22 573.64,412.25 575.71,416.53 577.78,420.40 579.84,422.65 581.91,421.99 583.98,418.53 586.05,414.22 588.12,410.79 590.18,408.76 592.25,407.80 594.32,407.50 596.39,407.68 598.46,408.13 600.52,408.63 602.59,408.95 604.66,408.77 606.73,407.63 608.80,405.52 610.86,403.25 612.93,401.70 615.00,400.93 617.07,399.93 619.14,398.58 621.20,397.38 623.27,396.78 625.34,396.55 627.41,396.00 629.48,395.24 631.54,395.15 633.61,395.55 635.68,396.41 637.75,397.20 639.82,397.44 641.88,397.65 643.95,397.77 646.02,397.33 648.09,396.88 650.16,396.52 652.22,396.52 654.29,396.72 656.36,396.82 658.43,397.11 660.50,397.63 662.56,397.51 664.63,397.37 666.70,397.24 668.77,396.76 670.84,396.05 672.90,395.84 674.97,395.68 677.04,395.73 679.11,396.37 681.18,397.12 683.24,397.89 685.31,397.94 687.38,397.50 689.45,396.51 691.52,396.09 693.58,395.93 695.65,395.93 697.72,396.28 699.79,396.27 701.86,395.78 703.92,395.71 705.99,396.05 708.06,396.47 710.13,396.91 712.20,397.44 714.26,397.46 716.33,396.89 718.40,396.31 720.47,396.30 722.54,396.55 724.60,396.50 726.67,396.33 728.74,396.30 730.81,396.24 732.88,396.22 734.94,395.85 737.01,396.37 739.08,396.97 741.15,397.39 743.22,397.38 745.28,396.94 747.35,396.32 749.42,395.50 751.49,395.41 753.56,395.43 755.62,396.08 757.69,396.94 759.76,397.45 761.83,397.64 763.90,397.50 765.96,397.13 768.03,396.57 770.10,395.98 772.17,395.97 774.24,396.07 776.30,395.89 778.37,395.88 780.44,396.51 782.51,396.96 784.58,397.25 786.64,397.14 788.71,397.08 790.78,396.75 792.85,396.17 794.92,395.75 796.98,395.57 799.05,395.89 801.12,396.44 803.19,396.85 805.26,396.97 807.32,396.84 809.39,396.55 811.46,396.52 813.53,396.71 815.60,396.79 817.66,396.60 819.73,396.32 821.80,396.14 823.87,395.92 825.94,396.15 828.00,396.61 830.07,396.81 832.14,397.14 834.21,397.32 836.28,397.05 838.34,396.59 840.41,396.17 842.48,395.79 844.55,395.87 846.62,396.22 848.68,396.71 850.75,396.77 852.82,396.60 854.89,396.04 856.96,396.17 859.02,396.63 861.09,397.10 863.16,397.15 865.23,396.83 867.30,396.29 869.36,395.97 871.43,395.86 873.50,395.95 875.57,396.37 877.64,396.92 879.70,397.35 881.77,397.51 883.84,397.34 885.91,396.94 887.98,396.19 890.04,395.98 892.11,396.13 894.18,396.48 896.25,396.51 898.32,396.68 900.38,396.64 902.45,396.42 904.52,396.28 906.59,396.27 908.66,396.28 910.72,396.54 912.79,396.79 914.86,396.93 916.93,396.79 919.00,396.54 921.06,396.42 923.13,396.32 925.20,396.06 927.27,396.15 929.34,396.38 931.40,396.45 933.47,396.96 935.54,397.11 937.61,397.11 939.68,396.82 941.74,396.41 943.81,396.16 945.88,396.15 947.95,396.21 950.02,396.46 952.08,396.66 954.15,396.57 956.22,396.53 958.29,396.54 960.36,396.29 962.42,396.38 964.49,396.48 966.56,396.60 968.63,396.71 970.70,396.45 972.76,396.41 974.83,396.43 976.90,396.45 978.97,396.31 981.04,396.33 983.10,396.84 985.17,396.76 987.24,396.69 989.31,396.52 991.38,396.33 993.44,396.50 995.51,396.69 997.58,396.60 999.65,396.47 1001.72,396.67 1003.78,396.56 1005.85,396.43 1007.92,396.59 1009.99,396.53 1012.06,396.57 1014.12,396.44 1016.19,396.28 1018.26,396.41 1020.33,396.70 1022.40,396.93 1024.46,396.68 1026.53,396.38 1028.60,396.26 1030.67,396.18 1032.74,396.16 1034.80,396.48 1036.87,396.65 1038.94,396.63 1041.01,396.71 1043.08,396.52 1045.14,396.51 1047.21,396.59 1049.28,396.62 1051.35,396.46 1053.42,396.45 1055.48,396.40 1057.55,396.40 1059.62,396.38 1061.69,396.58 1063.76,396.75 1065.82,396.62 1067.89,396.55 1069.96,396.64 1072.03,396.66 1074.10,396.57 1076.16,396.53 1078.23,396.45 1080.30,396.42 1082.37,396.65 1084.44,396.76 1086.50,396.74 1088.57,396.42 1090.64,396.33 1092.71,396.36 1094.78,396.26 1096.84,396.06 1098.91,396.06 1100.98,396.38 1103.05,396.92 1105.12,397.24 1107.18,397.29 1109.25,396.86 1111.32,396.26 1113.39,395.77 1115.46,395.65 1117.52,395.99 1119.59,396.39 1121.66,396.75 1123.73,396.89 1125.80,396.88 1127.86,396.55 1129.93,396.67 1131.48,396.84" fill="none" stroke="#2458d3" stroke-width="1.8" stroke-linejoin="round" stroke-linecap="round" />
<line x1="56.0" y1="546.0" x2="80.0" y2="546.0" stroke="#2458d3" stroke-width="2.0" />
<text x="86.0" y="550.0" fill="#1f2430" font-size="12" font-family="Segoe UI, Arial, sans-serif" font-weight="400" text-anchor="start">V_next / V_k</text>
<line x1="208.0" y1="546.0" x2="232.0" y2="546.0" stroke="#b35c00" stroke-width="2.0" />
<text x="238.0" y="550.0" fill="#1f2430" font-size="12" font-family="Segoe UI, Arial, sans-serif" font-weight="400" text-anchor="start">rho</text>
<circle cx="308.00" cy="546.00" r="2.40" fill="#bf1e2d" stroke="none" stroke-width="0.0" />
<text x="320.0" y="550.0" fill="#1f2430" font-size="12" font-family="Segoe UI, Arial, sans-serif" font-weight="400" text-anchor="start">violations</text>
<rect x="40.0" y="586.0" width="1120.0" height="235.0" fill="#fbfbfd" stroke="#d7dbe5" stroke-width="1.0" rx="8.0" />
<text x="56.0" y="610.0" fill="#1f2430" font-size="16" font-family="Segoe UI, Arial, sans-serif" font-weight="600" text-anchor="start">Run 20260501_002805</text>
<text x="56.0" y="628.0" fill="#5d6574" font-size="12" font-family="Segoe UI, Arial, sans-serif" font-weight="400" text-anchor="start">rho=0.985 | solver=98.60% | hard=98.60% | bounded-LS=1570 | y-max=1.02 | clipped=0</text>
<line x1="98.0" y1="795.0" x2="1132.0" y2="795.0" stroke="#d7dbe5" stroke-width="1.0" stroke-dasharray="4 4" />
<text x="88.0" y="799.0" fill="#5d6574" font-size="11" font-family="Segoe UI, Arial, sans-serif" font-weight="400" text-anchor="end">0.00</text>
<line x1="98.0" y1="719.5" x2="1132.0" y2="719.5" stroke="#d7dbe5" stroke-width="1.0" stroke-dasharray="4 4" />
<text x="88.0" y="723.5" fill="#5d6574" font-size="11" font-family="Segoe UI, Arial, sans-serif" font-weight="400" text-anchor="end">0.51</text>
<line x1="98.0" y1="644.0" x2="1132.0" y2="644.0" stroke="#d7dbe5" stroke-width="1.0" stroke-dasharray="4 4" />
<text x="88.0" y="648.0" fill="#5d6574" font-size="11" font-family="Segoe UI, Arial, sans-serif" font-weight="400" text-anchor="end">1.02</text>
<line x1="98.0" y1="644.0" x2="98.0" y2="795.0" stroke="#d7dbe5" stroke-width="1.0" stroke-dasharray="4 4" />
<text x="98.0" y="813.0" fill="#5d6574" font-size="11" font-family="Segoe UI, Arial, sans-serif" font-weight="400" text-anchor="middle">0</text>
<line x1="356.5" y1="644.0" x2="356.5" y2="795.0" stroke="#d7dbe5" stroke-width="1.0" stroke-dasharray="4 4" />
<text x="356.5" y="813.0" fill="#5d6574" font-size="11" font-family="Segoe UI, Arial, sans-serif" font-weight="400" text-anchor="middle">500</text>
<line x1="615.0" y1="644.0" x2="615.0" y2="795.0" stroke="#d7dbe5" stroke-width="1.0" stroke-dasharray="4 4" />
<text x="615.0" y="813.0" fill="#5d6574" font-size="11" font-family="Segoe UI, Arial, sans-serif" font-weight="400" text-anchor="middle">1000</text>
<line x1="873.5" y1="644.0" x2="873.5" y2="795.0" stroke="#d7dbe5" stroke-width="1.0" stroke-dasharray="4 4" />
<text x="873.5" y="813.0" fill="#5d6574" font-size="11" font-family="Segoe UI, Arial, sans-serif" font-weight="400" text-anchor="middle">1500</text>
<line x1="1132.0" y1="644.0" x2="1132.0" y2="795.0" stroke="#d7dbe5" stroke-width="1.0" stroke-dasharray="4 4" />
<text x="1132.0" y="813.0" fill="#5d6574" font-size="11" font-family="Segoe UI, Arial, sans-serif" font-weight="400" text-anchor="middle">2000</text>
<line x1="98.0" y1="644.0" x2="98.0" y2="795.0" stroke="#2d3440" stroke-width="1.2" />
<line x1="98.0" y1="795.0" x2="1132.0" y2="795.0" stroke="#2d3440" stroke-width="1.2" />
<polyline points="98.00,649.18 100.07,649.18 102.14,649.18 104.20,649.18 106.27,649.18 108.34,649.18 110.41,649.18 112.48,649.18 114.54,649.18 116.61,649.18 118.68,649.18 120.75,649.18 122.82,649.18 124.88,649.18 126.95,649.18 129.02,649.18 131.09,649.18 133.16,649.18 135.22,649.18 137.29,649.18 139.36,649.18 141.43,649.18 143.50,649.18 145.56,649.18 147.63,649.18 149.70,649.18 151.77,649.18 153.84,649.18 155.90,649.18 157.97,649.18 160.04,649.18 162.11,649.18 164.18,649.18 166.24,649.18 168.31,649.18 170.38,649.18 172.45,649.18 174.52,649.18 176.58,649.18 178.65,649.18 180.72,649.18 182.79,649.18 184.86,649.18 186.92,649.18 188.99,649.18 191.06,649.18 193.13,649.18 195.20,649.18 197.26,649.18 199.33,649.18 201.40,649.18 203.47,649.18 205.54,649.18 207.60,649.18 209.67,649.18 211.74,649.18 213.81,649.18 215.88,649.18 217.94,649.18 220.01,649.18 222.08,649.18 224.15,649.18 226.22,649.18 228.28,649.18 230.35,649.18 232.42,649.18 234.49,649.18 236.56,649.18 238.62,649.18 240.69,649.18 242.76,649.18 244.83,649.18 246.90,649.18 248.96,649.18 251.03,649.18 253.10,649.18 255.17,649.18 257.24,649.18 259.30,649.18 261.37,649.18 263.44,649.18 265.51,649.18 267.58,649.18 269.64,649.18 271.71,649.18 273.78,649.18 275.85,649.18 277.92,649.18 279.98,649.18 282.05,649.18 284.12,649.18 286.19,649.18 288.26,649.18 290.32,649.18 292.39,649.18 294.46,649.18 296.53,649.18 298.60,649.18 300.66,649.18 302.73,649.18 304.80,649.18 306.87,649.18 308.94,649.18 311.00,649.18 313.07,649.18 315.14,649.18 317.21,649.18 319.28,649.18 321.34,649.18 323.41,649.18 325.48,649.18 327.55,649.18 329.62,649.18 331.68,649.18 333.75,649.18 335.82,649.18 337.89,649.18 339.96,649.18 342.02,649.18 344.09,649.18 346.16,649.18 348.23,649.18 350.30,649.18 352.36,649.18 354.43,649.18 356.50,649.18 358.57,649.18 360.64,649.18 362.70,649.18 364.77,649.18 366.84,649.18 368.91,649.18 370.98,649.18 373.04,649.18 375.11,649.18 377.18,649.18 379.25,649.18 381.32,649.18 383.38,649.18 385.45,649.18 387.52,649.18 389.59,649.18 391.66,649.18 393.72,649.18 395.79,649.18 397.86,649.18 399.93,649.18 402.00,649.18 404.06,649.18 406.13,649.18 408.20,649.18 410.27,649.18 412.34,649.18 414.40,649.18 416.47,649.18 418.54,649.18 420.61,649.18 422.68,649.18 424.74,649.18 426.81,649.18 428.88,649.18 430.95,649.18 433.02,649.18 435.08,649.18 437.15,649.18 439.22,649.18 441.29,649.18 443.36,649.18 445.42,649.18 447.49,649.18 449.56,649.18 451.63,649.18 453.70,649.18 455.76,649.18 457.83,649.18 459.90,649.18 461.97,649.18 464.04,649.18 466.10,649.18 468.17,649.18 470.24,649.18 472.31,649.18 474.38,649.18 476.44,649.18 478.51,649.18 480.58,649.18 482.65,649.18 484.72,649.18 486.78,649.18 488.85,649.18 490.92,649.18 492.99,649.18 495.06,649.18 497.12,649.18 499.19,649.18 501.26,649.18 503.33,649.18 505.40,649.18 507.46,649.18 509.53,649.18 511.60,649.18 513.67,649.18 515.74,649.18 517.80,649.18 519.87,649.18 521.94,649.18 524.01,649.18 526.08,649.18 528.14,649.18 530.21,649.18 532.28,649.18 534.35,649.18 536.42,649.18 538.48,649.18 540.55,649.18 542.62,649.18 544.69,649.18 546.76,649.18 548.82,649.18 550.89,649.18 552.96,649.18 555.03,649.18 557.10,649.18 559.16,649.18 561.23,649.18 563.30,649.18 565.37,649.18 567.44,649.18 569.50,649.18 571.57,649.18 573.64,649.18 575.71,649.18 577.78,649.18 579.84,649.18 581.91,649.18 583.98,649.18 586.05,649.18 588.12,649.18 590.18,649.18 592.25,649.18 594.32,649.18 596.39,649.18 598.46,649.18 600.52,649.18 602.59,649.18 604.66,649.18 606.73,649.18 608.80,649.18 610.86,649.18 612.93,649.18 615.00,649.18 617.07,649.18 619.14,649.18 621.20,649.18 623.27,649.18 625.34,649.18 627.41,649.18 629.48,649.18 631.54,649.18 633.61,649.18 635.68,649.18 637.75,649.18 639.82,649.18 641.88,649.18 643.95,649.18 646.02,649.18 648.09,649.18 650.16,649.18 652.22,649.18 654.29,649.18 656.36,649.18 658.43,649.18 660.50,649.18 662.56,649.18 664.63,649.18 666.70,649.18 668.77,649.18 670.84,649.18 672.90,649.18 674.97,649.18 677.04,649.18 679.11,649.18 681.18,649.18 683.24,649.18 685.31,649.18 687.38,649.18 689.45,649.18 691.52,649.18 693.58,649.18 695.65,649.18 697.72,649.18 699.79,649.18 701.86,649.18 703.92,649.18 705.99,649.18 708.06,649.18 710.13,649.18 712.20,649.18 714.26,649.18 716.33,649.18 718.40,649.18 720.47,649.18 722.54,649.18 724.60,649.18 726.67,649.18 728.74,649.18 730.81,649.18 732.88,649.18 734.94,649.18 737.01,649.18 739.08,649.18 741.15,649.18 743.22,649.18 745.28,649.18 747.35,649.18 749.42,649.18 751.49,649.18 753.56,649.18 755.62,649.18 757.69,649.18 759.76,649.18 761.83,649.18 763.90,649.18 765.96,649.18 768.03,649.18 770.10,649.18 772.17,649.18 774.24,649.18 776.30,649.18 778.37,649.18 780.44,649.18 782.51,649.18 784.58,649.18 786.64,649.18 788.71,649.18 790.78,649.18 792.85,649.18 794.92,649.18 796.98,649.18 799.05,649.18 801.12,649.18 803.19,649.18 805.26,649.18 807.32,649.18 809.39,649.18 811.46,649.18 813.53,649.18 815.60,649.18 817.66,649.18 819.73,649.18 821.80,649.18 823.87,649.18 825.94,649.18 828.00,649.18 830.07,649.18 832.14,649.18 834.21,649.18 836.28,649.18 838.34,649.18 840.41,649.18 842.48,649.18 844.55,649.18 846.62,649.18 848.68,649.18 850.75,649.18 852.82,649.18 854.89,649.18 856.96,649.18 859.02,649.18 861.09,649.18 863.16,649.18 865.23,649.18 867.30,649.18 869.36,649.18 871.43,649.18 873.50,649.18 875.57,649.18 877.64,649.18 879.70,649.18 881.77,649.18 883.84,649.18 885.91,649.18 887.98,649.18 890.04,649.18 892.11,649.18 894.18,649.18 896.25,649.18 898.32,649.18 900.38,649.18 902.45,649.18 904.52,649.18 906.59,649.18 908.66,649.18 910.72,649.18 912.79,649.18 914.86,649.18 916.93,649.18 919.00,649.18 921.06,649.18 923.13,649.18 925.20,649.18 927.27,649.18 929.34,649.18 931.40,649.18 933.47,649.18 935.54,649.18 937.61,649.18 939.68,649.18 941.74,649.18 943.81,649.18 945.88,649.18 947.95,649.18 950.02,649.18 952.08,649.18 954.15,649.18 956.22,649.18 958.29,649.18 960.36,649.18 962.42,649.18 964.49,649.18 966.56,649.18 968.63,649.18 970.70,649.18 972.76,649.18 974.83,649.18 976.90,649.18 978.97,649.18 981.04,649.18 983.10,649.18 985.17,649.18 987.24,649.18 989.31,649.18 991.38,649.18 993.44,649.18 995.51,649.18 997.58,649.18 999.65,649.18 1001.72,649.18 1003.78,649.18 1005.85,649.18 1007.92,649.18 1009.99,649.18 1012.06,649.18 1014.12,649.18 1016.19,649.18 1018.26,649.18 1020.33,649.18 1022.40,649.18 1024.46,649.18 1026.53,649.18 1028.60,649.18 1030.67,649.18 1032.74,649.18 1034.80,649.18 1036.87,649.18 1038.94,649.18 1041.01,649.18 1043.08,649.18 1045.14,649.18 1047.21,649.18 1049.28,649.18 1051.35,649.18 1053.42,649.18 1055.48,649.18 1057.55,649.18 1059.62,649.18 1061.69,649.18 1063.76,649.18 1065.82,649.18 1067.89,649.18 1069.96,649.18 1072.03,649.18 1074.10,649.18 1076.16,649.18 1078.23,649.18 1080.30,649.18 1082.37,649.18 1084.44,649.18 1086.50,649.18 1088.57,649.18 1090.64,649.18 1092.71,649.18 1094.78,649.18 1096.84,649.18 1098.91,649.18 1100.98,649.18 1103.05,649.18 1105.12,649.18 1107.18,649.18 1109.25,649.18 1111.32,649.18 1113.39,649.18 1115.46,649.18 1117.52,649.18 1119.59,649.18 1121.66,649.18 1123.73,649.18 1125.80,649.18 1127.86,649.18 1129.93,649.18 1131.48,649.18" fill="none" stroke="#b35c00" stroke-width="1.8" stroke-linejoin="round" stroke-linecap="round" />
<polyline points="98.00,669.74 100.07,663.13 102.14,663.33 104.20,662.66 106.27,660.64 108.34,657.77 110.41,655.09 112.48,653.62 114.54,653.80 116.61,655.20 118.68,656.88 120.75,658.08 122.82,658.58 124.88,658.47 126.95,657.92 129.02,657.11 131.09,656.22 133.16,655.45 135.22,654.93 137.29,654.69 139.36,654.68 141.43,654.84 143.50,655.08 145.56,655.34 147.63,655.59 149.70,655.80 151.77,655.96 153.84,656.06 155.90,656.12 157.97,656.14 160.04,656.14 162.11,656.12 164.18,656.11 166.24,656.10 168.31,656.09 170.38,656.10 172.45,656.12 174.52,656.14 176.58,656.16 178.65,656.19 180.72,656.21 182.79,656.23 184.86,656.25 186.92,656.27 188.99,656.28 191.06,656.29 193.13,656.29 195.20,656.30 197.26,656.30 199.33,656.31 201.40,656.31 203.47,656.31 205.54,656.32 207.60,656.32 209.67,656.33 211.74,656.33 213.81,651.21 215.88,649.39 217.94,654.67 220.01,663.67 222.08,663.37 224.15,663.45 226.22,668.41 228.28,655.60 230.35,651.85 232.42,649.18 234.49,651.18 236.56,662.94 238.62,664.45 240.69,660.07 244.83,663.84 246.90,696.81 248.96,685.92 251.03,649.18 253.10,662.94 255.17,663.91 257.24,661.73 261.37,657.04 263.44,664.22 265.51,667.18 267.58,664.68 269.64,659.09 271.71,655.70 273.78,657.51 275.85,663.58 277.92,669.36 279.98,671.35 282.05,670.16 284.12,667.54 286.19,664.53 288.26,662.01 290.32,662.19 292.39,676.43 294.46,719.98 296.53,654.46 298.60,653.73 300.66,664.18 302.73,665.04 304.80,650.28 306.87,662.86 308.94,667.60 311.00,659.08 313.07,649.18 315.14,663.74 317.21,664.97 319.28,650.96 321.34,658.65 323.41,662.66 327.55,663.69 329.62,663.22 333.75,661.85 335.82,649.34 337.89,656.52 346.16,662.96 348.23,663.93 350.30,668.28 352.36,703.59 354.43,667.20 356.50,649.61 360.64,659.70 362.70,665.00 364.77,665.90 366.84,665.98 368.91,665.20 370.98,660.39 373.04,649.18 375.11,666.37 377.18,673.55 379.25,650.82 381.32,650.99 383.38,662.06 385.45,663.92 387.52,663.63 389.59,663.30 391.66,663.06 393.72,661.31 395.79,650.89 397.86,661.01 399.93,663.99 402.00,664.96 404.06,658.29 406.13,662.22 408.20,664.88 410.27,662.09 412.34,654.01 414.40,653.54 416.47,659.03 418.54,664.81 420.61,667.90 422.68,668.43 424.74,667.64 426.81,666.31 428.88,664.76 430.95,663.26 433.02,662.95 435.08,673.29 437.15,735.28 439.22,657.08 441.29,656.75 443.36,649.18 445.42,665.87 447.49,687.34 449.56,659.65 451.63,657.18 453.70,657.26 455.76,658.16 457.83,659.31 459.90,660.47 461.97,661.66 464.04,663.02 466.10,664.97 468.17,667.99 470.24,670.65 472.31,669.68 474.38,666.91 476.44,664.44 478.51,662.42 480.58,660.69 482.65,659.21 484.72,658.01 486.78,657.10 488.85,656.47 490.92,656.06 492.99,655.82 495.06,655.70 497.12,655.66 499.19,655.66 501.26,655.67 503.33,655.70 505.40,655.72 507.46,655.75 509.53,655.76 511.60,655.78 513.67,655.79 515.74,655.81 517.80,655.82 519.87,655.84 521.94,655.85 524.01,655.87 526.08,655.89 528.14,655.91 530.21,655.93 532.28,655.94 534.35,655.96 536.42,655.98 538.48,655.99 540.55,656.00 542.62,656.02 544.69,656.03 546.76,656.04 548.82,656.05 550.89,656.06 552.96,656.06 555.03,656.07 557.10,656.08 559.16,656.09 561.23,656.09 563.30,656.10 565.37,656.10 567.44,656.11 569.50,656.12 571.57,659.65 573.64,664.17 575.71,663.90 577.78,663.37 579.84,667.17 581.91,662.75 583.98,672.10 586.05,658.46 588.12,651.22 590.18,650.73 592.25,651.56 594.32,652.50 596.39,653.22 598.46,653.58 600.52,653.53 602.59,653.10 604.66,652.43 606.73,651.69 608.80,651.05 610.86,650.55 612.93,650.19 615.00,649.94 617.07,649.78 619.14,649.67 621.20,649.59 623.27,649.53 625.34,649.48 627.41,649.42 629.48,649.35 631.54,649.28 633.61,649.20 635.68,649.30 637.75,649.43 639.82,649.37 641.88,649.44 643.95,649.50 646.02,649.49 648.09,649.41 650.16,649.26 652.22,649.19 654.29,649.76 656.36,649.27 658.43,649.23 660.50,649.46 662.56,649.68 664.63,649.78 666.70,649.74 668.77,649.61 670.84,649.47 672.90,649.35 674.97,649.25 677.04,649.22 679.11,649.18 681.18,649.78 683.24,649.16 685.31,652.98 687.38,649.18 689.45,662.79 691.52,662.93 693.58,663.14 695.65,660.85 697.72,654.15 699.79,662.40 701.86,668.70 703.92,667.35 705.99,663.44 708.06,659.00 710.13,655.90 712.20,655.28 714.26,657.05 716.33,660.31 718.40,664.06 720.47,667.70 722.54,671.16 724.60,674.79 726.67,679.04 728.74,681.59 730.81,673.95 732.88,666.21 734.94,663.85 737.01,663.25 739.08,663.04 741.15,662.79 743.22,662.27 745.28,661.34 747.35,660.04 749.42,658.63 751.49,657.43 753.56,656.61 755.62,656.13 757.69,655.90 759.76,655.83 761.83,655.84 763.90,655.87 765.96,655.89 768.03,655.91 770.10,655.90 772.17,655.88 774.24,655.85 776.30,655.82 778.37,655.79 780.44,655.77 782.51,655.75 784.58,657.81 786.64,663.48 788.71,663.04 790.78,663.61 792.85,682.65 794.92,660.70 796.98,657.02 799.05,650.01 801.12,654.71 803.19,658.07 805.26,658.54 807.32,660.28 809.39,666.29 811.46,679.10 813.53,667.03 815.60,683.54 817.66,708.29 819.73,649.18 821.80,663.52 823.87,662.83 825.94,662.94 828.00,662.80 830.07,660.79 832.14,654.14 834.21,649.18 836.28,660.34 838.34,667.76 840.41,674.91 842.48,686.43 844.55,662.07 846.62,662.67 848.68,662.50 850.75,662.30 852.82,662.32 854.89,662.75 856.96,663.78 859.02,665.40 861.09,666.34 863.16,663.24 865.23,657.16 867.30,653.83 869.36,653.35 871.43,654.00 873.50,654.90 875.57,655.70 877.64,656.30 879.70,656.66 881.77,656.81 883.84,656.79 885.91,656.65 887.98,656.46 890.04,656.26 892.11,656.09 894.18,655.97 896.25,655.91 898.32,655.90 900.38,655.93 902.45,655.98 904.52,656.05 906.59,656.11 908.66,656.17 910.72,656.21 912.79,656.24 914.86,656.26 916.93,656.27 919.00,656.27 921.06,656.27 923.13,656.26 925.20,656.26 927.27,656.26 929.34,656.26 931.40,656.27 933.47,656.27 935.54,656.28 937.61,653.86 939.68,649.18 941.74,664.67 943.81,649.18 945.88,664.13 947.95,669.15 950.02,659.81 952.08,658.50 954.15,658.26 956.22,658.40 958.29,658.62 960.36,658.76 962.42,658.82 964.49,659.09 966.56,660.19 968.63,662.55 970.70,665.21 972.76,666.82 974.83,666.97 976.90,665.70 978.97,663.37 981.04,660.66 983.10,658.30 985.17,656.67 987.24,655.73 989.31,655.31 991.38,655.19 993.44,655.25 995.51,655.38 997.58,655.53 999.65,655.67 1001.72,655.79 1003.78,655.88 1005.85,655.95 1007.92,656.00 1009.99,656.04 1012.06,656.07 1014.12,656.10 1016.19,656.13 1018.26,656.16 1020.33,656.19 1022.40,656.23 1024.46,656.27 1026.53,656.30 1028.60,656.34 1030.67,656.37 1032.74,656.40 1034.80,656.42 1036.87,656.45 1038.94,656.47 1041.01,656.48 1043.08,656.50 1045.14,656.51 1047.21,656.53 1049.28,656.54 1051.35,656.55 1053.42,656.57 1055.48,656.58 1057.55,656.59 1059.62,656.60 1061.69,656.61 1063.76,656.62 1065.82,656.63 1067.89,652.42 1069.96,652.53 1072.03,652.65 1074.10,652.78 1076.16,652.91 1078.23,653.05 1080.30,653.19 1082.37,653.34 1084.44,653.51 1086.50,653.67 1088.57,653.85 1090.64,654.04 1092.71,654.24 1094.78,654.46 1096.84,654.68 1098.91,654.93 1100.98,655.18 1103.05,655.46 1105.12,655.75 1107.18,656.06 1109.25,656.39 1111.32,656.75 1113.39,657.13 1115.46,657.54 1117.52,657.98 1119.59,658.45 1121.66,658.95 1123.73,659.49 1125.80,660.06 1127.86,660.68 1129.93,661.33 1131.48,661.84" fill="none" stroke="#2458d3" stroke-width="1.8" stroke-linejoin="round" stroke-linecap="round" />
<line x1="56.0" y1="799.0" x2="80.0" y2="799.0" stroke="#2458d3" stroke-width="2.0" />
<text x="86.0" y="803.0" fill="#1f2430" font-size="12" font-family="Segoe UI, Arial, sans-serif" font-weight="400" text-anchor="start">V_next / V_k</text>
<line x1="208.0" y1="799.0" x2="232.0" y2="799.0" stroke="#b35c00" stroke-width="2.0" />
<text x="238.0" y="803.0" fill="#1f2430" font-size="12" font-family="Segoe UI, Arial, sans-serif" font-weight="400" text-anchor="start">rho</text>
<circle cx="308.00" cy="799.00" r="2.40" fill="#bf1e2d" stroke="none" stroke-width="0.0" />
<text x="320.0" y="803.0" fill="#1f2430" font-size="12" font-family="Segoe UI, Arial, sans-serif" font-weight="400" text-anchor="start">violations</text>
<rect x="40.0" y="839.0" width="1120.0" height="235.0" fill="#fbfbfd" stroke="#d7dbe5" stroke-width="1.0" rx="8.0" />
<text x="56.0" y="863.0" fill="#1f2430" font-size="16" font-family="Segoe UI, Arial, sans-serif" font-weight="600" text-anchor="start">Run 20260501_001948</text>
<text x="56.0" y="881.0" fill="#5d6574" font-size="12" font-family="Segoe UI, Arial, sans-serif" font-weight="400" text-anchor="start">rho=0.99 | solver=100.00% | hard=100.00% | bounded-LS=221 | y-max=1.04 | clipped=23</text>
<line x1="98.0" y1="1048.0" x2="1132.0" y2="1048.0" stroke="#d7dbe5" stroke-width="1.0" stroke-dasharray="4 4" />
<text x="88.0" y="1052.0" fill="#5d6574" font-size="11" font-family="Segoe UI, Arial, sans-serif" font-weight="400" text-anchor="end">0.00</text>
<line x1="98.0" y1="972.5" x2="1132.0" y2="972.5" stroke="#d7dbe5" stroke-width="1.0" stroke-dasharray="4 4" />
<text x="88.0" y="976.5" fill="#5d6574" font-size="11" font-family="Segoe UI, Arial, sans-serif" font-weight="400" text-anchor="end">0.52</text>
<line x1="98.0" y1="897.0" x2="1132.0" y2="897.0" stroke="#d7dbe5" stroke-width="1.0" stroke-dasharray="4 4" />
<text x="88.0" y="901.0" fill="#5d6574" font-size="11" font-family="Segoe UI, Arial, sans-serif" font-weight="400" text-anchor="end">1.04</text>
<line x1="98.0" y1="897.0" x2="98.0" y2="1048.0" stroke="#d7dbe5" stroke-width="1.0" stroke-dasharray="4 4" />
<text x="98.0" y="1066.0" fill="#5d6574" font-size="11" font-family="Segoe UI, Arial, sans-serif" font-weight="400" text-anchor="middle">0</text>
<line x1="356.5" y1="897.0" x2="356.5" y2="1048.0" stroke="#d7dbe5" stroke-width="1.0" stroke-dasharray="4 4" />
<text x="356.5" y="1066.0" fill="#5d6574" font-size="11" font-family="Segoe UI, Arial, sans-serif" font-weight="400" text-anchor="middle">500</text>
<line x1="615.0" y1="897.0" x2="615.0" y2="1048.0" stroke="#d7dbe5" stroke-width="1.0" stroke-dasharray="4 4" />
<text x="615.0" y="1066.0" fill="#5d6574" font-size="11" font-family="Segoe UI, Arial, sans-serif" font-weight="400" text-anchor="middle">1000</text>
<line x1="873.5" y1="897.0" x2="873.5" y2="1048.0" stroke="#d7dbe5" stroke-width="1.0" stroke-dasharray="4 4" />
<text x="873.5" y="1066.0" fill="#5d6574" font-size="11" font-family="Segoe UI, Arial, sans-serif" font-weight="400" text-anchor="middle">1500</text>
<line x1="1132.0" y1="897.0" x2="1132.0" y2="1048.0" stroke="#d7dbe5" stroke-width="1.0" stroke-dasharray="4 4" />
<text x="1132.0" y="1066.0" fill="#5d6574" font-size="11" font-family="Segoe UI, Arial, sans-serif" font-weight="400" text-anchor="middle">2000</text>
<line x1="98.0" y1="897.0" x2="98.0" y2="1048.0" stroke="#2d3440" stroke-width="1.2" />
<line x1="98.0" y1="1048.0" x2="1132.0" y2="1048.0" stroke="#2d3440" stroke-width="1.2" />
<polyline points="98.00,903.85 100.07,903.85 102.14,903.85 104.20,903.85 106.27,903.85 108.34,903.85 110.41,903.85 112.48,903.85 114.54,903.85 116.61,903.85 118.68,903.85 120.75,903.85 122.82,903.85 124.88,903.85 126.95,903.85 129.02,903.85 131.09,903.85 133.16,903.85 135.22,903.85 137.29,903.85 139.36,903.85 141.43,903.85 143.50,903.85 145.56,903.85 147.63,903.85 149.70,903.85 151.77,903.85 153.84,903.85 155.90,903.85 157.97,903.85 160.04,903.85 162.11,903.85 164.18,903.85 166.24,903.85 168.31,903.85 170.38,903.85 172.45,903.85 174.52,903.85 176.58,903.85 178.65,903.85 180.72,903.85 182.79,903.85 184.86,903.85 186.92,903.85 188.99,903.85 191.06,903.85 193.13,903.85 195.20,903.85 197.26,903.85 199.33,903.85 201.40,903.85 203.47,903.85 205.54,903.85 207.60,903.85 209.67,903.85 211.74,903.85 213.81,903.85 215.88,903.85 217.94,903.85 220.01,903.85 222.08,903.85 224.15,903.85 226.22,903.85 228.28,903.85 230.35,903.85 232.42,903.85 234.49,903.85 236.56,903.85 238.62,903.85 240.69,903.85 242.76,903.85 244.83,903.85 246.90,903.85 248.96,903.85 251.03,903.85 253.10,903.85 255.17,903.85 257.24,903.85 259.30,903.85 261.37,903.85 263.44,903.85 265.51,903.85 267.58,903.85 269.64,903.85 271.71,903.85 273.78,903.85 275.85,903.85 277.92,903.85 279.98,903.85 282.05,903.85 284.12,903.85 286.19,903.85 288.26,903.85 290.32,903.85 292.39,903.85 294.46,903.85 296.53,903.85 298.60,903.85 300.66,903.85 302.73,903.85 304.80,903.85 306.87,903.85 308.94,903.85 311.00,903.85 313.07,903.85 315.14,903.85 317.21,903.85 319.28,903.85 321.34,903.85 323.41,903.85 325.48,903.85 327.55,903.85 329.62,903.85 331.68,903.85 333.75,903.85 335.82,903.85 337.89,903.85 339.96,903.85 342.02,903.85 344.09,903.85 346.16,903.85 348.23,903.85 350.30,903.85 352.36,903.85 354.43,903.85 356.50,903.85 358.57,903.85 360.64,903.85 362.70,903.85 364.77,903.85 366.84,903.85 368.91,903.85 370.98,903.85 373.04,903.85 375.11,903.85 377.18,903.85 379.25,903.85 381.32,903.85 383.38,903.85 385.45,903.85 387.52,903.85 389.59,903.85 391.66,903.85 393.72,903.85 395.79,903.85 397.86,903.85 399.93,903.85 402.00,903.85 404.06,903.85 406.13,903.85 408.20,903.85 410.27,903.85 412.34,903.85 414.40,903.85 416.47,903.85 418.54,903.85 420.61,903.85 422.68,903.85 424.74,903.85 426.81,903.85 428.88,903.85 430.95,903.85 433.02,903.85 435.08,903.85 437.15,903.85 439.22,903.85 441.29,903.85 443.36,903.85 445.42,903.85 447.49,903.85 449.56,903.85 451.63,903.85 453.70,903.85 455.76,903.85 457.83,903.85 459.90,903.85 461.97,903.85 464.04,903.85 466.10,903.85 468.17,903.85 470.24,903.85 472.31,903.85 474.38,903.85 476.44,903.85 478.51,903.85 480.58,903.85 482.65,903.85 484.72,903.85 486.78,903.85 488.85,903.85 490.92,903.85 492.99,903.85 495.06,903.85 497.12,903.85 499.19,903.85 501.26,903.85 503.33,903.85 505.40,903.85 507.46,903.85 509.53,903.85 511.60,903.85 513.67,903.85 515.74,903.85 517.80,903.85 519.87,903.85 521.94,903.85 524.01,903.85 526.08,903.85 528.14,903.85 530.21,903.85 532.28,903.85 534.35,903.85 536.42,903.85 538.48,903.85 540.55,903.85 542.62,903.85 544.69,903.85 546.76,903.85 548.82,903.85 550.89,903.85 552.96,903.85 555.03,903.85 557.10,903.85 559.16,903.85 561.23,903.85 563.30,903.85 565.37,903.85 567.44,903.85 569.50,903.85 571.57,903.85 573.64,903.85 575.71,903.85 577.78,903.85 579.84,903.85 581.91,903.85 583.98,903.85 586.05,903.85 588.12,903.85 590.18,903.85 592.25,903.85 594.32,903.85 596.39,903.85 598.46,903.85 600.52,903.85 602.59,903.85 604.66,903.85 606.73,903.85 608.80,903.85 610.86,903.85 612.93,903.85 615.00,903.85 617.07,903.85 619.14,903.85 621.20,903.85 623.27,903.85 625.34,903.85 627.41,903.85 629.48,903.85 631.54,903.85 633.61,903.85 635.68,903.85 637.75,903.85 639.82,903.85 641.88,903.85 643.95,903.85 646.02,903.85 648.09,903.85 650.16,903.85 652.22,903.85 654.29,903.85 656.36,903.85 658.43,903.85 660.50,903.85 662.56,903.85 664.63,903.85 666.70,903.85 668.77,903.85 670.84,903.85 672.90,903.85 674.97,903.85 677.04,903.85 679.11,903.85 681.18,903.85 683.24,903.85 685.31,903.85 687.38,903.85 689.45,903.85 691.52,903.85 693.58,903.85 695.65,903.85 697.72,903.85 699.79,903.85 701.86,903.85 703.92,903.85 705.99,903.85 708.06,903.85 710.13,903.85 712.20,903.85 714.26,903.85 716.33,903.85 718.40,903.85 720.47,903.85 722.54,903.85 724.60,903.85 726.67,903.85 728.74,903.85 730.81,903.85 732.88,903.85 734.94,903.85 737.01,903.85 739.08,903.85 741.15,903.85 743.22,903.85 745.28,903.85 747.35,903.85 749.42,903.85 751.49,903.85 753.56,903.85 755.62,903.85 757.69,903.85 759.76,903.85 761.83,903.85 763.90,903.85 765.96,903.85 768.03,903.85 770.10,903.85 772.17,903.85 774.24,903.85 776.30,903.85 778.37,903.85 780.44,903.85 782.51,903.85 784.58,903.85 786.64,903.85 788.71,903.85 790.78,903.85 792.85,903.85 794.92,903.85 796.98,903.85 799.05,903.85 801.12,903.85 803.19,903.85 805.26,903.85 807.32,903.85 809.39,903.85 811.46,903.85 813.53,903.85 815.60,903.85 817.66,903.85 819.73,903.85 821.80,903.85 823.87,903.85 825.94,903.85 828.00,903.85 830.07,903.85 832.14,903.85 834.21,903.85 836.28,903.85 838.34,903.85 840.41,903.85 842.48,903.85 844.55,903.85 846.62,903.85 848.68,903.85 850.75,903.85 852.82,903.85 854.89,903.85 856.96,903.85 859.02,903.85 861.09,903.85 863.16,903.85 865.23,903.85 867.30,903.85 869.36,903.85 871.43,903.85 873.50,903.85 875.57,903.85 877.64,903.85 879.70,903.85 881.77,903.85 883.84,903.85 885.91,903.85 887.98,903.85 890.04,903.85 892.11,903.85 894.18,903.85 896.25,903.85 898.32,903.85 900.38,903.85 902.45,903.85 904.52,903.85 906.59,903.85 908.66,903.85 910.72,903.85 912.79,903.85 914.86,903.85 916.93,903.85 919.00,903.85 921.06,903.85 923.13,903.85 925.20,903.85 927.27,903.85 929.34,903.85 931.40,903.85 933.47,903.85 935.54,903.85 937.61,903.85 939.68,903.85 941.74,903.85 943.81,903.85 945.88,903.85 947.95,903.85 950.02,903.85 952.08,903.85 954.15,903.85 956.22,903.85 958.29,903.85 960.36,903.85 962.42,903.85 964.49,903.85 966.56,903.85 968.63,903.85 970.70,903.85 972.76,903.85 974.83,903.85 976.90,903.85 978.97,903.85 981.04,903.85 983.10,903.85 985.17,903.85 987.24,903.85 989.31,903.85 991.38,903.85 993.44,903.85 995.51,903.85 997.58,903.85 999.65,903.85 1001.72,903.85 1003.78,903.85 1005.85,903.85 1007.92,903.85 1009.99,903.85 1012.06,903.85 1014.12,903.85 1016.19,903.85 1018.26,903.85 1020.33,903.85 1022.40,903.85 1024.46,903.85 1026.53,903.85 1028.60,903.85 1030.67,903.85 1032.74,903.85 1034.80,903.85 1036.87,903.85 1038.94,903.85 1041.01,903.85 1043.08,903.85 1045.14,903.85 1047.21,903.85 1049.28,903.85 1051.35,903.85 1053.42,903.85 1055.48,903.85 1057.55,903.85 1059.62,903.85 1061.69,903.85 1063.76,903.85 1065.82,903.85 1067.89,903.85 1069.96,903.85 1072.03,903.85 1074.10,903.85 1076.16,903.85 1078.23,903.85 1080.30,903.85 1082.37,903.85 1084.44,903.85 1086.50,903.85 1088.57,903.85 1090.64,903.85 1092.71,903.85 1094.78,903.85 1096.84,903.85 1098.91,903.85 1100.98,903.85 1103.05,903.85 1105.12,903.85 1107.18,903.85 1109.25,903.85 1111.32,903.85 1113.39,903.85 1115.46,903.85 1117.52,903.85 1119.59,903.85 1121.66,903.85 1123.73,903.85 1125.80,903.85 1127.86,903.85 1129.93,903.85 1131.48,903.85" fill="none" stroke="#b35c00" stroke-width="1.8" stroke-linejoin="round" stroke-linecap="round" />
<polyline points="98.00,924.80 100.07,918.30 102.14,918.50 104.20,917.84 106.27,915.85 108.34,913.03 110.41,910.39 112.48,908.95 114.54,909.12 116.61,910.50 118.68,912.15 120.75,913.33 122.82,913.83 124.88,913.72 126.95,913.18 129.02,912.37 131.09,911.50 133.16,910.75 135.22,910.24 137.29,910.00 139.36,909.99 141.43,910.14 143.50,910.38 145.56,910.64 147.63,910.89 149.70,911.09 151.77,911.25 153.84,911.35 155.90,911.40 157.97,911.42 160.04,911.42 162.11,911.41 164.18,911.39 166.24,911.38 168.31,911.38 170.38,911.39 172.45,911.40 174.52,911.42 176.58,911.45 178.65,911.47 180.72,911.50 182.79,911.52 184.86,911.54 186.92,911.55 188.99,911.56 191.06,911.57 193.13,911.57 195.20,911.58 197.26,911.58 199.33,911.59 201.40,911.59 203.47,911.60 205.54,911.60 207.60,911.61 209.67,911.61 211.74,911.62 213.81,904.47 215.88,904.47 217.94,904.47 220.01,904.46 222.08,904.46 224.15,904.46 226.22,904.46 228.28,904.46 230.35,904.46 232.42,904.46 234.49,904.46 236.56,904.45 238.62,904.45 240.69,904.45 242.76,904.45 244.83,904.45 246.90,904.45 248.96,904.45 251.03,904.45 253.10,904.45 255.17,904.45 257.24,904.45 259.30,904.45 261.37,904.45 263.44,904.45 265.51,904.45 267.58,904.45 269.64,904.45 271.71,904.45 273.78,904.45 275.85,904.45 277.92,904.46 279.98,904.46 282.05,904.46 284.12,904.47 286.19,904.48 288.26,904.47 290.32,904.46 292.39,904.46 294.46,904.47 296.53,904.48 298.60,904.50 300.66,904.51 302.73,904.55 304.80,904.59 306.87,904.63 308.94,904.64 311.00,904.63 313.07,904.61 315.14,904.61 317.21,904.62 319.28,904.85 321.34,905.04 323.41,905.10 325.48,905.25 327.55,905.76 329.62,906.24 331.68,906.52 333.75,906.75 335.82,906.99 337.89,907.64 339.96,908.09 342.02,908.41 344.09,908.42 346.16,909.43 348.23,911.74 350.30,915.38 352.36,918.83 354.43,921.61 356.50,923.99 358.57,926.43 360.64,928.89 362.70,930.37 364.77,930.72 366.84,929.72 368.91,927.43 370.98,924.68 373.04,922.27 375.11,920.48 377.18,919.25 379.25,918.41 381.32,917.82 383.38,917.39 385.45,917.06 387.52,916.81 389.59,916.61 391.66,916.47 393.72,916.39 395.79,916.38 397.86,916.51 399.93,916.90 402.00,917.72 404.06,919.15 406.13,921.44 408.20,925.10 410.27,931.22 412.34,942.48 414.40,958.15 416.47,897.00 418.54,897.00 420.61,897.00 422.68,897.00 424.74,897.00 426.81,897.00 428.88,898.39 430.95,900.16 433.02,901.72 435.08,903.25 437.15,904.87 439.22,906.70 441.29,908.94 443.36,911.82 445.42,915.54 447.49,919.89 449.56,924.10 451.63,927.33 453.70,928.40 455.76,926.56 457.83,922.71 459.90,918.75 461.97,915.82 464.04,914.11 466.10,913.35 468.17,913.27 470.24,913.65 472.31,914.24 474.38,914.71 476.44,914.79 478.51,914.19 480.58,912.68 482.65,910.43 484.72,908.36 486.78,907.21 488.85,905.98 490.92,904.66 492.99,903.65 495.06,903.11 497.12,903.01 499.19,902.73 501.26,902.55 503.33,902.08 505.40,901.78 507.46,901.87 509.53,901.95 511.60,902.02 513.67,902.72 515.74,903.23 517.80,903.39 519.87,903.04 521.94,902.78 524.01,902.97 526.08,902.93 528.14,902.89 530.21,902.56 532.28,902.93 534.35,903.35 536.42,903.36 538.48,902.89 540.55,902.32 542.62,902.25 544.69,902.24 546.76,902.32 548.82,902.49 550.89,902.42 552.96,902.30 555.03,902.28 557.10,902.05 559.16,902.13 561.23,901.96 563.30,902.35 565.37,902.96 567.44,903.17 569.50,902.88 571.57,902.24 573.64,901.93 575.71,901.86 577.78,902.14 579.84,902.07 581.91,902.37 583.98,902.68 586.05,903.03 588.12,903.20 590.18,903.12 592.25,902.80 594.32,902.24 596.39,901.58 598.46,901.60 600.52,901.98 602.59,902.23 604.66,902.21 606.73,902.01 608.80,902.25 610.86,902.82 612.93,903.06 615.00,903.04 617.07,902.70 619.14,902.30 621.20,902.16 623.27,902.25 625.34,902.24 627.41,902.05 629.48,902.17 631.54,902.64 633.61,902.88 635.68,902.76 637.75,902.43 639.82,902.30 641.88,902.19 643.95,902.24 646.02,902.07 648.09,901.97 650.16,902.09 652.22,902.43 654.29,902.40 656.36,902.65 658.43,902.85 660.50,902.78 662.56,902.48 664.63,902.51 666.70,902.54 668.77,902.43 670.84,902.41 672.90,902.21 674.97,902.31 677.04,902.44 679.11,902.13 681.18,901.84 683.24,902.18 685.31,902.81 687.38,902.81 689.45,902.48 691.52,902.43 693.58,902.40 695.65,902.51 697.72,902.49 699.79,902.35 701.86,902.32 703.92,902.43 705.99,902.32 708.06,902.23 710.13,902.32 712.20,902.38 714.26,902.46 716.33,902.67 718.40,902.29 720.47,901.91 722.54,901.63 724.60,902.05 726.67,902.59 728.74,902.98 730.81,903.29 732.88,903.58 734.94,903.42 737.01,902.86 739.08,902.05 741.15,901.54 743.22,901.50 745.28,901.47 747.35,901.45 749.42,901.66 751.49,902.38 753.56,903.03 755.62,903.37 757.69,903.29 759.76,902.70 761.83,902.02 763.90,901.84 765.96,902.21 768.03,902.21 770.10,901.73 772.17,901.66 774.24,902.36 776.30,902.96 778.37,903.19 780.44,902.91 782.51,902.79 784.58,902.89 786.64,902.62 788.71,902.32 790.78,902.24 792.85,902.26 794.92,902.30 796.98,902.19 799.05,902.19 801.12,901.81 803.19,901.71 805.26,902.25 807.32,902.69 809.39,902.78 811.46,902.71 813.53,902.73 815.60,902.65 817.66,902.49 819.73,902.42 821.80,902.36 823.87,902.34 825.94,902.32 828.00,902.41 830.07,902.52 832.14,902.60 834.21,902.24 836.28,902.09 838.34,902.11 840.41,902.01 842.48,901.79 844.55,901.94 846.62,902.27 848.68,902.78 850.75,903.28 852.82,903.05 854.89,903.12 856.96,902.91 859.02,902.58 861.09,902.13 863.16,901.58 865.23,901.39 867.30,901.82 869.36,902.58 871.43,903.03 873.50,903.16 875.57,902.89 877.64,902.59 879.70,902.32 881.77,902.21 883.84,901.96 885.91,901.77 887.98,902.03 890.04,902.46 892.11,902.47 894.18,902.54 896.25,902.19 898.32,901.87 900.38,902.08 902.45,902.42 904.52,903.02 906.59,903.47 908.66,903.51 910.72,902.86 912.79,901.96 914.86,901.40 916.93,901.27 919.00,901.72 921.06,902.37 923.13,903.00 925.20,903.26 927.27,902.88 929.34,902.13 931.40,901.76 933.47,901.99 935.54,902.37 937.61,902.54 939.68,902.58 941.74,902.50 943.81,902.45 945.88,902.53 947.95,902.74 950.02,902.74 952.08,902.66 954.15,902.63 956.22,902.56 958.29,902.52 960.36,902.18 962.42,901.77 964.49,901.62 966.56,901.80 968.63,902.11 970.70,902.76 972.76,902.99 974.83,902.56 976.90,902.06 978.97,901.93 981.04,902.35 983.10,902.90 985.17,903.04 987.24,902.62 989.31,902.33 991.38,902.27 993.44,902.23 995.51,902.41 997.58,902.23 999.65,902.08 1001.72,902.22 1003.78,902.32 1005.85,902.24 1007.92,902.53 1009.99,902.81 1012.06,903.20 1014.12,903.12 1016.19,902.55 1018.26,902.20 1020.33,901.65 1022.40,901.72 1024.46,902.06 1026.53,902.61 1028.60,902.78 1030.67,902.95 1032.74,902.77 1034.80,902.33 1036.87,902.03 1038.94,901.96 1041.01,902.14 1043.08,902.41 1045.14,902.64 1047.21,902.27 1049.28,902.08 1051.35,902.29 1053.42,902.61 1055.48,902.80 1057.55,902.73 1059.62,902.61 1061.69,902.45 1063.76,902.14 1065.82,902.02 1067.89,902.07 1069.96,902.26 1072.03,902.30 1074.10,902.58 1076.16,902.18 1078.23,901.86 1080.30,902.51 1082.37,903.03 1084.44,902.94 1086.50,902.40 1088.57,902.50 1090.64,902.57 1092.71,902.34 1094.78,902.35 1096.84,902.57 1098.91,902.62 1100.98,902.57 1103.05,902.25 1105.12,902.13 1107.18,902.21 1109.25,902.31 1111.32,902.44 1113.39,902.38 1115.46,902.04 1117.52,902.16 1119.59,902.11 1121.66,902.02 1123.73,902.30 1125.80,902.95 1127.86,902.80 1129.93,902.58 1131.48,902.58" fill="none" stroke="#2458d3" stroke-width="1.8" stroke-linejoin="round" stroke-linecap="round" />
<line x1="56.0" y1="1052.0" x2="80.0" y2="1052.0" stroke="#2458d3" stroke-width="2.0" />
<text x="86.0" y="1056.0" fill="#1f2430" font-size="12" font-family="Segoe UI, Arial, sans-serif" font-weight="400" text-anchor="start">V_next / V_k</text>
<line x1="208.0" y1="1052.0" x2="232.0" y2="1052.0" stroke="#b35c00" stroke-width="2.0" />
<text x="238.0" y="1056.0" fill="#1f2430" font-size="12" font-family="Segoe UI, Arial, sans-serif" font-weight="400" text-anchor="start">rho</text>
<circle cx="308.00" cy="1052.00" r="2.40" fill="#bf1e2d" stroke="none" stroke-width="0.0" />
<text x="320.0" y="1056.0" fill="#1f2430" font-size="12" font-family="Segoe UI, Arial, sans-serif" font-weight="400" text-anchor="start">violations</text>
</svg>