<svg xmlns="http://www.w3.org/2000/svg" width="1280" height="760" viewBox="0 0 1280 760" role="img">
<rect x="0.0" y="0.0" width="1280.0" height="760.0" fill="#ffffff" stroke="none" stroke-width="1.0" rx="0.0" />
<text x="40.0" y="34.0" fill="#1f2430" font-size="22" font-family="Segoe UI, Arial, sans-serif" font-weight="600" text-anchor="start">Bounded hard + input anchor: output tracking and steady targets across rho</text>
<text x="40.0" y="56.0" fill="#5d6574" font-size="13" font-family="Segoe UI, Arial, sans-serif" font-weight="400" text-anchor="start">Solid lines are plant outputs y. Dashed lines are steady targets y_s. Black dashed line is the raw setpoint y_sp.</text>
<rect x="40.0" y="88.0" width="1200.0" height="250.0" fill="#fbfbfd" stroke="#d7dbe5" stroke-width="1.0" rx="8.0" />
<text x="56.0" y="112.0" fill="#1f2430" font-size="16" font-family="Segoe UI, Arial, sans-serif" font-weight="600" text-anchor="start">Output y[0]</text>
<text x="56.0" y="130.0" fill="#5d6574" font-size="12" font-family="Segoe UI, Arial, sans-serif" font-weight="400" text-anchor="start">Transient window 0-250 steps</text>
<line x1="98.0" y1="306.0" x2="1216.0" y2="306.0" stroke="#d7dbe5" stroke-width="1.0" stroke-dasharray="4 4" />
<text x="90.0" y="310.0" fill="#5d6574" font-size="11" font-family="Segoe UI, Arial, sans-serif" font-weight="400" text-anchor="end">3.391</text>
<line x1="98.0" y1="226.0" x2="1216.0" y2="226.0" stroke="#d7dbe5" stroke-width="1.0" stroke-dasharray="4 4" />
<text x="90.0" y="230.0" fill="#5d6574" font-size="11" font-family="Segoe UI, Arial, sans-serif" font-weight="400" text-anchor="end">4.036</text>
<line x1="98.0" y1="146.0" x2="1216.0" y2="146.0" stroke="#d7dbe5" stroke-width="1.0" stroke-dasharray="4 4" />
<text x="90.0" y="150.0" fill="#5d6574" font-size="11" font-family="Segoe UI, Arial, sans-serif" font-weight="400" text-anchor="end">4.681</text>
<line x1="98.0" y1="146.0" x2="98.0" y2="306.0" stroke="#d7dbe5" stroke-width="1.0" stroke-dasharray="4 4" />
<text x="98.0" y="324.0" fill="#5d6574" font-size="11" font-family="Segoe UI, Arial, sans-serif" font-weight="400" text-anchor="middle">0</text>
<line x1="657.0" y1="146.0" x2="657.0" y2="306.0" stroke="#d7dbe5" stroke-width="1.0" stroke-dasharray="4 4" />
<text x="657.0" y="324.0" fill="#5d6574" font-size="11" font-family="Segoe UI, Arial, sans-serif" font-weight="400" text-anchor="middle">125</text>
<line x1="1216.0" y1="146.0" x2="1216.0" y2="306.0" stroke="#d7dbe5" stroke-width="1.0" stroke-dasharray="4 4" />
<text x="1216.0" y="324.0" fill="#5d6574" font-size="11" font-family="Segoe UI, Arial, sans-serif" font-weight="400" text-anchor="middle">250</text>
<line x1="98.0" y1="146.0" x2="98.0" y2="306.0" stroke="#2d3440" stroke-width="1.2" />
<line x1="98.0" y1="306.0" x2="1216.0" y2="306.0" stroke="#2d3440" stroke-width="1.2" />
<text x="56.0" y="160.0" fill="#5d6574" font-size="12" font-family="Segoe UI, Arial, sans-serif" font-weight="400" text-anchor="start">physical</text>
<polyline points="98.00,168.44 102.47,168.44 106.94,168.44 111.42,168.44 115.89,168.44 120.36,168.44 124.83,168.44 129.30,168.44 133.78,168.44 138.25,168.44 142.72,168.44 147.19,168.44 151.66,168.44 156.14,168.44 160.61,168.44 165.08,168.44 169.55,168.44 174.02,168.44 178.50,168.44 182.97,168.44 187.44,168.44 191.91,168.44 196.38,168.44 200.86,168.44 205.33,168.44 209.80,168.44 214.27,168.44 218.74,168.44 223.22,168.44 227.69,168.44 232.16,168.44 236.63,168.44 241.10,168.44 245.58,168.44 250.05,168.44 254.52,168.44 258.99,168.44 263.46,168.44 267.94,168.44 272.41,168.44 276.88,168.44 281.35,168.44 285.82,168.44 290.30,168.44 294.77,168.44 299.24,168.44 303.71,168.44 308.18,168.44 312.66,168.44 317.13,168.44 321.60,168.44 326.07,168.44 330.54,168.44 335.02,168.44 339.49,168.44 343.96,168.44 348.43,168.44 352.90,168.44 357.38,168.44 361.85,168.44 366.32,168.44 370.79,168.44 375.26,168.44 379.74,168.44 384.21,168.44 388.68,168.44 393.15,168.44 397.62,168.44 402.10,168.44 406.57,168.44 411.04,168.44 415.51,168.44 419.98,168.44 424.46,168.44 428.93,168.44 433.40,168.44 437.87,168.44 442.34,168.44 446.82,168.44 451.29,168.44 455.76,168.44 460.23,168.44 464.70,168.44 469.18,168.44 473.65,168.44 478.12,168.44 482.59,168.44 487.06,168.44 491.54,168.44 496.01,168.44 500.48,168.44 504.95,168.44 509.42,168.44 513.90,168.44 518.37,168.44 522.84,168.44 527.31,168.44 531.78,168.44 536.26,168.44 540.73,168.44 545.20,168.44 549.67,168.44 554.14,168.44 558.62,168.44 563.09,168.44 567.56,168.44 572.03,168.44 576.50,168.44 580.98,168.44 585.45,168.44 589.92,168.44 594.39,168.44 598.86,168.44 603.34,168.44 607.81,168.44 612.28,168.44 616.75,168.44 621.22,168.44 625.70,168.44 630.17,168.44 634.64,168.44 639.11,168.44 643.58,168.44 648.06,168.44 652.53,168.44 657.00,168.44 661.47,168.44 665.94,168.44 670.42,168.44 674.89,168.44 679.36,168.44 683.83,168.44 688.30,168.44 692.78,168.44 697.25,168.44 701.72,168.44 706.19,168.44 710.66,168.44 715.14,168.44 719.61,168.44 724.08,168.44 728.55,168.44 733.02,168.44 737.50,168.44 741.97,168.44 746.44,168.44 750.91,168.44 755.38,168.44 759.86,168.44 764.33,168.44 768.80,168.44 773.27,168.44 777.74,168.44 782.22,168.44 786.69,168.44 791.16,168.44 795.63,168.44 800.10,168.44 804.58,168.44 809.05,168.44 813.52,168.44 817.99,168.44 822.46,168.44 826.94,168.44 831.41,168.44 835.88,168.44 840.35,168.44 844.82,168.44 849.30,168.44 853.77,168.44 858.24,168.44 862.71,168.44 867.18,168.44 871.66,168.44 876.13,168.44 880.60,168.44 885.07,168.44 889.54,168.44 894.02,168.44 898.49,168.44 902.96,168.44 907.43,168.44 911.90,168.44 916.38,168.44 920.85,168.44 925.32,168.44 929.79,168.44 934.26,168.44 938.74,168.44 943.21,168.44 947.68,168.44 952.15,168.44 956.62,168.44 961.10,168.44 965.57,168.44 970.04,168.44 974.51,168.44 978.98,168.44 983.46,168.44 987.93,168.44 992.40,168.44 996.87,168.44 1001.34,168.44 1005.82,168.44 1010.29,168.44 1014.76,168.44 1019.23,168.44 1023.70,168.44 1028.18,168.44 1032.65,168.44 1037.12,168.44 1041.59,168.44 1046.06,168.44 1050.54,168.44 1055.01,168.44 1059.48,168.44 1063.95,168.44 1068.42,168.44 1072.90,168.44 1077.37,168.44 1081.84,168.44 1086.31,168.44 1090.78,168.44 1095.26,168.44 1099.73,168.44 1104.20,168.44 1108.67,168.44 1113.14,168.44 1117.62,168.44 1122.09,168.44 1126.56,168.44 1131.03,168.44 1135.50,168.44 1139.98,168.44 1144.45,168.44 1148.92,168.44 1153.39,168.44 1157.86,168.44 1162.34,168.44 1166.81,168.44 1171.28,168.44 1175.75,168.44 1180.22,168.44 1184.70,168.44 1189.17,168.44 1193.64,168.44 1198.11,168.44 1202.58,168.44 1207.06,168.44 1211.53,168.44 1216.00,168.44" fill="none" stroke="#2d3440" stroke-width="1.6" stroke-linejoin="round" stroke-linecap="round" stroke-dasharray="4 4" />
<polyline points="98.00,244.07 102.47,244.00 106.94,243.76 111.42,243.28 115.89,242.50 120.36,241.41 124.83,240.00 129.30,238.29 133.78,236.30 138.25,234.06 142.72,231.60 147.19,228.98 151.66,226.24 156.14,223.42 160.61,220.56 165.08,217.70 169.55,214.89 174.02,212.16 178.50,209.53 182.97,207.02 187.44,204.66 191.91,202.46 196.38,200.43 200.86,198.57 205.33,196.89 209.80,195.38 214.27,194.04 218.74,192.67 223.22,190.95 227.69,188.91 232.16,186.82 236.63,184.89 241.10,183.24 245.58,181.97 250.05,181.13 254.52,180.74 258.99,180.81 263.46,181.31 267.94,182.21 272.41,183.49 276.88,185.09 281.35,186.98 285.82,189.10 290.30,191.42 294.77,193.88 299.24,196.46 303.71,199.09 308.18,201.76 312.66,204.43 317.13,207.05 321.60,209.62 326.07,212.09 330.54,214.45 335.02,216.68 339.49,218.76 343.96,220.68 348.43,222.41 352.90,223.96 357.38,225.32 361.85,226.47 366.32,227.42 370.79,228.17 375.26,228.70 379.74,229.04 384.21,229.17 388.68,229.10 393.15,228.85 397.62,228.42 402.10,227.82 406.57,227.06 411.04,226.16 415.51,225.12 419.98,223.96 424.46,222.69 428.93,221.33 433.40,219.90 437.87,218.40 442.34,216.85 446.82,215.26 451.29,213.65 455.76,212.03 460.23,210.41 464.70,208.79 469.18,207.20 473.65,205.63 478.12,204.09 482.59,202.60 487.06,201.15 491.54,199.74 496.01,198.44 500.48,197.63 504.95,197.55 509.42,197.97 513.90,198.67 518.37,199.51 522.84,200.37 527.31,201.18 531.78,201.87 536.26,202.40 540.73,202.76 545.20,202.93 549.67,202.89 554.14,202.64 558.62,202.20 563.09,201.57 567.56,200.77 572.03,199.80 576.50,198.69 580.98,197.46 585.45,196.14 589.92,196.09 594.39,199.25 598.86,205.21 603.34,212.57 607.81,220.57 612.28,228.75 616.75,236.89 621.22,244.81 625.70,252.42 630.17,259.64 634.64,266.37 639.11,272.57 643.58,278.20 648.06,283.10 652.53,287.11 657.00,290.18 661.47,292.39 665.94,293.85 670.42,294.67 674.89,294.97 679.36,294.84 683.83,293.99 688.30,292.02 692.78,288.87 697.25,284.53 701.72,279.07 706.19,272.58 710.66,265.24 715.14,257.25 719.61,248.81 724.08,240.14 728.55,231.43 733.02,222.86 737.50,214.59 741.97,206.73 746.44,199.39 750.91,192.62 755.38,186.47 759.86,180.97 764.33,176.10 768.80,171.88 773.27,168.26 777.74,165.24 782.22,162.75 786.69,160.78 791.16,159.27 795.63,158.19 800.10,157.48 804.58,157.11 809.05,157.03 813.52,157.22 817.99,157.62 822.46,158.20 826.94,158.94 831.41,159.80 835.88,160.76 840.35,161.79 844.82,162.87 849.30,163.97 853.77,165.09 858.24,166.21 862.71,167.31 867.18,168.38 871.66,169.41 876.13,170.39 880.60,171.32 885.07,172.19 889.54,172.99 894.02,173.73 898.49,174.40 902.96,175.00 907.43,175.53 911.90,175.99 916.38,176.38 920.85,176.70 925.32,176.97 929.79,177.17 934.26,177.31 938.74,177.41 943.21,177.45 947.68,177.45 952.15,177.41 956.62,177.33 961.10,177.22 965.57,177.08 970.04,176.92 974.51,176.74 978.98,176.54 983.46,176.32 987.93,176.10 992.40,175.96 996.87,176.10 1001.34,176.56 1005.82,177.21 1010.29,177.96 1014.76,178.72 1019.23,179.47 1023.70,180.15 1028.18,180.75 1032.65,181.26 1037.12,181.65 1041.59,181.94 1046.06,182.11 1050.54,182.17 1055.01,182.13 1059.48,181.99 1063.95,181.76 1068.42,181.45 1072.90,181.47 1077.37,181.95 1081.84,182.64 1086.31,183.44 1090.78,184.28 1095.26,185.10 1099.73,185.87 1104.20,186.57 1108.67,187.18 1113.14,187.68 1117.62,188.07 1122.09,188.37 1126.56,188.56 1131.03,188.65 1135.50,188.65 1139.98,188.58 1144.45,188.43 1148.92,188.21 1153.39,187.95 1157.86,187.64 1162.34,187.29 1166.81,186.92 1171.28,186.53 1175.75,186.13 1180.22,185.72 1184.70,185.32 1189.17,184.92 1193.64,184.53 1198.11,184.15 1202.58,183.79 1207.06,183.44 1211.53,183.12 1216.00,182.82" fill="none" stroke="#bf1e2d" stroke-width="2.2" stroke-linejoin="round" stroke-linecap="round" />
<polyline points="98.00,244.05 102.47,244.03 106.94,243.99 111.42,243.90 115.89,243.70 120.36,243.33 124.83,242.72 129.30,241.85 133.78,240.70 138.25,239.27 142.72,237.59 147.19,235.68 151.66,233.59 156.14,231.36 160.61,229.03 165.08,226.64 169.55,224.25 174.02,221.88 178.50,219.57 182.97,217.35 187.44,215.23 191.91,213.24 196.38,211.38 200.86,209.66 205.33,208.09 209.80,206.67 214.27,205.38 218.74,204.24 223.22,203.23 227.69,202.15 232.16,200.91 236.63,199.45 241.10,197.84 245.58,196.21 250.05,194.70 254.52,193.45 258.99,192.55 263.46,192.04 267.94,191.94 272.41,192.24 276.88,192.92 281.35,193.92 285.82,195.20 290.30,196.71 294.77,198.40 299.24,200.22 303.71,202.14 308.18,204.11 312.66,206.10 317.13,208.08 321.60,210.03 326.07,211.92 330.54,213.73 335.02,215.45 339.49,217.07 343.96,218.56 348.43,219.93 352.90,221.16 357.38,222.26 361.85,223.21 366.32,224.01 370.79,224.66 375.26,225.16 379.74,225.50 384.21,225.71 388.68,225.76 393.15,225.68 397.62,225.46 402.10,225.10 406.57,224.63 411.04,224.04 415.51,223.35 419.98,222.55 424.46,221.67 428.93,220.71 433.40,219.69 437.87,218.60 442.34,217.47 446.82,216.31 451.29,215.11 455.76,213.90 460.23,212.68 464.70,211.46 469.18,210.25 473.65,209.05 478.12,207.87 482.59,206.71 487.06,205.58 491.54,204.47 496.01,203.42 500.48,202.52 504.95,201.64 509.42,201.05 513.90,200.89 518.37,201.16 522.84,201.78 527.31,202.62 531.78,203.54 536.26,204.41 540.73,205.17 545.20,205.74 549.67,206.09 554.14,206.23 558.62,206.13 563.09,205.83 567.56,205.33 572.03,204.64 576.50,203.80 580.98,202.83 585.45,201.74 589.92,201.00 594.39,200.53 598.86,200.46 603.34,202.15 607.81,205.88 612.28,211.39 616.75,218.10 621.22,225.41 625.70,232.83 630.17,240.01 634.64,246.75 639.11,252.98 643.58,258.55 648.06,263.49 652.53,267.79 657.00,271.44 661.47,274.35 665.94,276.48 670.42,277.87 674.89,278.59 679.36,278.76 683.83,278.37 688.30,277.68 692.78,276.52 697.25,274.70 701.72,272.09 706.19,268.58 710.66,264.17 715.14,258.92 719.61,252.95 724.08,246.43 728.55,239.55 733.02,232.52 737.50,225.51 741.97,218.70 746.44,212.23 750.91,206.20 755.38,200.68 759.86,195.74 764.33,191.37 768.80,187.59 773.27,184.37 777.74,181.68 782.22,179.48 786.69,177.73 791.16,176.39 795.63,175.39 800.10,174.71 804.58,174.29 809.05,174.09 813.52,174.09 817.99,174.24 822.46,174.52 826.94,174.89 831.41,175.35 835.88,175.85 840.35,176.40 844.82,176.97 849.30,177.55 853.77,178.13 858.24,178.69 862.71,179.24 867.18,179.76 871.66,180.25 876.13,180.70 880.60,181.12 885.07,181.49 889.54,181.82 894.02,182.10 898.49,182.33 902.96,182.52 907.43,182.67 911.90,182.77 916.38,182.82 920.85,182.83 925.32,182.81 929.79,182.75 934.26,182.65 938.74,182.52 943.21,182.36 947.68,182.17 952.15,181.96 956.62,181.73 961.10,181.49 965.57,181.22 970.04,180.95 974.51,180.66 978.98,180.37 983.46,180.08 987.93,179.78 992.40,179.51 996.87,179.28 1001.34,179.08 1005.82,179.05 1010.29,179.24 1014.76,179.62 1019.23,180.16 1023.70,180.77 1028.18,181.39 1032.65,181.98 1037.12,182.48 1041.59,182.88 1046.06,183.16 1050.54,183.33 1055.01,183.38 1059.48,183.33 1063.95,183.18 1068.42,182.94 1072.90,182.80 1077.37,182.50 1081.84,182.37 1086.31,182.49 1090.78,182.87 1095.26,183.45 1099.73,184.14 1104.20,184.87 1108.67,185.58 1113.14,186.22 1117.62,186.76 1122.09,187.19 1126.56,187.51 1131.03,187.72 1135.50,187.82 1139.98,187.84 1144.45,187.77 1148.92,187.64 1153.39,187.44 1157.86,187.21 1162.34,186.93 1166.81,186.63 1171.28,186.32 1175.75,185.99 1180.22,185.65 1184.70,185.32 1189.17,184.99 1193.64,184.67 1198.11,184.37 1202.58,184.08 1207.06,183.80 1211.53,183.54 1216.00,183.30" fill="none" stroke="#bf1e2d" stroke-width="1.8" stroke-linejoin="round" stroke-linecap="round" stroke-dasharray="8 5" />
<polyline points="98.00,244.07 102.47,244.00 106.94,243.76 111.42,243.28 115.89,242.50 120.36,241.41 124.83,240.00 129.30,238.29 133.78,236.30 138.25,234.06 142.72,231.60 147.19,228.98 151.66,226.24 156.14,223.42 160.61,220.56 165.08,217.70 169.55,214.89 174.02,212.16 178.50,209.53 182.97,207.02 187.44,204.66 191.91,202.46 196.38,200.43 200.86,198.57 205.33,196.89 209.80,195.38 214.27,194.04 218.74,192.86 223.22,191.84 227.69,190.96 232.16,190.22 236.63,189.60 241.10,189.10 245.58,188.69 250.05,188.38 254.52,188.14 258.99,187.97 263.46,187.85 267.94,187.78 272.41,187.74 276.88,187.73 281.35,187.74 285.82,187.76 290.30,187.79 294.77,187.81 299.24,187.83 303.71,187.84 308.18,187.83 312.66,187.81 317.13,187.76 321.60,187.70 326.07,187.60 330.54,187.49 335.02,187.35 339.49,187.19 343.96,187.00 348.43,186.78 352.90,186.55 357.38,186.29 361.85,186.01 366.32,185.72 370.79,185.41 375.26,185.08 379.74,184.74 384.21,184.39 388.68,184.03 393.15,183.66 397.62,183.29 402.10,182.91 406.57,182.53 411.04,182.15 415.51,181.77 419.98,181.40 424.46,181.03 428.93,180.66 433.40,180.30 437.87,179.94 442.34,179.60 446.82,179.26 451.29,178.93 455.76,178.61 460.23,178.30 464.70,178.00 469.18,177.70 473.65,177.42 478.12,177.15 482.59,176.89 487.06,176.64 491.54,176.39 496.01,176.16 500.48,175.93 504.95,175.72 509.42,175.51 513.90,175.31 518.37,175.12 522.84,174.93 527.31,174.76 531.78,174.59 536.26,174.42 540.73,174.26 545.20,174.11 549.67,173.96 554.14,173.82 558.62,173.68 563.09,173.55 567.56,173.42 572.03,173.29 576.50,173.17 580.98,173.05 585.45,172.94 589.92,172.82 594.39,172.71 598.86,172.61 603.34,172.50 607.81,172.40 612.28,172.31 616.75,172.21 621.22,172.12 625.70,172.02 630.17,171.93 634.64,171.85 639.11,171.76 643.58,171.68 648.06,171.60 652.53,171.52 657.00,171.44 661.47,171.36 665.94,171.29 670.42,171.22 674.89,171.14 679.36,171.08 683.83,171.01 688.30,170.94 692.78,170.88 697.25,170.82 701.72,170.75 706.19,170.69 710.66,170.64 715.14,170.58 719.61,170.53 724.08,170.47 728.55,170.42 733.02,170.37 737.50,170.32 741.97,170.27 746.44,170.22 750.91,170.18 755.38,170.13 759.86,170.09 764.33,170.05 768.80,170.01 773.27,169.97 777.74,169.93 782.22,169.89 786.69,169.86 791.16,169.82 795.63,169.79 800.10,169.75 804.58,169.72 809.05,169.69 813.52,169.66 817.99,169.63 822.46,169.60 826.94,169.57 831.41,169.54 835.88,169.52 840.35,169.49 844.82,169.46 849.30,169.44 853.77,169.41 858.24,169.39 862.71,169.37 867.18,169.34 871.66,169.32 876.13,169.30 880.60,169.28 885.07,169.26 889.54,169.24 894.02,169.22 898.49,169.20 902.96,169.18 907.43,169.17 911.90,169.15 916.38,169.13 920.85,169.11 925.32,169.10 929.79,169.08 934.26,169.07 938.74,169.05 943.21,169.04 947.68,169.02 952.15,169.01 956.62,169.00 961.10,168.98 965.57,168.97 970.04,168.96 974.51,168.94 978.98,168.93 983.46,168.92 987.93,168.91 992.40,168.90 996.87,168.89 1001.34,168.88 1005.82,168.87 1010.29,168.86 1014.76,168.85 1019.23,168.84 1023.70,168.83 1028.18,168.82 1032.65,168.81 1037.12,168.80 1041.59,168.79 1046.06,168.78 1050.54,168.77 1055.01,168.77 1059.48,168.76 1063.95,168.75 1068.42,168.74 1072.90,168.74 1077.37,168.73 1081.84,168.72 1086.31,168.72 1090.78,168.73 1095.26,168.78 1099.73,168.84 1104.20,168.91 1108.67,168.99 1113.14,169.06 1117.62,169.12 1122.09,169.18 1126.56,169.22 1131.03,169.25 1135.50,169.27 1139.98,169.28 1144.45,169.27 1148.92,169.26 1153.39,169.23 1157.86,169.20 1162.34,169.15 1166.81,169.11 1171.28,169.05 1175.75,168.99 1180.22,168.93 1184.70,168.86 1189.17,168.80 1193.64,168.73 1198.11,168.66 1202.58,168.60 1207.06,168.53 1211.53,168.47 1216.00,168.41" fill="none" stroke="#c96b17" stroke-width="2.2" stroke-linejoin="round" stroke-linecap="round" />
<polyline points="98.00,244.05 102.47,244.03 106.94,243.99 111.42,243.90 115.89,243.70 120.36,243.33 124.83,242.72 129.30,241.85 133.78,240.70 138.25,239.27 142.72,237.59 147.19,235.68 151.66,233.59 156.14,231.36 160.61,229.03 165.08,226.64 169.55,224.25 174.02,221.88 178.50,219.57 182.97,217.35 187.44,215.23 191.91,213.24 196.38,211.38 200.86,209.66 205.33,208.09 209.80,206.67 214.27,205.38 218.74,204.24 223.22,203.22 227.69,202.33 232.16,201.54 236.63,200.86 241.10,200.27 245.58,199.76 250.05,199.32 254.52,198.94 258.99,198.61 263.46,198.32 267.94,198.07 272.41,197.84 276.88,197.64 281.35,197.45 285.82,197.26 290.30,197.08 294.77,196.90 299.24,196.72 303.71,196.52 308.18,196.32 312.66,196.10 317.13,195.87 321.60,195.62 326.07,195.36 330.54,195.08 335.02,194.78 339.49,194.46 343.96,194.13 348.43,193.79 352.90,193.43 357.38,193.05 361.85,192.66 366.32,192.26 370.79,191.85 375.26,191.43 379.74,191.01 384.21,190.58 388.68,190.14 393.15,189.70 397.62,189.26 402.10,188.82 406.57,188.38 411.04,187.94 415.51,187.51 419.98,187.07 424.46,186.65 428.93,186.23 433.40,185.81 437.87,185.41 442.34,185.01 446.82,184.61 451.29,184.23 455.76,183.86 460.23,183.49 464.70,183.14 469.18,182.79 473.65,182.45 478.12,182.12 482.59,181.80 487.06,181.49 491.54,181.19 496.01,180.89 500.48,180.60 504.95,180.33 509.42,180.06 513.90,179.79 518.37,179.54 522.84,179.29 527.31,179.04 531.78,178.81 536.26,178.58 540.73,178.35 545.20,178.14 549.67,177.92 554.14,177.71 558.62,177.51 563.09,177.31 567.56,177.12 572.03,176.93 576.50,176.74 580.98,176.56 585.45,176.38 589.92,176.21 594.39,176.04 598.86,175.87 603.34,175.71 607.81,175.55 612.28,175.39 616.75,175.24 621.22,175.09 625.70,174.94 630.17,174.79 634.64,174.65 639.11,174.51 643.58,174.38 648.06,174.24 652.53,174.11 657.00,173.98 661.47,173.86 665.94,173.73 670.42,173.61 674.89,173.50 679.36,173.38 683.83,173.27 688.30,173.16 692.78,173.05 697.25,172.94 701.72,172.84 706.19,172.74 710.66,172.64 715.14,172.54 719.61,172.45 724.08,172.35 728.55,172.26 733.02,172.18 737.50,172.09 741.97,172.00 746.44,171.92 750.91,171.84 755.38,171.76 759.86,171.69 764.33,171.61 768.80,171.54 773.27,171.47 777.74,171.40 782.22,171.33 786.69,171.26 791.16,171.19 795.63,171.13 800.10,171.07 804.58,171.01 809.05,170.95 813.52,170.89 817.99,170.83 822.46,170.78 826.94,170.72 831.41,170.67 835.88,170.62 840.35,170.57 844.82,170.52 849.30,170.47 853.77,170.43 858.24,170.38 862.71,170.34 867.18,170.29 871.66,170.25 876.13,170.21 880.60,170.17 885.07,170.13 889.54,170.09 894.02,170.05 898.49,170.01 902.96,169.98 907.43,169.94 911.90,169.91 916.38,169.87 920.85,169.84 925.32,169.81 929.79,169.77 934.26,169.74 938.74,169.71 943.21,169.68 947.68,169.65 952.15,169.63 956.62,169.60 961.10,169.57 965.57,169.55 970.04,169.52 974.51,169.50 978.98,169.47 983.46,169.45 987.93,169.42 992.40,169.40 996.87,169.38 1001.34,169.36 1005.82,169.34 1010.29,169.31 1014.76,169.29 1019.23,169.27 1023.70,169.26 1028.18,169.24 1032.65,169.22 1037.12,169.20 1041.59,169.18 1046.06,169.17 1050.54,169.15 1055.01,169.13 1059.48,169.12 1063.95,169.10 1068.42,169.08 1072.90,169.07 1077.37,169.06 1081.84,169.04 1086.31,168.44 1090.78,168.44 1095.26,168.44 1099.73,168.44 1104.20,169.03 1108.67,169.07 1113.14,169.12 1117.62,169.18 1122.09,169.24 1126.56,169.29 1131.03,169.34 1135.50,169.37 1139.98,169.39 1144.45,169.40 1148.92,169.40 1153.39,169.38 1157.86,169.36 1162.34,169.32 1166.81,169.28 1171.28,169.24 1175.75,169.19 1180.22,169.13 1184.70,168.44 1189.17,168.44 1193.64,168.44 1198.11,168.44 1202.58,168.44 1207.06,168.44 1211.53,168.44 1216.00,168.44" fill="none" stroke="#c96b17" stroke-width="1.8" stroke-linejoin="round" stroke-linecap="round" stroke-dasharray="8 5" />
<polyline points="98.00,244.07 102.47,244.00 106.94,243.76 111.42,243.28 115.89,242.50 120.36,241.41 124.83,240.00 129.30,238.29 133.78,236.30 138.25,234.06 142.72,231.60 147.19,228.98 151.66,226.24 156.14,223.42 160.61,220.56 165.08,217.70 169.55,214.89 174.02,212.16 178.50,209.53 182.97,207.02 187.44,204.66 191.91,202.46 196.38,200.43 200.86,198.57 205.33,196.89 209.80,195.38 214.27,194.04 218.74,192.86 223.22,191.84 227.69,190.96 232.16,190.22 236.63,189.60 241.10,189.10 245.58,188.69 250.05,188.38 254.52,188.14 258.99,187.97 263.46,187.85 267.94,187.78 272.41,187.74 276.88,187.73 281.35,187.74 285.82,187.76 290.30,187.79 294.77,187.81 299.24,187.83 303.71,187.84 308.18,187.83 312.66,187.81 317.13,187.76 321.60,187.70 326.07,187.60 330.54,187.49 335.02,187.35 339.49,187.19 343.96,187.00 348.43,186.78 352.90,186.55 357.38,186.29 361.85,186.01 366.32,185.72 370.79,185.41 375.26,185.08 379.74,184.74 384.21,184.39 388.68,184.03 393.15,183.66 397.62,183.29 402.10,182.91 406.57,182.53 411.04,182.15 415.51,181.77 419.98,181.40 424.46,181.03 428.93,180.66 433.40,180.30 437.87,179.94 442.34,179.60 446.82,179.26 451.29,178.93 455.76,178.61 460.23,178.30 464.70,178.00 469.18,177.70 473.65,177.42 478.12,177.15 482.59,176.89 487.06,176.64 491.54,176.39 496.01,176.16 500.48,175.93 504.95,175.72 509.42,175.51 513.90,175.31 518.37,175.12 522.84,174.93 527.31,174.76 531.78,174.59 536.26,174.42 540.73,174.26 545.20,174.11 549.67,173.96 554.14,173.82 558.62,173.68 563.09,173.55 567.56,173.42 572.03,173.29 576.50,173.17 580.98,173.05 585.45,172.94 589.92,172.82 594.39,172.71 598.86,172.61 603.34,172.50 607.81,172.40 612.28,172.31 616.75,172.21 621.22,172.12 625.70,172.02 630.17,171.93 634.64,171.85 639.11,171.76 643.58,171.68 648.06,171.60 652.53,171.52 657.00,171.44 661.47,171.36 665.94,171.29 670.42,171.22 674.89,171.14 679.36,171.08 683.83,171.01 688.30,170.94 692.78,170.88 697.25,170.82 701.72,170.75 706.19,170.69 710.66,170.64 715.14,170.58 719.61,170.53 724.08,170.47 728.55,170.42 733.02,170.37 737.50,170.32 741.97,170.27 746.44,170.22 750.91,170.18 755.38,170.13 759.86,170.09 764.33,170.05 768.80,170.01 773.27,169.97 777.74,169.93 782.22,169.89 786.69,169.86 791.16,169.82 795.63,169.79 800.10,169.75 804.58,169.72 809.05,169.69 813.52,169.66 817.99,169.63 822.46,169.60 826.94,169.57 831.41,169.54 835.88,169.52 840.35,169.49 844.82,169.46 849.30,169.44 853.77,169.41 858.24,169.39 862.71,169.37 867.18,169.34 871.66,169.32 876.13,169.30 880.60,169.28 885.07,169.26 889.54,169.24 894.02,169.22 898.49,169.20 902.96,169.18 907.43,169.17 911.90,169.15 916.38,169.13 920.85,169.11 925.32,169.10 929.79,169.08 934.26,169.07 938.74,169.05 943.21,169.04 947.68,169.02 952.15,169.01 956.62,169.00 961.10,168.98 965.57,168.97 970.04,168.96 974.51,168.94 978.98,168.93 983.46,168.92 987.93,168.91 992.40,168.90 996.87,168.89 1001.34,168.88 1005.82,168.87 1010.29,168.86 1014.76,168.85 1019.23,168.84 1023.70,168.83 1028.18,168.82 1032.65,168.81 1037.12,168.80 1041.59,168.79 1046.06,168.78 1050.54,168.77 1055.01,168.77 1059.48,168.76 1063.95,168.75 1068.42,168.74 1072.90,168.74 1077.37,168.73 1081.84,168.72 1086.31,168.72 1090.78,168.71 1095.26,168.71 1099.73,168.72 1104.20,168.72 1108.67,168.73 1113.14,168.73 1117.62,168.73 1122.09,168.74 1126.56,168.75 1131.03,168.78 1135.50,168.84 1139.98,168.91 1144.45,168.99 1148.92,169.06 1153.39,169.11 1157.86,169.16 1162.34,169.20 1166.81,169.21 1171.28,169.22 1175.75,169.21 1180.22,169.18 1184.70,169.15 1189.17,169.10 1193.64,169.04 1198.11,168.97 1202.58,168.89 1207.06,168.81 1211.53,168.72 1216.00,168.63" fill="none" stroke="#2a7f62" stroke-width="2.2" stroke-linejoin="round" stroke-linecap="round" />
<polyline points="98.00,244.05 102.47,244.03 106.94,243.99 111.42,243.90 115.89,243.70 120.36,243.33 124.83,242.72 129.30,241.85 133.78,240.70 138.25,239.27 142.72,237.59 147.19,235.68 151.66,233.59 156.14,231.36 160.61,229.03 165.08,226.64 169.55,224.25 174.02,221.88 178.50,219.57 182.97,217.35 187.44,215.23 191.91,213.24 196.38,211.38 200.86,209.66 205.33,208.09 209.80,206.67 214.27,205.38 218.74,204.24 223.22,203.22 227.69,202.33 232.16,201.54 236.63,200.86 241.10,200.27 245.58,199.76 250.05,199.32 254.52,198.94 258.99,198.61 263.46,198.32 267.94,198.07 272.41,197.84 276.88,197.64 281.35,197.45 285.82,197.26 290.30,197.08 294.77,196.90 299.24,196.72 303.71,196.52 308.18,196.32 312.66,196.10 317.13,195.87 321.60,195.62 326.07,195.36 330.54,195.08 335.02,194.78 339.49,194.46 343.96,194.13 348.43,193.79 352.90,193.43 357.38,193.05 361.85,192.66 366.32,192.26 370.79,191.85 375.26,191.43 379.74,191.01 384.21,190.58 388.68,190.14 393.15,189.70 397.62,189.26 402.10,188.82 406.57,188.38 411.04,187.94 415.51,187.51 419.98,187.07 424.46,186.65 428.93,186.23 433.40,185.81 437.87,185.41 442.34,185.01 446.82,184.61 451.29,184.23 455.76,183.86 460.23,183.49 464.70,183.14 469.18,182.79 473.65,182.45 478.12,182.12 482.59,181.80 487.06,181.49 491.54,181.19 496.01,180.89 500.48,180.60 504.95,180.33 509.42,180.06 513.90,179.79 518.37,179.54 522.84,179.29 527.31,179.04 531.78,178.81 536.26,178.58 540.73,178.35 545.20,178.14 549.67,177.92 554.14,177.71 558.62,177.51 563.09,177.31 567.56,177.12 572.03,176.93 576.50,176.74 580.98,176.56 585.45,176.38 589.92,176.21 594.39,176.04 598.86,175.87 603.34,175.71 607.81,175.55 612.28,175.39 616.75,175.24 621.22,175.09 625.70,174.94 630.17,174.79 634.64,174.65 639.11,174.51 643.58,174.38 648.06,174.24 652.53,174.11 657.00,173.98 661.47,173.86 665.94,173.73 670.42,173.61 674.89,173.50 679.36,173.38 683.83,173.27 688.30,173.16 692.78,173.05 697.25,172.94 701.72,172.84 706.19,172.74 710.66,172.64 715.14,172.54 719.61,172.45 724.08,172.35 728.55,172.26 733.02,172.18 737.50,172.09 741.97,172.00 746.44,171.92 750.91,171.84 755.38,171.76 759.86,171.69 764.33,171.61 768.80,171.54 773.27,171.47 777.74,171.40 782.22,171.33 786.69,171.26 791.16,171.19 795.63,171.13 800.10,171.07 804.58,171.01 809.05,170.95 813.52,170.89 817.99,170.83 822.46,170.78 826.94,170.72 831.41,170.67 835.88,170.62 840.35,170.57 844.82,170.52 849.30,170.47 853.77,170.43 858.24,170.38 862.71,170.34 867.18,170.29 871.66,170.25 876.13,170.21 880.60,170.17 885.07,170.13 889.54,170.09 894.02,170.05 898.49,170.01 902.96,169.98 907.43,169.94 911.90,169.91 916.38,169.87 920.85,169.84 925.32,169.81 929.79,169.77 934.26,169.74 938.74,169.71 943.21,169.68 947.68,169.65 952.15,169.63 956.62,169.60 961.10,169.57 965.57,169.55 970.04,169.52 974.51,169.50 978.98,169.47 983.46,169.45 987.93,169.42 992.40,169.40 996.87,169.38 1001.34,169.36 1005.82,169.34 1010.29,169.31 1014.76,169.29 1019.23,169.27 1023.70,169.26 1028.18,169.24 1032.65,169.22 1037.12,169.20 1041.59,169.18 1046.06,169.17 1050.54,169.15 1055.01,169.13 1059.48,169.12 1063.95,169.10 1068.42,169.08 1072.90,169.07 1077.37,169.06 1081.84,169.04 1086.31,168.44 1090.78,168.44 1095.26,168.44 1099.73,168.44 1104.20,168.44 1108.67,168.44 1113.14,168.44 1117.62,168.44 1122.09,168.44 1126.56,168.44 1131.03,168.44 1135.50,168.44 1139.98,168.99 1144.45,169.02 1148.92,169.07 1153.39,169.12 1157.86,169.18 1162.34,169.23 1166.81,169.27 1171.28,169.30 1175.75,169.31 1180.22,169.31 1184.70,169.29 1189.17,169.26 1193.64,169.22 1198.11,169.17 1202.58,169.11 1207.06,169.04 1211.53,168.97 1216.00,168.44" fill="none" stroke="#2a7f62" stroke-width="1.8" stroke-linejoin="round" stroke-linecap="round" stroke-dasharray="8 5" />
<polyline points="98.00,244.07 102.47,244.00 106.94,243.76 111.42,243.28 115.89,242.50 120.36,241.41 124.83,240.00 129.30,238.29 133.78,236.30 138.25,234.06 142.72,231.60 147.19,228.98 151.66,226.24 156.14,223.42 160.61,220.56 165.08,217.70 169.55,214.89 174.02,212.16 178.50,209.53 182.97,207.02 187.44,204.66 191.91,202.46 196.38,200.43 200.86,198.57 205.33,196.89 209.80,195.38 214.27,194.04 218.74,192.86 223.22,191.84 227.69,190.96 232.16,190.22 236.63,189.60 241.10,189.10 245.58,188.69 250.05,188.38 254.52,188.14 258.99,187.97 263.46,187.85 267.94,187.78 272.41,187.74 276.88,187.73 281.35,187.74 285.82,187.76 290.30,187.79 294.77,187.81 299.24,187.83 303.71,187.84 308.18,187.83 312.66,187.81 317.13,187.76 321.60,187.70 326.07,187.60 330.54,187.49 335.02,187.35 339.49,187.19 343.96,187.00 348.43,186.78 352.90,186.55 357.38,186.29 361.85,186.01 366.32,185.72 370.79,185.41 375.26,185.08 379.74,184.74 384.21,184.39 388.68,184.03 393.15,183.66 397.62,183.29 402.10,182.91 406.57,182.53 411.04,182.15 415.51,181.77 419.98,181.40 424.46,181.03 428.93,180.66 433.40,180.30 437.87,179.94 442.34,179.60 446.82,179.26 451.29,178.93 455.76,178.61 460.23,178.30 464.70,178.00 469.18,177.70 473.65,177.42 478.12,177.15 482.59,176.89 487.06,176.64 491.54,176.39 496.01,176.16 500.48,175.93 504.95,175.72 509.42,175.51 513.90,175.31 518.37,175.12 522.84,174.93 527.31,174.76 531.78,174.59 536.26,174.42 540.73,174.26 545.20,174.11 549.67,173.96 554.14,173.82 558.62,173.68 563.09,173.55 567.56,173.42 572.03,173.29 576.50,173.17 580.98,173.05 585.45,172.94 589.92,172.82 594.39,172.71 598.86,172.61 603.34,172.50 607.81,172.40 612.28,172.31 616.75,172.21 621.22,172.12 625.70,172.02 630.17,171.93 634.64,171.85 639.11,171.76 643.58,171.68 648.06,171.60 652.53,171.52 657.00,171.44 661.47,171.36 665.94,171.29 670.42,171.22 674.89,171.14 679.36,171.08 683.83,171.01 688.30,170.94 692.78,170.88 697.25,170.82 701.72,170.75 706.19,170.69 710.66,170.64 715.14,170.58 719.61,170.53 724.08,170.47 728.55,170.42 733.02,170.37 737.50,170.32 741.97,170.27 746.44,170.22 750.91,170.18 755.38,170.13 759.86,170.09 764.33,170.05 768.80,170.01 773.27,169.97 777.74,169.93 782.22,169.89 786.69,169.86 791.16,169.82 795.63,169.79 800.10,169.75 804.58,169.72 809.05,169.69 813.52,169.66 817.99,169.63 822.46,169.60 826.94,169.57 831.41,169.54 835.88,169.52 840.35,169.49 844.82,169.46 849.30,169.44 853.77,169.41 858.24,169.39 862.71,169.37 867.18,169.34 871.66,169.32 876.13,169.30 880.60,169.28 885.07,169.26 889.54,169.24 894.02,169.22 898.49,169.20 902.96,169.18 907.43,169.17 911.90,169.15 916.38,169.13 920.85,169.11 925.32,169.10 929.79,169.08 934.26,169.07 938.74,169.05 943.21,169.04 947.68,169.02 952.15,169.01 956.62,169.00 961.10,168.98 965.57,168.97 970.04,168.96 974.51,168.94 978.98,168.93 983.46,168.92 987.93,168.91 992.40,168.90 996.87,168.89 1001.34,168.88 1005.82,168.87 1010.29,168.86 1014.76,168.85 1019.23,168.84 1023.70,168.83 1028.18,168.82 1032.65,168.81 1037.12,168.80 1041.59,168.79 1046.06,168.78 1050.54,168.77 1055.01,168.77 1059.48,168.76 1063.95,168.75 1068.42,168.74 1072.90,168.74 1077.37,168.73 1081.84,168.72 1086.31,168.72 1090.78,168.71 1095.26,168.70 1099.73,168.70 1104.20,168.69 1108.67,168.69 1113.14,168.68 1117.62,168.67 1122.09,168.67 1126.56,168.66 1131.03,168.66 1135.50,168.65 1139.98,168.65 1144.45,168.64 1148.92,168.64 1153.39,168.63 1157.86,168.63 1162.34,168.63 1166.81,168.62 1171.28,168.62 1175.75,168.61 1180.22,168.61 1184.70,168.60 1189.17,168.60 1193.64,168.60 1198.11,168.59 1202.58,168.59 1207.06,168.59 1211.53,168.58 1216.00,168.58" fill="none" stroke="#2458d3" stroke-width="2.2" stroke-linejoin="round" stroke-linecap="round" />
<polyline points="98.00,244.05 102.47,244.03 106.94,243.99 111.42,243.90 115.89,243.70 120.36,243.33 124.83,242.72 129.30,241.85 133.78,240.70 138.25,239.27 142.72,237.59 147.19,235.68 151.66,233.59 156.14,231.36 160.61,229.03 165.08,226.64 169.55,224.25 174.02,221.88 178.50,219.57 182.97,217.35 187.44,215.23 191.91,213.24 196.38,211.38 200.86,209.66 205.33,208.09 209.80,206.67 214.27,205.38 218.74,204.24 223.22,203.22 227.69,202.33 232.16,201.54 236.63,200.86 241.10,200.27 245.58,199.76 250.05,199.32 254.52,198.94 258.99,198.61 263.46,198.32 267.94,198.07 272.41,197.84 276.88,197.64 281.35,197.45 285.82,197.26 290.30,197.08 294.77,196.90 299.24,196.72 303.71,196.52 308.18,196.32 312.66,196.10 317.13,195.87 321.60,195.62 326.07,195.36 330.54,195.08 335.02,194.78 339.49,194.46 343.96,194.13 348.43,193.79 352.90,193.43 357.38,193.05 361.85,192.66 366.32,192.26 370.79,191.85 375.26,191.43 379.74,191.01 384.21,190.58 388.68,190.14 393.15,189.70 397.62,189.26 402.10,188.82 406.57,188.38 411.04,187.94 415.51,187.51 419.98,187.07 424.46,186.65 428.93,186.23 433.40,185.81 437.87,185.41 442.34,185.01 446.82,184.61 451.29,184.23 455.76,183.86 460.23,183.49 464.70,183.14 469.18,182.79 473.65,182.45 478.12,182.12 482.59,181.80 487.06,181.49 491.54,181.19 496.01,180.89 500.48,180.60 504.95,180.33 509.42,180.06 513.90,179.79 518.37,179.54 522.84,179.29 527.31,179.04 531.78,178.81 536.26,178.58 540.73,178.35 545.20,178.14 549.67,177.92 554.14,177.71 558.62,177.51 563.09,177.31 567.56,177.12 572.03,176.93 576.50,176.74 580.98,176.56 585.45,176.38 589.92,176.21 594.39,176.04 598.86,175.87 603.34,175.71 607.81,175.55 612.28,175.39 616.75,175.24 621.22,175.09 625.70,174.94 630.17,174.79 634.64,174.65 639.11,174.51 643.58,174.38 648.06,174.24 652.53,174.11 657.00,173.98 661.47,173.86 665.94,173.73 670.42,173.61 674.89,173.50 679.36,173.38 683.83,173.27 688.30,173.16 692.78,173.05 697.25,172.94 701.72,172.84 706.19,172.74 710.66,172.64 715.14,172.54 719.61,172.45 724.08,172.35 728.55,172.26 733.02,172.18 737.50,172.09 741.97,172.00 746.44,171.92 750.91,171.84 755.38,171.76 759.86,171.69 764.33,171.61 768.80,171.54 773.27,171.47 777.74,171.40 782.22,171.33 786.69,171.26 791.16,171.19 795.63,171.13 800.10,171.07 804.58,171.01 809.05,170.95 813.52,170.89 817.99,170.83 822.46,170.78 826.94,170.72 831.41,170.67 835.88,170.62 840.35,170.57 844.82,170.52 849.30,170.47 853.77,170.43 858.24,170.38 862.71,170.34 867.18,170.29 871.66,170.25 876.13,170.21 880.60,170.17 885.07,170.13 889.54,170.09 894.02,170.05 898.49,170.01 902.96,169.98 907.43,169.94 911.90,169.91 916.38,169.87 920.85,169.84 925.32,169.81 929.79,169.77 934.26,169.74 938.74,169.71 943.21,169.68 947.68,169.65 952.15,169.63 956.62,169.60 961.10,169.57 965.57,169.55 970.04,169.52 974.51,169.50 978.98,169.47 983.46,169.45 987.93,169.42 992.40,169.40 996.87,169.38 1001.34,169.36 1005.82,169.34 1010.29,169.31 1014.76,169.29 1019.23,169.27 1023.70,169.26 1028.18,169.24 1032.65,169.22 1037.12,169.20 1041.59,169.18 1046.06,169.17 1050.54,169.15 1055.01,169.13 1059.48,169.12 1063.95,169.10 1068.42,169.08 1072.90,169.07 1077.37,169.06 1081.84,169.04 1086.31,168.44 1090.78,168.44 1095.26,168.44 1099.73,168.44 1104.20,168.44 1108.67,168.44 1113.14,168.44 1117.62,168.44 1122.09,168.44 1126.56,168.44 1131.03,168.44 1135.50,168.44 1139.98,168.44 1144.45,168.44 1148.92,168.44 1153.39,168.44 1157.86,168.44 1162.34,168.44 1166.81,168.44 1171.28,168.44 1175.75,168.44 1180.22,168.44 1184.70,168.44 1189.17,168.44 1193.64,168.44 1198.11,168.44 1202.58,168.44 1207.06,168.44 1211.53,168.44 1216.00,168.44" fill="none" stroke="#2458d3" stroke-width="1.8" stroke-linejoin="round" stroke-linecap="round" stroke-dasharray="8 5" />
<rect x="40.0" y="370.0" width="1200.0" height="250.0" fill="#fbfbfd" stroke="#d7dbe5" stroke-width="1.0" rx="8.0" />
<text x="56.0" y="394.0" fill="#1f2430" font-size="16" font-family="Segoe UI, Arial, sans-serif" font-weight="600" text-anchor="start">Output y[1]</text>
<text x="56.0" y="412.0" fill="#5d6574" font-size="12" font-family="Segoe UI, Arial, sans-serif" font-weight="400" text-anchor="start">Transient window 0-250 steps</text>
<line x1="98.0" y1="588.0" x2="1216.0" y2="588.0" stroke="#d7dbe5" stroke-width="1.0" stroke-dasharray="4 4" />
<text x="90.0" y="592.0" fill="#5d6574" font-size="11" font-family="Segoe UI, Arial, sans-serif" font-weight="400" text-anchor="end">314.449</text>
<line x1="98.0" y1="508.0" x2="1216.0" y2="508.0" stroke="#d7dbe5" stroke-width="1.0" stroke-dasharray="4 4" />
<text x="90.0" y="512.0" fill="#5d6574" font-size="11" font-family="Segoe UI, Arial, sans-serif" font-weight="400" text-anchor="end">321.747</text>
<line x1="98.0" y1="428.0" x2="1216.0" y2="428.0" stroke="#d7dbe5" stroke-width="1.0" stroke-dasharray="4 4" />
<text x="90.0" y="432.0" fill="#5d6574" font-size="11" font-family="Segoe UI, Arial, sans-serif" font-weight="400" text-anchor="end">329.045</text>
<line x1="98.0" y1="428.0" x2="98.0" y2="588.0" stroke="#d7dbe5" stroke-width="1.0" stroke-dasharray="4 4" />
<text x="98.0" y="606.0" fill="#5d6574" font-size="11" font-family="Segoe UI, Arial, sans-serif" font-weight="400" text-anchor="middle">0</text>
<line x1="657.0" y1="428.0" x2="657.0" y2="588.0" stroke="#d7dbe5" stroke-width="1.0" stroke-dasharray="4 4" />
<text x="657.0" y="606.0" fill="#5d6574" font-size="11" font-family="Segoe UI, Arial, sans-serif" font-weight="400" text-anchor="middle">125</text>
<line x1="1216.0" y1="428.0" x2="1216.0" y2="588.0" stroke="#d7dbe5" stroke-width="1.0" stroke-dasharray="4 4" />
<text x="1216.0" y="606.0" fill="#5d6574" font-size="11" font-family="Segoe UI, Arial, sans-serif" font-weight="400" text-anchor="middle">250</text>
<line x1="98.0" y1="428.0" x2="98.0" y2="588.0" stroke="#2d3440" stroke-width="1.2" />
<line x1="98.0" y1="588.0" x2="1216.0" y2="588.0" stroke="#2d3440" stroke-width="1.2" />
<text x="56.0" y="442.0" fill="#5d6574" font-size="12" font-family="Segoe UI, Arial, sans-serif" font-weight="400" text-anchor="start">physical</text>
<polyline points="98.00,483.30 102.47,483.30 106.94,483.30 111.42,483.30 115.89,483.30 120.36,483.30 124.83,483.30 129.30,483.30 133.78,483.30 138.25,483.30 142.72,483.30 147.19,483.30 151.66,483.30 156.14,483.30 160.61,483.30 165.08,483.30 169.55,483.30 174.02,483.30 178.50,483.30 182.97,483.30 187.44,483.30 191.91,483.30 196.38,483.30 200.86,483.30 205.33,483.30 209.80,483.30 214.27,483.30 218.74,483.30 223.22,483.30 227.69,483.30 232.16,483.30 236.63,483.30 241.10,483.30 245.58,483.30 250.05,483.30 254.52,483.30 258.99,483.30 263.46,483.30 267.94,483.30 272.41,483.30 276.88,483.30 281.35,483.30 285.82,483.30 290.30,483.30 294.77,483.30 299.24,483.30 303.71,483.30 308.18,483.30 312.66,483.30 317.13,483.30 321.60,483.30 326.07,483.30 330.54,483.30 335.02,483.30 339.49,483.30 343.96,483.30 348.43,483.30 352.90,483.30 357.38,483.30 361.85,483.30 366.32,483.30 370.79,483.30 375.26,483.30 379.74,483.30 384.21,483.30 388.68,483.30 393.15,483.30 397.62,483.30 402.10,483.30 406.57,483.30 411.04,483.30 415.51,483.30 419.98,483.30 424.46,483.30 428.93,483.30 433.40,483.30 437.87,483.30 442.34,483.30 446.82,483.30 451.29,483.30 455.76,483.30 460.23,483.30 464.70,483.30 469.18,483.30 473.65,483.30 478.12,483.30 482.59,483.30 487.06,483.30 491.54,483.30 496.01,483.30 500.48,483.30 504.95,483.30 509.42,483.30 513.90,483.30 518.37,483.30 522.84,483.30 527.31,483.30 531.78,483.30 536.26,483.30 540.73,483.30 545.20,483.30 549.67,483.30 554.14,483.30 558.62,483.30 563.09,483.30 567.56,483.30 572.03,483.30 576.50,483.30 580.98,483.30 585.45,483.30 589.92,483.30 594.39,483.30 598.86,483.30 603.34,483.30 607.81,483.30 612.28,483.30 616.75,483.30 621.22,483.30 625.70,483.30 630.17,483.30 634.64,483.30 639.11,483.30 643.58,483.30 648.06,483.30 652.53,483.30 657.00,483.30 661.47,483.30 665.94,483.30 670.42,483.30 674.89,483.30 679.36,483.30 683.83,483.30 688.30,483.30 692.78,483.30 697.25,483.30 701.72,483.30 706.19,483.30 710.66,483.30 715.14,483.30 719.61,483.30 724.08,483.30 728.55,483.30 733.02,483.30 737.50,483.30 741.97,483.30 746.44,483.30 750.91,483.30 755.38,483.30 759.86,483.30 764.33,483.30 768.80,483.30 773.27,483.30 777.74,483.30 782.22,483.30 786.69,483.30 791.16,483.30 795.63,483.30 800.10,483.30 804.58,483.30 809.05,483.30 813.52,483.30 817.99,483.30 822.46,483.30 826.94,483.30 831.41,483.30 835.88,483.30 840.35,483.30 844.82,483.30 849.30,483.30 853.77,483.30 858.24,483.30 862.71,483.30 867.18,483.30 871.66,483.30 876.13,483.30 880.60,483.30 885.07,483.30 889.54,483.30 894.02,483.30 898.49,483.30 902.96,483.30 907.43,483.30 911.90,483.30 916.38,483.30 920.85,483.30 925.32,483.30 929.79,483.30 934.26,483.30 938.74,483.30 943.21,483.30 947.68,483.30 952.15,483.30 956.62,483.30 961.10,483.30 965.57,483.30 970.04,483.30 974.51,483.30 978.98,483.30 983.46,483.30 987.93,483.30 992.40,483.30 996.87,483.30 1001.34,483.30 1005.82,483.30 1010.29,483.30 1014.76,483.30 1019.23,483.30 1023.70,483.30 1028.18,483.30 1032.65,483.30 1037.12,483.30 1041.59,483.30 1046.06,483.30 1050.54,483.30 1055.01,483.30 1059.48,483.30 1063.95,483.30 1068.42,483.30 1072.90,483.30 1077.37,483.30 1081.84,483.30 1086.31,483.30 1090.78,483.30 1095.26,483.30 1099.73,483.30 1104.20,483.30 1108.67,483.30 1113.14,483.30 1117.62,483.30 1122.09,483.30 1126.56,483.30 1131.03,483.30 1135.50,483.30 1139.98,483.30 1144.45,483.30 1148.92,483.30 1153.39,483.30 1157.86,483.30 1162.34,483.30 1166.81,483.30 1171.28,483.30 1175.75,483.30 1180.22,483.30 1184.70,483.30 1189.17,483.30 1193.64,483.30 1198.11,483.30 1202.58,483.30 1207.06,483.30 1211.53,483.30 1216.00,483.30" fill="none" stroke="#2d3440" stroke-width="1.6" stroke-linejoin="round" stroke-linecap="round" stroke-dasharray="4 4" />
<polyline points="98.00,487.64 102.47,487.53 106.94,487.31 111.42,487.00 115.89,486.58 120.36,486.07 124.83,485.49 129.30,484.84 133.78,484.13 138.25,483.37 142.72,482.58 147.19,481.77 151.66,480.95 156.14,480.12 160.61,479.30 165.08,478.50 169.55,477.72 174.02,476.96 178.50,476.24 182.97,475.56 187.44,474.92 191.91,474.33 196.38,473.78 200.86,473.28 205.33,472.83 209.80,472.43 214.27,472.08 218.74,471.49 223.22,470.49 227.69,469.28 232.16,467.96 236.63,466.56 241.10,465.14 245.58,463.73 250.05,462.37 254.52,461.06 258.99,459.83 263.46,458.70 267.94,457.66 272.41,456.74 276.88,455.93 281.35,455.24 285.82,454.66 290.30,454.21 294.77,453.87 299.24,453.64 303.71,453.52 308.18,453.51 312.66,453.60 317.13,453.78 321.60,454.05 326.07,454.40 330.54,454.81 335.02,455.29 339.49,455.81 343.96,456.39 348.43,456.99 352.90,457.62 357.38,458.27 361.85,458.93 366.32,459.59 370.79,460.25 375.26,460.90 379.74,461.54 384.21,462.16 388.68,462.76 393.15,463.33 397.62,463.88 402.10,464.40 406.57,464.90 411.04,465.36 415.51,465.80 419.98,466.22 424.46,466.61 428.93,466.97 433.40,467.31 437.87,467.63 442.34,467.93 446.82,468.22 451.29,468.49 455.76,468.75 460.23,469.00 464.70,469.24 469.18,469.47 473.65,469.69 478.12,469.91 482.59,470.13 487.06,470.35 491.54,470.56 496.01,470.82 500.48,471.57 504.95,472.43 509.42,473.32 513.90,474.21 518.37,475.08 522.84,475.91 527.31,476.69 531.78,477.41 536.26,478.07 540.73,478.66 545.20,479.18 549.67,479.62 554.14,480.00 558.62,480.31 563.09,480.55 567.56,480.74 572.03,480.87 576.50,480.95 580.98,480.98 585.45,481.00 589.92,482.91 594.39,487.33 598.86,491.95 603.34,496.61 607.81,501.13 612.28,505.38 616.75,509.24 621.22,512.63 625.70,515.47 630.17,517.74 634.64,519.42 639.11,520.90 643.58,521.82 648.06,522.20 652.53,522.08 657.00,521.89 661.47,521.67 665.94,521.42 670.42,521.16 674.89,520.90 679.36,520.64 683.83,519.51 688.30,518.07 692.78,516.38 697.25,514.48 701.72,512.41 706.19,510.23 710.66,507.97 715.14,505.67 719.61,503.36 724.08,501.07 728.55,498.84 733.02,496.67 737.50,494.58 741.97,492.60 746.44,490.73 750.91,488.98 755.38,487.36 759.86,485.86 764.33,484.49 768.80,483.24 773.27,482.11 777.74,481.11 782.22,480.21 786.69,479.43 791.16,478.75 795.63,478.17 800.10,477.68 804.58,477.27 809.05,476.94 813.52,476.69 817.99,476.50 822.46,476.37 826.94,476.30 831.41,476.28 835.88,476.30 840.35,476.35 844.82,476.44 849.30,476.56 853.77,476.70 858.24,476.86 862.71,477.03 867.18,477.21 871.66,477.40 876.13,477.60 880.60,477.80 885.07,477.99 889.54,478.19 894.02,478.38 898.49,478.56 902.96,478.74 907.43,478.91 911.90,479.07 916.38,479.22 920.85,479.36 925.32,479.49 929.79,479.61 934.26,479.72 938.74,479.82 943.21,479.91 947.68,480.00 952.15,480.07 956.62,480.14 961.10,480.20 965.57,480.26 970.04,480.31 974.51,480.35 978.98,480.39 983.46,480.43 987.93,480.46 992.40,480.62 996.87,480.99 1001.34,481.35 1005.82,481.70 1010.29,482.03 1014.76,482.34 1019.23,482.61 1023.70,482.85 1028.18,483.06 1032.65,483.24 1037.12,483.38 1041.59,483.49 1046.06,483.58 1050.54,483.63 1055.01,483.65 1059.48,483.65 1063.95,483.63 1068.42,483.59 1072.90,484.09 1077.37,484.38 1081.84,484.57 1086.31,484.67 1090.78,484.71 1095.26,484.68 1099.73,484.59 1104.20,484.46 1108.67,484.30 1113.14,484.10 1117.62,483.87 1122.09,483.62 1126.56,483.36 1131.03,483.08 1135.50,482.79 1139.98,482.50 1144.45,482.20 1148.92,481.91 1153.39,481.61 1157.86,481.32 1162.34,481.04 1166.81,480.76 1171.28,480.50 1175.75,480.24 1180.22,480.00 1184.70,479.77 1189.17,479.55 1193.64,479.35 1198.11,479.16 1202.58,478.99 1207.06,478.83 1211.53,478.68 1216.00,478.56" fill="none" stroke="#bf1e2d" stroke-width="2.2" stroke-linejoin="round" stroke-linecap="round" />
<polyline points="98.00,487.60 102.47,487.56 106.94,486.79 111.42,485.40 115.89,483.64 120.36,481.67 124.83,479.64 129.30,477.62 133.78,475.67 138.25,473.83 142.72,472.12 147.19,470.57 151.66,469.18 156.14,467.96 160.61,466.91 165.08,466.03 169.55,465.32 174.02,464.77 178.50,464.36 182.97,464.10 187.44,463.97 191.91,463.96 196.38,464.05 200.86,464.24 205.33,464.51 209.80,464.85 214.27,465.26 218.74,465.46 223.22,463.71 227.69,459.57 232.16,454.80 236.63,450.39 241.10,446.71 245.58,443.83 250.05,441.72 254.52,440.28 258.99,439.41 263.46,439.03 267.94,439.07 272.41,439.46 276.88,440.15 281.35,441.08 285.82,442.23 290.30,443.55 294.77,445.01 299.24,446.60 303.71,448.27 308.18,450.01 312.66,451.80 317.13,453.60 321.60,455.41 326.07,457.19 330.54,458.93 335.02,460.62 339.49,462.23 343.96,463.75 348.43,465.17 352.90,466.47 357.38,467.67 361.85,468.74 366.32,469.69 370.79,470.52 375.26,471.23 379.74,471.83 384.21,472.32 388.68,472.71 393.15,473.01 397.62,473.23 402.10,473.38 406.57,473.48 411.04,473.52 415.51,473.52 419.98,473.50 424.46,473.45 428.93,473.40 433.40,473.33 437.87,473.27 442.34,473.22 446.82,473.17 451.29,473.15 455.76,473.14 460.23,473.15 464.70,473.18 469.18,473.23 473.65,473.31 478.12,473.40 482.59,473.52 487.06,473.66 491.54,473.82 496.01,474.02 500.48,474.80 504.95,478.58 509.42,482.51 513.90,485.50 518.37,487.55 522.84,488.88 527.31,489.65 531.78,490.01 536.26,490.04 540.73,489.82 545.20,489.40 549.67,488.81 554.14,488.11 558.62,487.32 563.09,486.48 567.56,485.61 572.03,484.73 576.50,483.87 580.98,483.04 585.45,482.27 589.92,482.47 594.39,495.93 598.86,523.73 603.34,546.54 607.81,562.00 612.28,571.35 616.75,575.99 621.22,576.97 625.70,575.03 630.17,570.78 634.64,564.74 639.11,557.49 643.58,551.76 648.06,545.05 652.53,537.27 657.00,528.99 661.47,523.22 665.94,519.67 670.42,517.56 674.89,516.33 679.36,515.62 683.83,514.99 688.30,508.59 692.78,501.18 697.25,494.10 701.72,487.66 706.19,481.94 710.66,476.91 715.14,472.57 719.61,468.88 724.08,465.82 728.55,463.35 733.02,461.44 737.50,460.02 741.97,459.06 746.44,458.51 750.91,458.30 755.38,458.40 759.86,458.75 764.33,459.31 768.80,460.04 773.27,460.90 777.74,461.86 782.22,462.90 786.69,463.99 791.16,465.10 795.63,466.24 800.10,467.37 804.58,468.50 809.05,469.60 813.52,470.68 817.99,471.73 822.46,472.73 826.94,473.69 831.41,474.60 835.88,475.46 840.35,476.27 844.82,477.02 849.30,477.71 853.77,478.35 858.24,478.93 862.71,479.45 867.18,479.91 871.66,480.32 876.13,480.68 880.60,480.98 885.07,481.24 889.54,481.45 894.02,481.62 898.49,481.75 902.96,481.85 907.43,481.91 911.90,481.95 916.38,481.96 920.85,481.95 925.32,481.93 929.79,481.89 934.26,481.83 938.74,481.77 943.21,481.71 947.68,481.63 952.15,481.56 956.62,481.49 961.10,481.42 965.57,481.35 970.04,481.29 974.51,481.23 978.98,481.18 983.46,481.13 987.93,481.09 992.40,481.11 996.87,482.02 1001.34,484.20 1005.82,485.87 1010.29,486.87 1014.76,487.37 1019.23,487.54 1023.70,487.51 1028.18,487.33 1032.65,487.06 1037.12,486.71 1041.59,486.32 1046.06,485.90 1050.54,485.45 1055.01,485.00 1059.48,484.54 1063.95,484.09 1068.42,483.65 1072.90,483.38 1077.37,486.73 1081.84,488.25 1086.31,488.33 1090.78,487.63 1095.26,486.60 1099.73,485.47 1104.20,484.37 1108.67,483.33 1113.14,482.37 1117.62,481.50 1122.09,480.72 1126.56,480.01 1131.03,479.37 1135.50,478.80 1139.98,478.29 1144.45,477.83 1148.92,477.44 1153.39,477.09 1157.86,476.79 1162.34,476.54 1166.81,476.33 1171.28,476.16 1175.75,476.03 1180.22,475.93 1184.70,475.87 1189.17,475.84 1193.64,475.84 1198.11,475.86 1202.58,475.91 1207.06,475.97 1211.53,476.06 1216.00,476.16" fill="none" stroke="#bf1e2d" stroke-width="1.8" stroke-linejoin="round" stroke-linecap="round" stroke-dasharray="8 5" />
<polyline points="98.00,487.64 102.47,487.53 106.94,487.31 111.42,487.00 115.89,486.58 120.36,486.07 124.83,485.49 129.30,484.84 133.78,484.13 138.25,483.37 142.72,482.58 147.19,481.77 151.66,480.95 156.14,480.12 160.61,479.30 165.08,478.50 169.55,477.72 174.02,476.96 178.50,476.24 182.97,475.56 187.44,474.92 191.91,474.33 196.38,473.78 200.86,473.28 205.33,472.83 209.80,472.43 214.27,472.08 218.74,471.78 223.22,471.52 227.69,471.31 232.16,471.15 236.63,471.02 241.10,470.94 245.58,470.89 250.05,470.88 254.52,470.90 258.99,470.95 263.46,471.03 267.94,471.13 272.41,471.26 276.88,471.40 281.35,471.56 285.82,471.73 290.30,471.92 294.77,472.11 299.24,472.31 303.71,472.52 308.18,472.74 312.66,472.95 317.13,473.17 321.60,473.39 326.07,473.60 330.54,473.82 335.02,474.03 339.49,474.24 343.96,474.44 348.43,474.64 352.90,474.84 357.38,475.02 361.85,475.21 366.32,475.39 370.79,475.56 375.26,475.73 379.74,475.89 384.21,476.05 388.68,476.20 393.15,476.35 397.62,476.50 402.10,476.64 406.57,476.77 411.04,476.90 415.51,477.03 419.98,477.16 424.46,477.28 428.93,477.40 433.40,477.52 437.87,477.63 442.34,477.75 446.82,477.86 451.29,477.97 455.76,478.07 460.23,478.18 464.70,478.28 469.18,478.38 473.65,478.48 478.12,478.58 482.59,478.68 487.06,478.78 491.54,478.88 496.01,478.97 500.48,479.06 504.95,479.16 509.42,479.25 513.90,479.34 518.37,479.42 522.84,479.51 527.31,479.60 531.78,479.68 536.26,479.76 540.73,479.85 545.20,479.93 549.67,480.00 554.14,480.08 558.62,480.16 563.09,480.23 567.56,480.30 572.03,480.38 576.50,480.45 580.98,480.51 585.45,480.58 589.92,480.65 594.39,480.71 598.86,480.77 603.34,480.84 607.81,480.89 612.28,480.95 616.75,481.01 621.22,481.07 625.70,481.12 630.17,481.17 634.64,481.22 639.11,481.27 643.58,481.32 648.06,481.37 652.53,481.42 657.00,481.46 661.47,481.51 665.94,481.55 670.42,481.59 674.89,481.63 679.36,481.67 683.83,481.71 688.30,481.75 692.78,481.79 697.25,481.83 701.72,481.86 706.19,481.89 710.66,481.93 715.14,481.96 719.61,481.99 724.08,482.02 728.55,482.05 733.02,482.08 737.50,482.11 741.97,482.14 746.44,482.17 750.91,482.20 755.38,482.22 759.86,482.25 764.33,482.27 768.80,482.30 773.27,482.32 777.74,482.35 782.22,482.37 786.69,482.39 791.16,482.41 795.63,482.43 800.10,482.45 804.58,482.47 809.05,482.49 813.52,482.51 817.99,482.53 822.46,482.55 826.94,482.57 831.41,482.59 835.88,482.60 840.35,482.62 844.82,482.64 849.30,482.65 853.77,482.67 858.24,482.68 862.71,482.70 867.18,482.71 871.66,482.73 876.13,482.74 880.60,482.75 885.07,482.77 889.54,482.78 894.02,482.79 898.49,482.80 902.96,482.81 907.43,482.83 911.90,482.84 916.38,482.85 920.85,482.86 925.32,482.87 929.79,482.88 934.26,482.89 938.74,482.90 943.21,482.91 947.68,482.92 952.15,482.93 956.62,482.94 961.10,482.95 965.57,482.95 970.04,482.96 974.51,482.97 978.98,482.98 983.46,482.99 987.93,482.99 992.40,483.00 996.87,483.01 1001.34,483.01 1005.82,483.02 1010.29,483.03 1014.76,483.03 1019.23,483.04 1023.70,483.05 1028.18,483.05 1032.65,483.06 1037.12,483.06 1041.59,483.07 1046.06,483.08 1050.54,483.08 1055.01,483.09 1059.48,483.09 1063.95,483.10 1068.42,483.10 1072.90,483.11 1077.37,483.11 1081.84,483.11 1086.31,483.12 1090.78,483.16 1095.26,483.20 1099.73,483.24 1104.20,483.28 1108.67,483.32 1113.14,483.36 1117.62,483.40 1122.09,483.43 1126.56,483.46 1131.03,483.48 1135.50,483.50 1139.98,483.52 1144.45,483.54 1148.92,483.55 1153.39,483.56 1157.86,483.56 1162.34,483.56 1166.81,483.56 1171.28,483.56 1175.75,483.56 1180.22,483.55 1184.70,483.54 1189.17,483.54 1193.64,483.53 1198.11,483.52 1202.58,483.51 1207.06,483.50 1211.53,483.49 1216.00,483.48" fill="none" stroke="#c96b17" stroke-width="2.2" stroke-linejoin="round" stroke-linecap="round" />
<polyline points="98.00,487.60 102.47,487.56 106.94,486.79 111.42,485.40 115.89,483.64 120.36,481.67 124.83,479.64 129.30,477.62 133.78,475.67 138.25,473.83 142.72,472.12 147.19,470.57 151.66,469.18 156.14,467.96 160.61,466.91 165.08,466.03 169.55,465.32 174.02,464.77 178.50,464.36 182.97,464.10 187.44,463.97 191.91,463.96 196.38,464.05 200.86,464.24 205.33,464.51 209.80,464.85 214.27,465.26 218.74,465.72 223.22,466.23 227.69,466.77 232.16,467.33 236.63,467.92 241.10,468.51 245.58,469.12 250.05,469.72 254.52,470.32 258.99,470.90 263.46,471.48 267.94,472.04 272.41,472.57 276.88,473.09 281.35,473.58 285.82,474.04 290.30,474.48 294.77,474.89 299.24,475.28 303.71,475.63 308.18,475.96 312.66,476.27 317.13,476.55 321.60,476.80 326.07,477.03 330.54,477.24 335.02,477.43 339.49,477.60 343.96,477.75 348.43,477.89 352.90,478.02 357.38,478.13 361.85,478.24 366.32,478.33 370.79,478.42 375.26,478.50 379.74,478.57 384.21,478.65 388.68,478.72 393.15,478.78 397.62,478.85 402.10,478.91 406.57,478.98 411.04,479.04 415.51,479.11 419.98,479.17 424.46,479.24 428.93,479.31 433.40,479.38 437.87,479.45 442.34,479.52 446.82,479.59 451.29,479.66 455.76,479.74 460.23,479.81 464.70,479.89 469.18,479.97 473.65,480.04 478.12,480.12 482.59,480.20 487.06,480.27 491.54,480.35 496.01,480.43 500.48,480.50 504.95,480.57 509.42,480.64 513.90,480.72 518.37,480.79 522.84,480.85 527.31,480.92 531.78,480.98 536.26,481.05 540.73,481.11 545.20,481.17 549.67,481.23 554.14,481.28 558.62,481.34 563.09,481.39 567.56,481.44 572.03,481.49 576.50,481.54 580.98,481.59 585.45,481.63 589.92,481.67 594.39,481.71 598.86,481.76 603.34,481.79 607.81,481.83 612.28,481.87 616.75,481.90 621.22,481.94 625.70,481.97 630.17,482.00 634.64,482.03 639.11,482.06 643.58,482.09 648.06,482.12 652.53,482.15 657.00,482.18 661.47,482.20 665.94,482.23 670.42,482.25 674.89,482.28 679.36,482.30 683.83,482.33 688.30,482.35 692.78,482.37 697.25,482.39 701.72,482.41 706.19,482.43 710.66,482.45 715.14,482.47 719.61,482.49 724.08,482.51 728.55,482.53 733.02,482.55 737.50,482.57 741.97,482.58 746.44,482.60 750.91,482.62 755.38,482.63 759.86,482.65 764.33,482.66 768.80,482.68 773.27,482.69 777.74,482.71 782.22,482.72 786.69,482.74 791.16,482.75 795.63,482.76 800.10,482.78 804.58,482.79 809.05,482.80 813.52,482.81 817.99,482.82 822.46,482.84 826.94,482.85 831.41,482.86 835.88,482.87 840.35,482.88 844.82,482.89 849.30,482.90 853.77,482.91 858.24,482.92 862.71,482.93 867.18,482.94 871.66,482.94 876.13,482.95 880.60,482.96 885.07,482.97 889.54,482.98 894.02,482.98 898.49,482.99 902.96,483.00 907.43,483.01 911.90,483.01 916.38,483.02 920.85,483.03 925.32,483.03 929.79,483.04 934.26,483.05 938.74,483.05 943.21,483.06 947.68,483.06 952.15,483.07 956.62,483.07 961.10,483.08 965.57,483.09 970.04,483.09 974.51,483.10 978.98,483.10 983.46,483.10 987.93,483.11 992.40,483.11 996.87,483.12 1001.34,483.12 1005.82,483.13 1010.29,483.13 1014.76,483.13 1019.23,483.14 1023.70,483.14 1028.18,483.15 1032.65,483.15 1037.12,483.15 1041.59,483.16 1046.06,483.16 1050.54,483.16 1055.01,483.17 1059.48,483.17 1063.95,483.17 1068.42,483.18 1072.90,483.18 1077.37,483.18 1081.84,483.18 1086.31,483.30 1090.78,483.30 1095.26,483.30 1099.73,483.30 1104.20,483.80 1108.67,483.90 1113.14,483.97 1117.62,484.00 1122.09,484.01 1126.56,484.01 1131.03,483.99 1135.50,483.96 1139.98,483.93 1144.45,483.88 1148.92,483.84 1153.39,483.79 1157.86,483.74 1162.34,483.69 1166.81,483.65 1171.28,483.60 1175.75,483.56 1180.22,483.52 1184.70,483.30 1189.17,483.30 1193.64,483.30 1198.11,483.30 1202.58,483.30 1207.06,483.30 1211.53,483.30 1216.00,483.30" fill="none" stroke="#c96b17" stroke-width="1.8" stroke-linejoin="round" stroke-linecap="round" stroke-dasharray="8 5" />
<polyline points="98.00,487.64 102.47,487.53 106.94,487.31 111.42,487.00 115.89,486.58 120.36,486.07 124.83,485.49 129.30,484.84 133.78,484.13 138.25,483.37 142.72,482.58 147.19,481.77 151.66,480.95 156.14,480.12 160.61,479.30 165.08,478.50 169.55,477.72 174.02,476.96 178.50,476.24 182.97,475.56 187.44,474.92 191.91,474.33 196.38,473.78 200.86,473.28 205.33,472.83 209.80,472.43 214.27,472.08 218.74,471.78 223.22,471.52 227.69,471.31 232.16,471.15 236.63,471.02 241.10,470.94 245.58,470.89 250.05,470.88 254.52,470.90 258.99,470.95 263.46,471.03 267.94,471.13 272.41,471.26 276.88,471.40 281.35,471.56 285.82,471.73 290.30,471.92 294.77,472.11 299.24,472.31 303.71,472.52 308.18,472.74 312.66,472.95 317.13,473.17 321.60,473.39 326.07,473.60 330.54,473.82 335.02,474.03 339.49,474.24 343.96,474.44 348.43,474.64 352.90,474.84 357.38,475.02 361.85,475.21 366.32,475.39 370.79,475.56 375.26,475.73 379.74,475.89 384.21,476.05 388.68,476.20 393.15,476.35 397.62,476.50 402.10,476.64 406.57,476.77 411.04,476.90 415.51,477.03 419.98,477.16 424.46,477.28 428.93,477.40 433.40,477.52 437.87,477.63 442.34,477.75 446.82,477.86 451.29,477.97 455.76,478.07 460.23,478.18 464.70,478.28 469.18,478.38 473.65,478.48 478.12,478.58 482.59,478.68 487.06,478.78 491.54,478.88 496.01,478.97 500.48,479.06 504.95,479.16 509.42,479.25 513.90,479.34 518.37,479.42 522.84,479.51 527.31,479.60 531.78,479.68 536.26,479.76 540.73,479.85 545.20,479.93 549.67,480.00 554.14,480.08 558.62,480.16 563.09,480.23 567.56,480.30 572.03,480.38 576.50,480.45 580.98,480.51 585.45,480.58 589.92,480.65 594.39,480.71 598.86,480.77 603.34,480.84 607.81,480.89 612.28,480.95 616.75,481.01 621.22,481.07 625.70,481.12 630.17,481.17 634.64,481.22 639.11,481.27 643.58,481.32 648.06,481.37 652.53,481.42 657.00,481.46 661.47,481.51 665.94,481.55 670.42,481.59 674.89,481.63 679.36,481.67 683.83,481.71 688.30,481.75 692.78,481.79 697.25,481.83 701.72,481.86 706.19,481.89 710.66,481.93 715.14,481.96 719.61,481.99 724.08,482.02 728.55,482.05 733.02,482.08 737.50,482.11 741.97,482.14 746.44,482.17 750.91,482.20 755.38,482.22 759.86,482.25 764.33,482.27 768.80,482.30 773.27,482.32 777.74,482.35 782.22,482.37 786.69,482.39 791.16,482.41 795.63,482.43 800.10,482.45 804.58,482.47 809.05,482.49 813.52,482.51 817.99,482.53 822.46,482.55 826.94,482.57 831.41,482.59 835.88,482.60 840.35,482.62 844.82,482.64 849.30,482.65 853.77,482.67 858.24,482.68 862.71,482.70 867.18,482.71 871.66,482.73 876.13,482.74 880.60,482.75 885.07,482.77 889.54,482.78 894.02,482.79 898.49,482.80 902.96,482.81 907.43,482.83 911.90,482.84 916.38,482.85 920.85,482.86 925.32,482.87 929.79,482.88 934.26,482.89 938.74,482.90 943.21,482.91 947.68,482.92 952.15,482.93 956.62,482.94 961.10,482.95 965.57,482.95 970.04,482.96 974.51,482.97 978.98,482.98 983.46,482.99 987.93,482.99 992.40,483.00 996.87,483.01 1001.34,483.01 1005.82,483.02 1010.29,483.03 1014.76,483.03 1019.23,483.04 1023.70,483.05 1028.18,483.05 1032.65,483.06 1037.12,483.06 1041.59,483.07 1046.06,483.08 1050.54,483.08 1055.01,483.09 1059.48,483.09 1063.95,483.10 1068.42,483.10 1072.90,483.11 1077.37,483.11 1081.84,483.11 1086.31,483.12 1090.78,483.13 1095.26,483.14 1099.73,483.15 1104.20,483.15 1108.67,483.16 1113.14,483.17 1117.62,483.18 1122.09,483.19 1126.56,483.21 1131.03,483.26 1135.50,483.31 1139.98,483.36 1144.45,483.41 1148.92,483.46 1153.39,483.51 1157.86,483.56 1162.34,483.60 1166.81,483.64 1171.28,483.67 1175.75,483.70 1180.22,483.72 1184.70,483.74 1189.17,483.76 1193.64,483.77 1198.11,483.77 1202.58,483.77 1207.06,483.77 1211.53,483.77 1216.00,483.77" fill="none" stroke="#2a7f62" stroke-width="2.2" stroke-linejoin="round" stroke-linecap="round" />
<polyline points="98.00,487.60 102.47,487.56 106.94,486.79 111.42,485.40 115.89,483.64 120.36,481.67 124.83,479.64 129.30,477.62 133.78,475.67 138.25,473.83 142.72,472.12 147.19,470.57 151.66,469.18 156.14,467.96 160.61,466.91 165.08,466.03 169.55,465.32 174.02,464.77 178.50,464.36 182.97,464.10 187.44,463.97 191.91,463.96 196.38,464.05 200.86,464.24 205.33,464.51 209.80,464.85 214.27,465.26 218.74,465.72 223.22,466.23 227.69,466.77 232.16,467.33 236.63,467.92 241.10,468.51 245.58,469.12 250.05,469.72 254.52,470.32 258.99,470.90 263.46,471.48 267.94,472.04 272.41,472.57 276.88,473.09 281.35,473.58 285.82,474.04 290.30,474.48 294.77,474.89 299.24,475.28 303.71,475.63 308.18,475.96 312.66,476.27 317.13,476.55 321.60,476.80 326.07,477.03 330.54,477.24 335.02,477.43 339.49,477.60 343.96,477.75 348.43,477.89 352.90,478.02 357.38,478.13 361.85,478.24 366.32,478.33 370.79,478.42 375.26,478.50 379.74,478.57 384.21,478.65 388.68,478.72 393.15,478.78 397.62,478.85 402.10,478.91 406.57,478.98 411.04,479.04 415.51,479.11 419.98,479.17 424.46,479.24 428.93,479.31 433.40,479.38 437.87,479.45 442.34,479.52 446.82,479.59 451.29,479.66 455.76,479.74 460.23,479.81 464.70,479.89 469.18,479.97 473.65,480.04 478.12,480.12 482.59,480.20 487.06,480.27 491.54,480.35 496.01,480.43 500.48,480.50 504.95,480.57 509.42,480.64 513.90,480.72 518.37,480.79 522.84,480.85 527.31,480.92 531.78,480.98 536.26,481.05 540.73,481.11 545.20,481.17 549.67,481.23 554.14,481.28 558.62,481.34 563.09,481.39 567.56,481.44 572.03,481.49 576.50,481.54 580.98,481.59 585.45,481.63 589.92,481.67 594.39,481.71 598.86,481.76 603.34,481.79 607.81,481.83 612.28,481.87 616.75,481.90 621.22,481.94 625.70,481.97 630.17,482.00 634.64,482.03 639.11,482.06 643.58,482.09 648.06,482.12 652.53,482.15 657.00,482.18 661.47,482.20 665.94,482.23 670.42,482.25 674.89,482.28 679.36,482.30 683.83,482.33 688.30,482.35 692.78,482.37 697.25,482.39 701.72,482.41 706.19,482.43 710.66,482.45 715.14,482.47 719.61,482.49 724.08,482.51 728.55,482.53 733.02,482.55 737.50,482.57 741.97,482.58 746.44,482.60 750.91,482.62 755.38,482.63 759.86,482.65 764.33,482.66 768.80,482.68 773.27,482.69 777.74,482.71 782.22,482.72 786.69,482.74 791.16,482.75 795.63,482.76 800.10,482.78 804.58,482.79 809.05,482.80 813.52,482.81 817.99,482.82 822.46,482.84 826.94,482.85 831.41,482.86 835.88,482.87 840.35,482.88 844.82,482.89 849.30,482.90 853.77,482.91 858.24,482.92 862.71,482.93 867.18,482.94 871.66,482.94 876.13,482.95 880.60,482.96 885.07,482.97 889.54,482.98 894.02,482.98 898.49,482.99 902.96,483.00 907.43,483.01 911.90,483.01 916.38,483.02 920.85,483.03 925.32,483.03 929.79,483.04 934.26,483.05 938.74,483.05 943.21,483.06 947.68,483.06 952.15,483.07 956.62,483.07 961.10,483.08 965.57,483.09 970.04,483.09 974.51,483.10 978.98,483.10 983.46,483.10 987.93,483.11 992.40,483.11 996.87,483.12 1001.34,483.12 1005.82,483.13 1010.29,483.13 1014.76,483.13 1019.23,483.14 1023.70,483.14 1028.18,483.15 1032.65,483.15 1037.12,483.15 1041.59,483.16 1046.06,483.16 1050.54,483.16 1055.01,483.17 1059.48,483.17 1063.95,483.17 1068.42,483.18 1072.90,483.18 1077.37,483.18 1081.84,483.18 1086.31,483.30 1090.78,483.30 1095.26,483.30 1099.73,483.30 1104.20,483.30 1108.67,483.30 1113.14,483.30 1117.62,483.30 1122.09,483.30 1126.56,483.30 1131.03,483.30 1135.50,483.30 1139.98,483.92 1144.45,484.09 1148.92,484.21 1153.39,484.29 1157.86,484.33 1162.34,484.35 1166.81,484.34 1171.28,484.32 1175.75,484.28 1180.22,484.23 1184.70,484.18 1189.17,484.12 1193.64,484.06 1198.11,484.00 1202.58,483.94 1207.06,483.88 1211.53,483.82 1216.00,483.30" fill="none" stroke="#2a7f62" stroke-width="1.8" stroke-linejoin="round" stroke-linecap="round" stroke-dasharray="8 5" />
<polyline points="98.00,487.64 102.47,487.53 106.94,487.31 111.42,487.00 115.89,486.58 120.36,486.07 124.83,485.49 129.30,484.84 133.78,484.13 138.25,483.37 142.72,482.58 147.19,481.77 151.66,480.95 156.14,480.12 160.61,479.30 165.08,478.50 169.55,477.72 174.02,476.96 178.50,476.24 182.97,475.56 187.44,474.92 191.91,474.33 196.38,473.78 200.86,473.28 205.33,472.83 209.80,472.43 214.27,472.08 218.74,471.78 223.22,471.52 227.69,471.31 232.16,471.15 236.63,471.02 241.10,470.94 245.58,470.89 250.05,470.88 254.52,470.90 258.99,470.95 263.46,471.03 267.94,471.13 272.41,471.26 276.88,471.40 281.35,471.56 285.82,471.73 290.30,471.92 294.77,472.11 299.24,472.31 303.71,472.52 308.18,472.74 312.66,472.95 317.13,473.17 321.60,473.39 326.07,473.60 330.54,473.82 335.02,474.03 339.49,474.24 343.96,474.44 348.43,474.64 352.90,474.84 357.38,475.02 361.85,475.21 366.32,475.39 370.79,475.56 375.26,475.73 379.74,475.89 384.21,476.05 388.68,476.20 393.15,476.35 397.62,476.50 402.10,476.64 406.57,476.77 411.04,476.90 415.51,477.03 419.98,477.16 424.46,477.28 428.93,477.40 433.40,477.52 437.87,477.63 442.34,477.75 446.82,477.86 451.29,477.97 455.76,478.07 460.23,478.18 464.70,478.28 469.18,478.38 473.65,478.48 478.12,478.58 482.59,478.68 487.06,478.78 491.54,478.88 496.01,478.97 500.48,479.06 504.95,479.16 509.42,479.25 513.90,479.34 518.37,479.42 522.84,479.51 527.31,479.60 531.78,479.68 536.26,479.76 540.73,479.85 545.20,479.93 549.67,480.00 554.14,480.08 558.62,480.16 563.09,480.23 567.56,480.30 572.03,480.38 576.50,480.45 580.98,480.51 585.45,480.58 589.92,480.65 594.39,480.71 598.86,480.77 603.34,480.84 607.81,480.89 612.28,480.95 616.75,481.01 621.22,481.07 625.70,481.12 630.17,481.17 634.64,481.22 639.11,481.27 643.58,481.32 648.06,481.37 652.53,481.42 657.00,481.46 661.47,481.51 665.94,481.55 670.42,481.59 674.89,481.63 679.36,481.67 683.83,481.71 688.30,481.75 692.78,481.79 697.25,481.83 701.72,481.86 706.19,481.89 710.66,481.93 715.14,481.96 719.61,481.99 724.08,482.02 728.55,482.05 733.02,482.08 737.50,482.11 741.97,482.14 746.44,482.17 750.91,482.20 755.38,482.22 759.86,482.25 764.33,482.27 768.80,482.30 773.27,482.32 777.74,482.35 782.22,482.37 786.69,482.39 791.16,482.41 795.63,482.43 800.10,482.45 804.58,482.47 809.05,482.49 813.52,482.51 817.99,482.53 822.46,482.55 826.94,482.57 831.41,482.59 835.88,482.60 840.35,482.62 844.82,482.64 849.30,482.65 853.77,482.67 858.24,482.68 862.71,482.70 867.18,482.71 871.66,482.73 876.13,482.74 880.60,482.75 885.07,482.77 889.54,482.78 894.02,482.79 898.49,482.80 902.96,482.81 907.43,482.83 911.90,482.84 916.38,482.85 920.85,482.86 925.32,482.87 929.79,482.88 934.26,482.89 938.74,482.90 943.21,482.91 947.68,482.92 952.15,482.93 956.62,482.94 961.10,482.95 965.57,482.95 970.04,482.96 974.51,482.97 978.98,482.98 983.46,482.99 987.93,482.99 992.40,483.00 996.87,483.01 1001.34,483.01 1005.82,483.02 1010.29,483.03 1014.76,483.03 1019.23,483.04 1023.70,483.05 1028.18,483.05 1032.65,483.06 1037.12,483.06 1041.59,483.07 1046.06,483.08 1050.54,483.08 1055.01,483.09 1059.48,483.09 1063.95,483.10 1068.42,483.10 1072.90,483.11 1077.37,483.11 1081.84,483.11 1086.31,483.12 1090.78,483.12 1095.26,483.13 1099.73,483.13 1104.20,483.14 1108.67,483.14 1113.14,483.14 1117.62,483.15 1122.09,483.15 1126.56,483.15 1131.03,483.16 1135.50,483.16 1139.98,483.16 1144.45,483.17 1148.92,483.17 1153.39,483.17 1157.86,483.18 1162.34,483.18 1166.81,483.18 1171.28,483.19 1175.75,483.19 1180.22,483.19 1184.70,483.19 1189.17,483.20 1193.64,483.20 1198.11,483.20 1202.58,483.20 1207.06,483.21 1211.53,483.21 1216.00,483.21" fill="none" stroke="#2458d3" stroke-width="2.2" stroke-linejoin="round" stroke-linecap="round" />
<polyline points="98.00,487.60 102.47,487.56 106.94,486.79 111.42,485.40 115.89,483.64 120.36,481.67 124.83,479.64 129.30,477.62 133.78,475.67 138.25,473.83 142.72,472.12 147.19,470.57 151.66,469.18 156.14,467.96 160.61,466.91 165.08,466.03 169.55,465.32 174.02,464.77 178.50,464.36 182.97,464.10 187.44,463.97 191.91,463.96 196.38,464.05 200.86,464.24 205.33,464.51 209.80,464.85 214.27,465.26 218.74,465.72 223.22,466.23 227.69,466.77 232.16,467.33 236.63,467.92 241.10,468.51 245.58,469.12 250.05,469.72 254.52,470.32 258.99,470.90 263.46,471.48 267.94,472.04 272.41,472.57 276.88,473.09 281.35,473.58 285.82,474.04 290.30,474.48 294.77,474.89 299.24,475.28 303.71,475.63 308.18,475.96 312.66,476.27 317.13,476.55 321.60,476.80 326.07,477.03 330.54,477.24 335.02,477.43 339.49,477.60 343.96,477.75 348.43,477.89 352.90,478.02 357.38,478.13 361.85,478.24 366.32,478.33 370.79,478.42 375.26,478.50 379.74,478.57 384.21,478.65 388.68,478.72 393.15,478.78 397.62,478.85 402.10,478.91 406.57,478.98 411.04,479.04 415.51,479.11 419.98,479.17 424.46,479.24 428.93,479.31 433.40,479.38 437.87,479.45 442.34,479.52 446.82,479.59 451.29,479.66 455.76,479.74 460.23,479.81 464.70,479.89 469.18,479.97 473.65,480.04 478.12,480.12 482.59,480.20 487.06,480.27 491.54,480.35 496.01,480.43 500.48,480.50 504.95,480.57 509.42,480.64 513.90,480.72 518.37,480.79 522.84,480.85 527.31,480.92 531.78,480.98 536.26,481.05 540.73,481.11 545.20,481.17 549.67,481.23 554.14,481.28 558.62,481.34 563.09,481.39 567.56,481.44 572.03,481.49 576.50,481.54 580.98,481.59 585.45,481.63 589.92,481.67 594.39,481.71 598.86,481.76 603.34,481.79 607.81,481.83 612.28,481.87 616.75,481.90 621.22,481.94 625.70,481.97 630.17,482.00 634.64,482.03 639.11,482.06 643.58,482.09 648.06,482.12 652.53,482.15 657.00,482.18 661.47,482.20 665.94,482.23 670.42,482.25 674.89,482.28 679.36,482.30 683.83,482.33 688.30,482.35 692.78,482.37 697.25,482.39 701.72,482.41 706.19,482.43 710.66,482.45 715.14,482.47 719.61,482.49 724.08,482.51 728.55,482.53 733.02,482.55 737.50,482.57 741.97,482.58 746.44,482.60 750.91,482.62 755.38,482.63 759.86,482.65 764.33,482.66 768.80,482.68 773.27,482.69 777.74,482.71 782.22,482.72 786.69,482.74 791.16,482.75 795.63,482.76 800.10,482.78 804.58,482.79 809.05,482.80 813.52,482.81 817.99,482.82 822.46,482.84 826.94,482.85 831.41,482.86 835.88,482.87 840.35,482.88 844.82,482.89 849.30,482.90 853.77,482.91 858.24,482.92 862.71,482.93 867.18,482.94 871.66,482.94 876.13,482.95 880.60,482.96 885.07,482.97 889.54,482.98 894.02,482.98 898.49,482.99 902.96,483.00 907.43,483.01 911.90,483.01 916.38,483.02 920.85,483.03 925.32,483.03 929.79,483.04 934.26,483.05 938.74,483.05 943.21,483.06 947.68,483.06 952.15,483.07 956.62,483.07 961.10,483.08 965.57,483.09 970.04,483.09 974.51,483.10 978.98,483.10 983.46,483.10 987.93,483.11 992.40,483.11 996.87,483.12 1001.34,483.12 1005.82,483.13 1010.29,483.13 1014.76,483.13 1019.23,483.14 1023.70,483.14 1028.18,483.15 1032.65,483.15 1037.12,483.15 1041.59,483.16 1046.06,483.16 1050.54,483.16 1055.01,483.17 1059.48,483.17 1063.95,483.17 1068.42,483.18 1072.90,483.18 1077.37,483.18 1081.84,483.18 1086.31,483.30 1090.78,483.30 1095.26,483.30 1099.73,483.30 1104.20,483.30 1108.67,483.30 1113.14,483.30 1117.62,483.30 1122.09,483.30 1126.56,483.30 1131.03,483.30 1135.50,483.30 1139.98,483.30 1144.45,483.30 1148.92,483.30 1153.39,483.30 1157.86,483.30 1162.34,483.30 1166.81,483.30 1171.28,483.30 1175.75,483.30 1180.22,483.30 1184.70,483.30 1189.17,483.30 1193.64,483.30 1198.11,483.30 1202.58,483.30 1207.06,483.30 1211.53,483.30 1216.00,483.30" fill="none" stroke="#2458d3" stroke-width="1.8" stroke-linejoin="round" stroke-linecap="round" stroke-dasharray="8 5" />
<line x1="54.0" y1="686.0" x2="82.0" y2="686.0" stroke="#2d3440" stroke-width="1.8" stroke-dasharray="4 4" />
<text x="92.0" y="690.0" fill="#1f2430" font-size="12" font-family="Segoe UI, Arial, sans-serif" font-weight="400" text-anchor="start">y_sp</text>
<line x1="156.0" y1="686.0" x2="184.0" y2="686.0" stroke="#2d3440" stroke-width="2.0" />
<text x="194.0" y="690.0" fill="#1f2430" font-size="12" font-family="Segoe UI, Arial, sans-serif" font-weight="400" text-anchor="start">solid = y</text>
<line x1="290.0" y1="686.0" x2="318.0" y2="686.0" stroke="#2d3440" stroke-width="2.0" stroke-dasharray="8 5" />
<text x="328.0" y="690.0" fill="#1f2430" font-size="12" font-family="Segoe UI, Arial, sans-serif" font-weight="400" text-anchor="start">dashed = y_s</text>
<line x1="470.0" y1="686.0" x2="498.0" y2="686.0" stroke="#bf1e2d" stroke-width="2.4" />
<text x="508.0" y="690.0" fill="#1f2430" font-size="12" font-family="Segoe UI, Arial, sans-serif" font-weight="400" text-anchor="start">rho=0.95</text>
<line x1="635.0" y1="686.0" x2="663.0" y2="686.0" stroke="#c96b17" stroke-width="2.4" />
<text x="673.0" y="690.0" fill="#1f2430" font-size="12" font-family="Segoe UI, Arial, sans-serif" font-weight="400" text-anchor="start">rho=0.98</text>
<line x1="800.0" y1="686.0" x2="828.0" y2="686.0" stroke="#2a7f62" stroke-width="2.4" />
<text x="838.0" y="690.0" fill="#1f2430" font-size="12" font-family="Segoe UI, Arial, sans-serif" font-weight="400" text-anchor="start">rho=0.985</text>
<line x1="965.0" y1="686.0" x2="993.0" y2="686.0" stroke="#2458d3" stroke-width="2.4" />
<text x="1003.0" y="690.0" fill="#1f2430" font-size="12" font-family="Segoe UI, Arial, sans-serif" font-weight="400" text-anchor="start">rho=0.99</text>
</svg>