<svg xmlns="http://www.w3.org/2000/svg" width="1280" height="760" viewBox="0 0 1280 760" role="img">
<rect x="0.0" y="0.0" width="1280.0" height="760.0" fill="#ffffff" stroke="none" stroke-width="1.0" rx="0.0" />
<text x="40.0" y="34.0" fill="#1f2430" font-size="22" font-family="Segoe UI, Arial, sans-serif" font-weight="600" text-anchor="start">Bounded hard + x_s smoothing: predicted Lyapunov decrement across rho</text>
<text x="40.0" y="56.0" fill="#5d6574" font-size="13" font-family="Segoe UI, Arial, sans-serif" font-weight="400" text-anchor="start">Each curve plots ΔV_pred = V_next_first - V_k. The expected pattern is negative during the transient and near zero in the tail.</text>
<rect x="40.0" y="88.0" width="1200.0" height="250.0" fill="#fbfbfd" stroke="#d7dbe5" stroke-width="1.0" rx="8.0" />
<text x="56.0" y="112.0" fill="#1f2430" font-size="16" font-family="Segoe UI, Arial, sans-serif" font-weight="600" text-anchor="start">Transient ΔV_pred</text>
<text x="56.0" y="130.0" fill="#5d6574" font-size="12" font-family="Segoe UI, Arial, sans-serif" font-weight="400" text-anchor="start">Steps 0-250</text>
<line x1="98.0" y1="306.0" x2="1216.0" y2="306.0" stroke="#d7dbe5" stroke-width="1.0" stroke-dasharray="4 4" />
<text x="90.0" y="310.0" fill="#5d6574" font-size="11" font-family="Segoe UI, Arial, sans-serif" font-weight="400" text-anchor="end">-88.377</text>
<line x1="98.0" y1="226.0" x2="1216.0" y2="226.0" stroke="#d7dbe5" stroke-width="1.0" stroke-dasharray="4 4" />
<text x="90.0" y="230.0" fill="#5d6574" font-size="11" font-family="Segoe UI, Arial, sans-serif" font-weight="400" text-anchor="end">-40.915</text>
<line x1="98.0" y1="146.0" x2="1216.0" y2="146.0" stroke="#d7dbe5" stroke-width="1.0" stroke-dasharray="4 4" />
<text x="90.0" y="150.0" fill="#5d6574" font-size="11" font-family="Segoe UI, Arial, sans-serif" font-weight="400" text-anchor="end">6.546</text>
<line x1="98.0" y1="146.0" x2="98.0" y2="306.0" stroke="#d7dbe5" stroke-width="1.0" stroke-dasharray="4 4" />
<text x="98.0" y="324.0" fill="#5d6574" font-size="11" font-family="Segoe UI, Arial, sans-serif" font-weight="400" text-anchor="middle">0</text>
<line x1="657.0" y1="146.0" x2="657.0" y2="306.0" stroke="#d7dbe5" stroke-width="1.0" stroke-dasharray="4 4" />
<text x="657.0" y="324.0" fill="#5d6574" font-size="11" font-family="Segoe UI, Arial, sans-serif" font-weight="400" text-anchor="middle">125</text>
<line x1="1216.0" y1="146.0" x2="1216.0" y2="306.0" stroke="#d7dbe5" stroke-width="1.0" stroke-dasharray="4 4" />
<text x="1216.0" y="324.0" fill="#5d6574" font-size="11" font-family="Segoe UI, Arial, sans-serif" font-weight="400" text-anchor="middle">250</text>
<line x1="98.0" y1="146.0" x2="98.0" y2="306.0" stroke="#2d3440" stroke-width="1.2" />
<line x1="98.0" y1="306.0" x2="1216.0" y2="306.0" stroke="#2d3440" stroke-width="1.2" />
<text x="56.0" y="160.0" fill="#5d6574" font-size="12" font-family="Segoe UI, Arial, sans-serif" font-weight="400" text-anchor="start">ΔV</text>
<line x1="98.0" y1="157.0" x2="1216.0" y2="157.0" stroke="#2d3440" stroke-width="1.2" stroke-dasharray="6 4" />
<polyline points="98.00,157.05 102.47,157.05 106.94,158.25 111.42,160.97 115.89,163.82 120.36,166.02 124.83,167.54 129.30,168.24 133.78,168.23 138.25,167.66 142.72,166.99 147.19,166.07 151.66,165.02 156.14,163.93 160.61,162.89 165.08,161.94 169.55,161.11 174.02,160.41 178.50,159.84 182.97,159.38 187.44,159.04 191.91,158.79 196.38,158.62 200.86,158.51 205.33,158.46 209.80,158.44 214.27,158.46 218.74,158.49 223.22,158.54 227.69,158.59 232.16,158.64 236.63,158.69 241.10,158.73 245.58,158.76 250.05,158.77 254.52,158.77 258.99,158.76 263.46,158.74 267.94,158.70 272.41,158.65 276.88,158.60 281.35,158.53 285.82,158.46 290.30,158.38 294.77,158.30 299.24,158.22 303.71,158.14 308.18,158.06 312.66,157.98 317.13,157.90 321.60,157.83 326.07,157.77 330.54,157.71 335.02,157.65 339.49,157.60 343.96,157.55 348.43,157.51 352.90,157.49 357.38,157.48 361.85,157.68 366.32,158.27 370.79,158.87 375.26,159.27 379.74,159.44 384.21,159.43 388.68,159.28 393.15,159.03 397.62,158.74 402.10,158.44 406.57,158.15 411.04,157.89 415.51,157.66 419.98,157.48 424.46,157.33 428.93,157.22 433.40,157.15 437.87,157.12 442.34,157.11 446.82,157.64 451.29,162.11 455.76,168.18 460.23,172.69 464.70,174.76 469.18,174.69 473.65,173.00 478.12,170.34 482.59,167.29 487.06,164.30 491.54,161.67 496.01,159.59 500.48,158.15 518.37,157.65 522.84,157.91 527.31,158.22 531.78,158.63 536.26,159.14 540.73,159.72 545.20,160.32 549.67,160.87 554.14,161.34 558.62,161.67 563.09,161.86 567.56,161.89 572.03,161.79 576.50,161.58 580.98,161.27 585.45,160.90 589.92,160.49 594.39,160.07 598.86,159.67 603.34,159.28 607.81,158.94 612.28,158.66 616.75,158.43 621.22,158.24 625.70,158.08 630.17,158.01 634.64,157.96 639.11,158.00 643.58,158.00 648.06,158.33 652.53,158.96 657.00,159.78 661.47,160.62 665.94,161.32 670.42,161.81 674.89,162.05 679.36,162.07 683.83,161.89 688.30,161.58 692.78,161.17 697.25,160.70 701.72,160.21 706.19,159.72 710.66,159.25 715.14,158.82 719.61,158.43 724.08,158.09 728.55,157.80 733.02,157.57 737.50,157.38 741.97,157.26 750.91,157.34 755.38,157.53 759.86,159.09 764.33,161.14 768.80,162.73 773.27,163.53 777.74,163.59 782.22,163.05 786.69,162.12 791.16,161.01 795.63,159.88 800.10,158.88 804.58,158.07 809.05,157.48 813.52,157.13 822.46,157.16 826.94,157.32 831.41,166.35 835.88,189.94 840.35,220.43 844.82,249.40 849.30,274.25 853.77,290.07 858.24,294.97 862.71,289.54 867.18,275.84 871.66,256.67 876.13,235.07 880.60,213.76 885.07,194.86 889.54,179.71 894.02,168.94 911.90,162.68 916.38,164.35 920.85,177.16 925.32,197.39 929.79,214.21 934.26,224.12 938.74,227.88 943.21,226.56 947.68,221.96 952.15,214.52 956.62,205.54 961.10,196.21 965.57,187.46 970.04,179.88 974.51,173.74 978.98,169.07 983.46,165.75 1005.82,162.34 1010.29,162.49 1014.76,162.24 1019.23,164.82 1023.70,166.84 1028.18,168.09 1032.65,169.03 1037.12,169.74 1041.59,170.17 1046.06,170.27 1050.54,170.09 1055.01,169.69 1059.48,169.16 1063.95,168.55 1068.42,167.92 1072.90,167.31 1077.37,166.72 1081.84,166.19 1086.31,165.71 1090.78,165.29 1095.26,164.92 1099.73,164.60 1104.20,164.33 1108.67,164.09 1113.14,163.88 1117.62,163.69 1122.09,163.51 1126.56,163.35 1131.03,163.18 1135.50,163.02 1139.98,162.86 1144.45,162.69 1148.92,162.53 1153.39,162.36 1157.86,162.21 1162.34,162.05 1166.81,161.92 1171.28,161.79 1175.75,161.69 1180.22,161.60 1184.70,161.54 1189.17,161.50 1193.64,161.49 1198.11,161.49 1202.58,161.52 1207.06,161.56 1211.53,161.61 1216.00,161.67" fill="none" stroke="#bf1e2d" stroke-width="2.2" stroke-linejoin="round" stroke-linecap="round" />
<polyline points="98.00,157.04 102.47,157.04 106.94,157.29 111.42,157.90 115.89,158.71 120.36,159.53 124.83,160.27 129.30,160.87 133.78,161.35 138.25,161.67 142.72,161.80 147.19,161.76 151.66,161.57 156.14,161.26 160.61,160.87 165.08,160.49 169.55,160.14 174.02,159.78 178.50,159.43 182.97,159.10 187.44,158.81 191.91,158.56 196.38,158.35 200.86,158.18 205.33,158.05 209.80,157.96 214.27,157.90 218.74,157.87 223.22,157.86 227.69,157.86 232.16,157.89 236.63,157.91 241.10,157.95 245.58,157.99 250.05,158.02 254.52,158.06 258.99,158.08 263.46,158.11 267.94,158.12 272.41,158.13 276.88,158.14 281.35,158.13 285.82,158.12 290.30,158.10 294.77,158.08 299.24,158.05 303.71,158.02 308.18,157.99 312.66,157.95 317.13,157.91 321.60,157.87 326.07,157.83 330.54,157.79 335.02,157.75 339.49,157.71 343.96,157.67 348.43,157.64 352.90,157.61 357.38,157.58 361.85,157.55 366.32,157.52 370.79,157.50 375.26,157.47 379.74,157.45 384.21,157.44 388.68,157.42 393.15,157.41 397.62,157.39 402.10,157.38 406.57,157.37 411.04,157.37 415.51,157.36 419.98,157.35 424.46,157.35 428.93,157.34 433.40,157.34 437.87,157.34 442.34,157.33 446.82,157.33 451.29,157.33 455.76,157.33 460.23,157.32 464.70,157.32 469.18,157.32 473.65,157.32 478.12,157.31 482.59,157.31 487.06,157.31 491.54,157.30 496.01,157.30 500.48,157.30 504.95,157.29 509.42,157.29 513.90,157.28 518.37,157.28 522.84,157.27 527.31,157.27 531.78,157.26 536.26,157.25 540.73,157.25 545.20,157.24 549.67,157.24 554.14,157.23 558.62,157.22 563.09,157.22 572.03,157.21 576.50,157.20 580.98,157.19 585.45,157.19 589.92,157.18 594.39,157.18 598.86,157.17 603.34,157.16 607.81,157.16 612.28,157.15 616.75,157.15 621.22,157.15 625.70,157.14 630.17,157.14 634.64,157.13 639.11,157.13 643.58,157.13 648.06,157.12 652.53,157.12 657.00,157.12 661.47,157.11 665.94,157.11 670.42,157.11 674.89,157.10 679.36,157.10 683.83,157.10 688.30,157.10 692.78,157.09 697.25,157.09 701.72,157.09 706.19,157.09 710.66,157.08 715.14,157.08 719.61,157.08 724.08,157.08 728.55,157.08 733.02,157.07 737.50,157.07 741.97,157.07 746.44,157.07 750.91,157.07 755.38,157.07 759.86,157.07 764.33,157.06 768.80,157.06 773.27,157.06 777.74,157.06 782.22,157.06 786.69,157.06 791.16,157.06 795.63,157.06 800.10,157.06 804.58,157.05 809.05,157.05 813.52,157.05 817.99,157.05 822.46,157.05 826.94,157.05 831.41,157.05 835.88,157.05 840.35,157.05 844.82,157.05 849.30,157.05 853.77,157.05 858.24,157.05 862.71,157.05 867.18,157.05 871.66,157.05 876.13,157.04 880.60,157.04 885.07,157.04 889.54,157.04 894.02,157.04 898.49,157.04 902.96,157.04 907.43,157.04 911.90,157.04 916.38,157.04 920.85,157.04 925.32,157.04 929.79,157.04 934.26,157.04 938.74,157.04 943.21,157.04 947.68,157.04 952.15,157.04 956.62,157.04 961.10,157.04 965.57,157.04 970.04,157.04 974.51,157.04 978.98,157.04 983.46,157.04 987.93,157.04 992.40,157.04 996.87,157.04 1001.34,157.04 1005.82,157.04 1010.29,157.04 1014.76,157.04 1019.23,157.04 1023.70,157.04 1028.18,157.04 1032.65,157.04 1037.12,157.04 1041.59,157.04 1046.06,157.04 1050.54,157.04 1055.01,157.04 1059.48,157.04 1063.95,157.04 1068.42,157.04 1072.90,157.04 1077.37,157.04 1081.84,157.04 1086.31,157.04 1090.78,157.04 1095.26,157.03 1099.73,157.03 1104.20,157.04 1108.67,157.04 1113.14,157.04 1117.62,157.04 1122.09,157.04 1126.56,157.04 1131.03,157.04 1135.50,157.04 1139.98,157.03 1144.45,157.03 1148.92,157.03 1153.39,157.10 1157.86,157.34 1162.34,157.49 1166.81,157.49 1171.28,157.42 1175.75,157.33 1180.22,157.24 1184.70,157.16 1189.17,157.10 1193.64,157.07 1198.11,157.08 1202.58,157.21 1207.06,159.08 1211.53,161.82 1216.00,163.81" fill="none" stroke="#c96b17" stroke-width="2.2" stroke-linejoin="round" stroke-linecap="round" />
<polyline points="98.00,157.04 102.47,157.04 106.94,157.20 111.42,157.60 115.89,158.18 120.36,158.82 124.83,159.46 129.30,160.03 138.25,160.87 142.72,160.89 147.19,160.82 151.66,160.70 156.14,160.52 160.61,160.30 165.08,160.03 169.55,159.73 174.02,159.47 178.50,159.23 182.97,158.99 187.44,158.76 191.91,158.55 196.38,158.36 200.86,158.19 205.33,158.05 209.80,157.95 214.27,157.86 218.74,157.81 223.22,157.77 227.69,157.75 232.16,157.75 236.63,157.76 241.10,157.78 245.58,157.81 250.05,157.84 254.52,157.87 258.99,157.90 263.46,157.93 267.94,157.95 272.41,157.97 276.88,157.99 281.35,158.00 285.82,158.00 290.30,158.00 294.77,157.99 299.24,157.98 303.71,157.96 308.18,157.94 312.66,157.92 317.13,157.89 321.60,157.86 326.07,157.83 330.54,157.80 335.02,157.77 339.49,157.73 343.96,157.70 348.43,157.67 352.90,157.64 357.38,157.61 361.85,157.58 366.32,157.56 370.79,157.53 375.26,157.51 379.74,157.49 384.21,157.47 388.68,157.45 393.15,157.44 397.62,157.42 402.10,157.41 406.57,157.40 411.04,157.39 415.51,157.38 419.98,157.37 424.46,157.36 428.93,157.36 433.40,157.35 437.87,157.35 442.34,157.34 446.82,157.34 451.29,157.33 455.76,157.33 460.23,157.33 464.70,157.32 469.18,157.32 473.65,157.32 478.12,157.31 482.59,157.31 487.06,157.31 491.54,157.30 496.01,157.30 500.48,157.29 504.95,157.29 509.42,157.28 513.90,157.28 518.37,157.27 522.84,157.27 527.31,157.26 531.78,157.26 536.26,157.25 540.73,157.25 545.20,157.24 549.67,157.24 554.14,157.23 558.62,157.23 563.09,157.22 567.56,157.21 572.03,157.21 580.98,157.26 585.45,157.25 589.92,159.28 594.39,162.76 598.86,165.55 603.34,166.90 607.81,166.93 612.28,166.16 616.75,165.02 621.22,163.56 625.70,162.00 630.17,160.53 634.64,159.28 639.11,158.31 643.58,157.65 648.06,157.28 652.53,157.17 657.00,157.27 661.47,157.53 665.94,157.89 670.42,158.29 674.89,158.70 679.36,159.06 683.83,159.36 688.30,159.57 692.78,159.68 697.25,159.71 701.72,159.65 706.19,159.53 710.66,159.35 715.14,159.14 719.61,158.91 724.08,158.68 728.55,158.45 733.02,158.24 737.50,158.04 741.97,157.87 746.44,157.73 750.91,157.61 755.38,157.52 759.86,157.45 764.33,157.40 768.80,157.37 773.27,157.35 777.74,157.34 782.22,157.33 786.69,157.33 791.16,157.34 795.63,157.34 800.10,157.34 804.58,157.35 809.05,157.35 813.52,157.34 817.99,157.33 822.46,157.31 826.94,157.29 831.41,157.27 835.88,157.25 840.35,157.23 844.82,157.22 849.30,157.20 853.77,157.19 858.24,157.17 862.71,157.15 867.18,157.14 871.66,157.13 876.13,157.11 880.60,157.10 885.07,157.09 889.54,157.08 894.02,157.08 898.49,157.07 902.96,157.06 907.43,157.06 911.90,157.05 916.38,157.05 920.85,157.05 925.32,157.05 929.79,157.04 934.26,157.04 938.74,157.04 943.21,157.04 947.68,157.04 952.15,157.04 956.62,157.04 961.10,157.04 965.57,157.04 970.04,157.04 974.51,157.04 978.98,157.04 983.46,157.04 987.93,157.04 992.40,157.04 996.87,157.04 1001.34,157.04 1005.82,157.04 1010.29,157.04 1014.76,157.04 1019.23,157.04 1023.70,157.04 1028.18,157.04 1032.65,157.04 1037.12,157.04 1041.59,157.04 1046.06,157.04 1050.54,157.04 1055.01,157.04 1059.48,157.04 1063.95,157.04 1068.42,157.04 1072.90,157.04 1077.37,157.04 1081.84,157.04 1086.31,157.04 1090.78,157.04 1095.26,157.04 1099.73,157.04 1104.20,157.04 1108.67,157.04 1113.14,157.04 1117.62,157.04 1122.09,157.04 1126.56,157.04 1131.03,157.04 1135.50,157.03 1139.98,157.03 1144.45,157.03 1148.92,157.03 1153.39,157.03 1157.86,157.03 1162.34,157.03 1166.81,157.03 1171.28,157.03 1175.75,157.03 1180.22,157.03 1184.70,157.03 1189.17,157.03 1193.64,157.03 1198.11,157.03 1202.58,157.03 1207.06,157.03 1211.53,157.03 1216.00,157.03" fill="none" stroke="#2a7f62" stroke-width="2.2" stroke-linejoin="round" stroke-linecap="round" />
<polyline points="98.00,157.04 102.47,157.04 106.94,157.13 111.42,157.37 115.89,157.75 120.36,158.23 124.83,158.76 129.30,159.28 133.78,159.75 138.25,160.15 142.72,160.48 147.19,160.70 151.66,160.79 156.14,160.75 160.61,160.62 165.08,160.39 169.55,160.10 174.02,159.77 178.50,159.48 182.97,159.21 187.44,158.95 191.91,158.71 196.38,158.49 200.86,158.30 205.33,158.14 209.80,158.02 214.27,157.93 218.74,157.86 223.22,157.82 227.69,157.81 232.16,157.81 236.63,157.83 241.10,157.85 245.58,157.89 250.05,157.92 254.52,157.96 258.99,158.00 263.46,158.03 267.94,158.06 272.41,158.08 276.88,158.09 281.35,158.10 285.82,158.11 290.30,158.10 294.77,158.09 299.24,158.08 303.71,158.05 308.18,158.03 312.66,158.00 317.13,157.97 321.60,157.93 326.07,157.89 330.54,157.86 335.02,157.82 339.49,157.78 343.96,157.74 348.43,157.71 352.90,157.67 357.38,157.64 361.85,157.61 366.32,157.58 370.79,157.55 375.26,157.52 379.74,157.50 384.21,157.47 388.68,157.45 393.15,157.44 397.62,157.42 402.10,157.40 406.57,157.39 411.04,157.38 415.51,157.37 419.98,157.36 424.46,157.35 428.93,157.34 433.40,157.34 437.87,157.33 442.34,157.33 446.82,157.32 451.29,157.32 455.76,157.32 460.23,157.31 464.70,157.31 469.18,157.31 473.65,157.30 478.12,157.30 482.59,157.30 487.06,157.29 491.54,157.29 496.01,157.28 500.48,157.28 504.95,157.28 509.42,157.27 513.90,157.27 518.37,157.26 522.84,157.26 527.31,157.25 531.78,157.25 536.26,157.24 540.73,157.24 545.20,157.23 549.67,157.23 554.14,157.22 563.09,157.21 572.03,157.20 580.98,157.19 585.45,157.18 589.92,157.17 594.39,157.17 598.86,157.16 603.34,157.16 607.81,157.15 612.28,157.15 616.75,157.14 621.22,157.14 625.70,157.14 630.17,157.13 634.64,157.13 639.11,157.13 643.58,157.12 648.06,157.12 652.53,157.12 657.00,157.11 661.47,157.11 665.94,157.11 670.42,157.10 674.89,157.10 679.36,157.10 683.83,157.10 688.30,157.09 692.78,157.09 697.25,157.09 701.72,157.09 706.19,157.09 710.66,157.08 715.14,157.08 719.61,157.08 724.08,157.08 728.55,157.08 733.02,157.07 737.50,157.07 741.97,157.07 746.44,157.07 750.91,157.07 755.38,157.07 759.86,157.06 764.33,157.06 768.80,157.06 773.27,157.06 777.74,157.06 782.22,157.06 786.69,157.06 791.16,157.06 795.63,157.06 800.10,157.06 804.58,157.05 809.05,157.05 813.52,157.05 817.99,157.05 822.46,157.05 826.94,157.05 831.41,157.05 835.88,157.05 840.35,157.05 844.82,157.05 849.30,157.05 853.77,157.05 858.24,157.05 862.71,157.05 867.18,157.05 871.66,157.05 876.13,157.04 880.60,157.04 885.07,157.04 889.54,157.04 894.02,157.04 898.49,157.04 902.96,157.04 907.43,157.04 911.90,157.04 916.38,157.04 920.85,157.04 925.32,157.04 929.79,157.04 934.26,157.04 938.74,157.04 943.21,157.04 947.68,157.04 952.15,157.04 956.62,157.04 961.10,157.04 965.57,157.04 970.04,157.04 974.51,157.04 978.98,157.04 983.46,157.04 987.93,157.04 992.40,157.04 996.87,157.04 1001.34,157.04 1005.82,157.04 1010.29,157.04 1014.76,157.04 1019.23,157.04 1023.70,157.04 1028.18,157.04 1032.65,157.04 1037.12,157.04 1041.59,157.04 1046.06,157.04 1050.54,157.04 1055.01,157.04 1059.48,157.04 1063.95,157.04 1068.42,157.04 1072.90,157.04 1077.37,157.04 1081.84,157.04 1086.31,157.04 1090.78,157.04 1095.26,157.04 1099.73,157.04 1104.20,157.04 1108.67,157.04 1113.14,157.03 1117.62,157.03 1122.09,157.03 1126.56,157.03 1131.03,157.03 1135.50,157.03 1139.98,157.03 1144.45,157.03 1148.92,157.03 1153.39,157.03 1157.86,157.03 1162.34,157.03 1166.81,157.03 1171.28,157.03 1175.75,157.03 1180.22,157.03 1184.70,157.03 1189.17,157.03 1193.64,157.03 1198.11,157.03 1202.58,157.03 1207.06,157.03 1211.53,157.03 1216.00,157.03" fill="none" stroke="#2458d3" stroke-width="2.2" stroke-linejoin="round" stroke-linecap="round" />
<rect x="40.0" y="370.0" width="1200.0" height="250.0" fill="#fbfbfd" stroke="#d7dbe5" stroke-width="1.0" rx="8.0" />
<text x="56.0" y="394.0" fill="#1f2430" font-size="16" font-family="Segoe UI, Arial, sans-serif" font-weight="600" text-anchor="start">Tail ΔV_pred</text>
<text x="56.0" y="412.0" fill="#5d6574" font-size="12" font-family="Segoe UI, Arial, sans-serif" font-weight="400" text-anchor="start">Steps 1800-1899</text>
<line x1="98.0" y1="588.0" x2="1216.0" y2="588.0" stroke="#d7dbe5" stroke-width="1.0" stroke-dasharray="4 4" />
<text x="90.0" y="592.0" fill="#5d6574" font-size="11" font-family="Segoe UI, Arial, sans-serif" font-weight="400" text-anchor="end">-2.754</text>
<line x1="98.0" y1="508.0" x2="1216.0" y2="508.0" stroke="#d7dbe5" stroke-width="1.0" stroke-dasharray="4 4" />
<text x="90.0" y="512.0" fill="#5d6574" font-size="11" font-family="Segoe UI, Arial, sans-serif" font-weight="400" text-anchor="end">-1.275</text>
<line x1="98.0" y1="428.0" x2="1216.0" y2="428.0" stroke="#d7dbe5" stroke-width="1.0" stroke-dasharray="4 4" />
<text x="90.0" y="432.0" fill="#5d6574" font-size="11" font-family="Segoe UI, Arial, sans-serif" font-weight="400" text-anchor="end">0.204</text>
<line x1="98.0" y1="428.0" x2="98.0" y2="588.0" stroke="#d7dbe5" stroke-width="1.0" stroke-dasharray="4 4" />
<text x="98.0" y="606.0" fill="#5d6574" font-size="11" font-family="Segoe UI, Arial, sans-serif" font-weight="400" text-anchor="middle">1800</text>
<line x1="657.0" y1="428.0" x2="657.0" y2="588.0" stroke="#d7dbe5" stroke-width="1.0" stroke-dasharray="4 4" />
<text x="657.0" y="606.0" fill="#5d6574" font-size="11" font-family="Segoe UI, Arial, sans-serif" font-weight="400" text-anchor="middle">1850</text>
<line x1="1216.0" y1="428.0" x2="1216.0" y2="588.0" stroke="#d7dbe5" stroke-width="1.0" stroke-dasharray="4 4" />
<text x="1216.0" y="606.0" fill="#5d6574" font-size="11" font-family="Segoe UI, Arial, sans-serif" font-weight="400" text-anchor="middle">1899</text>
<line x1="98.0" y1="428.0" x2="98.0" y2="588.0" stroke="#2d3440" stroke-width="1.2" />
<line x1="98.0" y1="588.0" x2="1216.0" y2="588.0" stroke="#2d3440" stroke-width="1.2" />
<text x="56.0" y="442.0" fill="#5d6574" font-size="12" font-family="Segoe UI, Arial, sans-serif" font-weight="400" text-anchor="start">ΔV</text>
<line x1="98.0" y1="439.0" x2="1216.0" y2="439.0" stroke="#2d3440" stroke-width="1.2" stroke-dasharray="6 4" />
<polyline points="98.00,482.91 109.29,488.11 120.59,496.64 131.88,507.07 143.17,518.36 154.46,529.72 165.76,540.57 177.05,550.48 188.34,559.10 199.64,566.20 210.93,571.61 222.22,575.21 233.52,576.97 244.81,576.85 256.10,574.76 267.39,570.83 278.69,565.33 289.98,558.56 301.27,550.81 312.57,542.41 323.86,533.67 335.15,524.84 346.44,516.17 357.74,507.86 369.03,500.05 380.32,492.85 391.62,486.30 402.91,480.45 414.20,475.27 425.49,470.73 436.79,466.78 448.08,463.37 459.37,460.41 470.67,457.85 481.96,455.61 493.25,453.66 504.55,451.92 515.84,450.37 527.13,448.98 538.42,447.71 549.72,446.56 561.01,445.51 572.30,444.55 583.60,443.69 594.89,442.92 606.18,442.24 617.47,441.64 628.77,441.10 640.06,440.66 651.35,440.31 662.65,440.29 673.94,440.34 685.23,445.48 696.53,465.93 707.82,489.78 719.11,506.35 730.40,513.28 741.70,512.01 752.99,504.96 764.28,494.51 775.58,482.70 786.87,471.31 798.16,461.82 809.45,453.86 820.75,447.76 832.04,443.57 843.33,441.15 854.63,440.26 865.92,440.57 877.21,441.75 888.51,443.47 899.80,445.43 911.09,447.39 922.38,449.14 933.68,450.55 944.97,451.54 956.26,452.08 967.56,452.21 978.85,451.96 990.14,451.41 1001.43,450.62 1012.73,449.67 1024.02,448.64 1035.31,447.59 1046.61,446.57 1057.90,445.62 1069.19,444.77 1080.48,444.34 1091.78,443.97 1103.07,449.05 1114.36,465.44 1125.66,483.38 1136.95,495.57 1148.24,500.17 1159.54,498.57 1170.83,493.67 1182.12,486.25 1193.41,478.65 1204.71,471.97 1216.00,465.92" fill="none" stroke="#bf1e2d" stroke-width="2.2" stroke-linejoin="round" stroke-linecap="round" />
<polyline points="98.00,439.03 109.29,439.03 120.59,439.03 131.88,439.03 143.17,439.03 154.46,439.03 165.76,439.03 177.05,439.03 188.34,439.03 199.64,439.03 210.93,439.03 222.22,439.03 233.52,439.03 244.81,439.03 256.10,439.03 267.39,439.03 278.69,439.03 289.98,439.03 301.27,439.03 312.57,439.03 323.86,439.03 335.15,439.03 346.44,439.03 357.74,439.03 369.03,439.03 380.32,439.03 391.62,439.03 402.91,439.03 414.20,439.03 425.49,439.03 436.79,439.03 448.08,439.03 459.37,439.03 470.67,439.03 481.96,439.03 493.25,439.03 504.55,439.03 515.84,439.03 527.13,439.03 538.42,439.03 549.72,439.03 561.01,439.03 572.30,439.03 583.60,439.03 594.89,439.03 606.18,439.03 617.47,439.03 628.77,439.03 640.06,439.03 651.35,439.03 662.65,439.03 673.94,439.03 685.23,439.03 696.53,439.03 707.82,439.03 719.11,439.03 730.40,439.03 741.70,439.03 752.99,439.03 764.28,439.03 775.58,439.03 786.87,439.03 798.16,439.03 809.45,439.03 820.75,439.03 832.04,439.03 843.33,439.03 854.63,439.03 865.92,439.03 877.21,439.03 888.51,439.03 899.80,439.03 911.09,439.03 922.38,439.03 933.68,439.03 944.97,439.03 956.26,439.03 967.56,439.03 978.85,439.03 990.14,439.03 1001.43,439.03 1012.73,439.03 1024.02,439.03 1035.31,439.03 1046.61,439.03 1057.90,439.03 1069.19,439.03 1080.48,439.03 1091.78,439.03 1103.07,439.03 1114.36,439.03 1125.66,439.03 1136.95,439.03 1148.24,439.03 1159.54,439.03 1170.83,439.03 1182.12,439.03 1193.41,439.03 1204.71,439.03 1216.00,439.03" fill="none" stroke="#c96b17" stroke-width="2.2" stroke-linejoin="round" stroke-linecap="round" />
<polyline points="98.00,439.03 109.29,439.03 120.59,439.03 131.88,439.03 143.17,439.03 154.46,439.03 165.76,439.03 177.05,439.03 188.34,439.03 199.64,439.03 210.93,439.03 222.22,439.03 233.52,439.03 244.81,439.03 256.10,439.03 267.39,439.03 278.69,439.03 289.98,439.03 301.27,439.03 312.57,439.03 323.86,439.03 335.15,439.03 346.44,439.03 357.74,439.03 369.03,439.03 380.32,439.03 391.62,439.03 402.91,439.03 414.20,439.03 425.49,439.03 436.79,439.03 448.08,439.03 459.37,439.03 470.67,439.03 481.96,439.03 493.25,439.03 504.55,439.03 515.84,439.03 527.13,439.03 538.42,439.03 549.72,439.03 561.01,439.03 572.30,439.03 583.60,439.03 594.89,439.03 606.18,439.03 617.47,439.03 628.77,439.03 640.06,439.03 651.35,439.03 662.65,439.03 673.94,439.03 685.23,439.03 696.53,439.03 707.82,439.03 719.11,439.03 730.40,439.03 741.70,439.03 752.99,439.03 764.28,439.03 775.58,439.03 786.87,439.03 798.16,439.03 809.45,439.03 820.75,439.03 832.04,439.03 843.33,439.03 854.63,439.03 865.92,439.03 877.21,439.03 888.51,439.03 899.80,439.03 911.09,439.03 922.38,439.03 933.68,439.03 944.97,439.03 956.26,439.03 967.56,439.03 978.85,439.03 990.14,439.03 1001.43,439.03 1012.73,439.03 1024.02,439.03 1035.31,439.03 1046.61,439.03 1057.90,439.03 1069.19,439.03 1080.48,439.03 1091.78,439.03 1103.07,439.03 1114.36,439.03 1125.66,439.03 1136.95,439.03 1148.24,439.03 1159.54,439.03 1170.83,439.03 1182.12,439.03 1193.41,439.03 1204.71,439.03 1216.00,439.03" fill="none" stroke="#2a7f62" stroke-width="2.2" stroke-linejoin="round" stroke-linecap="round" />
<polyline points="98.00,439.03 109.29,439.03 120.59,439.03 131.88,439.03 143.17,439.03 154.46,439.03 165.76,439.03 177.05,439.03 188.34,439.03 199.64,439.03 210.93,439.03 222.22,439.03 233.52,439.03 244.81,439.03 256.10,439.03 267.39,439.03 278.69,439.03 289.98,439.03 301.27,439.03 312.57,439.03 323.86,439.03 335.15,439.03 346.44,439.03 357.74,439.03 369.03,439.03 380.32,439.03 391.62,439.03 402.91,439.03 414.20,439.03 425.49,439.03 436.79,439.03 448.08,439.03 459.37,439.03 470.67,439.03 481.96,439.03 493.25,439.03 504.55,439.03 515.84,439.03 527.13,439.03 538.42,439.03 549.72,439.03 561.01,439.03 572.30,439.03 583.60,439.03 594.89,439.03 606.18,439.03 617.47,439.03 628.77,439.03 640.06,439.03 651.35,439.03 662.65,439.03 673.94,439.03 685.23,439.03 696.53,439.03 707.82,439.03 719.11,439.03 730.40,439.03 741.70,439.03 752.99,439.03 764.28,439.03 775.58,439.03 786.87,439.03 798.16,439.03 809.45,439.03 820.75,439.03 832.04,439.03 843.33,439.03 854.63,439.03 865.92,439.03 877.21,439.03 888.51,439.03 899.80,439.03 911.09,439.03 922.38,439.03 933.68,439.03 944.97,439.03 956.26,439.03 967.56,439.03 978.85,439.03 990.14,439.03 1001.43,439.03 1012.73,439.03 1024.02,439.03 1035.31,439.03 1046.61,439.03 1057.90,439.03 1069.19,439.03 1080.48,439.03 1091.78,439.03 1103.07,439.03 1114.36,439.03 1125.66,439.03 1136.95,439.03 1148.24,439.03 1159.54,439.03 1170.83,439.03 1182.12,439.03 1193.41,439.03 1204.71,439.03 1216.00,439.03" fill="none" stroke="#2458d3" stroke-width="2.2" stroke-linejoin="round" stroke-linecap="round" />
<line x1="54.0" y1="686.0" x2="82.0" y2="686.0" stroke="#2d3440" stroke-width="1.8" stroke-dasharray="6 4" />
<text x="92.0" y="690.0" fill="#1f2430" font-size="12" font-family="Segoe UI, Arial, sans-serif" font-weight="400" text-anchor="start">ΔV = 0</text>
<line x1="220.0" y1="686.0" x2="248.0" y2="686.0" stroke="#bf1e2d" stroke-width="2.4" />
<text x="258.0" y="690.0" fill="#1f2430" font-size="12" font-family="Segoe UI, Arial, sans-serif" font-weight="400" text-anchor="start">rho=0.95</text>
<line x1="385.0" y1="686.0" x2="413.0" y2="686.0" stroke="#c96b17" stroke-width="2.4" />
<text x="423.0" y="690.0" fill="#1f2430" font-size="12" font-family="Segoe UI, Arial, sans-serif" font-weight="400" text-anchor="start">rho=0.98</text>
<line x1="550.0" y1="686.0" x2="578.0" y2="686.0" stroke="#2a7f62" stroke-width="2.4" />
<text x="588.0" y="690.0" fill="#1f2430" font-size="12" font-family="Segoe UI, Arial, sans-serif" font-weight="400" text-anchor="start">rho=0.985</text>
<line x1="715.0" y1="686.0" x2="743.0" y2="686.0" stroke="#2458d3" stroke-width="2.4" />
<text x="753.0" y="690.0" fill="#1f2430" font-size="12" font-family="Segoe UI, Arial, sans-serif" font-weight="400" text-anchor="start">rho=0.99</text>
</svg>