<svg xmlns="http://www.w3.org/2000/svg" width="1280" height="760" viewBox="0 0 1280 760" role="img">
<rect x="0.0" y="0.0" width="1280.0" height="760.0" fill="#ffffff" stroke="none" stroke-width="1.0" rx="0.0" />
<text x="40.0" y="34.0" fill="#1f2430" font-size="22" font-family="Segoe UI, Arial, sans-serif" font-weight="600" text-anchor="start">Bounded hard: steady disturbance targets d_s across rho</text>
<text x="40.0" y="56.0" fill="#5d6574" font-size="13" font-family="Segoe UI, Arial, sans-serif" font-weight="400" text-anchor="start">These are the saved steady disturbance targets used by the frozen-output-disturbance target solve.</text>
<rect x="40.0" y="88.0" width="1200.0" height="250.0" fill="#fbfbfd" stroke="#d7dbe5" stroke-width="1.0" rx="8.0" />
<text x="56.0" y="112.0" fill="#1f2430" font-size="16" font-family="Segoe UI, Arial, sans-serif" font-weight="600" text-anchor="start">Disturbance target d_s[0]</text>
<text x="56.0" y="130.0" fill="#5d6574" font-size="12" font-family="Segoe UI, Arial, sans-serif" font-weight="400" text-anchor="start">Transient window 0-249 steps</text>
<line x1="98.0" y1="306.0" x2="1216.0" y2="306.0" stroke="#d7dbe5" stroke-width="1.0" stroke-dasharray="4 4" />
<text x="90.0" y="310.0" fill="#5d6574" font-size="11" font-family="Segoe UI, Arial, sans-serif" font-weight="400" text-anchor="end">-3.74</text>
<line x1="98.0" y1="226.0" x2="1216.0" y2="226.0" stroke="#d7dbe5" stroke-width="1.0" stroke-dasharray="4 4" />
<text x="90.0" y="230.0" fill="#5d6574" font-size="11" font-family="Segoe UI, Arial, sans-serif" font-weight="400" text-anchor="end">0.479</text>
<line x1="98.0" y1="146.0" x2="1216.0" y2="146.0" stroke="#d7dbe5" stroke-width="1.0" stroke-dasharray="4 4" />
<text x="90.0" y="150.0" fill="#5d6574" font-size="11" font-family="Segoe UI, Arial, sans-serif" font-weight="400" text-anchor="end">4.697</text>
<line x1="98.0" y1="146.0" x2="98.0" y2="306.0" stroke="#d7dbe5" stroke-width="1.0" stroke-dasharray="4 4" />
<text x="98.0" y="324.0" fill="#5d6574" font-size="11" font-family="Segoe UI, Arial, sans-serif" font-weight="400" text-anchor="middle">0</text>
<line x1="657.0" y1="146.0" x2="657.0" y2="306.0" stroke="#d7dbe5" stroke-width="1.0" stroke-dasharray="4 4" />
<text x="657.0" y="324.0" fill="#5d6574" font-size="11" font-family="Segoe UI, Arial, sans-serif" font-weight="400" text-anchor="middle">124</text>
<line x1="1216.0" y1="146.0" x2="1216.0" y2="306.0" stroke="#d7dbe5" stroke-width="1.0" stroke-dasharray="4 4" />
<text x="1216.0" y="324.0" fill="#5d6574" font-size="11" font-family="Segoe UI, Arial, sans-serif" font-weight="400" text-anchor="middle">249</text>
<line x1="98.0" y1="146.0" x2="98.0" y2="306.0" stroke="#2d3440" stroke-width="1.2" />
<line x1="98.0" y1="306.0" x2="1216.0" y2="306.0" stroke="#2d3440" stroke-width="1.2" />
<text x="56.0" y="160.0" fill="#5d6574" font-size="12" font-family="Segoe UI, Arial, sans-serif" font-weight="400" text-anchor="start">target</text>
<polyline points="98.00,235.08 102.49,235.08 106.98,234.98 111.47,234.59 115.96,233.73 120.45,232.32 124.94,230.41 129.43,228.10 133.92,225.55 138.41,222.90 142.90,220.26 147.39,217.74 151.88,215.41 156.37,213.30 160.86,211.44 165.35,209.85 169.84,208.51 174.33,207.41 178.82,206.55 183.31,205.89 187.80,205.41 192.29,205.09 196.78,204.91 201.27,204.85 205.76,204.88 210.25,204.99 214.74,205.16 219.23,205.37 223.72,205.62 228.21,205.88 232.70,206.15 237.19,206.42 241.68,206.69 246.17,206.93 250.66,207.15 255.15,207.35 259.64,207.52 264.13,207.65 268.62,207.75 273.11,207.81 277.60,207.83 282.09,207.81 286.58,207.75 291.07,207.66 295.56,207.52 300.05,207.35 304.54,207.14 309.03,206.90 313.52,206.62 318.01,206.32 322.50,205.99 326.99,205.64 331.48,205.26 335.97,204.87 340.46,204.46 344.95,204.04 349.44,203.60 353.93,203.16 358.42,202.71 362.91,202.28 367.40,201.92 371.89,201.71 376.38,201.68 380.87,201.82 385.36,202.07 389.85,202.38 394.34,202.69 398.83,202.95 403.32,203.14 407.81,203.23 412.30,203.23 416.79,203.12 421.28,202.91 425.77,202.61 430.26,202.23 434.75,201.77 439.24,201.26 443.73,200.69 448.22,200.09 452.71,199.46 457.20,198.98 461.69,198.99 466.18,199.74 470.67,201.27 475.16,203.44 479.65,206.02 484.14,208.78 488.63,211.49 493.12,214.03 497.61,216.28 502.10,218.17 506.59,219.68 511.08,220.79 515.57,221.48 520.06,221.84 524.55,221.99 529.04,222.07 533.53,222.13 538.02,222.12 542.51,222.00 547.00,221.68 551.49,221.08 555.98,220.15 560.47,218.87 564.96,217.24 569.45,215.27 573.94,212.98 578.43,210.42 582.92,207.64 587.41,204.70 591.90,201.65 596.39,198.56 600.88,195.48 605.37,192.46 609.86,189.54 614.35,186.77 618.84,184.17 623.33,181.76 627.82,179.56 632.31,177.43 636.80,175.11 641.29,172.44 645.78,169.46 650.27,166.37 654.76,163.44 659.24,160.90 663.73,158.93 668.22,157.63 672.71,157.03 677.20,157.11 681.69,157.79 686.18,159.00 690.67,160.65 695.16,162.66 699.65,164.94 704.14,167.43 708.63,170.06 713.12,172.78 717.61,175.55 722.10,178.32 726.59,181.08 731.08,183.80 735.57,186.46 740.06,189.03 744.55,191.52 749.04,193.91 753.53,196.19 758.02,198.36 762.51,200.40 767.00,202.32 771.49,204.12 775.98,205.78 780.47,207.34 784.96,208.91 789.45,210.58 793.94,212.39 798.43,214.31 802.92,216.26 807.41,218.14 811.90,219.86 816.39,221.37 820.88,222.62 825.37,223.57 829.86,224.22 834.35,224.54 838.84,224.56 843.33,224.28 847.82,223.70 852.31,222.86 856.80,221.76 861.29,220.45 865.78,218.95 870.27,217.29 874.76,215.51 879.25,213.65 883.74,211.73 888.23,209.79 892.72,207.87 897.21,205.98 901.70,204.17 906.19,202.43 910.68,200.79 915.17,199.27 919.66,197.86 924.15,196.58 928.64,195.42 933.13,194.39 937.62,193.44 942.11,192.54 946.60,191.68 951.09,190.92 955.58,190.35 960.07,190.08 964.56,190.20 969.05,190.77 973.54,191.81 978.03,193.35 982.52,195.35 987.01,197.78 991.50,200.61 995.99,203.78 1000.48,207.24 1004.97,210.93 1009.46,214.81 1013.95,218.84 1018.44,222.96 1022.93,227.13 1027.42,231.33 1031.91,235.52 1036.40,239.66 1040.89,243.73 1045.38,247.71 1049.87,251.56 1054.36,255.28 1058.85,258.83 1063.34,262.19 1067.83,265.33 1072.32,268.22 1076.81,270.86 1081.30,273.25 1085.79,275.38 1090.28,277.28 1094.77,278.97 1099.26,280.55 1103.75,282.22 1108.24,284.07 1112.73,286.10 1117.22,288.19 1121.71,290.20 1126.20,291.99 1130.69,293.43 1135.18,294.45 1139.67,294.97 1144.16,294.91 1148.65,294.24 1153.14,292.88 1157.63,290.80 1162.12,287.95 1166.61,284.32 1171.10,279.92 1175.59,274.78 1180.08,268.98 1184.57,262.62 1189.06,255.85 1193.55,248.81 1198.04,241.67 1202.53,234.59 1207.02,227.71 1211.51,221.16 1216.00,215.04" fill="none" stroke="#bf1e2d" stroke-width="2.2" stroke-linejoin="round" stroke-linecap="round" />
<polyline points="98.00,235.08 102.49,235.08 106.98,235.04 111.47,234.88 115.96,234.51 120.45,233.87 124.94,232.96 129.43,231.79 133.92,230.41 138.41,228.86 142.90,227.20 147.39,225.46 151.88,223.69 156.37,221.93 160.86,220.21 165.35,218.56 169.84,216.99 174.33,215.53 178.82,214.17 183.31,212.92 187.80,211.80 192.29,210.79 196.78,209.90 201.27,209.11 205.76,208.42 210.25,207.83 214.74,207.32 219.23,206.90 223.72,206.54 228.21,206.24 232.70,205.99 237.19,205.78 241.68,205.62 246.17,205.48 250.66,205.36 255.15,205.26 259.64,205.17 264.13,205.09 268.62,205.00 273.11,204.92 277.60,204.83 282.09,204.74 286.58,204.63 291.07,204.52 295.56,204.38 300.05,204.24 304.54,204.08 309.03,203.90 313.52,203.71 318.01,203.50 322.50,203.28 326.99,203.04 331.48,202.78 335.97,202.52 340.46,202.24 344.95,201.94 349.44,201.64 353.93,201.33 358.42,201.01 362.91,200.68 367.40,200.35 371.89,200.01 376.38,199.67 380.87,199.33 385.36,198.99 389.85,198.65 394.34,198.31 398.83,197.97 403.32,197.63 407.81,197.30 412.30,196.97 416.79,196.65 421.28,196.33 425.77,196.02 430.26,195.72 434.75,195.42 439.24,195.13 443.73,194.85 448.22,194.57 452.71,194.30 457.20,194.04 461.69,193.78 466.18,193.53 470.67,193.29 475.16,193.06 479.65,192.83 484.14,192.61 488.63,192.40 493.12,192.19 497.61,191.98 502.10,191.79 506.59,191.59 511.08,191.41 515.57,191.22 520.06,191.05 524.55,190.87 529.04,190.71 533.53,190.54 538.02,190.38 542.51,190.22 547.00,190.07 551.49,189.92 555.98,189.77 560.47,189.63 564.96,189.49 569.45,189.35 573.94,189.22 578.43,189.09 582.92,188.96 587.41,188.83 591.90,188.71 596.39,188.59 600.88,188.47 605.37,188.35 609.86,188.23 614.35,188.12 618.84,188.01 623.33,187.90 627.82,187.80 632.31,187.69 636.80,187.59 641.29,187.49 645.78,187.40 650.27,187.30 654.76,187.21 659.24,187.12 663.73,187.03 668.22,186.94 672.71,186.85 677.20,186.77 681.69,186.69 686.18,186.60 690.67,186.53 695.16,186.45 699.65,186.37 704.14,186.30 708.63,186.23 713.12,186.16 717.61,186.09 722.10,186.02 726.59,185.96 731.08,185.89 735.57,185.83 740.06,185.77 744.55,185.71 749.04,185.65 753.53,185.60 758.02,185.54 762.51,185.49 767.00,185.43 771.49,185.38 775.98,185.33 780.47,185.28 784.96,185.23 789.45,185.19 793.94,185.14 798.43,185.10 802.92,185.05 807.41,185.01 811.90,184.97 816.39,184.93 820.88,184.89 825.37,184.85 829.86,184.81 834.35,184.77 838.84,184.74 843.33,184.70 847.82,184.67 852.31,184.63 856.80,184.60 861.29,184.57 865.78,184.54 870.27,184.51 874.76,184.48 879.25,184.45 883.74,184.42 888.23,184.39 892.72,184.36 897.21,184.34 901.70,184.31 906.19,184.28 910.68,184.26 915.17,184.23 919.66,184.21 924.15,184.19 928.64,184.16 933.13,184.14 937.62,184.12 942.11,184.10 946.60,184.08 951.09,184.06 955.58,184.04 960.07,184.02 964.56,184.00 969.05,183.98 973.54,183.96 978.03,183.95 982.52,183.93 987.01,183.91 991.50,183.90 995.99,183.88 1000.48,183.86 1004.97,183.85 1009.46,183.83 1013.95,183.82 1018.44,183.81 1022.93,183.79 1027.42,183.78 1031.91,183.77 1036.40,183.75 1040.89,183.74 1045.38,183.73 1049.87,183.72 1054.36,183.70 1058.85,183.69 1063.34,183.68 1067.83,183.67 1072.32,183.66 1076.81,183.65 1081.30,183.64 1085.79,183.63 1090.28,183.62 1094.77,183.61 1099.26,183.61 1103.75,183.62 1108.24,183.65 1112.73,183.68 1117.22,183.72 1121.71,183.71 1126.20,183.46 1130.69,182.76 1135.18,181.49 1139.67,179.70 1144.16,177.53 1148.65,175.19 1153.14,172.87 1157.63,170.69 1162.12,168.78 1166.61,167.17 1171.10,165.90 1175.59,165.42 1180.08,166.50 1184.57,169.58 1189.06,174.55 1193.55,180.93 1198.04,188.19 1202.53,195.82 1207.02,203.50 1211.51,211.00 1216.00,218.21" fill="none" stroke="#c96b17" stroke-width="2.2" stroke-linejoin="round" stroke-linecap="round" />
<polyline points="98.00,235.08 102.49,235.08 106.98,235.05 111.47,234.92 115.96,234.63 120.45,234.12 124.94,233.37 129.43,232.39 133.92,231.19 138.41,229.82 142.90,228.32 147.39,226.71 151.88,225.05 156.37,223.36 160.86,221.67 165.35,220.02 169.84,218.43 174.33,216.91 178.82,215.48 183.31,214.14 187.80,212.91 192.29,211.79 196.78,210.77 201.27,209.86 205.76,209.05 210.25,208.34 214.74,207.72 219.23,207.18 223.72,206.71 228.21,206.32 232.70,205.98 237.19,205.69 241.68,205.45 246.17,205.24 250.66,205.07 255.15,204.92 259.64,204.79 264.13,204.67 268.62,204.56 273.11,204.45 277.60,204.35 282.09,204.24 286.58,204.13 291.07,204.01 295.56,203.88 300.05,203.74 304.54,203.59 309.03,203.42 313.52,203.24 318.01,203.05 322.50,202.84 326.99,202.62 331.48,202.39 335.97,202.14 340.46,201.88 344.95,201.61 349.44,201.33 353.93,201.04 358.42,200.74 362.91,200.43 367.40,200.11 371.89,199.80 376.38,199.47 380.87,199.15 385.36,198.82 389.85,198.49 394.34,198.16 398.83,197.83 403.32,197.51 407.81,197.19 412.30,196.87 416.79,196.55 421.28,196.24 425.77,195.94 430.26,195.64 434.75,195.34 439.24,195.06 443.73,194.78 448.22,194.50 452.71,194.23 457.20,193.97 461.69,193.72 466.18,193.47 470.67,193.23 475.16,193.00 479.65,192.77 484.14,192.55 488.63,192.34 493.12,192.13 497.61,191.92 502.10,191.73 506.59,191.53 511.08,191.35 515.57,191.17 520.06,190.99 524.55,190.82 529.04,190.65 533.53,190.48 538.02,190.32 542.51,190.17 547.00,190.02 551.49,189.87 555.98,189.72 560.47,189.58 564.96,189.44 569.45,189.30 573.94,189.17 578.43,189.04 582.92,188.91 587.41,188.79 591.90,188.66 596.39,188.54 600.88,188.43 605.37,188.31 609.86,188.20 614.35,188.09 618.84,187.98 623.33,187.87 627.82,187.77 632.31,187.66 636.80,187.56 641.29,187.46 645.78,187.37 650.27,187.27 654.76,187.18 659.24,187.09 663.73,187.00 668.22,186.91 672.71,186.83 677.20,186.75 681.69,186.67 686.18,186.59 690.67,186.51 695.16,186.43 699.65,186.36 704.14,186.28 708.63,186.21 713.12,186.14 717.61,186.08 722.10,186.01 726.59,185.94 731.08,185.88 735.57,185.82 740.06,185.76 744.55,185.70 749.04,185.64 753.53,185.58 758.02,185.53 762.51,185.48 767.00,185.42 771.49,185.37 775.98,185.32 780.47,185.27 784.96,185.22 789.45,185.18 793.94,185.13 798.43,185.09 802.92,185.04 807.41,185.00 811.90,184.96 816.39,184.92 820.88,184.88 825.37,184.84 829.86,184.80 834.35,184.77 838.84,184.73 843.33,184.70 847.82,184.66 852.31,184.63 856.80,184.60 861.29,184.56 865.78,184.53 870.27,184.50 874.76,184.47 879.25,184.44 883.74,184.41 888.23,184.39 892.72,184.36 897.21,184.33 901.70,184.31 906.19,184.28 910.68,184.26 915.17,184.23 919.66,184.21 924.15,184.18 928.64,184.16 933.13,184.14 937.62,184.12 942.11,184.10 946.60,184.08 951.09,184.06 955.58,184.04 960.07,184.02 964.56,184.00 969.05,183.98 973.54,183.96 978.03,183.95 982.52,183.93 987.01,183.91 991.50,183.90 995.99,183.88 1000.48,183.86 1004.97,183.85 1009.46,183.83 1013.95,183.82 1018.44,183.81 1022.93,183.79 1027.42,183.78 1031.91,183.76 1036.40,183.75 1040.89,183.74 1045.38,183.73 1049.87,183.72 1054.36,183.70 1058.85,183.69 1063.34,183.68 1067.83,183.67 1072.32,183.66 1076.81,183.65 1081.30,183.64 1085.79,183.63 1090.28,183.62 1094.77,183.61 1099.26,183.60 1103.75,183.59 1108.24,183.59 1112.73,183.59 1117.22,183.59 1121.71,183.60 1126.20,183.61 1130.69,183.61 1135.18,183.63 1139.67,183.65 1144.16,183.66 1148.65,183.53 1153.14,183.03 1157.63,182.04 1162.12,180.54 1166.61,178.67 1171.10,176.62 1175.59,174.56 1180.08,172.66 1184.57,171.03 1189.06,169.71 1193.55,168.74 1198.04,168.12 1202.53,167.81 1207.02,167.78 1211.51,168.00 1216.00,168.42" fill="none" stroke="#2a7f62" stroke-width="2.2" stroke-linejoin="round" stroke-linecap="round" />
<polyline points="98.00,235.08 102.49,235.08 106.98,235.06 111.47,234.97 115.96,234.75 120.45,234.36 124.94,233.77 129.43,232.97 133.92,231.97 138.41,230.78 142.90,229.43 147.39,227.96 151.88,226.40 156.37,224.78 160.86,223.14 165.35,221.49 169.84,219.87 174.33,218.30 178.82,216.79 183.31,215.37 187.80,214.04 192.29,212.80 196.78,211.66 201.27,210.63 205.76,209.70 210.25,208.86 214.74,208.12 219.23,207.47 223.72,206.90 228.21,206.40 232.70,205.97 237.19,205.60 241.68,205.29 246.17,205.01 250.66,204.78 255.15,204.58 259.64,204.41 264.13,204.25 268.62,204.11 273.11,203.98 277.60,203.86 282.09,203.74 286.58,203.63 291.07,203.50 295.56,203.38 300.05,203.24 304.54,203.10 309.03,202.95 313.52,202.78 318.01,202.60 322.50,202.41 326.99,202.21 331.48,202.00 335.97,201.77 340.46,201.53 344.95,201.28 349.44,201.02 353.93,200.75 358.42,200.46 362.91,200.18 367.40,199.88 371.89,199.58 376.38,199.27 380.87,198.96 385.36,198.65 389.85,198.33 394.34,198.02 398.83,197.70 403.32,197.39 407.81,197.07 412.30,196.76 416.79,196.45 421.28,196.15 425.77,195.85 430.26,195.56 434.75,195.27 439.24,194.98 443.73,194.70 448.22,194.43 452.71,194.17 457.20,193.91 461.69,193.65 466.18,193.41 470.67,193.17 475.16,192.94 479.65,192.71 484.14,192.49 488.63,192.27 493.12,192.06 497.61,191.86 502.10,191.66 506.59,191.47 511.08,191.29 515.57,191.10 520.06,190.93 524.55,190.76 529.04,190.59 533.53,190.43 538.02,190.27 542.51,190.11 547.00,189.96 551.49,189.81 555.98,189.67 560.47,189.53 564.96,189.39 569.45,189.25 573.94,189.12 578.43,188.99 582.92,188.86 587.41,188.74 591.90,188.62 596.39,188.50 600.88,188.38 605.37,188.27 609.86,188.16 614.35,188.05 618.84,187.94 623.33,187.83 627.82,187.73 632.31,187.63 636.80,187.53 641.29,187.43 645.78,187.34 650.27,187.24 654.76,187.15 659.24,187.06 663.73,186.98 668.22,186.89 672.71,186.81 677.20,186.72 681.69,186.64 686.18,186.56 690.67,186.49 695.16,186.41 699.65,186.34 704.14,186.27 708.63,186.20 713.12,186.13 717.61,186.06 722.10,185.99 726.59,185.93 731.08,185.87 735.57,185.80 740.06,185.74 744.55,185.69 749.04,185.63 753.53,185.57 758.02,185.52 762.51,185.46 767.00,185.41 771.49,185.36 775.98,185.31 780.47,185.26 784.96,185.21 789.45,185.17 793.94,185.12 798.43,185.08 802.92,185.04 807.41,184.99 811.90,184.95 816.39,184.91 820.88,184.87 825.37,184.83 829.86,184.80 834.35,184.76 838.84,184.72 843.33,184.69 847.82,184.66 852.31,184.62 856.80,184.59 861.29,184.56 865.78,184.53 870.27,184.50 874.76,184.47 879.25,184.44 883.74,184.41 888.23,184.38 892.72,184.35 897.21,184.33 901.70,184.30 906.19,184.28 910.68,184.25 915.17,184.23 919.66,184.20 924.15,184.18 928.64,184.16 933.13,184.14 937.62,184.12 942.11,184.09 946.60,184.07 951.09,184.05 955.58,184.03 960.07,184.02 964.56,184.00 969.05,183.98 973.54,183.96 978.03,183.94 982.52,183.93 987.01,183.91 991.50,183.89 995.99,183.88 1000.48,183.86 1004.97,183.85 1009.46,183.83 1013.95,183.82 1018.44,183.80 1022.93,183.79 1027.42,183.78 1031.91,183.76 1036.40,183.75 1040.89,183.74 1045.38,183.73 1049.87,183.71 1054.36,183.70 1058.85,183.69 1063.34,183.68 1067.83,183.67 1072.32,183.66 1076.81,183.65 1081.30,183.64 1085.79,183.63 1090.28,183.62 1094.77,183.61 1099.26,183.60 1103.75,183.59 1108.24,183.58 1112.73,183.57 1117.22,183.57 1121.71,183.56 1126.20,183.55 1130.69,183.54 1135.18,183.53 1139.67,183.53 1144.16,183.52 1148.65,183.51 1153.14,183.51 1157.63,183.50 1162.12,183.49 1166.61,183.49 1171.10,183.48 1175.59,183.48 1180.08,183.47 1184.57,183.47 1189.06,183.46 1193.55,183.45 1198.04,183.45 1202.53,183.44 1207.02,183.44 1211.51,183.43 1216.00,183.43" fill="none" stroke="#2458d3" stroke-width="2.2" stroke-linejoin="round" stroke-linecap="round" />
<rect x="40.0" y="370.0" width="1200.0" height="250.0" fill="#fbfbfd" stroke="#d7dbe5" stroke-width="1.0" rx="8.0" />
<text x="56.0" y="394.0" fill="#1f2430" font-size="16" font-family="Segoe UI, Arial, sans-serif" font-weight="600" text-anchor="start">Disturbance target d_s[1]</text>
<text x="56.0" y="412.0" fill="#5d6574" font-size="12" font-family="Segoe UI, Arial, sans-serif" font-weight="400" text-anchor="start">Transient window 0-249 steps</text>
<line x1="98.0" y1="588.0" x2="1216.0" y2="588.0" stroke="#d7dbe5" stroke-width="1.0" stroke-dasharray="4 4" />
<text x="90.0" y="592.0" fill="#5d6574" font-size="11" font-family="Segoe UI, Arial, sans-serif" font-weight="400" text-anchor="end">-9.39</text>
<line x1="98.0" y1="508.0" x2="1216.0" y2="508.0" stroke="#d7dbe5" stroke-width="1.0" stroke-dasharray="4 4" />
<text x="90.0" y="512.0" fill="#5d6574" font-size="11" font-family="Segoe UI, Arial, sans-serif" font-weight="400" text-anchor="end">2.301</text>
<line x1="98.0" y1="428.0" x2="1216.0" y2="428.0" stroke="#d7dbe5" stroke-width="1.0" stroke-dasharray="4 4" />
<text x="90.0" y="432.0" fill="#5d6574" font-size="11" font-family="Segoe UI, Arial, sans-serif" font-weight="400" text-anchor="end">13.993</text>
<line x1="98.0" y1="428.0" x2="98.0" y2="588.0" stroke="#d7dbe5" stroke-width="1.0" stroke-dasharray="4 4" />
<text x="98.0" y="606.0" fill="#5d6574" font-size="11" font-family="Segoe UI, Arial, sans-serif" font-weight="400" text-anchor="middle">0</text>
<line x1="657.0" y1="428.0" x2="657.0" y2="588.0" stroke="#d7dbe5" stroke-width="1.0" stroke-dasharray="4 4" />
<text x="657.0" y="606.0" fill="#5d6574" font-size="11" font-family="Segoe UI, Arial, sans-serif" font-weight="400" text-anchor="middle">124</text>
<line x1="1216.0" y1="428.0" x2="1216.0" y2="588.0" stroke="#d7dbe5" stroke-width="1.0" stroke-dasharray="4 4" />
<text x="1216.0" y="606.0" fill="#5d6574" font-size="11" font-family="Segoe UI, Arial, sans-serif" font-weight="400" text-anchor="middle">249</text>
<line x1="98.0" y1="428.0" x2="98.0" y2="588.0" stroke="#2d3440" stroke-width="1.2" />
<line x1="98.0" y1="588.0" x2="1216.0" y2="588.0" stroke="#2d3440" stroke-width="1.2" />
<text x="56.0" y="442.0" fill="#5d6574" font-size="12" font-family="Segoe UI, Arial, sans-serif" font-weight="400" text-anchor="start">target</text>
<polyline points="98.00,523.75 102.49,523.75 106.98,517.58 111.47,511.55 115.96,506.82 120.45,503.29 124.94,500.69 129.43,498.76 133.92,497.37 138.41,496.39 142.90,495.75 147.39,495.40 151.88,495.30 156.37,495.40 160.86,495.67 165.35,496.09 169.84,496.63 174.33,497.28 178.82,498.01 183.31,498.80 187.80,499.64 192.29,500.52 196.78,501.43 201.27,502.35 205.76,503.27 210.25,504.19 214.74,505.10 219.23,505.99 223.72,506.85 228.21,507.69 232.70,508.48 237.19,509.24 241.68,509.95 246.17,510.62 250.66,511.24 255.15,511.81 259.64,512.33 264.13,512.81 268.62,513.23 273.11,513.61 277.60,513.94 282.09,514.24 286.58,514.49 291.07,514.70 295.56,514.89 300.05,515.04 304.54,515.17 309.03,515.27 313.52,515.35 318.01,515.42 322.50,515.47 326.99,515.51 331.48,515.54 335.97,515.57 340.46,515.59 344.95,515.62 349.44,515.64 353.93,515.66 358.42,515.69 362.91,516.69 367.40,518.85 371.89,520.64 376.38,521.89 380.87,522.68 385.36,523.14 389.85,523.35 394.34,523.37 398.83,523.26 403.32,523.03 407.81,522.72 412.30,522.35 416.79,521.94 421.28,521.50 425.77,521.05 430.26,520.59 434.75,520.14 439.24,519.71 443.73,519.31 448.22,518.93 452.71,518.99 457.20,527.91 461.69,537.51 466.18,544.20 470.67,548.15 475.16,550.12 479.65,550.70 484.14,550.28 488.63,549.13 493.12,547.43 497.61,545.31 502.10,542.90 506.59,540.29 511.08,537.57 515.57,534.81 520.06,537.91 524.55,542.59 529.04,546.26 533.53,548.40 538.02,549.11 542.51,548.67 547.00,547.36 551.49,545.44 555.98,543.12 560.47,540.59 564.96,537.99 569.45,535.42 573.94,532.97 578.43,530.70 582.92,528.65 587.41,526.84 591.90,525.29 596.39,523.98 600.88,522.92 605.37,522.08 609.86,521.46 614.35,521.03 618.84,520.78 623.33,520.67 627.82,520.69 632.31,511.61 636.80,502.60 641.29,495.60 645.78,490.61 650.27,487.21 654.76,485.00 659.24,483.67 663.73,482.98 668.22,482.77 672.71,482.92 677.20,483.35 681.69,483.99 686.18,484.79 690.67,485.74 695.16,486.79 699.65,487.94 704.14,489.17 708.63,490.47 713.12,491.83 717.61,493.24 722.10,494.70 726.59,496.18 731.08,497.67 735.57,499.17 740.06,500.66 744.55,502.12 749.04,503.53 753.53,504.89 758.02,506.19 762.51,507.40 767.00,508.52 771.49,509.54 775.98,510.45 780.47,513.38 784.96,518.30 789.45,523.23 793.94,527.47 798.43,530.84 802.92,533.30 807.41,534.92 811.90,535.79 816.39,535.98 820.88,535.62 825.37,534.79 829.86,533.60 834.35,532.14 838.84,530.48 843.33,528.70 847.82,526.87 852.31,525.05 856.80,523.27 861.29,521.57 865.78,519.98 870.27,518.53 874.76,517.22 879.25,516.06 883.74,515.05 888.23,514.20 892.72,513.50 897.21,512.93 901.70,512.51 906.19,512.20 910.68,512.01 915.17,511.92 919.66,511.92 924.15,512.00 928.64,512.15 933.13,512.36 937.62,509.05 942.11,502.39 946.60,494.29 951.09,486.11 955.58,478.56 960.07,471.85 964.56,466.03 969.05,461.02 973.54,456.71 978.03,453.01 982.52,449.83 987.01,447.11 991.50,444.80 995.99,442.88 1000.48,441.33 1004.97,440.17 1009.46,439.40 1013.95,439.03 1018.44,439.10 1022.93,439.63 1027.42,440.64 1031.91,442.16 1036.40,444.19 1040.89,446.74 1045.38,449.81 1049.87,453.37 1054.36,457.38 1058.85,461.65 1063.34,465.83 1067.83,469.68 1072.32,473.10 1076.81,476.08 1081.30,478.63 1085.79,480.79 1090.28,482.60 1094.77,484.12 1099.26,489.79 1103.75,502.58 1108.24,518.88 1112.73,535.37 1117.22,549.97 1121.71,561.64 1126.20,569.97 1130.69,574.99 1135.18,576.97 1139.67,576.31 1144.16,573.54 1148.65,569.15 1153.14,563.66 1157.63,557.49 1162.12,551.04 1166.61,544.61 1171.10,538.44 1175.59,532.71 1180.08,527.54 1184.57,522.98 1189.06,519.08 1193.55,515.83 1198.04,513.22 1202.53,511.19 1207.02,509.70 1211.51,508.69 1216.00,508.11" fill="none" stroke="#bf1e2d" stroke-width="2.2" stroke-linejoin="round" stroke-linecap="round" />
<polyline points="98.00,523.75 102.49,523.75 106.98,521.22 111.47,518.41 115.96,515.83 120.45,513.57 124.94,511.59 129.43,509.87 133.92,508.37 138.41,507.09 142.90,506.00 147.39,505.10 151.88,504.37 156.37,503.80 160.86,503.39 165.35,503.12 169.84,502.97 174.33,502.94 178.82,503.01 183.31,503.17 187.80,503.41 192.29,503.72 196.78,504.09 201.27,504.51 205.76,504.96 210.25,505.45 214.74,505.97 219.23,506.50 223.72,507.05 228.21,507.60 232.70,508.15 237.19,508.69 241.68,509.23 246.17,509.75 250.66,510.26 255.15,510.75 259.64,511.23 264.13,511.67 268.62,512.10 273.11,512.50 277.60,512.87 282.09,513.22 286.58,513.55 291.07,513.85 295.56,514.12 300.05,514.37 304.54,514.60 309.03,514.81 313.52,514.99 318.01,515.16 322.50,515.31 326.99,515.45 331.48,515.57 335.97,515.68 340.46,515.78 344.95,515.87 349.44,515.95 353.93,516.02 358.42,516.09 362.91,516.16 367.40,516.22 371.89,516.28 376.38,516.33 380.87,516.39 385.36,516.45 389.85,516.50 394.34,516.56 398.83,516.62 403.32,516.68 407.81,516.74 412.30,516.80 416.79,516.86 421.28,516.92 425.77,516.99 430.26,517.06 434.75,517.12 439.24,517.19 443.73,517.26 448.22,517.33 452.71,517.40 457.20,517.47 461.69,517.54 466.18,517.61 470.67,517.68 475.16,517.75 479.65,517.82 484.14,517.89 488.63,517.96 493.12,518.02 497.61,518.09 502.10,518.15 506.59,518.21 511.08,518.27 515.57,518.33 520.06,518.39 524.55,518.45 529.04,518.50 533.53,518.55 538.02,518.60 542.51,518.65 547.00,518.70 551.49,518.75 555.98,518.79 560.47,518.83 564.96,518.87 569.45,518.91 573.94,518.95 578.43,518.99 582.92,519.03 587.41,519.06 591.90,519.09 596.39,519.13 600.88,519.16 605.37,519.19 609.86,519.22 614.35,519.25 618.84,519.27 623.33,519.30 627.82,519.33 632.31,519.35 636.80,519.38 641.29,519.40 645.78,519.42 650.27,519.44 654.76,519.47 659.24,519.49 663.73,519.51 668.22,519.53 672.71,519.55 677.20,519.57 681.69,519.59 686.18,519.61 690.67,519.62 695.16,519.64 699.65,519.66 704.14,519.68 708.63,519.69 713.12,519.71 717.61,519.73 722.10,519.74 726.59,519.76 731.08,519.77 735.57,519.79 740.06,519.80 744.55,519.81 749.04,519.83 753.53,519.84 758.02,519.85 762.51,519.87 767.00,519.88 771.49,519.89 775.98,519.90 780.47,519.91 784.96,519.92 789.45,519.94 793.94,519.95 798.43,519.96 802.92,519.97 807.41,519.98 811.90,519.99 816.39,520.00 820.88,520.01 825.37,520.01 829.86,520.02 834.35,520.03 838.84,520.04 843.33,520.05 847.82,520.06 852.31,520.06 856.80,520.07 861.29,520.08 865.78,520.09 870.27,520.09 874.76,520.10 879.25,520.11 883.74,520.11 888.23,520.12 892.72,520.13 897.21,520.13 901.70,520.14 906.19,520.14 910.68,520.15 915.17,520.15 919.66,520.16 924.15,520.16 928.64,520.17 933.13,520.17 937.62,520.18 942.11,520.18 946.60,520.19 951.09,520.19 955.58,520.20 960.07,520.20 964.56,520.21 969.05,520.21 973.54,520.21 978.03,520.22 982.52,520.22 987.01,520.23 991.50,520.23 995.99,520.23 1000.48,520.24 1004.97,520.24 1009.46,520.24 1013.95,520.25 1018.44,520.25 1022.93,520.25 1027.42,520.25 1031.91,520.26 1036.40,520.26 1040.89,520.26 1045.38,520.27 1049.87,520.27 1054.36,520.27 1058.85,520.27 1063.34,520.28 1067.83,520.28 1072.32,520.28 1076.81,520.28 1081.30,520.29 1085.79,520.29 1090.28,520.29 1094.77,520.41 1099.26,520.59 1103.75,520.74 1108.24,520.84 1112.73,520.90 1117.22,520.94 1121.71,517.84 1126.20,512.04 1130.69,508.25 1135.18,506.52 1139.67,506.12 1144.16,506.48 1148.65,507.25 1153.14,508.21 1157.63,509.28 1162.12,510.39 1166.61,511.52 1171.10,512.65 1175.59,536.99 1180.08,553.76 1184.57,561.33 1189.06,562.77 1193.55,560.77 1198.04,556.97 1202.53,552.23 1207.02,547.01 1211.51,541.52 1216.00,535.88" fill="none" stroke="#c96b17" stroke-width="2.2" stroke-linejoin="round" stroke-linecap="round" />
<polyline points="98.00,523.75 102.49,523.75 106.98,521.83 111.47,519.56 115.96,517.35 120.45,515.30 124.94,513.44 129.43,511.75 133.92,510.24 138.41,508.90 142.90,507.73 147.39,506.73 151.88,505.89 156.37,505.21 160.86,504.67 165.35,504.26 169.84,503.99 174.33,503.83 178.82,503.79 183.31,503.83 187.80,503.97 192.29,504.18 196.78,504.46 201.27,504.79 205.76,505.17 210.25,505.59 214.74,506.05 219.23,506.52 223.72,507.02 228.21,507.53 232.70,508.05 237.19,508.56 241.68,509.08 246.17,509.59 250.66,510.08 255.15,510.57 259.64,511.04 264.13,511.48 268.62,511.91 273.11,512.32 277.60,512.70 282.09,513.07 286.58,513.40 291.07,513.72 295.56,514.01 300.05,514.27 304.54,514.52 309.03,514.74 313.52,514.95 318.01,515.13 322.50,515.30 326.99,515.45 331.48,515.58 335.97,515.71 340.46,515.82 344.95,515.92 349.44,516.01 353.93,516.09 358.42,516.17 362.91,516.24 367.40,516.30 371.89,516.36 376.38,516.42 380.87,516.48 385.36,516.54 389.85,516.59 394.34,516.65 398.83,516.70 403.32,516.76 407.81,516.82 412.30,516.87 416.79,516.93 421.28,516.99 425.77,517.05 430.26,517.12 434.75,517.18 439.24,517.24 443.73,517.31 448.22,517.38 452.71,517.44 457.20,517.51 461.69,517.58 466.18,517.64 470.67,517.71 475.16,517.78 479.65,517.84 484.14,517.91 488.63,517.97 493.12,518.04 497.61,518.10 502.10,518.16 506.59,518.22 511.08,518.28 515.57,518.34 520.06,518.40 524.55,518.45 529.04,518.50 533.53,518.56 538.02,518.61 542.51,518.66 547.00,518.70 551.49,518.75 555.98,518.79 560.47,518.84 564.96,518.88 569.45,518.92 573.94,518.96 578.43,518.99 582.92,519.03 587.41,519.06 591.90,519.10 596.39,519.13 600.88,519.16 605.37,519.19 609.86,519.22 614.35,519.25 618.84,519.28 623.33,519.30 627.82,519.33 632.31,519.35 636.80,519.38 641.29,519.40 645.78,519.43 650.27,519.45 654.76,519.47 659.24,519.49 663.73,519.51 668.22,519.53 672.71,519.55 677.20,519.57 681.69,519.59 686.18,519.61 690.67,519.63 695.16,519.64 699.65,519.66 704.14,519.68 708.63,519.70 713.12,519.71 717.61,519.73 722.10,519.74 726.59,519.76 731.08,519.77 735.57,519.79 740.06,519.80 744.55,519.81 749.04,519.83 753.53,519.84 758.02,519.85 762.51,519.87 767.00,519.88 771.49,519.89 775.98,519.90 780.47,519.91 784.96,519.93 789.45,519.94 793.94,519.95 798.43,519.96 802.92,519.97 807.41,519.98 811.90,519.99 816.39,520.00 820.88,520.01 825.37,520.01 829.86,520.02 834.35,520.03 838.84,520.04 843.33,520.05 847.82,520.06 852.31,520.06 856.80,520.07 861.29,520.08 865.78,520.09 870.27,520.09 874.76,520.10 879.25,520.11 883.74,520.11 888.23,520.12 892.72,520.13 897.21,520.13 901.70,520.14 906.19,520.14 910.68,520.15 915.17,520.15 919.66,520.16 924.15,520.16 928.64,520.17 933.13,520.17 937.62,520.18 942.11,520.18 946.60,520.19 951.09,520.19 955.58,520.20 960.07,520.20 964.56,520.21 969.05,520.21 973.54,520.21 978.03,520.22 982.52,520.22 987.01,520.23 991.50,520.23 995.99,520.23 1000.48,520.24 1004.97,520.24 1009.46,520.24 1013.95,520.25 1018.44,520.25 1022.93,520.25 1027.42,520.25 1031.91,520.26 1036.40,520.26 1040.89,520.26 1045.38,520.27 1049.87,520.27 1054.36,520.27 1058.85,520.27 1063.34,520.28 1067.83,520.28 1072.32,520.28 1076.81,520.28 1081.30,520.29 1085.79,520.29 1090.28,520.29 1094.77,520.29 1099.26,520.32 1103.75,520.37 1108.24,520.41 1112.73,520.44 1117.22,520.46 1121.71,520.47 1126.20,520.47 1130.69,520.62 1135.18,520.88 1139.67,521.23 1144.16,520.70 1148.65,514.54 1153.14,509.31 1157.63,505.88 1162.12,503.91 1166.61,502.94 1171.10,502.63 1175.59,502.76 1180.08,503.21 1184.57,503.87 1189.06,504.69 1193.55,505.62 1198.04,506.64 1202.53,507.71 1207.02,508.81 1211.51,509.92 1216.00,511.03" fill="none" stroke="#2a7f62" stroke-width="2.2" stroke-linejoin="round" stroke-linecap="round" />
<polyline points="98.00,523.75 102.49,523.75 106.98,522.43 111.47,520.70 115.96,518.86 120.45,517.04 124.94,515.29 129.43,513.65 133.92,512.12 138.41,510.73 142.90,509.48 147.39,508.38 151.88,507.42 156.37,506.61 160.86,505.94 165.35,505.41 169.84,505.00 174.33,504.72 178.82,504.55 183.31,504.48 187.80,504.51 192.29,504.62 196.78,504.80 201.27,505.05 205.76,505.36 210.25,505.71 214.74,506.10 219.23,506.53 223.72,506.98 228.21,507.45 232.70,507.94 237.19,508.43 241.68,508.92 246.17,509.41 250.66,509.90 255.15,510.38 259.64,510.84 264.13,511.30 268.62,511.73 273.11,512.14 277.60,512.54 282.09,512.91 286.58,513.26 291.07,513.59 295.56,513.90 300.05,514.18 304.54,514.44 309.03,514.68 313.52,514.90 318.01,515.10 322.50,515.29 326.99,515.45 331.48,515.60 335.97,515.74 340.46,515.86 344.95,515.97 349.44,516.07 353.93,516.16 358.42,516.24 362.91,516.32 367.40,516.39 371.89,516.45 376.38,516.51 380.87,516.57 385.36,516.63 389.85,516.68 394.34,516.74 398.83,516.79 403.32,516.84 407.81,516.90 412.30,516.95 416.79,517.01 421.28,517.06 425.77,517.12 430.26,517.18 434.75,517.24 439.24,517.30 443.73,517.36 448.22,517.42 452.71,517.48 457.20,517.55 461.69,517.61 466.18,517.67 470.67,517.74 475.16,517.80 479.65,517.86 484.14,517.93 488.63,517.99 493.12,518.05 497.61,518.11 502.10,518.17 506.59,518.23 511.08,518.29 515.57,518.35 520.06,518.40 524.55,518.46 529.04,518.51 533.53,518.56 538.02,518.61 542.51,518.66 547.00,518.71 551.49,518.75 555.98,518.80 560.47,518.84 564.96,518.88 569.45,518.92 573.94,518.96 578.43,519.00 582.92,519.03 587.41,519.07 591.90,519.10 596.39,519.13 600.88,519.17 605.37,519.20 609.86,519.23 614.35,519.25 618.84,519.28 623.33,519.31 627.82,519.33 632.31,519.36 636.80,519.38 641.29,519.41 645.78,519.43 650.27,519.45 654.76,519.47 659.24,519.50 663.73,519.52 668.22,519.54 672.71,519.56 677.20,519.58 681.69,519.59 686.18,519.61 690.67,519.63 695.16,519.65 699.65,519.67 704.14,519.68 708.63,519.70 713.12,519.71 717.61,519.73 722.10,519.74 726.59,519.76 731.08,519.77 735.57,519.79 740.06,519.80 744.55,519.82 749.04,519.83 753.53,519.84 758.02,519.86 762.51,519.87 767.00,519.88 771.49,519.89 775.98,519.90 780.47,519.92 784.96,519.93 789.45,519.94 793.94,519.95 798.43,519.96 802.92,519.97 807.41,519.98 811.90,519.99 816.39,520.00 820.88,520.01 825.37,520.01 829.86,520.02 834.35,520.03 838.84,520.04 843.33,520.05 847.82,520.06 852.31,520.06 856.80,520.07 861.29,520.08 865.78,520.09 870.27,520.09 874.76,520.10 879.25,520.11 883.74,520.11 888.23,520.12 892.72,520.13 897.21,520.13 901.70,520.14 906.19,520.14 910.68,520.15 915.17,520.15 919.66,520.16 924.15,520.16 928.64,520.17 933.13,520.17 937.62,520.18 942.11,520.18 946.60,520.19 951.09,520.19 955.58,520.20 960.07,520.20 964.56,520.21 969.05,520.21 973.54,520.21 978.03,520.22 982.52,520.22 987.01,520.23 991.50,520.23 995.99,520.23 1000.48,520.24 1004.97,520.24 1009.46,520.24 1013.95,520.25 1018.44,520.25 1022.93,520.25 1027.42,520.25 1031.91,520.26 1036.40,520.26 1040.89,520.26 1045.38,520.27 1049.87,520.27 1054.36,520.27 1058.85,520.27 1063.34,520.28 1067.83,520.28 1072.32,520.28 1076.81,520.28 1081.30,520.29 1085.79,520.29 1090.28,520.29 1094.77,520.29 1099.26,520.29 1103.75,520.29 1108.24,520.29 1112.73,520.29 1117.22,520.30 1121.71,520.30 1126.20,520.30 1130.69,520.30 1135.18,520.30 1139.67,520.30 1144.16,520.31 1148.65,520.31 1153.14,520.31 1157.63,520.31 1162.12,520.31 1166.61,520.31 1171.10,520.32 1175.59,520.32 1180.08,520.32 1184.57,520.32 1189.06,520.32 1193.55,520.32 1198.04,520.32 1202.53,520.33 1207.02,520.33 1211.51,520.33 1216.00,520.33" fill="none" stroke="#2458d3" stroke-width="2.2" stroke-linejoin="round" stroke-linecap="round" />
<line x1="120.0" y1="686.0" x2="148.0" y2="686.0" stroke="#bf1e2d" stroke-width="2.4" />
<text x="158.0" y="690.0" fill="#1f2430" font-size="12" font-family="Segoe UI, Arial, sans-serif" font-weight="400" text-anchor="start">rho=0.95</text>
<line x1="285.0" y1="686.0" x2="313.0" y2="686.0" stroke="#c96b17" stroke-width="2.4" />
<text x="323.0" y="690.0" fill="#1f2430" font-size="12" font-family="Segoe UI, Arial, sans-serif" font-weight="400" text-anchor="start">rho=0.98</text>
<line x1="450.0" y1="686.0" x2="478.0" y2="686.0" stroke="#2a7f62" stroke-width="2.4" />
<text x="488.0" y="690.0" fill="#1f2430" font-size="12" font-family="Segoe UI, Arial, sans-serif" font-weight="400" text-anchor="start">rho=0.985</text>
<line x1="615.0" y1="686.0" x2="643.0" y2="686.0" stroke="#2458d3" stroke-width="2.4" />
<text x="653.0" y="690.0" fill="#1f2430" font-size="12" font-family="Segoe UI, Arial, sans-serif" font-weight="400" text-anchor="start">rho=0.99</text>
</svg>