<svg xmlns="http://www.w3.org/2000/svg" width="1280" height="760" viewBox="0 0 1280 760" role="img">
<rect x="0.0" y="0.0" width="1280.0" height="760.0" fill="#ffffff" stroke="none" stroke-width="1.0" rx="0.0" />
<text x="40.0" y="34.0" fill="#1f2430" font-size="22" font-family="Segoe UI, Arial, sans-serif" font-weight="600" text-anchor="start">Bounded hard + x_s smoothing: steady disturbance targets d_s across rho</text>
<text x="40.0" y="56.0" fill="#5d6574" font-size="13" font-family="Segoe UI, Arial, sans-serif" font-weight="400" text-anchor="start">These are the saved steady disturbance targets used by the frozen-output-disturbance target solve.</text>
<rect x="40.0" y="88.0" width="1200.0" height="250.0" fill="#fbfbfd" stroke="#d7dbe5" stroke-width="1.0" rx="8.0" />
<text x="56.0" y="112.0" fill="#1f2430" font-size="16" font-family="Segoe UI, Arial, sans-serif" font-weight="600" text-anchor="start">Disturbance target d_s[0]</text>
<text x="56.0" y="130.0" fill="#5d6574" font-size="12" font-family="Segoe UI, Arial, sans-serif" font-weight="400" text-anchor="start">Transient window 0-249 steps</text>
<line x1="98.0" y1="306.0" x2="1216.0" y2="306.0" stroke="#d7dbe5" stroke-width="1.0" stroke-dasharray="4 4" />
<text x="90.0" y="310.0" fill="#5d6574" font-size="11" font-family="Segoe UI, Arial, sans-serif" font-weight="400" text-anchor="end">-1.916</text>
<line x1="98.0" y1="226.0" x2="1216.0" y2="226.0" stroke="#d7dbe5" stroke-width="1.0" stroke-dasharray="4 4" />
<text x="90.0" y="230.0" fill="#5d6574" font-size="11" font-family="Segoe UI, Arial, sans-serif" font-weight="400" text-anchor="end">0.837</text>
<line x1="98.0" y1="146.0" x2="1216.0" y2="146.0" stroke="#d7dbe5" stroke-width="1.0" stroke-dasharray="4 4" />
<text x="90.0" y="150.0" fill="#5d6574" font-size="11" font-family="Segoe UI, Arial, sans-serif" font-weight="400" text-anchor="end">3.589</text>
<line x1="98.0" y1="146.0" x2="98.0" y2="306.0" stroke="#d7dbe5" stroke-width="1.0" stroke-dasharray="4 4" />
<text x="98.0" y="324.0" fill="#5d6574" font-size="11" font-family="Segoe UI, Arial, sans-serif" font-weight="400" text-anchor="middle">0</text>
<line x1="657.0" y1="146.0" x2="657.0" y2="306.0" stroke="#d7dbe5" stroke-width="1.0" stroke-dasharray="4 4" />
<text x="657.0" y="324.0" fill="#5d6574" font-size="11" font-family="Segoe UI, Arial, sans-serif" font-weight="400" text-anchor="middle">124</text>
<line x1="1216.0" y1="146.0" x2="1216.0" y2="306.0" stroke="#d7dbe5" stroke-width="1.0" stroke-dasharray="4 4" />
<text x="1216.0" y="324.0" fill="#5d6574" font-size="11" font-family="Segoe UI, Arial, sans-serif" font-weight="400" text-anchor="middle">249</text>
<line x1="98.0" y1="146.0" x2="98.0" y2="306.0" stroke="#2d3440" stroke-width="1.2" />
<line x1="98.0" y1="306.0" x2="1216.0" y2="306.0" stroke="#2d3440" stroke-width="1.2" />
<text x="56.0" y="160.0" fill="#5d6574" font-size="12" font-family="Segoe UI, Arial, sans-serif" font-weight="400" text-anchor="start">target</text>
<polyline points="98.00,250.31 102.49,250.31 106.98,250.17 111.47,249.57 115.96,248.25 120.45,246.09 124.94,243.15 129.43,239.63 133.92,235.72 138.41,231.65 142.90,227.61 147.39,223.74 151.88,220.16 156.37,216.93 160.86,214.09 165.35,211.64 169.84,209.59 174.33,207.91 178.82,206.58 183.31,205.57 187.80,204.84 192.29,204.35 196.78,204.08 201.27,203.98 205.76,204.03 210.25,204.20 214.74,204.45 219.23,204.78 223.72,205.16 228.21,205.56 232.70,205.98 237.19,206.39 241.68,206.79 246.17,207.17 250.66,207.51 255.15,207.82 259.64,208.07 264.13,208.28 268.62,208.43 273.11,208.52 277.60,208.55 282.09,208.52 286.58,208.43 291.07,208.28 295.56,208.07 300.05,207.81 304.54,207.49 309.03,207.12 313.52,206.70 318.01,206.24 322.50,205.73 326.99,205.19 331.48,204.62 335.97,204.01 340.46,203.38 344.95,202.73 349.44,202.07 353.93,201.39 358.42,200.71 362.91,200.04 367.40,199.50 371.89,199.17 376.38,199.13 380.87,199.33 385.36,199.72 389.85,200.19 394.34,200.66 398.83,201.07 403.32,201.36 407.81,201.51 412.30,201.50 416.79,201.33 421.28,201.01 425.77,200.55 430.26,199.96 434.75,199.27 439.24,198.48 443.73,197.61 448.22,196.78 452.71,196.38 457.20,196.86 461.69,198.46 466.18,201.10 470.67,204.49 475.16,208.28 479.65,212.16 484.14,215.85 488.63,219.17 493.12,222.00 497.61,224.27 502.10,225.95 506.59,227.02 511.08,227.48 515.57,227.37 520.06,226.77 524.55,225.78 529.04,224.52 533.53,223.06 538.02,221.42 542.51,219.62 547.00,217.65 551.49,215.51 555.98,213.20 560.47,210.75 564.96,208.19 569.45,205.56 573.94,202.90 578.43,200.25 582.92,197.65 587.41,195.14 591.90,192.73 596.39,190.47 600.88,188.37 605.37,186.43 609.86,184.67 614.35,183.09 618.84,181.68 623.33,180.45 627.82,179.38 632.31,178.48 636.80,177.71 641.29,177.08 645.78,176.61 650.27,176.37 654.76,176.45 659.24,176.86 663.73,177.61 668.22,178.65 672.71,179.93 677.20,181.39 681.69,183.01 686.18,184.73 690.67,186.52 695.16,188.37 699.65,190.24 704.14,192.13 708.63,194.01 713.12,195.88 717.61,197.71 722.10,199.51 726.59,201.25 731.08,202.94 735.57,204.56 740.06,206.11 744.55,207.57 749.04,208.96 753.53,210.19 758.02,211.17 762.51,211.65 767.00,211.36 771.49,210.12 775.98,208.01 780.47,205.27 784.96,202.20 789.45,199.09 793.94,196.19 798.43,193.67 802.92,191.61 807.41,190.06 811.90,189.00 816.39,188.41 820.88,188.23 825.37,188.40 829.86,188.85 834.35,190.07 838.84,192.95 843.33,197.99 847.82,205.00 852.31,213.37 856.80,222.38 861.29,231.44 865.78,240.12 870.27,248.19 874.76,255.54 879.25,262.17 883.74,268.08 888.23,273.31 892.72,277.84 897.21,281.65 901.70,284.66 906.19,286.79 910.68,287.95 915.17,288.12 919.66,287.39 924.15,285.58 928.64,282.16 933.13,276.59 937.62,268.68 942.11,258.68 946.60,247.14 951.09,234.78 955.58,222.31 960.07,210.34 964.56,199.34 969.05,189.59 973.54,181.25 978.03,174.34 982.52,168.81 987.01,164.55 991.50,161.42 995.99,159.27 1000.48,157.94 1004.97,157.26 1009.46,157.03 1013.95,157.11 1018.44,157.71 1022.93,159.38 1027.42,162.55 1031.91,167.24 1036.40,173.20 1040.89,180.06 1045.38,187.44 1049.87,195.02 1054.36,202.57 1058.85,209.94 1063.34,217.04 1067.83,223.82 1072.32,230.27 1076.81,236.36 1081.30,242.10 1085.79,247.51 1090.28,252.58 1094.77,257.31 1099.26,261.73 1103.75,265.83 1108.24,269.63 1112.73,273.12 1117.22,276.32 1121.71,279.24 1126.20,281.87 1130.69,284.23 1135.18,286.34 1139.67,288.18 1144.16,289.78 1148.65,291.15 1153.14,292.30 1157.63,293.22 1162.12,293.94 1166.61,294.47 1171.10,294.81 1175.59,294.97 1180.08,294.96 1184.57,294.79 1189.06,294.46 1193.55,293.99 1198.04,293.38 1202.53,292.64 1207.02,291.77 1211.51,290.78 1216.00,289.67" fill="none" stroke="#bf1e2d" stroke-width="2.2" stroke-linejoin="round" stroke-linecap="round" />
<polyline points="98.00,250.31 102.49,250.31 106.98,250.26 111.47,250.01 115.96,249.44 120.45,248.46 124.94,247.07 129.43,245.28 133.92,243.16 138.41,240.79 142.90,238.23 147.39,235.57 151.88,232.86 156.37,230.16 160.86,227.53 165.35,225.00 169.84,222.59 174.33,220.34 178.82,218.26 183.31,216.36 187.80,214.63 192.29,213.09 196.78,211.71 201.27,210.51 205.76,209.46 210.25,208.55 214.74,207.77 219.23,207.12 223.72,206.57 228.21,206.11 232.70,205.73 237.19,205.41 241.68,205.15 246.17,204.94 250.66,204.76 255.15,204.61 259.64,204.47 264.13,204.34 268.62,204.22 273.11,204.09 277.60,203.96 282.09,203.81 286.58,203.65 291.07,203.47 295.56,203.27 300.05,203.04 304.54,202.80 309.03,202.53 313.52,202.23 318.01,201.91 322.50,201.57 326.99,201.20 331.48,200.81 335.97,200.40 340.46,199.97 344.95,199.53 349.44,199.06 353.93,198.58 358.42,198.09 362.91,197.59 367.40,197.08 371.89,196.57 376.38,196.05 380.87,195.52 385.36,195.00 389.85,194.47 394.34,193.95 398.83,193.43 403.32,192.92 407.81,192.41 412.30,191.90 416.79,191.41 421.28,190.93 425.77,190.45 430.26,189.98 434.75,189.53 439.24,189.08 443.73,188.65 448.22,188.22 452.71,187.81 457.20,187.41 461.69,187.02 466.18,186.64 470.67,186.27 475.16,185.91 479.65,185.56 484.14,185.22 488.63,184.89 493.12,184.57 497.61,184.26 502.10,183.96 506.59,183.66 511.08,183.38 515.57,183.10 520.06,182.82 524.55,182.56 529.04,182.30 533.53,182.05 538.02,181.80 542.51,181.56 547.00,181.33 551.49,181.10 555.98,180.87 560.47,180.65 564.96,180.44 569.45,180.23 573.94,180.02 578.43,179.82 582.92,179.62 587.41,179.43 591.90,179.24 596.39,179.05 600.88,178.87 605.37,178.69 609.86,178.52 614.35,178.34 618.84,178.18 623.33,178.01 627.82,177.85 632.31,177.70 636.80,177.54 641.29,177.39 645.78,177.25 650.27,177.11 654.76,176.97 659.24,176.83 663.73,176.69 668.22,176.56 672.71,176.43 677.20,176.31 681.69,176.18 686.18,176.06 690.67,175.95 695.16,175.83 699.65,175.72 704.14,175.61 708.63,175.50 713.12,175.39 717.61,175.29 722.10,175.19 726.59,175.09 731.08,174.99 735.57,174.90 740.06,174.80 744.55,174.71 749.04,174.62 753.53,174.54 758.02,174.45 762.51,174.37 767.00,174.29 771.49,174.21 775.98,174.13 780.47,174.05 784.96,173.98 789.45,173.91 793.94,173.84 798.43,173.77 802.92,173.70 807.41,173.63 811.90,173.57 816.39,173.50 820.88,173.44 825.37,173.38 829.86,173.32 834.35,173.27 838.84,173.21 843.33,173.15 847.82,173.10 852.31,173.05 856.80,173.00 861.29,172.95 865.78,172.90 870.27,172.85 874.76,172.80 879.25,172.76 883.74,172.71 888.23,172.67 892.72,172.63 897.21,172.58 901.70,172.54 906.19,172.50 910.68,172.47 915.17,172.43 919.66,172.39 924.15,172.35 928.64,172.32 933.13,172.28 937.62,172.25 942.11,172.22 946.60,172.19 951.09,172.15 955.58,172.12 960.07,172.09 964.56,172.06 969.05,172.03 973.54,172.01 978.03,171.98 982.52,171.95 987.01,171.93 991.50,171.90 995.99,171.88 1000.48,171.85 1004.97,171.83 1009.46,171.80 1013.95,171.78 1018.44,171.76 1022.93,171.74 1027.42,171.72 1031.91,171.70 1036.40,171.68 1040.89,171.66 1045.38,171.64 1049.87,171.62 1054.36,171.60 1058.85,171.58 1063.34,171.56 1067.83,171.55 1072.32,171.53 1076.81,171.51 1081.30,171.50 1085.79,171.48 1090.28,171.47 1094.77,171.45 1099.26,171.44 1103.75,171.42 1108.24,171.41 1112.73,171.42 1117.22,171.44 1121.71,171.49 1126.20,171.55 1130.69,171.62 1135.18,171.69 1139.67,171.75 1144.16,171.81 1148.65,171.85 1153.14,171.87 1157.63,171.83 1162.12,171.58 1166.61,171.00 1171.10,170.05 1175.59,168.76 1180.08,167.24 1184.57,165.60 1189.06,163.95 1193.55,162.38 1198.04,160.94 1202.53,159.67 1207.02,158.62 1211.51,157.99 1216.00,158.10" fill="none" stroke="#c96b17" stroke-width="2.2" stroke-linejoin="round" stroke-linecap="round" />
<polyline points="98.00,250.31 102.49,250.31 106.98,250.27 111.47,250.08 115.96,249.63 120.45,248.84 124.94,247.69 129.43,246.19 133.92,244.36 138.41,242.26 142.90,239.96 147.39,237.55 151.88,235.09 156.37,232.64 160.86,230.24 165.35,227.91 169.84,225.67 174.33,223.54 178.82,221.52 183.31,219.62 187.80,217.86 192.29,216.22 196.78,214.72 201.27,213.36 205.76,212.12 210.25,211.02 214.74,210.03 219.23,209.16 223.72,208.39 228.21,207.71 232.70,207.12 237.19,206.61 241.68,206.16 246.17,205.76 250.66,205.42 255.15,205.11 259.64,204.84 264.13,204.59 268.62,204.36 273.11,204.13 277.60,203.92 282.09,203.70 286.58,203.49 291.07,203.26 295.56,203.03 300.05,202.78 304.54,202.52 309.03,202.25 313.52,201.95 318.01,201.64 322.50,201.31 326.99,200.97 331.48,200.60 335.97,200.22 340.46,199.82 344.95,199.40 349.44,198.97 353.93,198.53 358.42,198.07 362.91,197.61 367.40,197.13 371.89,196.65 376.38,196.16 380.87,195.67 385.36,195.17 389.85,194.67 394.34,194.17 398.83,193.68 403.32,193.18 407.81,192.69 412.30,192.20 416.79,191.72 421.28,191.25 425.77,190.78 430.26,190.32 434.75,189.87 439.24,189.42 443.73,188.99 448.22,188.57 452.71,188.15 457.20,187.75 461.69,187.35 466.18,186.97 470.67,186.59 475.16,186.23 479.65,185.87 484.14,185.53 488.63,185.19 493.12,184.86 497.61,184.54 502.10,184.23 506.59,183.93 511.08,183.63 515.57,183.35 520.06,183.07 524.55,182.80 529.04,182.53 533.53,182.27 538.02,182.02 542.51,181.77 547.00,181.53 551.49,181.30 555.98,181.07 560.47,180.84 564.96,180.62 569.45,180.41 573.94,180.20 578.43,179.99 582.92,179.79 587.41,179.59 591.90,179.58 596.39,180.11 600.88,181.40 605.37,183.47 609.86,186.14 614.35,189.15 618.84,192.25 623.33,195.23 627.82,197.95 632.31,200.30 636.80,202.23 641.29,203.71 645.78,204.74 650.27,205.32 654.76,205.49 659.24,205.25 663.73,204.66 668.22,203.73 672.71,202.52 677.20,201.06 681.69,199.40 686.18,197.58 690.67,195.65 695.16,193.64 699.65,191.60 704.14,189.56 708.63,187.56 713.12,185.61 717.61,183.76 722.10,182.00 726.59,180.37 731.08,178.86 735.57,177.48 740.06,176.24 744.55,175.14 749.04,174.17 753.53,173.34 758.02,172.62 762.51,172.02 767.00,171.52 771.49,171.13 775.98,170.82 780.47,170.59 784.96,170.44 789.45,170.35 793.94,170.31 798.43,170.32 802.92,170.37 807.41,170.45 811.90,170.56 816.39,170.68 820.88,170.83 825.37,170.98 829.86,171.14 834.35,171.30 838.84,171.46 843.33,171.62 847.82,171.77 852.31,171.92 856.80,172.06 861.29,172.18 865.78,172.30 870.27,172.40 874.76,172.49 879.25,172.57 883.74,172.63 888.23,172.68 892.72,172.72 897.21,172.75 901.70,172.77 906.19,172.77 910.68,172.77 915.17,172.75 919.66,172.73 924.15,172.70 928.64,172.67 933.13,172.62 937.62,172.58 942.11,172.52 946.60,172.47 951.09,172.41 955.58,172.35 960.07,172.29 964.56,172.23 969.05,172.17 973.54,172.11 978.03,172.04 982.52,171.98 987.01,171.93 991.50,171.87 995.99,171.81 1000.48,171.76 1004.97,171.71 1009.46,171.66 1013.95,171.62 1018.44,171.57 1022.93,171.53 1027.42,171.49 1031.91,171.46 1036.40,171.43 1040.89,171.39 1045.38,171.37 1049.87,171.34 1054.36,171.31 1058.85,171.29 1063.34,171.27 1067.83,171.25 1072.32,171.23 1076.81,171.22 1081.30,171.20 1085.79,171.19 1090.28,171.17 1094.77,171.16 1099.26,171.15 1103.75,171.14 1108.24,171.13 1112.73,171.12 1117.22,171.11 1121.71,171.10 1126.20,171.09 1130.69,171.09 1135.18,171.08 1139.67,171.07 1144.16,171.06 1148.65,171.06 1153.14,171.05 1157.63,171.04 1162.12,171.04 1166.61,171.03 1171.10,171.02 1175.59,171.02 1180.08,171.01 1184.57,171.00 1189.06,171.00 1193.55,170.99 1198.04,170.98 1202.53,170.98 1207.02,170.97 1211.51,170.97 1216.00,170.96" fill="none" stroke="#2a7f62" stroke-width="2.2" stroke-linejoin="round" stroke-linecap="round" />
<polyline points="98.00,250.31 102.49,250.31 106.98,250.28 111.47,250.15 115.96,249.82 120.45,249.22 124.94,248.31 129.43,247.08 133.92,245.54 138.41,243.72 142.90,241.66 147.39,239.41 151.88,237.02 156.37,234.53 160.86,232.01 165.35,229.49 169.84,227.00 174.33,224.60 178.82,222.29 183.31,220.11 187.80,218.06 192.29,216.16 196.78,214.42 201.27,212.84 205.76,211.41 210.25,210.13 214.74,209.00 219.23,208.00 223.72,207.12 228.21,206.36 232.70,205.70 237.19,205.14 241.68,204.65 246.17,204.23 250.66,203.88 255.15,203.57 259.64,203.30 264.13,203.06 268.62,202.85 273.11,202.65 277.60,202.47 282.09,202.29 286.58,202.10 291.07,201.92 295.56,201.72 300.05,201.52 304.54,201.30 309.03,201.06 313.52,200.81 318.01,200.54 322.50,200.25 326.99,199.93 331.48,199.61 335.97,199.26 340.46,198.89 344.95,198.51 349.44,198.10 353.93,197.69 358.42,197.26 362.91,196.82 367.40,196.36 371.89,195.90 376.38,195.43 380.87,194.96 385.36,194.48 389.85,193.99 394.34,193.51 398.83,193.02 403.32,192.54 407.81,192.06 412.30,191.58 416.79,191.11 421.28,190.65 425.77,190.19 430.26,189.73 434.75,189.29 439.24,188.86 443.73,188.43 448.22,188.01 452.71,187.61 457.20,187.21 461.69,186.82 466.18,186.44 470.67,186.08 475.16,185.72 479.65,185.37 484.14,185.03 488.63,184.70 493.12,184.38 497.61,184.07 502.10,183.77 506.59,183.48 511.08,183.19 515.57,182.91 520.06,182.64 524.55,182.38 529.04,182.12 533.53,181.87 538.02,181.63 542.51,181.39 547.00,181.16 551.49,180.93 555.98,180.71 560.47,180.49 564.96,180.28 569.45,180.07 573.94,179.87 578.43,179.67 582.92,179.48 587.41,179.29 591.90,179.10 596.39,178.92 600.88,178.74 605.37,178.57 609.86,178.40 614.35,178.24 618.84,178.08 623.33,177.92 627.82,177.77 632.31,177.62 636.80,177.48 641.29,177.34 645.78,177.20 650.27,177.07 654.76,176.94 659.24,176.81 663.73,176.68 668.22,176.56 672.71,176.44 677.20,176.32 681.69,176.21 686.18,176.10 690.67,175.99 695.16,175.88 699.65,175.77 704.14,175.67 708.63,175.56 713.12,175.46 717.61,175.36 722.10,175.27 726.59,175.17 731.08,175.08 735.57,174.98 740.06,174.89 744.55,174.80 749.04,174.72 753.53,174.63 758.02,174.55 762.51,174.47 767.00,174.39 771.49,174.31 775.98,174.23 780.47,174.15 784.96,174.08 789.45,174.01 793.94,173.93 798.43,173.86 802.92,173.80 807.41,173.73 811.90,173.66 816.39,173.60 820.88,173.54 825.37,173.48 829.86,173.42 834.35,173.36 838.84,173.30 843.33,173.25 847.82,173.19 852.31,173.14 856.80,173.09 861.29,173.04 865.78,172.99 870.27,172.94 874.76,172.89 879.25,172.84 883.74,172.80 888.23,172.75 892.72,172.71 897.21,172.67 901.70,172.63 906.19,172.59 910.68,172.55 915.17,172.51 919.66,172.47 924.15,172.43 928.64,172.40 933.13,172.36 937.62,172.33 942.11,172.30 946.60,172.26 951.09,172.23 955.58,172.20 960.07,172.17 964.56,172.14 969.05,172.11 973.54,172.08 978.03,172.05 982.52,172.02 987.01,172.00 991.50,171.97 995.99,171.94 1000.48,171.92 1004.97,171.90 1009.46,171.87 1013.95,171.85 1018.44,171.82 1022.93,171.80 1027.42,171.78 1031.91,171.76 1036.40,171.74 1040.89,171.72 1045.38,171.70 1049.87,171.68 1054.36,171.66 1058.85,171.64 1063.34,171.62 1067.83,171.60 1072.32,171.59 1076.81,171.57 1081.30,171.55 1085.79,171.53 1090.28,171.52 1094.77,171.50 1099.26,171.49 1103.75,171.47 1108.24,171.46 1112.73,171.44 1117.22,171.43 1121.71,171.42 1126.20,171.40 1130.69,171.39 1135.18,171.38 1139.67,171.36 1144.16,171.35 1148.65,171.34 1153.14,171.33 1157.63,171.32 1162.12,171.31 1166.61,171.29 1171.10,171.28 1175.59,171.27 1180.08,171.26 1184.57,171.25 1189.06,171.24 1193.55,171.23 1198.04,171.22 1202.53,171.22 1207.02,171.21 1211.51,171.20 1216.00,171.19" fill="none" stroke="#2458d3" stroke-width="2.2" stroke-linejoin="round" stroke-linecap="round" />
<rect x="40.0" y="370.0" width="1200.0" height="250.0" fill="#fbfbfd" stroke="#d7dbe5" stroke-width="1.0" rx="8.0" />
<text x="56.0" y="394.0" fill="#1f2430" font-size="16" font-family="Segoe UI, Arial, sans-serif" font-weight="600" text-anchor="start">Disturbance target d_s[1]</text>
<text x="56.0" y="412.0" fill="#5d6574" font-size="12" font-family="Segoe UI, Arial, sans-serif" font-weight="400" text-anchor="start">Transient window 0-249 steps</text>
<line x1="98.0" y1="588.0" x2="1216.0" y2="588.0" stroke="#d7dbe5" stroke-width="1.0" stroke-dasharray="4 4" />
<text x="90.0" y="592.0" fill="#5d6574" font-size="11" font-family="Segoe UI, Arial, sans-serif" font-weight="400" text-anchor="end">-11.234</text>
<line x1="98.0" y1="508.0" x2="1216.0" y2="508.0" stroke="#d7dbe5" stroke-width="1.0" stroke-dasharray="4 4" />
<text x="90.0" y="512.0" fill="#5d6574" font-size="11" font-family="Segoe UI, Arial, sans-serif" font-weight="400" text-anchor="end">-1.653</text>
<line x1="98.0" y1="428.0" x2="1216.0" y2="428.0" stroke="#d7dbe5" stroke-width="1.0" stroke-dasharray="4 4" />
<text x="90.0" y="432.0" fill="#5d6574" font-size="11" font-family="Segoe UI, Arial, sans-serif" font-weight="400" text-anchor="end">7.928</text>
<line x1="98.0" y1="428.0" x2="98.0" y2="588.0" stroke="#d7dbe5" stroke-width="1.0" stroke-dasharray="4 4" />
<text x="98.0" y="606.0" fill="#5d6574" font-size="11" font-family="Segoe UI, Arial, sans-serif" font-weight="400" text-anchor="middle">0</text>
<line x1="657.0" y1="428.0" x2="657.0" y2="588.0" stroke="#d7dbe5" stroke-width="1.0" stroke-dasharray="4 4" />
<text x="657.0" y="606.0" fill="#5d6574" font-size="11" font-family="Segoe UI, Arial, sans-serif" font-weight="400" text-anchor="middle">124</text>
<line x1="1216.0" y1="428.0" x2="1216.0" y2="588.0" stroke="#d7dbe5" stroke-width="1.0" stroke-dasharray="4 4" />
<text x="1216.0" y="606.0" fill="#5d6574" font-size="11" font-family="Segoe UI, Arial, sans-serif" font-weight="400" text-anchor="middle">249</text>
<line x1="98.0" y1="428.0" x2="98.0" y2="588.0" stroke="#2d3440" stroke-width="1.2" />
<line x1="98.0" y1="588.0" x2="1216.0" y2="588.0" stroke="#2d3440" stroke-width="1.2" />
<text x="56.0" y="442.0" fill="#5d6574" font-size="12" font-family="Segoe UI, Arial, sans-serif" font-weight="400" text-anchor="start">target</text>
<polyline points="98.00,494.20 102.49,494.20 106.98,486.67 111.47,479.32 115.96,473.55 120.45,469.24 124.94,466.06 129.43,463.71 133.92,462.01 138.41,460.82 142.90,460.04 147.39,459.61 151.88,459.48 156.37,459.61 160.86,459.94 165.35,460.45 169.84,461.12 174.33,461.90 178.82,462.79 183.31,463.76 187.80,464.78 192.29,465.86 196.78,466.96 201.27,468.09 205.76,469.21 210.25,470.34 214.74,471.45 219.23,472.53 223.72,473.58 228.21,474.60 232.70,475.57 237.19,476.50 241.68,477.37 246.17,478.18 250.66,478.94 255.15,479.63 259.64,480.27 264.13,480.85 268.62,481.37 273.11,481.83 277.60,482.24 282.09,482.59 286.58,482.90 291.07,483.16 295.56,483.39 300.05,483.57 304.54,483.73 309.03,483.85 313.52,483.95 318.01,484.03 322.50,484.10 326.99,484.15 331.48,484.19 335.97,484.22 340.46,484.25 344.95,484.28 349.44,484.30 353.93,484.33 358.42,484.36 362.91,485.59 367.40,488.22 371.89,490.41 376.38,491.93 380.87,492.90 385.36,493.46 389.85,493.71 394.34,493.74 398.83,493.60 403.32,493.32 407.81,492.95 412.30,492.50 416.79,491.99 421.28,491.46 425.77,490.90 430.26,490.35 434.75,489.80 439.24,489.28 443.73,488.78 448.22,493.06 452.71,505.15 457.20,514.90 461.69,521.18 466.18,524.69 470.67,526.24 475.16,526.37 479.65,525.47 484.14,523.79 488.63,521.53 493.12,518.85 497.61,515.86 502.10,512.70 506.59,509.45 511.08,506.19 515.57,503.93 520.06,502.52 524.55,501.67 529.04,500.31 533.53,498.50 538.02,496.45 542.51,494.35 547.00,492.32 551.49,490.42 555.98,488.69 560.47,487.15 564.96,485.80 569.45,484.64 573.94,483.67 578.43,482.88 582.92,482.25 587.41,481.77 591.90,481.44 596.39,481.23 600.88,481.13 605.37,481.14 609.86,481.23 614.35,481.40 618.84,481.63 623.33,481.92 627.82,482.24 632.31,482.60 636.80,482.99 641.29,482.70 645.78,482.77 650.27,481.32 654.76,478.91 659.24,476.24 663.73,473.75 668.22,471.62 672.71,469.90 677.20,468.57 681.69,467.60 686.18,466.93 690.67,466.51 695.16,466.30 699.65,466.26 704.14,466.37 708.63,466.58 713.12,466.89 717.61,467.27 722.10,467.70 726.59,468.17 731.08,468.67 735.57,469.19 740.06,469.71 744.55,470.24 749.04,470.76 753.53,469.10 758.02,467.59 762.51,461.66 767.00,456.66 771.49,453.37 775.98,451.50 780.47,450.67 784.96,450.56 789.45,450.98 793.94,451.79 798.43,452.89 802.92,454.22 807.41,455.73 811.90,457.38 816.39,459.13 820.88,460.96 825.37,462.71 829.86,464.10 834.35,484.09 838.84,506.08 843.33,525.95 847.82,542.75 852.31,556.25 856.80,566.34 861.29,573.05 865.78,576.51 870.27,576.97 874.76,574.79 879.25,570.43 883.74,564.34 888.23,556.99 892.72,548.82 897.21,540.20 901.70,531.47 906.19,522.87 910.68,516.86 915.17,513.07 919.66,510.75 924.15,490.79 928.64,473.87 933.13,462.55 937.62,455.59 942.11,451.53 946.60,449.35 951.09,448.43 955.58,448.38 960.07,448.96 964.56,450.02 969.05,451.43 973.54,453.12 978.03,454.99 982.52,457.00 987.01,459.09 991.50,461.22 995.99,463.36 1000.48,465.06 1004.97,466.34 1009.46,467.31 1013.95,468.07 1018.44,478.75 1022.93,484.22 1027.42,484.41 1031.91,481.56 1036.40,477.41 1040.89,472.92 1045.38,468.59 1049.87,464.60 1054.36,461.02 1058.85,457.84 1063.34,455.02 1067.83,452.53 1072.32,450.33 1076.81,448.39 1081.30,446.69 1085.79,445.19 1090.28,443.89 1094.77,442.76 1099.26,441.80 1103.75,440.99 1108.24,440.33 1112.73,439.81 1117.22,439.43 1121.71,439.17 1126.20,439.04 1130.69,439.03 1135.18,439.15 1139.67,439.38 1144.16,439.72 1148.65,440.17 1153.14,440.73 1157.63,441.39 1162.12,442.15 1166.61,443.00 1171.10,443.93 1175.59,444.94 1180.08,446.02 1184.57,447.16 1189.06,448.36 1193.55,449.60 1198.04,450.88 1202.53,452.19 1207.02,453.52 1211.51,454.86 1216.00,456.20" fill="none" stroke="#bf1e2d" stroke-width="2.2" stroke-linejoin="round" stroke-linecap="round" />
<polyline points="98.00,494.20 102.49,494.20 106.98,491.12 111.47,487.69 115.96,484.54 120.45,481.78 124.94,479.37 129.43,477.26 133.92,475.44 138.41,473.87 142.90,472.54 147.39,471.44 151.88,470.55 156.37,469.86 160.86,469.36 165.35,469.02 169.84,468.85 174.33,468.81 178.82,468.89 183.31,469.09 187.80,469.38 192.29,469.76 196.78,470.21 201.27,470.72 205.76,471.28 210.25,471.88 214.74,472.50 219.23,473.15 223.72,473.82 228.21,474.49 232.70,475.16 237.19,475.83 241.68,476.48 246.17,477.12 250.66,477.74 255.15,478.34 259.64,478.92 264.13,479.47 268.62,479.98 273.11,480.47 277.60,480.93 282.09,481.36 286.58,481.75 291.07,482.12 295.56,482.45 300.05,482.76 304.54,483.04 309.03,483.29 313.52,483.52 318.01,483.72 322.50,483.90 326.99,484.07 331.48,484.22 335.97,484.35 340.46,484.47 344.95,484.58 349.44,484.68 353.93,484.77 358.42,484.86 362.91,484.94 367.40,485.01 371.89,485.08 376.38,485.15 380.87,485.22 385.36,485.29 389.85,485.36 394.34,485.43 398.83,485.50 403.32,485.57 407.81,485.64 412.30,485.72 416.79,485.79 421.28,485.87 425.77,485.95 430.26,486.03 434.75,486.12 439.24,486.20 443.73,486.29 448.22,486.37 452.71,486.46 457.20,486.54 461.69,486.63 466.18,486.71 470.67,486.80 475.16,486.89 479.65,486.97 484.14,487.05 488.63,487.13 493.12,487.22 497.61,487.29 502.10,487.37 506.59,487.45 511.08,487.52 515.57,487.59 520.06,487.66 524.55,487.73 529.04,487.80 533.53,487.86 538.02,487.92 542.51,487.98 547.00,488.04 551.49,488.10 555.98,488.15 560.47,488.20 564.96,488.25 569.45,488.30 573.94,488.35 578.43,488.39 582.92,488.43 587.41,488.46 591.90,488.50 596.39,488.53 600.88,488.56 605.37,488.60 609.86,488.63 614.35,488.66 618.84,488.69 623.33,488.73 627.82,488.76 632.31,488.79 636.80,488.82 641.29,488.85 645.78,488.88 650.27,488.91 654.76,488.94 659.24,488.97 663.73,488.99 668.22,489.02 672.71,489.05 677.20,489.07 681.69,489.10 686.18,489.12 690.67,489.14 695.16,489.16 699.65,489.19 704.14,489.21 708.63,489.23 713.12,489.25 717.61,489.27 722.10,489.29 726.59,489.31 731.08,489.32 735.57,489.34 740.06,489.36 744.55,489.38 749.04,489.39 753.53,489.41 758.02,489.43 762.51,489.44 767.00,489.46 771.49,489.47 775.98,489.49 780.47,489.50 784.96,489.51 789.45,489.53 793.94,489.54 798.43,489.55 802.92,489.57 807.41,489.58 811.90,489.59 816.39,489.60 820.88,489.61 825.37,489.62 829.86,489.63 834.35,489.65 838.84,489.66 843.33,489.67 847.82,489.68 852.31,489.69 856.80,489.70 861.29,489.70 865.78,489.71 870.27,489.72 874.76,489.73 879.25,489.74 883.74,489.75 888.23,489.76 892.72,489.76 897.21,489.77 901.70,489.78 906.19,489.79 910.68,489.79 915.17,489.80 919.66,489.81 924.15,489.81 928.64,489.82 933.13,489.83 937.62,489.83 942.11,489.84 946.60,489.84 951.09,489.85 955.58,489.86 960.07,489.86 964.56,489.87 969.05,489.87 973.54,489.88 978.03,489.88 982.52,489.89 987.01,489.89 991.50,489.90 995.99,489.90 1000.48,489.90 1004.97,489.91 1009.46,489.91 1013.95,489.92 1018.44,489.92 1022.93,489.92 1027.42,489.93 1031.91,489.93 1036.40,489.94 1040.89,489.94 1045.38,489.94 1049.87,489.95 1054.36,489.95 1058.85,489.95 1063.34,489.96 1067.83,489.96 1072.32,489.96 1076.81,489.96 1081.30,489.97 1085.79,489.97 1090.28,489.97 1094.77,489.98 1099.26,489.98 1103.75,489.98 1108.24,490.22 1112.73,490.45 1117.22,490.62 1121.71,490.73 1126.20,490.80 1130.69,490.84 1135.18,490.85 1139.67,490.85 1144.16,490.83 1148.65,490.80 1153.14,490.78 1157.63,488.47 1162.12,486.09 1166.61,484.97 1171.10,484.82 1175.59,485.19 1180.08,485.79 1184.57,486.48 1189.06,487.17 1193.55,487.83 1198.04,488.46 1202.53,489.05 1207.02,491.11 1211.51,499.40 1216.00,506.03" fill="none" stroke="#c96b17" stroke-width="2.2" stroke-linejoin="round" stroke-linecap="round" />
<polyline points="98.00,494.20 102.49,494.20 106.98,491.86 111.47,489.08 115.96,486.39 120.45,483.90 124.94,481.62 129.43,479.56 133.92,477.72 138.41,476.09 142.90,475.11 147.39,474.24 151.88,473.42 156.37,472.67 160.86,472.03 165.35,471.51 169.84,471.13 174.33,470.87 178.82,470.73 183.31,470.71 187.80,470.78 192.29,470.95 196.78,471.19 201.27,471.51 205.76,471.89 210.25,472.32 214.74,472.79 219.23,473.29 223.72,473.83 228.21,474.38 232.70,474.94 237.19,475.52 241.68,476.09 246.17,476.67 250.66,477.23 255.15,477.79 259.64,478.33 264.13,478.85 268.62,479.35 273.11,479.84 277.60,480.29 282.09,480.73 286.58,481.14 291.07,481.52 295.56,481.88 300.05,482.21 304.54,482.52 309.03,482.80 313.52,483.07 318.01,483.31 322.50,483.53 326.99,483.73 331.48,483.91 335.97,484.08 340.46,484.23 344.95,484.37 349.44,484.49 353.93,484.61 358.42,484.72 362.91,484.82 367.40,484.91 371.89,485.00 376.38,485.09 380.87,485.17 385.36,485.25 389.85,485.33 394.34,485.40 398.83,485.48 403.32,485.55 407.81,485.63 412.30,485.71 416.79,485.78 421.28,485.86 425.77,485.94 430.26,486.02 434.75,486.10 439.24,486.18 443.73,486.26 448.22,486.34 452.71,486.42 457.20,486.50 461.69,486.59 466.18,486.67 470.67,486.75 475.16,486.83 479.65,486.92 484.14,487.00 488.63,487.08 493.12,487.15 497.61,487.23 502.10,487.31 506.59,487.38 511.08,487.45 515.57,487.53 520.06,487.60 524.55,487.66 529.04,487.73 533.53,487.79 538.02,487.86 542.51,487.92 547.00,487.98 551.49,488.03 555.98,488.09 560.47,488.14 564.96,488.19 569.45,488.24 573.94,488.29 578.43,488.34 582.92,488.39 587.41,488.43 591.90,497.20 596.39,504.93 600.88,510.17 605.37,513.36 609.86,515.05 614.35,515.69 618.84,515.55 623.33,514.84 627.82,513.68 632.31,512.18 636.80,510.42 641.29,508.49 645.78,506.45 650.27,504.36 654.76,502.27 659.24,500.22 663.73,498.24 668.22,496.36 672.71,494.61 677.20,492.99 681.69,491.52 686.18,490.21 690.67,489.05 695.16,488.04 699.65,487.18 704.14,486.47 708.63,485.89 713.12,485.43 717.61,485.09 722.10,484.86 726.59,484.71 731.08,484.66 735.57,484.67 740.06,484.75 744.55,484.89 749.04,485.07 753.53,485.29 758.02,485.53 762.51,485.80 767.00,486.09 771.49,486.39 775.98,486.69 780.47,487.00 784.96,487.30 789.45,487.60 793.94,487.89 798.43,488.17 802.92,488.43 807.41,488.68 811.90,488.92 816.39,489.14 820.88,489.34 825.37,489.52 829.86,489.68 834.35,489.83 838.84,489.96 843.33,490.08 847.82,490.18 852.31,490.26 856.80,490.33 861.29,490.38 865.78,490.42 870.27,490.45 874.76,490.48 879.25,490.49 883.74,490.49 888.23,490.49 892.72,490.48 897.21,490.46 901.70,490.44 906.19,490.42 910.68,490.39 915.17,490.36 919.66,490.33 924.15,490.30 928.64,490.27 933.13,490.24 937.62,490.21 942.11,490.18 946.60,490.16 951.09,490.13 955.58,490.11 960.07,490.09 964.56,490.07 969.05,490.05 973.54,490.03 978.03,490.02 982.52,490.01 987.01,490.00 991.50,489.99 995.99,489.98 1000.48,489.98 1004.97,489.97 1009.46,489.97 1013.95,489.97 1018.44,489.97 1022.93,489.98 1027.42,489.98 1031.91,489.98 1036.40,489.99 1040.89,489.99 1045.38,490.00 1049.87,490.00 1054.36,490.01 1058.85,490.01 1063.34,490.02 1067.83,490.02 1072.32,490.03 1076.81,490.04 1081.30,490.04 1085.79,490.05 1090.28,490.05 1094.77,490.06 1099.26,490.06 1103.75,490.06 1108.24,490.07 1112.73,490.07 1117.22,490.08 1121.71,490.08 1126.20,490.08 1130.69,490.08 1135.18,490.09 1139.67,490.09 1144.16,490.09 1148.65,490.09 1153.14,490.09 1157.63,490.09 1162.12,490.09 1166.61,490.10 1171.10,490.10 1175.59,490.10 1180.08,490.10 1184.57,490.10 1189.06,490.10 1193.55,490.10 1198.04,490.10 1202.53,490.10 1207.02,490.10 1211.51,490.10 1216.00,490.10" fill="none" stroke="#2a7f62" stroke-width="2.2" stroke-linejoin="round" stroke-linecap="round" />
<polyline points="98.00,494.20 102.49,494.20 106.98,492.60 111.47,490.48 115.96,488.24 120.45,486.02 124.94,483.88 129.43,481.88 133.92,480.01 138.41,478.32 142.90,476.79 147.39,475.44 151.88,474.27 156.37,473.28 160.86,472.47 165.35,471.82 169.84,471.32 174.33,470.98 178.82,470.77 183.31,470.69 187.80,470.72 192.29,470.86 196.78,471.08 201.27,471.39 205.76,471.76 210.25,472.19 214.74,472.67 219.23,473.19 223.72,473.74 228.21,474.31 232.70,474.90 237.19,475.50 241.68,476.11 246.17,476.71 250.66,477.30 255.15,477.89 259.64,478.45 264.13,479.00 268.62,479.53 273.11,480.04 277.60,480.52 282.09,480.98 286.58,481.41 291.07,481.81 295.56,482.18 300.05,482.53 304.54,482.85 309.03,483.14 313.52,483.41 318.01,483.65 322.50,483.88 326.99,484.08 331.48,484.26 335.97,484.42 340.46,484.57 344.95,484.71 349.44,484.83 353.93,484.94 358.42,485.04 362.91,485.13 367.40,485.22 371.89,485.30 376.38,485.37 380.87,485.44 385.36,485.51 389.85,485.58 394.34,485.64 398.83,485.71 403.32,485.77 407.81,485.84 412.30,485.91 416.79,485.97 421.28,486.04 425.77,486.11 430.26,486.18 434.75,486.26 439.24,486.33 443.73,486.40 448.22,486.48 452.71,486.56 457.20,486.63 461.69,486.71 466.18,486.79 470.67,486.87 475.16,486.94 479.65,487.02 484.14,487.10 488.63,487.17 493.12,487.25 497.61,487.32 502.10,487.40 506.59,487.47 511.08,487.54 515.57,487.61 520.06,487.68 524.55,487.74 529.04,487.81 533.53,487.87 538.02,487.93 542.51,487.99 547.00,488.05 551.49,488.10 555.98,488.16 560.47,488.21 564.96,488.26 569.45,488.31 573.94,488.35 578.43,488.38 582.92,488.41 587.41,488.44 591.90,488.46 596.39,488.48 600.88,488.50 605.37,488.53 609.86,488.56 614.35,488.59 618.84,488.62 623.33,488.65 627.82,488.68 632.31,488.72 636.80,488.75 641.29,488.78 645.78,488.82 650.27,488.85 654.76,488.88 659.24,488.91 663.73,488.94 668.22,488.97 672.71,489.00 677.20,489.02 681.69,489.05 686.18,489.08 690.67,489.10 695.16,489.12 699.65,489.15 704.14,489.17 708.63,489.19 713.12,489.21 717.61,489.23 722.10,489.25 726.59,489.27 731.08,489.29 735.57,489.31 740.06,489.32 744.55,489.34 749.04,489.36 753.53,489.37 758.02,489.39 762.51,489.40 767.00,489.42 771.49,489.43 775.98,489.45 780.47,489.46 784.96,489.47 789.45,489.49 793.94,489.50 798.43,489.51 802.92,489.53 807.41,489.54 811.90,489.55 816.39,489.56 820.88,489.57 825.37,489.59 829.86,489.60 834.35,489.61 838.84,489.62 843.33,489.63 847.82,489.64 852.31,489.65 856.80,489.66 861.29,489.67 865.78,489.68 870.27,489.69 874.76,489.70 879.25,489.71 883.74,489.72 888.23,489.72 892.72,489.73 897.21,489.74 901.70,489.75 906.19,489.76 910.68,489.76 915.17,489.77 919.66,489.78 924.15,489.79 928.64,489.79 933.13,489.80 937.62,489.81 942.11,489.81 946.60,489.82 951.09,489.83 955.58,489.83 960.07,489.84 964.56,489.84 969.05,489.85 973.54,489.85 978.03,489.86 982.52,489.86 987.01,489.87 991.50,489.87 995.99,489.88 1000.48,489.88 1004.97,489.89 1009.46,489.89 1013.95,489.90 1018.44,489.90 1022.93,489.91 1027.42,489.91 1031.91,489.91 1036.40,489.92 1040.89,489.92 1045.38,489.93 1049.87,489.93 1054.36,489.93 1058.85,489.94 1063.34,489.94 1067.83,489.94 1072.32,489.95 1076.81,489.95 1081.30,489.95 1085.79,489.96 1090.28,489.96 1094.77,489.96 1099.26,489.96 1103.75,489.97 1108.24,489.97 1112.73,489.97 1117.22,489.98 1121.71,489.98 1126.20,489.98 1130.69,489.98 1135.18,489.99 1139.67,489.99 1144.16,489.99 1148.65,489.99 1153.14,489.99 1157.63,490.00 1162.12,490.00 1166.61,490.00 1171.10,490.00 1175.59,490.00 1180.08,490.01 1184.57,490.01 1189.06,490.01 1193.55,490.01 1198.04,490.01 1202.53,490.02 1207.02,490.02 1211.51,490.02 1216.00,490.02" fill="none" stroke="#2458d3" stroke-width="2.2" stroke-linejoin="round" stroke-linecap="round" />
<line x1="120.0" y1="686.0" x2="148.0" y2="686.0" stroke="#bf1e2d" stroke-width="2.4" />
<text x="158.0" y="690.0" fill="#1f2430" font-size="12" font-family="Segoe UI, Arial, sans-serif" font-weight="400" text-anchor="start">rho=0.95</text>
<line x1="285.0" y1="686.0" x2="313.0" y2="686.0" stroke="#c96b17" stroke-width="2.4" />
<text x="323.0" y="690.0" fill="#1f2430" font-size="12" font-family="Segoe UI, Arial, sans-serif" font-weight="400" text-anchor="start">rho=0.98</text>
<line x1="450.0" y1="686.0" x2="478.0" y2="686.0" stroke="#2a7f62" stroke-width="2.4" />
<text x="488.0" y="690.0" fill="#1f2430" font-size="12" font-family="Segoe UI, Arial, sans-serif" font-weight="400" text-anchor="start">rho=0.985</text>
<line x1="615.0" y1="686.0" x2="643.0" y2="686.0" stroke="#2458d3" stroke-width="2.4" />
<text x="653.0" y="690.0" fill="#1f2430" font-size="12" font-family="Segoe UI, Arial, sans-serif" font-weight="400" text-anchor="start">rho=0.99</text>
</svg>