<svg xmlns="http://www.w3.org/2000/svg" width="1280" height="760" viewBox="0 0 1280 760" role="img">
<rect x="0.0" y="0.0" width="1280.0" height="760.0" fill="#ffffff" stroke="none" stroke-width="1.0" rx="0.0" />
<text x="40.0" y="34.0" fill="#1f2430" font-size="22" font-family="Segoe UI, Arial, sans-serif" font-weight="600" text-anchor="start">Bounded hard + input anchor: applied inputs and steady input targets across rho</text>
<text x="40.0" y="56.0" fill="#5d6574" font-size="13" font-family="Segoe UI, Arial, sans-serif" font-weight="400" text-anchor="start">Solid lines are applied physical inputs u. Dashed lines are steady targets u_s.</text>
<rect x="40.0" y="88.0" width="1200.0" height="250.0" fill="#fbfbfd" stroke="#d7dbe5" stroke-width="1.0" rx="8.0" />
<text x="56.0" y="112.0" fill="#1f2430" font-size="16" font-family="Segoe UI, Arial, sans-serif" font-weight="600" text-anchor="start">Input u[0]</text>
<text x="56.0" y="130.0" fill="#5d6574" font-size="12" font-family="Segoe UI, Arial, sans-serif" font-weight="400" text-anchor="start">Transient window 0-249 steps</text>
<line x1="98.0" y1="306.0" x2="1216.0" y2="306.0" stroke="#d7dbe5" stroke-width="1.0" stroke-dasharray="4 4" />
<text x="90.0" y="310.0" fill="#5d6574" font-size="11" font-family="Segoe UI, Arial, sans-serif" font-weight="400" text-anchor="end">298.546</text>
<line x1="98.0" y1="226.0" x2="1216.0" y2="226.0" stroke="#d7dbe5" stroke-width="1.0" stroke-dasharray="4 4" />
<text x="90.0" y="230.0" fill="#5d6574" font-size="11" font-family="Segoe UI, Arial, sans-serif" font-weight="400" text-anchor="end">604.059</text>
<line x1="98.0" y1="146.0" x2="1216.0" y2="146.0" stroke="#d7dbe5" stroke-width="1.0" stroke-dasharray="4 4" />
<text x="90.0" y="150.0" fill="#5d6574" font-size="11" font-family="Segoe UI, Arial, sans-serif" font-weight="400" text-anchor="end">909.572</text>
<line x1="98.0" y1="146.0" x2="98.0" y2="306.0" stroke="#d7dbe5" stroke-width="1.0" stroke-dasharray="4 4" />
<text x="98.0" y="324.0" fill="#5d6574" font-size="11" font-family="Segoe UI, Arial, sans-serif" font-weight="400" text-anchor="middle">0</text>
<line x1="657.0" y1="146.0" x2="657.0" y2="306.0" stroke="#d7dbe5" stroke-width="1.0" stroke-dasharray="4 4" />
<text x="657.0" y="324.0" fill="#5d6574" font-size="11" font-family="Segoe UI, Arial, sans-serif" font-weight="400" text-anchor="middle">124</text>
<line x1="1216.0" y1="146.0" x2="1216.0" y2="306.0" stroke="#d7dbe5" stroke-width="1.0" stroke-dasharray="4 4" />
<text x="1216.0" y="324.0" fill="#5d6574" font-size="11" font-family="Segoe UI, Arial, sans-serif" font-weight="400" text-anchor="middle">249</text>
<line x1="98.0" y1="146.0" x2="98.0" y2="306.0" stroke="#2d3440" stroke-width="1.2" />
<line x1="98.0" y1="306.0" x2="1216.0" y2="306.0" stroke="#2d3440" stroke-width="1.2" />
<text x="56.0" y="160.0" fill="#5d6574" font-size="12" font-family="Segoe UI, Arial, sans-serif" font-weight="400" text-anchor="start">physical</text>
<polyline points="98.00,260.59 102.49,260.49 106.98,260.38 111.47,260.25 115.96,260.09 120.45,259.90 124.94,259.68 129.43,259.43 133.92,259.14 138.41,258.82 142.90,258.47 147.39,258.09 151.88,257.68 156.37,257.25 160.86,256.79 165.35,256.32 169.84,255.83 174.33,255.32 178.82,254.80 183.31,254.26 187.80,253.72 192.29,253.17 196.78,252.62 201.27,252.06 205.76,251.49 210.25,250.93 214.74,266.95 219.23,294.97 223.72,294.37 228.21,293.71 232.70,292.97 237.19,292.15 241.68,291.26 246.17,290.31 250.66,289.31 255.15,288.26 259.64,287.18 264.13,286.06 268.62,284.91 273.11,283.74 277.60,282.55 282.09,281.35 286.58,280.14 291.07,278.92 295.56,277.70 300.05,276.48 304.54,275.27 309.03,274.06 313.52,272.86 318.01,271.68 322.50,270.52 326.99,269.37 331.48,268.24 335.97,267.14 340.46,266.06 344.95,265.00 349.44,263.96 353.93,262.95 358.42,261.97 362.91,261.01 367.40,260.07 371.89,259.15 376.38,258.26 380.87,257.39 385.36,256.53 389.85,255.70 394.34,254.89 398.83,254.09 403.32,253.31 407.81,252.55 412.30,251.80 416.79,251.07 421.28,250.35 425.77,249.64 430.26,248.95 434.75,248.27 439.24,247.60 443.73,246.95 448.22,246.31 452.71,245.67 457.20,245.06 461.69,244.45 466.18,243.85 470.67,243.27 475.16,242.69 479.65,242.13 484.14,241.58 488.63,241.04 493.12,240.13 497.61,236.15 502.10,235.09 506.59,234.66 511.08,234.29 515.57,233.99 520.06,233.72 524.55,233.49 529.04,233.29 533.53,233.10 538.02,232.93 542.51,232.77 547.00,232.61 551.49,232.46 555.98,232.31 560.47,232.16 564.96,232.01 569.45,231.86 573.94,231.70 578.43,231.54 582.92,231.24 587.41,225.82 591.90,220.45 596.39,220.48 600.88,220.94 605.37,221.75 609.86,222.85 614.35,224.14 618.84,225.57 623.33,227.07 627.82,228.60 632.31,230.12 636.80,230.12 641.29,231.53 645.78,232.89 650.27,234.18 654.76,234.18 659.24,234.18 663.73,234.18 668.22,234.18 672.71,234.18 677.20,234.18 681.69,235.34 686.18,236.18 690.67,236.93 695.16,237.57 699.65,238.09 704.14,238.50 708.63,238.82 713.12,239.04 717.61,239.18 722.10,239.25 726.59,239.26 731.08,239.21 735.57,239.11 740.06,238.98 744.55,238.82 749.04,238.63 753.53,238.41 758.02,238.18 762.51,237.94 767.00,237.69 771.49,237.42 775.98,237.15 780.47,236.88 784.96,236.60 789.45,236.32 793.94,236.04 798.43,235.76 802.92,235.48 807.41,235.21 811.90,234.93 816.39,234.66 820.88,234.40 825.37,234.14 829.86,233.88 834.35,233.63 838.84,233.38 843.33,233.15 847.82,232.91 852.31,232.69 856.80,232.47 861.29,232.26 865.78,232.05 870.27,231.85 874.76,231.65 879.25,231.46 883.74,231.28 888.23,231.10 892.72,230.93 897.21,230.76 901.70,230.59 906.19,230.43 910.68,230.28 915.17,230.12 919.66,229.97 924.15,229.82 928.64,229.67 933.13,229.53 937.62,229.39 942.11,229.25 946.60,229.11 951.09,228.97 955.58,228.84 960.07,228.71 964.56,228.57 969.05,228.44 973.54,228.31 978.03,228.19 982.52,228.06 987.01,227.94 991.50,227.77 995.99,227.61 1000.48,227.50 1004.97,227.43 1009.46,227.38 1013.95,227.36 1018.44,227.34 1022.93,227.33 1027.42,227.33 1031.91,227.33 1036.40,227.32 1040.89,227.32 1045.38,227.31 1049.87,227.30 1054.36,227.28 1058.85,227.26 1063.34,227.24 1067.83,227.21 1072.32,234.07 1076.81,242.11 1081.30,242.12 1085.79,242.15 1090.28,242.20 1094.77,242.23 1099.26,242.26 1103.75,242.26 1108.24,242.25 1112.73,242.22 1117.22,242.18 1121.71,242.11 1126.20,242.03 1130.69,241.93 1135.18,241.82 1139.67,241.70 1144.16,241.56 1148.65,241.41 1153.14,241.25 1157.63,241.08 1162.12,240.89 1166.61,240.70 1171.10,240.51 1175.59,240.30 1180.08,240.09 1184.57,239.87 1189.06,239.65 1193.55,239.42 1198.04,239.19 1202.53,238.96 1207.02,238.72 1211.51,238.48 1216.00,238.24" fill="none" stroke="#bf1e2d" stroke-width="2.2" stroke-linejoin="round" stroke-linecap="round" />
<polyline points="98.00,260.88 102.49,260.78 106.98,260.57 111.47,260.26 115.96,259.87 120.45,259.43 124.94,258.94 129.43,258.43 133.92,257.90 138.41,257.35 142.90,256.79 147.39,256.22 151.88,255.65 156.37,255.07 160.86,254.50 165.35,253.93 169.84,253.36 174.33,252.80 178.82,252.25 183.31,251.70 187.80,251.16 192.29,250.63 196.78,250.10 201.27,249.59 205.76,249.07 210.25,248.57 214.74,248.07 219.23,264.13 223.72,291.89 228.21,290.70 232.70,289.34 237.19,287.96 241.68,286.62 246.17,285.32 250.66,284.07 255.15,282.86 259.64,281.69 264.13,280.55 268.62,279.44 273.11,278.35 277.60,277.27 282.09,276.22 286.58,275.18 291.07,274.15 295.56,273.14 300.05,272.14 304.54,271.15 309.03,270.18 313.52,269.23 318.01,268.28 322.50,267.36 326.99,266.44 331.48,265.54 335.97,264.65 340.46,263.77 344.95,262.90 349.44,262.05 353.93,261.20 358.42,260.35 362.91,259.52 367.40,258.69 371.89,257.87 376.38,257.06 380.87,256.25 385.36,255.45 389.85,254.65 394.34,253.87 398.83,253.09 403.32,252.31 407.81,251.55 412.30,250.80 416.79,250.06 421.28,249.32 425.77,248.60 430.26,247.89 434.75,247.20 439.24,246.52 443.73,245.85 448.22,245.19 452.71,244.55 457.20,243.92 461.69,243.31 466.18,242.72 470.67,242.13 475.16,241.57 479.65,241.02 484.14,240.48 488.63,239.96 493.12,239.45 497.61,238.57 502.10,234.71 506.59,234.21 511.08,234.36 515.57,234.43 520.06,234.42 524.55,234.35 529.04,234.23 533.53,234.07 538.02,233.88 542.51,233.67 547.00,233.45 551.49,233.21 555.98,232.95 560.47,232.69 564.96,232.42 569.45,232.14 573.94,231.86 578.43,231.59 582.92,231.31 587.41,230.90 591.90,225.51 596.39,222.11 600.88,226.23 605.37,230.02 609.86,233.08 614.35,235.52 618.84,237.45 623.33,238.98 627.82,240.15 632.31,241.02 636.80,241.62 641.29,240.52 645.78,241.06 650.27,241.40 654.76,241.52 659.24,240.29 663.73,239.43 668.22,238.89 672.71,238.58 677.20,238.39 681.69,238.29 686.18,239.35 690.67,239.26 695.16,238.93 699.65,238.54 704.14,238.14 708.63,237.73 713.12,237.33 717.61,236.95 722.10,236.59 726.59,236.24 731.08,235.93 735.57,235.64 740.06,235.37 744.55,235.14 749.04,234.93 753.53,234.75 758.02,234.58 762.51,234.43 767.00,234.29 771.49,234.17 775.98,234.05 780.47,233.93 784.96,233.82 789.45,233.72 793.94,233.61 798.43,233.50 802.92,233.39 807.41,233.28 811.90,233.17 816.39,233.05 820.88,232.93 825.37,232.81 829.86,232.69 834.35,232.56 838.84,232.44 843.33,232.31 847.82,232.18 852.31,232.04 856.80,231.91 861.29,231.77 865.78,231.63 870.27,231.49 874.76,231.34 879.25,231.20 883.74,231.05 888.23,230.90 892.72,230.75 897.21,230.60 901.70,230.45 906.19,230.30 910.68,230.15 915.17,230.00 919.66,229.84 924.15,229.69 928.64,229.54 933.13,229.39 937.62,229.23 942.11,229.08 946.60,228.94 951.09,228.79 955.58,228.64 960.07,228.50 964.56,228.36 969.05,228.22 973.54,228.08 978.03,227.94 982.52,227.81 987.01,227.68 991.50,227.55 995.99,227.38 1000.48,227.36 1004.97,227.57 1009.46,227.75 1013.95,227.84 1018.44,227.89 1022.93,227.90 1027.42,227.88 1031.91,227.85 1036.40,227.80 1040.89,227.74 1045.38,227.68 1049.87,227.61 1054.36,227.53 1058.85,227.45 1063.34,227.36 1067.83,227.27 1072.32,227.18 1076.81,234.00 1081.30,242.53 1085.79,242.76 1090.28,242.81 1094.77,242.75 1099.26,242.63 1103.75,242.49 1108.24,242.33 1112.73,242.16 1117.22,241.98 1121.71,241.81 1126.20,241.62 1130.69,241.44 1135.18,241.25 1139.67,241.05 1144.16,240.85 1148.65,240.65 1153.14,240.44 1157.63,240.23 1162.12,240.01 1166.61,239.80 1171.10,239.58 1175.59,239.36 1180.08,239.13 1184.57,238.91 1189.06,238.69 1193.55,238.46 1198.04,238.24 1202.53,238.01 1207.02,237.78 1211.51,237.56 1216.00,237.33" fill="none" stroke="#bf1e2d" stroke-width="1.8" stroke-linejoin="round" stroke-linecap="round" stroke-dasharray="8 5" />
<polyline points="98.00,260.59 102.49,260.49 106.98,260.38 111.47,260.25 115.96,260.09 120.45,259.90 124.94,259.68 129.43,259.43 133.92,259.14 138.41,258.82 142.90,258.47 147.39,258.09 151.88,257.68 156.37,257.25 160.86,256.79 165.35,256.32 169.84,255.83 174.33,255.32 178.82,254.80 183.31,254.26 187.80,253.72 192.29,253.17 196.78,252.62 201.27,252.06 205.76,251.49 210.25,250.93 214.74,250.37 219.23,249.80 223.72,249.24 228.21,248.69 232.70,248.13 237.19,247.58 241.68,247.04 246.17,246.51 250.66,245.98 255.15,245.45 259.64,244.94 264.13,244.43 268.62,243.94 273.11,243.45 277.60,242.97 282.09,242.50 286.58,242.04 291.07,241.59 295.56,241.14 300.05,240.71 304.54,240.29 309.03,239.87 313.52,239.46 318.01,239.06 322.50,238.68 326.99,238.29 331.48,237.92 335.97,237.55 340.46,237.20 344.95,236.85 349.44,236.50 353.93,236.17 358.42,235.84 362.91,235.52 367.40,235.20 371.89,234.89 376.38,234.59 380.87,234.30 385.36,234.01 389.85,233.72 394.34,233.44 398.83,233.17 403.32,232.90 407.81,232.64 412.30,232.38 416.79,232.13 421.28,231.89 425.77,231.65 430.26,231.41 434.75,231.18 439.24,230.95 443.73,230.73 448.22,230.52 452.71,230.31 457.20,230.10 461.69,229.90 466.18,229.70 470.67,229.50 475.16,229.31 479.65,229.13 484.14,228.95 488.63,228.77 493.12,228.60 497.61,228.43 502.10,228.27 506.59,228.11 511.08,227.95 515.57,227.79 520.06,227.65 524.55,227.50 529.04,227.36 533.53,227.22 538.02,227.08 542.51,226.95 547.00,226.82 551.49,226.69 555.98,226.57 560.47,226.45 564.96,226.33 569.45,226.22 573.94,226.11 578.43,226.00 582.92,225.89 587.41,225.79 591.90,225.69 596.39,225.59 600.88,225.49 605.37,225.40 609.86,225.30 614.35,225.21 618.84,225.13 623.33,225.04 627.82,224.96 632.31,224.88 636.80,224.80 641.29,224.72 645.78,224.65 650.27,224.57 654.76,224.50 659.24,224.43 663.73,224.36 668.22,224.30 672.71,224.23 677.20,224.17 681.69,224.10 686.18,224.04 690.67,223.98 695.16,223.93 699.65,223.87 704.14,223.82 708.63,223.76 713.12,223.71 717.61,223.66 722.10,223.61 726.59,223.56 731.08,223.51 735.57,223.47 740.06,223.42 744.55,223.38 749.04,223.33 753.53,223.29 758.02,223.25 762.51,223.21 767.00,223.17 771.49,223.13 775.98,223.09 780.47,223.06 784.96,223.02 789.45,222.99 793.94,222.95 798.43,222.92 802.92,222.89 807.41,222.86 811.90,222.83 816.39,222.80 820.88,222.77 825.37,222.74 829.86,222.71 834.35,222.68 838.84,222.66 843.33,222.63 847.82,222.61 852.31,222.58 856.80,222.56 861.29,222.53 865.78,222.51 870.27,222.49 874.76,222.47 879.25,222.44 883.74,222.42 888.23,222.40 892.72,222.38 897.21,222.36 901.70,222.34 906.19,222.33 910.68,222.31 915.17,222.29 919.66,222.27 924.15,222.26 928.64,222.24 933.13,222.22 937.62,222.21 942.11,222.19 946.60,222.18 951.09,222.16 955.58,222.15 960.07,222.13 964.56,222.12 969.05,222.11 973.54,222.09 978.03,222.08 982.52,222.07 987.01,222.06 991.50,222.05 995.99,222.03 1000.48,222.02 1004.97,222.01 1009.46,222.00 1013.95,221.99 1018.44,221.98 1022.93,221.97 1027.42,221.96 1031.91,221.95 1036.40,221.94 1040.89,221.93 1045.38,221.92 1049.87,221.92 1054.36,221.91 1058.85,221.90 1063.34,221.89 1067.83,221.88 1072.32,221.88 1076.81,221.87 1081.30,221.86 1085.79,221.85 1090.28,221.02 1094.77,220.99 1099.26,220.99 1103.75,220.99 1108.24,220.99 1112.73,221.00 1117.22,221.00 1121.71,221.01 1126.20,221.02 1130.69,221.03 1135.18,221.04 1139.67,221.04 1144.16,221.05 1148.65,221.06 1153.14,221.07 1157.63,221.08 1162.12,221.09 1166.61,221.10 1171.10,221.10 1175.59,221.11 1180.08,221.12 1184.57,221.13 1189.06,221.13 1193.55,221.14 1198.04,221.14 1202.53,221.15 1207.02,221.15 1211.51,221.16 1216.00,221.16" fill="none" stroke="#c96b17" stroke-width="2.2" stroke-linejoin="round" stroke-linecap="round" />
<polyline points="98.00,260.88 102.49,260.78 106.98,260.57 111.47,260.26 115.96,259.87 120.45,259.43 124.94,258.94 129.43,258.43 133.92,257.90 138.41,257.35 142.90,256.79 147.39,256.22 151.88,255.65 156.37,255.07 160.86,254.50 165.35,253.93 169.84,253.36 174.33,252.80 178.82,252.25 183.31,251.70 187.80,251.16 192.29,250.63 196.78,250.10 201.27,249.59 205.76,249.07 210.25,248.57 214.74,248.07 219.23,247.58 223.72,247.10 228.21,246.63 232.70,246.16 237.19,245.69 241.68,245.23 246.17,244.78 250.66,244.34 255.15,243.90 259.64,243.46 264.13,243.04 268.62,242.61 273.11,242.20 277.60,241.78 282.09,241.38 286.58,240.98 291.07,240.58 295.56,240.19 300.05,239.81 304.54,239.43 309.03,239.05 313.52,238.68 318.01,238.32 322.50,237.96 326.99,237.60 331.48,237.25 335.97,236.91 340.46,236.57 344.95,236.24 349.44,235.91 353.93,235.59 358.42,235.27 362.91,234.96 367.40,234.65 371.89,234.35 376.38,234.06 380.87,233.77 385.36,233.49 389.85,233.21 394.34,232.94 398.83,232.67 403.32,232.41 407.81,232.15 412.30,231.91 416.79,231.66 421.28,231.42 425.77,231.19 430.26,230.96 434.75,230.74 439.24,230.52 443.73,230.31 448.22,230.10 452.71,229.89 457.20,229.70 461.69,229.50 466.18,229.31 470.67,229.13 475.16,228.95 479.65,228.77 484.14,228.60 488.63,228.43 493.12,228.27 497.61,228.11 502.10,227.95 506.59,227.80 511.08,227.65 515.57,227.50 520.06,227.36 524.55,227.22 529.04,227.09 533.53,226.96 538.02,226.83 542.51,226.70 547.00,226.58 551.49,226.46 555.98,226.34 560.47,226.23 564.96,226.12 569.45,226.01 573.94,225.90 578.43,225.80 582.92,225.70 587.41,225.60 591.90,225.50 596.39,225.41 600.88,225.32 605.37,225.23 609.86,225.14 614.35,225.05 618.84,224.97 623.33,224.89 627.82,224.81 632.31,224.73 636.80,224.66 641.29,224.58 645.78,224.51 650.27,224.44 654.76,224.37 659.24,224.30 663.73,224.24 668.22,224.17 672.71,224.11 677.20,224.05 681.69,223.99 686.18,223.93 690.67,223.88 695.16,223.82 699.65,223.77 704.14,223.72 708.63,223.66 713.12,223.61 717.61,223.56 722.10,223.52 726.59,223.47 731.08,223.42 735.57,223.38 740.06,223.34 744.55,223.29 749.04,223.25 753.53,223.21 758.02,223.17 762.51,223.14 767.00,223.10 771.49,223.06 775.98,223.03 780.47,222.99 784.96,222.96 789.45,222.92 793.94,222.89 798.43,222.86 802.92,222.83 807.41,222.80 811.90,222.77 816.39,222.74 820.88,222.71 825.37,222.69 829.86,222.66 834.35,222.63 838.84,222.61 843.33,222.58 847.82,222.56 852.31,222.53 856.80,222.51 861.29,222.49 865.78,222.47 870.27,222.45 874.76,222.42 879.25,222.40 883.74,222.38 888.23,222.36 892.72,222.35 897.21,222.33 901.70,222.31 906.19,222.29 910.68,222.27 915.17,222.26 919.66,222.24 924.15,222.22 928.64,222.21 933.13,222.19 937.62,222.18 942.11,222.16 946.60,222.15 951.09,222.14 955.58,222.12 960.07,222.11 964.56,222.10 969.05,222.08 973.54,222.07 978.03,222.06 982.52,222.05 987.01,222.04 991.50,222.02 995.99,222.01 1000.48,222.00 1004.97,221.99 1009.46,221.98 1013.95,221.97 1018.44,221.96 1022.93,221.95 1027.42,221.94 1031.91,221.93 1036.40,221.92 1040.89,221.92 1045.38,221.91 1049.87,221.90 1054.36,221.89 1058.85,221.88 1063.34,221.88 1067.83,221.87 1072.32,221.86 1076.81,221.85 1081.30,221.85 1085.79,221.84 1090.28,157.03 1094.77,158.54 1099.26,173.21 1103.75,186.23 1108.24,221.06 1112.73,221.08 1117.22,221.09 1121.71,221.10 1126.20,221.11 1130.69,221.12 1135.18,221.12 1139.67,221.13 1144.16,221.13 1148.65,221.13 1153.14,221.14 1157.63,221.14 1162.12,221.14 1166.61,221.14 1171.10,221.14 1175.59,221.14 1180.08,221.15 1184.57,221.15 1189.06,169.78 1193.55,173.44 1198.04,177.37 1202.53,181.50 1207.02,185.76 1211.51,190.08 1216.00,194.42" fill="none" stroke="#c96b17" stroke-width="1.8" stroke-linejoin="round" stroke-linecap="round" stroke-dasharray="8 5" />
<polyline points="98.00,260.59 102.49,260.49 106.98,260.38 111.47,260.25 115.96,260.09 120.45,259.90 124.94,259.68 129.43,259.43 133.92,259.14 138.41,258.82 142.90,258.47 147.39,258.09 151.88,257.68 156.37,257.25 160.86,256.79 165.35,256.32 169.84,255.83 174.33,255.32 178.82,254.80 183.31,254.26 187.80,253.72 192.29,253.17 196.78,252.62 201.27,252.06 205.76,251.49 210.25,250.93 214.74,250.37 219.23,249.80 223.72,249.24 228.21,248.69 232.70,248.13 237.19,247.58 241.68,247.04 246.17,246.51 250.66,245.98 255.15,245.45 259.64,244.94 264.13,244.43 268.62,243.94 273.11,243.45 277.60,242.97 282.09,242.50 286.58,242.04 291.07,241.59 295.56,241.14 300.05,240.71 304.54,240.29 309.03,239.87 313.52,239.46 318.01,239.06 322.50,238.68 326.99,238.29 331.48,237.92 335.97,237.55 340.46,237.20 344.95,236.85 349.44,236.50 353.93,236.17 358.42,235.84 362.91,235.52 367.40,235.20 371.89,234.89 376.38,234.59 380.87,234.30 385.36,234.01 389.85,233.72 394.34,233.44 398.83,233.17 403.32,232.90 407.81,232.64 412.30,232.38 416.79,232.13 421.28,231.89 425.77,231.65 430.26,231.41 434.75,231.18 439.24,230.95 443.73,230.73 448.22,230.52 452.71,230.31 457.20,230.10 461.69,229.90 466.18,229.70 470.67,229.50 475.16,229.31 479.65,229.13 484.14,228.95 488.63,228.77 493.12,228.60 497.61,228.43 502.10,228.27 506.59,228.11 511.08,227.95 515.57,227.79 520.06,227.65 524.55,227.50 529.04,227.36 533.53,227.22 538.02,227.08 542.51,226.95 547.00,226.82 551.49,226.69 555.98,226.57 560.47,226.45 564.96,226.33 569.45,226.22 573.94,226.11 578.43,226.00 582.92,225.89 587.41,225.79 591.90,225.69 596.39,225.59 600.88,225.49 605.37,225.40 609.86,225.30 614.35,225.21 618.84,225.13 623.33,225.04 627.82,224.96 632.31,224.88 636.80,224.80 641.29,224.72 645.78,224.65 650.27,224.57 654.76,224.50 659.24,224.43 663.73,224.36 668.22,224.30 672.71,224.23 677.20,224.17 681.69,224.10 686.18,224.04 690.67,223.98 695.16,223.93 699.65,223.87 704.14,223.82 708.63,223.76 713.12,223.71 717.61,223.66 722.10,223.61 726.59,223.56 731.08,223.51 735.57,223.47 740.06,223.42 744.55,223.38 749.04,223.33 753.53,223.29 758.02,223.25 762.51,223.21 767.00,223.17 771.49,223.13 775.98,223.09 780.47,223.06 784.96,223.02 789.45,222.99 793.94,222.95 798.43,222.92 802.92,222.89 807.41,222.86 811.90,222.83 816.39,222.80 820.88,222.77 825.37,222.74 829.86,222.71 834.35,222.68 838.84,222.66 843.33,222.63 847.82,222.61 852.31,222.58 856.80,222.56 861.29,222.53 865.78,222.51 870.27,222.49 874.76,222.47 879.25,222.44 883.74,222.42 888.23,222.40 892.72,222.38 897.21,222.36 901.70,222.34 906.19,222.33 910.68,222.31 915.17,222.29 919.66,222.27 924.15,222.26 928.64,222.24 933.13,222.22 937.62,222.21 942.11,222.19 946.60,222.18 951.09,222.16 955.58,222.15 960.07,222.13 964.56,222.12 969.05,222.11 973.54,222.09 978.03,222.08 982.52,222.07 987.01,222.06 991.50,222.05 995.99,222.03 1000.48,222.02 1004.97,222.01 1009.46,222.00 1013.95,221.99 1018.44,221.98 1022.93,221.97 1027.42,221.96 1031.91,221.95 1036.40,221.94 1040.89,221.93 1045.38,221.92 1049.87,221.92 1054.36,221.91 1058.85,221.90 1063.34,221.89 1067.83,221.88 1072.32,221.88 1076.81,221.87 1081.30,221.86 1085.79,221.85 1090.28,221.74 1094.77,221.73 1099.26,221.72 1103.75,221.72 1108.24,221.71 1112.73,221.71 1117.22,221.70 1121.71,221.70 1126.20,221.02 1130.69,220.09 1135.18,220.09 1139.67,220.09 1144.16,220.10 1148.65,220.11 1153.14,220.12 1157.63,220.13 1162.12,220.15 1166.61,220.16 1171.10,220.18 1175.59,220.20 1180.08,220.21 1184.57,220.23 1189.06,220.25 1193.55,220.27 1198.04,220.28 1202.53,220.30 1207.02,220.32 1211.51,220.33 1216.00,220.35" fill="none" stroke="#2a7f62" stroke-width="2.2" stroke-linejoin="round" stroke-linecap="round" />
<polyline points="98.00,260.88 102.49,260.78 106.98,260.57 111.47,260.26 115.96,259.87 120.45,259.43 124.94,258.94 129.43,258.43 133.92,257.90 138.41,257.35 142.90,256.79 147.39,256.22 151.88,255.65 156.37,255.07 160.86,254.50 165.35,253.93 169.84,253.36 174.33,252.80 178.82,252.25 183.31,251.70 187.80,251.16 192.29,250.63 196.78,250.10 201.27,249.59 205.76,249.07 210.25,248.57 214.74,248.07 219.23,247.58 223.72,247.10 228.21,246.63 232.70,246.16 237.19,245.69 241.68,245.23 246.17,244.78 250.66,244.34 255.15,243.90 259.64,243.46 264.13,243.04 268.62,242.61 273.11,242.20 277.60,241.78 282.09,241.38 286.58,240.98 291.07,240.58 295.56,240.19 300.05,239.81 304.54,239.43 309.03,239.05 313.52,238.68 318.01,238.32 322.50,237.96 326.99,237.60 331.48,237.25 335.97,236.91 340.46,236.57 344.95,236.24 349.44,235.91 353.93,235.59 358.42,235.27 362.91,234.96 367.40,234.65 371.89,234.35 376.38,234.06 380.87,233.77 385.36,233.49 389.85,233.21 394.34,232.94 398.83,232.67 403.32,232.41 407.81,232.15 412.30,231.91 416.79,231.66 421.28,231.42 425.77,231.19 430.26,230.96 434.75,230.74 439.24,230.52 443.73,230.31 448.22,230.10 452.71,229.89 457.20,229.70 461.69,229.50 466.18,229.31 470.67,229.13 475.16,228.95 479.65,228.77 484.14,228.60 488.63,228.43 493.12,228.27 497.61,228.11 502.10,227.95 506.59,227.80 511.08,227.65 515.57,227.50 520.06,227.36 524.55,227.22 529.04,227.09 533.53,226.96 538.02,226.83 542.51,226.70 547.00,226.58 551.49,226.46 555.98,226.34 560.47,226.23 564.96,226.12 569.45,226.01 573.94,225.90 578.43,225.80 582.92,225.70 587.41,225.60 591.90,225.50 596.39,225.41 600.88,225.32 605.37,225.23 609.86,225.14 614.35,225.05 618.84,224.97 623.33,224.89 627.82,224.81 632.31,224.73 636.80,224.66 641.29,224.58 645.78,224.51 650.27,224.44 654.76,224.37 659.24,224.30 663.73,224.24 668.22,224.17 672.71,224.11 677.20,224.05 681.69,223.99 686.18,223.93 690.67,223.88 695.16,223.82 699.65,223.77 704.14,223.72 708.63,223.66 713.12,223.61 717.61,223.56 722.10,223.52 726.59,223.47 731.08,223.42 735.57,223.38 740.06,223.34 744.55,223.29 749.04,223.25 753.53,223.21 758.02,223.17 762.51,223.14 767.00,223.10 771.49,223.06 775.98,223.03 780.47,222.99 784.96,222.96 789.45,222.92 793.94,222.89 798.43,222.86 802.92,222.83 807.41,222.80 811.90,222.77 816.39,222.74 820.88,222.71 825.37,222.69 829.86,222.66 834.35,222.63 838.84,222.61 843.33,222.58 847.82,222.56 852.31,222.53 856.80,222.51 861.29,222.49 865.78,222.47 870.27,222.45 874.76,222.42 879.25,222.40 883.74,222.38 888.23,222.36 892.72,222.35 897.21,222.33 901.70,222.31 906.19,222.29 910.68,222.27 915.17,222.26 919.66,222.24 924.15,222.22 928.64,222.21 933.13,222.19 937.62,222.18 942.11,222.16 946.60,222.15 951.09,222.14 955.58,222.12 960.07,222.11 964.56,222.10 969.05,222.08 973.54,222.07 978.03,222.06 982.52,222.05 987.01,222.04 991.50,222.02 995.99,222.01 1000.48,222.00 1004.97,221.99 1009.46,221.98 1013.95,221.97 1018.44,221.96 1022.93,221.95 1027.42,221.94 1031.91,221.93 1036.40,221.92 1040.89,221.92 1045.38,221.91 1049.87,221.90 1054.36,221.89 1058.85,221.88 1063.34,221.88 1067.83,221.87 1072.32,221.86 1076.81,221.85 1081.30,221.85 1085.79,221.84 1090.28,157.03 1094.77,158.54 1099.26,161.74 1103.75,164.69 1108.24,166.93 1112.73,168.48 1117.22,169.50 1121.71,170.16 1126.20,170.60 1130.69,170.94 1135.18,178.14 1139.67,192.76 1144.16,220.18 1148.65,220.21 1153.14,220.24 1157.63,220.26 1162.12,220.28 1166.61,220.30 1171.10,220.31 1175.59,220.32 1180.08,220.33 1184.57,220.34 1189.06,220.35 1193.55,220.36 1198.04,220.37 1202.53,220.38 1207.02,220.39 1211.51,220.40 1216.00,220.41" fill="none" stroke="#2a7f62" stroke-width="1.8" stroke-linejoin="round" stroke-linecap="round" stroke-dasharray="8 5" />
<polyline points="98.00,260.59 102.49,260.49 106.98,260.38 111.47,260.25 115.96,260.09 120.45,259.90 124.94,259.68 129.43,259.43 133.92,259.14 138.41,258.82 142.90,258.47 147.39,258.09 151.88,257.68 156.37,257.25 160.86,256.79 165.35,256.32 169.84,255.83 174.33,255.32 178.82,254.80 183.31,254.26 187.80,253.72 192.29,253.17 196.78,252.62 201.27,252.06 205.76,251.49 210.25,250.93 214.74,250.37 219.23,249.80 223.72,249.24 228.21,248.69 232.70,248.13 237.19,247.58 241.68,247.04 246.17,246.51 250.66,245.98 255.15,245.45 259.64,244.94 264.13,244.43 268.62,243.94 273.11,243.45 277.60,242.97 282.09,242.50 286.58,242.04 291.07,241.59 295.56,241.14 300.05,240.71 304.54,240.29 309.03,239.87 313.52,239.46 318.01,239.06 322.50,238.68 326.99,238.29 331.48,237.92 335.97,237.55 340.46,237.20 344.95,236.85 349.44,236.50 353.93,236.17 358.42,235.84 362.91,235.52 367.40,235.20 371.89,234.89 376.38,234.59 380.87,234.30 385.36,234.01 389.85,233.72 394.34,233.44 398.83,233.17 403.32,232.90 407.81,232.64 412.30,232.38 416.79,232.13 421.28,231.89 425.77,231.65 430.26,231.41 434.75,231.18 439.24,230.95 443.73,230.73 448.22,230.52 452.71,230.31 457.20,230.10 461.69,229.90 466.18,229.70 470.67,229.50 475.16,229.31 479.65,229.13 484.14,228.95 488.63,228.77 493.12,228.60 497.61,228.43 502.10,228.27 506.59,228.11 511.08,227.95 515.57,227.79 520.06,227.65 524.55,227.50 529.04,227.36 533.53,227.22 538.02,227.08 542.51,226.95 547.00,226.82 551.49,226.69 555.98,226.57 560.47,226.45 564.96,226.33 569.45,226.22 573.94,226.11 578.43,226.00 582.92,225.89 587.41,225.79 591.90,225.69 596.39,225.59 600.88,225.49 605.37,225.40 609.86,225.30 614.35,225.21 618.84,225.13 623.33,225.04 627.82,224.96 632.31,224.88 636.80,224.80 641.29,224.72 645.78,224.65 650.27,224.57 654.76,224.50 659.24,224.43 663.73,224.36 668.22,224.30 672.71,224.23 677.20,224.17 681.69,224.10 686.18,224.04 690.67,223.98 695.16,223.93 699.65,223.87 704.14,223.82 708.63,223.76 713.12,223.71 717.61,223.66 722.10,223.61 726.59,223.56 731.08,223.51 735.57,223.47 740.06,223.42 744.55,223.38 749.04,223.33 753.53,223.29 758.02,223.25 762.51,223.21 767.00,223.17 771.49,223.13 775.98,223.09 780.47,223.06 784.96,223.02 789.45,222.99 793.94,222.95 798.43,222.92 802.92,222.89 807.41,222.86 811.90,222.83 816.39,222.80 820.88,222.77 825.37,222.74 829.86,222.71 834.35,222.68 838.84,222.66 843.33,222.63 847.82,222.61 852.31,222.58 856.80,222.56 861.29,222.53 865.78,222.51 870.27,222.49 874.76,222.47 879.25,222.44 883.74,222.42 888.23,222.40 892.72,222.38 897.21,222.36 901.70,222.34 906.19,222.33 910.68,222.31 915.17,222.29 919.66,222.27 924.15,222.26 928.64,222.24 933.13,222.22 937.62,222.21 942.11,222.19 946.60,222.18 951.09,222.16 955.58,222.15 960.07,222.13 964.56,222.12 969.05,222.11 973.54,222.09 978.03,222.08 982.52,222.07 987.01,222.06 991.50,222.05 995.99,222.03 1000.48,222.02 1004.97,222.01 1009.46,222.00 1013.95,221.99 1018.44,221.98 1022.93,221.97 1027.42,221.96 1031.91,221.95 1036.40,221.94 1040.89,221.93 1045.38,221.92 1049.87,221.92 1054.36,221.91 1058.85,221.90 1063.34,221.89 1067.83,221.88 1072.32,221.88 1076.81,221.87 1081.30,221.86 1085.79,221.85 1090.28,221.85 1094.77,221.84 1099.26,221.83 1103.75,221.83 1108.24,221.82 1112.73,221.81 1117.22,221.81 1121.71,221.80 1126.20,221.80 1130.69,221.79 1135.18,221.79 1139.67,221.78 1144.16,221.78 1148.65,221.77 1153.14,221.76 1157.63,221.76 1162.12,221.76 1166.61,221.75 1171.10,221.75 1175.59,221.74 1180.08,221.74 1184.57,221.73 1189.06,221.73 1193.55,221.72 1198.04,221.72 1202.53,221.72 1207.02,221.71 1211.51,221.71 1216.00,221.71" fill="none" stroke="#2458d3" stroke-width="2.2" stroke-linejoin="round" stroke-linecap="round" />
<polyline points="98.00,260.88 102.49,260.78 106.98,260.57 111.47,260.26 115.96,259.87 120.45,259.43 124.94,258.94 129.43,258.43 133.92,257.90 138.41,257.35 142.90,256.79 147.39,256.22 151.88,255.65 156.37,255.07 160.86,254.50 165.35,253.93 169.84,253.36 174.33,252.80 178.82,252.25 183.31,251.70 187.80,251.16 192.29,250.63 196.78,250.10 201.27,249.59 205.76,249.07 210.25,248.57 214.74,248.07 219.23,247.58 223.72,247.10 228.21,246.63 232.70,246.16 237.19,245.69 241.68,245.23 246.17,244.78 250.66,244.34 255.15,243.90 259.64,243.46 264.13,243.04 268.62,242.61 273.11,242.20 277.60,241.78 282.09,241.38 286.58,240.98 291.07,240.58 295.56,240.19 300.05,239.81 304.54,239.43 309.03,239.05 313.52,238.68 318.01,238.32 322.50,237.96 326.99,237.60 331.48,237.25 335.97,236.91 340.46,236.57 344.95,236.24 349.44,235.91 353.93,235.59 358.42,235.27 362.91,234.96 367.40,234.65 371.89,234.35 376.38,234.06 380.87,233.77 385.36,233.49 389.85,233.21 394.34,232.94 398.83,232.67 403.32,232.41 407.81,232.15 412.30,231.91 416.79,231.66 421.28,231.42 425.77,231.19 430.26,230.96 434.75,230.74 439.24,230.52 443.73,230.31 448.22,230.10 452.71,229.89 457.20,229.70 461.69,229.50 466.18,229.31 470.67,229.13 475.16,228.95 479.65,228.77 484.14,228.60 488.63,228.43 493.12,228.27 497.61,228.11 502.10,227.95 506.59,227.80 511.08,227.65 515.57,227.50 520.06,227.36 524.55,227.22 529.04,227.09 533.53,226.96 538.02,226.83 542.51,226.70 547.00,226.58 551.49,226.46 555.98,226.34 560.47,226.23 564.96,226.12 569.45,226.01 573.94,225.90 578.43,225.80 582.92,225.70 587.41,225.60 591.90,225.50 596.39,225.41 600.88,225.32 605.37,225.23 609.86,225.14 614.35,225.05 618.84,224.97 623.33,224.89 627.82,224.81 632.31,224.73 636.80,224.66 641.29,224.58 645.78,224.51 650.27,224.44 654.76,224.37 659.24,224.30 663.73,224.24 668.22,224.17 672.71,224.11 677.20,224.05 681.69,223.99 686.18,223.93 690.67,223.88 695.16,223.82 699.65,223.77 704.14,223.72 708.63,223.66 713.12,223.61 717.61,223.56 722.10,223.52 726.59,223.47 731.08,223.42 735.57,223.38 740.06,223.34 744.55,223.29 749.04,223.25 753.53,223.21 758.02,223.17 762.51,223.14 767.00,223.10 771.49,223.06 775.98,223.03 780.47,222.99 784.96,222.96 789.45,222.92 793.94,222.89 798.43,222.86 802.92,222.83 807.41,222.80 811.90,222.77 816.39,222.74 820.88,222.71 825.37,222.69 829.86,222.66 834.35,222.63 838.84,222.61 843.33,222.58 847.82,222.56 852.31,222.53 856.80,222.51 861.29,222.49 865.78,222.47 870.27,222.45 874.76,222.42 879.25,222.40 883.74,222.38 888.23,222.36 892.72,222.35 897.21,222.33 901.70,222.31 906.19,222.29 910.68,222.27 915.17,222.26 919.66,222.24 924.15,222.22 928.64,222.21 933.13,222.19 937.62,222.18 942.11,222.16 946.60,222.15 951.09,222.14 955.58,222.12 960.07,222.11 964.56,222.10 969.05,222.08 973.54,222.07 978.03,222.06 982.52,222.05 987.01,222.04 991.50,222.02 995.99,222.01 1000.48,222.00 1004.97,221.99 1009.46,221.98 1013.95,221.97 1018.44,221.96 1022.93,221.95 1027.42,221.94 1031.91,221.93 1036.40,221.92 1040.89,221.92 1045.38,221.91 1049.87,221.90 1054.36,221.89 1058.85,221.88 1063.34,221.88 1067.83,221.87 1072.32,221.86 1076.81,221.85 1081.30,221.85 1085.79,221.84 1090.28,157.03 1094.77,158.54 1099.26,160.01 1103.75,161.45 1108.24,162.85 1112.73,164.22 1117.22,165.56 1121.71,166.87 1126.20,168.14 1130.69,169.39 1135.18,170.61 1139.67,171.80 1144.16,172.96 1148.65,174.09 1153.14,175.20 1157.63,176.28 1162.12,177.34 1166.61,178.37 1171.10,179.38 1175.59,180.37 1180.08,181.33 1184.57,182.27 1189.06,183.19 1193.55,184.08 1198.04,184.96 1202.53,185.81 1207.02,186.65 1211.51,187.46 1216.00,188.26" fill="none" stroke="#2458d3" stroke-width="1.8" stroke-linejoin="round" stroke-linecap="round" stroke-dasharray="8 5" />
<rect x="40.0" y="370.0" width="1200.0" height="250.0" fill="#fbfbfd" stroke="#d7dbe5" stroke-width="1.0" rx="8.0" />
<text x="56.0" y="394.0" fill="#1f2430" font-size="16" font-family="Segoe UI, Arial, sans-serif" font-weight="600" text-anchor="start">Input u[1]</text>
<text x="56.0" y="412.0" fill="#5d6574" font-size="12" font-family="Segoe UI, Arial, sans-serif" font-weight="400" text-anchor="start">Transient window 0-249 steps</text>
<line x1="98.0" y1="588.0" x2="1216.0" y2="588.0" stroke="#d7dbe5" stroke-width="1.0" stroke-dasharray="4 4" />
<text x="90.0" y="592.0" fill="#5d6574" font-size="11" font-family="Segoe UI, Arial, sans-serif" font-weight="400" text-anchor="end">55.073</text>
<line x1="98.0" y1="508.0" x2="1216.0" y2="508.0" stroke="#d7dbe5" stroke-width="1.0" stroke-dasharray="4 4" />
<text x="90.0" y="512.0" fill="#5d6574" font-size="11" font-family="Segoe UI, Arial, sans-serif" font-weight="400" text-anchor="end">381.497</text>
<line x1="98.0" y1="428.0" x2="1216.0" y2="428.0" stroke="#d7dbe5" stroke-width="1.0" stroke-dasharray="4 4" />
<text x="90.0" y="432.0" fill="#5d6574" font-size="11" font-family="Segoe UI, Arial, sans-serif" font-weight="400" text-anchor="end">707.92</text>
<line x1="98.0" y1="428.0" x2="98.0" y2="588.0" stroke="#d7dbe5" stroke-width="1.0" stroke-dasharray="4 4" />
<text x="98.0" y="606.0" fill="#5d6574" font-size="11" font-family="Segoe UI, Arial, sans-serif" font-weight="400" text-anchor="middle">0</text>
<line x1="657.0" y1="428.0" x2="657.0" y2="588.0" stroke="#d7dbe5" stroke-width="1.0" stroke-dasharray="4 4" />
<text x="657.0" y="606.0" fill="#5d6574" font-size="11" font-family="Segoe UI, Arial, sans-serif" font-weight="400" text-anchor="middle">124</text>
<line x1="1216.0" y1="428.0" x2="1216.0" y2="588.0" stroke="#d7dbe5" stroke-width="1.0" stroke-dasharray="4 4" />
<text x="1216.0" y="606.0" fill="#5d6574" font-size="11" font-family="Segoe UI, Arial, sans-serif" font-weight="400" text-anchor="middle">249</text>
<line x1="98.0" y1="428.0" x2="98.0" y2="588.0" stroke="#2d3440" stroke-width="1.2" />
<line x1="98.0" y1="588.0" x2="1216.0" y2="588.0" stroke="#2d3440" stroke-width="1.2" />
<text x="56.0" y="442.0" fill="#5d6574" font-size="12" font-family="Segoe UI, Arial, sans-serif" font-weight="400" text-anchor="start">physical</text>
<polyline points="98.00,506.62 102.49,504.39 106.98,502.18 111.47,500.01 115.96,497.89 120.45,495.83 124.94,493.86 129.43,491.97 133.92,490.19 138.41,488.52 142.90,486.97 147.39,485.54 151.88,484.24 156.37,483.07 160.86,482.03 165.35,481.12 169.84,480.34 174.33,479.67 178.82,479.12 183.31,478.68 187.80,478.33 192.29,478.08 196.78,477.91 201.27,477.81 205.76,477.78 210.25,477.80 214.74,471.93 219.23,464.71 223.72,464.91 228.21,465.26 232.70,465.79 237.19,466.50 241.68,467.38 246.17,468.43 250.66,469.62 255.15,470.92 259.64,472.33 264.13,473.80 268.62,475.31 273.11,476.84 277.60,478.37 282.09,479.87 286.58,481.33 291.07,482.73 295.56,484.06 300.05,485.30 304.54,486.45 309.03,487.50 313.52,488.44 318.01,489.27 322.50,489.99 326.99,490.58 331.48,491.07 335.97,491.44 340.46,491.70 344.95,491.86 349.44,491.91 353.93,491.87 358.42,491.74 362.91,491.53 367.40,491.24 371.89,490.89 376.38,490.47 380.87,490.01 385.36,489.50 389.85,488.96 394.34,488.39 398.83,487.80 403.32,487.20 407.81,486.59 412.30,485.99 416.79,485.38 421.28,484.79 425.77,484.22 430.26,483.66 434.75,483.13 439.24,482.62 443.73,482.14 448.22,481.69 452.71,481.27 457.20,480.89 461.69,480.53 466.18,480.21 470.67,479.91 475.16,479.65 479.65,479.42 484.14,479.22 488.63,479.04 493.12,480.19 497.61,492.46 502.10,494.26 506.59,494.07 511.08,493.78 515.57,493.40 520.06,492.94 524.55,492.39 529.04,491.77 533.53,491.07 538.02,490.32 542.51,489.51 547.00,488.66 551.49,487.79 555.98,486.91 560.47,486.03 564.96,485.15 569.45,484.30 573.94,483.48 578.43,482.69 582.92,482.44 587.41,524.91 591.90,576.97 596.39,575.98 600.88,574.30 605.37,571.92 609.86,568.93 614.35,565.39 618.84,561.36 623.33,556.90 627.82,552.10 632.31,547.02 636.80,547.02 641.29,541.59 645.78,536.04 650.27,530.41 654.76,530.41 659.24,530.41 663.73,530.41 668.22,530.41 672.71,530.41 677.20,530.41 681.69,517.42 686.18,511.96 690.67,506.69 695.16,501.67 699.65,496.92 704.14,492.48 708.63,488.36 713.12,484.58 717.61,481.17 722.10,478.12 726.59,475.46 731.08,473.18 735.57,471.28 740.06,469.73 744.55,468.53 749.04,467.64 753.53,467.04 758.02,466.70 762.51,466.60 767.00,466.70 771.49,466.97 775.98,467.39 780.47,467.92 784.96,468.55 789.45,469.25 793.94,470.01 798.43,470.80 802.92,471.61 807.41,472.42 811.90,473.23 816.39,474.02 820.88,474.79 825.37,475.52 829.86,476.22 834.35,476.87 838.84,477.48 843.33,478.04 847.82,478.55 852.31,479.01 856.80,479.43 861.29,479.79 865.78,480.11 870.27,480.38 874.76,480.61 879.25,480.80 883.74,480.94 888.23,481.05 892.72,481.13 897.21,481.18 901.70,481.20 906.19,481.19 910.68,481.16 915.17,481.12 919.66,481.05 924.15,480.98 928.64,480.89 933.13,480.79 937.62,480.69 942.11,480.58 946.60,480.47 951.09,480.36 955.58,480.25 960.07,480.14 964.56,480.04 969.05,479.93 973.54,479.84 978.03,479.74 982.52,479.66 987.01,479.57 991.50,482.38 995.99,487.42 1000.48,487.34 1004.97,487.20 1009.46,487.01 1013.95,486.78 1018.44,486.51 1022.93,486.21 1027.42,485.87 1031.91,485.51 1036.40,485.12 1040.89,484.71 1045.38,484.29 1049.87,483.86 1054.36,483.42 1058.85,482.99 1063.34,482.57 1067.83,482.16 1072.32,494.74 1076.81,491.38 1081.30,490.93 1085.79,490.43 1090.28,489.93 1094.77,489.41 1099.26,488.90 1103.75,488.39 1108.24,487.87 1112.73,487.36 1117.22,486.86 1121.71,486.36 1126.20,485.87 1130.69,485.39 1135.18,484.93 1139.67,484.48 1144.16,484.06 1148.65,483.66 1153.14,483.29 1157.63,482.94 1162.12,482.62 1166.61,482.32 1171.10,482.05 1175.59,481.81 1180.08,481.59 1184.57,481.39 1189.06,481.22 1193.55,481.07 1198.04,480.94 1202.53,480.83 1207.02,480.74 1211.51,480.66 1216.00,480.59" fill="none" stroke="#bf1e2d" stroke-width="2.2" stroke-linejoin="round" stroke-linecap="round" />
<polyline points="98.00,506.87 102.49,504.65 106.98,502.59 111.47,500.69 115.96,498.91 120.45,497.23 124.94,495.64 129.43,494.12 133.92,492.69 138.41,491.33 142.90,490.06 147.39,488.88 151.88,487.79 156.37,486.79 160.86,485.89 165.35,485.08 169.84,484.36 174.33,483.73 178.82,483.19 183.31,482.72 187.80,482.34 192.29,482.02 196.78,481.78 201.27,481.59 205.76,481.45 210.25,481.36 214.74,481.31 219.23,475.41 223.72,468.59 228.21,469.73 232.70,471.16 237.19,472.68 241.68,474.23 246.17,475.78 250.66,477.32 255.15,478.84 259.64,480.35 264.13,481.85 268.62,483.31 273.11,484.73 277.60,486.10 282.09,487.41 286.58,488.64 291.07,489.78 295.56,490.84 300.05,491.79 304.54,492.63 309.03,493.37 313.52,493.99 318.01,494.51 322.50,494.91 326.99,495.20 331.48,495.39 335.97,495.47 340.46,495.47 344.95,495.37 349.44,495.19 353.93,494.94 358.42,494.62 362.91,494.23 367.40,493.80 371.89,493.32 376.38,492.80 380.87,492.25 385.36,491.67 389.85,491.08 394.34,490.47 398.83,489.86 403.32,489.24 407.81,488.62 412.30,488.01 416.79,487.41 421.28,486.83 425.77,486.26 430.26,485.71 434.75,485.18 439.24,484.68 443.73,484.20 448.22,483.74 452.71,483.32 457.20,482.92 461.69,482.54 466.18,482.20 470.67,481.88 475.16,481.58 479.65,481.32 484.14,481.07 488.63,480.85 493.12,480.66 497.61,481.77 502.10,493.89 506.59,494.86 511.08,493.80 515.57,492.85 520.06,492.01 524.55,491.25 529.04,490.52 533.53,489.80 538.02,489.09 542.51,488.37 547.00,487.65 551.49,486.93 555.98,486.21 560.47,485.51 564.96,484.81 569.45,484.14 573.94,483.49 578.43,482.87 582.92,482.28 587.41,482.22 591.90,524.65 596.39,573.72 600.88,566.56 605.37,559.79 609.86,553.92 614.35,548.78 618.84,544.11 623.33,539.76 627.82,535.64 632.31,531.68 636.80,527.85 641.29,529.38 645.78,525.15 650.27,521.02 654.76,517.06 659.24,518.85 663.73,520.09 668.22,520.86 672.71,521.31 677.20,521.57 681.69,521.73 686.18,508.88 690.67,504.85 695.16,501.25 699.65,497.83 704.14,494.55 708.63,491.42 713.12,488.48 717.61,485.74 722.10,483.22 726.59,480.95 731.08,478.93 735.57,477.17 740.06,475.68 744.55,474.44 749.04,473.44 753.53,472.68 758.02,472.14 762.51,471.79 767.00,471.62 771.49,471.61 775.98,471.73 780.47,471.97 784.96,472.31 789.45,472.72 793.94,473.19 798.43,473.71 802.92,474.25 807.41,474.82 811.90,475.39 816.39,475.96 820.88,476.51 825.37,477.05 829.86,477.57 834.35,478.05 838.84,478.51 843.33,478.93 847.82,479.32 852.31,479.67 856.80,479.98 861.29,480.26 865.78,480.50 870.27,480.71 874.76,480.88 879.25,481.03 883.74,481.14 888.23,481.22 892.72,481.28 897.21,481.32 901.70,481.33 906.19,481.33 910.68,481.31 915.17,481.27 919.66,481.22 924.15,481.16 928.64,481.09 933.13,481.01 937.62,480.93 942.11,480.84 946.60,480.75 951.09,480.66 955.58,480.57 960.07,480.47 964.56,480.38 969.05,480.30 973.54,480.21 978.03,480.13 982.52,480.05 987.01,479.98 991.50,479.91 995.99,482.71 1000.48,487.56 1004.97,486.99 1009.46,486.48 1013.95,486.07 1018.44,485.72 1022.93,485.41 1027.42,485.11 1031.91,484.80 1036.40,484.49 1040.89,484.17 1045.38,483.84 1049.87,483.51 1054.36,483.18 1058.85,482.84 1063.34,482.52 1067.83,482.20 1072.32,481.89 1076.81,494.53 1081.30,490.43 1085.79,489.64 1090.28,489.13 1094.77,488.77 1099.26,488.48 1103.75,488.20 1108.24,487.93 1112.73,487.64 1117.22,487.33 1121.71,487.01 1126.20,486.68 1130.69,486.34 1135.18,486.00 1139.67,485.66 1144.16,485.34 1148.65,485.02 1153.14,484.71 1157.63,484.41 1162.12,484.13 1166.61,483.87 1171.10,483.63 1175.59,483.40 1180.08,483.19 1184.57,482.99 1189.06,482.82 1193.55,482.66 1198.04,482.51 1202.53,482.38 1207.02,482.26 1211.51,482.16 1216.00,482.06" fill="none" stroke="#bf1e2d" stroke-width="1.8" stroke-linejoin="round" stroke-linecap="round" stroke-dasharray="8 5" />
<polyline points="98.00,506.62 102.49,504.39 106.98,502.18 111.47,500.01 115.96,497.89 120.45,495.83 124.94,493.86 129.43,491.97 133.92,490.19 138.41,488.52 142.90,486.97 147.39,485.54 151.88,484.24 156.37,483.07 160.86,482.03 165.35,481.12 169.84,480.34 174.33,479.67 178.82,479.12 183.31,478.68 187.80,478.33 192.29,478.08 196.78,477.91 201.27,477.81 205.76,477.78 210.25,477.80 214.74,477.87 219.23,477.98 223.72,478.12 228.21,478.28 232.70,478.47 237.19,478.66 241.68,478.87 246.17,479.07 250.66,479.28 255.15,479.47 259.64,479.66 264.13,479.84 268.62,480.01 273.11,480.16 277.60,480.30 282.09,480.41 286.58,480.52 291.07,480.60 295.56,480.67 300.05,480.72 304.54,480.75 309.03,480.77 313.52,480.78 318.01,480.77 322.50,480.75 326.99,480.72 331.48,480.68 335.97,480.63 340.46,480.57 344.95,480.51 349.44,480.44 353.93,480.36 358.42,480.29 362.91,480.21 367.40,480.13 371.89,480.05 376.38,479.97 380.87,479.89 385.36,479.82 389.85,479.74 394.34,479.67 398.83,479.60 403.32,479.54 407.81,479.48 412.30,479.42 416.79,479.37 421.28,479.32 425.77,479.28 430.26,479.24 434.75,479.20 439.24,479.17 443.73,479.14 448.22,479.11 452.71,479.09 457.20,479.07 461.69,479.06 466.18,479.05 470.67,479.04 475.16,479.03 479.65,479.02 484.14,479.02 488.63,479.02 493.12,479.02 497.61,479.02 502.10,479.02 506.59,479.02 511.08,479.02 515.57,479.03 520.06,479.03 524.55,479.04 529.04,479.04 533.53,479.05 538.02,479.05 542.51,479.06 547.00,479.06 551.49,479.07 555.98,479.08 560.47,479.08 564.96,479.09 569.45,479.09 573.94,479.09 578.43,479.10 582.92,479.10 587.41,479.11 591.90,479.11 596.39,479.11 600.88,479.12 605.37,479.12 609.86,479.12 614.35,479.13 618.84,479.13 623.33,479.13 627.82,479.13 632.31,479.13 636.80,479.14 641.29,479.14 645.78,479.14 650.27,479.14 654.76,479.14 659.24,479.15 663.73,479.15 668.22,479.15 672.71,479.15 677.20,479.15 681.69,479.15 686.18,479.16 690.67,479.16 695.16,479.16 699.65,479.16 704.14,479.16 708.63,479.17 713.12,479.17 717.61,479.17 722.10,479.17 726.59,479.17 731.08,479.18 735.57,479.18 740.06,479.18 744.55,479.18 749.04,479.18 753.53,479.19 758.02,479.19 762.51,479.19 767.00,479.19 771.49,479.19 775.98,479.20 780.47,479.20 784.96,479.20 789.45,479.20 793.94,479.20 798.43,479.21 802.92,479.21 807.41,479.21 811.90,479.21 816.39,479.21 820.88,479.22 825.37,479.22 829.86,479.22 834.35,479.22 838.84,479.22 843.33,479.22 847.82,479.23 852.31,479.23 856.80,479.23 861.29,479.23 865.78,479.23 870.27,479.23 874.76,479.23 879.25,479.24 883.74,479.24 888.23,479.24 892.72,479.24 897.21,479.24 901.70,479.24 906.19,479.24 910.68,479.24 915.17,479.25 919.66,479.25 924.15,479.25 928.64,479.25 933.13,479.25 937.62,479.25 942.11,479.25 946.60,479.25 951.09,479.25 955.58,479.25 960.07,479.26 964.56,479.26 969.05,479.26 973.54,479.26 978.03,479.26 982.52,479.26 987.01,479.26 991.50,479.26 995.99,479.26 1000.48,479.26 1004.97,479.26 1009.46,479.26 1013.95,479.26 1018.44,479.27 1022.93,479.27 1027.42,479.27 1031.91,479.27 1036.40,479.27 1040.89,479.27 1045.38,479.27 1049.87,479.27 1054.36,479.27 1058.85,479.27 1063.34,479.27 1067.83,479.27 1072.32,479.27 1076.81,479.27 1081.30,479.27 1085.79,479.27 1090.28,479.95 1094.77,479.97 1099.26,479.96 1103.75,479.95 1108.24,479.94 1112.73,479.91 1117.22,479.89 1121.71,479.85 1126.20,479.82 1130.69,479.78 1135.18,479.74 1139.67,479.70 1144.16,479.65 1148.65,479.61 1153.14,479.56 1157.63,479.52 1162.12,479.48 1166.61,479.44 1171.10,479.40 1175.59,479.36 1180.08,479.33 1184.57,479.30 1189.06,479.27 1193.55,479.24 1198.04,479.22 1202.53,479.20 1207.02,479.18 1211.51,479.17 1216.00,479.16" fill="none" stroke="#c96b17" stroke-width="2.2" stroke-linejoin="round" stroke-linecap="round" />
<polyline points="98.00,506.87 102.49,504.65 106.98,502.59 111.47,500.69 115.96,498.91 120.45,497.23 124.94,495.64 129.43,494.12 133.92,492.69 138.41,491.33 142.90,490.06 147.39,488.88 151.88,487.79 156.37,486.79 160.86,485.89 165.35,485.08 169.84,484.36 174.33,483.73 178.82,483.19 183.31,482.72 187.80,482.34 192.29,482.02 196.78,481.78 201.27,481.59 205.76,481.45 210.25,481.36 214.74,481.31 219.23,481.29 223.72,481.30 228.21,481.33 232.70,481.38 237.19,481.45 241.68,481.52 246.17,481.59 250.66,481.67 255.15,481.75 259.64,481.82 264.13,481.89 268.62,481.94 273.11,481.99 277.60,482.03 282.09,482.06 286.58,482.08 291.07,482.09 295.56,482.08 300.05,482.07 304.54,482.04 309.03,482.01 313.52,481.96 318.01,481.91 322.50,481.85 326.99,481.78 331.48,481.71 335.97,481.63 340.46,481.54 344.95,481.45 349.44,481.36 353.93,481.27 358.42,481.18 362.91,481.08 367.40,480.99 371.89,480.90 376.38,480.80 380.87,480.71 385.36,480.63 389.85,480.54 394.34,480.46 398.83,480.38 403.32,480.30 407.81,480.23 412.30,480.16 416.79,480.10 421.28,480.04 425.77,479.98 430.26,479.92 434.75,479.87 439.24,479.83 443.73,479.78 448.22,479.75 452.71,479.71 457.20,479.68 461.69,479.65 466.18,479.62 470.67,479.59 475.16,479.57 479.65,479.55 484.14,479.53 488.63,479.51 493.12,479.50 497.61,479.49 502.10,479.47 506.59,479.46 511.08,479.45 515.57,479.44 520.06,479.44 524.55,479.43 529.04,479.42 533.53,479.42 538.02,479.41 542.51,479.41 547.00,479.40 551.49,479.40 555.98,479.39 560.47,479.39 564.96,479.38 569.45,479.38 573.94,479.38 578.43,479.37 582.92,479.37 587.41,479.37 591.90,479.36 596.39,479.36 600.88,479.36 605.37,479.35 609.86,479.35 614.35,479.35 618.84,479.34 623.33,479.34 627.82,479.34 632.31,479.33 636.80,479.33 641.29,479.33 645.78,479.33 650.27,479.32 654.76,479.32 659.24,479.32 663.73,479.32 668.22,479.31 672.71,479.31 677.20,479.31 681.69,479.31 686.18,479.31 690.67,479.30 695.16,479.30 699.65,479.30 704.14,479.30 708.63,479.30 713.12,479.30 717.61,479.30 722.10,479.30 726.59,479.29 731.08,479.29 735.57,479.29 740.06,479.29 744.55,479.29 749.04,479.29 753.53,479.29 758.02,479.29 762.51,479.29 767.00,479.29 771.49,479.29 775.98,479.29 780.47,479.29 784.96,479.29 789.45,479.29 793.94,479.29 798.43,479.29 802.92,479.29 807.41,479.29 811.90,479.29 816.39,479.29 820.88,479.29 825.37,479.29 829.86,479.29 834.35,479.29 838.84,479.29 843.33,479.29 847.82,479.29 852.31,479.29 856.80,479.29 861.29,479.29 865.78,479.29 870.27,479.29 874.76,479.29 879.25,479.29 883.74,479.29 888.23,479.29 892.72,479.29 897.21,479.29 901.70,479.29 906.19,479.29 910.68,479.29 915.17,479.29 919.66,479.29 924.15,479.29 928.64,479.29 933.13,479.29 937.62,479.29 942.11,479.29 946.60,479.29 951.09,479.29 955.58,479.29 960.07,479.29 964.56,479.29 969.05,479.29 973.54,479.29 978.03,479.29 982.52,479.29 987.01,479.29 991.50,479.29 995.99,479.29 1000.48,479.29 1004.97,479.29 1009.46,479.29 1013.95,479.29 1018.44,479.29 1022.93,479.29 1027.42,479.29 1031.91,479.29 1036.40,479.29 1040.89,479.29 1045.38,479.29 1049.87,479.29 1054.36,479.29 1058.85,479.29 1063.34,479.29 1067.83,479.29 1072.32,479.29 1076.81,479.29 1081.30,479.29 1085.79,479.29 1090.28,448.55 1094.77,449.27 1099.26,444.73 1103.75,439.65 1108.24,479.83 1112.73,479.79 1117.22,479.76 1121.71,479.72 1126.20,479.68 1130.69,479.65 1135.18,479.61 1139.67,479.58 1144.16,479.54 1148.65,479.51 1153.14,479.47 1157.63,479.44 1162.12,479.41 1166.61,479.38 1171.10,479.35 1175.59,479.32 1180.08,479.29 1184.57,479.27 1189.06,439.03 1193.55,443.15 1198.04,447.23 1202.53,451.22 1207.02,455.09 1211.51,458.80 1216.00,462.33" fill="none" stroke="#c96b17" stroke-width="1.8" stroke-linejoin="round" stroke-linecap="round" stroke-dasharray="8 5" />
<polyline points="98.00,506.62 102.49,504.39 106.98,502.18 111.47,500.01 115.96,497.89 120.45,495.83 124.94,493.86 129.43,491.97 133.92,490.19 138.41,488.52 142.90,486.97 147.39,485.54 151.88,484.24 156.37,483.07 160.86,482.03 165.35,481.12 169.84,480.34 174.33,479.67 178.82,479.12 183.31,478.68 187.80,478.33 192.29,478.08 196.78,477.91 201.27,477.81 205.76,477.78 210.25,477.80 214.74,477.87 219.23,477.98 223.72,478.12 228.21,478.28 232.70,478.47 237.19,478.66 241.68,478.87 246.17,479.07 250.66,479.28 255.15,479.47 259.64,479.66 264.13,479.84 268.62,480.01 273.11,480.16 277.60,480.30 282.09,480.41 286.58,480.52 291.07,480.60 295.56,480.67 300.05,480.72 304.54,480.75 309.03,480.77 313.52,480.78 318.01,480.77 322.50,480.75 326.99,480.72 331.48,480.68 335.97,480.63 340.46,480.57 344.95,480.51 349.44,480.44 353.93,480.36 358.42,480.29 362.91,480.21 367.40,480.13 371.89,480.05 376.38,479.97 380.87,479.89 385.36,479.82 389.85,479.74 394.34,479.67 398.83,479.60 403.32,479.54 407.81,479.48 412.30,479.42 416.79,479.37 421.28,479.32 425.77,479.28 430.26,479.24 434.75,479.20 439.24,479.17 443.73,479.14 448.22,479.11 452.71,479.09 457.20,479.07 461.69,479.06 466.18,479.05 470.67,479.04 475.16,479.03 479.65,479.02 484.14,479.02 488.63,479.02 493.12,479.02 497.61,479.02 502.10,479.02 506.59,479.02 511.08,479.02 515.57,479.03 520.06,479.03 524.55,479.04 529.04,479.04 533.53,479.05 538.02,479.05 542.51,479.06 547.00,479.06 551.49,479.07 555.98,479.08 560.47,479.08 564.96,479.09 569.45,479.09 573.94,479.09 578.43,479.10 582.92,479.10 587.41,479.11 591.90,479.11 596.39,479.11 600.88,479.12 605.37,479.12 609.86,479.12 614.35,479.13 618.84,479.13 623.33,479.13 627.82,479.13 632.31,479.13 636.80,479.14 641.29,479.14 645.78,479.14 650.27,479.14 654.76,479.14 659.24,479.15 663.73,479.15 668.22,479.15 672.71,479.15 677.20,479.15 681.69,479.15 686.18,479.16 690.67,479.16 695.16,479.16 699.65,479.16 704.14,479.16 708.63,479.17 713.12,479.17 717.61,479.17 722.10,479.17 726.59,479.17 731.08,479.18 735.57,479.18 740.06,479.18 744.55,479.18 749.04,479.18 753.53,479.19 758.02,479.19 762.51,479.19 767.00,479.19 771.49,479.19 775.98,479.20 780.47,479.20 784.96,479.20 789.45,479.20 793.94,479.20 798.43,479.21 802.92,479.21 807.41,479.21 811.90,479.21 816.39,479.21 820.88,479.22 825.37,479.22 829.86,479.22 834.35,479.22 838.84,479.22 843.33,479.22 847.82,479.23 852.31,479.23 856.80,479.23 861.29,479.23 865.78,479.23 870.27,479.23 874.76,479.23 879.25,479.24 883.74,479.24 888.23,479.24 892.72,479.24 897.21,479.24 901.70,479.24 906.19,479.24 910.68,479.24 915.17,479.25 919.66,479.25 924.15,479.25 928.64,479.25 933.13,479.25 937.62,479.25 942.11,479.25 946.60,479.25 951.09,479.25 955.58,479.25 960.07,479.26 964.56,479.26 969.05,479.26 973.54,479.26 978.03,479.26 982.52,479.26 987.01,479.26 991.50,479.26 995.99,479.26 1000.48,479.26 1004.97,479.26 1009.46,479.26 1013.95,479.26 1018.44,479.27 1022.93,479.27 1027.42,479.27 1031.91,479.27 1036.40,479.27 1040.89,479.27 1045.38,479.27 1049.87,479.27 1054.36,479.27 1058.85,479.27 1063.34,479.27 1067.83,479.27 1072.32,479.27 1076.81,479.27 1081.30,479.27 1085.79,479.27 1090.28,479.36 1094.77,479.37 1099.26,479.37 1103.75,479.36 1108.24,479.36 1112.73,479.36 1117.22,479.36 1121.71,479.35 1126.20,479.69 1130.69,480.06 1135.18,480.05 1139.67,480.04 1144.16,480.01 1148.65,479.99 1153.14,479.95 1157.63,479.91 1162.12,479.86 1166.61,479.81 1171.10,479.76 1175.59,479.70 1180.08,479.65 1184.57,479.59 1189.06,479.53 1193.55,479.48 1198.04,479.43 1202.53,479.38 1207.02,479.33 1211.51,479.28 1216.00,479.24" fill="none" stroke="#2a7f62" stroke-width="2.2" stroke-linejoin="round" stroke-linecap="round" />
<polyline points="98.00,506.87 102.49,504.65 106.98,502.59 111.47,500.69 115.96,498.91 120.45,497.23 124.94,495.64 129.43,494.12 133.92,492.69 138.41,491.33 142.90,490.06 147.39,488.88 151.88,487.79 156.37,486.79 160.86,485.89 165.35,485.08 169.84,484.36 174.33,483.73 178.82,483.19 183.31,482.72 187.80,482.34 192.29,482.02 196.78,481.78 201.27,481.59 205.76,481.45 210.25,481.36 214.74,481.31 219.23,481.29 223.72,481.30 228.21,481.33 232.70,481.38 237.19,481.45 241.68,481.52 246.17,481.59 250.66,481.67 255.15,481.75 259.64,481.82 264.13,481.89 268.62,481.94 273.11,481.99 277.60,482.03 282.09,482.06 286.58,482.08 291.07,482.09 295.56,482.08 300.05,482.07 304.54,482.04 309.03,482.01 313.52,481.96 318.01,481.91 322.50,481.85 326.99,481.78 331.48,481.71 335.97,481.63 340.46,481.54 344.95,481.45 349.44,481.36 353.93,481.27 358.42,481.18 362.91,481.08 367.40,480.99 371.89,480.90 376.38,480.80 380.87,480.71 385.36,480.63 389.85,480.54 394.34,480.46 398.83,480.38 403.32,480.30 407.81,480.23 412.30,480.16 416.79,480.10 421.28,480.04 425.77,479.98 430.26,479.92 434.75,479.87 439.24,479.83 443.73,479.78 448.22,479.75 452.71,479.71 457.20,479.68 461.69,479.65 466.18,479.62 470.67,479.59 475.16,479.57 479.65,479.55 484.14,479.53 488.63,479.51 493.12,479.50 497.61,479.49 502.10,479.47 506.59,479.46 511.08,479.45 515.57,479.44 520.06,479.44 524.55,479.43 529.04,479.42 533.53,479.42 538.02,479.41 542.51,479.41 547.00,479.40 551.49,479.40 555.98,479.39 560.47,479.39 564.96,479.38 569.45,479.38 573.94,479.38 578.43,479.37 582.92,479.37 587.41,479.37 591.90,479.36 596.39,479.36 600.88,479.36 605.37,479.35 609.86,479.35 614.35,479.35 618.84,479.34 623.33,479.34 627.82,479.34 632.31,479.33 636.80,479.33 641.29,479.33 645.78,479.33 650.27,479.32 654.76,479.32 659.24,479.32 663.73,479.32 668.22,479.31 672.71,479.31 677.20,479.31 681.69,479.31 686.18,479.31 690.67,479.30 695.16,479.30 699.65,479.30 704.14,479.30 708.63,479.30 713.12,479.30 717.61,479.30 722.10,479.30 726.59,479.29 731.08,479.29 735.57,479.29 740.06,479.29 744.55,479.29 749.04,479.29 753.53,479.29 758.02,479.29 762.51,479.29 767.00,479.29 771.49,479.29 775.98,479.29 780.47,479.29 784.96,479.29 789.45,479.29 793.94,479.29 798.43,479.29 802.92,479.29 807.41,479.29 811.90,479.29 816.39,479.29 820.88,479.29 825.37,479.29 829.86,479.29 834.35,479.29 838.84,479.29 843.33,479.29 847.82,479.29 852.31,479.29 856.80,479.29 861.29,479.29 865.78,479.29 870.27,479.29 874.76,479.29 879.25,479.29 883.74,479.29 888.23,479.29 892.72,479.29 897.21,479.29 901.70,479.29 906.19,479.29 910.68,479.29 915.17,479.29 919.66,479.29 924.15,479.29 928.64,479.29 933.13,479.29 937.62,479.29 942.11,479.29 946.60,479.29 951.09,479.29 955.58,479.29 960.07,479.29 964.56,479.29 969.05,479.29 973.54,479.29 978.03,479.29 982.52,479.29 987.01,479.29 991.50,479.29 995.99,479.29 1000.48,479.29 1004.97,479.29 1009.46,479.29 1013.95,479.29 1018.44,479.29 1022.93,479.29 1027.42,479.29 1031.91,479.29 1036.40,479.29 1040.89,479.29 1045.38,479.29 1049.87,479.29 1054.36,479.29 1058.85,479.29 1063.34,479.29 1067.83,479.29 1072.32,479.29 1076.81,479.29 1081.30,479.29 1085.79,479.29 1090.28,448.55 1094.77,449.27 1099.26,449.28 1103.75,449.21 1108.24,449.16 1112.73,449.12 1117.22,449.09 1121.71,449.09 1126.20,449.13 1130.69,449.26 1135.18,446.75 1139.67,440.88 1144.16,479.89 1148.65,479.83 1153.14,479.77 1157.63,479.72 1162.12,479.67 1166.61,479.62 1171.10,479.57 1175.59,479.52 1180.08,479.47 1184.57,479.43 1189.06,479.38 1193.55,479.34 1198.04,479.30 1202.53,479.26 1207.02,479.22 1211.51,479.19 1216.00,479.16" fill="none" stroke="#2a7f62" stroke-width="1.8" stroke-linejoin="round" stroke-linecap="round" stroke-dasharray="8 5" />
<polyline points="98.00,506.62 102.49,504.39 106.98,502.18 111.47,500.01 115.96,497.89 120.45,495.83 124.94,493.86 129.43,491.97 133.92,490.19 138.41,488.52 142.90,486.97 147.39,485.54 151.88,484.24 156.37,483.07 160.86,482.03 165.35,481.12 169.84,480.34 174.33,479.67 178.82,479.12 183.31,478.68 187.80,478.33 192.29,478.08 196.78,477.91 201.27,477.81 205.76,477.78 210.25,477.80 214.74,477.87 219.23,477.98 223.72,478.12 228.21,478.28 232.70,478.47 237.19,478.66 241.68,478.87 246.17,479.07 250.66,479.28 255.15,479.47 259.64,479.66 264.13,479.84 268.62,480.01 273.11,480.16 277.60,480.30 282.09,480.41 286.58,480.52 291.07,480.60 295.56,480.67 300.05,480.72 304.54,480.75 309.03,480.77 313.52,480.78 318.01,480.77 322.50,480.75 326.99,480.72 331.48,480.68 335.97,480.63 340.46,480.57 344.95,480.51 349.44,480.44 353.93,480.36 358.42,480.29 362.91,480.21 367.40,480.13 371.89,480.05 376.38,479.97 380.87,479.89 385.36,479.82 389.85,479.74 394.34,479.67 398.83,479.60 403.32,479.54 407.81,479.48 412.30,479.42 416.79,479.37 421.28,479.32 425.77,479.28 430.26,479.24 434.75,479.20 439.24,479.17 443.73,479.14 448.22,479.11 452.71,479.09 457.20,479.07 461.69,479.06 466.18,479.05 470.67,479.04 475.16,479.03 479.65,479.02 484.14,479.02 488.63,479.02 493.12,479.02 497.61,479.02 502.10,479.02 506.59,479.02 511.08,479.02 515.57,479.03 520.06,479.03 524.55,479.04 529.04,479.04 533.53,479.05 538.02,479.05 542.51,479.06 547.00,479.06 551.49,479.07 555.98,479.08 560.47,479.08 564.96,479.09 569.45,479.09 573.94,479.09 578.43,479.10 582.92,479.10 587.41,479.11 591.90,479.11 596.39,479.11 600.88,479.12 605.37,479.12 609.86,479.12 614.35,479.13 618.84,479.13 623.33,479.13 627.82,479.13 632.31,479.13 636.80,479.14 641.29,479.14 645.78,479.14 650.27,479.14 654.76,479.14 659.24,479.15 663.73,479.15 668.22,479.15 672.71,479.15 677.20,479.15 681.69,479.15 686.18,479.16 690.67,479.16 695.16,479.16 699.65,479.16 704.14,479.16 708.63,479.17 713.12,479.17 717.61,479.17 722.10,479.17 726.59,479.17 731.08,479.18 735.57,479.18 740.06,479.18 744.55,479.18 749.04,479.18 753.53,479.19 758.02,479.19 762.51,479.19 767.00,479.19 771.49,479.19 775.98,479.20 780.47,479.20 784.96,479.20 789.45,479.20 793.94,479.20 798.43,479.21 802.92,479.21 807.41,479.21 811.90,479.21 816.39,479.21 820.88,479.22 825.37,479.22 829.86,479.22 834.35,479.22 838.84,479.22 843.33,479.22 847.82,479.23 852.31,479.23 856.80,479.23 861.29,479.23 865.78,479.23 870.27,479.23 874.76,479.23 879.25,479.24 883.74,479.24 888.23,479.24 892.72,479.24 897.21,479.24 901.70,479.24 906.19,479.24 910.68,479.24 915.17,479.25 919.66,479.25 924.15,479.25 928.64,479.25 933.13,479.25 937.62,479.25 942.11,479.25 946.60,479.25 951.09,479.25 955.58,479.25 960.07,479.26 964.56,479.26 969.05,479.26 973.54,479.26 978.03,479.26 982.52,479.26 987.01,479.26 991.50,479.26 995.99,479.26 1000.48,479.26 1004.97,479.26 1009.46,479.26 1013.95,479.26 1018.44,479.27 1022.93,479.27 1027.42,479.27 1031.91,479.27 1036.40,479.27 1040.89,479.27 1045.38,479.27 1049.87,479.27 1054.36,479.27 1058.85,479.27 1063.34,479.27 1067.83,479.27 1072.32,479.27 1076.81,479.27 1081.30,479.27 1085.79,479.27 1090.28,479.27 1094.77,479.27 1099.26,479.28 1103.75,479.28 1108.24,479.28 1112.73,479.28 1117.22,479.28 1121.71,479.28 1126.20,479.28 1130.69,479.28 1135.18,479.28 1139.67,479.28 1144.16,479.28 1148.65,479.28 1153.14,479.28 1157.63,479.28 1162.12,479.28 1166.61,479.28 1171.10,479.28 1175.59,479.28 1180.08,479.28 1184.57,479.28 1189.06,479.28 1193.55,479.28 1198.04,479.28 1202.53,479.28 1207.02,479.28 1211.51,479.28 1216.00,479.28" fill="none" stroke="#2458d3" stroke-width="2.2" stroke-linejoin="round" stroke-linecap="round" />
<polyline points="98.00,506.87 102.49,504.65 106.98,502.59 111.47,500.69 115.96,498.91 120.45,497.23 124.94,495.64 129.43,494.12 133.92,492.69 138.41,491.33 142.90,490.06 147.39,488.88 151.88,487.79 156.37,486.79 160.86,485.89 165.35,485.08 169.84,484.36 174.33,483.73 178.82,483.19 183.31,482.72 187.80,482.34 192.29,482.02 196.78,481.78 201.27,481.59 205.76,481.45 210.25,481.36 214.74,481.31 219.23,481.29 223.72,481.30 228.21,481.33 232.70,481.38 237.19,481.45 241.68,481.52 246.17,481.59 250.66,481.67 255.15,481.75 259.64,481.82 264.13,481.89 268.62,481.94 273.11,481.99 277.60,482.03 282.09,482.06 286.58,482.08 291.07,482.09 295.56,482.08 300.05,482.07 304.54,482.04 309.03,482.01 313.52,481.96 318.01,481.91 322.50,481.85 326.99,481.78 331.48,481.71 335.97,481.63 340.46,481.54 344.95,481.45 349.44,481.36 353.93,481.27 358.42,481.18 362.91,481.08 367.40,480.99 371.89,480.90 376.38,480.80 380.87,480.71 385.36,480.63 389.85,480.54 394.34,480.46 398.83,480.38 403.32,480.30 407.81,480.23 412.30,480.16 416.79,480.10 421.28,480.04 425.77,479.98 430.26,479.92 434.75,479.87 439.24,479.83 443.73,479.78 448.22,479.75 452.71,479.71 457.20,479.68 461.69,479.65 466.18,479.62 470.67,479.59 475.16,479.57 479.65,479.55 484.14,479.53 488.63,479.51 493.12,479.50 497.61,479.49 502.10,479.47 506.59,479.46 511.08,479.45 515.57,479.44 520.06,479.44 524.55,479.43 529.04,479.42 533.53,479.42 538.02,479.41 542.51,479.41 547.00,479.40 551.49,479.40 555.98,479.39 560.47,479.39 564.96,479.38 569.45,479.38 573.94,479.38 578.43,479.37 582.92,479.37 587.41,479.37 591.90,479.36 596.39,479.36 600.88,479.36 605.37,479.35 609.86,479.35 614.35,479.35 618.84,479.34 623.33,479.34 627.82,479.34 632.31,479.33 636.80,479.33 641.29,479.33 645.78,479.33 650.27,479.32 654.76,479.32 659.24,479.32 663.73,479.32 668.22,479.31 672.71,479.31 677.20,479.31 681.69,479.31 686.18,479.31 690.67,479.30 695.16,479.30 699.65,479.30 704.14,479.30 708.63,479.30 713.12,479.30 717.61,479.30 722.10,479.30 726.59,479.29 731.08,479.29 735.57,479.29 740.06,479.29 744.55,479.29 749.04,479.29 753.53,479.29 758.02,479.29 762.51,479.29 767.00,479.29 771.49,479.29 775.98,479.29 780.47,479.29 784.96,479.29 789.45,479.29 793.94,479.29 798.43,479.29 802.92,479.29 807.41,479.29 811.90,479.29 816.39,479.29 820.88,479.29 825.37,479.29 829.86,479.29 834.35,479.29 838.84,479.29 843.33,479.29 847.82,479.29 852.31,479.29 856.80,479.29 861.29,479.29 865.78,479.29 870.27,479.29 874.76,479.29 879.25,479.29 883.74,479.29 888.23,479.29 892.72,479.29 897.21,479.29 901.70,479.29 906.19,479.29 910.68,479.29 915.17,479.29 919.66,479.29 924.15,479.29 928.64,479.29 933.13,479.29 937.62,479.29 942.11,479.29 946.60,479.29 951.09,479.29 955.58,479.29 960.07,479.29 964.56,479.29 969.05,479.29 973.54,479.29 978.03,479.29 982.52,479.29 987.01,479.29 991.50,479.29 995.99,479.29 1000.48,479.29 1004.97,479.29 1009.46,479.29 1013.95,479.29 1018.44,479.29 1022.93,479.29 1027.42,479.29 1031.91,479.29 1036.40,479.29 1040.89,479.29 1045.38,479.29 1049.87,479.29 1054.36,479.29 1058.85,479.29 1063.34,479.29 1067.83,479.29 1072.32,479.29 1076.81,479.29 1081.30,479.29 1085.79,479.29 1090.28,448.55 1094.77,449.27 1099.26,449.97 1103.75,450.65 1108.24,451.32 1112.73,451.97 1117.22,452.61 1121.71,453.23 1126.20,453.84 1130.69,454.43 1135.18,455.01 1139.67,455.58 1144.16,456.13 1148.65,456.67 1153.14,457.20 1157.63,457.71 1162.12,458.22 1166.61,458.71 1171.10,459.19 1175.59,459.66 1180.08,460.12 1184.57,460.56 1189.06,461.00 1193.55,461.43 1198.04,461.85 1202.53,462.25 1207.02,462.65 1211.51,463.04 1216.00,463.42" fill="none" stroke="#2458d3" stroke-width="1.8" stroke-linejoin="round" stroke-linecap="round" stroke-dasharray="8 5" />
<line x1="54.0" y1="686.0" x2="82.0" y2="686.0" stroke="#2d3440" stroke-width="2.0" />
<text x="92.0" y="690.0" fill="#1f2430" font-size="12" font-family="Segoe UI, Arial, sans-serif" font-weight="400" text-anchor="start">solid = u</text>
<line x1="176.0" y1="686.0" x2="204.0" y2="686.0" stroke="#2d3440" stroke-width="2.0" stroke-dasharray="8 5" />
<text x="214.0" y="690.0" fill="#1f2430" font-size="12" font-family="Segoe UI, Arial, sans-serif" font-weight="400" text-anchor="start">dashed = u_s</text>
<line x1="390.0" y1="686.0" x2="418.0" y2="686.0" stroke="#bf1e2d" stroke-width="2.4" />
<text x="428.0" y="690.0" fill="#1f2430" font-size="12" font-family="Segoe UI, Arial, sans-serif" font-weight="400" text-anchor="start">rho=0.95</text>
<line x1="555.0" y1="686.0" x2="583.0" y2="686.0" stroke="#c96b17" stroke-width="2.4" />
<text x="593.0" y="690.0" fill="#1f2430" font-size="12" font-family="Segoe UI, Arial, sans-serif" font-weight="400" text-anchor="start">rho=0.98</text>
<line x1="720.0" y1="686.0" x2="748.0" y2="686.0" stroke="#2a7f62" stroke-width="2.4" />
<text x="758.0" y="690.0" fill="#1f2430" font-size="12" font-family="Segoe UI, Arial, sans-serif" font-weight="400" text-anchor="start">rho=0.985</text>
<line x1="885.0" y1="686.0" x2="913.0" y2="686.0" stroke="#2458d3" stroke-width="2.4" />
<text x="923.0" y="690.0" fill="#1f2430" font-size="12" font-family="Segoe UI, Arial, sans-serif" font-weight="400" text-anchor="start">rho=0.99</text>
</svg>