<svg xmlns="http://www.w3.org/2000/svg" width="1280" height="760" viewBox="0 0 1280 760" role="img">
<rect x="0.0" y="0.0" width="1280.0" height="760.0" fill="#ffffff" stroke="none" stroke-width="1.0" rx="0.0" />
<text x="40.0" y="34.0" fill="#1f2430" font-size="22" font-family="Segoe UI, Arial, sans-serif" font-weight="600" text-anchor="start">Bounded hard + x_s smoothing: output tracking and steady targets across rho</text>
<text x="40.0" y="56.0" fill="#5d6574" font-size="13" font-family="Segoe UI, Arial, sans-serif" font-weight="400" text-anchor="start">Solid lines are plant outputs y. Dashed lines are steady targets y_s. Black dashed line is the raw setpoint y_sp.</text>
<rect x="40.0" y="88.0" width="1200.0" height="250.0" fill="#fbfbfd" stroke="#d7dbe5" stroke-width="1.0" rx="8.0" />
<text x="56.0" y="112.0" fill="#1f2430" font-size="16" font-family="Segoe UI, Arial, sans-serif" font-weight="600" text-anchor="start">Output y[0]</text>
<text x="56.0" y="130.0" fill="#5d6574" font-size="12" font-family="Segoe UI, Arial, sans-serif" font-weight="400" text-anchor="start">Transient window 0-250 steps</text>
<line x1="98.0" y1="306.0" x2="1216.0" y2="306.0" stroke="#d7dbe5" stroke-width="1.0" stroke-dasharray="4 4" />
<text x="90.0" y="310.0" fill="#5d6574" font-size="11" font-family="Segoe UI, Arial, sans-serif" font-weight="400" text-anchor="end">3.271</text>
<line x1="98.0" y1="226.0" x2="1216.0" y2="226.0" stroke="#d7dbe5" stroke-width="1.0" stroke-dasharray="4 4" />
<text x="90.0" y="230.0" fill="#5d6574" font-size="11" font-family="Segoe UI, Arial, sans-serif" font-weight="400" text-anchor="end">4.062</text>
<line x1="98.0" y1="146.0" x2="1216.0" y2="146.0" stroke="#d7dbe5" stroke-width="1.0" stroke-dasharray="4 4" />
<text x="90.0" y="150.0" fill="#5d6574" font-size="11" font-family="Segoe UI, Arial, sans-serif" font-weight="400" text-anchor="end">4.853</text>
<line x1="98.0" y1="146.0" x2="98.0" y2="306.0" stroke="#d7dbe5" stroke-width="1.0" stroke-dasharray="4 4" />
<text x="98.0" y="324.0" fill="#5d6574" font-size="11" font-family="Segoe UI, Arial, sans-serif" font-weight="400" text-anchor="middle">0</text>
<line x1="657.0" y1="146.0" x2="657.0" y2="306.0" stroke="#d7dbe5" stroke-width="1.0" stroke-dasharray="4 4" />
<text x="657.0" y="324.0" fill="#5d6574" font-size="11" font-family="Segoe UI, Arial, sans-serif" font-weight="400" text-anchor="middle">125</text>
<line x1="1216.0" y1="146.0" x2="1216.0" y2="306.0" stroke="#d7dbe5" stroke-width="1.0" stroke-dasharray="4 4" />
<text x="1216.0" y="324.0" fill="#5d6574" font-size="11" font-family="Segoe UI, Arial, sans-serif" font-weight="400" text-anchor="middle">250</text>
<line x1="98.0" y1="146.0" x2="98.0" y2="306.0" stroke="#2d3440" stroke-width="1.2" />
<line x1="98.0" y1="306.0" x2="1216.0" y2="306.0" stroke="#2d3440" stroke-width="1.2" />
<text x="56.0" y="160.0" fill="#5d6574" font-size="12" font-family="Segoe UI, Arial, sans-serif" font-weight="400" text-anchor="start">physical</text>
<polyline points="98.00,181.72 102.47,181.72 106.94,181.72 111.42,181.72 115.89,181.72 120.36,181.72 124.83,181.72 129.30,181.72 133.78,181.72 138.25,181.72 142.72,181.72 147.19,181.72 151.66,181.72 156.14,181.72 160.61,181.72 165.08,181.72 169.55,181.72 174.02,181.72 178.50,181.72 182.97,181.72 187.44,181.72 191.91,181.72 196.38,181.72 200.86,181.72 205.33,181.72 209.80,181.72 214.27,181.72 218.74,181.72 223.22,181.72 227.69,181.72 232.16,181.72 236.63,181.72 241.10,181.72 245.58,181.72 250.05,181.72 254.52,181.72 258.99,181.72 263.46,181.72 267.94,181.72 272.41,181.72 276.88,181.72 281.35,181.72 285.82,181.72 290.30,181.72 294.77,181.72 299.24,181.72 303.71,181.72 308.18,181.72 312.66,181.72 317.13,181.72 321.60,181.72 326.07,181.72 330.54,181.72 335.02,181.72 339.49,181.72 343.96,181.72 348.43,181.72 352.90,181.72 357.38,181.72 361.85,181.72 366.32,181.72 370.79,181.72 375.26,181.72 379.74,181.72 384.21,181.72 388.68,181.72 393.15,181.72 397.62,181.72 402.10,181.72 406.57,181.72 411.04,181.72 415.51,181.72 419.98,181.72 424.46,181.72 428.93,181.72 433.40,181.72 437.87,181.72 442.34,181.72 446.82,181.72 451.29,181.72 455.76,181.72 460.23,181.72 464.70,181.72 469.18,181.72 473.65,181.72 478.12,181.72 482.59,181.72 487.06,181.72 491.54,181.72 496.01,181.72 500.48,181.72 504.95,181.72 509.42,181.72 513.90,181.72 518.37,181.72 522.84,181.72 527.31,181.72 531.78,181.72 536.26,181.72 540.73,181.72 545.20,181.72 549.67,181.72 554.14,181.72 558.62,181.72 563.09,181.72 567.56,181.72 572.03,181.72 576.50,181.72 580.98,181.72 585.45,181.72 589.92,181.72 594.39,181.72 598.86,181.72 603.34,181.72 607.81,181.72 612.28,181.72 616.75,181.72 621.22,181.72 625.70,181.72 630.17,181.72 634.64,181.72 639.11,181.72 643.58,181.72 648.06,181.72 652.53,181.72 657.00,181.72 661.47,181.72 665.94,181.72 670.42,181.72 674.89,181.72 679.36,181.72 683.83,181.72 688.30,181.72 692.78,181.72 697.25,181.72 701.72,181.72 706.19,181.72 710.66,181.72 715.14,181.72 719.61,181.72 724.08,181.72 728.55,181.72 733.02,181.72 737.50,181.72 741.97,181.72 746.44,181.72 750.91,181.72 755.38,181.72 759.86,181.72 764.33,181.72 768.80,181.72 773.27,181.72 777.74,181.72 782.22,181.72 786.69,181.72 791.16,181.72 795.63,181.72 800.10,181.72 804.58,181.72 809.05,181.72 813.52,181.72 817.99,181.72 822.46,181.72 826.94,181.72 831.41,181.72 835.88,181.72 840.35,181.72 844.82,181.72 849.30,181.72 853.77,181.72 858.24,181.72 862.71,181.72 867.18,181.72 871.66,181.72 876.13,181.72 880.60,181.72 885.07,181.72 889.54,181.72 894.02,181.72 898.49,181.72 902.96,181.72 907.43,181.72 911.90,181.72 916.38,181.72 920.85,181.72 925.32,181.72 929.79,181.72 934.26,181.72 938.74,181.72 943.21,181.72 947.68,181.72 952.15,181.72 956.62,181.72 961.10,181.72 965.57,181.72 970.04,181.72 974.51,181.72 978.98,181.72 983.46,181.72 987.93,181.72 992.40,181.72 996.87,181.72 1001.34,181.72 1005.82,181.72 1010.29,181.72 1014.76,181.72 1019.23,181.72 1023.70,181.72 1028.18,181.72 1032.65,181.72 1037.12,181.72 1041.59,181.72 1046.06,181.72 1050.54,181.72 1055.01,181.72 1059.48,181.72 1063.95,181.72 1068.42,181.72 1072.90,181.72 1077.37,181.72 1081.84,181.72 1086.31,181.72 1090.78,181.72 1095.26,181.72 1099.73,181.72 1104.20,181.72 1108.67,181.72 1113.14,181.72 1117.62,181.72 1122.09,181.72 1126.56,181.72 1131.03,181.72 1135.50,181.72 1139.98,181.72 1144.45,181.72 1148.92,181.72 1153.39,181.72 1157.86,181.72 1162.34,181.72 1166.81,181.72 1171.28,181.72 1175.75,181.72 1180.22,181.72 1184.70,181.72 1189.17,181.72 1193.64,181.72 1198.11,181.72 1202.58,181.72 1207.06,181.72 1211.53,181.72 1216.00,181.72" fill="none" stroke="#2d3440" stroke-width="1.6" stroke-linejoin="round" stroke-linecap="round" stroke-dasharray="4 4" />
<polyline points="98.00,243.39 102.47,242.82 106.94,241.28 111.42,238.97 115.89,236.09 120.36,232.84 124.83,229.37 129.30,225.83 133.78,222.31 138.25,218.93 142.72,215.74 147.19,212.79 151.66,210.12 156.14,207.74 160.61,205.66 165.08,203.89 169.55,202.42 174.02,201.22 178.50,200.29 182.97,199.61 187.44,199.15 191.91,198.88 196.38,198.79 200.86,198.86 205.33,199.05 209.80,199.35 214.27,199.74 218.74,200.19 223.22,200.69 227.69,201.23 232.16,201.78 236.63,202.33 241.10,202.87 245.58,203.39 250.05,203.89 254.52,204.34 258.99,204.75 263.46,205.11 267.94,205.42 272.41,205.66 276.88,205.85 281.35,205.97 285.82,206.03 290.30,206.04 294.77,205.97 299.24,205.86 303.71,205.68 308.18,205.45 312.66,205.17 317.13,204.84 321.60,204.47 326.07,204.06 330.54,203.62 335.02,203.15 339.49,202.65 343.96,202.13 348.43,201.59 352.90,201.04 357.38,200.59 361.85,200.44 366.32,200.59 370.79,200.92 375.26,201.34 379.74,201.77 384.21,202.16 388.68,202.49 393.15,202.73 397.62,202.87 402.10,202.90 406.57,202.81 411.04,202.60 415.51,202.28 419.98,201.86 424.46,201.35 428.93,200.74 433.40,200.07 437.87,199.32 442.34,198.93 446.82,199.77 451.29,201.89 455.76,204.73 460.23,207.93 464.70,211.25 469.18,214.51 473.65,217.59 478.12,220.39 482.59,222.85 487.06,224.91 491.54,226.53 496.01,227.67 500.48,228.32 504.95,228.48 509.42,228.21 513.90,227.62 518.37,226.82 522.84,225.82 527.31,224.60 531.78,223.12 536.26,221.41 540.73,219.47 545.20,217.32 549.67,215.01 554.14,212.56 558.62,210.02 563.09,207.43 567.56,204.82 572.03,202.24 576.50,199.72 580.98,197.29 585.45,194.97 589.92,192.77 594.39,190.73 598.86,188.85 603.34,187.13 607.81,185.58 612.28,184.20 616.75,182.98 621.22,181.93 625.70,181.04 630.17,180.30 634.64,179.68 639.11,179.35 643.58,179.43 648.06,179.87 652.53,180.59 657.00,181.57 661.47,182.76 665.94,184.14 670.42,185.66 674.89,187.31 679.36,189.07 683.83,190.91 688.30,192.80 692.78,194.74 697.25,196.70 701.72,198.66 706.19,200.62 710.66,202.55 715.14,204.44 719.61,206.28 724.08,208.06 728.55,209.77 733.02,211.40 737.50,212.94 741.97,214.39 746.44,215.51 750.91,216.19 755.38,215.98 759.86,214.67 764.33,212.65 768.80,210.24 773.27,207.71 777.74,205.24 782.22,202.95 786.69,200.93 791.16,199.22 795.63,197.85 800.10,196.81 804.58,196.09 809.05,195.67 813.52,195.54 817.99,195.63 822.46,195.90 826.94,198.53 831.41,204.14 835.88,211.17 840.35,218.78 844.82,226.50 849.30,234.08 853.77,241.37 858.24,248.31 862.71,254.87 867.18,261.02 871.66,266.74 876.13,271.97 880.60,276.66 885.07,280.72 889.54,284.04 894.02,286.50 898.49,287.99 902.96,288.50 907.43,288.17 911.90,287.16 916.38,284.41 920.85,278.92 925.32,271.09 929.79,261.51 934.26,250.82 938.74,239.65 943.21,228.50 947.68,217.78 952.15,207.76 956.62,198.62 961.10,190.47 965.57,183.34 970.04,177.23 974.51,172.11 978.98,167.91 983.46,164.58 987.93,162.02 992.40,160.13 996.87,158.74 1001.34,157.73 1005.82,157.03 1010.29,157.94 1014.76,161.04 1019.23,165.58 1023.70,171.07 1028.18,177.18 1032.65,183.69 1037.12,190.43 1041.59,197.28 1046.06,204.15 1050.54,210.97 1055.01,217.68 1059.48,224.22 1063.95,230.56 1068.42,236.67 1072.90,242.52 1077.37,248.09 1081.84,253.36 1086.31,258.32 1090.78,262.95 1095.26,267.26 1099.73,271.24 1104.20,274.89 1108.67,278.21 1113.14,281.20 1117.62,283.88 1122.09,286.24 1126.56,288.29 1131.03,290.04 1135.50,291.51 1139.98,292.71 1144.45,293.64 1148.92,294.32 1153.39,294.76 1157.86,294.97 1162.34,294.96 1166.81,294.75 1171.28,294.34 1175.75,293.76 1180.22,293.00 1184.70,292.08 1189.17,291.00 1193.64,289.79 1198.11,288.44 1202.58,286.96 1207.06,285.37 1211.53,283.67 1216.00,281.87" fill="none" stroke="#bf1e2d" stroke-width="2.2" stroke-linejoin="round" stroke-linecap="round" />
<polyline points="98.00,242.84 102.47,242.84 106.94,242.68 111.42,242.20 115.89,241.19 120.36,239.55 124.83,237.48 129.30,234.98 133.78,232.20 138.25,229.31 142.72,226.19 147.19,223.21 151.66,220.45 156.14,217.96 160.61,215.77 165.08,213.88 169.55,212.30 174.02,211.01 178.50,209.98 182.97,209.20 187.44,208.64 191.91,208.26 196.38,208.05 200.86,207.97 205.33,208.01 209.80,208.14 214.27,208.34 218.74,208.59 223.22,208.88 227.69,209.20 232.16,209.52 236.63,209.84 241.10,210.15 245.58,210.44 250.05,210.70 254.52,210.93 258.99,211.13 263.46,211.29 267.94,211.40 272.41,211.47 276.88,211.50 281.35,211.48 285.82,211.41 290.30,211.29 294.77,211.13 299.24,210.93 303.71,210.68 308.18,210.40 312.66,210.07 317.13,209.72 321.60,209.33 326.07,208.91 330.54,208.47 335.02,208.00 339.49,207.52 343.96,207.02 348.43,206.50 352.90,205.98 357.38,205.45 361.85,204.94 366.32,204.50 370.79,204.21 375.26,204.14 379.74,204.26 384.21,204.51 388.68,204.83 393.15,205.15 397.62,205.42 402.10,205.60 406.57,205.67 411.04,205.62 415.51,205.46 419.98,205.18 424.46,204.80 428.93,204.32 433.40,203.76 437.87,203.13 442.34,202.44 446.82,201.77 451.29,201.38 455.76,201.64 460.23,203.04 464.70,205.16 469.18,207.78 473.65,210.70 478.12,213.69 482.59,216.53 487.06,219.09 491.54,221.28 496.01,223.03 500.48,224.32 504.95,225.15 509.42,225.50 513.90,225.42 518.37,224.95 522.84,224.19 527.31,223.22 531.78,222.09 536.26,220.83 540.73,219.44 545.20,217.92 549.67,216.24 554.14,214.44 558.62,212.54 563.09,210.56 567.56,208.53 572.03,206.49 576.50,204.45 580.98,202.46 585.45,200.54 589.92,198.70 594.39,196.98 598.86,195.37 603.34,193.90 607.81,192.58 612.28,191.43 616.75,190.41 621.22,189.52 625.70,188.76 630.17,188.11 634.64,187.57 639.11,187.13 643.58,186.82 648.06,186.69 652.53,186.75 657.00,187.07 661.47,187.64 665.94,188.44 670.42,189.43 674.89,190.56 679.36,191.81 683.83,193.13 688.30,194.52 692.78,195.94 697.25,197.39 701.72,198.84 706.19,200.29 710.66,201.73 715.14,203.14 719.61,204.53 724.08,205.87 728.55,207.17 733.02,208.42 737.50,209.62 741.97,210.75 746.44,211.81 750.91,212.77 755.38,213.52 759.86,213.89 764.33,213.66 768.80,212.71 773.27,211.09 777.74,208.97 782.22,206.60 786.69,204.21 791.16,201.97 795.63,200.02 800.10,198.44 804.58,197.24 809.05,196.43 813.52,195.97 817.99,195.83 822.46,195.97 826.94,196.31 831.41,197.25 835.88,199.38 840.35,203.09 844.82,208.26 849.30,214.62 853.77,221.57 858.24,228.55 862.71,235.25 867.18,241.47 871.66,247.14 876.13,252.24 880.60,256.81 885.07,260.83 889.54,264.33 894.02,267.27 898.49,269.59 902.96,271.23 907.43,272.12 911.90,272.26 916.38,271.69 920.85,270.26 925.32,267.61 929.79,263.34 934.26,257.31 938.74,249.85 943.21,241.25 947.68,231.72 952.15,222.10 956.62,212.88 961.10,204.40 965.57,196.88 970.04,190.45 974.51,185.13 978.98,180.86 983.46,177.58 987.93,175.16 992.40,173.51 996.87,172.48 1001.34,171.95 1005.82,171.78 1010.29,171.84 1014.76,172.30 1019.23,173.59 1023.70,176.03 1028.18,179.65 1032.65,184.25 1037.12,189.54 1041.59,195.22 1046.06,201.06 1050.54,206.89 1055.01,212.57 1059.48,218.04 1063.95,223.27 1068.42,228.24 1072.90,232.94 1077.37,237.37 1081.84,241.53 1086.31,245.44 1090.78,249.10 1095.26,252.50 1099.73,255.66 1104.20,258.59 1108.67,261.28 1113.14,263.75 1117.62,266.00 1122.09,268.03 1126.56,269.85 1131.03,271.47 1135.50,272.89 1139.98,274.13 1144.45,275.18 1148.92,276.06 1153.39,276.78 1157.86,277.34 1162.34,277.74 1166.81,278.00 1171.28,278.12 1175.75,278.12 1180.22,277.98 1184.70,277.73 1189.17,277.37 1193.64,276.90 1198.11,276.33 1202.58,275.66 1207.06,274.90 1211.53,274.04 1216.00,273.11" fill="none" stroke="#bf1e2d" stroke-width="1.8" stroke-linejoin="round" stroke-linecap="round" stroke-dasharray="8 5" />
<polyline points="98.00,243.39 102.47,243.16 106.94,242.51 111.42,241.48 115.89,240.09 120.36,238.41 124.83,236.47 129.30,234.34 133.78,232.05 138.25,229.66 142.72,227.22 147.19,224.76 151.66,222.34 156.14,219.97 160.61,217.69 165.08,215.53 169.55,213.49 174.02,211.61 178.50,209.87 182.97,208.30 187.44,206.88 191.91,205.62 196.38,204.52 200.86,203.56 205.33,202.75 209.80,202.06 214.27,201.49 218.74,201.04 223.22,200.68 227.69,200.41 232.16,200.21 236.63,200.08 241.10,200.01 245.58,199.98 250.05,199.99 254.52,200.02 258.99,200.07 263.46,200.13 267.94,200.19 272.41,200.26 276.88,200.32 281.35,200.36 285.82,200.39 290.30,200.40 294.77,200.39 299.24,200.36 303.71,200.30 308.18,200.22 312.66,200.11 317.13,199.98 321.60,199.81 326.07,199.63 330.54,199.42 335.02,199.18 339.49,198.92 343.96,198.65 348.43,198.35 352.90,198.04 357.38,197.71 361.85,197.37 366.32,197.02 370.79,196.67 375.26,196.30 379.74,195.93 384.21,195.56 388.68,195.18 393.15,194.81 397.62,194.43 402.10,194.06 406.57,193.70 411.04,193.34 415.51,192.98 419.98,192.64 424.46,192.30 428.93,191.97 433.40,191.65 437.87,191.33 442.34,191.03 446.82,190.74 451.29,190.46 455.76,190.18 460.23,189.92 464.70,189.67 469.18,189.43 473.65,189.19 478.12,188.97 482.59,188.75 487.06,188.55 491.54,188.35 496.01,188.16 500.48,187.97 504.95,187.80 509.42,187.63 513.90,187.46 518.37,187.31 522.84,187.16 527.31,187.01 531.78,186.87 536.26,186.73 540.73,186.60 545.20,186.48 549.67,186.35 554.14,186.23 558.62,186.12 563.09,186.01 567.56,185.90 572.03,185.79 576.50,185.69 580.98,185.59 585.45,185.49 589.92,185.39 594.39,185.30 598.86,185.21 603.34,185.12 607.81,185.04 612.28,184.96 616.75,184.88 621.22,184.80 625.70,184.72 630.17,184.65 634.64,184.58 639.11,184.50 643.58,184.44 648.06,184.37 652.53,184.30 657.00,184.24 661.47,184.18 665.94,184.12 670.42,184.06 674.89,184.00 679.36,183.95 683.83,183.89 688.30,183.84 692.78,183.78 697.25,183.73 701.72,183.68 706.19,183.64 710.66,183.59 715.14,183.54 719.61,183.50 724.08,183.45 728.55,183.41 733.02,183.37 737.50,183.33 741.97,183.29 746.44,183.25 750.91,183.21 755.38,183.17 759.86,183.14 764.33,183.10 768.80,183.07 773.27,183.03 777.74,183.00 782.22,182.97 786.69,182.94 791.16,182.91 795.63,182.88 800.10,182.85 804.58,182.82 809.05,182.79 813.52,182.77 817.99,182.74 822.46,182.72 826.94,182.69 831.41,182.67 835.88,182.64 840.35,182.62 844.82,182.60 849.30,182.58 853.77,182.56 858.24,182.54 862.71,182.52 867.18,182.50 871.66,182.48 876.13,182.46 880.60,182.44 885.07,182.43 889.54,182.41 894.02,182.39 898.49,182.38 902.96,182.36 907.43,182.34 911.90,182.33 916.38,182.31 920.85,182.30 925.32,182.29 929.79,182.27 934.26,182.26 938.74,182.25 943.21,182.23 947.68,182.22 952.15,182.21 956.62,182.20 961.10,182.19 965.57,182.18 970.04,182.17 974.51,182.15 978.98,182.14 983.46,182.13 987.93,182.12 992.40,182.11 996.87,182.11 1001.34,182.10 1005.82,182.09 1010.29,182.08 1014.76,182.07 1019.23,182.06 1023.70,182.05 1028.18,182.05 1032.65,182.04 1037.12,182.03 1041.59,182.02 1046.06,182.02 1050.54,182.01 1055.01,182.00 1059.48,182.00 1063.95,181.99 1068.42,181.98 1072.90,181.98 1077.37,181.97 1081.84,181.97 1086.31,181.96 1090.78,181.95 1095.26,181.95 1099.73,181.96 1104.20,182.00 1108.67,182.06 1113.14,182.13 1117.62,182.19 1122.09,182.26 1126.56,182.32 1131.03,182.36 1135.50,182.40 1139.98,182.43 1144.45,182.45 1148.92,182.24 1153.39,181.58 1157.86,180.55 1162.34,179.29 1166.81,177.90 1171.28,176.47 1175.75,175.07 1180.22,173.74 1184.70,172.50 1189.17,171.38 1193.64,170.38 1198.11,169.65 1202.58,169.82 1207.06,171.04 1211.53,172.90 1216.00,175.14" fill="none" stroke="#c96b17" stroke-width="2.2" stroke-linejoin="round" stroke-linecap="round" />
<polyline points="98.00,242.84 102.47,242.84 106.94,242.77 111.42,242.54 115.89,242.07 120.36,241.29 124.83,240.20 129.30,238.81 133.78,237.25 138.25,235.54 142.72,233.70 147.19,231.79 151.66,229.85 156.14,227.93 160.61,226.06 165.08,224.18 169.55,222.33 174.02,220.59 178.50,218.99 182.97,217.52 187.44,216.19 191.91,215.00 196.38,213.94 200.86,213.01 205.33,212.20 209.80,211.50 214.27,210.90 218.74,210.39 223.22,209.97 227.69,209.62 232.16,209.32 236.63,209.08 241.10,208.88 245.58,208.72 250.05,208.58 254.52,208.46 258.99,208.35 263.46,208.25 267.94,208.16 272.41,208.06 276.88,207.96 281.35,207.84 285.82,207.72 290.30,207.58 294.77,207.43 299.24,207.25 303.71,207.07 308.18,206.86 312.66,206.63 317.13,206.38 321.60,206.12 326.07,205.83 330.54,205.53 335.02,205.22 339.49,204.89 343.96,204.54 348.43,204.18 352.90,203.82 357.38,203.44 361.85,203.05 366.32,202.66 370.79,202.26 375.26,201.86 379.74,201.46 384.21,201.05 388.68,200.65 393.15,200.24 397.62,199.84 402.10,199.45 406.57,199.05 411.04,198.67 415.51,198.29 419.98,197.91 424.46,197.54 428.93,197.18 433.40,196.83 437.87,196.49 442.34,196.15 446.82,195.83 451.29,195.51 455.76,195.20 460.23,194.90 464.70,194.60 469.18,194.32 473.65,194.04 478.12,193.77 482.59,193.51 487.06,193.25 491.54,193.00 496.01,192.76 500.48,192.52 504.95,192.29 509.42,192.07 513.90,191.85 518.37,191.63 522.84,191.42 527.31,191.21 531.78,191.01 536.26,190.82 540.73,190.62 545.20,190.43 549.67,190.25 554.14,190.07 558.62,189.89 563.09,189.71 567.56,189.54 572.03,189.37 576.50,189.21 580.98,189.05 585.45,188.89 589.92,188.73 594.39,188.58 598.86,188.43 603.34,188.28 607.81,188.14 612.28,188.00 616.75,187.86 621.22,187.73 625.70,187.60 630.17,187.47 634.64,187.34 639.11,187.22 643.58,187.10 648.06,186.98 652.53,186.86 657.00,186.75 661.47,186.64 665.94,186.53 670.42,186.42 674.89,186.32 679.36,186.22 683.83,186.12 688.30,186.02 692.78,185.92 697.25,185.83 701.72,185.74 706.19,185.65 710.66,185.56 715.14,185.47 719.61,185.39 724.08,185.31 728.55,185.23 733.02,185.15 737.50,185.07 741.97,185.00 746.44,184.92 750.91,184.85 755.38,184.78 759.86,184.71 764.33,184.64 768.80,184.57 773.27,184.51 777.74,184.45 782.22,184.38 786.69,184.32 791.16,184.26 795.63,184.21 800.10,184.15 804.58,184.09 809.05,184.04 813.52,183.99 817.99,183.94 822.46,183.88 826.94,183.84 831.41,183.79 835.88,183.74 840.35,183.69 844.82,183.65 849.30,183.60 853.77,183.56 858.24,183.52 862.71,183.48 867.18,183.44 871.66,183.40 876.13,183.36 880.60,183.32 885.07,183.29 889.54,183.25 894.02,183.22 898.49,183.18 902.96,183.15 907.43,183.12 911.90,183.08 916.38,183.05 920.85,183.02 925.32,182.99 929.79,182.96 934.26,182.93 938.74,182.91 943.21,182.88 947.68,182.85 952.15,182.83 956.62,182.80 961.10,182.78 965.57,182.75 970.04,182.73 974.51,182.71 978.98,182.68 983.46,182.66 987.93,182.64 992.40,182.62 996.87,182.60 1001.34,182.58 1005.82,182.56 1010.29,182.54 1014.76,182.52 1019.23,182.50 1023.70,182.48 1028.18,182.47 1032.65,182.45 1037.12,182.43 1041.59,182.42 1046.06,182.40 1050.54,182.38 1055.01,182.37 1059.48,182.35 1063.95,182.34 1068.42,182.33 1072.90,182.31 1077.37,182.30 1081.84,182.28 1086.31,182.27 1090.78,182.26 1095.26,181.72 1099.73,181.72 1104.20,181.72 1108.67,181.72 1113.14,181.74 1117.62,181.78 1122.09,181.82 1126.56,181.87 1131.03,181.93 1135.50,181.98 1139.98,182.02 1144.45,182.06 1148.92,182.08 1153.39,182.05 1157.86,181.88 1162.34,181.46 1166.81,180.74 1171.28,179.78 1175.75,178.65 1180.22,177.42 1184.70,176.18 1189.17,174.99 1193.64,173.90 1198.11,172.93 1202.58,172.12 1207.06,171.61 1211.53,171.63 1216.00,172.41" fill="none" stroke="#c96b17" stroke-width="1.8" stroke-linejoin="round" stroke-linecap="round" stroke-dasharray="8 5" />
<polyline points="98.00,243.39 102.47,243.22 106.94,242.71 111.42,241.88 115.89,240.73 120.36,239.30 124.83,237.61 129.30,235.71 133.78,233.63 138.25,231.46 142.72,229.26 147.19,227.05 151.66,224.85 156.14,222.68 160.61,220.56 165.08,218.51 169.55,216.54 174.02,214.67 178.50,212.91 182.97,211.27 187.44,209.75 191.91,208.37 196.38,207.11 200.86,205.98 205.33,204.97 209.80,204.09 214.27,203.32 218.74,202.66 223.22,202.09 227.69,201.62 232.16,201.22 236.63,200.91 241.10,200.65 245.58,200.45 250.05,200.30 254.52,200.19 258.99,200.11 263.46,200.05 267.94,200.02 272.41,199.99 276.88,199.97 281.35,199.96 285.82,199.93 290.30,199.91 294.77,199.87 299.24,199.82 303.71,199.75 308.18,199.67 312.66,199.57 317.13,199.45 321.60,199.30 326.07,199.14 330.54,198.96 335.02,198.76 339.49,198.54 343.96,198.30 348.43,198.05 352.90,197.78 357.38,197.49 361.85,197.19 366.32,196.88 370.79,196.57 375.26,196.24 379.74,195.90 384.21,195.57 388.68,195.22 393.15,194.88 397.62,194.53 402.10,194.19 406.57,193.84 411.04,193.50 415.51,193.17 419.98,192.83 424.46,192.51 428.93,192.19 433.40,191.88 437.87,191.57 442.34,191.27 446.82,190.98 451.29,190.70 455.76,190.43 460.23,190.16 464.70,189.91 469.18,189.66 473.65,189.42 478.12,189.19 482.59,188.97 487.06,188.76 491.54,188.55 496.01,188.36 500.48,188.17 504.95,187.98 509.42,187.81 513.90,187.64 518.37,187.47 522.84,187.32 527.31,187.17 531.78,187.02 536.26,186.88 540.73,186.74 545.20,186.61 549.67,186.48 554.14,186.36 558.62,186.24 563.09,186.12 567.56,186.01 572.03,185.90 576.50,185.79 580.98,185.69 585.45,186.31 589.92,188.00 594.39,190.30 598.86,192.92 603.34,195.65 607.81,198.36 612.28,200.92 616.75,203.28 621.22,205.37 625.70,207.15 630.17,208.61 634.64,209.72 639.11,210.47 643.58,210.87 648.06,210.92 652.53,210.63 657.00,210.04 661.47,209.16 665.94,208.02 670.42,206.67 674.89,205.13 679.36,203.44 683.83,201.64 688.30,199.77 692.78,197.86 697.25,195.95 701.72,194.05 706.19,192.20 710.66,190.42 715.14,188.73 719.61,187.14 724.08,185.65 728.55,184.29 733.02,183.05 737.50,181.94 741.97,180.96 746.44,180.10 750.91,179.35 755.38,178.73 759.86,178.21 764.33,177.80 768.80,177.49 773.27,177.26 777.74,177.11 782.22,177.03 786.69,177.02 791.16,177.07 795.63,177.16 800.10,177.29 804.58,177.47 809.05,177.67 813.52,177.89 817.99,178.13 822.46,178.38 826.94,178.64 831.41,178.90 835.88,179.17 840.35,179.43 844.82,179.68 849.30,179.93 853.77,180.16 858.24,180.39 862.71,180.60 867.18,180.80 871.66,180.98 876.13,181.15 880.60,181.30 885.07,181.43 889.54,181.56 894.02,181.66 898.49,181.76 902.96,181.84 907.43,181.90 911.90,181.96 916.38,182.00 920.85,182.03 925.32,182.05 929.79,182.07 934.26,182.08 938.74,182.08 943.21,182.07 947.68,182.06 952.15,182.05 956.62,182.03 961.10,182.01 965.57,181.99 970.04,181.96 974.51,181.93 978.98,181.91 983.46,181.88 987.93,181.86 992.40,181.83 996.87,181.81 1001.34,181.78 1005.82,181.76 1010.29,181.74 1014.76,181.72 1019.23,181.70 1023.70,181.69 1028.18,181.67 1032.65,181.66 1037.12,181.65 1041.59,181.64 1046.06,181.63 1050.54,181.63 1055.01,181.62 1059.48,181.62 1063.95,181.61 1068.42,181.61 1072.90,181.61 1077.37,181.61 1081.84,181.61 1086.31,181.61 1090.78,181.62 1095.26,181.62 1099.73,181.62 1104.20,181.62 1108.67,181.63 1113.14,181.63 1117.62,181.63 1122.09,181.64 1126.56,181.64 1131.03,181.65 1135.50,181.65 1139.98,181.65 1144.45,181.66 1148.92,181.66 1153.39,181.66 1157.86,181.66 1162.34,181.67 1166.81,181.67 1171.28,181.67 1175.75,181.67 1180.22,181.67 1184.70,181.68 1189.17,181.68 1193.64,181.68 1198.11,181.68 1202.58,181.68 1207.06,181.68 1211.53,181.68 1216.00,181.68" fill="none" stroke="#2a7f62" stroke-width="2.2" stroke-linejoin="round" stroke-linecap="round" />
<polyline points="98.00,242.84 102.47,242.84 106.94,242.79 111.42,242.61 115.89,242.22 120.36,241.58 124.83,240.67 129.30,239.49 133.78,238.07 138.25,236.55 142.72,234.89 147.19,233.14 151.66,231.37 156.14,229.61 160.61,227.89 165.08,226.24 169.55,224.65 174.02,223.06 178.50,221.50 182.97,220.04 187.44,218.67 191.91,217.41 196.38,216.26 200.86,215.21 205.33,214.26 209.80,213.40 214.27,212.64 218.74,211.97 223.22,211.37 227.69,210.85 232.16,210.40 236.63,210.00 241.10,209.65 245.58,209.35 250.05,209.08 254.52,208.85 258.99,208.64 263.46,208.44 267.94,208.27 272.41,208.09 276.88,207.93 281.35,207.76 285.82,207.60 290.30,207.42 294.77,207.24 299.24,207.05 303.71,206.85 308.18,206.64 312.66,206.41 317.13,206.17 321.60,205.92 326.07,205.65 330.54,205.37 335.02,205.08 339.49,204.77 343.96,204.45 348.43,204.12 352.90,203.77 357.38,203.42 361.85,203.06 366.32,202.70 370.79,202.32 375.26,201.95 379.74,201.57 384.21,201.18 388.68,200.80 393.15,200.42 397.62,200.03 402.10,199.65 406.57,199.27 411.04,198.90 415.51,198.53 419.98,198.16 424.46,197.80 428.93,197.44 433.40,197.10 437.87,196.75 442.34,196.42 446.82,196.09 451.29,195.77 455.76,195.46 460.23,195.16 464.70,194.86 469.18,194.57 473.65,194.29 478.12,194.01 482.59,193.75 487.06,193.49 491.54,193.23 496.01,192.98 500.48,192.74 504.95,192.50 509.42,192.27 513.90,192.04 518.37,191.82 522.84,191.61 527.31,191.40 531.78,191.19 536.26,190.99 540.73,190.79 545.20,190.60 549.67,190.41 554.14,190.22 558.62,190.04 563.09,189.86 567.56,189.69 572.03,189.52 576.50,189.35 580.98,189.19 585.45,189.02 589.92,188.97 594.39,189.30 598.86,190.21 603.34,191.70 607.81,193.64 612.28,195.95 616.75,198.34 621.22,200.64 625.70,202.73 630.17,204.55 634.64,206.03 639.11,207.17 643.58,207.97 648.06,208.42 652.53,208.54 657.00,208.36 661.47,207.90 665.94,207.19 670.42,206.26 674.89,205.13 679.36,203.84 683.83,202.43 688.30,200.93 692.78,199.38 697.25,197.80 701.72,196.24 706.19,194.70 710.66,193.21 715.14,191.80 719.61,190.46 724.08,189.21 728.55,188.07 733.02,187.02 737.50,186.09 741.97,185.25 746.44,184.52 750.91,183.89 755.38,183.35 759.86,182.90 764.33,182.53 768.80,182.23 773.27,182.00 777.74,181.84 782.22,181.72 786.69,181.66 791.16,181.63 795.63,181.64 800.10,181.72 804.58,181.72 809.05,181.72 813.52,181.72 817.99,181.72 822.46,181.72 826.94,181.72 831.41,181.72 835.88,181.85 840.35,181.97 844.82,182.08 849.30,182.19 853.77,182.30 858.24,182.39 862.71,182.48 867.18,182.55 871.66,182.62 876.13,182.68 880.60,182.72 885.07,182.76 889.54,182.79 894.02,182.80 898.49,182.81 902.96,182.82 907.43,182.81 911.90,182.80 916.38,182.78 920.85,182.75 925.32,182.72 929.79,182.69 934.26,182.65 938.74,182.61 943.21,182.57 947.68,182.52 952.15,182.48 956.62,182.43 961.10,182.38 965.57,182.33 970.04,182.29 974.51,182.24 978.98,182.19 983.46,182.15 987.93,182.10 992.40,182.06 996.87,182.02 1001.34,181.98 1005.82,181.94 1010.29,181.91 1014.76,181.88 1019.23,181.85 1023.70,181.82 1028.18,181.79 1032.65,181.72 1037.12,181.72 1041.59,181.72 1046.06,181.72 1050.54,181.72 1055.01,181.72 1059.48,181.72 1063.95,181.72 1068.42,181.72 1072.90,181.72 1077.37,181.72 1081.84,181.72 1086.31,181.72 1090.78,181.72 1095.26,181.72 1099.73,181.72 1104.20,181.72 1108.67,181.72 1113.14,181.72 1117.62,181.72 1122.09,181.72 1126.56,181.72 1131.03,181.72 1135.50,181.72 1139.98,181.72 1144.45,181.72 1148.92,181.72 1153.39,181.72 1157.86,181.72 1162.34,181.72 1166.81,181.72 1171.28,181.72 1175.75,181.72 1180.22,181.72 1184.70,181.72 1189.17,181.72 1193.64,181.72 1198.11,181.72 1202.58,181.72 1207.06,181.72 1211.53,181.72 1216.00,181.72" fill="none" stroke="#2a7f62" stroke-width="1.8" stroke-linejoin="round" stroke-linecap="round" stroke-dasharray="8 5" />
<polyline points="98.00,243.39 102.47,243.27 106.94,242.91 111.42,242.28 115.89,241.37 120.36,240.18 124.83,238.74 129.30,237.07 133.78,235.20 138.25,233.16 142.72,230.99 147.19,228.73 151.66,226.41 156.14,224.08 160.61,221.77 165.08,219.50 169.55,217.30 174.02,215.19 178.50,213.20 182.97,211.33 187.44,209.60 191.91,208.01 196.38,206.56 200.86,205.25 205.33,204.09 209.80,203.06 214.27,202.17 218.74,201.40 223.22,200.75 227.69,200.20 232.16,199.75 236.63,199.39 241.10,199.10 245.58,198.88 250.05,198.72 254.52,198.61 258.99,198.54 263.46,198.51 267.94,198.50 272.41,198.50 276.88,198.52 281.35,198.54 285.82,198.56 290.30,198.58 294.77,198.59 299.24,198.58 303.71,198.57 308.18,198.53 312.66,198.48 317.13,198.40 321.60,198.31 326.07,198.19 330.54,198.06 335.02,197.90 339.49,197.72 343.96,197.52 348.43,197.30 352.90,197.06 357.38,196.81 361.85,196.54 366.32,196.26 370.79,195.97 375.26,195.67 379.74,195.35 384.21,195.04 388.68,194.71 393.15,194.39 397.62,194.06 402.10,193.73 406.57,193.40 411.04,193.07 415.51,192.74 419.98,192.42 424.46,192.10 428.93,191.79 433.40,191.49 437.87,191.19 442.34,190.90 446.82,190.62 451.29,190.35 455.76,190.08 460.23,189.82 464.70,189.58 469.18,189.34 473.65,189.10 478.12,188.88 482.59,188.67 487.06,188.46 491.54,188.26 496.01,188.07 500.48,187.89 504.95,187.71 509.42,187.54 513.90,187.38 518.37,187.22 522.84,187.07 527.31,186.93 531.78,186.79 536.26,186.65 540.73,186.52 545.20,186.40 549.67,186.27 554.14,186.16 558.62,186.04 563.09,185.93 567.56,185.82 572.03,185.72 576.50,185.62 580.98,185.52 585.45,185.43 589.92,185.34 594.39,185.25 598.86,185.16 603.34,185.08 607.81,185.00 612.28,184.92 616.75,184.85 621.22,184.78 625.70,184.71 630.17,184.64 634.64,184.58 639.11,184.52 643.58,184.46 648.06,184.40 652.53,184.34 657.00,184.28 661.47,184.23 665.94,184.18 670.42,184.12 674.89,184.07 679.36,184.02 683.83,183.98 688.30,183.93 692.78,183.88 697.25,183.83 701.72,183.79 706.19,183.74 710.66,183.70 715.14,183.65 719.61,183.61 724.08,183.57 728.55,183.53 733.02,183.49 737.50,183.45 741.97,183.41 746.44,183.37 750.91,183.33 755.38,183.29 759.86,183.26 764.33,183.22 768.80,183.18 773.27,183.15 777.74,183.12 782.22,183.08 786.69,183.05 791.16,183.02 795.63,182.99 800.10,182.96 804.58,182.93 809.05,182.90 813.52,182.87 817.99,182.84 822.46,182.81 826.94,182.79 831.41,182.76 835.88,182.74 840.35,182.71 844.82,182.69 849.30,182.67 853.77,182.64 858.24,182.62 862.71,182.60 867.18,182.58 871.66,182.56 876.13,182.54 880.60,182.52 885.07,182.50 889.54,182.48 894.02,182.46 898.49,182.45 902.96,182.43 907.43,182.41 911.90,182.40 916.38,182.38 920.85,182.37 925.32,182.35 929.79,182.34 934.26,182.32 938.74,182.31 943.21,182.30 947.68,182.28 952.15,182.27 956.62,182.26 961.10,182.24 965.57,182.23 970.04,182.22 974.51,182.21 978.98,182.20 983.46,182.19 987.93,182.18 992.40,182.17 996.87,182.16 1001.34,182.15 1005.82,182.14 1010.29,182.13 1014.76,182.12 1019.23,182.11 1023.70,182.10 1028.18,182.09 1032.65,182.08 1037.12,182.07 1041.59,182.07 1046.06,182.06 1050.54,182.05 1055.01,182.04 1059.48,182.04 1063.95,182.03 1068.42,182.02 1072.90,182.01 1077.37,182.01 1081.84,182.00 1086.31,181.99 1090.78,181.99 1095.26,181.98 1099.73,181.98 1104.20,181.97 1108.67,181.97 1113.14,181.96 1117.62,181.95 1122.09,181.95 1126.56,181.94 1131.03,181.94 1135.50,181.93 1139.98,181.93 1144.45,181.92 1148.92,181.92 1153.39,181.91 1157.86,181.91 1162.34,181.91 1166.81,181.90 1171.28,181.90 1175.75,181.89 1180.22,181.89 1184.70,181.89 1189.17,181.88 1193.64,181.88 1198.11,181.88 1202.58,181.87 1207.06,181.87 1211.53,181.87 1216.00,181.86" fill="none" stroke="#2458d3" stroke-width="2.2" stroke-linejoin="round" stroke-linecap="round" />
<polyline points="98.00,242.84 102.47,242.84 106.94,242.80 111.42,242.68 115.89,242.39 120.36,241.88 124.83,241.15 129.30,240.18 133.78,238.97 138.25,237.57 142.72,236.07 147.19,234.44 151.66,232.71 156.14,230.92 160.61,229.11 165.08,227.30 169.55,225.53 174.02,223.82 178.50,222.09 182.97,220.41 187.44,218.83 191.91,217.37 196.38,216.03 200.86,214.81 205.33,213.71 209.80,212.72 214.27,211.85 218.74,211.07 223.22,210.40 227.69,209.81 232.16,209.30 236.63,208.87 241.10,208.49 245.58,208.17 250.05,207.90 254.52,207.66 258.99,207.45 263.46,207.27 267.94,207.10 272.41,206.95 276.88,206.81 281.35,206.67 285.82,206.53 290.30,206.39 294.77,206.24 299.24,206.08 303.71,205.91 308.18,205.73 312.66,205.53 317.13,205.32 321.60,205.10 326.07,204.86 330.54,204.60 335.02,204.33 339.49,204.05 343.96,203.76 348.43,203.45 352.90,203.13 357.38,202.79 361.85,202.45 366.32,202.10 370.79,201.75 375.26,201.39 379.74,201.02 384.21,200.65 388.68,200.28 393.15,199.90 397.62,199.53 402.10,199.16 406.57,198.79 411.04,198.42 415.51,198.05 419.98,197.70 424.46,197.34 428.93,196.99 433.40,196.65 437.87,196.32 442.34,195.99 446.82,195.67 451.29,195.35 455.76,195.05 460.23,194.75 464.70,194.46 469.18,194.17 473.65,193.90 478.12,193.63 482.59,193.36 487.06,193.11 491.54,192.86 496.01,192.61 500.48,192.38 504.95,192.15 509.42,191.92 513.90,191.70 518.37,191.49 522.84,191.28 527.31,191.07 531.78,190.87 536.26,190.68 540.73,190.49 545.20,190.30 549.67,190.12 554.14,189.94 558.62,189.76 563.09,189.59 567.56,189.42 572.03,189.25 576.50,189.09 580.98,188.93 585.45,188.78 589.92,188.63 594.39,188.48 598.86,188.33 603.34,188.19 607.81,188.05 612.28,187.92 616.75,187.79 621.22,187.66 625.70,187.53 630.17,187.41 634.64,187.29 639.11,187.18 643.58,187.06 648.06,186.95 652.53,186.84 657.00,186.74 661.47,186.64 665.94,186.53 670.42,186.43 674.89,186.34 679.36,186.24 683.83,186.15 688.30,186.05 692.78,185.96 697.25,185.88 701.72,185.79 706.19,185.70 710.66,185.62 715.14,185.54 719.61,185.45 724.08,185.37 728.55,185.30 733.02,185.22 737.50,185.14 741.97,185.07 746.44,185.00 750.91,184.93 755.38,184.86 759.86,184.79 764.33,184.72 768.80,184.65 773.27,184.59 777.74,184.53 782.22,184.46 786.69,184.40 791.16,184.34 795.63,184.28 800.10,184.23 804.58,184.17 809.05,184.12 813.52,184.06 817.99,184.01 822.46,183.96 826.94,183.91 831.41,183.86 835.88,183.81 840.35,183.77 844.82,183.72 849.30,183.68 853.77,183.63 858.24,183.59 862.71,183.55 867.18,183.51 871.66,183.47 876.13,183.43 880.60,183.39 885.07,183.35 889.54,183.32 894.02,183.28 898.49,183.25 902.96,183.21 907.43,183.18 911.90,183.15 916.38,183.11 920.85,183.08 925.32,183.05 929.79,183.02 934.26,182.99 938.74,182.97 943.21,182.94 947.68,182.91 952.15,182.88 956.62,182.86 961.10,182.83 965.57,182.81 970.04,182.78 974.51,182.76 978.98,182.74 983.46,182.71 987.93,182.69 992.40,182.67 996.87,182.65 1001.34,182.63 1005.82,182.61 1010.29,182.59 1014.76,182.57 1019.23,182.55 1023.70,182.53 1028.18,182.51 1032.65,182.49 1037.12,182.48 1041.59,182.46 1046.06,182.44 1050.54,182.43 1055.01,182.41 1059.48,182.40 1063.95,182.38 1068.42,182.37 1072.90,182.35 1077.37,182.34 1081.84,182.32 1086.31,182.31 1090.78,182.30 1095.26,182.28 1099.73,182.27 1104.20,182.26 1108.67,182.25 1113.14,181.72 1117.62,181.72 1122.09,181.72 1126.56,181.72 1131.03,181.72 1135.50,181.72 1139.98,181.72 1144.45,181.72 1148.92,181.72 1153.39,181.72 1157.86,181.72 1162.34,181.72 1166.81,181.72 1171.28,181.72 1175.75,181.72 1180.22,181.72 1184.70,181.72 1189.17,181.72 1193.64,181.72 1198.11,181.72 1202.58,181.72 1207.06,181.72 1211.53,181.72 1216.00,181.72" fill="none" stroke="#2458d3" stroke-width="1.8" stroke-linejoin="round" stroke-linecap="round" stroke-dasharray="8 5" />
<rect x="40.0" y="370.0" width="1200.0" height="250.0" fill="#fbfbfd" stroke="#d7dbe5" stroke-width="1.0" rx="8.0" />
<text x="56.0" y="394.0" fill="#1f2430" font-size="16" font-family="Segoe UI, Arial, sans-serif" font-weight="600" text-anchor="start">Output y[1]</text>
<text x="56.0" y="412.0" fill="#5d6574" font-size="12" font-family="Segoe UI, Arial, sans-serif" font-weight="400" text-anchor="start">Transient window 0-250 steps</text>
<line x1="98.0" y1="588.0" x2="1216.0" y2="588.0" stroke="#d7dbe5" stroke-width="1.0" stroke-dasharray="4 4" />
<text x="90.0" y="592.0" fill="#5d6574" font-size="11" font-family="Segoe UI, Arial, sans-serif" font-weight="400" text-anchor="end">315.062</text>
<line x1="98.0" y1="508.0" x2="1216.0" y2="508.0" stroke="#d7dbe5" stroke-width="1.0" stroke-dasharray="4 4" />
<text x="90.0" y="512.0" fill="#5d6574" font-size="11" font-family="Segoe UI, Arial, sans-serif" font-weight="400" text-anchor="end">322.311</text>
<line x1="98.0" y1="428.0" x2="1216.0" y2="428.0" stroke="#d7dbe5" stroke-width="1.0" stroke-dasharray="4 4" />
<text x="90.0" y="432.0" fill="#5d6574" font-size="11" font-family="Segoe UI, Arial, sans-serif" font-weight="400" text-anchor="end">329.561</text>
<line x1="98.0" y1="428.0" x2="98.0" y2="588.0" stroke="#d7dbe5" stroke-width="1.0" stroke-dasharray="4 4" />
<text x="98.0" y="606.0" fill="#5d6574" font-size="11" font-family="Segoe UI, Arial, sans-serif" font-weight="400" text-anchor="middle">0</text>
<line x1="657.0" y1="428.0" x2="657.0" y2="588.0" stroke="#d7dbe5" stroke-width="1.0" stroke-dasharray="4 4" />
<text x="657.0" y="606.0" fill="#5d6574" font-size="11" font-family="Segoe UI, Arial, sans-serif" font-weight="400" text-anchor="middle">125</text>
<line x1="1216.0" y1="428.0" x2="1216.0" y2="588.0" stroke="#d7dbe5" stroke-width="1.0" stroke-dasharray="4 4" />
<text x="1216.0" y="606.0" fill="#5d6574" font-size="11" font-family="Segoe UI, Arial, sans-serif" font-weight="400" text-anchor="middle">250</text>
<line x1="98.0" y1="428.0" x2="98.0" y2="588.0" stroke="#2d3440" stroke-width="1.2" />
<line x1="98.0" y1="588.0" x2="1216.0" y2="588.0" stroke="#2d3440" stroke-width="1.2" />
<text x="56.0" y="442.0" fill="#5d6574" font-size="12" font-family="Segoe UI, Arial, sans-serif" font-weight="400" text-anchor="start">physical</text>
<polyline points="98.00,489.36 102.47,489.36 106.94,489.36 111.42,489.36 115.89,489.36 120.36,489.36 124.83,489.36 129.30,489.36 133.78,489.36 138.25,489.36 142.72,489.36 147.19,489.36 151.66,489.36 156.14,489.36 160.61,489.36 165.08,489.36 169.55,489.36 174.02,489.36 178.50,489.36 182.97,489.36 187.44,489.36 191.91,489.36 196.38,489.36 200.86,489.36 205.33,489.36 209.80,489.36 214.27,489.36 218.74,489.36 223.22,489.36 227.69,489.36 232.16,489.36 236.63,489.36 241.10,489.36 245.58,489.36 250.05,489.36 254.52,489.36 258.99,489.36 263.46,489.36 267.94,489.36 272.41,489.36 276.88,489.36 281.35,489.36 285.82,489.36 290.30,489.36 294.77,489.36 299.24,489.36 303.71,489.36 308.18,489.36 312.66,489.36 317.13,489.36 321.60,489.36 326.07,489.36 330.54,489.36 335.02,489.36 339.49,489.36 343.96,489.36 348.43,489.36 352.90,489.36 357.38,489.36 361.85,489.36 366.32,489.36 370.79,489.36 375.26,489.36 379.74,489.36 384.21,489.36 388.68,489.36 393.15,489.36 397.62,489.36 402.10,489.36 406.57,489.36 411.04,489.36 415.51,489.36 419.98,489.36 424.46,489.36 428.93,489.36 433.40,489.36 437.87,489.36 442.34,489.36 446.82,489.36 451.29,489.36 455.76,489.36 460.23,489.36 464.70,489.36 469.18,489.36 473.65,489.36 478.12,489.36 482.59,489.36 487.06,489.36 491.54,489.36 496.01,489.36 500.48,489.36 504.95,489.36 509.42,489.36 513.90,489.36 518.37,489.36 522.84,489.36 527.31,489.36 531.78,489.36 536.26,489.36 540.73,489.36 545.20,489.36 549.67,489.36 554.14,489.36 558.62,489.36 563.09,489.36 567.56,489.36 572.03,489.36 576.50,489.36 580.98,489.36 585.45,489.36 589.92,489.36 594.39,489.36 598.86,489.36 603.34,489.36 607.81,489.36 612.28,489.36 616.75,489.36 621.22,489.36 625.70,489.36 630.17,489.36 634.64,489.36 639.11,489.36 643.58,489.36 648.06,489.36 652.53,489.36 657.00,489.36 661.47,489.36 665.94,489.36 670.42,489.36 674.89,489.36 679.36,489.36 683.83,489.36 688.30,489.36 692.78,489.36 697.25,489.36 701.72,489.36 706.19,489.36 710.66,489.36 715.14,489.36 719.61,489.36 724.08,489.36 728.55,489.36 733.02,489.36 737.50,489.36 741.97,489.36 746.44,489.36 750.91,489.36 755.38,489.36 759.86,489.36 764.33,489.36 768.80,489.36 773.27,489.36 777.74,489.36 782.22,489.36 786.69,489.36 791.16,489.36 795.63,489.36 800.10,489.36 804.58,489.36 809.05,489.36 813.52,489.36 817.99,489.36 822.46,489.36 826.94,489.36 831.41,489.36 835.88,489.36 840.35,489.36 844.82,489.36 849.30,489.36 853.77,489.36 858.24,489.36 862.71,489.36 867.18,489.36 871.66,489.36 876.13,489.36 880.60,489.36 885.07,489.36 889.54,489.36 894.02,489.36 898.49,489.36 902.96,489.36 907.43,489.36 911.90,489.36 916.38,489.36 920.85,489.36 925.32,489.36 929.79,489.36 934.26,489.36 938.74,489.36 943.21,489.36 947.68,489.36 952.15,489.36 956.62,489.36 961.10,489.36 965.57,489.36 970.04,489.36 974.51,489.36 978.98,489.36 983.46,489.36 987.93,489.36 992.40,489.36 996.87,489.36 1001.34,489.36 1005.82,489.36 1010.29,489.36 1014.76,489.36 1019.23,489.36 1023.70,489.36 1028.18,489.36 1032.65,489.36 1037.12,489.36 1041.59,489.36 1046.06,489.36 1050.54,489.36 1055.01,489.36 1059.48,489.36 1063.95,489.36 1068.42,489.36 1072.90,489.36 1077.37,489.36 1081.84,489.36 1086.31,489.36 1090.78,489.36 1095.26,489.36 1099.73,489.36 1104.20,489.36 1108.67,489.36 1113.14,489.36 1117.62,489.36 1122.09,489.36 1126.56,489.36 1131.03,489.36 1135.50,489.36 1139.98,489.36 1144.45,489.36 1148.92,489.36 1153.39,489.36 1157.86,489.36 1162.34,489.36 1166.81,489.36 1171.28,489.36 1175.75,489.36 1180.22,489.36 1184.70,489.36 1189.17,489.36 1193.64,489.36 1198.11,489.36 1202.58,489.36 1207.06,489.36 1211.53,489.36 1216.00,489.36" fill="none" stroke="#2d3440" stroke-width="1.6" stroke-linejoin="round" stroke-linecap="round" stroke-dasharray="4 4" />
<polyline points="98.00,493.73 102.47,492.59 106.94,491.30 111.42,489.90 115.89,488.43 120.36,486.93 124.83,485.44 129.30,483.96 133.78,482.53 138.25,481.15 142.72,479.84 147.19,478.62 151.66,477.47 156.14,476.42 160.61,475.47 165.08,474.61 169.55,473.84 174.02,473.18 178.50,472.60 182.97,472.12 187.44,471.73 191.91,471.42 196.38,471.19 200.86,471.04 205.33,470.96 209.80,470.95 214.27,471.00 218.74,471.10 223.22,471.25 227.69,471.45 232.16,471.69 236.63,471.96 241.10,472.26 245.58,472.58 250.05,472.92 254.52,473.28 258.99,473.65 263.46,474.02 267.94,474.40 272.41,474.78 276.88,475.16 281.35,475.53 285.82,475.89 290.30,476.25 294.77,476.59 299.24,476.93 303.71,477.25 308.18,477.56 312.66,477.86 317.13,478.14 321.60,478.42 326.07,478.68 330.54,478.92 335.02,479.16 339.49,479.38 343.96,479.60 348.43,479.80 352.90,480.00 357.38,480.37 361.85,480.97 366.32,481.59 370.79,482.21 375.26,482.81 379.74,483.38 384.21,483.93 388.68,484.43 393.15,484.88 397.62,485.29 402.10,485.65 406.57,485.96 411.04,486.22 415.51,486.44 419.98,486.61 424.46,486.75 428.93,486.85 433.40,486.91 437.87,486.94 442.34,487.67 446.82,489.66 451.29,491.69 455.76,493.68 460.23,495.59 464.70,497.36 469.18,498.96 473.65,500.36 478.12,501.55 482.59,502.52 487.06,503.26 491.54,503.78 496.01,504.09 500.48,504.19 504.95,504.11 509.42,504.01 513.90,503.88 518.37,503.74 522.84,503.48 527.31,503.09 531.78,502.59 536.26,502.00 540.73,501.34 545.20,500.61 549.67,499.83 554.14,499.02 558.62,498.19 563.09,497.35 567.56,496.50 572.03,495.67 576.50,494.85 580.98,494.06 585.45,493.30 589.92,492.58 594.39,491.89 598.86,491.25 603.34,490.65 607.81,490.09 612.28,489.58 616.75,489.12 621.22,488.70 625.70,488.32 630.17,487.99 634.64,487.58 639.11,487.23 643.58,486.68 648.06,485.97 652.53,485.15 657.00,484.26 661.47,483.34 665.94,482.39 670.42,481.46 674.89,480.54 679.36,479.65 683.83,478.81 688.30,478.01 692.78,477.26 697.25,476.57 701.72,475.94 706.19,475.36 710.66,474.83 715.14,474.37 719.61,473.95 724.08,473.59 728.55,473.28 733.02,473.01 737.50,472.79 741.97,472.61 746.44,472.14 750.91,471.67 755.38,470.47 759.86,469.25 764.33,468.05 768.80,466.91 773.27,465.84 777.74,464.87 782.22,464.00 786.69,463.25 791.16,462.62 795.63,462.11 800.10,461.72 804.58,461.46 809.05,461.31 813.52,461.28 817.99,461.34 822.46,461.44 826.94,464.48 831.41,468.32 835.88,472.81 840.35,477.75 844.82,482.93 849.30,488.16 853.77,493.26 858.24,498.05 862.71,502.43 867.18,506.28 871.66,509.56 876.13,512.22 880.60,514.26 885.07,515.70 889.54,516.57 894.02,516.90 898.49,516.76 902.96,516.53 907.43,516.24 911.90,515.92 916.38,512.82 920.85,509.62 925.32,506.40 929.79,503.24 934.26,500.17 938.74,497.25 943.21,494.48 947.68,491.90 952.15,489.52 956.62,487.35 961.10,485.38 965.57,483.62 970.04,482.06 974.51,480.70 978.98,479.53 983.46,478.55 987.93,477.73 992.40,477.00 996.87,476.36 1001.34,475.79 1005.82,475.28 1010.29,476.29 1014.76,476.84 1019.23,477.02 1023.70,476.87 1028.18,476.46 1032.65,475.83 1037.12,475.02 1041.59,474.07 1046.06,473.01 1050.54,471.85 1055.01,470.63 1059.48,469.36 1063.95,468.06 1068.42,466.73 1072.90,465.40 1077.37,464.07 1081.84,462.74 1086.31,461.44 1090.78,460.17 1095.26,458.92 1099.73,457.72 1104.20,456.56 1108.67,455.45 1113.14,454.39 1117.62,453.39 1122.09,452.45 1126.56,451.57 1131.03,450.76 1135.50,450.02 1139.98,449.35 1144.45,448.76 1148.92,448.24 1153.39,447.80 1157.86,447.43 1162.34,447.14 1166.81,446.93 1171.28,446.80 1175.75,446.74 1180.22,446.75 1184.70,446.84 1189.17,446.99 1193.64,447.22 1198.11,447.50 1202.58,447.85 1207.06,448.26 1211.53,448.71 1216.00,449.22" fill="none" stroke="#bf1e2d" stroke-width="2.2" stroke-linejoin="round" stroke-linecap="round" />
<polyline points="98.00,492.30 102.47,492.30 106.94,484.67 111.42,477.50 115.89,472.16 120.36,468.48 124.83,465.58 129.30,463.59 133.78,462.29 138.25,461.53 142.72,460.73 147.19,460.29 151.66,460.16 156.14,460.28 160.61,460.63 165.08,461.16 169.55,461.84 174.02,462.66 178.50,463.57 182.97,464.57 187.44,465.63 191.91,466.74 196.38,467.88 200.86,469.04 205.33,470.21 209.80,471.37 214.27,472.51 218.74,473.63 223.22,474.72 227.69,475.77 232.16,476.78 236.63,477.73 241.10,478.63 245.58,479.47 250.05,480.25 254.52,480.97 258.99,481.63 263.46,482.22 267.94,482.76 272.41,483.24 276.88,483.66 281.35,484.03 285.82,484.35 290.30,484.62 294.77,484.85 299.24,485.04 303.71,485.20 308.18,485.33 312.66,485.43 317.13,485.52 321.60,485.58 326.07,485.64 330.54,485.68 335.02,485.71 339.49,485.74 343.96,485.77 348.43,485.79 352.90,485.82 357.38,485.85 361.85,487.12 366.32,489.80 370.79,491.95 375.26,493.35 379.74,494.16 384.21,494.52 388.68,494.57 393.15,494.39 397.62,494.05 402.10,493.59 406.57,493.04 411.04,492.45 415.51,491.82 419.98,491.18 424.46,490.55 428.93,489.94 433.40,489.36 437.87,488.83 442.34,488.34 446.82,492.63 451.29,504.52 455.76,513.65 460.23,519.59 464.70,522.97 469.18,524.57 473.65,524.70 478.12,523.77 482.59,522.04 487.06,519.71 491.54,516.93 496.01,513.85 500.48,510.58 504.95,507.22 509.42,503.86 513.90,501.53 518.37,500.07 522.84,499.19 527.31,497.79 531.78,495.91 536.26,493.80 540.73,491.63 545.20,489.56 549.67,487.66 554.14,485.99 558.62,484.56 563.09,483.38 567.56,482.43 572.03,481.71 576.50,481.19 580.98,480.85 585.45,480.68 589.92,480.66 594.39,480.77 598.86,480.98 603.34,481.29 607.81,481.63 612.28,481.93 616.75,482.30 621.22,482.71 625.70,483.16 630.17,483.64 634.64,484.13 639.11,483.93 643.58,484.10 648.06,482.71 652.53,480.22 657.00,477.47 661.47,474.90 665.94,472.70 670.42,470.92 674.89,469.55 679.36,468.54 683.83,467.85 688.30,467.41 692.78,467.20 697.25,467.16 701.72,467.27 706.19,467.49 710.66,467.81 715.14,468.20 719.61,468.64 724.08,469.13 728.55,469.65 733.02,470.18 737.50,470.72 741.97,471.27 746.44,471.81 750.91,470.09 755.38,468.53 759.86,462.40 764.33,457.24 768.80,453.84 773.27,451.92 777.74,451.05 782.22,450.94 786.69,451.38 791.16,452.21 795.63,453.35 800.10,454.72 804.58,456.28 809.05,457.99 813.52,459.79 817.99,461.68 822.46,463.49 826.94,464.93 831.41,485.57 835.88,507.58 840.35,526.65 844.82,541.98 849.30,555.56 853.77,565.99 858.24,572.92 862.71,576.49 867.18,576.97 871.66,574.72 876.13,570.21 880.60,563.92 885.07,556.33 889.54,547.89 894.02,538.99 898.49,529.97 902.96,521.09 907.43,514.88 911.90,510.96 916.38,508.57 920.85,488.06 925.32,471.22 929.79,460.58 934.26,454.68 938.74,451.36 943.21,449.69 947.68,448.74 952.15,448.69 956.62,449.29 961.10,450.38 965.57,451.84 970.04,453.58 974.51,455.52 978.98,457.60 983.46,459.75 987.93,461.96 992.40,464.17 996.87,465.92 1001.34,467.24 1005.82,468.24 1010.29,469.02 1014.76,480.06 1019.23,485.71 1023.70,485.91 1028.18,482.97 1032.65,478.67 1037.12,474.04 1041.59,469.56 1046.06,465.45 1050.54,461.75 1055.01,458.46 1059.48,455.55 1063.95,452.97 1068.42,450.70 1072.90,448.70 1077.37,446.94 1081.84,445.39 1086.31,444.05 1090.78,442.89 1095.26,441.89 1099.73,441.06 1104.20,440.38 1108.67,439.84 1113.14,439.44 1117.62,439.18 1122.09,439.04 1126.56,439.03 1131.03,439.15 1135.50,439.39 1139.98,439.74 1144.45,440.21 1148.92,440.79 1153.39,441.47 1157.86,442.25 1162.34,443.13 1166.81,444.09 1171.28,445.13 1175.75,446.25 1180.22,447.43 1184.70,448.67 1189.17,449.95 1193.64,451.27 1198.11,452.62 1202.58,454.00 1207.06,455.38 1211.53,456.76 1216.00,458.14" fill="none" stroke="#bf1e2d" stroke-width="1.8" stroke-linejoin="round" stroke-linecap="round" stroke-dasharray="8 5" />
<polyline points="98.00,493.73 102.47,493.26 106.94,492.67 111.42,491.97 115.89,491.18 120.36,490.32 124.83,489.41 129.30,488.47 133.78,487.50 138.25,486.52 142.72,485.55 147.19,484.59 151.66,483.66 156.14,482.76 160.61,481.89 165.08,481.08 169.55,480.31 174.02,479.59 178.50,478.93 182.97,478.33 187.44,477.79 191.91,477.30 196.38,476.87 200.86,476.50 205.33,476.18 209.80,475.92 214.27,475.71 218.74,475.56 223.22,475.44 227.69,475.37 232.16,475.35 236.63,475.36 241.10,475.40 245.58,475.48 250.05,475.59 254.52,475.72 258.99,475.88 263.46,476.05 267.94,476.25 272.41,476.45 276.88,476.67 281.35,476.90 285.82,477.13 290.30,477.37 294.77,477.62 299.24,477.86 303.71,478.11 308.18,478.35 312.66,478.59 317.13,478.83 321.60,479.06 326.07,479.29 330.54,479.52 335.02,479.74 339.49,479.95 343.96,480.16 348.43,480.36 352.90,480.55 357.38,480.74 361.85,480.92 366.32,481.10 370.79,481.27 375.26,481.44 379.74,481.60 384.21,481.76 388.68,481.91 393.15,482.06 397.62,482.20 402.10,482.34 406.57,482.48 411.04,482.62 415.51,482.75 419.98,482.88 424.46,483.01 428.93,483.13 433.40,483.25 437.87,483.38 442.34,483.50 446.82,483.61 451.29,483.73 455.76,483.85 460.23,483.96 464.70,484.07 469.18,484.18 473.65,484.29 478.12,484.40 482.59,484.51 487.06,484.62 491.54,484.72 496.01,484.82 500.48,484.93 504.95,485.03 509.42,485.13 513.90,485.22 518.37,485.32 522.84,485.41 527.31,485.51 531.78,485.60 536.26,485.69 540.73,485.77 545.20,485.86 549.67,485.94 554.14,486.03 558.62,486.11 563.09,486.19 567.56,486.26 572.03,486.34 576.50,486.41 580.98,486.48 585.45,486.55 589.92,486.62 594.39,486.68 598.86,486.75 603.34,486.81 607.81,486.87 612.28,486.93 616.75,486.99 621.22,487.04 625.70,487.10 630.17,487.15 634.64,487.21 639.11,487.26 643.58,487.31 648.06,487.36 652.53,487.40 657.00,487.45 661.47,487.50 665.94,487.54 670.42,487.58 674.89,487.63 679.36,487.67 683.83,487.71 688.30,487.75 692.78,487.79 697.25,487.82 701.72,487.86 706.19,487.90 710.66,487.93 715.14,487.96 719.61,488.00 724.08,488.03 728.55,488.06 733.02,488.09 737.50,488.12 741.97,488.15 746.44,488.18 750.91,488.21 755.38,488.24 759.86,488.26 764.33,488.29 768.80,488.31 773.27,488.34 777.74,488.36 782.22,488.39 786.69,488.41 791.16,488.43 795.63,488.45 800.10,488.48 804.58,488.50 809.05,488.52 813.52,488.54 817.99,488.56 822.46,488.58 826.94,488.59 831.41,488.61 835.88,488.63 840.35,488.65 844.82,488.66 849.30,488.68 853.77,488.70 858.24,488.71 862.71,488.73 867.18,488.74 871.66,488.76 876.13,488.77 880.60,488.79 885.07,488.80 889.54,488.81 894.02,488.83 898.49,488.84 902.96,488.85 907.43,488.86 911.90,488.88 916.38,488.89 920.85,488.90 925.32,488.91 929.79,488.92 934.26,488.93 938.74,488.94 943.21,488.95 947.68,488.96 952.15,488.97 956.62,488.98 961.10,488.99 965.57,489.00 970.04,489.01 974.51,489.01 978.98,489.02 983.46,489.03 987.93,489.04 992.40,489.05 996.87,489.05 1001.34,489.06 1005.82,489.07 1010.29,489.07 1014.76,489.08 1019.23,489.09 1023.70,489.09 1028.18,489.10 1032.65,489.11 1037.12,489.11 1041.59,489.12 1046.06,489.12 1050.54,489.13 1055.01,489.14 1059.48,489.14 1063.95,489.15 1068.42,489.15 1072.90,489.16 1077.37,489.16 1081.84,489.17 1086.31,489.17 1090.78,489.18 1095.26,489.18 1099.73,489.22 1104.20,489.26 1108.67,489.31 1113.14,489.36 1117.62,489.40 1122.09,489.44 1126.56,489.48 1131.03,489.52 1135.50,489.55 1139.98,489.58 1144.45,489.61 1148.92,489.29 1153.39,488.91 1157.86,488.60 1162.34,488.37 1166.81,488.19 1171.28,488.06 1175.75,487.97 1180.22,487.93 1184.70,487.93 1189.17,487.95 1193.64,488.01 1198.11,488.32 1202.58,489.63 1207.06,490.94 1211.53,492.22 1216.00,493.45" fill="none" stroke="#c96b17" stroke-width="2.2" stroke-linejoin="round" stroke-linecap="round" />
<polyline points="98.00,492.30 102.47,492.30 106.94,489.18 111.42,485.76 115.89,482.73 120.36,480.19 124.83,478.10 129.30,476.39 133.78,474.80 138.25,473.42 142.72,472.31 147.19,471.45 151.66,470.83 156.14,470.42 160.61,470.21 165.08,470.01 169.55,469.83 174.02,469.79 178.50,469.88 182.97,470.08 187.44,470.38 191.91,470.77 196.38,471.24 200.86,471.76 205.33,472.34 209.80,472.96 214.27,473.61 218.74,474.28 223.22,474.96 227.69,475.66 232.16,476.35 236.63,477.04 241.10,477.72 245.58,478.38 250.05,479.02 254.52,479.64 258.99,480.23 263.46,480.80 267.94,481.33 272.41,481.84 276.88,482.31 281.35,482.75 285.82,483.16 290.30,483.54 294.77,483.88 299.24,484.20 303.71,484.48 308.18,484.75 312.66,484.98 317.13,485.19 321.60,485.38 326.07,485.55 330.54,485.71 335.02,485.85 339.49,485.97 343.96,486.08 348.43,486.19 352.90,486.28 357.38,486.37 361.85,486.45 366.32,486.53 370.79,486.60 375.26,486.67 379.74,486.74 384.21,486.81 388.68,486.89 393.15,486.96 397.62,487.03 402.10,487.10 406.57,487.18 411.04,487.26 415.51,487.34 419.98,487.42 424.46,487.50 428.93,487.58 433.40,487.67 437.87,487.75 442.34,487.84 446.82,487.93 451.29,488.02 455.76,488.11 460.23,488.20 464.70,488.29 469.18,488.37 473.65,488.46 478.12,488.55 482.59,488.63 487.06,488.71 491.54,488.79 496.01,488.86 500.48,488.93 504.95,489.00 509.42,489.07 513.90,489.13 518.37,489.20 522.84,489.25 527.31,489.31 531.78,489.36 536.26,489.41 540.73,489.46 545.20,489.50 549.67,489.54 554.14,489.58 558.62,489.62 563.09,489.65 567.56,489.69 572.03,489.72 576.50,489.74 580.98,489.76 585.45,489.77 589.92,489.79 594.39,489.80 598.86,489.81 603.34,489.83 607.81,489.84 612.28,489.85 616.75,489.86 621.22,489.87 625.70,489.88 630.17,489.89 634.64,489.90 639.11,489.91 643.58,489.91 648.06,489.92 652.53,489.92 657.00,489.93 661.47,489.93 665.94,489.93 670.42,489.94 674.89,489.94 679.36,489.94 683.83,489.94 688.30,489.94 692.78,489.93 697.25,489.93 701.72,489.93 706.19,489.93 710.66,489.93 715.14,489.92 719.61,489.92 724.08,489.91 728.55,489.91 733.02,489.91 737.50,489.90 741.97,489.90 746.44,489.89 750.91,489.89 755.38,489.88 759.86,489.88 764.33,489.87 768.80,489.86 773.27,489.86 777.74,489.85 782.22,489.85 786.69,489.84 791.16,489.83 795.63,489.83 800.10,489.82 804.58,489.82 809.05,489.81 813.52,489.80 817.99,489.80 822.46,489.79 826.94,489.79 831.41,489.78 835.88,489.77 840.35,489.77 844.82,489.76 849.30,489.75 853.77,489.75 858.24,489.74 862.71,489.74 867.18,489.73 871.66,489.72 876.13,489.72 880.60,489.71 885.07,489.71 889.54,489.70 894.02,489.70 898.49,489.69 902.96,489.68 907.43,489.68 911.90,489.67 916.38,489.67 920.85,489.66 925.32,489.66 929.79,489.65 934.26,489.65 938.74,489.64 943.21,489.64 947.68,489.63 952.15,489.63 956.62,489.62 961.10,489.62 965.57,489.61 970.04,489.61 974.51,489.60 978.98,489.60 983.46,489.59 987.93,489.59 992.40,489.58 996.87,489.58 1001.34,489.58 1005.82,489.57 1010.29,489.57 1014.76,489.56 1019.23,489.56 1023.70,489.56 1028.18,489.55 1032.65,489.55 1037.12,489.54 1041.59,489.54 1046.06,489.54 1050.54,489.53 1055.01,489.53 1059.48,489.53 1063.95,489.52 1068.42,489.52 1072.90,489.52 1077.37,489.51 1081.84,489.51 1086.31,489.51 1090.78,489.51 1095.26,489.36 1099.73,489.36 1104.20,489.36 1108.67,489.36 1113.14,489.53 1117.62,489.64 1122.09,489.70 1126.56,489.73 1131.03,489.73 1135.50,489.72 1139.98,489.70 1144.45,489.66 1148.92,489.64 1153.39,487.33 1157.86,485.04 1162.34,484.09 1166.81,484.13 1171.28,484.66 1175.75,485.37 1180.22,486.15 1184.70,486.91 1189.17,487.64 1193.64,488.32 1198.11,488.96 1202.58,491.03 1207.06,499.22 1211.53,505.45 1216.00,509.15" fill="none" stroke="#c96b17" stroke-width="1.8" stroke-linejoin="round" stroke-linecap="round" stroke-dasharray="8 5" />
<polyline points="98.00,493.73 102.47,493.38 106.94,492.90 111.42,492.32 115.89,491.64 120.36,490.89 124.83,490.08 129.30,489.23 133.78,488.34 138.25,487.50 142.72,486.64 147.19,485.79 151.66,484.94 156.14,484.12 160.61,483.31 165.08,482.53 169.55,481.79 174.02,481.08 178.50,480.42 182.97,479.80 187.44,479.24 191.91,478.72 196.38,478.25 200.86,477.82 205.33,477.45 209.80,477.13 214.27,476.86 218.74,476.63 223.22,476.45 227.69,476.31 232.16,476.21 236.63,476.15 241.10,476.12 245.58,476.13 250.05,476.17 254.52,476.23 258.99,476.32 263.46,476.44 267.94,476.57 272.41,476.72 276.88,476.89 281.35,477.07 285.82,477.27 290.30,477.47 294.77,477.68 299.24,477.89 303.71,478.11 308.18,478.33 312.66,478.55 317.13,478.77 321.60,478.99 326.07,479.20 330.54,479.42 335.02,479.63 339.49,479.84 343.96,480.04 348.43,480.24 352.90,480.43 357.38,480.62 361.85,480.81 366.32,480.98 370.79,481.16 375.26,481.33 379.74,481.49 384.21,481.65 388.68,481.81 393.15,481.96 397.62,482.11 402.10,482.26 406.57,482.40 411.04,482.54 415.51,482.67 419.98,482.80 424.46,482.93 428.93,483.06 433.40,483.19 437.87,483.31 442.34,483.43 446.82,483.55 451.29,483.67 455.76,483.79 460.23,483.90 464.70,484.01 469.18,484.12 473.65,484.23 478.12,484.34 482.59,484.45 487.06,484.56 491.54,484.66 496.01,484.76 500.48,484.86 504.95,484.96 509.42,485.06 513.90,485.16 518.37,485.26 522.84,485.35 527.31,485.44 531.78,485.53 536.26,485.62 540.73,485.71 545.20,485.80 549.67,485.88 554.14,485.96 558.62,486.04 563.09,486.12 567.56,486.20 572.03,486.28 576.50,486.35 580.98,486.42 585.45,487.82 589.92,489.26 594.39,490.71 598.86,492.13 603.34,493.47 607.81,494.72 612.28,495.84 616.75,496.84 621.22,497.69 625.70,498.39 630.17,498.94 634.64,499.35 639.11,499.61 643.58,499.74 648.06,499.75 652.53,499.65 657.00,499.45 661.47,499.16 665.94,498.79 670.42,498.36 674.89,497.89 679.36,497.37 683.83,496.82 688.30,496.25 692.78,495.68 697.25,495.10 701.72,494.53 706.19,493.97 710.66,493.42 715.14,492.90 719.61,492.40 724.08,491.93 728.55,491.49 733.02,491.08 737.50,490.70 741.97,490.35 746.44,490.04 750.91,489.75 755.38,489.50 759.86,489.28 764.33,489.09 768.80,488.92 773.27,488.78 777.74,488.67 782.22,488.58 786.69,488.51 791.16,488.45 795.63,488.42 800.10,488.40 804.58,488.39 809.05,488.40 813.52,488.41 817.99,488.44 822.46,488.47 826.94,488.50 831.41,488.55 835.88,488.59 840.35,488.64 844.82,488.69 849.30,488.74 853.77,488.79 858.24,488.84 862.71,488.89 867.18,488.93 871.66,488.98 876.13,489.02 880.60,489.06 885.07,489.09 889.54,489.13 894.02,489.16 898.49,489.19 902.96,489.21 907.43,489.23 911.90,489.25 916.38,489.27 920.85,489.28 925.32,489.29 929.79,489.30 934.26,489.31 938.74,489.31 943.21,489.32 947.68,489.32 952.15,489.32 956.62,489.32 961.10,489.32 965.57,489.32 970.04,489.32 974.51,489.31 978.98,489.31 983.46,489.31 987.93,489.30 992.40,489.30 996.87,489.30 1001.34,489.30 1005.82,489.29 1010.29,489.29 1014.76,489.29 1019.23,489.29 1023.70,489.29 1028.18,489.28 1032.65,489.28 1037.12,489.28 1041.59,489.28 1046.06,489.28 1050.54,489.28 1055.01,489.28 1059.48,489.28 1063.95,489.29 1068.42,489.29 1072.90,489.29 1077.37,489.29 1081.84,489.29 1086.31,489.30 1090.78,489.30 1095.26,489.30 1099.73,489.30 1104.20,489.31 1108.67,489.31 1113.14,489.31 1117.62,489.31 1122.09,489.32 1126.56,489.32 1131.03,489.32 1135.50,489.32 1139.98,489.33 1144.45,489.33 1148.92,489.33 1153.39,489.33 1157.86,489.34 1162.34,489.34 1166.81,489.34 1171.28,489.34 1175.75,489.34 1180.22,489.35 1184.70,489.35 1189.17,489.35 1193.64,489.35 1198.11,489.35 1202.58,489.35 1207.06,489.35 1211.53,489.35 1216.00,489.36" fill="none" stroke="#2a7f62" stroke-width="2.2" stroke-linejoin="round" stroke-linecap="round" />
<polyline points="98.00,492.30 102.47,492.30 106.94,489.93 111.42,487.16 115.89,484.53 120.36,482.19 124.83,480.16 129.30,478.42 133.78,476.96 138.25,475.46 142.72,474.66 147.19,473.99 151.66,473.39 156.14,472.87 160.61,472.47 165.08,472.22 169.55,472.10 174.02,471.92 178.50,471.78 182.97,471.75 187.44,471.83 191.91,472.00 196.38,472.25 200.86,472.58 205.33,472.97 209.80,473.41 214.27,473.90 218.74,474.42 223.22,474.97 227.69,475.54 232.16,476.13 236.63,476.72 241.10,477.32 245.58,477.91 250.05,478.49 254.52,479.06 258.99,479.62 263.46,480.16 267.94,480.68 272.41,481.18 276.88,481.65 281.35,482.10 285.82,482.52 290.30,482.92 294.77,483.29 299.24,483.63 303.71,483.95 308.18,484.25 312.66,484.52 317.13,484.77 321.60,484.99 326.07,485.20 330.54,485.39 335.02,485.56 339.49,485.72 343.96,485.86 348.43,485.99 352.90,486.11 357.38,486.22 361.85,486.33 366.32,486.43 370.79,486.52 375.26,486.61 379.74,486.69 384.21,486.77 388.68,486.85 393.15,486.93 397.62,487.01 402.10,487.09 406.57,487.16 411.04,487.24 415.51,487.32 419.98,487.40 424.46,487.48 428.93,487.56 433.40,487.65 437.87,487.73 442.34,487.81 446.82,487.90 451.29,487.98 455.76,488.07 460.23,488.15 464.70,488.24 469.18,488.32 473.65,488.41 478.12,488.49 482.59,488.57 487.06,488.65 491.54,488.73 496.01,488.80 500.48,488.87 504.95,488.94 509.42,489.01 513.90,489.07 518.37,489.14 522.84,489.19 527.31,489.25 531.78,489.30 536.26,489.35 540.73,489.40 545.20,489.45 549.67,489.49 554.14,489.53 558.62,489.57 563.09,489.61 567.56,489.64 572.03,489.68 576.50,489.71 580.98,489.73 585.45,489.76 589.92,498.47 594.39,505.81 598.86,510.42 603.34,512.80 607.81,513.61 612.28,513.67 616.75,513.53 621.22,512.79 625.70,511.59 630.17,510.04 634.64,508.23 639.11,506.24 643.58,504.13 648.06,501.97 652.53,499.81 657.00,497.69 661.47,495.64 665.94,493.71 670.42,491.89 674.89,490.23 679.36,488.74 683.83,487.45 688.30,486.35 692.78,485.45 697.25,484.74 701.72,484.19 706.19,483.79 710.66,483.54 715.14,483.41 719.61,483.39 724.08,483.47 728.55,483.62 733.02,483.85 737.50,484.13 741.97,484.46 746.44,484.82 750.91,485.20 755.38,485.60 759.86,486.01 764.33,486.42 768.80,486.82 773.27,487.22 777.74,487.60 782.22,487.97 786.69,488.31 791.16,488.64 795.63,488.94 800.10,489.36 804.58,489.36 809.05,489.36 813.52,489.36 817.99,489.36 822.46,489.36 826.94,489.36 831.41,489.36 835.88,489.49 840.35,489.60 844.82,489.69 849.30,489.76 853.77,489.81 858.24,489.85 862.71,489.88 867.18,489.89 871.66,489.89 876.13,489.88 880.60,489.86 885.07,489.84 889.54,489.81 894.02,489.78 898.49,489.74 902.96,489.70 907.43,489.66 911.90,489.63 916.38,489.59 920.85,489.55 925.32,489.51 929.79,489.47 934.26,489.44 938.74,489.41 943.21,489.38 947.68,489.35 952.15,489.33 956.62,489.31 961.10,489.29 965.57,489.27 970.04,489.26 974.51,489.25 978.98,489.24 983.46,489.24 987.93,489.23 992.40,489.23 996.87,489.23 1001.34,489.23 1005.82,489.24 1010.29,489.24 1014.76,489.25 1019.23,489.25 1023.70,489.26 1028.18,489.27 1032.65,489.36 1037.12,489.36 1041.59,489.36 1046.06,489.36 1050.54,489.36 1055.01,489.36 1059.48,489.36 1063.95,489.36 1068.42,489.36 1072.90,489.36 1077.37,489.36 1081.84,489.36 1086.31,489.36 1090.78,489.36 1095.26,489.36 1099.73,489.36 1104.20,489.36 1108.67,489.36 1113.14,489.36 1117.62,489.36 1122.09,489.36 1126.56,489.36 1131.03,489.36 1135.50,489.36 1139.98,489.36 1144.45,489.36 1148.92,489.36 1153.39,489.36 1157.86,489.36 1162.34,489.36 1166.81,489.36 1171.28,489.36 1175.75,489.36 1180.22,489.36 1184.70,489.36 1189.17,489.36 1193.64,489.36 1198.11,489.36 1202.58,489.36 1207.06,489.36 1211.53,489.36 1216.00,489.36" fill="none" stroke="#2a7f62" stroke-width="1.8" stroke-linejoin="round" stroke-linecap="round" stroke-dasharray="8 5" />
<polyline points="98.00,493.73 102.47,493.49 106.94,493.13 111.42,492.67 115.89,492.11 120.36,491.47 124.83,490.76 129.30,489.99 133.78,489.18 138.25,488.34 142.72,487.48 147.19,486.61 151.66,485.74 156.14,484.89 160.61,484.05 165.08,483.24 169.55,482.46 174.02,481.72 178.50,481.02 182.97,480.36 187.44,479.76 191.91,479.20 196.38,478.70 200.86,478.25 205.33,477.85 209.80,477.50 214.27,477.20 218.74,476.95 223.22,476.75 227.69,476.59 232.16,476.47 236.63,476.40 241.10,476.37 245.58,476.37 250.05,476.40 254.52,476.46 258.99,476.55 263.46,476.66 267.94,476.80 272.41,476.95 276.88,477.12 281.35,477.31 285.82,477.50 290.30,477.71 294.77,477.92 299.24,478.14 303.71,478.37 308.18,478.59 312.66,478.82 317.13,479.04 321.60,479.27 326.07,479.49 330.54,479.71 335.02,479.92 339.49,480.13 343.96,480.34 348.43,480.54 352.90,480.73 357.38,480.92 361.85,481.11 366.32,481.29 370.79,481.46 375.26,481.63 379.74,481.79 384.21,481.95 388.68,482.10 393.15,482.25 397.62,482.40 402.10,482.54 406.57,482.67 411.04,482.81 415.51,482.94 419.98,483.07 424.46,483.19 428.93,483.31 433.40,483.43 437.87,483.55 442.34,483.67 446.82,483.78 451.29,483.89 455.76,484.00 460.23,484.11 464.70,484.22 469.18,484.33 473.65,484.43 478.12,484.54 482.59,484.64 487.06,484.74 491.54,484.84 496.01,484.94 500.48,485.03 504.95,485.13 509.42,485.22 513.90,485.32 518.37,485.41 522.84,485.50 527.31,485.59 531.78,485.67 536.26,485.76 540.73,485.84 545.20,485.93 549.67,486.01 554.14,486.09 558.62,486.16 563.09,486.24 567.56,486.31 572.03,486.38 576.50,486.45 580.98,486.52 585.45,486.58 589.92,486.65 594.39,486.70 598.86,486.76 603.34,486.82 607.81,486.88 612.28,486.93 616.75,486.98 621.22,487.04 625.70,487.09 630.17,487.14 634.64,487.19 639.11,487.24 643.58,487.28 648.06,487.33 652.53,487.38 657.00,487.42 661.47,487.47 665.94,487.51 670.42,487.55 674.89,487.59 679.36,487.63 683.83,487.67 688.30,487.71 692.78,487.75 697.25,487.79 701.72,487.82 706.19,487.86 710.66,487.89 715.14,487.93 719.61,487.96 724.08,487.99 728.55,488.02 733.02,488.06 737.50,488.09 741.97,488.11 746.44,488.14 750.91,488.17 755.38,488.20 759.86,488.22 764.33,488.25 768.80,488.28 773.27,488.30 777.74,488.32 782.22,488.35 786.69,488.37 791.16,488.39 795.63,488.42 800.10,488.44 804.58,488.46 809.05,488.48 813.52,488.50 817.99,488.52 822.46,488.54 826.94,488.55 831.41,488.57 835.88,488.59 840.35,488.61 844.82,488.63 849.30,488.64 853.77,488.66 858.24,488.67 862.71,488.69 867.18,488.71 871.66,488.72 876.13,488.73 880.60,488.75 885.07,488.76 889.54,488.78 894.02,488.79 898.49,488.80 902.96,488.82 907.43,488.83 911.90,488.84 916.38,488.85 920.85,488.86 925.32,488.88 929.79,488.89 934.26,488.90 938.74,488.91 943.21,488.92 947.68,488.93 952.15,488.94 956.62,488.95 961.10,488.96 965.57,488.97 970.04,488.98 974.51,488.98 978.98,488.99 983.46,489.00 987.93,489.01 992.40,489.02 996.87,489.03 1001.34,489.03 1005.82,489.04 1010.29,489.05 1014.76,489.06 1019.23,489.06 1023.70,489.07 1028.18,489.08 1032.65,489.08 1037.12,489.09 1041.59,489.10 1046.06,489.10 1050.54,489.11 1055.01,489.11 1059.48,489.12 1063.95,489.12 1068.42,489.13 1072.90,489.14 1077.37,489.14 1081.84,489.15 1086.31,489.15 1090.78,489.16 1095.26,489.16 1099.73,489.16 1104.20,489.17 1108.67,489.17 1113.14,489.18 1117.62,489.18 1122.09,489.19 1126.56,489.19 1131.03,489.19 1135.50,489.20 1139.98,489.20 1144.45,489.21 1148.92,489.21 1153.39,489.21 1157.86,489.22 1162.34,489.22 1166.81,489.22 1171.28,489.23 1175.75,489.23 1180.22,489.23 1184.70,489.24 1189.17,489.24 1193.64,489.24 1198.11,489.24 1202.58,489.25 1207.06,489.25 1211.53,489.25 1216.00,489.25" fill="none" stroke="#2458d3" stroke-width="2.2" stroke-linejoin="round" stroke-linecap="round" />
<polyline points="98.00,492.30 102.47,492.30 106.94,490.68 111.42,488.56 115.89,486.36 120.36,484.23 124.83,482.26 129.30,480.49 133.78,478.93 138.25,477.55 142.72,476.16 147.19,474.97 151.66,473.99 156.14,473.22 160.61,472.63 165.08,472.23 169.55,472.00 174.02,471.93 178.50,471.82 182.97,471.73 187.44,471.77 191.91,471.91 196.38,472.14 200.86,472.45 205.33,472.84 209.80,473.28 214.27,473.78 218.74,474.32 223.22,474.88 227.69,475.48 232.16,476.09 236.63,476.71 241.10,477.33 245.58,477.95 250.05,478.56 254.52,479.17 258.99,479.75 263.46,480.32 267.94,480.87 272.41,481.39 276.88,481.89 281.35,482.36 285.82,482.80 290.30,483.22 294.77,483.60 299.24,483.96 303.71,484.29 308.18,484.59 312.66,484.87 317.13,485.12 321.60,485.35 326.07,485.56 330.54,485.75 335.02,485.92 339.49,486.07 343.96,486.21 348.43,486.34 352.90,486.45 357.38,486.55 361.85,486.65 366.32,486.74 370.79,486.82 375.26,486.90 379.74,486.97 384.21,487.04 388.68,487.11 393.15,487.18 397.62,487.25 402.10,487.31 406.57,487.38 411.04,487.45 415.51,487.52 419.98,487.59 424.46,487.66 428.93,487.74 433.40,487.81 437.87,487.89 442.34,487.96 446.82,488.04 451.29,488.12 455.76,488.20 460.23,488.28 464.70,488.36 469.18,488.44 473.65,488.52 478.12,488.60 482.59,488.67 487.06,488.75 491.54,488.82 496.01,488.89 500.48,488.96 504.95,489.02 509.42,489.09 513.90,489.15 518.37,489.21 522.84,489.26 527.31,489.32 531.78,489.37 536.26,489.42 540.73,489.46 545.20,489.51 549.67,489.55 554.14,489.59 558.62,489.62 563.09,489.66 567.56,489.69 572.03,489.71 576.50,489.73 580.98,489.74 585.45,489.75 589.92,489.75 594.39,489.75 598.86,489.76 603.34,489.77 607.81,489.78 612.28,489.79 616.75,489.80 621.22,489.81 625.70,489.82 630.17,489.84 634.64,489.85 639.11,489.86 643.58,489.87 648.06,489.88 652.53,489.89 657.00,489.90 661.47,489.91 665.94,489.91 670.42,489.92 674.89,489.92 679.36,489.92 683.83,489.93 688.30,489.93 692.78,489.93 697.25,489.93 701.72,489.93 706.19,489.92 710.66,489.92 715.14,489.92 719.61,489.92 724.08,489.91 728.55,489.91 733.02,489.90 737.50,489.90 741.97,489.89 746.44,489.89 750.91,489.88 755.38,489.88 759.86,489.87 764.33,489.87 768.80,489.86 773.27,489.86 777.74,489.85 782.22,489.84 786.69,489.84 791.16,489.83 795.63,489.83 800.10,489.82 804.58,489.81 809.05,489.81 813.52,489.80 817.99,489.80 822.46,489.79 826.94,489.78 831.41,489.78 835.88,489.77 840.35,489.77 844.82,489.76 849.30,489.76 853.77,489.75 858.24,489.74 862.71,489.74 867.18,489.73 871.66,489.73 876.13,489.72 880.60,489.72 885.07,489.71 889.54,489.71 894.02,489.70 898.49,489.70 902.96,489.69 907.43,489.68 911.90,489.68 916.38,489.67 920.85,489.67 925.32,489.66 929.79,489.66 934.26,489.65 938.74,489.65 943.21,489.64 947.68,489.64 952.15,489.63 956.62,489.63 961.10,489.62 965.57,489.62 970.04,489.62 974.51,489.61 978.98,489.61 983.46,489.60 987.93,489.60 992.40,489.59 996.87,489.59 1001.34,489.58 1005.82,489.58 1010.29,489.58 1014.76,489.57 1019.23,489.57 1023.70,489.56 1028.18,489.56 1032.65,489.56 1037.12,489.55 1041.59,489.55 1046.06,489.55 1050.54,489.54 1055.01,489.54 1059.48,489.54 1063.95,489.53 1068.42,489.53 1072.90,489.53 1077.37,489.52 1081.84,489.52 1086.31,489.52 1090.78,489.51 1095.26,489.51 1099.73,489.51 1104.20,489.50 1108.67,489.50 1113.14,489.36 1117.62,489.36 1122.09,489.36 1126.56,489.36 1131.03,489.36 1135.50,489.36 1139.98,489.36 1144.45,489.36 1148.92,489.36 1153.39,489.36 1157.86,489.36 1162.34,489.36 1166.81,489.36 1171.28,489.36 1175.75,489.36 1180.22,489.36 1184.70,489.36 1189.17,489.36 1193.64,489.36 1198.11,489.36 1202.58,489.36 1207.06,489.36 1211.53,489.36 1216.00,489.36" fill="none" stroke="#2458d3" stroke-width="1.8" stroke-linejoin="round" stroke-linecap="round" stroke-dasharray="8 5" />
<line x1="54.0" y1="686.0" x2="82.0" y2="686.0" stroke="#2d3440" stroke-width="1.8" stroke-dasharray="4 4" />
<text x="92.0" y="690.0" fill="#1f2430" font-size="12" font-family="Segoe UI, Arial, sans-serif" font-weight="400" text-anchor="start">y_sp</text>
<line x1="156.0" y1="686.0" x2="184.0" y2="686.0" stroke="#2d3440" stroke-width="2.0" />
<text x="194.0" y="690.0" fill="#1f2430" font-size="12" font-family="Segoe UI, Arial, sans-serif" font-weight="400" text-anchor="start">solid = y</text>
<line x1="290.0" y1="686.0" x2="318.0" y2="686.0" stroke="#2d3440" stroke-width="2.0" stroke-dasharray="8 5" />
<text x="328.0" y="690.0" fill="#1f2430" font-size="12" font-family="Segoe UI, Arial, sans-serif" font-weight="400" text-anchor="start">dashed = y_s</text>
<line x1="470.0" y1="686.0" x2="498.0" y2="686.0" stroke="#bf1e2d" stroke-width="2.4" />
<text x="508.0" y="690.0" fill="#1f2430" font-size="12" font-family="Segoe UI, Arial, sans-serif" font-weight="400" text-anchor="start">rho=0.95</text>
<line x1="635.0" y1="686.0" x2="663.0" y2="686.0" stroke="#c96b17" stroke-width="2.4" />
<text x="673.0" y="690.0" fill="#1f2430" font-size="12" font-family="Segoe UI, Arial, sans-serif" font-weight="400" text-anchor="start">rho=0.98</text>
<line x1="800.0" y1="686.0" x2="828.0" y2="686.0" stroke="#2a7f62" stroke-width="2.4" />
<text x="838.0" y="690.0" fill="#1f2430" font-size="12" font-family="Segoe UI, Arial, sans-serif" font-weight="400" text-anchor="start">rho=0.985</text>
<line x1="965.0" y1="686.0" x2="993.0" y2="686.0" stroke="#2458d3" stroke-width="2.4" />
<text x="1003.0" y="690.0" fill="#1f2430" font-size="12" font-family="Segoe UI, Arial, sans-serif" font-weight="400" text-anchor="start">rho=0.99</text>
</svg>