<svg xmlns="http://www.w3.org/2000/svg" width="1280" height="760" viewBox="0 0 1280 760" role="img">
<rect x="0.0" y="0.0" width="1280.0" height="760.0" fill="#ffffff" stroke="none" stroke-width="1.0" rx="0.0" />
<text x="40.0" y="34.0" fill="#1f2430" font-size="22" font-family="Segoe UI, Arial, sans-serif" font-weight="600" text-anchor="start">Bounded hard: predicted Lyapunov decrement across rho</text>
<text x="40.0" y="56.0" fill="#5d6574" font-size="13" font-family="Segoe UI, Arial, sans-serif" font-weight="400" text-anchor="start">Each curve plots ΔV_pred = V_next_first - V_k. The expected pattern is negative during the transient and near zero in the tail.</text>
<rect x="40.0" y="88.0" width="1200.0" height="250.0" fill="#fbfbfd" stroke="#d7dbe5" stroke-width="1.0" rx="8.0" />
<text x="56.0" y="112.0" fill="#1f2430" font-size="16" font-family="Segoe UI, Arial, sans-serif" font-weight="600" text-anchor="start">Transient ΔV_pred</text>
<text x="56.0" y="130.0" fill="#5d6574" font-size="12" font-family="Segoe UI, Arial, sans-serif" font-weight="400" text-anchor="start">Steps 0-250</text>
<line x1="98.0" y1="306.0" x2="1216.0" y2="306.0" stroke="#d7dbe5" stroke-width="1.0" stroke-dasharray="4 4" />
<text x="90.0" y="310.0" fill="#5d6574" font-size="11" font-family="Segoe UI, Arial, sans-serif" font-weight="400" text-anchor="end">-117.331</text>
<line x1="98.0" y1="226.0" x2="1216.0" y2="226.0" stroke="#d7dbe5" stroke-width="1.0" stroke-dasharray="4 4" />
<text x="90.0" y="230.0" fill="#5d6574" font-size="11" font-family="Segoe UI, Arial, sans-serif" font-weight="400" text-anchor="end">-54.32</text>
<line x1="98.0" y1="146.0" x2="1216.0" y2="146.0" stroke="#d7dbe5" stroke-width="1.0" stroke-dasharray="4 4" />
<text x="90.0" y="150.0" fill="#5d6574" font-size="11" font-family="Segoe UI, Arial, sans-serif" font-weight="400" text-anchor="end">8.691</text>
<line x1="98.0" y1="146.0" x2="98.0" y2="306.0" stroke="#d7dbe5" stroke-width="1.0" stroke-dasharray="4 4" />
<text x="98.0" y="324.0" fill="#5d6574" font-size="11" font-family="Segoe UI, Arial, sans-serif" font-weight="400" text-anchor="middle">0</text>
<line x1="657.0" y1="146.0" x2="657.0" y2="306.0" stroke="#d7dbe5" stroke-width="1.0" stroke-dasharray="4 4" />
<text x="657.0" y="324.0" fill="#5d6574" font-size="11" font-family="Segoe UI, Arial, sans-serif" font-weight="400" text-anchor="middle">125</text>
<line x1="1216.0" y1="146.0" x2="1216.0" y2="306.0" stroke="#d7dbe5" stroke-width="1.0" stroke-dasharray="4 4" />
<text x="1216.0" y="324.0" fill="#5d6574" font-size="11" font-family="Segoe UI, Arial, sans-serif" font-weight="400" text-anchor="middle">250</text>
<line x1="98.0" y1="146.0" x2="98.0" y2="306.0" stroke="#2d3440" stroke-width="1.2" />
<line x1="98.0" y1="306.0" x2="1216.0" y2="306.0" stroke="#2d3440" stroke-width="1.2" />
<text x="56.0" y="160.0" fill="#5d6574" font-size="12" font-family="Segoe UI, Arial, sans-serif" font-weight="400" text-anchor="start">ΔV</text>
<line x1="98.0" y1="157.0" x2="1216.0" y2="157.0" stroke="#2d3440" stroke-width="1.2" stroke-dasharray="6 4" />
<polyline points="98.00,157.05 102.47,157.05 106.94,157.83 111.42,159.33 115.89,161.40 120.36,163.15 124.83,164.38 129.30,165.06 133.78,165.25 138.25,165.04 142.72,164.53 147.19,163.84 151.66,163.05 156.14,162.23 160.61,161.45 165.08,160.73 169.55,160.11 174.02,159.58 178.50,159.14 182.97,158.80 187.44,158.54 191.91,158.36 196.38,158.23 200.86,158.15 205.33,158.11 209.80,158.10 214.27,158.11 218.74,158.13 223.22,158.17 227.69,158.21 232.16,158.25 236.63,158.28 241.10,158.31 245.58,158.33 250.05,158.34 254.52,158.34 258.99,158.34 263.46,158.32 267.94,158.29 272.41,158.25 276.88,158.21 281.35,158.16 285.82,158.11 290.30,158.05 294.77,157.99 299.24,157.93 303.71,157.86 308.18,157.80 312.66,157.74 317.13,157.69 321.60,157.64 326.07,157.59 330.54,157.54 335.02,157.50 339.49,157.46 343.96,157.43 348.43,157.39 352.90,157.38 357.38,157.37 361.85,157.52 366.32,157.78 370.79,158.14 375.26,158.31 379.74,158.31 384.21,158.29 388.68,158.22 393.15,158.09 397.62,157.93 402.10,157.75 406.57,157.62 411.04,157.50 415.51,157.40 419.98,157.32 424.46,157.24 428.93,157.17 433.40,157.12 437.87,157.09 442.34,157.07 446.82,157.08 451.29,157.09 455.76,158.49 460.23,163.10 464.70,167.69 469.18,170.42 473.65,171.16 478.12,170.35 482.59,168.54 487.06,166.23 491.54,163.80 496.01,161.56 500.48,159.70 504.95,158.33 509.42,157.55 518.37,157.64 522.84,158.92 527.31,160.23 531.78,160.94 536.26,160.91 540.73,160.35 545.20,159.56 549.67,158.82 554.14,158.30 558.62,158.10 563.09,158.20 567.56,158.55 572.03,159.05 576.50,159.61 580.98,160.14 585.45,160.57 589.92,160.87 594.39,161.01 598.86,161.02 603.34,160.83 607.81,160.54 612.28,160.22 616.75,159.90 621.22,159.68 630.17,163.58 634.64,170.38 639.11,176.43 643.58,180.44 648.06,182.38 652.53,182.71 657.00,181.97 661.47,180.66 665.94,179.09 670.42,177.46 674.89,175.84 679.36,174.25 683.83,172.70 688.30,171.17 692.78,169.65 697.25,168.16 701.72,166.71 706.19,165.32 710.66,164.02 715.14,162.82 719.61,161.75 724.08,160.82 728.55,160.04 733.02,159.42 737.50,158.94 741.97,158.60 746.44,158.39 750.91,158.29 755.38,158.27 759.86,158.32 764.33,158.43 768.80,158.61 773.27,158.79 777.74,159.80 782.22,161.48 786.69,163.47 791.16,165.87 795.63,167.74 800.10,168.83 804.58,169.13 809.05,168.74 813.52,167.84 817.99,166.63 822.46,165.28 826.94,163.95 831.41,162.76 835.88,161.76 840.35,160.99 844.82,160.45 849.30,160.11 853.77,160.03 858.24,160.11 862.71,160.05 867.18,160.03 871.66,159.81 876.13,159.50 880.60,159.35 885.07,159.17 889.54,158.95 894.02,158.71 898.49,158.45 902.96,158.20 907.43,157.95 911.90,157.72 916.38,157.52 920.85,157.35 925.32,157.30 934.26,157.76 938.74,160.05 943.21,164.62 947.68,170.89 952.15,177.79 956.62,184.38 961.10,190.08 965.57,194.65 970.04,198.03 974.51,200.28 978.98,201.50 983.46,201.79 987.93,201.26 992.40,199.99 996.87,198.07 1001.34,195.57 1005.82,192.57 1010.29,189.13 1014.76,185.36 1019.23,181.34 1023.70,177.20 1028.18,173.06 1032.65,169.08 1037.12,165.43 1041.59,162.27 1086.31,165.63 1090.78,166.54 1095.26,170.46 1099.73,182.88 1104.20,203.44 1108.67,229.76 1113.14,258.03 1117.62,280.38 1122.09,293.04 1126.56,294.97 1131.03,287.36 1135.50,272.83 1139.98,254.43 1144.45,235.06 1148.92,216.96 1153.39,201.56 1157.86,189.53 1162.34,180.88 1166.81,175.20 1171.28,171.82 1175.75,170.02 1180.22,169.66 1184.70,168.94 1189.17,168.20 1193.64,165.99 1198.11,164.71 1202.58,163.27 1207.06,161.80" fill="none" stroke="#bf1e2d" stroke-width="2.2" stroke-linejoin="round" stroke-linecap="round" />
<polyline points="98.00,157.04 102.47,157.04 106.94,157.18 111.42,157.60 115.89,158.02 120.36,158.39 124.83,158.93 129.30,159.40 133.78,159.79 138.25,160.07 142.72,160.22 147.19,160.27 151.66,160.22 156.14,160.08 160.61,159.88 165.08,159.64 169.55,159.37 174.02,159.10 178.50,158.84 182.97,158.59 187.44,158.37 191.91,158.18 196.38,158.02 200.86,157.90 205.33,157.80 209.80,157.73 214.27,157.69 218.74,157.66 223.22,157.65 227.69,157.66 232.16,157.68 236.63,157.70 241.10,157.72 245.58,157.75 250.05,157.78 254.52,157.80 258.99,157.82 263.46,157.84 267.94,157.85 272.41,157.86 276.88,157.86 281.35,157.86 285.82,157.85 290.30,157.84 294.77,157.82 299.24,157.80 303.71,157.78 308.18,157.75 312.66,157.72 317.13,157.69 321.60,157.66 326.07,157.63 330.54,157.60 335.02,157.57 339.49,157.54 343.96,157.52 348.43,157.49 352.90,157.47 357.38,157.44 361.85,157.42 366.32,157.40 370.79,157.38 375.26,157.37 379.74,157.35 384.21,157.34 388.68,157.33 393.15,157.32 397.62,157.31 402.10,157.30 406.57,157.29 411.04,157.28 415.51,157.28 419.98,157.27 424.46,157.27 428.93,157.27 433.40,157.26 437.87,157.26 442.34,157.26 446.82,157.26 451.29,157.26 455.76,157.25 460.23,157.25 464.70,157.25 469.18,157.25 473.65,157.25 478.12,157.24 482.59,157.24 487.06,157.23 491.54,157.23 496.01,157.23 500.48,157.22 504.95,157.22 509.42,157.21 513.90,157.21 518.37,157.20 522.84,157.20 527.31,157.19 531.78,157.19 536.26,157.18 540.73,157.18 545.20,157.17 549.67,157.17 554.14,157.16 558.62,157.16 563.09,157.15 567.56,157.15 572.03,157.14 576.50,157.14 580.98,157.14 585.45,157.13 589.92,157.13 594.39,157.12 598.86,157.12 603.34,157.12 607.81,157.11 612.28,157.11 616.75,157.11 621.22,157.10 625.70,157.10 630.17,157.10 634.64,157.10 639.11,157.09 643.58,157.09 648.06,157.09 652.53,157.09 657.00,157.08 661.47,157.08 665.94,157.08 670.42,157.08 674.89,157.08 679.36,157.07 683.83,157.07 688.30,157.07 692.78,157.07 697.25,157.07 701.72,157.07 706.19,157.06 710.66,157.06 715.14,157.06 719.61,157.06 724.08,157.06 728.55,157.06 733.02,157.06 737.50,157.06 741.97,157.06 746.44,157.05 750.91,157.05 755.38,157.05 759.86,157.05 764.33,157.05 768.80,157.05 773.27,157.05 777.74,157.05 782.22,157.05 786.69,157.05 791.16,157.05 795.63,157.05 800.10,157.05 804.58,157.05 809.05,157.04 813.52,157.04 817.99,157.04 822.46,157.04 826.94,157.04 831.41,157.04 835.88,157.04 840.35,157.04 844.82,157.04 849.30,157.04 853.77,157.04 858.24,157.04 862.71,157.04 867.18,157.04 871.66,157.04 876.13,157.04 880.60,157.04 885.07,157.04 889.54,157.04 894.02,157.04 898.49,157.04 902.96,157.04 907.43,157.04 911.90,157.04 916.38,157.04 920.85,157.04 925.32,157.04 929.79,157.04 934.26,157.04 938.74,157.04 943.21,157.04 947.68,157.04 952.15,157.04 956.62,157.04 961.10,157.04 965.57,157.04 970.04,157.04 974.51,157.04 978.98,157.04 983.46,157.04 987.93,157.04 992.40,157.04 996.87,157.04 1001.34,157.04 1005.82,157.04 1010.29,157.04 1014.76,157.04 1019.23,157.04 1023.70,157.04 1028.18,157.04 1032.65,157.03 1037.12,157.03 1041.59,157.03 1046.06,157.03 1050.54,157.03 1055.01,157.03 1059.48,157.03 1063.95,157.03 1081.84,157.03 1086.31,157.03 1090.78,157.04 1095.26,157.04 1099.73,157.04 1104.20,157.03 1108.67,157.03 1113.14,157.03 1117.62,157.06 1122.09,158.00 1126.56,159.14 1131.03,159.68 1135.50,159.63 1139.98,159.25 1144.45,158.72 1148.92,158.16 1153.39,157.67 1157.86,157.29 1162.34,157.21 1171.28,165.74 1175.75,183.58 1180.22,193.55 1184.70,194.15 1189.17,189.25 1193.64,182.14 1198.11,174.83 1202.58,168.42 1207.06,163.46 1211.53,160.16 1216.00,158.56" fill="none" stroke="#c96b17" stroke-width="2.2" stroke-linejoin="round" stroke-linecap="round" />
<polyline points="98.00,157.04 102.47,157.04 106.94,157.12 111.42,157.39 115.89,157.80 120.36,158.01 124.83,158.35 129.30,158.78 133.78,159.15 138.25,159.45 142.72,159.67 147.19,159.80 151.66,159.83 156.14,159.78 160.61,159.67 165.08,159.50 169.55,159.30 174.02,159.08 178.50,158.85 182.97,158.62 187.44,158.41 191.91,158.23 196.38,158.06 200.86,157.93 205.33,157.82 209.80,157.74 214.27,157.68 218.74,157.65 223.22,157.63 227.69,157.63 232.16,157.64 236.63,157.66 241.10,157.68 245.58,157.71 250.05,157.73 254.52,157.76 258.99,157.79 263.46,157.81 267.94,157.82 272.41,157.84 276.88,157.84 281.35,157.85 285.82,157.84 290.30,157.84 294.77,157.82 299.24,157.81 303.71,157.79 308.18,157.76 312.66,157.74 317.13,157.71 321.60,157.68 326.07,157.66 330.54,157.63 335.02,157.60 339.49,157.57 343.96,157.54 348.43,157.51 352.90,157.49 357.38,157.46 361.85,157.44 366.32,157.42 370.79,157.40 375.26,157.38 379.74,157.37 384.21,157.35 388.68,157.34 393.15,157.33 397.62,157.31 402.10,157.31 406.57,157.30 411.04,157.29 415.51,157.28 419.98,157.28 424.46,157.27 428.93,157.27 433.40,157.26 437.87,157.26 442.34,157.26 446.82,157.25 451.29,157.25 455.76,157.25 460.23,157.25 464.70,157.25 469.18,157.24 473.65,157.24 478.12,157.24 482.59,157.23 487.06,157.23 491.54,157.22 496.01,157.22 500.48,157.22 504.95,157.21 509.42,157.21 513.90,157.20 518.37,157.20 522.84,157.19 527.31,157.19 531.78,157.18 536.26,157.18 540.73,157.17 545.20,157.17 549.67,157.17 554.14,157.16 558.62,157.16 563.09,157.15 567.56,157.15 572.03,157.14 576.50,157.14 580.98,157.13 585.45,157.13 589.92,157.13 594.39,157.12 598.86,157.12 603.34,157.12 607.81,157.11 612.28,157.11 616.75,157.11 621.22,157.10 625.70,157.10 630.17,157.10 634.64,157.09 639.11,157.09 643.58,157.09 648.06,157.09 652.53,157.08 657.00,157.08 661.47,157.08 665.94,157.08 670.42,157.08 674.89,157.07 679.36,157.07 683.83,157.07 688.30,157.07 692.78,157.07 697.25,157.07 701.72,157.07 706.19,157.06 710.66,157.06 715.14,157.06 719.61,157.06 724.08,157.06 728.55,157.06 733.02,157.06 737.50,157.06 741.97,157.05 746.44,157.05 750.91,157.05 755.38,157.05 759.86,157.05 764.33,157.05 768.80,157.05 773.27,157.05 777.74,157.05 782.22,157.05 786.69,157.05 791.16,157.05 795.63,157.05 800.10,157.05 804.58,157.04 809.05,157.04 813.52,157.04 817.99,157.04 822.46,157.04 826.94,157.04 831.41,157.04 835.88,157.04 840.35,157.04 844.82,157.04 849.30,157.04 853.77,157.04 858.24,157.04 862.71,157.04 867.18,157.04 871.66,157.04 876.13,157.04 880.60,157.04 885.07,157.04 889.54,157.04 894.02,157.04 898.49,157.04 902.96,157.04 907.43,157.04 911.90,157.04 916.38,157.04 920.85,157.04 925.32,157.04 929.79,157.04 934.26,157.04 938.74,157.04 943.21,157.04 947.68,157.04 952.15,157.04 956.62,157.04 961.10,157.04 965.57,157.04 970.04,157.04 974.51,157.04 978.98,157.04 983.46,157.04 987.93,157.04 992.40,157.04 996.87,157.04 1001.34,157.04 1005.82,157.04 1010.29,157.04 1014.76,157.04 1019.23,157.04 1023.70,157.04 1028.18,157.04 1032.65,157.03 1037.12,157.03 1041.59,157.03 1046.06,157.03 1050.54,157.03 1055.01,157.03 1059.48,157.03 1063.95,157.03 1086.31,157.03 1090.78,157.03 1095.26,157.03 1099.73,157.03 1104.20,157.03 1108.67,157.03 1113.14,157.03 1117.62,157.03 1122.09,157.03 1126.56,157.03 1131.03,157.03 1135.50,157.03 1144.45,157.48 1148.92,158.86 1153.39,160.12 1157.86,160.80 1162.34,160.93 1166.81,160.64 1171.28,160.11 1175.75,159.47 1180.22,158.85 1184.70,158.32 1189.17,157.90 1193.64,157.62 1198.11,157.46 1202.58,157.40 1207.06,157.42 1211.53,157.49 1216.00,157.60" fill="none" stroke="#2a7f62" stroke-width="2.2" stroke-linejoin="round" stroke-linecap="round" />
<polyline points="98.00,157.04 102.47,157.04 106.94,157.08 111.42,157.23 115.89,157.49 120.36,157.85 124.83,157.96 129.30,158.24 133.78,158.59 138.25,158.91 142.72,159.17 147.19,159.36 151.66,159.47 156.14,159.51 160.61,159.47 165.08,159.38 169.55,159.24 174.02,159.07 178.50,158.88 182.97,158.68 187.44,158.48 191.91,158.30 196.38,158.13 200.86,157.99 205.33,157.87 209.80,157.78 214.27,157.71 218.74,157.66 223.22,157.63 227.69,157.62 232.16,157.62 236.63,157.63 241.10,157.65 245.58,157.68 250.05,157.70 254.52,157.73 258.99,157.76 263.46,157.78 267.94,157.80 272.41,157.82 276.88,157.83 281.35,157.84 285.82,157.84 290.30,157.84 294.77,157.83 299.24,157.82 303.71,157.80 308.18,157.78 312.66,157.76 317.13,157.74 321.60,157.71 326.07,157.68 330.54,157.65 335.02,157.63 339.49,157.60 343.96,157.57 348.43,157.54 352.90,157.51 357.38,157.49 361.85,157.46 366.32,157.44 370.79,157.42 375.26,157.40 379.74,157.38 384.21,157.37 388.68,157.35 393.15,157.34 397.62,157.32 402.10,157.31 406.57,157.30 411.04,157.29 415.51,157.29 419.98,157.28 424.46,157.27 428.93,157.27 433.40,157.26 437.87,157.26 442.34,157.26 446.82,157.25 451.29,157.25 455.76,157.25 460.23,157.24 464.70,157.24 469.18,157.24 473.65,157.23 478.12,157.23 482.59,157.23 487.06,157.22 491.54,157.22 496.01,157.21 500.48,157.21 504.95,157.21 509.42,157.20 513.90,157.20 518.37,157.19 522.84,157.19 527.31,157.18 531.78,157.18 536.26,157.18 540.73,157.17 545.20,157.17 549.67,157.16 554.14,157.16 558.62,157.15 563.09,157.15 567.56,157.14 572.03,157.14 576.50,157.14 580.98,157.13 585.45,157.13 589.92,157.12 594.39,157.12 598.86,157.12 603.34,157.11 607.81,157.11 612.28,157.11 616.75,157.10 621.22,157.10 625.70,157.10 630.17,157.10 634.64,157.09 639.11,157.09 643.58,157.09 648.06,157.09 652.53,157.08 657.00,157.08 661.47,157.08 665.94,157.08 670.42,157.08 674.89,157.07 679.36,157.07 683.83,157.07 688.30,157.07 692.78,157.07 697.25,157.07 701.72,157.06 706.19,157.06 710.66,157.06 715.14,157.06 719.61,157.06 724.08,157.06 728.55,157.06 733.02,157.06 737.50,157.06 741.97,157.05 746.44,157.05 750.91,157.05 755.38,157.05 759.86,157.05 764.33,157.05 768.80,157.05 773.27,157.05 777.74,157.05 782.22,157.05 786.69,157.05 791.16,157.05 795.63,157.05 800.10,157.05 804.58,157.04 809.05,157.04 813.52,157.04 817.99,157.04 822.46,157.04 826.94,157.04 831.41,157.04 835.88,157.04 840.35,157.04 844.82,157.04 849.30,157.04 853.77,157.04 858.24,157.04 862.71,157.04 867.18,157.04 871.66,157.04 876.13,157.04 880.60,157.04 885.07,157.04 889.54,157.04 894.02,157.04 898.49,157.04 902.96,157.04 907.43,157.04 911.90,157.04 916.38,157.04 920.85,157.04 925.32,157.04 929.79,157.04 934.26,157.04 938.74,157.04 943.21,157.04 947.68,157.04 952.15,157.04 956.62,157.04 961.10,157.04 965.57,157.04 970.04,157.04 974.51,157.04 978.98,157.04 983.46,157.04 987.93,157.04 992.40,157.04 996.87,157.04 1001.34,157.04 1005.82,157.04 1010.29,157.04 1014.76,157.04 1019.23,157.04 1023.70,157.04 1028.18,157.04 1032.65,157.03 1037.12,157.03 1041.59,157.03 1046.06,157.03 1050.54,157.03 1055.01,157.03 1059.48,157.03 1063.95,157.03 1072.90,157.03 1086.31,157.03 1090.78,157.03 1095.26,157.03 1099.73,157.03 1104.20,157.03 1108.67,157.03 1113.14,157.03 1117.62,157.03 1122.09,157.03 1126.56,157.03 1131.03,157.03 1135.50,157.03 1139.98,157.03 1144.45,157.03 1148.92,157.03 1153.39,157.03 1157.86,157.03 1162.34,157.03 1166.81,157.03 1171.28,157.03 1175.75,157.03 1180.22,157.03 1184.70,157.03 1189.17,157.03 1193.64,157.03 1198.11,157.03 1202.58,157.03 1207.06,157.03 1211.53,157.03 1216.00,157.03" fill="none" stroke="#2458d3" stroke-width="2.2" stroke-linejoin="round" stroke-linecap="round" />
<rect x="40.0" y="370.0" width="1200.0" height="250.0" fill="#fbfbfd" stroke="#d7dbe5" stroke-width="1.0" rx="8.0" />
<text x="56.0" y="394.0" fill="#1f2430" font-size="16" font-family="Segoe UI, Arial, sans-serif" font-weight="600" text-anchor="start">Tail ΔV_pred</text>
<text x="56.0" y="412.0" fill="#5d6574" font-size="12" font-family="Segoe UI, Arial, sans-serif" font-weight="400" text-anchor="start">Steps 1800-1899</text>
<line x1="98.0" y1="588.0" x2="1216.0" y2="588.0" stroke="#d7dbe5" stroke-width="1.0" stroke-dasharray="4 4" />
<text x="90.0" y="592.0" fill="#5d6574" font-size="11" font-family="Segoe UI, Arial, sans-serif" font-weight="400" text-anchor="end">-13.909</text>
<line x1="98.0" y1="508.0" x2="1216.0" y2="508.0" stroke="#d7dbe5" stroke-width="1.0" stroke-dasharray="4 4" />
<text x="90.0" y="512.0" fill="#5d6574" font-size="11" font-family="Segoe UI, Arial, sans-serif" font-weight="400" text-anchor="end">-6.44</text>
<line x1="98.0" y1="428.0" x2="1216.0" y2="428.0" stroke="#d7dbe5" stroke-width="1.0" stroke-dasharray="4 4" />
<text x="90.0" y="432.0" fill="#5d6574" font-size="11" font-family="Segoe UI, Arial, sans-serif" font-weight="400" text-anchor="end">1.03</text>
<line x1="98.0" y1="428.0" x2="98.0" y2="588.0" stroke="#d7dbe5" stroke-width="1.0" stroke-dasharray="4 4" />
<text x="98.0" y="606.0" fill="#5d6574" font-size="11" font-family="Segoe UI, Arial, sans-serif" font-weight="400" text-anchor="middle">1800</text>
<line x1="657.0" y1="428.0" x2="657.0" y2="588.0" stroke="#d7dbe5" stroke-width="1.0" stroke-dasharray="4 4" />
<text x="657.0" y="606.0" fill="#5d6574" font-size="11" font-family="Segoe UI, Arial, sans-serif" font-weight="400" text-anchor="middle">1850</text>
<line x1="1216.0" y1="428.0" x2="1216.0" y2="588.0" stroke="#d7dbe5" stroke-width="1.0" stroke-dasharray="4 4" />
<text x="1216.0" y="606.0" fill="#5d6574" font-size="11" font-family="Segoe UI, Arial, sans-serif" font-weight="400" text-anchor="middle">1899</text>
<line x1="98.0" y1="428.0" x2="98.0" y2="588.0" stroke="#2d3440" stroke-width="1.2" />
<line x1="98.0" y1="588.0" x2="1216.0" y2="588.0" stroke="#2d3440" stroke-width="1.2" />
<text x="56.0" y="442.0" fill="#5d6574" font-size="12" font-family="Segoe UI, Arial, sans-serif" font-weight="400" text-anchor="start">ΔV</text>
<line x1="98.0" y1="439.0" x2="1216.0" y2="439.0" stroke="#2d3440" stroke-width="1.2" stroke-dasharray="6 4" />
<polyline points="98.00,471.84 109.29,459.56 120.59,450.48 131.88,444.61 143.17,441.65 154.46,441.11 165.76,442.40 177.05,444.90 188.34,447.97 199.64,450.52 210.93,453.25 222.22,455.51 233.52,454.69 244.81,453.01 256.10,453.11 267.39,452.70 278.69,451.88 289.98,450.80 301.27,449.55 312.57,448.27 323.86,447.04 335.15,445.93 346.44,445.93 369.03,462.72 380.32,492.84 391.62,524.65 402.91,550.47 414.20,567.42 425.49,575.71 436.79,576.97 448.08,573.19 459.37,566.15 470.67,557.15 481.96,547.08 493.25,536.49 504.55,525.72 515.84,515.01 527.13,504.55 538.42,494.52 549.72,485.09 561.01,476.45 572.30,468.76 583.60,462.13 594.89,456.67 606.18,452.42 617.47,449.40 628.77,447.54 640.06,446.76 651.35,446.93 662.65,447.88 673.94,449.44 685.23,451.42 696.53,453.64 707.82,455.93 719.11,458.13 730.40,460.13 741.70,461.84 752.99,463.20 764.28,464.17 775.58,464.76 786.87,464.98 798.16,464.86 809.45,464.44 820.75,463.77 832.04,462.90 843.33,461.87 854.63,460.73 865.92,459.50 877.21,458.23 888.51,456.92 899.80,455.60 911.09,454.29 922.38,453.00 933.68,451.73 944.97,450.50 956.26,449.31 967.56,448.18 978.85,447.10 990.14,446.10 1001.43,445.17 1012.73,444.33 1024.02,443.58 1035.31,442.91 1046.61,442.34 1057.90,441.87 1069.19,441.49 1080.48,441.20 1091.78,440.99 1103.07,441.05 1114.36,441.18 1125.66,444.54 1136.95,452.55 1148.24,460.09 1159.54,469.07 1170.83,474.79 1182.12,477.06 1193.41,476.32 1204.71,473.33 1216.00,468.89" fill="none" stroke="#bf1e2d" stroke-width="2.2" stroke-linejoin="round" stroke-linecap="round" />
<polyline points="98.00,439.03 109.29,439.03 120.59,439.03 131.88,439.03 143.17,439.03 154.46,439.03 165.76,439.03 177.05,439.03 188.34,439.03 199.64,439.03 210.93,439.03 222.22,439.03 233.52,439.03 244.81,439.03 256.10,439.03 267.39,439.03 278.69,439.03 289.98,439.03 301.27,439.03 312.57,439.03 323.86,439.03 335.15,439.03 346.44,439.03 357.74,439.03 369.03,439.03 380.32,439.03 391.62,439.03 402.91,439.03 414.20,439.03 425.49,439.03 436.79,439.03 448.08,439.03 459.37,439.03 470.67,439.03 481.96,439.03 493.25,439.03 504.55,439.03 515.84,439.03 527.13,439.03 538.42,439.03 549.72,439.03 561.01,439.03 572.30,439.03 583.60,439.03 594.89,439.03 606.18,439.03 617.47,439.03 628.77,439.03 640.06,439.03 651.35,439.03 662.65,439.03 673.94,439.03 685.23,439.03 696.53,439.03 707.82,439.03 719.11,439.03 730.40,439.03 741.70,439.03 752.99,439.03 764.28,439.03 775.58,439.03 786.87,439.03 798.16,439.03 809.45,439.03 820.75,439.03 832.04,439.03 843.33,439.03 854.63,439.03 865.92,439.03 877.21,439.03 888.51,439.03 899.80,439.03 911.09,439.03 922.38,439.03 933.68,439.03 944.97,439.03 956.26,439.03 967.56,439.03 978.85,439.03 990.14,439.03 1001.43,439.03 1012.73,439.03 1024.02,439.03 1035.31,439.03 1046.61,439.03 1057.90,439.03 1069.19,439.03 1080.48,439.03 1091.78,439.03 1103.07,439.03 1114.36,439.03 1125.66,439.03 1136.95,439.03 1148.24,439.03 1159.54,439.03 1170.83,439.03 1182.12,439.03 1193.41,439.03 1204.71,439.03 1216.00,439.03" fill="none" stroke="#c96b17" stroke-width="2.2" stroke-linejoin="round" stroke-linecap="round" />
<polyline points="98.00,439.03 109.29,439.03 120.59,439.03 131.88,439.03 143.17,439.03 154.46,439.03 165.76,439.03 177.05,439.03 188.34,439.03 199.64,439.03 210.93,439.03 222.22,439.03 233.52,439.03 244.81,439.03 256.10,439.03 267.39,439.03 278.69,439.03 289.98,439.03 301.27,439.03 312.57,439.03 323.86,439.03 335.15,439.03 346.44,439.03 357.74,439.03 369.03,439.03 380.32,439.03 391.62,439.03 402.91,439.03 414.20,439.03 425.49,439.03 436.79,439.03 448.08,439.03 459.37,439.03 470.67,439.03 481.96,439.03 493.25,439.03 504.55,439.03 515.84,439.03 527.13,439.03 538.42,439.03 549.72,439.03 561.01,439.03 572.30,439.03 583.60,439.03 594.89,439.03 606.18,439.03 617.47,439.03 628.77,439.03 640.06,439.03 651.35,439.03 662.65,439.03 673.94,439.03 685.23,439.03 696.53,439.03 707.82,439.03 719.11,439.03 730.40,439.03 741.70,439.03 752.99,439.03 764.28,439.03 775.58,439.03 786.87,439.03 798.16,439.03 809.45,439.03 820.75,439.03 832.04,439.03 843.33,439.03 854.63,439.03 865.92,439.03 877.21,439.03 888.51,439.03 899.80,439.03 911.09,439.03 922.38,439.03 933.68,439.03 944.97,439.03 956.26,439.03 967.56,439.03 978.85,439.03 990.14,439.03 1001.43,439.03 1012.73,439.03 1024.02,439.03 1035.31,439.03 1046.61,439.03 1057.90,439.03 1069.19,439.03 1080.48,439.03 1091.78,439.03 1103.07,439.03 1114.36,439.03 1125.66,439.03 1136.95,439.03 1148.24,439.03 1159.54,439.03 1170.83,439.03 1182.12,439.03 1193.41,439.03 1204.71,439.03 1216.00,439.03" fill="none" stroke="#2a7f62" stroke-width="2.2" stroke-linejoin="round" stroke-linecap="round" />
<polyline points="98.00,439.03 109.29,439.03 120.59,439.03 131.88,439.03 143.17,439.03 154.46,439.03 165.76,439.03 177.05,439.03 188.34,439.03 199.64,439.03 210.93,439.03 222.22,439.03 233.52,439.03 244.81,439.03 256.10,439.03 267.39,439.03 278.69,439.03 289.98,439.03 301.27,439.03 312.57,439.03 323.86,439.03 335.15,439.03 346.44,439.03 357.74,439.03 369.03,439.03 380.32,439.03 391.62,439.03 402.91,439.03 414.20,439.03 425.49,439.03 436.79,439.03 448.08,439.03 459.37,439.03 470.67,439.03 481.96,439.03 493.25,439.03 504.55,439.03 515.84,439.03 527.13,439.03 538.42,439.03 549.72,439.03 561.01,439.03 572.30,439.03 583.60,439.03 594.89,439.03 606.18,439.03 617.47,439.03 628.77,439.03 640.06,439.03 651.35,439.03 662.65,439.03 673.94,439.03 685.23,439.03 696.53,439.03 707.82,439.03 719.11,439.03 730.40,439.03 741.70,439.03 752.99,439.03 764.28,439.03 775.58,439.03 786.87,439.03 798.16,439.03 809.45,439.03 820.75,439.03 832.04,439.03 843.33,439.03 854.63,439.03 865.92,439.03 877.21,439.03 888.51,439.03 899.80,439.03 911.09,439.03 922.38,439.03 933.68,439.03 944.97,439.03 956.26,439.03 967.56,439.03 978.85,439.03 990.14,439.03 1001.43,439.03 1012.73,439.03 1024.02,439.03 1035.31,439.03 1046.61,439.03 1057.90,439.03 1069.19,439.03 1080.48,439.03 1091.78,439.03 1103.07,439.03 1114.36,439.03 1125.66,439.03 1136.95,439.03 1148.24,439.03 1159.54,439.03 1170.83,439.03 1182.12,439.03 1193.41,439.03 1204.71,439.03 1216.00,439.03" fill="none" stroke="#2458d3" stroke-width="2.2" stroke-linejoin="round" stroke-linecap="round" />
<line x1="54.0" y1="686.0" x2="82.0" y2="686.0" stroke="#2d3440" stroke-width="1.8" stroke-dasharray="6 4" />
<text x="92.0" y="690.0" fill="#1f2430" font-size="12" font-family="Segoe UI, Arial, sans-serif" font-weight="400" text-anchor="start">ΔV = 0</text>
<line x1="220.0" y1="686.0" x2="248.0" y2="686.0" stroke="#bf1e2d" stroke-width="2.4" />
<text x="258.0" y="690.0" fill="#1f2430" font-size="12" font-family="Segoe UI, Arial, sans-serif" font-weight="400" text-anchor="start">rho=0.95</text>
<line x1="385.0" y1="686.0" x2="413.0" y2="686.0" stroke="#c96b17" stroke-width="2.4" />
<text x="423.0" y="690.0" fill="#1f2430" font-size="12" font-family="Segoe UI, Arial, sans-serif" font-weight="400" text-anchor="start">rho=0.98</text>
<line x1="550.0" y1="686.0" x2="578.0" y2="686.0" stroke="#2a7f62" stroke-width="2.4" />
<text x="588.0" y="690.0" fill="#1f2430" font-size="12" font-family="Segoe UI, Arial, sans-serif" font-weight="400" text-anchor="start">rho=0.985</text>
<line x1="715.0" y1="686.0" x2="743.0" y2="686.0" stroke="#2458d3" stroke-width="2.4" />
<text x="753.0" y="690.0" fill="#1f2430" font-size="12" font-family="Segoe UI, Arial, sans-serif" font-weight="400" text-anchor="start">rho=0.99</text>
</svg>