<svg xmlns="http://www.w3.org/2000/svg" width="1100" height="780" viewBox="0 0 1100 780">
<rect width="100%" height="100%" fill="white"/>
<text x="72" y="28" font-size="20" font-weight="700" fill="#111827">bounded_hard: window 450-560</text>
<text x="72" y="48" font-size="12" fill="#4b5563">solid = measured/applied, dashed = scheduled setpoint, dotted = selected steady target</text>
<text x="18" y="131" font-size="13" fill="#374151" transform="rotate(-90 18 131)">Output eta</text>
<rect x="72" y="56" width="1000" height="150" fill="#f9fafb" stroke="#d1d5db"/>
<line x1="72" x2="1072" y1="206.00" y2="206.00" stroke="#e5e7eb"/>
<text x="64" y="210.00" font-size="10" text-anchor="end" fill="#6b7280">2.60</text>
<line x1="72" x2="1072" y1="131.00" y2="131.00" stroke="#e5e7eb"/>
<text x="64" y="135.00" font-size="10" text-anchor="end" fill="#6b7280">3.33</text>
<line x1="72" x2="1072" y1="56.00" y2="56.00" stroke="#e5e7eb"/>
<text x="64" y="60.00" font-size="10" text-anchor="end" fill="#6b7280">4.06</text>
<polyline fill="none" stroke="#2563eb" stroke-width="2" points="72.00,118.82 81.09,116.85 90.18,114.94 99.27,113.12 108.36,111.40 117.45,109.82 126.55,108.38 135.64,107.09 144.73,105.96 153.82,104.99 162.91,104.19 172.00,103.54 181.09,103.06 190.18,102.72 199.27,102.53 208.36,102.48 217.45,102.55 226.55,102.74 235.64,103.03 244.73,103.42 253.82,103.89 262.91,104.38 272.00,104.37 281.09,103.43 290.18,101.73 299.27,99.54 308.36,97.11 317.45,94.62 326.55,92.25 335.64,90.08 344.73,88.21 353.82,86.67 362.91,85.50 372.00,84.69 381.09,84.24 390.18,84.14 399.27,85.65 408.36,89.22 417.45,94.02 426.55,99.56 435.64,105.52 444.73,111.71 453.82,118.02 462.91,124.34 472.00,130.64 481.09,136.86 490.18,142.98 499.27,148.95 508.36,154.76 517.45,160.35 526.55,165.68 535.64,170.71 544.73,175.44 553.82,179.86 562.91,183.96 572.00,187.76 581.09,191.26 590.18,194.47 599.27,195.66 608.36,192.39 617.45,184.59 626.55,173.21 635.64,159.66 644.73,145.31 653.82,131.21 662.91,118.08 672.00,106.31 681.09,96.12 690.18,87.56 699.27,80.61 708.36,75.18 717.45,71.17 726.55,68.45 735.64,66.88 744.73,66.34 753.82,66.70 762.91,67.84 772.00,69.64 781.09,72.01 790.18,74.84 799.27,78.05 808.36,81.58 817.45,85.34 826.55,89.29 835.64,93.37 844.73,97.54 853.82,101.75 862.91,105.97 872.00,110.18 881.09,114.34 890.18,118.43 899.27,122.42 908.36,126.30 917.45,130.03 926.55,133.61 935.64,137.01 944.73,140.20 953.82,143.17 962.91,145.89 972.00,148.35 981.09,150.51 990.18,152.36 999.27,153.89 1008.36,155.08 1017.45,155.91 1026.55,156.39 1035.64,156.52 1044.73,156.30 1053.82,155.75 1062.91,154.88 1072.00,153.73"/>
<polyline fill="none" stroke="#93c5fd" stroke-width="2" stroke-dasharray="7 5" points="72.00,123.57 81.09,123.57 90.18,123.57 99.27,123.57 108.36,123.57 117.45,123.57 126.55,123.57 135.64,123.57 144.73,123.57 153.82,123.57 162.91,123.57 172.00,123.57 181.09,123.57 190.18,123.57 199.27,123.57 208.36,123.57 217.45,123.57 226.55,123.57 235.64,123.57 244.73,123.57 253.82,123.57 262.91,123.57 272.00,123.57 281.09,123.57 290.18,123.57 299.27,123.57 308.36,123.57 317.45,123.57 326.55,123.57 335.64,123.57 344.73,123.57 353.82,123.57 362.91,123.57 372.00,123.57 381.09,123.57 390.18,123.57 399.27,123.57 408.36,123.57 417.45,123.57 426.55,123.57 435.64,123.57 444.73,123.57 453.82,123.57 462.91,123.57 472.00,123.57 481.09,123.57 490.18,123.57 499.27,123.57 508.36,123.57 517.45,123.57 526.55,123.57 535.64,123.57 544.73,123.57 553.82,123.57 562.91,123.57 572.00,123.57 581.09,123.57 590.18,123.57 599.27,123.57 608.36,123.57 617.45,123.57 626.55,123.57 635.64,123.57 644.73,123.57 653.82,123.57 662.91,123.57 672.00,123.57 681.09,123.57 690.18,123.57 699.27,123.57 708.36,123.57 717.45,123.57 726.55,123.57 735.64,123.57 744.73,123.57 753.82,123.57 762.91,123.57 772.00,123.57 781.09,123.57 790.18,123.57 799.27,123.57 808.36,123.57 817.45,123.57 826.55,123.57 835.64,123.57 844.73,123.57 853.82,123.57 862.91,123.57 872.00,123.57 881.09,123.57 890.18,123.57 899.27,123.57 908.36,123.57 917.45,123.57 926.55,123.57 935.64,123.57 944.73,123.57 953.82,123.57 962.91,123.57 972.00,123.57 981.09,123.57 990.18,123.57 999.27,123.57 1008.36,123.57 1017.45,123.57 1026.55,123.57 1035.64,123.57 1044.73,123.57 1053.82,123.57 1062.91,123.57"/>
<polyline fill="none" stroke="#1d4ed8" stroke-width="2" stroke-dasharray="2 5" points="72.00,105.28 81.09,104.01 90.18,102.80 99.27,101.68 108.36,100.67 117.45,99.78 126.55,99.02 135.64,98.41 144.73,97.93 153.82,97.47 162.91,97.09 172.00,96.83 181.09,96.69 190.18,96.67 199.27,96.66 208.36,96.52 217.45,96.48 226.55,96.53 235.64,96.73 244.73,97.24 253.82,97.80 262.91,98.42 272.00,99.07 281.09,100.22 290.18,100.44 299.27,100.11 308.36,99.13 317.45,97.60 326.55,95.66 335.64,93.54 344.73,91.43 353.82,89.48 362.91,87.82 372.00,86.49 381.09,85.55 390.18,84.98 399.27,84.77 408.36,84.55 417.45,85.92 426.55,88.55 435.64,92.36 444.73,97.11 453.82,102.46 462.91,108.11 472.00,113.83 481.09,119.46 490.18,124.92 499.27,130.17 508.36,135.20 517.45,139.99 526.55,144.56 535.64,148.89 544.73,152.98 553.82,156.82 562.91,160.39 572.00,163.72 581.09,166.79 590.18,169.64 599.27,172.26 608.36,174.93 617.45,175.50 626.55,173.45 635.64,168.12 644.73,159.55 653.82,148.49 662.91,136.01 672.00,123.25 681.09,111.16 690.18,100.43 699.27,91.43 708.36,84.30 717.45,79.00 726.55,75.40 735.64,73.27 744.73,72.41 753.82,72.58 762.91,73.59 772.00,75.27 781.09,77.46 790.18,80.05 799.27,82.91 808.36,85.98 817.45,89.18 826.55,93.15 835.64,95.26 844.73,98.52 853.82,101.84 862.91,105.12 872.00,108.35 881.09,111.52 890.18,114.61 899.27,117.62 908.36,120.54 917.45,123.37 926.55,126.09 935.64,128.70 944.73,131.18 953.82,133.53 962.91,135.73 972.00,137.76 981.09,139.62 990.18,141.29 999.27,142.74 1008.36,143.98 1017.45,144.97 1026.55,145.71 1035.64,146.20 1044.73,145.89 1053.82,145.70 1062.91,145.72"/>
<rect x="526.55" y="56" width="9.09" height="150" fill="#9ca3af" opacity="0.22"/>
<rect x="535.64" y="56" width="9.09" height="150" fill="#9ca3af" opacity="0.22"/>
<rect x="544.73" y="56" width="9.09" height="150" fill="#9ca3af" opacity="0.22"/>
<rect x="553.82" y="56" width="9.09" height="150" fill="#9ca3af" opacity="0.22"/>
<rect x="562.91" y="56" width="9.09" height="150" fill="#9ca3af" opacity="0.22"/>
<rect x="572.00" y="56" width="9.09" height="150" fill="#9ca3af" opacity="0.22"/>
<rect x="581.09" y="56" width="9.09" height="150" fill="#9ca3af" opacity="0.22"/>
<text x="18" y="311" font-size="13" fill="#374151" transform="rotate(-90 18 311)">Output T</text>
<rect x="72" y="236" width="1000" height="150" fill="#f9fafb" stroke="#d1d5db"/>
<line x1="72" x2="1072" y1="386.00" y2="386.00" stroke="#e5e7eb"/>
<text x="64" y="390.00" font-size="10" text-anchor="end" fill="#6b7280">315.47</text>
<line x1="72" x2="1072" y1="311.00" y2="311.00" stroke="#e5e7eb"/>
<text x="64" y="315.00" font-size="10" text-anchor="end" fill="#6b7280">322.56</text>
<line x1="72" x2="1072" y1="236.00" y2="236.00" stroke="#e5e7eb"/>
<text x="64" y="240.00" font-size="10" text-anchor="end" fill="#6b7280">329.65</text>
<polyline fill="none" stroke="#dc2626" stroke-width="2" points="72.00,337.85 81.09,337.18 90.18,336.54 99.27,335.95 108.36,335.40 117.45,334.90 126.55,334.45 135.64,334.05 144.73,333.71 153.82,333.41 162.91,333.16 172.00,332.95 181.09,332.79 190.18,332.67 199.27,332.59 208.36,332.55 217.45,332.53 226.55,332.55 235.64,332.59 244.73,332.65 253.82,332.73 262.91,332.68 272.00,331.41 281.09,329.96 290.18,328.63 299.27,327.43 308.36,326.37 317.45,325.46 326.55,324.69 335.64,324.06 344.73,323.56 353.82,323.20 362.91,322.97 372.00,322.86 381.09,322.87 390.18,322.99 399.27,326.18 408.36,329.03 417.45,331.75 426.55,334.32 435.64,336.74 444.73,338.97 453.82,341.00 462.91,342.79 472.00,344.34 481.09,345.63 490.18,346.65 499.27,347.40 508.36,347.88 517.45,348.10 526.55,348.06 535.64,347.99 544.73,347.88 553.82,347.75 562.91,347.60 572.00,347.45 581.09,347.29 590.18,347.13 599.27,341.31 608.36,335.79 617.45,330.61 626.55,325.78 635.64,321.33 644.73,317.26 653.82,313.56 662.91,310.24 672.00,307.29 681.09,304.72 690.18,302.51 699.27,300.67 708.36,299.18 717.45,298.04 726.55,297.23 735.64,296.74 744.73,296.55 753.82,296.66 762.91,297.04 772.00,297.68 781.09,298.56 790.18,299.65 799.27,300.95 808.36,302.41 817.45,304.03 826.55,305.76 835.64,307.58 844.73,309.47 853.82,311.40 862.91,313.33 872.00,315.25 881.09,317.13 890.18,318.95 899.27,320.68 908.36,322.31 917.45,323.83 926.55,325.22 935.64,326.48 944.73,327.59 953.82,328.56 962.91,329.38 972.00,330.05 981.09,330.58 990.18,330.98 999.27,331.24 1008.36,331.37 1017.45,331.39 1026.55,331.31 1035.64,331.12 1044.73,330.85 1053.82,330.51 1062.91,330.10 1072.00,329.64"/>
<polyline fill="none" stroke="#fca5a5" stroke-width="2" stroke-dasharray="7 5" points="72.00,327.52 81.09,327.52 90.18,327.52 99.27,327.52 108.36,327.52 117.45,327.52 126.55,327.52 135.64,327.52 144.73,327.52 153.82,327.52 162.91,327.52 172.00,327.52 181.09,327.52 190.18,327.52 199.27,327.52 208.36,327.52 217.45,327.52 226.55,327.52 235.64,327.52 244.73,327.52 253.82,327.52 262.91,327.52 272.00,327.52 281.09,327.52 290.18,327.52 299.27,327.52 308.36,327.52 317.45,327.52 326.55,327.52 335.64,327.52 344.73,327.52 353.82,327.52 362.91,327.52 372.00,327.52 381.09,327.52 390.18,327.52 399.27,327.52 408.36,327.52 417.45,327.52 426.55,327.52 435.64,327.52 444.73,327.52 453.82,327.52 462.91,327.52 472.00,327.52 481.09,327.52 490.18,327.52 499.27,327.52 508.36,327.52 517.45,327.52 526.55,327.52 535.64,327.52 544.73,327.52 553.82,327.52 562.91,327.52 572.00,327.52 581.09,327.52 590.18,327.52 599.27,327.52 608.36,327.52 617.45,327.52 626.55,327.52 635.64,327.52 644.73,327.52 653.82,327.52 662.91,327.52 672.00,327.52 681.09,327.52 690.18,327.52 699.27,327.52 708.36,327.52 717.45,327.52 726.55,327.52 735.64,327.52 744.73,327.52 753.82,327.52 762.91,327.52 772.00,327.52 781.09,327.52 790.18,327.52 799.27,327.52 808.36,327.52 817.45,327.52 826.55,327.52 835.64,327.52 844.73,327.52 853.82,327.52 862.91,327.52 872.00,327.52 881.09,327.52 890.18,327.52 899.27,327.52 908.36,327.52 917.45,327.52 926.55,327.52 935.64,327.52 944.73,327.52 953.82,327.52 962.91,327.52 972.00,327.52 981.09,327.52 990.18,327.52 999.27,327.52 1008.36,327.52 1017.45,327.52 1026.55,327.52 1035.64,327.52 1044.73,327.52 1053.82,327.52 1062.91,327.52"/>
<polyline fill="none" stroke="#991b1b" stroke-width="2" stroke-dasharray="2 5" points="72.00,326.69 81.09,326.63 90.18,326.58 99.27,326.53 108.36,326.48 117.45,326.44 126.55,326.41 135.64,326.38 144.73,326.36 153.82,326.70 162.91,327.23 172.00,327.80 181.09,328.39 190.18,329.00 199.27,329.44 208.36,329.45 217.45,329.45 226.55,329.44 235.64,329.54 244.73,330.06 253.82,330.53 262.91,330.96 272.00,330.31 281.09,325.65 290.18,317.00 299.27,311.94 308.36,309.75 317.45,309.37 326.55,310.03 335.64,311.27 344.73,312.83 353.82,314.60 362.91,316.49 372.00,318.46 381.09,320.48 390.18,322.52 399.27,324.55 408.36,343.22 417.45,359.36 426.55,368.55 435.64,373.19 444.73,375.21 453.82,375.66 462.91,375.01 472.00,373.54 481.09,371.38 490.18,368.65 499.27,365.44 508.36,361.83 517.45,357.90 526.55,353.73 535.64,349.40 544.73,346.35 553.82,344.39 562.91,343.15 572.00,342.35 581.09,341.82 590.18,341.46 599.27,341.21 608.36,306.10 617.45,275.30 626.55,257.64 635.64,249.26 644.73,246.34 653.82,246.43 662.91,248.16 672.00,250.83 681.09,254.11 690.18,257.82 699.27,261.87 708.36,266.20 717.45,270.75 726.55,275.48 735.64,280.35 744.73,285.33 753.82,290.40 762.91,295.52 772.00,300.65 781.09,305.78 790.18,310.84 799.27,315.81 808.36,320.64 817.45,325.27 826.55,327.68 835.64,329.53 844.73,333.17 853.82,336.55 862.91,339.52 872.00,342.05 881.09,344.13 890.18,345.75 899.27,346.91 908.36,347.63 917.45,347.92 926.55,347.81 935.64,347.34 944.73,346.53 953.82,345.43 962.91,344.08 972.00,342.52 981.09,340.80 990.18,338.94 999.27,336.99 1008.36,334.98 1017.45,332.95 1026.55,330.92 1035.64,328.93 1044.73,328.53 1053.82,327.13 1062.91,325.95"/>
<text x="18" y="491" font-size="13" fill="#374151" transform="rotate(-90 18 491)">Input Qc</text>
<rect x="72" y="416" width="1000" height="150" fill="#f9fafb" stroke="#d1d5db"/>
<line x1="72" x2="1072" y1="566.00" y2="566.00" stroke="#e5e7eb"/>
<text x="64" y="570.00" font-size="10" text-anchor="end" fill="#6b7280">7.73</text>
<line x1="72" x2="1072" y1="491.00" y2="491.00" stroke="#e5e7eb"/>
<text x="64" y="495.00" font-size="10" text-anchor="end" fill="#6b7280">470.80</text>
<line x1="72" x2="1072" y1="416.00" y2="416.00" stroke="#e5e7eb"/>
<text x="64" y="420.00" font-size="10" text-anchor="end" fill="#6b7280">933.87</text>
<polyline fill="none" stroke="#047857" stroke-width="2" points="72.00,472.36 81.09,472.53 90.18,472.69 99.27,472.84 108.36,472.99 117.45,473.14 126.55,473.28 135.64,473.43 144.73,473.57 153.82,473.72 162.91,473.86 172.00,474.01 181.09,474.16 190.18,474.31 199.27,474.47 208.36,474.63 217.45,474.79 226.55,474.96 235.64,475.13 244.73,475.30 253.82,475.75 262.91,477.64 272.00,478.36 281.09,478.45 290.18,478.45 299.27,478.39 308.36,478.30 317.45,478.20 326.55,478.09 335.64,477.98 344.73,477.89 353.82,477.80 362.91,477.73 372.00,477.68 381.09,477.64 390.18,542.11 399.27,500.65 408.36,500.86 417.45,501.22 426.55,501.70 435.64,502.23 444.73,502.81 453.82,503.41 462.91,504.01 472.00,504.62 481.09,505.21 490.18,505.79 499.27,506.35 508.36,506.87 517.45,507.36 526.55,507.36 535.64,507.36 544.73,507.36 553.82,507.36 562.91,507.36 572.00,507.36 581.09,507.36 590.18,507.41 599.27,507.65 608.36,507.53 617.45,507.09 626.55,506.44 635.64,505.68 644.73,504.84 653.82,503.98 662.91,503.11 672.00,502.26 681.09,501.41 690.18,500.60 699.27,499.80 708.36,499.04 717.45,498.30 726.55,497.59 735.64,496.91 744.73,496.27 753.82,495.66 762.91,495.09 772.00,494.56 781.09,494.06 790.18,493.61 799.27,493.21 808.36,492.85 817.45,492.54 826.55,492.28 835.64,492.06 844.73,491.88 853.82,491.75 862.91,491.66 872.00,491.61 881.09,491.60 890.18,491.61 899.27,491.65 908.36,491.72 917.45,491.80 926.55,491.90 935.64,492.00 944.73,492.12 953.82,492.23 962.91,492.34 972.00,492.45 981.09,492.55 990.18,492.63 999.27,492.71 1008.36,492.77 1017.45,492.81 1026.55,492.84 1035.64,492.85 1044.73,492.84 1053.82,492.82 1062.91,492.78"/>
<polyline fill="none" stroke="#34d399" stroke-width="2" stroke-dasharray="2 5" points="72.00,475.37 81.09,458.43 90.18,450.35 99.27,450.44 108.36,457.96 117.45,472.12 126.55,492.11 135.64,517.14 144.73,546.37 153.82,555.66 162.91,555.66 172.00,555.66 181.09,555.66 190.18,555.66 199.27,555.66 208.36,555.66 217.45,555.66 226.55,555.66 235.64,555.66 244.73,555.66 253.82,555.66 262.91,555.66 272.00,555.66 281.09,426.34 290.18,426.34 299.27,426.34 308.36,426.34 317.45,426.34 326.55,426.34 335.64,426.34 344.73,426.34 353.82,426.34 362.91,426.34 372.00,426.34 381.09,426.34 390.18,426.34 399.27,426.34 408.36,555.66 417.45,555.66 426.55,555.66 435.64,555.66 444.73,555.66 453.82,555.66 462.91,555.66 472.00,555.66 481.09,555.66 490.18,555.66 499.27,555.66 508.36,555.66 517.45,555.66 526.55,555.66 535.64,555.66 544.73,555.66 553.82,555.66 562.91,555.66 572.00,555.66 581.09,555.66 590.18,555.66 599.27,555.66 608.36,426.34 617.45,426.34 626.55,426.34 635.64,426.34 644.73,426.34 653.82,426.34 662.91,426.34 672.00,426.34 681.09,426.34 690.18,426.34 699.27,426.34 708.36,426.34 717.45,426.34 726.55,426.34 735.64,426.34 744.73,426.34 753.82,426.34 762.91,426.34 772.00,426.34 781.09,426.34 790.18,426.34 799.27,426.34 808.36,426.34 817.45,426.34 826.55,555.66 835.64,555.66 844.73,555.66 853.82,555.66 862.91,555.66 872.00,555.66 881.09,555.66 890.18,555.66 899.27,555.66 908.36,555.66 917.45,555.66 926.55,555.66 935.64,555.66 944.73,555.66 953.82,555.66 962.91,555.66 972.00,555.66 981.09,555.66 990.18,555.66 999.27,555.66 1008.36,555.66 1017.45,555.66 1026.55,555.66 1035.64,555.66 1044.73,455.30 1053.82,426.34 1062.91,426.34"/>
<text x="18" y="671" font-size="13" fill="#374151" transform="rotate(-90 18 671)">Input Qm</text>
<rect x="72" y="596" width="1000" height="150" fill="#f9fafb" stroke="#d1d5db"/>
<line x1="72" x2="1072" y1="746.00" y2="746.00" stroke="#e5e7eb"/>
<text x="64" y="750.00" font-size="10" text-anchor="end" fill="#6b7280">30.64</text>
<line x1="72" x2="1072" y1="671.00" y2="671.00" stroke="#e5e7eb"/>
<text x="64" y="675.00" font-size="10" text-anchor="end" fill="#6b7280">374.00</text>
<line x1="72" x2="1072" y1="596.00" y2="596.00" stroke="#e5e7eb"/>
<text x="64" y="600.00" font-size="10" text-anchor="end" fill="#6b7280">717.36</text>
<polyline fill="none" stroke="#7c3aed" stroke-width="2" points="72.00,689.06 81.09,688.94 90.18,688.91 99.27,688.95 108.36,689.07 117.45,689.26 126.55,689.51 135.64,689.81 144.73,690.15 153.82,690.52 162.91,690.92 172.00,691.34 181.09,691.78 190.18,692.21 199.27,692.65 208.36,693.08 217.45,693.50 226.55,693.91 235.64,694.29 244.73,694.65 253.82,692.98 262.91,676.75 272.00,673.36 281.09,673.86 290.18,674.56 299.27,675.42 308.36,676.40 317.45,677.48 326.55,678.66 335.64,679.92 344.73,681.26 353.82,682.65 362.91,684.09 372.00,685.54 381.09,687.01 390.18,735.66 399.27,735.66 408.36,735.66 417.45,735.66 426.55,735.65 435.64,735.41 444.73,734.86 453.82,734.03 462.91,732.94 472.00,731.60 481.09,730.04 490.18,728.29 499.27,726.36 508.36,724.30 517.45,722.11 526.55,722.11 535.64,722.11 544.73,722.11 553.82,722.11 562.91,722.11 572.00,722.11 581.09,722.11 590.18,654.32 599.27,651.39 608.36,649.29 617.45,647.93 626.55,647.18 635.64,646.96 644.73,647.28 653.82,648.15 662.91,649.59 672.00,651.56 681.09,654.03 690.18,656.93 699.27,660.18 708.36,663.69 717.45,667.37 726.55,671.16 735.64,674.99 744.73,678.78 753.82,682.49 762.91,686.08 772.00,689.50 781.09,692.73 790.18,695.74 799.27,698.51 808.36,701.03 817.45,703.29 826.55,705.29 835.64,707.01 844.73,708.47 853.82,709.67 862.91,710.62 872.00,711.32 881.09,711.79 890.18,712.03 899.27,712.08 908.36,711.93 917.45,711.60 926.55,711.12 935.64,710.49 944.73,709.74 953.82,708.87 962.91,707.92 972.00,706.89 981.09,705.79 990.18,704.65 999.27,703.48 1008.36,702.29 1017.45,701.11 1026.55,699.93 1035.64,698.79 1044.73,697.68 1053.82,696.62 1062.91,695.62"/>
<polyline fill="none" stroke="#c084fc" stroke-width="2" stroke-dasharray="2 5" points="72.00,735.66 81.09,735.66 90.18,735.66 99.27,735.66 108.36,735.66 117.45,735.66 126.55,735.66 135.64,735.66 144.73,735.66 153.82,735.66 162.91,735.66 172.00,735.66 181.09,735.66 190.18,735.66 199.27,726.30 208.36,693.91 217.45,661.86 226.55,630.56 235.64,606.34 244.73,606.34 253.82,606.34 262.91,606.34 272.00,606.34 281.09,735.66 290.18,735.66 299.27,735.66 308.36,735.66 317.45,735.66 326.55,735.66 335.64,735.66 344.73,735.66 353.82,735.66 362.91,735.66 372.00,735.66 381.09,735.66 390.18,735.66 399.27,735.66 408.36,606.34 417.45,606.34 426.55,606.34 435.64,606.34 444.73,606.34 453.82,606.34 462.91,606.34 472.00,606.34 481.09,606.34 490.18,606.34 499.27,606.34 508.36,606.34 517.45,606.34 526.55,606.34 535.64,606.34 544.73,606.34 553.82,606.34 562.91,606.34 572.00,606.34 581.09,606.34 590.18,606.34 599.27,606.34 608.36,735.66 617.45,735.66 626.55,735.66 635.64,735.66 644.73,735.66 653.82,735.66 662.91,735.66 672.00,735.66 681.09,735.66 690.18,735.66 699.27,735.66 708.36,735.66 717.45,735.66 726.55,735.66 735.64,735.66 744.73,735.66 753.82,735.66 762.91,735.66 772.00,735.66 781.09,735.66 790.18,735.66 799.27,735.66 808.36,735.66 817.45,735.66 826.55,735.66 835.64,613.37 844.73,606.34 853.82,606.34 862.91,606.34 872.00,606.34 881.09,606.34 890.18,606.34 899.27,606.34 908.36,606.34 917.45,606.34 926.55,606.34 935.64,606.34 944.73,606.34 953.82,606.34 962.91,606.34 972.00,606.34 981.09,606.34 990.18,606.34 999.27,606.34 1008.36,606.34 1017.45,606.34 1026.55,606.34 1035.64,606.34 1044.73,606.34 1053.82,606.34 1062.91,637.35"/>
<text x="72.00" y="764" font-size="11" text-anchor="middle" fill="#374151">450</text>
<text x="572.00" y="764" font-size="11" text-anchor="middle" fill="#374151">505</text>
<text x="1072.00" y="764" font-size="11" text-anchor="middle" fill="#374151">560</text>
<line x1="682" x2="706" y1="18" y2="18" stroke="#2563eb" stroke-width="2"/><text x="711" y="22" font-size="11" fill="#374151">y eta</text>
<line x1="774" x2="798" y1="18" y2="18" stroke="#93c5fd" stroke-width="2" stroke-dasharray="7 5"/><text x="803" y="22" font-size="11" fill="#374151">sp eta</text>
<line x1="866" x2="890" y1="18" y2="18" stroke="#1d4ed8" stroke-width="2" stroke-dasharray="2 5"/><text x="895" y="22" font-size="11" fill="#374151">ys eta</text>
<line x1="958" x2="982" y1="18" y2="18" stroke="#dc2626" stroke-width="2"/><text x="987" y="22" font-size="11" fill="#374151">y T</text>
<line x1="682" x2="706" y1="36" y2="36" stroke="#fca5a5" stroke-width="2" stroke-dasharray="7 5"/><text x="711" y="40" font-size="11" fill="#374151">sp T</text>
<line x1="774" x2="798" y1="36" y2="36" stroke="#991b1b" stroke-width="2" stroke-dasharray="2 5"/><text x="803" y="40" font-size="11" fill="#374151">ys T</text>
<line x1="866" x2="890" y1="36" y2="36" stroke="#047857" stroke-width="2"/><text x="895" y="40" font-size="11" fill="#374151">u</text>
<line x1="958" x2="982" y1="36" y2="36" stroke="#34d399" stroke-width="2" stroke-dasharray="2 5"/><text x="987" y="40" font-size="11" fill="#374151">u_s</text>
</svg>