<svg xmlns="http://www.w3.org/2000/svg" width="1100" height="780" viewBox="0 0 1100 780">
<rect width="100%" height="100%" fill="white"/>
<text x="72" y="28" font-size="20" font-weight="700" fill="#111827">bounded_soft: window 80-120</text>
<text x="72" y="48" font-size="12" fill="#4b5563">solid = measured/applied, dashed = scheduled setpoint, dotted = selected steady target</text>
<text x="18" y="131" font-size="13" fill="#374151" transform="rotate(-90 18 131)">Output eta</text>
<rect x="72" y="56" width="1000" height="150" fill="#f9fafb" stroke="#d1d5db"/>
<line x1="72" x2="1072" y1="206.00" y2="206.00" stroke="#e5e7eb"/>
<text x="64" y="210.00" font-size="10" text-anchor="end" fill="#6b7280">4.36</text>
<line x1="72" x2="1072" y1="131.00" y2="131.00" stroke="#e5e7eb"/>
<text x="64" y="135.00" font-size="10" text-anchor="end" fill="#6b7280">4.43</text>
<line x1="72" x2="1072" y1="56.00" y2="56.00" stroke="#e5e7eb"/>
<text x="64" y="60.00" font-size="10" text-anchor="end" fill="#6b7280">4.51</text>
<polyline fill="none" stroke="#2563eb" stroke-width="2" points="72.00,147.55 97.00,145.03 122.00,142.60 147.00,140.27 172.00,138.03 197.00,135.87 222.00,133.80 247.00,131.81 272.00,129.91 297.00,128.07 322.00,126.32 347.00,124.62 372.00,123.00 397.00,121.44 422.00,119.93 447.00,118.48 472.00,117.08 497.00,115.74 522.00,114.43 547.00,113.18 572.00,111.96 597.00,110.78 622.00,109.64 647.00,108.53 672.00,107.45 697.00,106.41 722.00,105.39 747.00,104.40 772.00,103.43 797.00,102.49 822.00,101.57 847.00,100.68 872.00,99.81 897.00,98.96 922.00,98.12 947.00,97.31 972.00,96.52 997.00,95.74 1022.00,94.99 1047.00,94.25 1072.00,93.53"/>
<polyline fill="none" stroke="#93c5fd" stroke-width="2" stroke-dasharray="7 5" points="72.00,66.34 97.00,66.34 122.00,66.34 147.00,66.34 172.00,66.34 197.00,66.34 222.00,66.34 247.00,66.34 272.00,66.34 297.00,66.34 322.00,66.34 347.00,66.34 372.00,66.34 397.00,66.34 422.00,66.34 447.00,66.34 472.00,66.34 497.00,66.34 522.00,66.34 547.00,66.34 572.00,66.34 597.00,66.34 622.00,66.34 647.00,66.34 672.00,66.34 697.00,66.34 722.00,66.34 747.00,66.34 772.00,66.34 797.00,66.34 822.00,66.34 847.00,66.34 872.00,66.34 897.00,66.34 922.00,66.34 947.00,66.34 972.00,66.34 997.00,66.34 1022.00,66.34 1047.00,66.34"/>
<polyline fill="none" stroke="#1d4ed8" stroke-width="2" stroke-dasharray="2 5" points="72.00,195.66 97.00,192.76 122.00,189.95 147.00,187.22 172.00,184.44 197.00,181.54 222.00,178.73 247.00,175.98 272.00,173.31 297.00,170.71 322.00,168.18 347.00,165.71 372.00,163.31 397.00,160.97 422.00,158.69 447.00,156.48 472.00,154.32 497.00,152.21 522.00,150.15 547.00,148.15 572.00,146.19 597.00,144.29 622.00,142.42 647.00,140.60 672.00,138.83 697.00,137.09 722.00,135.39 747.00,133.73 772.00,132.11 797.00,130.52 822.00,128.97 847.00,127.45 872.00,125.96 897.00,124.50 922.00,123.08 947.00,121.68 972.00,120.32 997.00,118.98 1022.00,117.67 1047.00,116.39"/>
<text x="18" y="311" font-size="13" fill="#374151" transform="rotate(-90 18 311)">Output T</text>
<rect x="72" y="236" width="1000" height="150" fill="#f9fafb" stroke="#d1d5db"/>
<line x1="72" x2="1072" y1="386.00" y2="386.00" stroke="#e5e7eb"/>
<text x="64" y="390.00" font-size="10" text-anchor="end" fill="#6b7280">323.96</text>
<line x1="72" x2="1072" y1="311.00" y2="311.00" stroke="#e5e7eb"/>
<text x="64" y="315.00" font-size="10" text-anchor="end" fill="#6b7280">324.25</text>
<line x1="72" x2="1072" y1="236.00" y2="236.00" stroke="#e5e7eb"/>
<text x="64" y="240.00" font-size="10" text-anchor="end" fill="#6b7280">324.54</text>
<polyline fill="none" stroke="#dc2626" stroke-width="2" points="72.00,246.34 97.00,249.02 122.00,251.66 147.00,254.27 172.00,256.85 197.00,259.39 222.00,261.91 247.00,264.39 272.00,266.85 297.00,269.27 322.00,271.65 347.00,274.01 372.00,276.33 397.00,278.61 422.00,280.86 447.00,283.07 472.00,285.24 497.00,287.37 522.00,289.47 547.00,291.52 572.00,293.54 597.00,295.51 622.00,297.45 647.00,299.34 672.00,301.20 697.00,303.01 722.00,304.79 747.00,306.52 772.00,308.21 797.00,309.87 822.00,311.48 847.00,313.06 872.00,314.59 897.00,316.09 922.00,317.55 947.00,318.98 972.00,320.37 997.00,321.73 1022.00,323.05 1047.00,324.33 1072.00,325.59"/>
<polyline fill="none" stroke="#fca5a5" stroke-width="2" stroke-dasharray="7 5" points="72.00,375.66 97.00,375.66 122.00,375.66 147.00,375.66 172.00,375.66 197.00,375.66 222.00,375.66 247.00,375.66 272.00,375.66 297.00,375.66 322.00,375.66 347.00,375.66 372.00,375.66 397.00,375.66 422.00,375.66 447.00,375.66 472.00,375.66 497.00,375.66 522.00,375.66 547.00,375.66 572.00,375.66 597.00,375.66 622.00,375.66 647.00,375.66 672.00,375.66 697.00,375.66 722.00,375.66 747.00,375.66 772.00,375.66 797.00,375.66 822.00,375.66 847.00,375.66 872.00,375.66 897.00,375.66 922.00,375.66 947.00,375.66 972.00,375.66 997.00,375.66 1022.00,375.66 1047.00,375.66"/>
<polyline fill="none" stroke="#991b1b" stroke-width="2" stroke-dasharray="2 5" points="72.00,346.21 97.00,348.30 122.00,350.38 147.00,352.45 172.00,353.90 197.00,354.43 222.00,354.95 247.00,355.46 272.00,355.95 297.00,356.43 322.00,356.90 347.00,357.35 372.00,357.79 397.00,358.22 422.00,358.64 447.00,359.05 472.00,359.45 497.00,359.84 522.00,360.22 547.00,360.59 572.00,360.95 597.00,361.30 622.00,361.64 647.00,361.98 672.00,362.30 697.00,362.62 722.00,362.94 747.00,363.24 772.00,363.54 797.00,363.83 822.00,364.12 847.00,364.40 872.00,364.67 897.00,364.94 922.00,365.20 947.00,365.46 972.00,365.71 997.00,365.96 1022.00,366.20 1047.00,366.44"/>
<text x="18" y="491" font-size="13" fill="#374151" transform="rotate(-90 18 491)">Input Qc</text>
<rect x="72" y="416" width="1000" height="150" fill="#f9fafb" stroke="#d1d5db"/>
<line x1="72" x2="1072" y1="566.00" y2="566.00" stroke="#e5e7eb"/>
<text x="64" y="570.00" font-size="10" text-anchor="end" fill="#6b7280">565.09</text>
<line x1="72" x2="1072" y1="491.00" y2="491.00" stroke="#e5e7eb"/>
<text x="64" y="495.00" font-size="10" text-anchor="end" fill="#6b7280">728.84</text>
<line x1="72" x2="1072" y1="416.00" y2="416.00" stroke="#e5e7eb"/>
<text x="64" y="420.00" font-size="10" text-anchor="end" fill="#6b7280">892.59</text>
<polyline fill="none" stroke="#047857" stroke-width="2" points="72.00,555.66 97.00,555.29 122.00,554.93 147.00,554.57 172.00,554.23 197.00,553.90 222.00,553.57 247.00,553.25 272.00,552.94 297.00,552.63 322.00,552.33 347.00,552.04 372.00,551.76 397.00,551.48 422.00,551.21 447.00,550.95 472.00,550.69 497.00,550.44 522.00,550.20 547.00,549.96 572.00,549.73 597.00,549.50 622.00,549.28 647.00,549.06 672.00,548.85 697.00,548.65 722.00,548.45 747.00,548.25 772.00,548.06 797.00,547.88 822.00,547.70 847.00,547.52 872.00,547.35 897.00,547.18 922.00,547.01 947.00,546.85 972.00,546.70 997.00,546.55 1022.00,546.40 1047.00,546.25"/>
<polyline fill="none" stroke="#34d399" stroke-width="2" stroke-dasharray="2 5" points="72.00,426.34 97.00,426.34 122.00,426.34 147.00,426.34 172.00,426.34 197.00,426.34 222.00,426.34 247.00,426.34 272.00,426.34 297.00,426.34 322.00,426.34 347.00,426.34 372.00,426.34 397.00,426.34 422.00,426.34 447.00,426.34 472.00,426.34 497.00,426.34 522.00,426.34 547.00,426.34 572.00,426.34 597.00,426.34 622.00,426.34 647.00,426.34 672.00,426.34 697.00,426.34 722.00,426.34 747.00,426.34 772.00,426.34 797.00,426.34 822.00,426.34 847.00,426.34 872.00,426.34 897.00,426.34 922.00,426.34 947.00,426.34 972.00,426.34 997.00,426.34 1022.00,426.34 1047.00,426.34"/>
<text x="18" y="671" font-size="13" fill="#374151" transform="rotate(-90 18 671)">Input Qm</text>
<rect x="72" y="596" width="1000" height="150" fill="#f9fafb" stroke="#d1d5db"/>
<line x1="72" x2="1072" y1="746.00" y2="746.00" stroke="#e5e7eb"/>
<text x="64" y="750.00" font-size="10" text-anchor="end" fill="#6b7280">44.25</text>
<line x1="72" x2="1072" y1="671.00" y2="671.00" stroke="#e5e7eb"/>
<text x="64" y="675.00" font-size="10" text-anchor="end" fill="#6b7280">288.93</text>
<line x1="72" x2="1072" y1="596.00" y2="596.00" stroke="#e5e7eb"/>
<text x="64" y="600.00" font-size="10" text-anchor="end" fill="#6b7280">533.61</text>
<polyline fill="none" stroke="#7c3aed" stroke-width="2" points="72.00,606.37 97.00,606.36 122.00,606.35 147.00,606.35 172.00,606.34 197.00,606.34 222.00,606.35 247.00,606.35 272.00,606.35 297.00,606.36 322.00,606.36 347.00,606.37 372.00,606.38 397.00,606.39 422.00,606.39 447.00,606.40 472.00,606.41 497.00,606.41 522.00,606.42 547.00,606.43 572.00,606.44 597.00,606.44 622.00,606.45 647.00,606.45 672.00,606.46 697.00,606.46 722.00,606.47 747.00,606.47 772.00,606.48 797.00,606.48 822.00,606.48 847.00,606.49 872.00,606.49 897.00,606.49 922.00,606.49 947.00,606.50 972.00,606.50 997.00,606.50 1022.00,606.50 1047.00,606.51"/>
<polyline fill="none" stroke="#c084fc" stroke-width="2" stroke-dasharray="2 5" points="72.00,735.66 97.00,735.66 122.00,735.66 147.00,735.66 172.00,733.76 197.00,729.07 222.00,724.41 247.00,719.80 272.00,715.25 297.00,710.78 322.00,706.39 347.00,702.09 372.00,697.89 397.00,693.80 422.00,689.82 447.00,685.95 472.00,682.21 497.00,678.59 522.00,675.09 547.00,671.71 572.00,668.45 597.00,665.32 622.00,662.30 647.00,659.40 672.00,656.61 697.00,653.93 722.00,651.36 747.00,648.89 772.00,646.52 797.00,644.24 822.00,642.04 847.00,639.94 872.00,637.91 897.00,635.96 922.00,634.08 947.00,632.27 972.00,630.52 997.00,628.83 1022.00,627.19 1047.00,625.61"/>
<text x="72.00" y="764" font-size="11" text-anchor="middle" fill="#374151">80</text>
<text x="572.00" y="764" font-size="11" text-anchor="middle" fill="#374151">100</text>
<text x="1072.00" y="764" font-size="11" text-anchor="middle" fill="#374151">120</text>
<line x1="682" x2="706" y1="18" y2="18" stroke="#2563eb" stroke-width="2"/><text x="711" y="22" font-size="11" fill="#374151">y eta</text>
<line x1="774" x2="798" y1="18" y2="18" stroke="#93c5fd" stroke-width="2" stroke-dasharray="7 5"/><text x="803" y="22" font-size="11" fill="#374151">sp eta</text>
<line x1="866" x2="890" y1="18" y2="18" stroke="#1d4ed8" stroke-width="2" stroke-dasharray="2 5"/><text x="895" y="22" font-size="11" fill="#374151">ys eta</text>
<line x1="958" x2="982" y1="18" y2="18" stroke="#dc2626" stroke-width="2"/><text x="987" y="22" font-size="11" fill="#374151">y T</text>
<line x1="682" x2="706" y1="36" y2="36" stroke="#fca5a5" stroke-width="2" stroke-dasharray="7 5"/><text x="711" y="40" font-size="11" fill="#374151">sp T</text>
<line x1="774" x2="798" y1="36" y2="36" stroke="#991b1b" stroke-width="2" stroke-dasharray="2 5"/><text x="803" y="40" font-size="11" fill="#374151">ys T</text>
<line x1="866" x2="890" y1="36" y2="36" stroke="#047857" stroke-width="2"/><text x="895" y="40" font-size="11" fill="#374151">u</text>
<line x1="958" x2="982" y1="36" y2="36" stroke="#34d399" stroke-width="2" stroke-dasharray="2 5"/><text x="987" y="40" font-size="11" fill="#374151">u_s</text>
</svg>