<svg xmlns="http://www.w3.org/2000/svg" width="900" height="330" viewBox="0 0 900 330">
<rect width="100%" height="100%" fill="white"/>
<text x="70" y="28" font-size="19" font-weight="700" fill="#111827">bounded_hard: physical-equivalent d_hat, steps 450-560</text>
<rect x="70" y="50" width="790" height="210" fill="#f9fafb" stroke="#d1d5db"/>
<line x1="70" x2="860" y1="260.00" y2="260.00" stroke="#e5e7eb"/>
<text x="62" y="264.00" font-size="11" text-anchor="end" fill="#6b7280">-8.62</text>
<line x1="70" x2="860" y1="207.50" y2="207.50" stroke="#e5e7eb"/>
<text x="62" y="211.50" font-size="11" text-anchor="end" fill="#6b7280">-4.83</text>
<line x1="70" x2="860" y1="155.00" y2="155.00" stroke="#e5e7eb"/>
<text x="62" y="159.00" font-size="11" text-anchor="end" fill="#6b7280">-1.04</text>
<line x1="70" x2="860" y1="102.50" y2="102.50" stroke="#e5e7eb"/>
<text x="62" y="106.50" font-size="11" text-anchor="end" fill="#6b7280">2.75</text>
<line x1="70" x2="860" y1="50.00" y2="50.00" stroke="#e5e7eb"/>
<text x="62" y="54.00" font-size="11" text-anchor="end" fill="#6b7280">6.54</text>
<polyline fill="none" stroke="#2563eb" stroke-width="2.2" points="70.00,144.82 77.18,144.66 84.36,144.51 91.55,144.36 98.73,144.21 105.91,144.08 113.09,143.97 120.27,143.87 127.45,143.78 134.64,143.71 141.82,143.66 149.00,143.63 156.18,143.61 163.36,143.61 170.55,143.62 177.73,143.64 184.91,143.68 192.09,143.73 199.27,143.79 206.45,143.86 213.64,143.93 220.82,144.02 228.00,144.10 235.18,144.18 242.36,144.21 249.55,144.16 256.73,144.03 263.91,143.82 271.09,143.56 278.27,143.28 285.45,142.99 292.64,142.73 299.82,142.51 307.00,142.33 314.18,142.20 321.36,142.12 328.55,142.09 335.73,142.15 342.91,142.33 350.09,142.68 357.27,143.20 364.45,143.84 371.64,144.56 378.82,145.32 386.00,146.09 393.18,146.85 400.36,147.59 407.55,148.29 414.73,148.97 421.91,149.62 429.09,150.23 436.27,150.82 443.45,151.37 450.64,151.88 457.82,152.37 465.00,152.81 472.18,153.23 479.36,153.61 486.55,153.96 493.73,154.24 500.91,154.32 508.09,154.04 515.27,153.32 522.45,152.17 529.64,150.68 536.82,149.00 544.00,147.28 551.18,145.65 558.36,144.20 565.55,142.99 572.73,142.03 579.91,141.32 587.09,140.83 594.27,140.55 601.45,140.43 608.64,140.45 615.82,140.59 623.00,140.82 630.18,141.11 637.36,141.46 644.55,141.84 651.73,142.26 658.91,142.69 666.09,143.13 673.27,143.58 680.45,144.03 687.64,144.48 694.82,144.92 702.00,145.35 709.18,145.78 716.36,146.20 723.55,146.60 730.73,147.00 737.91,147.38 745.09,147.74 752.27,148.09 759.45,148.43 766.64,148.75 773.82,149.04 781.00,149.32 788.18,149.57 795.36,149.79 802.55,149.99 809.73,150.15 816.91,150.29 824.09,150.39 831.27,150.45 838.45,150.48 845.64,150.48 852.82,150.44 860.00,150.37"/>
<polyline fill="none" stroke="#dc2626" stroke-width="2.2" points="70.00,173.68 77.18,173.26 84.36,173.03 91.55,172.96 98.73,173.05 105.91,173.28 113.09,173.64 120.27,174.10 127.45,174.66 134.64,175.30 141.82,175.99 149.00,176.74 156.18,177.51 163.36,178.30 170.55,179.10 177.73,179.89 184.91,180.67 192.09,181.42 199.27,182.13 206.45,182.80 213.64,183.42 220.82,183.99 228.00,183.13 235.18,171.33 242.36,160.01 249.55,153.37 256.73,150.52 263.91,150.02 271.09,150.88 278.27,152.50 285.45,154.55 292.64,156.86 299.82,159.33 307.00,161.91 314.18,164.56 321.36,167.23 328.55,169.89 335.73,200.03 342.91,221.17 350.09,233.19 357.27,239.27 364.45,241.92 371.64,242.50 378.82,241.66 386.00,239.73 393.18,236.91 400.36,233.33 407.55,229.13 414.73,224.40 421.91,219.26 429.09,213.80 436.27,208.13 443.45,204.13 450.64,201.57 457.82,199.95 465.00,198.90 472.18,198.20 479.36,197.73 486.55,197.40 493.73,145.73 500.91,105.41 508.09,82.29 515.27,71.32 522.45,67.50 529.64,67.61 536.82,69.87 544.00,73.37 551.18,77.67 558.36,82.53 565.55,87.83 572.73,93.49 579.91,99.45 587.09,105.64 594.27,112.02 601.45,118.55 608.64,125.18 615.82,131.88 623.00,138.60 630.18,145.31 637.36,151.94 644.55,158.45 651.73,164.77 658.91,170.84 666.09,176.58 673.27,181.95 680.45,186.87 687.64,191.30 694.82,195.19 702.00,198.50 709.18,201.23 716.36,203.35 723.55,204.87 730.73,205.81 737.91,206.19 745.09,206.05 752.27,205.42 759.45,204.37 766.64,202.93 773.82,201.17 781.00,199.12 788.18,196.86 795.36,194.43 802.55,191.87 809.73,189.24 816.91,186.58 824.09,183.93 831.27,181.33 838.45,178.80 845.64,176.37 852.82,174.08 860.00,171.94"/>
<text x="70.00" y="282" font-size="11" text-anchor="middle" fill="#374151">450</text>
<text x="465.00" y="282" font-size="11" text-anchor="middle" fill="#374151">505</text>
<text x="860.00" y="282" font-size="11" text-anchor="middle" fill="#374151">560</text>
<line x1="690" x2="715" y1="24" y2="24" stroke="#2563eb" stroke-width="2.2"/><text x="722" y="28" font-size="12" fill="#374151">d_hat eta equiv.</text>
<line x1="690" x2="715" y1="42" y2="42" stroke="#dc2626" stroke-width="2.2"/><text x="722" y="46" font-size="12" fill="#374151">d_hat T equiv.</text>
<text x="70" y="305" font-size="12" fill="#4b5563">These are scaled disturbance states multiplied by the physical output ranges; they are model-mismatch estimates, not external plant disturbances.</text>
</svg>