<svg xmlns="http://www.w3.org/2000/svg" width="900" height="330" viewBox="0 0 900 330">
<rect width="100%" height="100%" fill="white"/>
<text x="70" y="28" font-size="19" font-weight="700" fill="#111827">bounded_soft: physical-equivalent d_hat, steps 450-560</text>
<rect x="70" y="50" width="790" height="210" fill="#f9fafb" stroke="#d1d5db"/>
<line x1="70" x2="860" y1="260.00" y2="260.00" stroke="#e5e7eb"/>
<text x="62" y="264.00" font-size="11" text-anchor="end" fill="#6b7280">-7.69</text>
<line x1="70" x2="860" y1="207.50" y2="207.50" stroke="#e5e7eb"/>
<text x="62" y="211.50" font-size="11" text-anchor="end" fill="#6b7280">-2.82</text>
<line x1="70" x2="860" y1="155.00" y2="155.00" stroke="#e5e7eb"/>
<text x="62" y="159.00" font-size="11" text-anchor="end" fill="#6b7280">2.06</text>
<line x1="70" x2="860" y1="102.50" y2="102.50" stroke="#e5e7eb"/>
<text x="62" y="106.50" font-size="11" text-anchor="end" fill="#6b7280">6.93</text>
<line x1="70" x2="860" y1="50.00" y2="50.00" stroke="#e5e7eb"/>
<text x="62" y="54.00" font-size="11" text-anchor="end" fill="#6b7280">11.80</text>
<polyline fill="none" stroke="#2563eb" stroke-width="2.2" points="70.00,179.50 77.18,179.39 84.36,179.27 91.55,179.16 98.73,179.06 105.91,178.96 113.09,178.86 120.27,178.78 127.45,178.71 134.64,178.65 141.82,178.61 149.00,178.57 156.18,178.55 163.36,178.54 170.55,178.54 177.73,178.55 184.91,178.57 192.09,178.61 199.27,178.64 206.45,178.69 213.64,178.75 220.82,178.81 228.00,178.87 235.18,178.94 242.36,179.01 249.55,179.06 256.73,179.07 263.91,179.01 271.09,178.90 278.27,178.73 285.45,178.54 292.64,178.33 299.82,178.14 307.00,177.96 314.18,177.81 321.36,177.70 328.55,177.63 335.73,177.59 342.91,177.58 350.09,177.61 357.27,177.69 364.45,177.85 371.64,178.14 378.82,178.56 386.00,179.08 393.18,179.67 400.36,180.31 407.55,180.96 414.73,181.63 421.91,182.28 429.09,182.93 436.27,183.56 443.45,184.17 450.64,184.71 457.82,185.11 465.00,185.25 472.18,185.06 479.36,184.56 486.55,183.82 493.73,182.94 500.91,182.04 508.09,181.22 515.27,180.55 522.45,180.07 529.64,179.77 536.82,179.66 544.00,179.72 551.18,179.93 558.36,180.25 565.55,180.66 572.73,181.14 579.91,181.67 587.09,182.23 594.27,182.81 601.45,183.39 608.64,183.97 615.82,184.54 623.00,185.09 630.18,185.62 637.36,186.13 644.55,186.62 651.73,187.08 658.91,187.52 666.09,187.93 673.27,188.32 680.45,188.70 687.64,189.06 694.82,189.40 702.00,189.72 709.18,190.03 716.36,190.32 723.55,190.60 730.73,190.85 737.91,191.07 745.09,191.25 752.27,191.39 759.45,191.47 766.64,191.50 773.82,191.45 781.00,191.33 788.18,191.14 795.36,190.87 802.55,190.53 809.73,190.12 816.91,189.66 824.09,189.16 831.27,188.64 838.45,188.10 845.64,187.56 852.82,187.03 860.00,186.53"/>
<polyline fill="none" stroke="#dc2626" stroke-width="2.2" points="70.00,208.20 77.18,207.80 84.36,207.53 91.55,207.40 98.73,207.38 105.91,207.48 113.09,207.67 120.27,207.95 127.45,208.31 134.64,208.72 141.82,209.19 149.00,209.70 156.18,210.23 163.36,210.79 170.55,211.35 177.73,211.91 184.91,212.47 192.09,213.01 199.27,213.52 206.45,214.01 213.64,214.46 220.82,214.87 228.00,215.24 235.18,215.57 242.36,211.92 249.55,201.71 256.73,194.62 263.91,191.10 271.09,189.99 278.27,190.28 285.45,191.33 292.64,192.79 299.82,194.47 307.00,196.28 314.18,198.15 321.36,200.06 328.55,201.99 335.73,203.90 342.91,205.79 350.09,204.13 357.27,223.28 364.45,236.03 371.64,240.72 378.82,240.21 386.00,237.05 393.18,232.76 400.36,228.12 407.55,223.46 414.73,218.92 421.91,214.53 429.09,210.28 436.27,206.14 443.45,178.20 450.64,132.50 457.82,100.44 465.00,82.21 472.18,72.99 479.36,68.88 486.55,67.50 493.73,67.59 500.91,68.52 508.09,70.02 515.27,71.98 522.45,74.40 529.64,77.29 536.82,80.75 544.00,84.83 551.18,89.65 558.36,95.30 565.55,101.86 572.73,109.41 579.91,117.95 587.09,127.47 594.27,137.89 601.45,149.04 608.64,160.72 615.82,172.64 623.00,184.48 630.18,195.91 637.36,206.57 644.55,216.10 651.73,224.30 658.91,231.02 666.09,236.19 673.27,239.79 680.45,241.86 687.64,242.50 694.82,241.85 702.00,240.07 709.18,237.35 716.36,233.87 723.55,229.80 730.73,225.32 737.91,220.57 745.09,215.67 752.27,210.76 759.45,205.91 766.64,201.22 773.82,196.74 781.00,192.54 788.18,188.65 795.36,185.13 802.55,181.99 809.73,179.27 816.91,176.97 824.09,175.10 831.27,173.66 838.45,172.65 845.64,172.06 852.82,171.86 860.00,172.03"/>
<text x="70.00" y="282" font-size="11" text-anchor="middle" fill="#374151">450</text>
<text x="465.00" y="282" font-size="11" text-anchor="middle" fill="#374151">505</text>
<text x="860.00" y="282" font-size="11" text-anchor="middle" fill="#374151">560</text>
<line x1="690" x2="715" y1="24" y2="24" stroke="#2563eb" stroke-width="2.2"/><text x="722" y="28" font-size="12" fill="#374151">d_hat eta equiv.</text>
<line x1="690" x2="715" y1="42" y2="42" stroke="#dc2626" stroke-width="2.2"/><text x="722" y="46" font-size="12" fill="#374151">d_hat T equiv.</text>
<text x="70" y="305" font-size="12" fill="#4b5563">These are scaled disturbance states multiplied by the physical output ranges; they are model-mismatch estimates, not external plant disturbances.</text>
</svg>