<svg xmlns="http://www.w3.org/2000/svg" width="1100" height="780" viewBox="0 0 1100 780">
<rect width="100%" height="100%" fill="white"/>
<text x="72" y="28" font-size="20" font-weight="700" fill="#111827">bounded_hard: window 220-320</text>
<text x="72" y="48" font-size="12" fill="#4b5563">solid = measured/applied, dashed = scheduled setpoint, dotted = selected steady target</text>
<text x="18" y="131" font-size="13" fill="#374151" transform="rotate(-90 18 131)">Output eta</text>
<rect x="72" y="56" width="1000" height="150" fill="#f9fafb" stroke="#d1d5db"/>
<line x1="72" x2="1072" y1="206.00" y2="206.00" stroke="#e5e7eb"/>
<text x="64" y="210.00" font-size="10" text-anchor="end" fill="#6b7280">3.03</text>
<line x1="72" x2="1072" y1="131.00" y2="131.00" stroke="#e5e7eb"/>
<text x="64" y="135.00" font-size="10" text-anchor="end" fill="#6b7280">3.95</text>
<line x1="72" x2="1072" y1="56.00" y2="56.00" stroke="#e5e7eb"/>
<text x="64" y="60.00" font-size="10" text-anchor="end" fill="#6b7280">4.88</text>
<polyline fill="none" stroke="#2563eb" stroke-width="2" points="72.00,87.10 82.00,87.11 92.00,87.13 102.00,87.17 112.00,87.22 122.00,87.27 132.00,87.32 142.00,87.10 152.00,86.12 162.00,84.37 172.00,82.14 182.00,79.68 192.00,77.18 202.00,74.77 212.00,72.55 222.00,70.58 232.00,68.88 242.00,67.47 252.00,66.34 262.00,67.75 272.00,72.32 282.00,78.56 292.00,85.72 302.00,93.35 312.00,101.21 322.00,109.14 332.00,117.06 342.00,124.90 352.00,132.64 362.00,140.25 372.00,147.68 382.00,154.92 392.00,161.54 402.00,166.91 412.00,170.77 422.00,173.07 432.00,173.97 442.00,173.72 452.00,172.67 462.00,171.13 472.00,169.39 482.00,167.69 492.00,166.21 502.00,165.08 512.00,164.36 522.00,164.10 532.00,164.32 542.00,165.00 552.00,166.13 562.00,167.68 572.00,169.58 582.00,171.81 592.00,174.30 602.00,176.99 612.00,179.85 622.00,182.79 632.00,185.78 642.00,188.77 652.00,191.69 662.00,194.51 672.00,195.66 682.00,194.01 692.00,190.28 702.00,185.16 712.00,179.26 722.00,173.04 732.00,166.83 742.00,160.85 752.00,155.24 762.00,150.07 772.00,145.35 782.00,141.10 792.00,137.27 802.00,133.84 812.00,130.75 822.00,127.97 832.00,125.44 842.00,123.13 852.00,120.99 862.00,118.99 872.00,117.11 882.00,115.30 892.00,113.55 902.00,111.84 912.00,110.16 922.00,108.50 932.00,106.84 942.00,105.19 952.00,103.53 962.00,101.88 972.00,100.22 982.00,98.57 992.00,96.93 1002.00,95.30 1012.00,93.70 1022.00,92.12 1032.00,90.57 1042.00,89.06 1052.00,87.61 1062.00,86.20 1072.00,84.86"/>
<polyline fill="none" stroke="#93c5fd" stroke-width="2" stroke-dasharray="7 5" points="72.00,86.92 82.00,86.92 92.00,86.92 102.00,86.92 112.00,86.92 122.00,86.92 132.00,86.92 142.00,86.92 152.00,86.92 162.00,86.92 172.00,86.92 182.00,86.92 192.00,86.92 202.00,86.92 212.00,86.92 222.00,86.92 232.00,86.92 242.00,86.92 252.00,86.92 262.00,86.92 272.00,86.92 282.00,86.92 292.00,86.92 302.00,86.92 312.00,86.92 322.00,86.92 332.00,86.92 342.00,86.92 352.00,86.92 362.00,86.92 372.00,86.92 382.00,86.92 392.00,86.92 402.00,86.92 412.00,86.92 422.00,86.92 432.00,86.92 442.00,86.92 452.00,86.92 462.00,86.92 472.00,86.92 482.00,86.92 492.00,86.92 502.00,86.92 512.00,86.92 522.00,86.92 532.00,86.92 542.00,86.92 552.00,86.92 562.00,86.92 572.00,86.92 582.00,86.92 592.00,86.92 602.00,86.92 612.00,86.92 622.00,86.92 632.00,86.92 642.00,86.92 652.00,86.92 662.00,86.92 672.00,86.92 682.00,86.92 692.00,86.92 702.00,86.92 712.00,86.92 722.00,86.92 732.00,86.92 742.00,86.92 752.00,86.92 762.00,86.92 772.00,86.92 782.00,86.92 792.00,86.92 802.00,86.92 812.00,86.92 822.00,86.92 832.00,86.92 842.00,86.92 852.00,86.92 862.00,86.92 872.00,86.92 882.00,86.92 892.00,86.92 902.00,86.92 912.00,86.92 922.00,86.92 932.00,86.92 942.00,86.92 952.00,86.92 962.00,86.92 972.00,86.92 982.00,86.92 992.00,86.92 1002.00,86.92 1012.00,86.92 1022.00,86.92 1032.00,86.92 1042.00,86.92 1052.00,86.92 1062.00,86.92"/>
<polyline fill="none" stroke="#1d4ed8" stroke-width="2" stroke-dasharray="2 5" points="72.00,86.93 82.00,86.92 92.00,86.92 102.00,86.92 112.00,86.94 122.00,87.00 132.00,87.05 142.00,87.10 152.00,87.94 162.00,87.70 172.00,87.04 182.00,85.84 192.00,84.15 202.00,82.10 212.00,79.89 222.00,77.69 232.00,75.64 242.00,73.83 252.00,72.32 262.00,71.12 272.00,70.18 282.00,71.21 292.00,74.12 302.00,78.81 312.00,84.84 322.00,91.69 332.00,98.91 342.00,106.16 352.00,113.24 362.00,120.05 372.00,126.55 382.00,132.75 392.00,138.11 402.00,144.68 412.00,149.68 422.00,153.81 432.00,156.81 442.00,158.52 452.00,158.98 462.00,158.34 472.00,156.88 482.00,154.94 492.00,152.82 502.00,150.79 512.00,149.08 522.00,147.82 532.00,147.11 542.00,146.96 552.00,147.38 562.00,148.34 572.00,149.76 582.00,151.61 592.00,153.80 602.00,156.27 612.00,158.95 622.00,161.78 632.00,164.71 642.00,167.67 652.00,170.62 662.00,173.52 672.00,176.31 682.00,178.69 692.00,179.95 702.00,179.57 712.00,177.37 722.00,173.60 732.00,168.71 742.00,163.23 752.00,157.62 762.00,152.23 772.00,147.30 782.00,142.94 792.00,139.18 802.00,136.01 812.00,133.36 822.00,131.16 832.00,129.33 842.00,127.77 852.00,126.43 862.00,125.24 872.00,123.32 882.00,122.09 892.00,121.40 902.00,120.58 912.00,119.54 922.00,118.46 932.00,117.34 942.00,116.18 952.00,114.97 962.00,113.71 972.00,112.42 982.00,111.09 992.00,109.73 1002.00,108.35 1012.00,106.95 1022.00,105.55 1032.00,104.15 1042.00,102.76 1052.00,101.39 1062.00,100.05"/>
<rect x="262.00" y="56" width="10.00" height="150" fill="#9ca3af" opacity="0.22"/>
<text x="18" y="311" font-size="13" fill="#374151" transform="rotate(-90 18 311)">Output T</text>
<rect x="72" y="236" width="1000" height="150" fill="#f9fafb" stroke="#d1d5db"/>
<line x1="72" x2="1072" y1="386.00" y2="386.00" stroke="#e5e7eb"/>
<text x="64" y="390.00" font-size="10" text-anchor="end" fill="#6b7280">318.03</text>
<line x1="72" x2="1072" y1="311.00" y2="311.00" stroke="#e5e7eb"/>
<text x="64" y="315.00" font-size="10" text-anchor="end" fill="#6b7280">327.60</text>
<line x1="72" x2="1072" y1="236.00" y2="236.00" stroke="#e5e7eb"/>
<text x="64" y="240.00" font-size="10" text-anchor="end" fill="#6b7280">337.18</text>
<polyline fill="none" stroke="#dc2626" stroke-width="2" points="72.00,339.11 82.00,339.13 92.00,339.15 102.00,339.19 112.00,339.22 122.00,339.25 132.00,339.28 142.00,338.90 152.00,338.10 162.00,337.39 172.00,336.75 182.00,336.19 192.00,335.71 202.00,335.31 212.00,334.99 222.00,334.73 232.00,334.55 242.00,334.43 252.00,334.37 262.00,337.33 272.00,339.88 282.00,342.07 292.00,343.91 302.00,345.40 312.00,346.56 322.00,347.41 332.00,347.94 342.00,348.18 352.00,348.13 362.00,347.80 372.00,347.22 382.00,346.38 392.00,343.28 402.00,339.91 412.00,336.37 422.00,332.72 432.00,329.02 442.00,325.31 452.00,321.61 462.00,317.95 472.00,314.36 482.00,310.83 492.00,307.40 502.00,304.08 512.00,300.87 522.00,297.78 532.00,294.84 542.00,292.05 552.00,289.43 562.00,287.00 572.00,284.77 582.00,282.76 592.00,281.00 602.00,279.51 612.00,278.31 622.00,277.43 632.00,276.88 642.00,276.69 652.00,276.87 662.00,277.42 672.00,278.64 682.00,279.32 692.00,279.74 702.00,280.06 712.00,280.39 722.00,280.79 732.00,281.30 742.00,281.97 752.00,282.80 762.00,283.80 772.00,284.98 782.00,286.33 792.00,287.84 802.00,289.50 812.00,291.29 822.00,293.20 832.00,295.21 842.00,297.30 852.00,299.44 862.00,301.62 872.00,303.80 882.00,305.99 892.00,308.14 902.00,310.25 912.00,312.31 922.00,314.29 932.00,316.20 942.00,318.01 952.00,319.73 962.00,321.36 972.00,322.88 982.00,324.31 992.00,325.64 1002.00,326.88 1012.00,328.03 1022.00,329.09 1032.00,330.07 1042.00,330.97 1052.00,331.80 1062.00,332.57 1072.00,333.28"/>
<polyline fill="none" stroke="#fca5a5" stroke-width="2" stroke-dasharray="7 5" points="72.00,339.24 82.00,339.24 92.00,339.24 102.00,339.24 112.00,339.24 122.00,339.24 132.00,339.24 142.00,339.24 152.00,339.24 162.00,339.24 172.00,339.24 182.00,339.24 192.00,339.24 202.00,339.24 212.00,339.24 222.00,339.24 232.00,339.24 242.00,339.24 252.00,339.24 262.00,339.24 272.00,339.24 282.00,339.24 292.00,339.24 302.00,339.24 312.00,339.24 322.00,339.24 332.00,339.24 342.00,339.24 352.00,339.24 362.00,339.24 372.00,339.24 382.00,339.24 392.00,339.24 402.00,339.24 412.00,339.24 422.00,339.24 432.00,339.24 442.00,339.24 452.00,339.24 462.00,339.24 472.00,339.24 482.00,339.24 492.00,339.24 502.00,339.24 512.00,339.24 522.00,339.24 532.00,339.24 542.00,339.24 552.00,339.24 562.00,339.24 572.00,339.24 582.00,339.24 592.00,339.24 602.00,339.24 612.00,339.24 622.00,339.24 632.00,339.24 642.00,339.24 652.00,339.24 662.00,339.24 672.00,339.24 682.00,339.24 692.00,339.24 702.00,339.24 712.00,339.24 722.00,339.24 732.00,339.24 742.00,339.24 752.00,339.24 762.00,339.24 772.00,339.24 782.00,339.24 792.00,339.24 802.00,339.24 812.00,339.24 822.00,339.24 832.00,339.24 842.00,339.24 852.00,339.24 862.00,339.24 872.00,339.24 882.00,339.24 892.00,339.24 902.00,339.24 912.00,339.24 922.00,339.24 932.00,339.24 942.00,339.24 952.00,339.24 962.00,339.24 972.00,339.24 982.00,339.24 992.00,339.24 1002.00,339.24 1012.00,339.24 1022.00,339.24 1032.00,339.24 1042.00,339.24 1052.00,339.24 1062.00,339.24"/>
<polyline fill="none" stroke="#991b1b" stroke-width="2" stroke-dasharray="2 5" points="72.00,339.24 82.00,339.24 92.00,339.24 102.00,339.24 112.00,339.24 122.00,339.24 132.00,339.25 142.00,339.25 152.00,338.67 162.00,333.48 172.00,330.10 182.00,328.54 192.00,328.19 202.00,328.52 212.00,329.20 222.00,330.06 232.00,331.02 242.00,332.01 252.00,333.02 262.00,334.03 272.00,352.59 282.00,367.59 292.00,374.36 302.00,375.66 312.00,373.87 322.00,370.46 332.00,366.22 342.00,361.55 352.00,356.64 362.00,351.59 372.00,346.47 382.00,341.30 392.00,337.59 402.00,320.10 412.00,302.90 422.00,290.00 432.00,280.55 442.00,273.48 452.00,268.00 462.00,263.59 472.00,259.96 482.00,256.91 492.00,254.33 502.00,252.16 512.00,250.35 522.00,248.87 532.00,247.73 542.00,246.91 552.00,246.44 562.00,246.34 572.00,246.67 582.00,247.45 592.00,248.73 602.00,250.58 612.00,253.05 622.00,256.17 632.00,259.97 642.00,264.48 652.00,269.68 662.00,275.53 672.00,281.96 682.00,291.34 692.00,294.35 702.00,293.58 712.00,291.89 722.00,290.77 732.00,290.75 742.00,291.83 752.00,293.87 762.00,296.65 772.00,300.00 782.00,303.73 792.00,307.72 802.00,311.86 812.00,316.05 822.00,320.21 832.00,324.25 842.00,328.13 852.00,331.78 862.00,335.16 872.00,336.80 882.00,339.21 892.00,340.71 902.00,342.17 912.00,343.86 922.00,345.21 932.00,346.25 942.00,347.00 952.00,347.49 962.00,347.76 972.00,347.83 982.00,347.75 992.00,347.55 1002.00,347.24 1012.00,346.87 1022.00,346.45 1032.00,346.00 1042.00,345.54 1052.00,345.09 1062.00,344.65"/>
<text x="18" y="491" font-size="13" fill="#374151" transform="rotate(-90 18 491)">Input Qc</text>
<rect x="72" y="416" width="1000" height="150" fill="#f9fafb" stroke="#d1d5db"/>
<line x1="72" x2="1072" y1="566.00" y2="566.00" stroke="#e5e7eb"/>
<text x="64" y="570.00" font-size="10" text-anchor="end" fill="#6b7280">7.73</text>
<line x1="72" x2="1072" y1="491.00" y2="491.00" stroke="#e5e7eb"/>
<text x="64" y="495.00" font-size="10" text-anchor="end" fill="#6b7280">470.80</text>
<line x1="72" x2="1072" y1="416.00" y2="416.00" stroke="#e5e7eb"/>
<text x="64" y="420.00" font-size="10" text-anchor="end" fill="#6b7280">933.87</text>
<polyline fill="none" stroke="#047857" stroke-width="2" points="72.00,466.52 82.00,466.33 92.00,466.33 102.00,466.33 112.00,466.33 122.00,466.33 132.00,461.13 142.00,458.57 152.00,458.54 162.00,458.44 172.00,458.29 182.00,458.13 192.00,457.95 202.00,457.77 212.00,457.60 222.00,457.44 232.00,457.30 242.00,457.16 252.00,555.22 262.00,555.22 272.00,555.38 282.00,555.53 292.00,555.63 302.00,555.66 312.00,555.66 322.00,555.66 332.00,555.66 342.00,555.65 352.00,555.66 362.00,555.66 372.00,555.65 382.00,555.66 392.00,555.58 402.00,555.23 412.00,554.62 422.00,553.79 432.00,552.77 442.00,551.60 452.00,550.30 462.00,548.88 472.00,547.35 482.00,545.73 492.00,544.01 502.00,542.21 512.00,540.33 522.00,538.38 532.00,536.36 542.00,534.26 552.00,532.11 562.00,529.90 572.00,527.64 582.00,525.33 592.00,522.99 602.00,520.62 612.00,518.23 622.00,515.84 632.00,513.46 642.00,511.11 652.00,508.79 662.00,491.15 672.00,488.94 682.00,486.84 692.00,484.78 702.00,482.73 712.00,480.68 722.00,478.64 732.00,476.63 742.00,474.67 752.00,472.77 762.00,470.93 772.00,469.17 782.00,467.49 792.00,465.89 802.00,464.38 812.00,462.96 822.00,461.63 832.00,460.39 842.00,459.23 852.00,458.17 862.00,457.18 872.00,456.28 882.00,455.45 892.00,454.70 902.00,454.02 912.00,453.40 922.00,452.85 932.00,452.35 942.00,451.90 952.00,451.50 962.00,451.14 972.00,450.82 982.00,450.54 992.00,450.29 1002.00,450.07 1012.00,449.88 1022.00,449.71 1032.00,449.57 1042.00,449.44 1052.00,449.34 1062.00,449.25"/>
<polyline fill="none" stroke="#34d399" stroke-width="2" stroke-dasharray="2 5" points="72.00,426.34 82.00,426.53 92.00,433.18 102.00,441.93 112.00,450.01 122.00,457.69 132.00,462.48 142.00,465.10 152.00,426.34 162.00,426.34 172.00,426.34 182.00,426.34 192.00,426.34 202.00,426.34 212.00,426.34 222.00,426.34 232.00,426.34 242.00,426.34 252.00,426.34 262.00,426.34 272.00,555.66 282.00,555.66 292.00,555.66 302.00,555.66 312.00,555.66 322.00,555.66 332.00,555.66 342.00,555.66 352.00,555.66 362.00,555.66 372.00,555.66 382.00,555.66 392.00,426.34 402.00,426.34 412.00,426.34 422.00,426.34 432.00,426.34 442.00,426.34 452.00,426.34 462.00,426.34 472.00,426.34 482.00,426.34 492.00,426.34 502.00,426.34 512.00,426.34 522.00,426.34 532.00,426.34 542.00,426.34 552.00,426.34 562.00,426.34 572.00,426.34 582.00,426.34 592.00,426.34 602.00,426.34 612.00,426.34 622.00,426.34 632.00,426.34 642.00,426.34 652.00,426.34 662.00,426.34 672.00,426.34 682.00,426.34 692.00,426.34 702.00,426.34 712.00,426.34 722.00,426.34 732.00,426.34 742.00,426.34 752.00,426.34 762.00,426.34 772.00,426.34 782.00,426.34 792.00,426.34 802.00,426.34 812.00,426.34 822.00,426.34 832.00,426.34 842.00,426.34 852.00,426.34 862.00,426.34 872.00,426.34 882.00,426.34 892.00,504.49 902.00,555.66 912.00,555.66 922.00,555.66 932.00,555.66 942.00,555.66 952.00,555.66 962.00,555.66 972.00,555.66 982.00,555.66 992.00,555.66 1002.00,555.66 1012.00,555.66 1022.00,555.66 1032.00,555.66 1042.00,555.66 1052.00,555.66 1062.00,555.66"/>
<text x="18" y="671" font-size="13" fill="#374151" transform="rotate(-90 18 671)">Input Qm</text>
<rect x="72" y="596" width="1000" height="150" fill="#f9fafb" stroke="#d1d5db"/>
<line x1="72" x2="1072" y1="746.00" y2="746.00" stroke="#e5e7eb"/>
<text x="64" y="750.00" font-size="10" text-anchor="end" fill="#6b7280">30.64</text>
<line x1="72" x2="1072" y1="671.00" y2="671.00" stroke="#e5e7eb"/>
<text x="64" y="675.00" font-size="10" text-anchor="end" fill="#6b7280">374.00</text>
<line x1="72" x2="1072" y1="596.00" y2="596.00" stroke="#e5e7eb"/>
<text x="64" y="600.00" font-size="10" text-anchor="end" fill="#6b7280">717.36</text>
<polyline fill="none" stroke="#7c3aed" stroke-width="2" points="72.00,644.18 82.00,644.41 92.00,644.40 102.00,644.40 112.00,644.38 122.00,644.36 132.00,632.53 142.00,619.16 152.00,619.22 162.00,619.46 172.00,619.85 182.00,620.36 192.00,620.99 202.00,621.72 212.00,622.55 222.00,623.48 232.00,624.50 242.00,625.57 252.00,726.34 262.00,726.34 272.00,726.85 282.00,726.82 292.00,726.37 302.00,725.58 312.00,724.48 322.00,723.09 332.00,721.44 342.00,719.54 352.00,717.42 362.00,715.12 372.00,712.66 382.00,661.79 392.00,659.13 402.00,656.82 412.00,654.86 422.00,653.22 432.00,651.86 442.00,650.79 452.00,650.02 462.00,649.59 472.00,649.50 482.00,649.77 492.00,650.39 502.00,651.33 512.00,652.59 522.00,654.12 532.00,655.89 542.00,657.85 552.00,659.96 562.00,662.19 572.00,664.49 582.00,666.82 592.00,669.13 602.00,671.40 612.00,673.59 622.00,675.64 632.00,677.53 642.00,679.22 652.00,680.68 662.00,606.34 672.00,607.28 682.00,607.83 692.00,608.22 702.00,608.63 712.00,609.16 722.00,609.88 732.00,610.81 742.00,611.95 752.00,613.26 762.00,614.72 772.00,616.29 782.00,617.91 792.00,619.56 802.00,621.18 812.00,622.76 822.00,624.25 832.00,625.64 842.00,626.92 852.00,628.07 862.00,629.08 872.00,629.97 882.00,630.72 892.00,631.36 902.00,631.88 912.00,632.30 922.00,632.62 932.00,632.87 942.00,633.05 952.00,633.17 962.00,633.25 972.00,633.30 982.00,633.33 992.00,633.34 1002.00,633.34 1012.00,633.35 1022.00,633.36 1032.00,633.39 1042.00,633.43 1052.00,633.49 1062.00,633.57"/>
<polyline fill="none" stroke="#c084fc" stroke-width="2" stroke-dasharray="2 5" points="72.00,616.16 82.00,616.27 92.00,613.66 102.00,609.07 112.00,606.34 122.00,606.34 132.00,606.34 142.00,606.34 152.00,735.66 162.00,735.66 172.00,735.66 182.00,735.66 192.00,735.66 202.00,735.66 212.00,735.66 222.00,735.66 232.00,735.66 242.00,735.66 252.00,735.66 262.00,735.66 272.00,606.34 282.00,606.34 292.00,606.34 302.00,606.34 312.00,606.34 322.00,606.34 332.00,606.34 342.00,606.34 352.00,606.34 362.00,606.34 372.00,606.34 382.00,606.34 392.00,606.34 402.00,735.66 412.00,735.66 422.00,735.66 432.00,735.66 442.00,735.66 452.00,735.66 462.00,735.66 472.00,735.66 482.00,735.66 492.00,735.66 502.00,735.66 512.00,735.66 522.00,735.66 532.00,735.66 542.00,735.66 552.00,735.66 562.00,735.66 572.00,735.66 582.00,735.66 592.00,735.66 602.00,735.66 612.00,735.66 622.00,735.66 632.00,735.66 642.00,735.66 652.00,735.66 662.00,735.66 672.00,735.66 682.00,735.66 692.00,735.66 702.00,735.66 712.00,735.66 722.00,735.66 732.00,735.66 742.00,735.66 752.00,735.66 762.00,735.66 772.00,735.66 782.00,735.66 792.00,735.66 802.00,735.66 812.00,735.66 822.00,735.66 832.00,735.66 842.00,735.66 852.00,735.66 862.00,735.66 872.00,630.58 882.00,606.34 892.00,606.34 902.00,606.34 912.00,606.34 922.00,606.34 932.00,606.34 942.00,606.34 952.00,606.34 962.00,606.34 972.00,606.34 982.00,606.34 992.00,606.34 1002.00,606.34 1012.00,606.34 1022.00,606.34 1032.00,606.34 1042.00,606.34 1052.00,606.34 1062.00,606.34"/>
<text x="72.00" y="764" font-size="11" text-anchor="middle" fill="#374151">220</text>
<text x="572.00" y="764" font-size="11" text-anchor="middle" fill="#374151">270</text>
<text x="1072.00" y="764" font-size="11" text-anchor="middle" fill="#374151">320</text>
<line x1="682" x2="706" y1="18" y2="18" stroke="#2563eb" stroke-width="2"/><text x="711" y="22" font-size="11" fill="#374151">y eta</text>
<line x1="774" x2="798" y1="18" y2="18" stroke="#93c5fd" stroke-width="2" stroke-dasharray="7 5"/><text x="803" y="22" font-size="11" fill="#374151">sp eta</text>
<line x1="866" x2="890" y1="18" y2="18" stroke="#1d4ed8" stroke-width="2" stroke-dasharray="2 5"/><text x="895" y="22" font-size="11" fill="#374151">ys eta</text>
<line x1="958" x2="982" y1="18" y2="18" stroke="#dc2626" stroke-width="2"/><text x="987" y="22" font-size="11" fill="#374151">y T</text>
<line x1="682" x2="706" y1="36" y2="36" stroke="#fca5a5" stroke-width="2" stroke-dasharray="7 5"/><text x="711" y="40" font-size="11" fill="#374151">sp T</text>
<line x1="774" x2="798" y1="36" y2="36" stroke="#991b1b" stroke-width="2" stroke-dasharray="2 5"/><text x="803" y="40" font-size="11" fill="#374151">ys T</text>
<line x1="866" x2="890" y1="36" y2="36" stroke="#047857" stroke-width="2"/><text x="895" y="40" font-size="11" fill="#374151">u</text>
<line x1="958" x2="982" y1="36" y2="36" stroke="#34d399" stroke-width="2" stroke-dasharray="2 5"/><text x="987" y="40" font-size="11" fill="#374151">u_s</text>
</svg>