<svg xmlns="http://www.w3.org/2000/svg" width="1100" height="780" viewBox="0 0 1100 780">
<rect width="100%" height="100%" fill="white"/>
<text x="72" y="28" font-size="20" font-weight="700" fill="#111827">bounded_hard: window 580-700</text>
<text x="72" y="48" font-size="12" fill="#4b5563">solid = measured/applied, dashed = scheduled setpoint, dotted = selected steady target</text>
<text x="18" y="131" font-size="13" fill="#374151" transform="rotate(-90 18 131)">Output eta</text>
<rect x="72" y="56" width="1000" height="150" fill="#f9fafb" stroke="#d1d5db"/>
<line x1="72" x2="1072" y1="206.00" y2="206.00" stroke="#e5e7eb"/>
<text x="64" y="210.00" font-size="10" text-anchor="end" fill="#6b7280">2.43</text>
<line x1="72" x2="1072" y1="131.00" y2="131.00" stroke="#e5e7eb"/>
<text x="64" y="135.00" font-size="10" text-anchor="end" fill="#6b7280">3.45</text>
<line x1="72" x2="1072" y1="56.00" y2="56.00" stroke="#e5e7eb"/>
<text x="64" y="60.00" font-size="10" text-anchor="end" fill="#6b7280">4.46</text>
<polyline fill="none" stroke="#2563eb" stroke-width="2" points="72.00,132.50 80.33,133.01 88.67,134.86 97.00,137.56 105.33,140.82 113.67,144.44 122.00,148.30 130.33,152.29 138.67,156.36 147.00,160.46 155.33,164.55 163.67,168.60 172.00,172.58 180.33,175.54 188.67,175.84 197.00,173.06 205.33,167.64 213.67,160.53 222.00,152.72 230.33,145.03 238.67,138.01 247.00,131.98 255.33,127.08 263.67,123.37 272.00,120.80 280.33,119.31 288.67,118.78 297.00,119.13 305.33,120.23 313.67,121.98 322.00,124.26 330.33,126.99 338.67,130.06 347.00,133.40 355.33,136.93 363.67,140.59 372.00,144.31 380.33,148.07 388.67,151.80 397.00,155.50 405.33,159.12 413.67,162.65 422.00,166.07 430.33,169.39 438.67,172.57 447.00,175.63 455.33,178.54 463.67,181.30 472.00,183.89 480.33,186.30 488.67,188.51 497.00,190.48 505.33,192.19 513.67,193.60 522.00,194.68 530.33,195.37 538.67,195.66 547.00,195.49 555.33,194.86 563.67,193.76 572.00,192.18 580.33,190.16 588.67,187.72 597.00,184.91 605.33,181.80 613.67,178.45 622.00,174.93 630.33,171.31 638.67,167.65 647.00,164.02 655.33,160.48 663.67,157.07 672.00,153.83 680.33,150.80 688.67,147.99 697.00,145.43 705.33,143.11 713.67,141.06 722.00,139.25 730.33,137.68 738.67,136.31 747.00,135.10 755.33,134.04 763.67,133.10 772.00,132.71 780.33,133.12 788.67,134.07 797.00,135.40 805.33,136.99 813.67,138.74 822.00,140.59 830.33,142.48 838.67,144.37 847.00,146.22 855.33,147.99 863.67,149.67 872.00,151.22 880.33,152.62 888.67,153.86 897.00,154.91 905.33,155.77 913.67,156.41 922.00,156.83 930.33,157.03 938.67,154.83 947.00,148.05 955.33,137.63 963.67,125.23 972.00,112.47 980.33,100.55 988.67,90.18 997.00,81.69 1005.33,75.17 1013.67,70.54 1022.00,67.66 1030.33,66.34 1038.67,66.41 1047.00,67.65 1055.33,69.89 1063.67,72.97 1072.00,76.72"/>
<polyline fill="none" stroke="#93c5fd" stroke-width="2" stroke-dasharray="7 5" points="72.00,134.35 80.33,134.35 88.67,134.35 97.00,134.35 105.33,134.35 113.67,134.35 122.00,134.35 130.33,134.35 138.67,134.35 147.00,134.35 155.33,134.35 163.67,134.35 172.00,134.35 180.33,134.35 188.67,134.35 197.00,134.35 205.33,134.35 213.67,134.35 222.00,134.35 230.33,134.35 238.67,134.35 247.00,134.35 255.33,134.35 263.67,134.35 272.00,134.35 280.33,134.35 288.67,134.35 297.00,134.35 305.33,134.35 313.67,134.35 322.00,134.35 330.33,134.35 338.67,134.35 347.00,134.35 355.33,134.35 363.67,134.35 372.00,134.35 380.33,134.35 388.67,134.35 397.00,134.35 405.33,134.35 413.67,134.35 422.00,134.35 430.33,134.35 438.67,134.35 447.00,134.35 455.33,134.35 463.67,134.35 472.00,134.35 480.33,134.35 488.67,134.35 497.00,134.35 505.33,134.35 513.67,134.35 522.00,134.35 530.33,134.35 538.67,134.35 547.00,134.35 555.33,134.35 563.67,134.35 572.00,134.35 580.33,134.35 588.67,134.35 597.00,134.35 605.33,134.35 613.67,134.35 622.00,134.35 630.33,134.35 638.67,134.35 647.00,134.35 655.33,134.35 663.67,134.35 672.00,134.35 680.33,134.35 688.67,134.35 697.00,134.35 705.33,134.35 713.67,134.35 722.00,134.35 730.33,134.35 738.67,134.35 747.00,134.35 755.33,134.35 763.67,134.35 772.00,134.35 780.33,134.35 788.67,134.35 797.00,134.35 805.33,134.35 813.67,134.35 822.00,134.35 830.33,134.35 838.67,134.35 847.00,134.35 855.33,134.35 863.67,134.35 872.00,134.35 880.33,134.35 888.67,134.35 897.00,134.35 905.33,134.35 913.67,134.35 922.00,134.35 930.33,134.35 938.67,134.35 947.00,134.35 955.33,134.35 963.67,134.35 972.00,134.35 980.33,134.35 988.67,134.35 997.00,134.35 1005.33,134.35 1013.67,134.35 1022.00,134.35 1030.33,134.35 1038.67,134.35 1047.00,134.35 1055.33,134.35 1063.67,134.35"/>
<polyline fill="none" stroke="#1d4ed8" stroke-width="2" stroke-dasharray="2 5" points="72.00,133.46 80.33,133.19 88.67,132.73 97.00,133.26 105.33,134.56 113.67,136.65 122.00,139.40 130.33,142.62 138.67,146.11 147.00,149.73 155.33,153.37 163.67,156.96 172.00,159.96 180.33,163.32 188.67,167.30 197.00,169.47 205.33,169.97 213.67,168.27 222.00,164.27 230.33,158.41 238.67,151.40 247.00,144.06 255.33,137.11 263.67,131.06 272.00,126.24 280.33,122.75 288.67,120.58 297.00,119.63 305.33,119.72 313.67,120.69 322.00,122.37 330.33,124.60 338.67,127.23 347.00,130.15 355.33,133.26 363.67,136.48 372.00,139.74 380.33,142.99 388.67,146.18 397.00,149.31 405.33,151.41 413.67,154.81 422.00,157.61 430.33,160.29 438.67,162.85 447.00,165.29 455.33,167.62 463.67,169.83 472.00,171.94 480.33,173.93 488.67,175.81 497.00,177.55 505.33,179.16 513.67,180.60 522.00,181.86 530.33,182.89 538.67,183.68 547.00,184.02 555.33,183.88 563.67,183.73 572.00,183.76 580.33,183.23 588.67,181.96 597.00,180.34 605.33,178.38 613.67,176.14 622.00,173.66 630.33,171.00 638.67,168.23 647.00,165.40 655.33,162.57 663.67,159.80 672.00,157.14 680.33,154.62 688.67,152.26 697.00,150.11 705.33,148.16 713.67,146.42 722.00,144.90 730.33,143.59 738.67,142.47 747.00,141.53 755.33,140.74 763.67,140.07 772.00,139.49 780.33,139.07 788.67,138.52 797.00,138.83 805.33,139.60 813.67,140.74 822.00,142.17 830.33,143.76 838.67,145.43 847.00,147.10 855.33,148.71 863.67,150.22 872.00,151.62 880.33,152.88 888.67,153.99 897.00,154.95 905.33,155.75 913.67,156.37 922.00,156.83 930.33,157.11 938.67,156.87 947.00,157.13 955.33,154.98 963.67,150.23 972.00,142.64 980.33,132.78 988.67,121.72 997.00,110.65 1005.33,100.61 1013.67,92.27 1022.00,85.97 1030.33,81.76 1038.67,79.50 1047.00,78.96 1055.33,79.83 1063.67,81.83"/>
<rect x="80.33" y="56" width="8.33" height="150" fill="#9ca3af" opacity="0.22"/>
<rect x="722.00" y="56" width="8.33" height="150" fill="#9ca3af" opacity="0.22"/>
<rect x="730.33" y="56" width="8.33" height="150" fill="#9ca3af" opacity="0.22"/>
<rect x="738.67" y="56" width="8.33" height="150" fill="#9ca3af" opacity="0.22"/>
<rect x="747.00" y="56" width="8.33" height="150" fill="#9ca3af" opacity="0.22"/>
<rect x="755.33" y="56" width="8.33" height="150" fill="#9ca3af" opacity="0.22"/>
<text x="18" y="311" font-size="13" fill="#374151" transform="rotate(-90 18 311)">Output T</text>
<rect x="72" y="236" width="1000" height="150" fill="#f9fafb" stroke="#d1d5db"/>
<line x1="72" x2="1072" y1="386.00" y2="386.00" stroke="#e5e7eb"/>
<text x="64" y="390.00" font-size="10" text-anchor="end" fill="#6b7280">317.11</text>
<line x1="72" x2="1072" y1="311.00" y2="311.00" stroke="#e5e7eb"/>
<text x="64" y="315.00" font-size="10" text-anchor="end" fill="#6b7280">325.40</text>
<line x1="72" x2="1072" y1="236.00" y2="236.00" stroke="#e5e7eb"/>
<text x="64" y="240.00" font-size="10" text-anchor="end" fill="#6b7280">333.69</text>
<polyline fill="none" stroke="#dc2626" stroke-width="2" points="72.00,346.20 80.33,348.51 88.67,350.44 97.00,352.04 105.33,353.32 113.67,354.31 122.00,355.01 130.33,355.47 138.67,355.68 147.00,355.68 155.33,355.48 163.67,355.09 172.00,354.53 180.33,348.84 188.67,343.30 197.00,337.97 205.33,332.90 213.67,328.12 222.00,323.65 230.33,319.48 238.67,315.64 247.00,312.11 255.33,308.92 263.67,306.06 272.00,303.54 280.33,301.36 288.67,299.54 297.00,298.09 305.33,297.00 313.67,296.30 322.00,296.00 330.33,296.09 338.67,296.58 347.00,297.48 355.33,298.76 363.67,300.40 372.00,302.39 380.33,304.68 388.67,307.23 397.00,309.99 405.33,312.90 413.67,315.90 422.00,318.95 430.33,321.97 438.67,324.92 447.00,327.76 455.33,330.44 463.67,332.93 472.00,335.21 480.33,337.25 488.67,339.05 497.00,340.61 505.33,341.92 513.67,342.98 522.00,343.82 530.33,344.43 538.67,344.84 547.00,345.06 555.33,345.10 563.67,345.00 572.00,344.76 580.33,344.41 588.67,343.97 597.00,343.45 605.33,342.88 613.67,342.28 622.00,341.65 630.33,341.03 638.67,340.41 647.00,339.82 655.33,339.26 663.67,338.76 672.00,338.31 680.33,337.92 688.67,337.59 697.00,337.34 705.33,337.16 713.67,337.06 722.00,337.03 730.33,337.04 738.67,337.06 747.00,337.11 755.33,337.18 763.67,337.25 772.00,338.45 780.33,339.72 788.67,341.03 797.00,342.35 805.33,343.66 813.67,344.93 822.00,346.14 830.33,347.28 838.67,348.33 847.00,349.29 855.33,350.15 863.67,350.89 872.00,351.53 880.33,352.05 888.67,352.46 897.00,352.76 905.33,352.96 913.67,353.06 922.00,353.06 930.33,352.99 938.67,346.99 947.00,341.24 955.33,335.77 963.67,330.63 972.00,325.87 980.33,321.48 988.67,317.47 997.00,313.82 1005.33,310.53 1013.67,307.60 1022.00,305.01 1030.33,302.76 1038.67,300.85 1047.00,299.28 1055.33,298.05 1063.67,297.17 1072.00,296.66"/>
<polyline fill="none" stroke="#fca5a5" stroke-width="2" stroke-dasharray="7 5" points="72.00,350.79 80.33,350.79 88.67,350.79 97.00,350.79 105.33,350.79 113.67,350.79 122.00,350.79 130.33,350.79 138.67,350.79 147.00,350.79 155.33,350.79 163.67,350.79 172.00,350.79 180.33,350.79 188.67,350.79 197.00,350.79 205.33,350.79 213.67,350.79 222.00,350.79 230.33,350.79 238.67,350.79 247.00,350.79 255.33,350.79 263.67,350.79 272.00,350.79 280.33,350.79 288.67,350.79 297.00,350.79 305.33,350.79 313.67,350.79 322.00,350.79 330.33,350.79 338.67,350.79 347.00,350.79 355.33,350.79 363.67,350.79 372.00,350.79 380.33,350.79 388.67,350.79 397.00,350.79 405.33,350.79 413.67,350.79 422.00,350.79 430.33,350.79 438.67,350.79 447.00,350.79 455.33,350.79 463.67,350.79 472.00,350.79 480.33,350.79 488.67,350.79 497.00,350.79 505.33,350.79 513.67,350.79 522.00,350.79 530.33,350.79 538.67,350.79 547.00,350.79 555.33,350.79 563.67,350.79 572.00,350.79 580.33,350.79 588.67,350.79 597.00,350.79 605.33,350.79 613.67,350.79 622.00,350.79 630.33,350.79 638.67,350.79 647.00,350.79 655.33,350.79 663.67,350.79 672.00,350.79 680.33,350.79 688.67,350.79 697.00,350.79 705.33,350.79 713.67,350.79 722.00,350.79 730.33,350.79 738.67,350.79 747.00,350.79 755.33,350.79 763.67,350.79 772.00,350.79 780.33,350.79 788.67,350.79 797.00,350.79 805.33,350.79 813.67,350.79 822.00,350.79 830.33,350.79 838.67,350.79 847.00,350.79 855.33,350.79 863.67,350.79 872.00,350.79 880.33,350.79 888.67,350.79 897.00,350.79 905.33,350.79 913.67,350.79 922.00,350.79 930.33,350.79 938.67,350.79 947.00,350.79 955.33,350.79 963.67,350.79 972.00,350.79 980.33,350.79 988.67,350.79 997.00,350.79 1005.33,350.79 1013.67,350.79 1022.00,350.79 1030.33,350.79 1038.67,350.79 1047.00,350.79 1055.33,350.79 1063.67,350.79"/>
<polyline fill="none" stroke="#991b1b" stroke-width="2" stroke-dasharray="2 5" points="72.00,346.23 80.33,346.84 88.67,359.84 97.00,371.00 105.33,375.51 113.67,375.66 122.00,373.43 130.33,370.07 138.67,366.23 147.00,362.24 155.33,358.26 163.67,354.34 172.00,352.18 180.33,348.48 188.67,312.45 197.00,282.22 205.33,263.94 213.67,254.22 222.00,249.65 230.33,248.00 238.67,248.00 247.00,249.00 255.33,250.67 263.67,252.84 272.00,255.45 280.33,258.48 288.67,261.93 297.00,265.81 305.33,270.17 313.67,275.02 322.00,280.39 330.33,286.29 338.67,292.72 347.00,299.62 355.33,306.95 363.67,314.60 372.00,322.44 380.33,330.33 388.67,338.09 397.00,345.54 405.33,350.47 413.67,355.11 422.00,360.66 430.33,365.33 438.67,369.06 447.00,371.83 455.33,373.64 463.67,374.53 472.00,374.58 480.33,373.87 488.67,372.50 497.00,370.57 505.33,368.19 513.67,365.47 522.00,362.49 530.33,359.35 538.67,356.13 547.00,353.48 555.33,351.41 563.67,348.32 572.00,346.60 580.33,344.65 588.67,342.10 597.00,339.79 605.33,337.73 613.67,335.93 622.00,334.42 630.33,333.19 638.67,332.23 647.00,331.56 655.33,331.15 663.67,330.99 672.00,331.07 680.33,331.38 688.67,331.89 697.00,332.57 705.33,333.42 713.67,334.40 722.00,335.50 730.33,336.69 738.67,337.68 747.00,338.44 755.33,339.03 763.67,339.49 772.00,339.85 780.33,347.90 788.67,351.32 797.00,356.41 805.33,359.82 813.67,362.06 822.00,363.49 830.33,364.32 838.67,364.68 847.00,364.64 855.33,364.26 863.67,363.59 872.00,362.67 880.33,361.54 888.67,360.24 897.00,358.81 905.33,357.29 913.67,355.70 922.00,354.09 930.33,352.47 938.67,352.01 947.00,312.84 955.33,279.97 963.67,260.54 972.00,250.81 980.33,246.94 988.67,246.34 997.00,247.54 1005.33,249.70 1013.67,252.41 1022.00,255.46 1030.33,258.74 1038.67,262.24 1047.00,265.96 1055.33,269.97 1063.67,274.31"/>
<text x="18" y="491" font-size="13" fill="#374151" transform="rotate(-90 18 491)">Input Qc</text>
<rect x="72" y="416" width="1000" height="150" fill="#f9fafb" stroke="#d1d5db"/>
<line x1="72" x2="1072" y1="566.00" y2="566.00" stroke="#e5e7eb"/>
<text x="64" y="570.00" font-size="10" text-anchor="end" fill="#6b7280">7.73</text>
<line x1="72" x2="1072" y1="491.00" y2="491.00" stroke="#e5e7eb"/>
<text x="64" y="495.00" font-size="10" text-anchor="end" fill="#6b7280">470.80</text>
<line x1="72" x2="1072" y1="416.00" y2="416.00" stroke="#e5e7eb"/>
<text x="64" y="420.00" font-size="10" text-anchor="end" fill="#6b7280">933.87</text>
<polyline fill="none" stroke="#047857" stroke-width="2" points="72.00,541.29 80.33,541.29 88.67,541.35 97.00,541.53 105.33,541.78 113.67,542.05 122.00,542.31 130.33,542.54 138.67,542.73 147.00,542.87 155.33,542.96 163.67,543.00 172.00,544.61 180.33,544.52 188.67,544.01 197.00,543.13 205.33,541.99 213.67,540.68 222.00,539.25 230.33,537.76 238.67,536.22 247.00,534.65 255.33,533.06 263.67,531.46 272.00,529.85 280.33,528.24 288.67,526.63 297.00,525.03 305.33,523.44 313.67,521.86 322.00,520.32 330.33,518.81 338.67,517.34 347.00,515.93 355.33,514.59 363.67,513.32 372.00,512.14 380.33,511.04 388.67,510.04 397.00,509.14 405.33,508.33 413.67,507.62 422.00,506.99 430.33,506.45 438.67,505.99 447.00,505.59 455.33,505.26 463.67,504.97 472.00,504.71 480.33,504.48 488.67,504.28 497.00,504.08 505.33,503.88 513.67,503.67 522.00,503.46 530.33,503.23 538.67,502.98 547.00,502.70 555.33,502.41 563.67,502.09 572.00,501.74 580.33,501.37 588.67,500.98 597.00,500.57 605.33,500.14 613.67,499.70 622.00,499.24 630.33,498.77 638.67,498.30 647.00,497.82 655.33,497.34 663.67,496.86 672.00,496.39 680.33,495.92 688.67,495.46 697.00,495.01 705.33,494.57 713.67,494.15 722.00,494.15 730.33,494.15 738.67,494.15 747.00,494.15 755.33,494.15 763.67,493.97 772.00,493.63 780.33,493.37 788.67,493.20 797.00,493.10 805.33,493.04 813.67,493.03 822.00,493.04 830.33,493.08 838.67,493.13 847.00,493.19 855.33,493.26 863.67,493.33 872.00,493.40 880.33,493.47 888.67,493.53 897.00,493.58 905.33,493.61 913.67,493.64 922.00,493.65 930.33,538.02 938.67,537.98 947.00,537.49 955.33,536.63 963.67,535.51 972.00,534.25 980.33,532.91 988.67,531.53 997.00,530.13 1005.33,528.74 1013.67,527.34 1022.00,525.94 1030.33,524.55 1038.67,523.15 1047.00,521.75 1055.33,520.36 1063.67,518.97"/>
<polyline fill="none" stroke="#34d399" stroke-width="2" stroke-dasharray="2 5" points="72.00,426.34 80.33,426.34 88.67,555.66 97.00,555.66 105.33,555.66 113.67,555.66 122.00,555.66 130.33,555.66 138.67,555.66 147.00,555.66 155.33,555.66 163.67,555.66 172.00,428.30 180.33,426.34 188.67,426.34 197.00,426.34 205.33,426.34 213.67,426.34 222.00,426.34 230.33,426.34 238.67,426.34 247.00,426.34 255.33,426.34 263.67,426.34 272.00,426.34 280.33,426.34 288.67,426.34 297.00,426.34 305.33,426.34 313.67,426.34 322.00,426.34 330.33,426.34 338.67,426.34 347.00,426.34 355.33,426.34 363.67,426.34 372.00,426.34 380.33,426.34 388.67,426.34 397.00,426.34 405.33,426.34 413.67,555.66 422.00,555.66 430.33,555.66 438.67,555.66 447.00,555.66 455.33,555.66 463.67,555.66 472.00,555.66 480.33,555.66 488.67,555.66 497.00,555.66 505.33,555.66 513.67,555.66 522.00,555.66 530.33,555.66 538.67,555.66 547.00,511.45 555.33,426.34 563.67,426.34 572.00,426.34 580.33,426.34 588.67,426.34 597.00,426.34 605.33,426.34 613.67,426.34 622.00,426.34 630.33,426.34 638.67,426.34 647.00,426.34 655.33,426.34 663.67,426.34 672.00,426.34 680.33,426.34 688.67,426.34 697.00,426.34 705.33,426.34 713.67,426.34 722.00,426.34 730.33,426.34 738.67,426.34 747.00,426.34 755.33,426.34 763.67,426.34 772.00,426.34 780.33,426.34 788.67,555.66 797.00,555.66 805.33,555.66 813.67,555.66 822.00,555.66 830.33,555.66 838.67,555.66 847.00,555.66 855.33,555.66 863.67,555.66 872.00,555.66 880.33,555.66 888.67,555.66 897.00,555.66 905.33,555.66 913.67,555.66 922.00,555.66 930.33,555.66 938.67,468.30 947.00,426.34 955.33,426.34 963.67,426.34 972.00,426.34 980.33,426.34 988.67,426.34 997.00,426.34 1005.33,426.34 1013.67,426.34 1022.00,426.34 1030.33,426.34 1038.67,426.34 1047.00,426.34 1055.33,426.34 1063.67,426.34"/>
<text x="18" y="671" font-size="13" fill="#374151" transform="rotate(-90 18 671)">Input Qm</text>
<rect x="72" y="596" width="1000" height="150" fill="#f9fafb" stroke="#d1d5db"/>
<line x1="72" x2="1072" y1="746.00" y2="746.00" stroke="#e5e7eb"/>
<text x="64" y="750.00" font-size="10" text-anchor="end" fill="#6b7280">30.64</text>
<line x1="72" x2="1072" y1="671.00" y2="671.00" stroke="#e5e7eb"/>
<text x="64" y="675.00" font-size="10" text-anchor="end" fill="#6b7280">374.00</text>
<line x1="72" x2="1072" y1="596.00" y2="596.00" stroke="#e5e7eb"/>
<text x="64" y="600.00" font-size="10" text-anchor="end" fill="#6b7280">717.36</text>
<polyline fill="none" stroke="#7c3aed" stroke-width="2" points="72.00,735.66 80.33,735.66 88.67,735.64 97.00,735.28 105.33,734.68 113.67,733.92 122.00,733.02 130.33,732.01 138.67,730.88 147.00,729.64 155.33,728.31 163.67,726.89 172.00,646.82 180.33,645.30 188.67,644.64 197.00,644.74 205.33,645.44 213.67,646.66 222.00,648.39 230.33,650.63 238.67,653.41 247.00,656.69 255.33,660.45 263.67,664.61 272.00,669.08 280.33,673.79 288.67,678.64 297.00,683.54 305.33,688.42 313.67,693.21 322.00,697.83 330.33,702.24 338.67,706.38 347.00,710.21 355.33,713.69 363.67,716.79 372.00,719.49 380.33,721.77 388.67,723.62 397.00,725.03 405.33,726.03 413.67,726.60 422.00,726.79 430.33,726.60 438.67,726.07 447.00,725.23 455.33,724.10 463.67,722.73 472.00,721.13 480.33,719.36 488.67,717.43 497.00,715.37 505.33,713.22 513.67,711.01 522.00,708.75 530.33,706.48 538.67,704.21 547.00,701.98 555.33,699.81 563.67,697.71 572.00,695.72 580.33,693.86 588.67,692.13 597.00,690.57 605.33,689.18 613.67,687.98 622.00,686.96 630.33,686.15 638.67,685.54 647.00,685.11 655.33,684.88 663.67,684.82 672.00,684.92 680.33,685.17 688.67,685.56 697.00,686.06 705.33,686.65 713.67,687.33 722.00,687.33 730.33,687.33 738.67,687.33 747.00,687.33 755.33,687.33 763.67,708.70 772.00,709.61 780.33,710.32 788.67,710.83 797.00,711.15 805.33,711.30 813.67,711.28 822.00,711.11 830.33,710.77 838.67,710.29 847.00,709.67 855.33,708.94 863.67,708.09 872.00,707.16 880.33,706.15 888.67,705.08 897.00,703.97 905.33,702.83 913.67,701.68 922.00,700.54 930.33,606.34 938.67,606.34 947.00,606.41 955.33,607.52 963.67,609.52 972.00,612.32 980.33,615.90 988.67,620.22 997.00,625.24 1005.33,630.87 1013.67,637.00 1022.00,643.52 1030.33,650.29 1038.67,657.20 1047.00,664.14 1055.33,671.03 1063.67,677.78"/>
<polyline fill="none" stroke="#c084fc" stroke-width="2" stroke-dasharray="2 5" points="72.00,735.66 80.33,735.66 88.67,606.34 97.00,606.34 105.33,606.34 113.67,606.34 122.00,606.34 130.33,606.34 138.67,606.34 147.00,606.34 155.33,606.34 163.67,606.34 172.00,606.34 180.33,606.34 188.67,735.66 197.00,735.66 205.33,735.66 213.67,735.66 222.00,735.66 230.33,735.66 238.67,735.66 247.00,735.66 255.33,735.66 263.67,735.66 272.00,735.66 280.33,735.66 288.67,735.66 297.00,735.66 305.33,735.66 313.67,735.66 322.00,735.66 330.33,735.66 338.67,735.66 347.00,735.66 355.33,735.66 363.67,735.66 372.00,735.66 380.33,735.66 388.67,735.66 397.00,735.66 405.33,606.34 413.67,606.34 422.00,606.34 430.33,606.34 438.67,606.34 447.00,606.34 455.33,606.34 463.67,606.34 472.00,606.34 480.33,606.34 488.67,606.34 497.00,606.34 505.33,606.34 513.67,606.34 522.00,606.34 530.33,606.34 538.67,606.34 547.00,606.34 555.33,606.34 563.67,606.34 572.00,683.56 580.33,735.66 588.67,735.66 597.00,735.66 605.33,735.66 613.67,735.66 622.00,735.66 630.33,735.66 638.67,735.66 647.00,735.66 655.33,735.66 663.67,735.66 672.00,735.66 680.33,735.66 688.67,735.66 697.00,735.66 705.33,735.66 713.67,735.66 722.00,735.66 730.33,735.66 738.67,735.66 747.00,735.66 755.33,735.66 763.67,735.66 772.00,735.66 780.33,735.66 788.67,606.34 797.00,606.34 805.33,606.34 813.67,606.34 822.00,606.34 830.33,606.34 838.67,606.34 847.00,606.34 855.33,606.34 863.67,606.34 872.00,606.34 880.33,606.34 888.67,606.34 897.00,606.34 905.33,606.34 913.67,606.34 922.00,606.34 930.33,606.34 938.67,606.34 947.00,735.66 955.33,735.66 963.67,735.66 972.00,735.66 980.33,735.66 988.67,735.66 997.00,735.66 1005.33,735.66 1013.67,735.66 1022.00,735.66 1030.33,735.66 1038.67,735.66 1047.00,735.66 1055.33,735.66 1063.67,735.66"/>
<text x="72.00" y="764" font-size="11" text-anchor="middle" fill="#374151">580</text>
<text x="572.00" y="764" font-size="11" text-anchor="middle" fill="#374151">640</text>
<text x="1072.00" y="764" font-size="11" text-anchor="middle" fill="#374151">700</text>
<line x1="682" x2="706" y1="18" y2="18" stroke="#2563eb" stroke-width="2"/><text x="711" y="22" font-size="11" fill="#374151">y eta</text>
<line x1="774" x2="798" y1="18" y2="18" stroke="#93c5fd" stroke-width="2" stroke-dasharray="7 5"/><text x="803" y="22" font-size="11" fill="#374151">sp eta</text>
<line x1="866" x2="890" y1="18" y2="18" stroke="#1d4ed8" stroke-width="2" stroke-dasharray="2 5"/><text x="895" y="22" font-size="11" fill="#374151">ys eta</text>
<line x1="958" x2="982" y1="18" y2="18" stroke="#dc2626" stroke-width="2"/><text x="987" y="22" font-size="11" fill="#374151">y T</text>
<line x1="682" x2="706" y1="36" y2="36" stroke="#fca5a5" stroke-width="2" stroke-dasharray="7 5"/><text x="711" y="40" font-size="11" fill="#374151">sp T</text>
<line x1="774" x2="798" y1="36" y2="36" stroke="#991b1b" stroke-width="2" stroke-dasharray="2 5"/><text x="803" y="40" font-size="11" fill="#374151">ys T</text>
<line x1="866" x2="890" y1="36" y2="36" stroke="#047857" stroke-width="2"/><text x="895" y="40" font-size="11" fill="#374151">u</text>
<line x1="958" x2="982" y1="36" y2="36" stroke="#34d399" stroke-width="2" stroke-dasharray="2 5"/><text x="987" y="40" font-size="11" fill="#374151">u_s</text>
</svg>