<svg xmlns="http://www.w3.org/2000/svg" width="900" height="330" viewBox="0 0 900 330">
<rect width="100%" height="100%" fill="white"/>
<text x="70" y="28" font-size="19" font-weight="700" fill="#111827">bounded_soft: physical-equivalent d_hat, steps 220-320</text>
<rect x="70" y="50" width="790" height="210" fill="#f9fafb" stroke="#d1d5db"/>
<line x1="70" x2="860" y1="260.00" y2="260.00" stroke="#e5e7eb"/>
<text x="62" y="264.00" font-size="11" text-anchor="end" fill="#6b7280">-19.27</text>
<line x1="70" x2="860" y1="207.50" y2="207.50" stroke="#e5e7eb"/>
<text x="62" y="211.50" font-size="11" text-anchor="end" fill="#6b7280">-9.93</text>
<line x1="70" x2="860" y1="155.00" y2="155.00" stroke="#e5e7eb"/>
<text x="62" y="159.00" font-size="11" text-anchor="end" fill="#6b7280">-0.59</text>
<line x1="70" x2="860" y1="102.50" y2="102.50" stroke="#e5e7eb"/>
<text x="62" y="106.50" font-size="11" text-anchor="end" fill="#6b7280">8.74</text>
<line x1="70" x2="860" y1="50.00" y2="50.00" stroke="#e5e7eb"/>
<text x="62" y="54.00" font-size="11" text-anchor="end" fill="#6b7280">18.08</text>
<polyline fill="none" stroke="#2563eb" stroke-width="2.2" points="70.00,148.27 77.90,148.27 85.80,148.27 93.70,148.27 101.60,148.27 109.50,148.27 117.40,148.28 125.30,148.28 133.20,148.28 141.10,148.26 149.00,148.22 156.90,148.13 164.80,148.02 172.70,147.87 180.60,147.72 188.50,147.57 196.40,147.42 204.30,147.30 212.20,147.19 220.10,147.11 228.00,147.08 235.90,147.15 243.80,147.36 251.70,147.70 259.60,148.13 267.50,148.63 275.40,149.15 283.30,149.66 291.20,150.17 299.10,150.65 307.00,151.11 314.90,151.55 322.80,151.97 330.70,152.36 338.60,152.68 346.50,152.87 354.40,152.88 362.30,152.68 370.20,152.30 378.10,151.81 386.00,151.27 393.90,150.74 401.80,150.28 409.70,149.91 417.60,149.65 425.50,149.50 433.40,149.47 441.30,149.52 449.20,149.66 457.10,149.86 465.00,150.12 472.90,150.41 480.80,150.74 488.70,151.09 496.60,151.46 504.50,151.83 512.40,152.21 520.30,152.58 528.20,152.94 536.10,153.30 544.00,153.64 551.90,153.96 559.80,154.25 567.70,154.48 575.60,154.68 583.50,154.88 591.40,155.09 599.30,155.31 607.20,155.52 615.10,155.72 623.00,155.90 630.90,156.05 638.80,156.19 646.70,156.29 654.60,156.37 662.50,156.43 670.40,156.44 678.30,156.42 686.20,156.33 694.10,156.18 702.00,155.94 709.90,155.62 717.80,155.19 725.70,154.68 733.60,154.08 741.50,153.41 749.40,152.70 757.30,151.97 765.20,151.24 773.10,150.55 781.00,149.90 788.90,149.31 796.80,148.79 804.70,148.34 812.60,147.97 820.50,147.66 828.40,147.41 836.30,147.22 844.20,147.09 852.10,147.04 860.00,147.05"/>
<polyline fill="none" stroke="#dc2626" stroke-width="2.2" points="70.00,149.43 77.90,149.43 85.80,149.51 93.70,149.63 101.60,149.72 109.50,149.79 117.40,149.83 125.30,149.85 133.20,147.86 141.10,144.13 149.00,141.70 156.90,140.59 164.80,140.33 172.70,140.57 180.60,141.06 188.50,141.68 196.40,142.36 204.30,143.08 212.20,143.80 220.10,144.53 228.00,160.16 235.90,172.61 243.80,178.95 251.70,181.00 259.60,180.51 267.50,178.62 275.40,175.93 283.30,172.77 291.20,169.28 299.10,165.58 307.00,161.73 314.90,157.76 322.80,153.73 330.70,129.05 338.60,111.97 346.50,100.42 354.40,92.64 362.30,87.31 370.20,83.56 378.10,80.78 386.00,78.65 393.90,76.96 401.80,75.56 409.70,74.35 417.60,73.26 425.50,72.23 433.40,71.24 441.30,70.29 449.20,69.40 457.10,68.62 465.00,67.99 472.90,67.58 480.80,67.50 488.70,67.83 496.60,68.70 504.50,70.22 512.40,72.52 520.30,75.72 528.20,79.94 536.10,85.25 544.00,91.68 551.90,99.18 559.80,115.30 567.70,119.74 575.60,133.18 583.50,154.24 591.40,178.04 599.30,200.54 607.20,219.13 615.10,232.44 623.00,240.11 630.90,242.50 638.80,240.39 646.70,234.78 654.60,226.71 662.50,217.13 670.40,206.86 678.30,196.54 686.20,186.63 694.10,177.47 702.00,169.23 709.90,162.03 717.80,155.88 725.70,150.75 733.60,146.60 741.50,143.35 749.40,140.91 757.30,139.18 765.20,138.08 773.10,137.52 781.00,137.39 788.90,137.63 796.80,138.15 804.70,138.89 812.60,139.78 820.50,140.79 828.40,141.85 836.30,144.28 844.20,146.00 852.10,145.48 860.00,143.60"/>
<text x="70.00" y="282" font-size="11" text-anchor="middle" fill="#374151">220</text>
<text x="465.00" y="282" font-size="11" text-anchor="middle" fill="#374151">270</text>
<text x="860.00" y="282" font-size="11" text-anchor="middle" fill="#374151">320</text>
<line x1="690" x2="715" y1="24" y2="24" stroke="#2563eb" stroke-width="2.2"/><text x="722" y="28" font-size="12" fill="#374151">d_hat eta equiv.</text>
<line x1="690" x2="715" y1="42" y2="42" stroke="#dc2626" stroke-width="2.2"/><text x="722" y="46" font-size="12" fill="#374151">d_hat T equiv.</text>
<text x="70" y="305" font-size="12" fill="#4b5563">These are scaled disturbance states multiplied by the physical output ranges; they are model-mismatch estimates, not external plant disturbances.</text>
</svg>