<svg xmlns="http://www.w3.org/2000/svg" width="1100" height="780" viewBox="0 0 1100 780">
<rect width="100%" height="100%" fill="white"/>
<text x="72" y="28" font-size="20" font-weight="700" fill="#111827">bounded_soft: window 220-320</text>
<text x="72" y="48" font-size="12" fill="#4b5563">solid = measured/applied, dashed = scheduled setpoint, dotted = selected steady target</text>
<text x="18" y="131" font-size="13" fill="#374151" transform="rotate(-90 18 131)">Output eta</text>
<rect x="72" y="56" width="1000" height="150" fill="#f9fafb" stroke="#d1d5db"/>
<line x1="72" x2="1072" y1="206.00" y2="206.00" stroke="#e5e7eb"/>
<text x="64" y="210.00" font-size="10" text-anchor="end" fill="#6b7280">2.59</text>
<line x1="72" x2="1072" y1="131.00" y2="131.00" stroke="#e5e7eb"/>
<text x="64" y="135.00" font-size="10" text-anchor="end" fill="#6b7280">3.87</text>
<line x1="72" x2="1072" y1="56.00" y2="56.00" stroke="#e5e7eb"/>
<text x="64" y="60.00" font-size="10" text-anchor="end" fill="#6b7280">5.15</text>
<polyline fill="none" stroke="#2563eb" stroke-width="2" points="72.00,94.39 82.00,94.39 92.00,94.41 102.00,94.44 112.00,94.48 122.00,94.51 132.00,94.55 142.00,94.39 152.00,93.68 162.00,92.41 172.00,90.79 182.00,89.01 192.00,87.20 202.00,85.45 212.00,83.85 222.00,82.42 232.00,81.19 242.00,80.16 252.00,79.35 262.00,80.37 272.00,83.78 282.00,88.52 292.00,93.93 302.00,99.67 312.00,105.54 322.00,111.43 332.00,117.28 342.00,123.07 352.00,128.77 362.00,134.37 372.00,139.87 382.00,145.26 392.00,149.97 402.00,152.46 412.00,152.13 422.00,149.23 432.00,144.53 442.00,138.94 452.00,133.20 462.00,127.86 472.00,123.26 482.00,119.59 492.00,116.91 502.00,115.23 512.00,114.51 522.00,114.67 532.00,115.63 542.00,117.31 552.00,119.61 562.00,122.44 572.00,125.72 582.00,129.37 592.00,133.30 602.00,137.45 612.00,141.74 622.00,146.11 632.00,150.49 642.00,154.83 652.00,159.06 662.00,163.14 672.00,167.03 682.00,169.62 692.00,171.86 702.00,174.95 712.00,178.25 722.00,181.42 732.00,184.31 742.00,186.86 752.00,189.10 762.00,191.01 772.00,192.63 782.00,193.95 792.00,194.94 802.00,195.54 812.00,195.66 822.00,195.16 832.00,193.90 842.00,191.70 852.00,188.44 862.00,183.99 872.00,178.33 882.00,171.52 892.00,163.70 902.00,155.09 912.00,145.98 922.00,136.65 932.00,127.39 942.00,118.42 952.00,109.95 962.00,102.12 972.00,95.00 982.00,88.65 992.00,83.07 1002.00,78.25 1012.00,74.15 1022.00,70.73 1032.00,68.18 1042.00,66.75 1052.00,66.34 1062.00,66.73 1072.00,67.73"/>
<polyline fill="none" stroke="#93c5fd" stroke-width="2" stroke-dasharray="7 5" points="72.00,94.26 82.00,94.26 92.00,94.26 102.00,94.26 112.00,94.26 122.00,94.26 132.00,94.26 142.00,94.26 152.00,94.26 162.00,94.26 172.00,94.26 182.00,94.26 192.00,94.26 202.00,94.26 212.00,94.26 222.00,94.26 232.00,94.26 242.00,94.26 252.00,94.26 262.00,94.26 272.00,94.26 282.00,94.26 292.00,94.26 302.00,94.26 312.00,94.26 322.00,94.26 332.00,94.26 342.00,94.26 352.00,94.26 362.00,94.26 372.00,94.26 382.00,94.26 392.00,94.26 402.00,94.26 412.00,94.26 422.00,94.26 432.00,94.26 442.00,94.26 452.00,94.26 462.00,94.26 472.00,94.26 482.00,94.26 492.00,94.26 502.00,94.26 512.00,94.26 522.00,94.26 532.00,94.26 542.00,94.26 552.00,94.26 562.00,94.26 572.00,94.26 582.00,94.26 592.00,94.26 602.00,94.26 612.00,94.26 622.00,94.26 632.00,94.26 642.00,94.26 652.00,94.26 662.00,94.26 672.00,94.26 682.00,94.26 692.00,94.26 702.00,94.26 712.00,94.26 722.00,94.26 732.00,94.26 742.00,94.26 752.00,94.26 762.00,94.26 772.00,94.26 782.00,94.26 792.00,94.26 802.00,94.26 812.00,94.26 822.00,94.26 832.00,94.26 842.00,94.26 852.00,94.26 862.00,94.26 872.00,94.26 882.00,94.26 892.00,94.26 902.00,94.26 912.00,94.26 922.00,94.26 932.00,94.26 942.00,94.26 952.00,94.26 962.00,94.26 972.00,94.26 982.00,94.26 992.00,94.26 1002.00,94.26 1012.00,94.26 1022.00,94.26 1032.00,94.26 1042.00,94.26 1052.00,94.26 1062.00,94.26"/>
<polyline fill="none" stroke="#1d4ed8" stroke-width="2" stroke-dasharray="2 5" points="72.00,94.27 82.00,94.26 92.00,94.26 102.00,94.26 112.00,94.28 122.00,94.32 132.00,94.35 142.00,94.39 152.00,95.00 162.00,94.83 172.00,94.34 182.00,93.48 192.00,92.25 202.00,90.77 212.00,89.17 222.00,87.57 232.00,86.09 242.00,84.77 252.00,83.68 262.00,82.80 272.00,82.13 282.00,82.89 292.00,85.07 302.00,88.59 312.00,93.13 322.00,98.28 332.00,103.68 342.00,109.08 352.00,114.33 362.00,119.36 372.00,124.14 382.00,128.70 392.00,133.05 402.00,137.47 412.00,140.84 422.00,142.82 432.00,142.87 442.00,140.80 452.00,136.90 462.00,131.77 472.00,126.12 482.00,120.63 492.00,115.80 502.00,111.96 512.00,109.28 522.00,107.76 532.00,107.35 542.00,107.93 552.00,109.35 562.00,111.46 572.00,114.13 582.00,117.23 592.00,120.66 602.00,124.31 612.00,128.11 622.00,132.00 632.00,135.91 642.00,139.79 652.00,143.59 662.00,147.28 672.00,150.82 682.00,154.18 692.00,157.14 702.00,159.53 712.00,161.63 722.00,163.37 732.00,165.57 742.00,167.83 752.00,170.06 762.00,172.14 772.00,174.01 782.00,175.64 792.00,177.00 802.00,178.12 812.00,178.96 822.00,179.51 832.00,179.68 842.00,179.39 852.00,178.52 862.00,176.92 872.00,174.48 882.00,171.08 892.00,166.68 902.00,160.92 912.00,154.67 922.00,148.45 932.00,141.04 942.00,133.43 952.00,125.88 962.00,118.62 972.00,111.87 982.00,105.74 992.00,100.33 1002.00,95.66 1012.00,91.73 1022.00,88.51 1032.00,85.92 1042.00,83.95 1052.00,82.65 1062.00,82.08"/>
<line x1="262.00" x2="262.00" y1="56" y2="206" stroke="#f97316" opacity="0.45"/>
<line x1="382.00" x2="382.00" y1="56" y2="206" stroke="#f97316" opacity="0.45"/>
<line x1="392.00" x2="392.00" y1="56" y2="206" stroke="#f97316" opacity="0.45"/>
<line x1="672.00" x2="672.00" y1="56" y2="206" stroke="#f97316" opacity="0.45"/>
<line x1="682.00" x2="682.00" y1="56" y2="206" stroke="#f97316" opacity="0.45"/>
<text x="18" y="311" font-size="13" fill="#374151" transform="rotate(-90 18 311)">Output T</text>
<rect x="72" y="236" width="1000" height="150" fill="#f9fafb" stroke="#d1d5db"/>
<line x1="72" x2="1072" y1="386.00" y2="386.00" stroke="#e5e7eb"/>
<text x="64" y="390.00" font-size="10" text-anchor="end" fill="#6b7280">305.20</text>
<line x1="72" x2="1072" y1="311.00" y2="311.00" stroke="#e5e7eb"/>
<text x="64" y="315.00" font-size="10" text-anchor="end" fill="#6b7280">323.01</text>
<line x1="72" x2="1072" y1="236.00" y2="236.00" stroke="#e5e7eb"/>
<text x="64" y="240.00" font-size="10" text-anchor="end" fill="#6b7280">340.82</text>
<polyline fill="none" stroke="#dc2626" stroke-width="2" points="72.00,306.75 82.00,306.76 92.00,306.78 102.00,306.79 112.00,306.81 122.00,306.83 132.00,306.84 142.00,306.64 152.00,306.21 162.00,305.83 172.00,305.48 182.00,305.18 192.00,304.93 202.00,304.71 212.00,304.54 222.00,304.40 232.00,304.30 242.00,304.24 252.00,304.20 262.00,305.80 272.00,307.35 282.00,308.72 292.00,309.91 302.00,310.92 312.00,311.76 322.00,312.42 332.00,312.89 342.00,313.20 352.00,313.33 362.00,313.30 372.00,313.10 382.00,312.75 392.00,310.06 402.00,307.63 412.00,305.11 422.00,302.57 432.00,300.05 442.00,297.58 452.00,295.16 462.00,292.81 472.00,290.53 482.00,288.32 492.00,286.19 502.00,284.13 512.00,282.14 522.00,280.22 532.00,278.36 542.00,276.57 552.00,274.85 562.00,273.21 572.00,271.65 582.00,270.20 592.00,268.86 602.00,267.65 612.00,266.61 622.00,265.76 632.00,265.13 642.00,264.76 652.00,264.68 662.00,264.91 672.00,265.50 682.00,267.23 692.00,268.20 702.00,270.44 712.00,273.76 722.00,277.92 732.00,282.61 742.00,287.57 752.00,292.51 762.00,297.21 772.00,301.50 782.00,305.28 792.00,308.49 802.00,311.11 812.00,313.15 822.00,314.66 832.00,315.69 842.00,316.29 852.00,316.55 862.00,316.50 872.00,316.22 882.00,315.76 892.00,315.17 902.00,314.48 912.00,313.73 922.00,312.96 932.00,312.19 942.00,311.44 952.00,310.73 962.00,310.06 972.00,309.45 982.00,308.90 992.00,308.42 1002.00,308.01 1012.00,307.65 1022.00,307.36 1032.00,307.25 1042.00,307.14 1052.00,306.87 1062.00,306.50 1072.00,306.04"/>
<polyline fill="none" stroke="#fca5a5" stroke-width="2" stroke-dasharray="7 5" points="72.00,306.82 82.00,306.82 92.00,306.82 102.00,306.82 112.00,306.82 122.00,306.82 132.00,306.82 142.00,306.82 152.00,306.82 162.00,306.82 172.00,306.82 182.00,306.82 192.00,306.82 202.00,306.82 212.00,306.82 222.00,306.82 232.00,306.82 242.00,306.82 252.00,306.82 262.00,306.82 272.00,306.82 282.00,306.82 292.00,306.82 302.00,306.82 312.00,306.82 322.00,306.82 332.00,306.82 342.00,306.82 352.00,306.82 362.00,306.82 372.00,306.82 382.00,306.82 392.00,306.82 402.00,306.82 412.00,306.82 422.00,306.82 432.00,306.82 442.00,306.82 452.00,306.82 462.00,306.82 472.00,306.82 482.00,306.82 492.00,306.82 502.00,306.82 512.00,306.82 522.00,306.82 532.00,306.82 542.00,306.82 552.00,306.82 562.00,306.82 572.00,306.82 582.00,306.82 592.00,306.82 602.00,306.82 612.00,306.82 622.00,306.82 632.00,306.82 642.00,306.82 652.00,306.82 662.00,306.82 672.00,306.82 682.00,306.82 692.00,306.82 702.00,306.82 712.00,306.82 722.00,306.82 732.00,306.82 742.00,306.82 752.00,306.82 762.00,306.82 772.00,306.82 782.00,306.82 792.00,306.82 802.00,306.82 812.00,306.82 822.00,306.82 832.00,306.82 842.00,306.82 852.00,306.82 862.00,306.82 872.00,306.82 882.00,306.82 892.00,306.82 902.00,306.82 912.00,306.82 922.00,306.82 932.00,306.82 942.00,306.82 952.00,306.82 962.00,306.82 972.00,306.82 982.00,306.82 992.00,306.82 1002.00,306.82 1012.00,306.82 1022.00,306.82 1032.00,306.82 1042.00,306.82 1052.00,306.82 1062.00,306.82"/>
<polyline fill="none" stroke="#991b1b" stroke-width="2" stroke-dasharray="2 5" points="72.00,306.82 82.00,306.82 92.00,306.82 102.00,306.82 112.00,306.82 122.00,306.83 132.00,306.83 142.00,306.83 152.00,306.52 162.00,303.73 172.00,301.91 182.00,301.07 192.00,300.89 202.00,301.06 212.00,301.43 222.00,301.89 232.00,302.40 242.00,302.94 252.00,303.48 262.00,304.03 272.00,314.00 282.00,323.32 292.00,328.07 302.00,329.60 312.00,329.24 322.00,327.82 332.00,325.81 342.00,323.44 352.00,320.83 362.00,318.06 372.00,315.17 382.00,312.20 392.00,309.19 402.00,292.44 412.00,279.64 422.00,271.00 432.00,265.17 442.00,261.18 452.00,258.37 462.00,256.29 472.00,254.70 482.00,253.43 492.00,252.38 502.00,251.48 512.00,250.66 522.00,249.88 532.00,249.14 542.00,248.43 552.00,247.77 562.00,247.18 572.00,246.71 582.00,246.41 592.00,246.34 602.00,246.59 612.00,247.24 622.00,248.38 632.00,250.10 642.00,252.50 652.00,255.66 662.00,259.64 672.00,264.45 682.00,270.07 692.00,282.14 702.00,285.47 712.00,295.53 722.00,309.57 732.00,327.39 742.00,344.24 752.00,358.15 762.00,368.12 772.00,373.87 782.00,375.66 792.00,374.08 802.00,369.88 812.00,363.83 822.00,356.66 832.00,348.97 842.00,341.24 852.00,333.82 862.00,326.96 872.00,320.79 882.00,315.40 892.00,310.79 902.00,307.74 912.00,304.63 922.00,303.14 932.00,301.31 942.00,300.02 952.00,299.20 962.00,298.77 972.00,298.68 982.00,298.86 992.00,299.25 1002.00,299.80 1012.00,300.47 1022.00,301.22 1032.00,302.02 1042.00,303.84 1052.00,305.12 1062.00,304.74"/>
<text x="18" y="491" font-size="13" fill="#374151" transform="rotate(-90 18 491)">Input Qc</text>
<rect x="72" y="416" width="1000" height="150" fill="#f9fafb" stroke="#d1d5db"/>
<line x1="72" x2="1072" y1="566.00" y2="566.00" stroke="#e5e7eb"/>
<text x="64" y="570.00" font-size="10" text-anchor="end" fill="#6b7280">7.73</text>
<line x1="72" x2="1072" y1="491.00" y2="491.00" stroke="#e5e7eb"/>
<text x="64" y="495.00" font-size="10" text-anchor="end" fill="#6b7280">470.80</text>
<line x1="72" x2="1072" y1="416.00" y2="416.00" stroke="#e5e7eb"/>
<text x="64" y="420.00" font-size="10" text-anchor="end" fill="#6b7280">933.87</text>
<polyline fill="none" stroke="#047857" stroke-width="2" points="72.00,466.52 82.00,466.33 92.00,466.33 102.00,466.33 112.00,466.33 122.00,466.33 132.00,461.13 142.00,458.57 152.00,458.54 162.00,458.44 172.00,458.30 182.00,458.13 192.00,457.95 202.00,457.77 212.00,457.60 222.00,457.44 232.00,457.30 242.00,457.16 252.00,555.22 262.00,555.66 272.00,555.66 282.00,555.66 292.00,555.66 302.00,555.66 312.00,555.66 322.00,555.66 332.00,555.66 342.00,555.66 352.00,555.66 362.00,555.66 372.00,555.65 382.00,426.34 392.00,555.66 402.00,555.27 412.00,554.52 422.00,553.51 432.00,552.29 442.00,550.91 452.00,549.39 462.00,547.78 472.00,546.07 482.00,544.28 492.00,542.42 502.00,540.48 512.00,538.46 522.00,536.36 532.00,534.17 542.00,531.90 552.00,529.55 562.00,527.10 572.00,524.57 582.00,521.96 592.00,519.27 602.00,516.52 612.00,513.71 622.00,510.87 632.00,508.00 642.00,505.13 652.00,502.28 662.00,499.49 672.00,426.34 682.00,426.34 692.00,426.34 702.00,426.34 712.00,426.34 722.00,426.34 732.00,426.34 742.00,426.34 752.00,426.34 762.00,426.54 772.00,427.01 782.00,427.68 792.00,428.47 802.00,429.31 812.00,430.13 822.00,430.90 832.00,431.60 842.00,432.19 852.00,432.67 862.00,433.05 872.00,433.33 882.00,433.51 892.00,433.62 902.00,433.66 912.00,433.65 922.00,433.61 932.00,433.54 942.00,433.46 952.00,433.37 962.00,433.29 972.00,433.22 982.00,433.17 992.00,433.13 1002.00,433.10 1012.00,433.10 1022.00,506.38 1032.00,522.30 1042.00,522.36 1052.00,522.44 1062.00,522.52"/>
<polyline fill="none" stroke="#34d399" stroke-width="2" stroke-dasharray="2 5" points="72.00,426.34 82.00,426.53 92.00,433.18 102.00,441.93 112.00,450.01 122.00,457.69 132.00,462.48 142.00,465.10 152.00,426.34 162.00,426.34 172.00,426.34 182.00,426.34 192.00,426.34 202.00,426.34 212.00,426.34 222.00,426.34 232.00,426.34 242.00,426.34 252.00,426.34 262.00,426.34 272.00,555.66 282.00,555.66 292.00,555.66 302.00,555.66 312.00,555.66 322.00,555.66 332.00,555.66 342.00,555.66 352.00,555.66 362.00,555.66 372.00,555.66 382.00,555.66 392.00,555.66 402.00,426.34 412.00,426.34 422.00,426.34 432.00,426.34 442.00,426.34 452.00,426.34 462.00,426.34 472.00,426.34 482.00,426.34 492.00,426.34 502.00,426.34 512.00,426.34 522.00,426.34 532.00,426.34 542.00,426.34 552.00,426.34 562.00,426.34 572.00,426.34 582.00,426.34 592.00,426.34 602.00,426.34 612.00,426.34 622.00,426.34 632.00,426.34 642.00,426.34 652.00,426.34 662.00,426.34 672.00,426.34 682.00,426.34 692.00,426.34 702.00,426.34 712.00,426.34 722.00,555.66 732.00,555.66 742.00,555.66 752.00,555.66 762.00,555.66 772.00,555.66 782.00,555.66 792.00,555.66 802.00,555.66 812.00,555.66 822.00,555.66 832.00,555.66 842.00,555.66 852.00,555.66 862.00,555.66 872.00,555.66 882.00,555.66 892.00,555.66 902.00,426.34 912.00,426.34 922.00,426.34 932.00,426.34 942.00,426.34 952.00,426.34 962.00,426.34 972.00,426.34 982.00,426.34 992.00,426.34 1002.00,426.34 1012.00,426.34 1022.00,426.34 1032.00,426.34 1042.00,426.34 1052.00,426.34 1062.00,426.34"/>
<text x="18" y="671" font-size="13" fill="#374151" transform="rotate(-90 18 671)">Input Qm</text>
<rect x="72" y="596" width="1000" height="150" fill="#f9fafb" stroke="#d1d5db"/>
<line x1="72" x2="1072" y1="746.00" y2="746.00" stroke="#e5e7eb"/>
<text x="64" y="750.00" font-size="10" text-anchor="end" fill="#6b7280">30.64</text>
<line x1="72" x2="1072" y1="671.00" y2="671.00" stroke="#e5e7eb"/>
<text x="64" y="675.00" font-size="10" text-anchor="end" fill="#6b7280">374.00</text>
<line x1="72" x2="1072" y1="596.00" y2="596.00" stroke="#e5e7eb"/>
<text x="64" y="600.00" font-size="10" text-anchor="end" fill="#6b7280">717.36</text>
<polyline fill="none" stroke="#7c3aed" stroke-width="2" points="72.00,644.18 82.00,644.41 92.00,644.40 102.00,644.40 112.00,644.38 122.00,644.36 132.00,632.53 142.00,619.16 152.00,619.22 162.00,619.46 172.00,619.85 182.00,620.36 192.00,620.99 202.00,621.72 212.00,622.55 222.00,623.48 232.00,624.50 242.00,625.57 252.00,726.34 262.00,735.66 272.00,735.66 282.00,735.54 292.00,734.94 302.00,733.94 312.00,732.57 322.00,730.87 332.00,728.85 342.00,726.56 352.00,724.02 362.00,721.28 372.00,718.36 382.00,606.34 392.00,606.34 402.00,606.34 412.00,606.34 422.00,606.35 432.00,606.34 442.00,606.35 452.00,606.81 462.00,607.92 472.00,609.68 482.00,612.06 492.00,615.01 502.00,618.46 512.00,622.33 522.00,626.54 532.00,631.00 542.00,635.65 552.00,640.44 562.00,645.29 572.00,650.17 582.00,655.03 592.00,659.82 602.00,664.51 612.00,669.05 622.00,673.40 632.00,677.52 642.00,681.35 652.00,684.84 662.00,687.93 672.00,606.34 682.00,735.66 692.00,735.65 702.00,735.65 712.00,735.65 722.00,734.57 732.00,732.17 742.00,728.44 752.00,723.49 762.00,717.50 772.00,710.69 782.00,703.31 792.00,695.55 802.00,687.62 812.00,679.67 822.00,671.83 832.00,664.20 842.00,656.85 852.00,649.85 862.00,643.26 872.00,637.13 882.00,631.49 892.00,626.41 902.00,621.91 912.00,618.02 922.00,614.77 932.00,612.16 942.00,610.18 952.00,608.79 962.00,607.97 972.00,607.65 982.00,607.78 992.00,608.30 1002.00,609.15 1012.00,610.26 1022.00,623.37 1032.00,633.43 1042.00,634.98 1052.00,636.56 1062.00,638.20"/>
<polyline fill="none" stroke="#c084fc" stroke-width="2" stroke-dasharray="2 5" points="72.00,616.16 82.00,616.27 92.00,613.66 102.00,609.07 112.00,606.34 122.00,606.34 132.00,606.34 142.00,606.34 152.00,735.66 162.00,735.66 172.00,735.66 182.00,735.66 192.00,735.66 202.00,735.66 212.00,735.66 222.00,735.66 232.00,735.66 242.00,735.66 252.00,735.66 262.00,735.66 272.00,606.34 282.00,606.34 292.00,606.34 302.00,606.34 312.00,606.34 322.00,606.34 332.00,606.34 342.00,606.34 352.00,606.34 362.00,606.34 372.00,606.34 382.00,606.34 392.00,606.34 402.00,735.66 412.00,735.66 422.00,735.66 432.00,735.66 442.00,735.66 452.00,735.66 462.00,735.66 472.00,735.66 482.00,735.66 492.00,735.66 502.00,735.66 512.00,735.66 522.00,735.66 532.00,735.66 542.00,735.66 552.00,735.66 562.00,735.66 572.00,735.66 582.00,735.66 592.00,735.66 602.00,735.66 612.00,735.66 622.00,735.66 632.00,735.66 642.00,735.66 652.00,735.66 662.00,735.66 672.00,735.66 682.00,735.66 692.00,735.66 702.00,735.66 712.00,735.66 722.00,606.34 732.00,606.34 742.00,606.34 752.00,606.34 762.00,606.34 772.00,606.34 782.00,606.34 792.00,606.34 802.00,606.34 812.00,606.34 822.00,606.34 832.00,606.34 842.00,606.34 852.00,606.34 862.00,606.34 872.00,606.34 882.00,606.34 892.00,606.34 902.00,606.34 912.00,606.34 922.00,735.66 932.00,735.66 942.00,735.66 952.00,735.66 962.00,735.66 972.00,735.66 982.00,735.66 992.00,735.66 1002.00,735.66 1012.00,735.66 1022.00,735.66 1032.00,735.66 1042.00,735.66 1052.00,735.66 1062.00,735.66"/>
<text x="72.00" y="764" font-size="11" text-anchor="middle" fill="#374151">220</text>
<text x="572.00" y="764" font-size="11" text-anchor="middle" fill="#374151">270</text>
<text x="1072.00" y="764" font-size="11" text-anchor="middle" fill="#374151">320</text>
<line x1="682" x2="706" y1="18" y2="18" stroke="#2563eb" stroke-width="2"/><text x="711" y="22" font-size="11" fill="#374151">y eta</text>
<line x1="774" x2="798" y1="18" y2="18" stroke="#93c5fd" stroke-width="2" stroke-dasharray="7 5"/><text x="803" y="22" font-size="11" fill="#374151">sp eta</text>
<line x1="866" x2="890" y1="18" y2="18" stroke="#1d4ed8" stroke-width="2" stroke-dasharray="2 5"/><text x="895" y="22" font-size="11" fill="#374151">ys eta</text>
<line x1="958" x2="982" y1="18" y2="18" stroke="#dc2626" stroke-width="2"/><text x="987" y="22" font-size="11" fill="#374151">y T</text>
<line x1="682" x2="706" y1="36" y2="36" stroke="#fca5a5" stroke-width="2" stroke-dasharray="7 5"/><text x="711" y="40" font-size="11" fill="#374151">sp T</text>
<line x1="774" x2="798" y1="36" y2="36" stroke="#991b1b" stroke-width="2" stroke-dasharray="2 5"/><text x="803" y="40" font-size="11" fill="#374151">ys T</text>
<line x1="866" x2="890" y1="36" y2="36" stroke="#047857" stroke-width="2"/><text x="895" y="40" font-size="11" fill="#374151">u</text>
<line x1="958" x2="982" y1="36" y2="36" stroke="#34d399" stroke-width="2" stroke-dasharray="2 5"/><text x="987" y="40" font-size="11" fill="#374151">u_s</text>
</svg>