<svg xmlns="http://www.w3.org/2000/svg" width="900" height="330" viewBox="0 0 900 330">
<rect width="100%" height="100%" fill="white"/>
<text x="70" y="28" font-size="19" font-weight="700" fill="#111827">bounded_hard: physical-equivalent d_hat, steps 220-320</text>
<rect x="70" y="50" width="790" height="210" fill="#f9fafb" stroke="#d1d5db"/>
<line x1="70" x2="860" y1="260.00" y2="260.00" stroke="#e5e7eb"/>
<text x="62" y="264.00" font-size="11" text-anchor="end" fill="#6b7280">-6.15</text>
<line x1="70" x2="860" y1="207.50" y2="207.50" stroke="#e5e7eb"/>
<text x="62" y="211.50" font-size="11" text-anchor="end" fill="#6b7280">-1.07</text>
<line x1="70" x2="860" y1="155.00" y2="155.00" stroke="#e5e7eb"/>
<text x="62" y="159.00" font-size="11" text-anchor="end" fill="#6b7280">4.00</text>
<line x1="70" x2="860" y1="102.50" y2="102.50" stroke="#e5e7eb"/>
<text x="62" y="106.50" font-size="11" text-anchor="end" fill="#6b7280">9.08</text>
<line x1="70" x2="860" y1="50.00" y2="50.00" stroke="#e5e7eb"/>
<text x="62" y="54.00" font-size="11" text-anchor="end" fill="#6b7280">14.15</text>
<polyline fill="none" stroke="#2563eb" stroke-width="2.2" points="70.00,190.17 77.90,190.17 85.80,190.17 93.70,190.17 101.60,190.17 109.50,190.17 117.40,190.18 125.30,190.18 133.20,190.18 141.10,190.15 149.00,190.07 156.90,189.91 164.80,189.70 172.70,189.44 180.60,189.15 188.50,188.87 196.40,188.61 204.30,188.38 212.20,188.18 220.10,188.03 228.00,187.97 235.90,188.10 243.80,188.47 251.70,189.07 259.60,189.85 267.50,190.72 275.40,191.65 283.30,192.58 291.20,193.48 299.10,194.35 307.00,195.19 314.90,195.98 322.80,196.73 330.70,197.45 338.60,198.09 346.50,198.61 354.40,199.00 362.30,199.22 370.20,199.28 378.10,199.19 386.00,199.01 393.90,198.76 401.80,198.49 409.70,198.23 417.60,198.01 425.50,197.85 433.40,197.76 441.30,197.74 449.20,197.79 457.10,197.91 465.00,198.10 472.90,198.33 480.80,198.61 488.70,198.93 496.60,199.27 504.50,199.64 512.40,200.01 520.30,200.39 528.20,200.77 536.10,201.14 544.00,201.49 551.90,201.80 559.80,201.96 567.70,201.91 575.60,201.63 583.50,201.15 591.40,200.52 599.30,199.82 607.20,199.10 615.10,198.41 623.00,197.78 630.90,197.22 638.80,196.74 646.70,196.34 654.60,196.00 662.50,195.72 670.40,195.48 678.30,195.28 686.20,195.11 694.10,194.96 702.00,194.82 709.90,194.68 717.80,194.55 725.70,194.42 733.60,194.29 741.50,194.15 749.40,194.01 757.30,193.86 765.20,193.70 773.10,193.54 781.00,193.38 788.90,193.21 796.80,193.03 804.70,192.86 812.60,192.68 820.50,192.50 828.40,192.32 836.30,192.14 844.20,191.97 852.10,191.79 860.00,191.63"/>
<polyline fill="none" stroke="#dc2626" stroke-width="2.2" points="70.00,192.31 77.90,192.31 85.80,192.45 93.70,192.67 101.60,192.84 109.50,192.96 117.40,193.03 125.30,193.07 133.20,189.41 141.10,182.56 149.00,178.08 156.90,176.04 164.80,175.57 172.70,176.00 180.60,176.90 188.50,178.04 196.40,179.30 204.30,180.61 212.20,181.95 220.10,183.28 228.00,212.04 235.90,231.86 243.80,240.79 251.70,242.50 259.60,240.14 267.50,235.64 275.40,230.04 283.30,223.87 291.20,217.39 299.10,210.73 307.00,203.97 314.90,197.14 322.80,190.30 330.70,164.88 338.60,142.18 346.50,125.14 354.40,112.67 362.30,103.33 370.20,96.09 378.10,90.27 386.00,85.47 393.90,81.45 401.80,78.05 409.70,75.18 417.60,72.79 425.50,70.84 433.40,69.32 441.30,68.24 449.20,67.62 457.10,67.50 465.00,67.92 472.90,68.95 480.80,70.65 488.70,73.10 496.60,76.35 504.50,80.47 512.40,85.49 520.30,91.45 528.20,98.31 536.10,106.04 544.00,114.53 551.90,126.91 559.80,130.89 567.70,129.87 575.60,127.64 583.50,126.16 591.40,126.13 599.30,127.56 607.20,130.25 615.10,133.93 623.00,138.34 630.90,143.27 638.80,148.55 646.70,154.01 654.60,159.54 662.50,165.03 670.40,170.37 678.30,175.49 686.20,180.31 694.10,184.77 702.00,188.83 709.90,192.44 717.80,195.60 725.70,198.28 733.60,200.51 741.50,202.30 749.40,203.67 757.30,204.66 765.20,205.31 773.10,205.66 781.00,205.77 788.90,205.66 796.80,205.38 804.70,204.98 812.60,204.49 820.50,203.93 828.40,203.34 836.30,202.74 844.20,202.14 852.10,201.57 860.00,201.02"/>
<text x="70.00" y="282" font-size="11" text-anchor="middle" fill="#374151">220</text>
<text x="465.00" y="282" font-size="11" text-anchor="middle" fill="#374151">270</text>
<text x="860.00" y="282" font-size="11" text-anchor="middle" fill="#374151">320</text>
<line x1="690" x2="715" y1="24" y2="24" stroke="#2563eb" stroke-width="2.2"/><text x="722" y="28" font-size="12" fill="#374151">d_hat eta equiv.</text>
<line x1="690" x2="715" y1="42" y2="42" stroke="#dc2626" stroke-width="2.2"/><text x="722" y="46" font-size="12" fill="#374151">d_hat T equiv.</text>
<text x="70" y="305" font-size="12" fill="#4b5563">These are scaled disturbance states multiplied by the physical output ranges; they are model-mismatch estimates, not external plant disturbances.</text>
</svg>