<svg xmlns="http://www.w3.org/2000/svg" width="1100" height="780" viewBox="0 0 1100 780">
<rect width="100%" height="100%" fill="white"/>
<text x="72" y="28" font-size="20" font-weight="700" fill="#111827">bounded_soft: window 450-560</text>
<text x="72" y="48" font-size="12" fill="#4b5563">solid = measured/applied, dashed = scheduled setpoint, dotted = selected steady target</text>
<text x="18" y="131" font-size="13" fill="#374151" transform="rotate(-90 18 131)">Output eta</text>
<rect x="72" y="56" width="1000" height="150" fill="#f9fafb" stroke="#d1d5db"/>
<line x1="72" x2="1072" y1="206.00" y2="206.00" stroke="#e5e7eb"/>
<text x="64" y="210.00" font-size="10" text-anchor="end" fill="#6b7280">2.21</text>
<line x1="72" x2="1072" y1="131.00" y2="131.00" stroke="#e5e7eb"/>
<text x="64" y="135.00" font-size="10" text-anchor="end" fill="#6b7280">3.09</text>
<line x1="72" x2="1072" y1="56.00" y2="56.00" stroke="#e5e7eb"/>
<text x="64" y="60.00" font-size="10" text-anchor="end" fill="#6b7280">3.97</text>
<polyline fill="none" stroke="#2563eb" stroke-width="2" points="72.00,93.91 81.09,92.35 90.18,90.81 99.27,89.32 108.36,87.90 117.45,86.57 126.55,85.34 135.64,84.22 144.73,83.22 153.82,82.34 162.91,81.59 172.00,80.97 181.09,80.48 190.18,80.10 199.27,79.85 208.36,79.72 217.45,79.69 226.55,79.75 235.64,79.92 244.73,80.16 253.82,80.48 262.91,80.87 272.00,81.32 281.09,81.65 290.18,81.42 299.27,80.46 308.36,79.01 317.45,77.25 326.55,75.38 335.64,73.51 344.73,71.76 353.82,70.20 362.91,68.88 372.00,67.83 381.09,67.05 390.18,66.56 399.27,66.34 408.36,66.39 417.45,66.61 426.55,68.03 435.64,71.12 444.73,75.29 453.82,80.17 462.91,85.51 472.00,91.17 481.09,97.01 490.18,102.98 499.27,109.01 508.36,115.07 517.45,121.11 526.55,127.11 535.64,132.79 544.73,136.89 553.82,137.83 562.91,135.32 572.00,130.04 581.09,123.12 590.18,115.69 599.27,108.59 608.36,102.37 617.45,97.35 626.55,93.65 635.64,91.27 644.73,90.16 653.82,90.22 662.91,91.33 672.00,93.35 681.09,96.16 690.18,99.63 699.27,103.62 708.36,108.03 717.45,112.74 726.55,117.65 735.64,122.68 744.73,127.75 753.82,132.80 762.91,137.78 772.00,142.65 781.09,147.38 790.18,151.94 799.27,156.32 808.36,160.53 817.45,164.55 826.55,168.39 835.64,172.06 844.73,175.55 853.82,178.87 862.91,181.99 872.00,184.92 881.09,187.60 890.18,190.01 899.27,192.09 908.36,193.77 917.45,194.97 926.55,195.62 935.64,195.66 944.73,195.00 953.82,193.62 962.91,191.50 972.00,188.65 981.09,185.13 990.18,180.99 999.27,176.34 1008.36,171.30 1017.45,165.97 1026.55,160.48 1035.64,154.94 1044.73,149.46 1053.82,144.12 1062.91,139.01 1072.00,134.18"/>
<polyline fill="none" stroke="#93c5fd" stroke-width="2" stroke-dasharray="7 5" points="72.00,104.40 81.09,104.40 90.18,104.40 99.27,104.40 108.36,104.40 117.45,104.40 126.55,104.40 135.64,104.40 144.73,104.40 153.82,104.40 162.91,104.40 172.00,104.40 181.09,104.40 190.18,104.40 199.27,104.40 208.36,104.40 217.45,104.40 226.55,104.40 235.64,104.40 244.73,104.40 253.82,104.40 262.91,104.40 272.00,104.40 281.09,104.40 290.18,104.40 299.27,104.40 308.36,104.40 317.45,104.40 326.55,104.40 335.64,104.40 344.73,104.40 353.82,104.40 362.91,104.40 372.00,104.40 381.09,104.40 390.18,104.40 399.27,104.40 408.36,104.40 417.45,104.40 426.55,104.40 435.64,104.40 444.73,104.40 453.82,104.40 462.91,104.40 472.00,104.40 481.09,104.40 490.18,104.40 499.27,104.40 508.36,104.40 517.45,104.40 526.55,104.40 535.64,104.40 544.73,104.40 553.82,104.40 562.91,104.40 572.00,104.40 581.09,104.40 590.18,104.40 599.27,104.40 608.36,104.40 617.45,104.40 626.55,104.40 635.64,104.40 644.73,104.40 653.82,104.40 662.91,104.40 672.00,104.40 681.09,104.40 690.18,104.40 699.27,104.40 708.36,104.40 717.45,104.40 726.55,104.40 735.64,104.40 744.73,104.40 753.82,104.40 762.91,104.40 772.00,104.40 781.09,104.40 790.18,104.40 799.27,104.40 808.36,104.40 817.45,104.40 826.55,104.40 835.64,104.40 844.73,104.40 853.82,104.40 862.91,104.40 872.00,104.40 881.09,104.40 890.18,104.40 899.27,104.40 908.36,104.40 917.45,104.40 926.55,104.40 935.64,104.40 944.73,104.40 953.82,104.40 962.91,104.40 972.00,104.40 981.09,104.40 990.18,104.40 999.27,104.40 1008.36,104.40 1017.45,104.40 1026.55,104.40 1035.64,104.40 1044.73,104.40 1053.82,104.40 1062.91,104.40"/>
<polyline fill="none" stroke="#1d4ed8" stroke-width="2" stroke-dasharray="2 5" points="72.00,81.59 81.09,80.90 90.18,80.14 99.27,79.35 108.36,78.54 117.45,77.74 126.55,76.96 135.64,76.22 144.73,75.54 153.82,74.91 162.91,74.36 172.00,73.89 181.09,73.55 190.18,73.46 199.27,73.47 208.36,73.56 217.45,73.74 226.55,73.98 235.64,74.29 244.73,74.66 253.82,75.09 262.91,75.56 272.00,76.07 281.09,76.62 290.18,77.16 299.27,78.11 308.36,78.11 317.45,77.69 326.55,76.79 335.64,75.49 344.73,73.96 353.82,72.33 362.91,70.77 372.00,69.38 381.09,68.22 390.18,67.34 399.27,67.06 408.36,67.01 417.45,66.99 426.55,67.19 435.64,66.73 444.73,68.05 453.82,70.35 462.91,73.62 472.00,77.71 481.09,82.39 490.18,87.42 499.27,92.61 508.36,97.84 517.45,103.02 526.55,108.11 535.64,112.61 544.73,118.39 553.82,122.72 562.91,125.84 572.00,126.93 581.09,125.47 590.18,121.50 599.27,115.61 608.36,108.67 617.45,101.59 626.55,95.14 635.64,89.85 644.73,86.00 653.82,83.69 662.91,82.84 672.00,83.31 681.09,84.91 690.18,87.44 699.27,90.69 708.36,94.48 717.45,98.66 726.55,103.09 735.64,107.66 744.73,112.27 753.82,116.85 762.91,121.34 772.00,125.70 781.09,129.90 790.18,132.86 799.27,137.25 808.36,140.89 817.45,144.34 826.55,147.61 835.64,150.72 844.73,153.67 853.82,156.49 862.91,159.18 872.00,161.75 881.09,164.20 890.18,166.51 899.27,168.67 908.36,170.64 917.45,172.37 926.55,173.82 935.64,174.75 944.73,175.02 953.82,175.21 962.91,175.91 972.00,174.98 981.09,173.43 990.18,171.30 999.27,168.60 1008.36,165.40 1017.45,161.78 1026.55,157.84 1035.64,153.68 1044.73,149.43 1053.82,145.17 1062.91,141.02"/>
<text x="18" y="311" font-size="13" fill="#374151" transform="rotate(-90 18 311)">Output T</text>
<rect x="72" y="236" width="1000" height="150" fill="#f9fafb" stroke="#d1d5db"/>
<line x1="72" x2="1072" y1="386.00" y2="386.00" stroke="#e5e7eb"/>
<text x="64" y="390.00" font-size="10" text-anchor="end" fill="#6b7280">316.48</text>
<line x1="72" x2="1072" y1="311.00" y2="311.00" stroke="#e5e7eb"/>
<text x="64" y="315.00" font-size="10" text-anchor="end" fill="#6b7280">325.66</text>
<line x1="72" x2="1072" y1="236.00" y2="236.00" stroke="#e5e7eb"/>
<text x="64" y="240.00" font-size="10" text-anchor="end" fill="#6b7280">334.84</text>
<polyline fill="none" stroke="#dc2626" stroke-width="2" points="72.00,361.34 81.09,360.80 90.18,360.29 99.27,359.81 108.36,359.36 117.45,358.95 126.55,358.57 135.64,358.23 144.73,357.93 153.82,357.67 162.91,357.44 172.00,357.25 181.09,357.09 190.18,356.96 199.27,356.86 208.36,356.79 217.45,356.74 226.55,356.72 235.64,356.72 244.73,356.73 253.82,356.76 262.91,356.80 272.00,356.85 281.09,356.48 290.18,355.32 299.27,354.27 308.36,353.31 317.45,352.47 326.55,351.74 335.64,351.11 344.73,350.59 353.82,350.18 362.91,349.86 372.00,349.64 381.09,349.50 390.18,349.46 399.27,349.49 408.36,349.60 417.45,349.34 426.55,351.37 435.64,353.03 444.73,354.35 453.82,355.37 462.91,356.12 472.00,356.63 481.09,356.93 490.18,357.03 499.27,356.95 508.36,356.71 517.45,356.32 526.55,355.78 535.64,352.50 544.73,346.71 553.82,341.16 562.91,335.87 572.00,330.86 581.09,326.14 590.18,321.70 599.27,317.55 608.36,313.68 617.45,310.09 626.55,306.80 635.64,303.79 644.73,301.09 653.82,298.70 662.91,296.64 672.00,294.93 681.09,293.58 690.18,292.62 699.27,292.08 708.36,291.96 717.45,292.29 726.55,293.08 735.64,294.31 744.73,295.98 753.82,298.06 762.91,300.51 772.00,303.27 781.09,306.27 790.18,309.45 799.27,312.72 808.36,316.03 817.45,319.30 826.55,322.47 835.64,325.48 844.73,328.30 853.82,330.88 862.91,333.21 872.00,335.26 881.09,337.03 890.18,338.52 899.27,339.74 908.36,340.68 917.45,341.37 926.55,341.83 935.64,342.07 944.73,342.11 953.82,341.98 962.91,341.70 972.00,341.29 981.09,340.77 990.18,340.17 999.27,339.51 1008.36,338.80 1017.45,338.08 1026.55,337.35 1035.64,336.64 1044.73,335.96 1053.82,335.32 1062.91,334.74 1072.00,334.23"/>
<polyline fill="none" stroke="#fca5a5" stroke-width="2" stroke-dasharray="7 5" points="72.00,349.05 81.09,349.05 90.18,349.05 99.27,349.05 108.36,349.05 117.45,349.05 126.55,349.05 135.64,349.05 144.73,349.05 153.82,349.05 162.91,349.05 172.00,349.05 181.09,349.05 190.18,349.05 199.27,349.05 208.36,349.05 217.45,349.05 226.55,349.05 235.64,349.05 244.73,349.05 253.82,349.05 262.91,349.05 272.00,349.05 281.09,349.05 290.18,349.05 299.27,349.05 308.36,349.05 317.45,349.05 326.55,349.05 335.64,349.05 344.73,349.05 353.82,349.05 362.91,349.05 372.00,349.05 381.09,349.05 390.18,349.05 399.27,349.05 408.36,349.05 417.45,349.05 426.55,349.05 435.64,349.05 444.73,349.05 453.82,349.05 462.91,349.05 472.00,349.05 481.09,349.05 490.18,349.05 499.27,349.05 508.36,349.05 517.45,349.05 526.55,349.05 535.64,349.05 544.73,349.05 553.82,349.05 562.91,349.05 572.00,349.05 581.09,349.05 590.18,349.05 599.27,349.05 608.36,349.05 617.45,349.05 626.55,349.05 635.64,349.05 644.73,349.05 653.82,349.05 662.91,349.05 672.00,349.05 681.09,349.05 690.18,349.05 699.27,349.05 708.36,349.05 717.45,349.05 726.55,349.05 735.64,349.05 744.73,349.05 753.82,349.05 762.91,349.05 772.00,349.05 781.09,349.05 790.18,349.05 799.27,349.05 808.36,349.05 817.45,349.05 826.55,349.05 835.64,349.05 844.73,349.05 853.82,349.05 862.91,349.05 872.00,349.05 881.09,349.05 890.18,349.05 899.27,349.05 908.36,349.05 917.45,349.05 926.55,349.05 935.64,349.05 944.73,349.05 953.82,349.05 962.91,349.05 972.00,349.05 981.09,349.05 990.18,349.05 999.27,349.05 1008.36,349.05 1017.45,349.05 1026.55,349.05 1035.64,349.05 1044.73,349.05 1053.82,349.05 1062.91,349.05"/>
<polyline fill="none" stroke="#991b1b" stroke-width="2" stroke-dasharray="2 5" points="72.00,350.57 81.09,350.61 90.18,350.66 99.27,350.72 108.36,350.77 117.45,350.82 126.55,350.87 135.64,350.92 144.73,350.97 153.82,351.01 162.91,351.05 172.00,351.08 181.09,351.19 190.18,351.61 199.27,352.04 208.36,352.47 217.45,352.89 226.55,353.29 235.64,353.68 244.73,354.05 253.82,354.40 262.91,354.71 272.00,354.99 281.09,355.24 290.18,352.47 299.27,347.94 308.36,342.72 317.45,340.05 326.55,339.21 335.64,339.43 344.73,340.23 353.82,341.33 362.91,342.61 372.00,343.97 381.09,345.39 390.18,346.84 399.27,347.47 408.36,348.23 417.45,349.66 426.55,348.40 435.64,361.09 444.73,370.75 453.82,374.30 462.91,373.92 472.00,371.52 481.09,368.27 490.18,364.75 499.27,361.22 508.36,357.78 517.45,354.45 526.55,351.23 535.64,349.40 544.73,330.27 553.82,295.62 562.91,271.32 572.00,257.49 581.09,250.50 590.18,247.39 599.27,246.34 608.36,246.41 617.45,247.12 626.55,248.26 635.64,249.74 644.73,251.57 653.82,253.77 662.91,256.39 672.00,259.49 681.09,263.14 690.18,267.42 699.27,272.40 708.36,278.11 717.45,284.59 726.55,291.81 735.64,299.71 744.73,308.17 753.82,317.02 762.91,326.05 772.00,335.03 781.09,343.70 790.18,349.94 799.27,355.64 808.36,361.86 817.45,366.95 826.55,370.87 835.64,373.60 844.73,375.17 853.82,375.66 862.91,375.16 872.00,373.81 881.09,371.75 890.18,369.11 899.27,366.03 908.36,362.63 917.45,359.03 926.55,355.32 935.64,352.03 944.73,349.44 953.82,345.88 962.91,344.31 972.00,341.14 981.09,338.20 990.18,335.53 999.27,333.15 1008.36,331.08 1017.45,329.34 1026.55,327.92 1035.64,326.83 1044.73,326.07 1053.82,325.62 1062.91,325.46"/>
<text x="18" y="491" font-size="13" fill="#374151" transform="rotate(-90 18 491)">Input Qc</text>
<rect x="72" y="416" width="1000" height="150" fill="#f9fafb" stroke="#d1d5db"/>
<line x1="72" x2="1072" y1="566.00" y2="566.00" stroke="#e5e7eb"/>
<text x="64" y="570.00" font-size="10" text-anchor="end" fill="#6b7280">7.73</text>
<line x1="72" x2="1072" y1="491.00" y2="491.00" stroke="#e5e7eb"/>
<text x="64" y="495.00" font-size="10" text-anchor="end" fill="#6b7280">470.80</text>
<line x1="72" x2="1072" y1="416.00" y2="416.00" stroke="#e5e7eb"/>
<text x="64" y="420.00" font-size="10" text-anchor="end" fill="#6b7280">933.87</text>
<polyline fill="none" stroke="#047857" stroke-width="2" points="72.00,457.26 81.09,457.57 90.18,457.87 99.27,458.17 108.36,458.46 117.45,458.75 126.55,459.03 135.64,459.31 144.73,459.59 153.82,459.87 162.91,460.15 172.00,460.44 181.09,460.72 190.18,461.00 199.27,461.29 208.36,461.58 217.45,461.88 226.55,462.17 235.64,462.47 244.73,462.77 253.82,463.07 262.91,463.38 272.00,464.66 281.09,466.52 290.18,466.80 299.27,466.97 308.36,467.08 317.45,467.14 326.55,467.18 335.64,467.21 344.73,467.24 353.82,467.28 362.91,467.33 372.00,467.39 381.09,467.46 390.18,467.55 399.27,467.66 408.36,540.74 417.45,547.08 426.55,547.20 435.64,547.48 444.73,547.89 453.82,548.35 462.91,548.82 472.00,549.27 481.09,549.68 490.18,550.04 499.27,550.35 508.36,550.61 517.45,550.81 526.55,554.55 535.64,555.66 544.73,555.45 553.82,554.79 562.91,553.78 572.00,552.52 581.09,551.10 590.18,549.56 599.27,547.95 608.36,546.28 617.45,544.57 626.55,542.82 635.64,541.04 644.73,539.23 653.82,537.40 662.91,535.56 672.00,533.70 681.09,531.84 690.18,529.98 699.27,528.14 708.36,526.33 717.45,524.57 726.55,522.86 735.64,521.23 744.73,519.68 753.82,518.24 762.91,516.91 772.00,515.70 781.09,514.61 790.18,513.64 799.27,512.79 808.36,512.06 817.45,511.43 826.55,510.89 835.64,510.43 844.73,510.03 853.82,509.69 862.91,509.38 872.00,509.11 881.09,508.84 890.18,508.58 899.27,508.31 908.36,508.03 917.45,507.73 926.55,507.40 935.64,507.04 944.73,506.65 953.82,506.23 962.91,505.78 972.00,505.29 981.09,504.78 990.18,504.23 999.27,503.67 1008.36,503.08 1017.45,502.48 1026.55,501.87 1035.64,501.24 1044.73,500.62 1053.82,499.99 1062.91,499.37"/>
<polyline fill="none" stroke="#34d399" stroke-width="2" stroke-dasharray="2 5" points="72.00,555.66 81.09,555.66 90.18,555.66 99.27,555.66 108.36,555.66 117.45,555.66 126.55,555.66 135.64,555.66 144.73,555.66 153.82,555.66 162.91,555.66 172.00,555.66 181.09,555.66 190.18,555.66 199.27,555.66 208.36,555.66 217.45,555.66 226.55,555.66 235.64,555.66 244.73,555.66 253.82,555.66 262.91,555.66 272.00,555.66 281.09,555.66 290.18,555.66 299.27,439.28 308.36,426.34 317.45,426.34 326.55,426.34 335.64,426.34 344.73,426.34 353.82,426.34 362.91,426.34 372.00,426.34 381.09,426.34 390.18,426.34 399.27,496.53 408.36,555.66 417.45,555.66 426.55,555.66 435.64,555.66 444.73,555.66 453.82,555.66 462.91,555.66 472.00,555.66 481.09,555.66 490.18,555.66 499.27,555.66 508.36,555.66 517.45,555.66 526.55,555.66 535.64,444.94 544.73,426.34 553.82,426.34 562.91,426.34 572.00,426.34 581.09,426.34 590.18,426.34 599.27,426.34 608.36,426.34 617.45,426.34 626.55,426.34 635.64,426.34 644.73,426.34 653.82,426.34 662.91,426.34 672.00,426.34 681.09,426.34 690.18,426.34 699.27,426.34 708.36,426.34 717.45,426.34 726.55,426.34 735.64,426.34 744.73,426.34 753.82,426.34 762.91,426.34 772.00,426.34 781.09,426.34 790.18,426.34 799.27,555.66 808.36,555.66 817.45,555.66 826.55,555.66 835.64,555.66 844.73,555.66 853.82,555.66 862.91,555.66 872.00,555.66 881.09,555.66 890.18,555.66 899.27,555.66 908.36,555.66 917.45,555.66 926.55,555.66 935.64,518.33 944.73,426.34 953.82,426.34 962.91,426.34 972.00,426.34 981.09,426.34 990.18,426.34 999.27,426.34 1008.36,426.34 1017.45,426.34 1026.55,426.34 1035.64,426.34 1044.73,426.34 1053.82,426.34 1062.91,426.34"/>
<text x="18" y="671" font-size="13" fill="#374151" transform="rotate(-90 18 671)">Input Qm</text>
<rect x="72" y="596" width="1000" height="150" fill="#f9fafb" stroke="#d1d5db"/>
<line x1="72" x2="1072" y1="746.00" y2="746.00" stroke="#e5e7eb"/>
<text x="64" y="750.00" font-size="10" text-anchor="end" fill="#6b7280">30.64</text>
<line x1="72" x2="1072" y1="671.00" y2="671.00" stroke="#e5e7eb"/>
<text x="64" y="675.00" font-size="10" text-anchor="end" fill="#6b7280">374.00</text>
<line x1="72" x2="1072" y1="596.00" y2="596.00" stroke="#e5e7eb"/>
<text x="64" y="600.00" font-size="10" text-anchor="end" fill="#6b7280">717.36</text>
<polyline fill="none" stroke="#7c3aed" stroke-width="2" points="72.00,688.56 81.09,688.35 90.18,688.24 99.27,688.20 108.36,688.25 117.45,688.36 126.55,688.53 135.64,688.77 144.73,689.04 153.82,689.36 162.91,689.72 172.00,690.09 181.09,690.49 190.18,690.90 199.27,691.31 208.36,691.72 217.45,692.13 226.55,692.53 235.64,692.91 244.73,693.28 253.82,693.62 262.91,693.94 272.00,687.09 281.09,673.69 290.18,674.03 299.27,674.59 308.36,675.32 317.45,676.18 326.55,677.15 335.64,678.20 344.73,679.34 353.82,680.55 362.91,681.81 372.00,683.13 381.09,684.47 390.18,685.83 399.27,687.18 408.36,684.72 417.45,733.20 426.55,734.24 435.64,734.87 444.73,735.23 453.82,735.43 462.91,735.52 472.00,735.45 481.09,735.23 490.18,734.86 499.27,734.35 508.36,733.69 517.45,732.90 526.55,688.68 535.64,643.55 544.73,643.00 553.82,643.31 562.91,644.34 572.00,645.90 581.09,647.94 590.18,650.46 599.27,653.47 608.36,656.98 617.45,660.97 626.55,665.40 635.64,670.19 644.73,675.26 653.82,680.53 662.91,685.90 672.00,691.29 681.09,696.63 690.18,701.84 699.27,706.85 708.36,711.60 717.45,716.04 726.55,720.11 735.64,723.76 744.73,726.96 753.82,729.68 762.91,731.90 772.00,733.49 781.09,734.46 790.18,735.03 799.27,735.22 808.36,734.96 817.45,734.26 826.55,733.18 835.64,731.76 844.73,730.02 853.82,728.02 862.91,725.80 872.00,723.39 881.09,720.84 890.18,718.17 899.27,715.41 908.36,712.61 917.45,709.78 926.55,706.96 935.64,704.17 944.73,701.45 953.82,698.81 962.91,696.29 972.00,693.91 981.09,691.70 990.18,689.70 999.27,687.91 1008.36,686.35 1017.45,685.05 1026.55,683.99 1035.64,683.20 1044.73,682.66 1053.82,682.36 1062.91,682.29"/>
<polyline fill="none" stroke="#c084fc" stroke-width="2" stroke-dasharray="2 5" points="72.00,670.89 81.09,695.69 90.18,713.37 99.27,724.28 108.36,728.84 117.45,727.51 126.55,720.82 135.64,709.31 144.73,693.58 153.82,674.20 162.91,651.78 172.00,626.88 181.09,606.34 190.18,606.34 199.27,606.34 208.36,606.34 217.45,606.34 226.55,606.34 235.64,606.34 244.73,606.34 253.82,606.34 262.91,606.34 272.00,606.34 281.09,606.34 290.18,606.34 299.27,735.66 308.36,735.66 317.45,735.66 326.55,735.66 335.64,735.66 344.73,735.66 353.82,735.66 362.91,735.66 372.00,735.66 381.09,735.66 390.18,735.66 399.27,735.66 408.36,735.66 417.45,735.66 426.55,735.66 435.64,606.34 444.73,606.34 453.82,606.34 462.91,606.34 472.00,606.34 481.09,606.34 490.18,606.34 499.27,606.34 508.36,606.34 517.45,606.34 526.55,606.34 535.64,606.34 544.73,735.66 553.82,735.66 562.91,735.66 572.00,735.66 581.09,735.66 590.18,735.66 599.27,735.66 608.36,735.66 617.45,735.66 626.55,735.66 635.64,735.66 644.73,735.66 653.82,735.66 662.91,735.66 672.00,735.66 681.09,735.66 690.18,735.66 699.27,735.66 708.36,735.66 717.45,735.66 726.55,735.66 735.64,735.66 744.73,735.66 753.82,735.66 762.91,735.66 772.00,735.66 781.09,735.66 790.18,606.34 799.27,606.34 808.36,606.34 817.45,606.34 826.55,606.34 835.64,606.34 844.73,606.34 853.82,606.34 862.91,606.34 872.00,606.34 881.09,606.34 890.18,606.34 899.27,606.34 908.36,606.34 917.45,606.34 926.55,606.34 935.64,606.34 944.73,606.34 953.82,606.34 962.91,734.55 972.00,735.66 981.09,735.66 990.18,735.66 999.27,735.66 1008.36,735.66 1017.45,735.66 1026.55,735.66 1035.64,735.66 1044.73,735.66 1053.82,735.66 1062.91,735.66"/>
<text x="72.00" y="764" font-size="11" text-anchor="middle" fill="#374151">450</text>
<text x="572.00" y="764" font-size="11" text-anchor="middle" fill="#374151">505</text>
<text x="1072.00" y="764" font-size="11" text-anchor="middle" fill="#374151">560</text>
<line x1="682" x2="706" y1="18" y2="18" stroke="#2563eb" stroke-width="2"/><text x="711" y="22" font-size="11" fill="#374151">y eta</text>
<line x1="774" x2="798" y1="18" y2="18" stroke="#93c5fd" stroke-width="2" stroke-dasharray="7 5"/><text x="803" y="22" font-size="11" fill="#374151">sp eta</text>
<line x1="866" x2="890" y1="18" y2="18" stroke="#1d4ed8" stroke-width="2" stroke-dasharray="2 5"/><text x="895" y="22" font-size="11" fill="#374151">ys eta</text>
<line x1="958" x2="982" y1="18" y2="18" stroke="#dc2626" stroke-width="2"/><text x="987" y="22" font-size="11" fill="#374151">y T</text>
<line x1="682" x2="706" y1="36" y2="36" stroke="#fca5a5" stroke-width="2" stroke-dasharray="7 5"/><text x="711" y="40" font-size="11" fill="#374151">sp T</text>
<line x1="774" x2="798" y1="36" y2="36" stroke="#991b1b" stroke-width="2" stroke-dasharray="2 5"/><text x="803" y="40" font-size="11" fill="#374151">ys T</text>
<line x1="866" x2="890" y1="36" y2="36" stroke="#047857" stroke-width="2"/><text x="895" y="40" font-size="11" fill="#374151">u</text>
<line x1="958" x2="982" y1="36" y2="36" stroke="#34d399" stroke-width="2" stroke-dasharray="2 5"/><text x="987" y="40" font-size="11" fill="#374151">u_s</text>
</svg>