<svg xmlns="http://www.w3.org/2000/svg" width="1100" height="780" viewBox="0 0 1100 780">
<rect width="100%" height="100%" fill="white"/>
<text x="72" y="28" font-size="20" font-weight="700" fill="#111827">bounded_soft: window 580-700</text>
<text x="72" y="48" font-size="12" fill="#4b5563">solid = measured/applied, dashed = scheduled setpoint, dotted = selected steady target</text>
<text x="18" y="131" font-size="13" fill="#374151" transform="rotate(-90 18 131)">Output eta</text>
<rect x="72" y="56" width="1000" height="150" fill="#f9fafb" stroke="#d1d5db"/>
<line x1="72" x2="1072" y1="206.00" y2="206.00" stroke="#e5e7eb"/>
<text x="64" y="210.00" font-size="10" text-anchor="end" fill="#6b7280">2.13</text>
<line x1="72" x2="1072" y1="131.00" y2="131.00" stroke="#e5e7eb"/>
<text x="64" y="135.00" font-size="10" text-anchor="end" fill="#6b7280">2.82</text>
<line x1="72" x2="1072" y1="56.00" y2="56.00" stroke="#e5e7eb"/>
<text x="64" y="60.00" font-size="10" text-anchor="end" fill="#6b7280">3.51</text>
<polyline fill="none" stroke="#2563eb" stroke-width="2" points="72.00,146.19 80.33,152.09 88.67,157.82 97.00,163.32 105.33,168.55 113.67,173.46 122.00,178.00 130.33,182.10 138.67,185.73 147.00,188.82 155.33,191.36 163.67,193.31 172.00,194.68 180.33,195.45 188.67,195.66 197.00,195.33 205.33,194.52 213.67,193.29 222.00,191.68 230.33,189.78 238.67,187.63 247.00,185.31 255.33,182.87 263.67,180.37 272.00,177.85 280.33,175.34 288.67,172.88 297.00,170.50 305.33,168.21 313.67,166.03 322.00,163.95 330.33,161.98 338.67,160.13 347.00,158.37 355.33,156.71 363.67,155.14 372.00,153.63 380.33,152.19 388.67,150.78 397.00,149.41 405.33,148.06 413.67,146.71 422.00,145.35 430.33,143.97 438.67,142.55 447.00,141.09 455.33,139.57 463.67,138.00 472.00,136.35 480.33,134.64 488.67,132.84 497.00,130.98 505.33,129.03 513.67,127.02 522.00,124.93 530.33,122.78 538.67,120.57 547.00,118.31 555.33,116.01 563.67,113.68 572.00,111.33 580.33,108.97 588.67,106.62 597.00,104.28 605.33,101.97 613.67,99.70 622.00,97.48 630.33,95.31 638.67,93.21 647.00,91.19 655.33,89.24 663.67,87.39 672.00,85.63 680.33,83.96 688.67,82.39 697.00,80.92 705.33,79.55 713.67,78.28 722.00,77.11 730.33,76.03 738.67,75.05 747.00,74.15 755.33,73.35 763.67,72.62 772.00,71.97 780.33,71.40 788.67,70.89 797.00,70.45 805.33,70.06 813.67,69.73 822.00,69.44 830.33,69.19 838.67,68.99 847.00,68.81 855.33,68.67 863.67,68.54 872.00,68.44 880.33,68.35 888.67,68.28 897.00,68.21 905.33,68.15 913.67,68.09 922.00,68.04 930.33,67.99 938.67,67.93 947.00,67.87 955.33,67.80 963.67,67.73 972.00,67.66 980.33,67.57 988.67,67.48 997.00,67.39 1005.33,67.29 1013.67,67.18 1022.00,67.07 1030.33,66.95 1038.67,66.84 1047.00,66.71 1055.33,66.59 1063.67,66.47 1072.00,66.34"/>
<polyline fill="none" stroke="#93c5fd" stroke-width="2" stroke-dasharray="7 5" points="72.00,67.87 80.33,67.87 88.67,67.87 97.00,67.87 105.33,67.87 113.67,67.87 122.00,67.87 130.33,67.87 138.67,67.87 147.00,67.87 155.33,67.87 163.67,67.87 172.00,67.87 180.33,67.87 188.67,67.87 197.00,67.87 205.33,67.87 213.67,67.87 222.00,67.87 230.33,67.87 238.67,67.87 247.00,67.87 255.33,67.87 263.67,67.87 272.00,67.87 280.33,67.87 288.67,67.87 297.00,67.87 305.33,67.87 313.67,67.87 322.00,67.87 330.33,67.87 338.67,67.87 347.00,67.87 355.33,67.87 363.67,67.87 372.00,67.87 380.33,67.87 388.67,67.87 397.00,67.87 405.33,67.87 413.67,67.87 422.00,67.87 430.33,67.87 438.67,67.87 447.00,67.87 455.33,67.87 463.67,67.87 472.00,67.87 480.33,67.87 488.67,67.87 497.00,67.87 505.33,67.87 513.67,67.87 522.00,67.87 530.33,67.87 538.67,67.87 547.00,67.87 555.33,67.87 563.67,67.87 572.00,67.87 580.33,67.87 588.67,67.87 597.00,67.87 605.33,67.87 613.67,67.87 622.00,67.87 630.33,67.87 638.67,67.87 647.00,67.87 655.33,67.87 663.67,67.87 672.00,67.87 680.33,67.87 688.67,67.87 697.00,67.87 705.33,67.87 713.67,67.87 722.00,67.87 730.33,67.87 738.67,67.87 747.00,67.87 755.33,67.87 763.67,67.87 772.00,67.87 780.33,67.87 788.67,67.87 797.00,67.87 805.33,67.87 813.67,67.87 822.00,67.87 830.33,67.87 838.67,67.87 847.00,67.87 855.33,67.87 863.67,67.87 872.00,67.87 880.33,67.87 888.67,67.87 897.00,67.87 905.33,67.87 913.67,67.87 922.00,67.87 930.33,67.87 938.67,67.87 947.00,67.87 955.33,67.87 963.67,67.87 972.00,67.87 980.33,67.87 988.67,67.87 997.00,67.87 1005.33,67.87 1013.67,67.87 1022.00,67.87 1030.33,67.87 1038.67,67.87 1047.00,67.87 1055.33,67.87 1063.67,67.87"/>
<polyline fill="none" stroke="#1d4ed8" stroke-width="2" stroke-dasharray="2 5" points="72.00,133.98 80.33,138.82 88.67,143.48 97.00,147.94 105.33,152.22 113.67,156.28 122.00,160.12 130.33,163.70 138.67,166.98 147.00,169.94 155.33,172.53 163.67,174.71 172.00,176.47 180.33,177.77 188.67,178.62 197.00,179.02 205.33,178.99 213.67,178.55 222.00,177.76 230.33,176.65 238.67,175.29 247.00,173.73 255.33,172.03 263.67,170.25 272.00,168.42 280.33,166.59 288.67,164.80 297.00,163.08 305.33,161.44 313.67,159.90 322.00,158.47 330.33,157.14 338.67,155.92 347.00,154.79 355.33,153.76 363.67,152.80 372.00,151.91 380.33,151.08 388.67,150.27 397.00,149.50 405.33,148.73 413.67,147.96 422.00,147.18 430.33,146.36 438.67,145.52 447.00,144.62 455.33,143.67 463.67,142.66 472.00,141.58 480.33,140.43 488.67,139.20 497.00,137.89 505.33,136.51 513.67,135.05 522.00,133.51 530.33,131.90 538.67,130.22 547.00,128.48 555.33,126.69 563.67,124.84 572.00,122.96 580.33,121.05 588.67,119.11 597.00,117.17 605.33,115.23 613.67,113.29 622.00,111.38 630.33,109.49 638.67,107.64 647.00,105.83 655.33,104.07 663.67,102.37 672.00,100.73 680.33,99.16 688.67,97.65 697.00,96.22 705.33,94.85 713.67,93.56 722.00,92.34 730.33,91.19 738.67,90.12 747.00,89.11 755.33,88.00 763.67,86.93 772.00,85.93 780.33,84.98 788.67,84.10 797.00,83.28 805.33,82.51 813.67,81.80 822.00,81.23 830.33,80.73 838.67,80.26 847.00,79.82 855.33,79.41 863.67,79.01 872.00,78.64 880.33,78.30 888.67,77.99 897.00,77.68 905.33,77.38 913.67,77.08 922.00,76.78 930.33,76.47 938.67,76.17 947.00,75.87 955.33,75.56 963.67,75.25 972.00,74.94 980.33,74.63 988.67,74.31 997.00,74.00 1005.33,73.68 1013.67,73.37 1022.00,73.07 1030.33,72.77 1038.67,72.48 1047.00,72.18 1055.33,71.89 1063.67,71.61"/>
<text x="18" y="311" font-size="13" fill="#374151" transform="rotate(-90 18 311)">Output T</text>
<rect x="72" y="236" width="1000" height="150" fill="#f9fafb" stroke="#d1d5db"/>
<line x1="72" x2="1072" y1="386.00" y2="386.00" stroke="#e5e7eb"/>
<text x="64" y="390.00" font-size="10" text-anchor="end" fill="#6b7280">320.50</text>
<line x1="72" x2="1072" y1="311.00" y2="311.00" stroke="#e5e7eb"/>
<text x="64" y="315.00" font-size="10" text-anchor="end" fill="#6b7280">323.80</text>
<line x1="72" x2="1072" y1="236.00" y2="236.00" stroke="#e5e7eb"/>
<text x="64" y="240.00" font-size="10" text-anchor="end" fill="#6b7280">327.09</text>
<polyline fill="none" stroke="#dc2626" stroke-width="2" points="72.00,349.02 80.33,347.13 88.67,344.98 97.00,342.59 105.33,339.98 113.67,337.17 122.00,334.19 130.33,331.06 138.67,327.81 147.00,324.46 155.33,321.04 163.67,317.56 172.00,314.07 180.33,310.58 188.67,307.12 197.00,303.71 205.33,300.40 213.67,297.19 222.00,294.13 230.33,291.24 238.67,288.54 247.00,286.05 255.33,283.80 263.67,281.81 272.00,280.10 280.33,278.67 288.67,277.54 297.00,276.72 305.33,276.22 313.67,276.02 322.00,276.13 330.33,276.55 338.67,277.25 347.00,278.23 355.33,279.47 363.67,280.95 372.00,282.65 380.33,284.54 388.67,286.59 397.00,288.79 405.33,291.10 413.67,293.51 422.00,295.97 430.33,298.47 438.67,300.99 447.00,303.50 455.33,305.98 463.67,308.42 472.00,310.80 480.33,313.12 488.67,315.35 497.00,317.50 505.33,319.56 513.67,321.52 522.00,323.39 530.33,325.16 538.67,326.85 547.00,328.44 555.33,329.94 563.67,331.37 572.00,332.73 580.33,334.01 588.67,335.24 597.00,336.41 605.33,337.54 613.67,338.62 622.00,339.68 630.33,340.70 638.67,341.70 647.00,342.68 655.33,343.64 663.67,344.60 672.00,345.54 680.33,346.49 688.67,347.43 697.00,348.36 705.33,349.30 713.67,350.24 722.00,351.17 730.33,352.10 738.67,353.04 747.00,353.97 755.33,354.89 763.67,355.81 772.00,356.72 780.33,357.62 788.67,358.50 797.00,359.38 805.33,360.23 813.67,361.07 822.00,361.89 830.33,362.69 838.67,363.46 847.00,364.21 855.33,364.93 863.67,365.63 872.00,366.29 880.33,366.93 888.67,367.54 897.00,368.11 905.33,368.66 913.67,369.17 922.00,369.66 930.33,370.12 938.67,370.54 947.00,370.94 955.33,371.31 963.67,371.65 972.00,371.97 980.33,372.26 988.67,372.53 997.00,372.78 1005.33,373.00 1013.67,373.21 1022.00,373.40 1030.33,373.57 1038.67,373.73 1047.00,373.87 1055.33,374.00 1063.67,374.12 1072.00,374.23"/>
<polyline fill="none" stroke="#fca5a5" stroke-width="2" stroke-dasharray="7 5" points="72.00,374.69 80.33,374.69 88.67,374.69 97.00,374.69 105.33,374.69 113.67,374.69 122.00,374.69 130.33,374.69 138.67,374.69 147.00,374.69 155.33,374.69 163.67,374.69 172.00,374.69 180.33,374.69 188.67,374.69 197.00,374.69 205.33,374.69 213.67,374.69 222.00,374.69 230.33,374.69 238.67,374.69 247.00,374.69 255.33,374.69 263.67,374.69 272.00,374.69 280.33,374.69 288.67,374.69 297.00,374.69 305.33,374.69 313.67,374.69 322.00,374.69 330.33,374.69 338.67,374.69 347.00,374.69 355.33,374.69 363.67,374.69 372.00,374.69 380.33,374.69 388.67,374.69 397.00,374.69 405.33,374.69 413.67,374.69 422.00,374.69 430.33,374.69 438.67,374.69 447.00,374.69 455.33,374.69 463.67,374.69 472.00,374.69 480.33,374.69 488.67,374.69 497.00,374.69 505.33,374.69 513.67,374.69 522.00,374.69 530.33,374.69 538.67,374.69 547.00,374.69 555.33,374.69 563.67,374.69 572.00,374.69 580.33,374.69 588.67,374.69 597.00,374.69 605.33,374.69 613.67,374.69 622.00,374.69 630.33,374.69 638.67,374.69 647.00,374.69 655.33,374.69 663.67,374.69 672.00,374.69 680.33,374.69 688.67,374.69 697.00,374.69 705.33,374.69 713.67,374.69 722.00,374.69 730.33,374.69 738.67,374.69 747.00,374.69 755.33,374.69 763.67,374.69 772.00,374.69 780.33,374.69 788.67,374.69 797.00,374.69 805.33,374.69 813.67,374.69 822.00,374.69 830.33,374.69 838.67,374.69 847.00,374.69 855.33,374.69 863.67,374.69 872.00,374.69 880.33,374.69 888.67,374.69 897.00,374.69 905.33,374.69 913.67,374.69 922.00,374.69 930.33,374.69 938.67,374.69 947.00,374.69 955.33,374.69 963.67,374.69 972.00,374.69 980.33,374.69 988.67,374.69 997.00,374.69 1005.33,374.69 1013.67,374.69 1022.00,374.69 1030.33,374.69 1038.67,374.69 1047.00,374.69 1055.33,374.69 1063.67,374.69"/>
<polyline fill="none" stroke="#991b1b" stroke-width="2" stroke-dasharray="2 5" points="72.00,340.98 80.33,333.54 88.67,326.30 97.00,319.25 105.33,312.40 113.67,305.77 122.00,299.35 130.33,293.17 138.67,287.25 147.00,281.60 155.33,276.26 163.67,271.25 172.00,266.60 180.33,262.35 188.67,258.52 197.00,255.15 205.33,252.28 213.67,249.94 222.00,248.16 230.33,246.95 238.67,246.34 247.00,246.35 255.33,246.98 263.67,248.23 272.00,250.08 280.33,252.52 288.67,255.52 297.00,259.05 305.33,263.06 313.67,267.51 322.00,272.33 330.33,277.47 338.67,282.85 347.00,288.42 355.33,294.09 363.67,299.80 372.00,305.47 380.33,311.04 388.67,316.45 397.00,321.64 405.33,326.56 413.67,331.16 422.00,335.43 430.33,339.33 438.67,342.85 447.00,345.97 455.33,348.72 463.67,351.09 472.00,353.10 480.33,354.77 488.67,356.13 497.00,357.21 505.33,358.04 513.67,358.66 522.00,359.10 530.33,359.39 538.67,359.57 547.00,359.66 555.33,359.69 563.67,359.70 572.00,359.70 580.33,359.72 588.67,359.76 597.00,359.85 605.33,359.99 613.67,360.20 622.00,360.48 630.33,360.84 638.67,361.26 647.00,361.76 655.33,362.33 663.67,362.97 672.00,363.67 680.33,364.42 688.67,365.22 697.00,366.06 705.33,366.93 713.67,367.83 722.00,368.74 730.33,369.66 738.67,370.58 747.00,371.48 755.33,371.78 763.67,371.94 772.00,372.08 780.33,372.22 788.67,372.35 797.00,372.47 805.33,372.58 813.67,372.68 822.00,373.15 830.33,373.67 838.67,374.15 847.00,374.57 855.33,374.94 863.67,375.25 872.00,375.52 880.33,375.66 888.67,375.63 897.00,375.60 905.33,375.57 913.67,375.54 922.00,375.52 930.33,375.49 938.67,375.46 947.00,375.43 955.33,375.40 963.67,375.37 972.00,375.35 980.33,375.32 988.67,375.29 997.00,375.26 1005.33,375.23 1013.67,375.20 1022.00,375.11 1030.33,374.99 1038.67,374.88 1047.00,374.77 1055.33,374.68 1063.67,374.59"/>
<text x="18" y="491" font-size="13" fill="#374151" transform="rotate(-90 18 491)">Input Qc</text>
<rect x="72" y="416" width="1000" height="150" fill="#f9fafb" stroke="#d1d5db"/>
<line x1="72" x2="1072" y1="566.00" y2="566.00" stroke="#e5e7eb"/>
<text x="64" y="570.00" font-size="10" text-anchor="end" fill="#6b7280">29.77</text>
<line x1="72" x2="1072" y1="491.00" y2="491.00" stroke="#e5e7eb"/>
<text x="64" y="495.00" font-size="10" text-anchor="end" fill="#6b7280">481.00</text>
<line x1="72" x2="1072" y1="416.00" y2="416.00" stroke="#e5e7eb"/>
<text x="64" y="420.00" font-size="10" text-anchor="end" fill="#6b7280">932.24</text>
<polyline fill="none" stroke="#047857" stroke-width="2" points="72.00,555.66 80.33,555.12 88.67,554.54 97.00,553.90 105.33,553.20 113.67,552.45 122.00,551.65 130.33,550.79 138.67,549.87 147.00,548.91 155.33,547.89 163.67,546.82 172.00,545.71 180.33,544.55 188.67,543.35 197.00,542.11 205.33,540.84 213.67,539.54 222.00,538.21 230.33,536.86 238.67,535.49 247.00,534.10 255.33,532.71 263.67,531.31 272.00,529.91 280.33,528.51 288.67,527.12 297.00,525.74 305.33,524.37 313.67,523.02 322.00,521.70 330.33,520.39 338.67,519.11 347.00,517.87 355.33,516.65 363.67,515.46 372.00,514.31 380.33,513.20 388.67,512.12 397.00,511.08 405.33,510.07 413.67,509.10 422.00,508.17 430.33,507.27 438.67,506.40 447.00,505.57 455.33,504.77 463.67,503.99 472.00,503.25 480.33,502.53 488.67,501.84 497.00,501.18 505.33,500.53 513.67,499.91 522.00,499.31 530.33,498.73 538.67,498.17 547.00,497.62 555.33,497.09 563.67,496.58 572.00,496.09 580.33,495.60 588.67,495.14 597.00,494.69 605.33,494.25 613.67,493.83 622.00,493.43 630.33,493.03 638.67,492.65 647.00,492.29 655.33,491.94 663.67,491.60 672.00,491.28 680.33,490.97 688.67,490.67 697.00,490.39 705.33,490.12 713.67,489.87 722.00,489.62 730.33,489.39 738.67,489.18 747.00,488.97 755.33,488.78 763.67,488.60 772.00,488.43 780.33,488.27 788.67,488.12 797.00,487.98 805.33,487.85 813.67,487.73 822.00,487.62 830.33,487.52 838.67,487.43 847.00,487.34 855.33,487.27 863.67,487.19 872.00,487.13 880.33,487.07 888.67,487.02 897.00,486.97 905.33,486.92 913.67,486.88 922.00,486.85 930.33,486.82 938.67,486.79 947.00,486.76 955.33,486.74 963.67,486.72 972.00,486.71 980.33,486.69 988.67,486.68 997.00,486.67 1005.33,486.66 1013.67,486.65 1022.00,486.64 1030.33,486.64 1038.67,486.63 1047.00,486.63 1055.33,486.63 1063.67,486.63"/>
<polyline fill="none" stroke="#34d399" stroke-width="2" stroke-dasharray="2 5" points="72.00,426.34 80.33,426.34 88.67,426.34 97.00,426.34 105.33,426.34 113.67,426.34 122.00,426.34 130.33,426.34 138.67,426.34 147.00,426.34 155.33,426.34 163.67,426.34 172.00,426.34 180.33,426.34 188.67,426.34 197.00,426.34 205.33,426.34 213.67,426.34 222.00,426.34 230.33,426.34 238.67,426.34 247.00,426.34 255.33,426.34 263.67,426.34 272.00,426.34 280.33,426.34 288.67,426.34 297.00,426.34 305.33,426.34 313.67,426.34 322.00,426.34 330.33,426.34 338.67,426.34 347.00,426.34 355.33,426.34 363.67,426.34 372.00,426.34 380.33,426.34 388.67,426.34 397.00,426.34 405.33,426.34 413.67,426.34 422.00,426.34 430.33,426.34 438.67,426.34 447.00,426.34 455.33,426.34 463.67,426.34 472.00,426.34 480.33,426.34 488.67,426.34 497.00,426.34 505.33,426.34 513.67,426.34 522.00,426.34 530.33,426.34 538.67,426.34 547.00,426.34 555.33,426.34 563.67,426.34 572.00,426.34 580.33,426.34 588.67,426.34 597.00,426.34 605.33,426.34 613.67,426.34 622.00,426.34 630.33,426.34 638.67,426.34 647.00,426.34 655.33,426.34 663.67,426.34 672.00,426.34 680.33,426.34 688.67,426.34 697.00,426.34 705.33,426.34 713.67,426.34 722.00,426.34 730.33,426.34 738.67,426.34 747.00,426.34 755.33,426.34 763.67,426.34 772.00,426.34 780.33,426.34 788.67,426.34 797.00,426.34 805.33,426.34 813.67,426.34 822.00,426.34 830.33,426.34 838.67,426.34 847.00,426.34 855.33,426.34 863.67,426.34 872.00,426.34 880.33,428.98 888.67,435.32 897.00,440.32 905.33,444.08 913.67,446.70 922.00,448.28 930.33,448.95 938.67,448.79 947.00,447.93 955.33,446.46 963.67,444.50 972.00,442.14 980.33,439.47 988.67,436.60 997.00,433.59 1005.33,430.53 1013.67,427.48 1022.00,426.34 1030.33,426.34 1038.67,426.34 1047.00,426.34 1055.33,426.34 1063.67,426.34"/>
<text x="18" y="671" font-size="13" fill="#374151" transform="rotate(-90 18 671)">Input Qm</text>
<rect x="72" y="596" width="1000" height="150" fill="#f9fafb" stroke="#d1d5db"/>
<line x1="72" x2="1072" y1="746.00" y2="746.00" stroke="#e5e7eb"/>
<text x="64" y="750.00" font-size="10" text-anchor="end" fill="#6b7280">30.64</text>
<line x1="72" x2="1072" y1="671.00" y2="671.00" stroke="#e5e7eb"/>
<text x="64" y="675.00" font-size="10" text-anchor="end" fill="#6b7280">374.00</text>
<line x1="72" x2="1072" y1="596.00" y2="596.00" stroke="#e5e7eb"/>
<text x="64" y="600.00" font-size="10" text-anchor="end" fill="#6b7280">717.36</text>
<polyline fill="none" stroke="#7c3aed" stroke-width="2" points="72.00,729.21 80.33,727.97 88.67,726.66 97.00,725.30 105.33,723.89 113.67,722.44 122.00,720.97 130.33,719.47 138.67,717.98 147.00,716.49 155.33,715.02 163.67,713.58 172.00,712.19 180.33,710.85 188.67,709.59 197.00,708.41 205.33,707.33 213.67,706.34 222.00,705.47 230.33,704.70 238.67,704.05 247.00,703.51 255.33,703.07 263.67,702.74 272.00,702.50 280.33,702.35 288.67,702.26 297.00,702.24 305.33,702.26 313.67,702.32 322.00,702.40 330.33,702.50 338.67,702.59 347.00,702.66 355.33,702.72 363.67,702.75 372.00,702.74 380.33,702.69 388.67,702.59 397.00,702.44 405.33,702.25 413.67,702.00 422.00,701.71 430.33,701.37 438.67,700.99 447.00,700.57 455.33,700.11 463.67,699.62 472.00,699.12 480.33,698.59 488.67,698.05 497.00,697.51 505.33,696.97 513.67,696.43 522.00,695.91 530.33,695.40 538.67,694.92 547.00,694.46 555.33,694.03 563.67,693.63 572.00,693.27 580.33,692.95 588.67,692.66 597.00,692.41 605.33,692.21 613.67,692.04 622.00,691.91 630.33,691.82 638.67,691.76 647.00,691.74 655.33,691.75 663.67,691.78 672.00,691.85 680.33,691.93 688.67,692.04 697.00,692.17 705.33,692.31 713.67,692.46 722.00,692.62 730.33,692.79 738.67,692.96 747.00,693.14 755.33,693.31 763.67,693.48 772.00,693.65 780.33,693.81 788.67,693.96 797.00,694.11 805.33,694.24 813.67,694.37 822.00,694.48 830.33,694.59 838.67,694.68 847.00,694.76 855.33,694.83 863.67,694.89 872.00,694.94 880.33,694.98 888.67,695.01 897.00,695.03 905.33,695.04 913.67,695.04 922.00,695.04 930.33,695.03 938.67,695.02 947.00,695.00 955.33,694.98 963.67,694.96 972.00,694.93 980.33,694.90 988.67,694.88 997.00,694.85 1005.33,694.82 1013.67,694.80 1022.00,694.77 1030.33,694.75 1038.67,694.73 1047.00,694.71 1055.33,694.70 1063.67,694.69"/>
<polyline fill="none" stroke="#c084fc" stroke-width="2" stroke-dasharray="2 5" points="72.00,735.66 80.33,735.66 88.67,735.66 97.00,735.66 105.33,735.66 113.67,735.66 122.00,735.66 130.33,735.66 138.67,735.66 147.00,735.66 155.33,735.66 163.67,735.66 172.00,735.66 180.33,735.66 188.67,735.66 197.00,735.66 205.33,735.66 213.67,735.66 222.00,735.66 230.33,735.66 238.67,735.66 247.00,735.66 255.33,735.66 263.67,735.66 272.00,735.66 280.33,735.66 288.67,735.66 297.00,735.66 305.33,735.66 313.67,735.66 322.00,735.66 330.33,735.66 338.67,735.66 347.00,735.66 355.33,735.66 363.67,735.66 372.00,735.66 380.33,735.66 388.67,735.66 397.00,735.66 405.33,735.66 413.67,735.66 422.00,735.66 430.33,735.66 438.67,735.66 447.00,735.66 455.33,735.66 463.67,735.66 472.00,735.66 480.33,735.66 488.67,735.66 497.00,735.66 505.33,735.66 513.67,735.66 522.00,735.66 530.33,735.66 538.67,735.66 547.00,735.66 555.33,735.66 563.67,735.66 572.00,735.66 580.33,735.66 588.67,735.66 597.00,735.66 605.33,735.66 613.67,735.66 622.00,735.66 630.33,735.66 638.67,735.66 647.00,735.66 655.33,735.66 663.67,735.66 672.00,735.66 680.33,735.66 688.67,735.66 697.00,735.66 705.33,735.66 713.67,735.66 722.00,735.66 730.33,735.66 738.67,735.66 747.00,735.66 755.33,720.71 763.67,702.67 772.00,685.11 780.33,668.19 788.67,652.03 797.00,636.74 805.33,622.42 813.67,609.13 822.00,606.34 830.33,606.34 838.67,606.34 847.00,606.34 855.33,606.34 863.67,606.34 872.00,606.34 880.33,606.34 888.67,606.34 897.00,606.34 905.33,606.34 913.67,606.34 922.00,606.34 930.33,606.34 938.67,606.34 947.00,606.34 955.33,606.34 963.67,606.34 972.00,606.34 980.33,606.34 988.67,606.34 997.00,606.34 1005.33,606.34 1013.67,606.34 1022.00,606.34 1030.33,606.34 1038.67,606.34 1047.00,606.34 1055.33,606.34 1063.67,606.34"/>
<text x="72.00" y="764" font-size="11" text-anchor="middle" fill="#374151">580</text>
<text x="572.00" y="764" font-size="11" text-anchor="middle" fill="#374151">640</text>
<text x="1072.00" y="764" font-size="11" text-anchor="middle" fill="#374151">700</text>
<line x1="682" x2="706" y1="18" y2="18" stroke="#2563eb" stroke-width="2"/><text x="711" y="22" font-size="11" fill="#374151">y eta</text>
<line x1="774" x2="798" y1="18" y2="18" stroke="#93c5fd" stroke-width="2" stroke-dasharray="7 5"/><text x="803" y="22" font-size="11" fill="#374151">sp eta</text>
<line x1="866" x2="890" y1="18" y2="18" stroke="#1d4ed8" stroke-width="2" stroke-dasharray="2 5"/><text x="895" y="22" font-size="11" fill="#374151">ys eta</text>
<line x1="958" x2="982" y1="18" y2="18" stroke="#dc2626" stroke-width="2"/><text x="987" y="22" font-size="11" fill="#374151">y T</text>
<line x1="682" x2="706" y1="36" y2="36" stroke="#fca5a5" stroke-width="2" stroke-dasharray="7 5"/><text x="711" y="40" font-size="11" fill="#374151">sp T</text>
<line x1="774" x2="798" y1="36" y2="36" stroke="#991b1b" stroke-width="2" stroke-dasharray="2 5"/><text x="803" y="40" font-size="11" fill="#374151">ys T</text>
<line x1="866" x2="890" y1="36" y2="36" stroke="#047857" stroke-width="2"/><text x="895" y="40" font-size="11" fill="#374151">u</text>
<line x1="958" x2="982" y1="36" y2="36" stroke="#34d399" stroke-width="2" stroke-dasharray="2 5"/><text x="987" y="40" font-size="11" fill="#374151">u_s</text>
</svg>