<svg xmlns="http://www.w3.org/2000/svg" width="1120" height="700" viewBox="0 0 1120 700">
<rect width="100%" height="100%" fill="#ffffff"/>
<text x="35" y="40" font-size="24" font-weight="700" fill="#1f2937">Lyapunov delta diagnostics: bounded_hard</text>
<text x="35" y="66" font-size="13" fill="#6b7280">Negative Delta V indicates decrease. Logged step-to-step delta is affected by moving targets x_s(k).</text>
<rect x="95" y="100" width="945" height="220" fill="white" stroke="#d0d7de"/>
<line x1="95" x2="1040" y1="320.0" y2="320.0" stroke="#eef2f7" stroke-width="1"/>
<text x="87" y="324.0" font-size="12" text-anchor="end" fill="#6b7280">-217.60</text>
<line x1="95" x2="1040" y1="265.0" y2="265.0" stroke="#eef2f7" stroke-width="1"/>
<text x="87" y="269.0" font-size="12" text-anchor="end" fill="#6b7280">-159.17</text>
<line x1="95" x2="1040" y1="210.0" y2="210.0" stroke="#eef2f7" stroke-width="1"/>
<text x="87" y="214.0" font-size="12" text-anchor="end" fill="#6b7280">-100.74</text>
<line x1="95" x2="1040" y1="155.0" y2="155.0" stroke="#eef2f7" stroke-width="1"/>
<text x="87" y="159.0" font-size="12" text-anchor="end" fill="#6b7280">-42.31</text>
<line x1="95" x2="1040" y1="100.0" y2="100.0" stroke="#eef2f7" stroke-width="1"/>
<text x="87" y="104.0" font-size="12" text-anchor="end" fill="#6b7280">16.12</text>
<line x1="95" x2="1040" y1="115.2" y2="115.2" stroke="#111827" stroke-width="1.5"/>
<text x="1046" y="119.2" font-size="12" fill="#1f2937">0</text>
<polyline points="95.0,115.2 95.6,115.2 96.2,115.3 96.8,115.6 97.4,115.9 98.0,116.2 98.5,116.6 99.1,117.0 99.7,117.2 100.3,117.5 100.9,117.6 101.5,117.6 102.1,117.6 102.7,117.5 103.3,117.3 103.9,117.1 104.5,116.9 105.0,116.7 105.6,116.5 106.2,116.4 106.8,116.2 107.4,116.1 108.0,115.9 108.6,115.8 109.2,115.8 109.8,115.7 110.4,115.7 111.0,115.6 111.5,115.6 112.1,115.6 112.7,115.6 113.3,115.7 113.9,115.7 114.5,115.7 115.1,115.7 115.7,115.7 116.3,115.7 116.9,115.8 117.5,115.8 118.0,115.8 118.6,115.8 119.2,115.8 119.8,115.8 120.4,115.8 121.0,115.7 121.6,115.7 122.2,115.7 122.8,115.7 123.4,115.7 124.0,115.6 124.5,115.6 125.1,115.6 125.7,115.6 126.3,115.6 126.9,115.5 127.5,115.5 128.1,115.5 128.7,115.5 129.3,115.5 129.9,115.4 130.5,115.4 131.1,115.4 131.6,115.4 132.2,115.4 132.8,115.4 133.4,115.4 134.0,115.4 134.6,115.4 135.2,115.4 135.8,115.4 136.4,115.3 137.0,115.3 137.6,115.3 138.1,115.3 138.7,115.3 139.3,115.3 139.9,115.3 140.5,115.3 141.1,115.3 141.7,115.3 142.3,115.3 142.9,115.3 143.5,115.3 144.1,115.3 144.6,115.3 145.2,115.3 145.8,115.3 146.4,115.3 147.0,115.3 147.6,115.3 148.2,115.3 148.8,115.3 149.4,115.3 150.0,115.3 150.6,115.3 151.1,115.3 151.7,115.3 152.3,115.3 152.9,115.3 153.5,115.3 154.1,115.3 154.7,115.3 155.3,115.3 155.9,115.3 156.5,115.3 157.1,115.3 157.6,115.3 158.2,115.3 158.8,115.3 159.4,115.2 160.0,115.2 160.6,115.2 161.2,115.2 161.8,115.2 162.4,115.2 163.0,115.2 163.6,115.2 164.1,115.2 164.7,115.2 165.3,115.2 165.9,115.2 166.5,115.2 167.1,115.2 167.7,115.2 168.3,115.2 168.9,115.2 169.5,115.2 170.1,115.2 170.6,115.2 171.2,115.2 171.8,115.2 172.4,115.2 173.0,115.2 173.6,115.2 174.2,115.2 174.8,115.2 175.4,115.2 176.0,115.2 176.6,115.2 177.1,115.2 177.7,115.2 178.3,115.2 178.9,115.2 179.5,115.2 180.1,115.2 180.7,115.2 181.3,115.2 181.9,115.2 182.5,115.2 183.1,115.2 183.6,115.2 184.2,115.2 184.8,115.2 185.4,115.2 186.0,115.2 186.6,115.2 187.2,115.2 187.8,115.2 188.4,115.2 189.0,115.2 189.6,115.2 190.2,115.2 190.7,115.2 191.3,115.2 191.9,115.2 192.5,115.2 193.1,115.2 193.7,115.2 194.3,115.2 194.9,115.2 195.5,115.2 196.1,115.2 196.7,115.2 197.2,115.2 197.8,115.2 198.4,115.2 199.0,115.2 199.6,115.2 200.2,115.2 200.8,115.2 201.4,115.2 202.0,115.2 202.6,115.2 203.2,115.2 203.7,115.2 204.3,115.2 204.9,115.2 205.5,115.2 206.1,115.2 206.7,115.2 207.3,115.2 207.9,115.2 208.5,115.2 209.1,115.2 209.7,115.2 210.2,115.2 210.8,115.2 211.4,115.2 212.0,115.2 212.6,115.2 213.2,115.2 213.8,115.2 214.4,115.2 215.0,115.2 215.6,115.2 216.2,115.2 216.7,115.2 217.3,115.2 217.9,115.2 218.5,115.2 219.1,115.2 219.7,115.2 220.3,115.2 220.9,115.2 221.5,115.2 222.1,115.2 222.7,115.2 223.2,115.2 223.8,115.2 224.4,115.2 225.0,115.2 225.6,115.2 226.2,115.2 226.8,115.2 227.4,115.2 228.0,115.2 228.6,115.2 229.2,115.2 229.7,115.2 230.3,115.2 230.9,115.2 231.5,115.2 232.1,115.2 232.7,115.2 233.3,115.2 233.9,115.2 234.5,115.2 235.1,115.4 235.7,115.5 236.2,115.6 236.8,115.5 237.4,115.5 238.0,115.4 238.6,115.3 239.2,115.2 239.8,115.2 240.4,115.2 241.0,115.5 241.6,126.0 242.2,141.8 242.7,152.0 243.3,155.0 243.9,152.7 244.5,147.3 245.1,140.4 245.7,133.3 246.3,126.8 246.9,121.5 247.5,117.7" fill="none" stroke="#1f5f99" stroke-width="2.2" stroke-linejoin="round" stroke-linecap="round"/>
<polyline points="250.4,117.8 251.0,118.7 251.6,135.5 252.2,163.0 252.8,187.0 253.4,203.4 254.0,212.8 254.6,216.5 255.2,215.5 255.8,210.7 256.3,203.1 256.9,193.8 257.5,183.9 258.1,174.2 258.7,165.3 259.3,157.4 259.9,150.5 260.5,144.5 261.1,139.4 261.7,134.9 262.3,130.9 262.8,127.5 263.4,124.4 264.0,121.8 264.6,119.6 265.2,117.8 265.8,116.5 266.4,115.7 267.0,115.5 267.6,115.9 268.2,116.8 268.8,118.2 269.3,120.1 269.9,122.2 270.5,124.5 271.1,126.8 271.7,129.0 272.3,130.9 272.9,132.3 273.5,132.8 274.1,132.8 274.7,132.8 275.3,132.4 275.8,131.6 276.4,130.6 277.0,129.3 277.6,127.9 278.2,126.5 278.8,125.1 279.4,123.7 280.0,122.5 280.6,121.4 281.2,120.4 281.8,119.6 282.3,118.9 282.9,118.2 283.5,117.6 284.1,117.1 284.7,116.7 285.3,116.3 285.9,116.0 286.5,115.8 287.1,115.6 287.7,115.5 288.3,115.5 288.8,115.5 289.4,116.8 290.0,120.1 290.6,125.2 291.2,129.8 291.8,132.9 292.4,134.2 293.0,133.9 293.6,132.3 294.2,130.0 294.8,127.2 295.3,124.3 295.9,121.7 296.5,119.4 297.1,117.7 297.7,116.4 298.3,115.6 298.9,115.2 299.5,115.2 300.1,115.4 300.7,115.7 301.3,116.1 301.8,116.5 302.4,116.7 303.0,116.7 303.6,116.9 304.2,117.0 304.8,117.0 305.4,117.0 306.0,116.9 306.6,116.7 307.2,116.6 307.8,116.5 308.3,116.4 308.9,116.3 309.5,116.2 310.1,116.1 310.7,116.1 311.3,116.1 311.9,116.1 312.5,116.1 313.1,116.2 313.7,116.2 314.3,116.2 314.8,116.3 315.4,116.3 316.0,116.3 316.6,116.3 317.2,116.3 317.8,116.3 318.4,116.3 319.0,116.3 319.6,116.3 320.2,116.2 320.8,116.2 321.4,116.1 321.9,116.0 322.5,116.0 323.1,115.9 323.7,115.9 324.3,115.8 324.9,115.7 325.5,115.7 326.1,115.6 326.7,115.6 327.3,115.5 327.9,115.5 328.4,115.5 329.0,115.4 329.6,115.4 330.2,115.4 330.8,115.4 331.4,115.4 332.0,115.4 332.6,115.5 333.2,115.8 333.8,116.4 334.4,117.4 334.9,118.8 335.5,120.4 336.1,122.0 336.7,123.7 337.3,125.7 337.9,126.6 338.5,128.2 339.1,129.7 339.7,131.0 340.3,132.0 340.9,132.5 341.4,132.8 342.0,132.6 342.6,132.1 343.2,131.3 343.8,130.2 344.4,128.8 345.0,127.4 345.6,125.8 346.2,124.3 346.8,122.8 347.4,121.4 347.9,120.2 348.5,119.1 349.1,118.3 349.7,117.7 350.3,117.3 350.9,117.1 351.5,117.1 352.1,117.3 352.7,117.6 353.3,118.0 353.9,118.5 354.4,119.0 355.0,119.6 355.6,120.1 356.2,120.6 356.8,120.8 357.4,120.8 358.0,120.9 358.6,120.8 359.2,120.8 359.8,120.6 360.4,120.3 360.9,120.0 361.5,119.6 362.1,119.1 362.7,118.7 363.3,118.2 363.9,117.8 364.5,117.3 365.1,116.9 365.7,116.6 366.3,116.3 366.9,116.0 367.4,115.8 368.0,115.6 368.6,115.5 369.2,115.4 369.8,115.3 370.4,115.3 371.0,115.2 371.6,115.2 372.2,115.2 372.8,115.2 373.4,115.2 373.9,115.8 374.5,123.1 375.1,132.0 375.7,136.4 376.3,136.7 376.9,134.3 377.5,130.8 378.1,127.0 378.7,123.4 379.3,120.3 379.9,118.0 380.5,116.5 381.0,115.7 381.6,115.6 382.2,116.0 382.8,121.1 383.4,130.4 384.0,139.6 384.6,146.0 385.2,149.4 385.8,150.3 386.4,149.3 387.0,147.0 387.5,143.6 388.1,139.7 388.7,135.5 389.3,131.2 389.9,127.3 390.5,123.7 391.1,120.7 391.7,118.3 392.3,116.6" fill="none" stroke="#1f5f99" stroke-width="2.2" stroke-linejoin="round" stroke-linecap="round"/>
<polyline points="395.8,116.6 396.4,116.9 397.0,150.2 397.6,208.9 398.2,246.9 398.8,259.1 399.4,254.4 400.0,239.7 400.5,218.9 401.1,195.9 401.7,173.7 402.3,154.8 402.9,140.2 403.5,130.1 404.1,123.7 404.7,120.3 405.3,119.0 405.9,119.2 406.5,120.3 407.0,122.1 407.6,124.2 408.2,126.6 408.8,129.0 409.4,131.5 410.0,133.5 410.6,135.1 411.2,136.2 411.8,137.7 412.4,138.8 413.0,139.5 413.5,139.6 414.1,139.2 414.7,138.3 415.3,136.9 415.9,135.2 416.5,133.1 417.1,130.8 417.7,128.5 418.3,126.2 418.9,124.0 419.5,121.9 420.0,120.2 420.6,118.7 421.2,117.5 421.8,116.6 422.4,116.1 423.0,115.9 423.6,115.9 424.2,119.3 424.8,127.1 425.4,133.1 426.0,135.8 426.5,136.2 427.1,135.1 427.7,133.1 428.3,130.5 428.9,127.6 429.5,124.6 430.1,121.8 430.7,119.5 431.3,117.6 431.9,116.3 432.5,115.5" fill="none" stroke="#1f5f99" stroke-width="2.2" stroke-linejoin="round" stroke-linecap="round"/>
<polyline points="434.2,115.5 434.8,115.8 435.4,120.7 436.0,130.9 436.6,140.1 437.2,145.8 437.8,148.2 438.4,147.9 439.0,145.6 439.5,142.2 440.1,138.0 440.7,133.5 441.3,129.2 441.9,125.3 442.5,121.9 443.1,119.2 443.7,117.2 444.3,115.8" fill="none" stroke="#1f5f99" stroke-width="2.2" stroke-linejoin="round" stroke-linecap="round"/>
<polyline points="446.6,115.9 447.2,116.2 447.8,134.1 448.4,164.5 449.0,184.5 449.6,191.4 450.2,189.4 450.8,182.3 451.4,172.4 452.0,161.1 452.6,149.8 453.1,139.6 453.7,131.3 454.3,125.0 454.9,120.7 455.5,118.2 456.1,117.0 456.7,116.9 457.3,117.5 457.9,118.6 458.5,120.0 459.1,121.4 459.6,122.8 460.2,124.1 460.8,124.8 461.4,125.5 462.0,126.3 462.6,126.8 463.2,127.1 463.8,127.1 464.4,126.9 465.0,126.4 465.6,125.7 466.1,124.9 466.7,123.9 467.3,122.8 467.9,121.6 468.5,120.5 469.1,119.4 469.7,118.4 470.3,117.6 470.9,116.8 471.5,116.2 472.1,115.8 472.6,115.5" fill="none" stroke="#1f5f99" stroke-width="2.2" stroke-linejoin="round" stroke-linecap="round"/>
<polyline points="473.8,116.6 474.4,119.6 475.0,121.7 475.6,122.4 476.2,122.4 476.8,122.0 477.4,121.4 478.0,120.6 478.6,119.7 479.1,118.7 479.7,117.8 480.3,117.0 480.9,116.3 481.5,115.8 482.1,115.4" fill="none" stroke="#1f5f99" stroke-width="2.2" stroke-linejoin="round" stroke-linecap="round"/>
<polyline points="485.1,115.3 485.6,115.4 486.2,122.3 486.8,134.0 487.4,140.1 488.0,140.4 488.6,137.5 489.2,133.3 489.8,129.1 490.4,125.2 491.0,121.9 491.6,119.3 492.1,117.4 492.7,116.1" fill="none" stroke="#1f5f99" stroke-width="2.2" stroke-linejoin="round" stroke-linecap="round"/>
<polyline points="496.3,116.4 496.9,116.6 497.5,163.5 498.1,240.8 498.6,289.6 499.2,304.8 499.8,298.9 500.4,280.8 501.0,255.6 501.6,227.5 502.2,200.5 502.8,177.2 503.4,158.9 504.0,145.4 504.6,136.1 505.2,130.0 505.7,126.2 506.3,124.0 506.9,122.8 507.5,122.6 508.1,123.1 508.7,124.3 509.3,126.2 509.9,128.8 510.5,131.9 511.1,135.6 511.7,139.7 512.2,142.4 512.8,144.9 513.4,148.1 514.0,150.5 514.6,152.0 515.2,152.4 515.8,151.8 516.4,150.1 517.0,147.5 517.6,144.2 518.2,140.5 518.7,136.6 519.3,132.6 519.9,129.0 520.5,125.6 521.1,122.8 521.7,120.5 522.3,118.8 522.9,117.7 523.5,117.1 524.1,117.0 524.7,117.3 525.2,117.9 525.8,118.7 526.4,119.3 527.0,120.2 527.6,121.1 528.2,121.9 528.8,122.5 529.4,122.9 530.0,123.1 530.6,123.0 531.2,122.7 531.7,122.2 532.3,121.6 532.9,120.8 533.5,120.0 534.1,119.1 534.7,118.3 535.3,117.6 535.9,116.9 536.5,116.3 537.1,115.9 537.7,115.5 538.2,115.3 538.8,115.2" fill="none" stroke="#1f5f99" stroke-width="2.2" stroke-linejoin="round" stroke-linecap="round"/>
<polyline points="540.0,117.8 540.6,123.3 541.2,126.3 541.8,126.6 542.4,125.2 543.0,123.1 543.6,121.0 544.2,119.1 544.7,117.6 545.3,116.4 545.9,115.7" fill="none" stroke="#1f5f99" stroke-width="2.2" stroke-linejoin="round" stroke-linecap="round"/>
<polyline points="547.7,115.7 548.3,115.9 548.9,140.6 549.5,183.3 550.1,215.9 550.7,232.4 551.2,236.6 551.8,232.6 552.4,222.6 553.0,208.7 553.6,193.1 554.2,177.8 554.8,163.9 555.4,152.1 556.0,142.4 556.6,134.8 557.2,128.9 557.7,124.5 558.3,121.4 558.9,119.5 559.5,119.0 560.1,119.8 560.7,122.1 561.3,125.8 561.9,130.9 562.5,136.9 563.1,143.7 563.7,150.5 564.2,153.9 564.8,159.1 565.4,163.0 566.0,165.2 566.6,165.5 567.2,164.1 567.8,161.0 568.4,156.7 569.0,149.2 569.6,139.9 570.2,130.6 570.8,123.1 571.3,118.3 571.9,116.4 572.5,117.2 573.1,120.0 573.7,124.5 574.3,128.8 574.9,134.0 575.5,138.6 576.1,142.2 576.7,144.4 577.3,145.0 577.8,144.2 578.4,142.2 579.0,139.5 579.6,136.3 580.2,133.1 580.8,130.2 581.4,127.6 582.0,125.5 582.6,123.9 583.2,122.7 583.8,122.0 584.3,121.5 584.9,121.2 585.5,121.1 586.1,121.1 586.7,121.2 587.3,121.3 587.9,121.4 588.5,121.5 589.1,121.5 589.7,121.6 590.3,121.6 590.8,121.6 591.4,121.5 592.0,121.5 592.6,121.3 593.2,121.2 593.8,121.0 594.4,120.8 595.0,120.6 595.6,120.4 596.2,120.1 596.8,119.8 597.3,119.5 597.9,119.3 598.5,119.0 599.1,118.7 599.7,118.4 600.3,118.1 600.9,117.8 601.5,117.6 602.1,117.3 602.7,117.1 603.3,116.9 603.8,116.7 604.4,116.6 605.0,116.4 605.6,116.3 606.2,116.2 606.8,116.1 607.4,116.0 608.0,115.9 608.6,115.9 609.2,115.8 609.8,115.8 610.3,115.8 610.9,115.7 611.5,115.7 612.1,115.7 612.7,115.7 613.3,115.7 613.9,115.7 614.5,115.7 615.1,115.7 615.7,115.7 616.3,115.7 616.8,115.7 617.4,115.7 618.0,115.7 618.6,115.7 619.2,115.7 619.8,115.7 620.4,115.7 621.0,115.7 621.6,115.7 622.2,115.7 622.8,115.7 623.3,115.6 623.9,115.6 624.5,115.6 625.1,115.6 625.7,115.6 626.3,115.6 626.9,115.6 627.5,115.6 628.1,115.5 628.7,115.5 629.3,115.5 629.8,115.5 630.4,115.5 631.0,115.5 631.6,115.5 632.2,115.5 632.8,115.4 633.4,115.4 634.0,115.4 634.6,115.4 635.2,115.4 635.8,115.4 636.4,115.4 636.9,115.4 637.5,115.4 638.1,115.4 638.7,115.3 639.3,115.3 639.9,115.3 640.5,115.3 641.1,115.3 641.7,115.3 642.3,115.3 642.9,115.3 643.4,115.3 644.0,115.3 644.6,115.3 645.2,115.3 645.8,115.3 646.4,115.3 647.0,115.3 647.6,115.3 648.2,115.3 648.8,115.3 649.4,115.2 649.9,115.2 650.5,115.2 651.1,115.2 651.7,115.2 652.3,115.2 652.9,115.2 653.5,115.2 654.1,115.2 654.7,115.2 655.3,115.2 655.9,115.2 656.4,115.2 657.0,115.2 657.6,115.2 658.2,115.2 658.8,115.2 659.4,115.2 660.0,115.2 660.6,115.2 661.2,115.2 661.8,115.2 662.4,115.2 662.9,115.2 663.5,115.2 664.1,115.2 664.7,115.2 665.3,115.2 665.9,115.2 666.5,115.2 667.1,115.2 667.7,115.2 668.3,115.2 668.9,115.2 669.4,115.2 670.0,115.2 670.6,115.2 671.2,115.2 671.8,115.2 672.4,115.2 673.0,115.2 673.6,115.2 674.2,115.2 674.8,115.2 675.4,115.2 675.9,115.2 676.5,115.2 677.1,115.2 677.7,115.2 678.3,115.2 678.9,115.2 679.5,115.2 680.1,115.2 680.7,115.2 681.3,115.2 681.9,115.2 682.4,115.2 683.0,115.2 683.6,115.2 684.2,115.2 684.8,115.2 685.4,115.2 686.0,115.2 686.6,115.2 687.2,115.2 687.8,115.2 688.4,115.2 688.9,115.2 689.5,115.2 690.1,115.2 690.7,115.2 691.3,115.2 691.9,115.2 692.5,115.2 693.1,115.2 693.7,115.2 694.3,115.2 694.9,115.2 695.5,115.2 696.0,115.2 696.6,115.2 697.2,115.2 697.8,115.2 698.4,115.2 699.0,115.2 699.6,115.2 700.2,115.2 700.8,115.2 701.4,115.2 702.0,115.2 702.5,115.2 703.1,115.2 703.7,115.2 704.3,115.2 704.9,115.2 705.5,115.2 706.1,115.2 706.7,115.2 707.3,115.2 707.9,115.2 708.5,115.2 709.0,115.2 709.6,115.2 710.2,115.2 710.8,115.2 711.4,115.2 712.0,115.2 712.6,115.2 713.2,115.2 713.8,115.2 714.4,115.2 715.0,115.2 715.5,115.2 716.1,115.2 716.7,115.2 717.3,115.2 717.9,115.2 718.5,115.2 719.1,115.2 719.7,115.2 720.3,115.2 720.9,115.2 721.5,115.2 722.0,115.2 722.6,115.2" fill="none" stroke="#1f5f99" stroke-width="2.2" stroke-linejoin="round" stroke-linecap="round"/>
<polyline points="734.5,115.2 735.0,115.2 735.6,115.2 736.2,115.2 736.8,115.2 737.4,115.2 738.0,115.2 738.6,115.2 739.2,115.2 739.8,115.2 740.4,115.2 741.0,115.2 741.5,115.2 742.1,115.2 742.7,115.2 743.3,115.2 743.9,115.2" fill="none" stroke="#1f5f99" stroke-width="2.2" stroke-linejoin="round" stroke-linecap="round"/>
<polyline points="745.7,115.2 746.3,115.2" fill="none" stroke="#1f5f99" stroke-width="2.2" stroke-linejoin="round" stroke-linecap="round"/>
<polyline points="747.5,115.2 748.0,115.2 748.6,115.2 749.2,115.2 749.8,115.2 750.4,115.2 751.0,115.2 751.6,115.2 752.2,115.2 752.8,116.1 753.4,117.5 754.0,118.9 754.5,119.9 755.1,120.3 755.7,120.4 756.3,120.1 756.9,119.6 757.5,119.1 758.1,118.5 758.7,117.9 759.3,117.4 759.9,117.0 760.5,116.6 761.1,116.3 761.6,116.0 762.2,115.9 762.8,115.7 763.4,115.6 764.0,115.6 764.6,115.6 765.2,115.6 765.8,115.6 766.4,115.6 767.0,115.7 767.6,115.8 768.1,115.8 768.7,115.9 769.3,115.9 769.9,115.9 770.5,116.0 771.1,116.0 771.7,116.0 772.3,116.0 772.9,116.0 773.5,116.0 774.1,116.0 774.6,115.9 775.2,115.9 775.8,115.9 776.4,115.9 777.0,115.8 777.6,115.8 778.2,115.8 778.8,115.7 779.4,115.7 780.0,115.7 780.6,115.6 781.1,115.6 781.7,115.6 782.3,115.5 782.9,115.5 783.5,115.5 784.1,115.5 784.7,115.4 785.3,115.4 785.9,115.4 786.5,115.3 787.1,115.3 787.6,115.3 788.2,115.3 788.8,115.3 789.4,115.3 790.0,115.2 790.6,115.2 791.2,115.2 791.8,115.2 792.4,115.2 793.0,115.2 793.6,115.2 794.1,115.2 794.7,115.2 795.3,115.2 795.9,115.2 796.5,115.2 797.1,115.2 797.7,115.2 798.3,115.2 798.9,115.2 799.5,115.2 800.1,115.2 800.6,115.2 801.2,115.2 801.8,115.2 802.4,115.2 803.0,115.2 803.6,115.2 804.2,115.3 804.8,115.3 805.4,115.4 806.0,115.7 806.6,116.4 807.1,117.4 807.7,118.7 808.3,120.4 808.9,122.3 809.5,123.9 810.1,126.0 810.7,128.0 811.3,128.8 811.9,130.5 812.5,131.9 813.1,133.0 813.6,133.7 814.2,134.0 814.8,133.9 815.4,133.4 816.0,132.5 816.6,131.4 817.2,130.0 817.8,128.4 818.4,126.7 819.0,125.0 819.6,123.4 820.2,121.9 820.7,120.6 821.3,119.5 821.9,118.6 822.5,118.0 823.1,117.5 823.7,117.3 824.3,117.4 824.9,117.5 825.5,117.9 826.1,118.3 826.7,118.9 827.2,119.4 827.8,120.0 828.4,120.5" fill="none" stroke="#1f5f99" stroke-width="2.2" stroke-linejoin="round" stroke-linecap="round"/>
<polyline points="829.6,121.0 830.2,120.9 830.8,120.8 831.4,120.8 832.0,120.6 832.6,120.3 833.2,120.0 833.7,119.7 834.3,119.3 834.9,118.9 835.5,118.4 836.1,118.0 836.7,117.6 837.3,117.2 837.9,116.8 838.5,116.5 839.1,116.2 839.7,115.9 840.2,115.7 840.8,115.6 841.4,115.4 842.0,115.4 842.6,115.3 843.2,115.2 843.8,115.2 844.4,115.2 845.0,115.2 845.6,115.2 846.2,115.2 846.7,115.2 847.3,115.2 847.9,119.4 848.5,126.1 849.1,129.9 849.7,130.5 850.3,129.0 850.9,126.5 851.5,123.7 852.1,121.0 852.7,118.8 853.2,117.0 853.8,115.9" fill="none" stroke="#1f5f99" stroke-width="2.2" stroke-linejoin="round" stroke-linecap="round"/>
<polyline points="855.6,115.6 856.2,116.0 856.8,116.4 857.4,117.0 858.0,117.6 858.6,118.2 859.2,118.9 859.7,119.6 860.3,119.6 860.9,120.1 861.5,120.6 862.1,120.9 862.7,121.0 863.3,121.1 863.9,120.9 864.5,120.7 865.1,120.3 865.7,119.9 866.2,119.4 866.8,118.9 867.4,118.3 868.0,117.7 868.6,117.2 869.2,116.7 869.8,116.3 870.4,115.9 871.0,115.7 871.6,115.5 872.2,115.4 872.7,115.4 873.3,120.1 873.9,139.0 874.5,154.6 875.1,159.7 875.7,157.6 876.3,151.8 876.9,144.4 877.5,136.7 878.1,129.6 878.7,123.6 879.2,119.2 879.8,116.5" fill="none" stroke="#1f5f99" stroke-width="2.2" stroke-linejoin="round" stroke-linecap="round"/>
<polyline points="882.2,117.0 882.8,117.8 883.4,118.6 884.0,119.5 884.6,120.4 885.2,121.6 885.8,122.8 886.3,123.4 886.9,124.4 887.5,125.4 888.1,126.2 888.7,126.8 889.3,127.2 889.9,127.3 890.5,127.2 891.1,126.8 891.7,126.3 892.3,125.5 892.8,124.6 893.4,123.6 894.0,122.6 894.6,121.5 895.2,120.4 895.8,119.4 896.4,118.5 897.0,117.6 897.6,116.9 898.2,116.3 898.8,115.9 899.3,115.6" fill="none" stroke="#1f5f99" stroke-width="2.2" stroke-linejoin="round" stroke-linecap="round"/>
<polyline points="901.1,115.7 901.7,116.0 902.3,118.5 902.9,121.1 903.5,123.2 904.1,124.1 904.7,124.1 905.3,123.5 905.8,122.6 906.4,121.5 907.0,120.4 907.6,119.2 908.2,118.1 908.8,117.2 909.4,116.4 910.0,115.9 910.6,115.5 911.2,115.2" fill="none" stroke="#1f5f99" stroke-width="2.2" stroke-linejoin="round" stroke-linecap="round"/>
<polyline points="912.9,115.2 913.5,115.3 914.1,115.3 914.7,115.4 915.3,115.5 915.9,115.5 916.5,115.6 917.1,115.8 917.7,116.0 918.3,116.1 918.8,116.1 919.4,116.0 920.0,115.8 920.6,115.8 921.2,115.7 921.8,115.6 922.4,115.5 923.0,115.5 923.6,115.5 924.2,118.0 924.8,136.1 925.3,157.2 925.9,168.7 926.5,171.0 927.1,167.6 927.7,161.0 928.3,153.0 928.9,144.6 929.5,136.7 930.1,129.9 930.7,124.5 931.3,120.5 931.8,117.9 932.4,116.4 933.0,115.8 933.6,116.0 934.2,116.9 934.8,118.2 935.4,119.8 936.0,121.7 936.6,123.7 937.2,125.7 937.8,127.1 938.3,127.5 938.9,128.8 939.5,129.8 940.1,130.3 940.7,130.5 941.3,130.2 941.9,129.5 942.5,128.5 943.1,127.2 943.7,125.8 944.3,124.3 944.8,122.8 945.4,121.3 946.0,120.0 946.6,118.9 947.2,118.0 947.8,117.3 948.4,116.9 949.0,116.7 949.6,116.7 950.2,116.9 950.8,117.2 951.4,117.5 951.9,117.8 952.5,118.2 953.1,118.5 953.7,118.9 954.3,119.1 954.9,119.3 955.5,119.3 956.1,119.3 956.7,119.1 957.3,118.9 957.9,118.6 958.4,118.2 959.0,117.8 959.6,117.4 960.2,117.0 960.8,116.6 961.4,116.2 962.0,115.9 962.6,115.7 963.2,115.5 963.8,115.3 964.4,115.2 964.9,115.2 965.5,115.2 966.1,115.9 966.7,118.9 967.3,123.5 967.9,127.0 968.5,128.6 969.1,128.7 969.7,127.7 970.3,126.0 970.9,124.0 971.4,121.9 972.0,119.9 972.6,118.1 973.2,116.8 973.8,115.8" fill="none" stroke="#1f5f99" stroke-width="2.2" stroke-linejoin="round" stroke-linecap="round"/>
<polyline points="975.6,115.5 976.2,115.8 976.8,145.9 977.4,199.7 977.9,233.6 978.5,243.1 979.1,236.3 979.7,219.8 980.3,198.3 980.9,176.1 981.5,156.4 982.1,141.1 982.7,130.7 983.3,124.6 983.9,121.9 984.4,121.6 985.0,122.8 985.6,124.8 986.2,127.4 986.8,130.1 987.4,132.9 988.0,135.7 988.6,138.4 989.2,140.5 989.8,142.8 990.4,143.2 990.9,144.8 991.5,145.9 992.1,146.5 992.7,146.6 993.3,146.1 993.9,144.9 994.5,143.3 995.1,141.1 995.7,138.6 996.3,135.9 996.9,133.0 997.4,130.0 998.0,127.2 998.6,124.6 999.2,122.2 999.8,120.2 1000.4,118.5 1001.0,117.3 1001.6,116.3 1002.2,115.9" fill="none" stroke="#1f5f99" stroke-width="2.2" stroke-linejoin="round" stroke-linecap="round"/>
<polyline points="1003.4,117.5 1003.9,122.0 1004.5,125.3 1005.1,126.8 1005.7,127.2 1006.3,127.0 1006.9,126.4 1007.5,125.3 1008.1,123.9 1008.7,122.3 1009.3,120.7 1009.9,119.2 1010.5,117.8 1011.0,116.7 1011.6,115.9 1012.2,115.4" fill="none" stroke="#1f5f99" stroke-width="2.2" stroke-linejoin="round" stroke-linecap="round"/>
<polyline points="1015.2,115.5 1015.8,115.6 1016.4,116.3 1017.0,117.7 1017.5,118.9 1018.1,119.8 1018.7,120.3 1019.3,120.4 1019.9,120.4 1020.5,120.1 1021.1,119.7 1021.7,119.2 1022.3,118.6 1022.9,118.0 1023.5,117.4 1024.0,116.9 1024.6,116.4 1025.2,116.0 1025.8,115.7 1026.4,115.4 1027.0,115.2" fill="none" stroke="#1f5f99" stroke-width="2.2" stroke-linejoin="round" stroke-linecap="round"/>
<polyline points="1028.8,115.3 1029.4,115.3 1030.0,142.4 1030.5,194.4 1031.1,229.6 1031.7,241.3 1032.3,236.9 1032.9,223.4 1033.5,205.5 1034.1,187.1 1034.7,170.5 1035.3,157.1 1035.9,147.2 1036.5,140.2 1037.0,135.4 1037.6,132.2 1038.2,130.0 1038.8,128.3 1039.4,127.1 1040.0,126.2" fill="none" stroke="#1f5f99" stroke-width="2.2" stroke-linejoin="round" stroke-linecap="round"/>
<text x="95" y="88" font-size="16" font-weight="700" fill="#1f2937">First-step predicted Delta V = V_1|k - V_k</text>
<text x="95" y="348" font-size="12" fill="#6b7280">step</text>
<line x1="95.0" x2="95.0" y1="320" y2="325" stroke="#6b7280"/>
<text x="95.0" y="340" font-size="12" text-anchor="middle" fill="#6b7280">0</text>
<line x1="567.5" x2="567.5" y1="320" y2="325" stroke="#6b7280"/>
<text x="567.5" y="340" font-size="12" text-anchor="middle" fill="#6b7280">799</text>
<line x1="1040.0" x2="1040.0" y1="320" y2="325" stroke="#6b7280"/>
<text x="1040.0" y="340" font-size="12" text-anchor="middle" fill="#6b7280">1599</text>
<rect x="95" y="405" width="945" height="220" fill="white" stroke="#d0d7de"/>
<line x1="95" x2="1040" y1="625.0" y2="625.0" stroke="#eef2f7" stroke-width="1"/>
<text x="87" y="629.0" font-size="12" text-anchor="end" fill="#6b7280">-319.35</text>
<line x1="95" x2="1040" y1="570.0" y2="570.0" stroke="#eef2f7" stroke-width="1"/>
<text x="87" y="574.0" font-size="12" text-anchor="end" fill="#6b7280">-34.06</text>
<line x1="95" x2="1040" y1="515.0" y2="515.0" stroke="#eef2f7" stroke-width="1"/>
<text x="87" y="519.0" font-size="12" text-anchor="end" fill="#6b7280">251.23</text>
<line x1="95" x2="1040" y1="460.0" y2="460.0" stroke="#eef2f7" stroke-width="1"/>
<text x="87" y="464.0" font-size="12" text-anchor="end" fill="#6b7280">536.51</text>
<line x1="95" x2="1040" y1="405.0" y2="405.0" stroke="#eef2f7" stroke-width="1"/>
<text x="87" y="409.0" font-size="12" text-anchor="end" fill="#6b7280">821.80</text>
<line x1="95" x2="1040" y1="563.4" y2="563.4" stroke="#111827" stroke-width="1.5"/>
<text x="1046" y="567.4" font-size="12" fill="#1f2937">0</text>
<polyline points="95.6,563.4 96.2,563.3 96.8,562.9 97.4,563.0 98.0,563.1 98.5,562.8 99.1,562.8 99.7,562.9 100.3,563.0 100.9,563.1 101.5,563.2 102.1,563.3 102.7,563.4 103.3,563.5 103.9,563.5 104.5,563.6 105.0,563.6 105.6,563.6 106.2,563.6 106.8,563.6 107.4,563.6 108.0,563.6 108.6,563.6 109.2,563.6 109.8,563.6 110.4,563.6 111.0,563.5 111.5,563.5 112.1,563.5 112.7,563.5 113.3,563.5 113.9,563.5 114.5,563.5 115.1,563.5 115.7,563.5 116.3,563.4 116.9,563.4 117.5,563.4 118.0,563.5 118.6,563.5 119.2,563.5 119.8,563.5 120.4,563.5 121.0,563.5 121.6,563.5 122.2,563.5 122.8,563.5 123.4,563.5 124.0,563.5 124.5,563.5 125.1,563.5 125.7,563.5 126.3,563.5 126.9,563.5 127.5,563.5 128.1,563.5 128.7,563.5 129.3,563.5 129.9,563.5 130.5,563.5 131.1,563.5 131.6,563.5 132.2,563.5 132.8,563.5 133.4,563.5 134.0,563.5 134.6,563.4 135.2,563.4 135.8,563.4 136.4,563.4 137.0,563.4 137.6,563.4 138.1,563.4 138.7,563.4 139.3,563.4 139.9,563.4 140.5,563.4 141.1,563.4 141.7,563.4 142.3,563.4 142.9,563.4 143.5,563.4 144.1,563.4 144.6,563.4 145.2,563.4 145.8,563.4 146.4,563.4 147.0,563.4 147.6,563.4 148.2,563.4 148.8,563.4 149.4,563.5 150.0,563.5 150.6,563.5 151.1,563.5 151.7,563.5 152.3,563.5 152.9,563.5 153.5,563.5 154.1,563.5 154.7,563.5 155.3,563.5 155.9,563.4 156.5,563.4 157.1,563.4 157.6,563.4 158.2,563.4 158.8,563.4 159.4,563.4 160.0,563.4 160.6,563.4 161.2,563.4 161.8,563.4 162.4,563.4 163.0,563.4 163.6,563.4 164.1,563.4 164.7,563.4 165.3,563.4 165.9,563.4 166.5,563.4 167.1,563.4 167.7,563.4 168.3,563.4 168.9,563.4 169.5,563.4 170.1,563.4 170.6,563.4 171.2,563.4 171.8,563.4 172.4,563.4 173.0,563.4 173.6,563.4 174.2,563.4 174.8,563.4 175.4,563.4 176.0,563.4 176.6,563.4 177.1,563.4 177.7,563.4 178.3,563.4 178.9,563.4 179.5,563.4 180.1,563.4 180.7,563.4 181.3,563.4 181.9,563.4 182.5,563.4 183.1,563.4 183.6,563.4 184.2,563.4 184.8,563.4 185.4,563.4 186.0,563.4 186.6,563.4 187.2,563.4 187.8,563.4 188.4,563.4 189.0,563.4 189.6,563.4 190.2,563.4 190.7,563.4 191.3,563.4 191.9,563.4 192.5,563.4 193.1,563.4 193.7,563.4 194.3,563.4 194.9,563.4 195.5,563.4 196.1,563.4 196.7,563.4 197.2,563.4 197.8,563.4 198.4,563.4 199.0,563.4 199.6,563.4 200.2,563.4 200.8,563.4 201.4,563.4 202.0,563.4 202.6,563.4 203.2,563.4 203.7,563.4 204.3,563.4 204.9,563.4 205.5,563.4 206.1,563.4 206.7,563.4 207.3,563.4 207.9,563.4 208.5,563.4 209.1,563.4 209.7,563.4 210.2,563.4 210.8,563.4 211.4,563.4 212.0,563.4 212.6,563.4 213.2,563.4 213.8,563.4 214.4,563.4 215.0,563.4 215.6,563.4 216.2,563.4 216.7,563.4 217.3,563.4 217.9,563.4 218.5,563.4 219.1,563.4 219.7,563.4 220.3,563.4 220.9,563.4 221.5,563.4 222.1,563.4 222.7,563.4 223.2,563.4 223.8,563.4 224.4,563.4 225.0,563.4 225.6,563.4 226.2,563.4 226.8,563.4 227.4,563.4 228.0,563.4 228.6,563.4 229.2,563.4 229.7,563.4 230.3,563.4 230.9,563.4 231.5,563.4 232.1,563.4 232.7,563.4 233.3,563.4 233.9,563.4 234.5,563.4 235.1,563.2 235.7,563.2 236.2,563.4 236.8,563.5 237.4,563.5 238.0,563.5 238.6,563.5 239.2,563.5 239.8,563.4 240.4,563.4 241.0,563.1 241.6,545.0 242.2,535.0 242.7,545.9 243.3,559.3 243.9,568.2 244.5,572.8 245.1,574.3 245.7,573.9 246.3,572.3 246.9,569.9 247.5,567.1" fill="none" stroke="#c96b17" stroke-width="2.2" stroke-linejoin="round" stroke-linecap="round"/>
<polyline points="251.0,560.6 251.6,534.1 252.2,513.6 252.8,522.7 253.4,540.4 254.0,555.8 254.6,566.4 255.2,573.0 255.8,576.5 256.3,578.1 256.9,578.4 257.5,578.0 258.1,577.2 258.7,576.2 259.3,575.1 259.9,574.1 260.5,573.2 261.1,572.3 261.7,571.5 262.3,570.7 262.8,569.9 263.4,569.1 264.0,568.3 264.6,567.3 265.2,566.4 265.8,565.3 266.4,564.2 267.0,563.0 267.6,561.9 268.2,560.8 268.8,559.9 269.3,559.2 269.9,558.7 270.5,558.5 271.1,558.6 271.7,559.1 272.3,559.8 272.9,560.7 273.5,563.7 274.1,564.4 274.7,563.9 275.3,564.8 275.8,565.5 276.4,566.1 277.0,566.5 277.6,566.7 278.2,566.7 278.8,566.6 279.4,566.4 280.0,566.2 280.6,565.8 281.2,565.4 281.8,564.4 282.3,564.2 282.9,564.6 283.5,564.3 284.1,564.0 284.7,563.8 285.3,563.6 285.9,563.5 286.5,563.4 287.1,563.3 287.7,563.2 288.3,563.2 288.8,563.1 289.4,560.6 290.0,558.8 290.6,554.8 291.2,556.3 291.8,559.2 292.4,562.2 293.0,564.7 293.6,566.5 294.2,567.6 294.8,568.1 295.3,568.1 295.9,567.7 296.5,567.1 297.1,566.2 297.7,565.4 298.3,564.6 298.9,563.9 299.5,563.3 300.1,562.9 300.7,563.2 301.3,562.8 301.8,562.6 302.4,563.1 303.0,563.2 303.6,562.8 304.2,562.9 304.8,563.0 305.4,563.0 306.0,563.1 306.6,563.2 307.2,563.3 307.8,563.3 308.3,563.4 308.9,563.4 309.5,563.5 310.1,563.5 310.7,563.5 311.3,563.6 311.9,563.6 312.5,563.6 313.1,563.6 313.7,563.6 314.3,563.6 314.8,563.6 315.4,563.6 316.0,563.6 316.6,563.6 317.2,563.6 317.8,563.6 318.4,563.6 319.0,563.6 319.6,563.6 320.2,563.6 320.8,563.7 321.4,563.7 321.9,563.7 322.5,563.6 323.1,563.6 323.7,563.6 324.3,563.6 324.9,563.6 325.5,563.6 326.1,563.5 326.7,563.5 327.3,563.5 327.9,563.5 328.4,563.5 329.0,563.5 329.6,563.5 330.2,563.5 330.8,563.5 331.4,563.2 332.0,563.5 332.6,563.2 333.2,562.8 333.8,562.2 334.4,561.6 334.9,561.0 335.5,560.5 336.1,561.0 336.7,561.2 337.3,559.9 337.9,562.6 338.5,560.3 339.1,560.3 339.7,560.7 340.3,561.1 340.9,561.7 341.4,562.3 342.0,562.9 342.6,563.5 343.2,564.1 343.8,564.6 344.4,565.0 345.0,565.3 345.6,565.4 346.2,565.5 346.8,565.4 347.4,565.3 347.9,565.1 348.5,564.8 349.1,564.6 349.7,564.3 350.3,564.0 350.9,563.7 351.5,563.5 352.1,563.4 352.7,563.3 353.3,563.2 353.9,563.2 354.4,563.2 355.0,563.3 355.6,563.4 356.2,563.6 356.8,564.5 357.4,565.1 358.0,564.2 358.6,564.4 359.2,564.3 359.8,564.3 360.4,564.3 360.9,564.3 361.5,564.3 362.1,564.3 362.7,564.3 363.3,564.2 363.9,564.1 364.5,564.1 365.1,564.0 365.7,563.9 366.3,563.8 366.9,563.8 367.4,563.6 368.0,563.6 368.6,563.5 369.2,563.6 369.8,563.5 370.4,563.5 371.0,563.5 371.6,563.4 372.2,563.4 372.8,563.4 373.4,563.4 373.9,562.7 374.5,550.4 375.1,547.4 375.7,555.8 376.3,563.9 376.9,568.2 377.5,569.6 378.1,569.4 378.7,568.5 379.3,567.4 379.9,566.4 380.5,565.4 381.0,564.6 381.6,563.9 382.2,563.3 382.8,554.8 383.4,549.6 384.0,548.7 384.6,553.9 385.2,558.7 385.8,562.4 386.4,565.1 387.0,567.0 387.5,568.3 388.1,569.1 388.7,569.5 389.3,569.4 389.9,569.0 390.5,568.3 391.1,567.3 391.7,566.2 392.3,565.1" fill="none" stroke="#c96b17" stroke-width="2.2" stroke-linejoin="round" stroke-linecap="round"/>
<polyline points="396.4,563.0 397.0,504.0 397.6,457.1 398.2,502.8 398.8,557.3 399.4,588.7 400.0,600.0 400.5,600.1 401.1,595.4 401.7,589.4 402.3,583.7 402.9,578.9 403.5,575.2 404.1,572.2 404.7,569.9 405.3,568.1 405.9,566.5 406.5,565.1 407.0,563.9 407.6,562.8 408.2,561.8 408.8,560.9 409.4,560.2 410.0,562.0 410.6,561.8 411.2,562.2 411.8,560.5 412.4,560.9 413.0,561.6 413.5,562.4 414.1,563.2 414.7,564.1 415.3,564.9 415.9,565.7 416.5,566.2 417.1,566.6 417.7,566.8 418.3,566.8 418.9,566.6 419.5,566.3 420.0,565.9 420.6,565.5 421.2,565.0 421.8,564.5 422.4,564.1 423.0,563.7 423.6,563.4 424.2,558.1 424.8,550.1 425.4,554.8 426.0,561.8 426.5,566.4 427.1,568.4 427.7,568.9 428.3,568.6 428.9,567.9 429.5,567.1 430.1,566.2 430.7,565.5 431.3,564.8 431.9,564.3 432.5,563.8" fill="none" stroke="#c96b17" stroke-width="2.2" stroke-linejoin="round" stroke-linecap="round"/>
<polyline points="434.8,563.3 435.4,555.9 436.0,546.0 436.6,548.1 437.2,554.4 437.8,560.3 438.4,564.7 439.0,567.7 439.5,569.4 440.1,570.3 440.7,570.5 441.3,570.1 441.9,569.4 442.5,568.3 443.1,567.1 443.7,565.9 444.3,564.7" fill="none" stroke="#c96b17" stroke-width="2.2" stroke-linejoin="round" stroke-linecap="round"/>
<polyline points="447.2,563.0 447.8,531.9 448.4,508.3 449.0,530.5 449.6,558.0 450.2,574.6 450.8,581.3 451.4,582.2 452.0,580.5 452.6,577.8 453.1,575.0 453.7,572.4 454.3,570.3 454.9,568.5 455.5,567.1 456.1,566.0 456.7,565.0 457.3,564.2 457.9,563.6 458.5,563.0 459.1,562.6 459.6,563.1 460.2,562.5 460.8,564.3 461.4,563.1 462.0,562.6 462.6,562.8 463.2,563.0 463.8,563.3 464.4,563.6 465.0,563.9 465.6,564.2 466.1,564.4 466.7,564.6 467.3,564.7 467.9,564.8 468.5,564.8 469.1,564.7 469.7,564.6 470.3,564.4 470.9,564.2 471.5,564.0 472.1,563.8 472.6,563.6" fill="none" stroke="#c96b17" stroke-width="2.2" stroke-linejoin="round" stroke-linecap="round"/>
<polyline points="474.4,559.2 475.0,560.5 475.6,563.6 476.2,565.2 476.8,565.7 477.4,565.7 478.0,565.4 478.6,565.0 479.1,564.6 479.7,564.3 480.3,564.0 480.9,563.8 481.5,563.6 482.1,563.3" fill="none" stroke="#c96b17" stroke-width="2.2" stroke-linejoin="round" stroke-linecap="round"/>
<polyline points="485.6,563.4 486.2,552.1 486.8,542.7 487.4,553.2 488.0,564.3 488.6,570.0 489.2,571.6 489.8,571.1 490.4,569.7 491.0,568.2 491.6,566.6 492.1,565.2 492.7,564.0" fill="none" stroke="#c96b17" stroke-width="2.2" stroke-linejoin="round" stroke-linecap="round"/>
<polyline points="496.9,562.4 497.5,478.0 498.1,420.2 498.6,480.5 499.2,551.5 499.8,592.8 500.4,608.4 501.0,609.8 501.6,605.0 502.2,598.4 502.8,592.0 503.4,586.6 504.0,582.3 504.6,578.9 505.2,576.2 505.7,573.8 506.3,571.7 506.9,569.6 507.5,567.5 508.1,565.4 508.7,563.2 509.3,561.0 509.9,558.9 510.5,557.1 511.1,555.6 511.7,554.7 512.2,559.6 512.8,558.5 513.4,556.1 514.0,557.5 514.6,559.2 515.2,561.3 515.8,563.4 516.4,565.4 517.0,567.1 517.6,568.5 518.2,569.4 518.7,569.8 519.3,569.9 519.9,569.5 520.5,568.9 521.1,568.1 521.7,567.2 522.3,566.3 522.9,565.4 523.5,564.6 524.1,563.9 524.7,563.3 525.2,562.9 525.8,563.3 526.4,564.5 527.0,563.4 527.6,563.5 528.2,563.6 528.8,563.8 529.4,563.9 530.0,564.1 530.6,564.3 531.2,564.4 531.7,564.4 532.3,564.5 532.9,564.5 533.5,564.4 534.1,564.4 534.7,564.3 535.3,564.2 535.9,564.0 536.5,563.9 537.1,563.8 537.7,563.7 538.2,563.6 538.8,563.5" fill="none" stroke="#c96b17" stroke-width="2.2" stroke-linejoin="round" stroke-linecap="round"/>
<polyline points="540.6,553.7 541.2,558.5 541.8,563.9 542.4,566.8 543.0,567.5 543.6,567.1 544.2,566.2 544.7,565.2 545.3,564.2 545.9,563.3" fill="none" stroke="#c96b17" stroke-width="2.2" stroke-linejoin="round" stroke-linecap="round"/>
<polyline points="548.3,562.1 548.9,517.9 549.5,483.5 550.1,505.1 550.7,539.5 551.2,564.8 551.8,578.9 552.4,585.2 553.0,586.9 553.6,586.4 554.2,584.8 554.8,582.9 555.4,580.9 556.0,579.1 556.6,577.3 557.2,575.5 557.7,573.5 558.3,571.2 558.9,568.7 559.5,565.8 560.1,562.7 560.7,559.4 561.3,556.2 561.9,553.3 562.5,551.0 563.1,549.5 563.7,549.3 564.2,560.8 564.8,552.7 565.4,555.2 566.0,558.5 566.6,562.0 567.2,565.4 567.8,568.4 568.4,570.8 569.0,576.9 569.6,580.4 570.2,580.2 570.8,577.1 571.3,572.4 571.9,567.3 572.5,562.7 573.1,560.1 573.7,557.8 574.3,560.0 574.9,557.2 575.5,557.7 576.1,558.6 576.7,559.7 577.3,560.9 577.8,561.9 578.4,562.8 579.0,563.5 579.6,564.0 580.2,564.4 580.8,564.7 581.4,565.0 582.0,565.1 582.6,565.2 583.2,565.3 583.8,565.3 584.3,565.3 584.9,565.3 585.5,565.2 586.1,565.2 586.7,565.1 587.3,565.0 587.9,564.8 588.5,564.7 589.1,564.6 589.7,564.5 590.3,564.4 590.8,564.3 591.4,564.2 592.0,564.1 592.6,564.0 593.2,564.0 593.8,564.0 594.4,564.0 595.0,564.0 595.6,564.0 596.2,564.0 596.8,564.0 597.3,564.0 597.9,564.0 598.5,564.0 599.1,564.0 599.7,564.0 600.3,564.0 600.9,563.9 601.5,563.9 602.1,563.9 602.7,563.8 603.3,563.8 603.8,563.8 604.4,563.7 605.0,563.7 605.6,563.7 606.2,563.6 606.8,563.6 607.4,563.6 608.0,563.6 608.6,563.5 609.2,563.5 609.8,563.5 610.3,563.5 610.9,563.5 611.5,563.5 612.1,563.5 612.7,563.5 613.3,563.5 613.9,563.5 614.5,563.5 615.1,563.5 615.7,563.5 616.3,563.5 616.8,563.5 617.4,563.5 618.0,563.5 618.6,563.5 619.2,563.5 619.8,563.5 620.4,563.5 621.0,563.5 621.6,563.5 622.2,563.5 622.8,563.5 623.3,563.5 623.9,563.5 624.5,563.5 625.1,563.5 625.7,563.5 626.3,563.5 626.9,563.5 627.5,563.5 628.1,563.5 628.7,563.5 629.3,563.5 629.8,563.5 630.4,563.5 631.0,563.5 631.6,563.5 632.2,563.5 632.8,563.5 633.4,563.5 634.0,563.5 634.6,563.5 635.2,563.5 635.8,563.5 636.4,563.5 636.9,563.5 637.5,563.5 638.1,563.5 638.7,563.5 639.3,563.5 639.9,563.5 640.5,563.5 641.1,563.5 641.7,563.5 642.3,563.5 642.9,563.5 643.4,563.5 644.0,563.5 644.6,563.5 645.2,563.5 645.8,563.5 646.4,563.4 647.0,563.4 647.6,563.4 648.2,563.4 648.8,563.4 649.4,563.4 649.9,563.4 650.5,563.4 651.1,563.4 651.7,563.4 652.3,563.4 652.9,563.4 653.5,563.4 654.1,563.4 654.7,563.4 655.3,563.4 655.9,563.4 656.4,563.4 657.0,563.4 657.6,563.4 658.2,563.4 658.8,563.4 659.4,563.4 660.0,563.4 660.6,563.4 661.2,563.4 661.8,563.4 662.4,563.4 662.9,563.4 663.5,563.4 664.1,563.4 664.7,563.4 665.3,563.4 665.9,563.4 666.5,563.4 667.1,563.4 667.7,563.4 668.3,563.4 668.9,563.4 669.4,563.4 670.0,563.4 670.6,563.4 671.2,563.4 671.8,563.4 672.4,563.4 673.0,563.4 673.6,563.4 674.2,563.4 674.8,563.4 675.4,563.4 675.9,563.4 676.5,563.4 677.1,563.4 677.7,563.4 678.3,563.4 678.9,563.4 679.5,563.4 680.1,563.4 680.7,563.4 681.3,563.4 681.9,563.4 682.4,563.4 683.0,563.4 683.6,563.4 684.2,563.4 684.8,563.4 685.4,563.4 686.0,563.4 686.6,563.4 687.2,563.4 687.8,563.4 688.4,563.4 688.9,563.4 689.5,563.4 690.1,563.4 690.7,563.4 691.3,563.4 691.9,563.4 692.5,563.4 693.1,563.4 693.7,563.4 694.3,563.4 694.9,563.4 695.5,563.4 696.0,563.4 696.6,563.4 697.2,563.4 697.8,563.4 698.4,563.4 699.0,563.4 699.6,563.4 700.2,563.4 700.8,563.4 701.4,563.4 702.0,563.4 702.5,563.4 703.1,563.4 703.7,563.4 704.3,563.4 704.9,563.4 705.5,563.4 706.1,563.4 706.7,563.4 707.3,563.4 707.9,563.4 708.5,563.4 709.0,563.4 709.6,563.4 710.2,563.4 710.8,563.4 711.4,563.4 712.0,563.4 712.6,563.4 713.2,563.4 713.8,563.4 714.4,563.4 715.0,563.4 715.5,563.4 716.1,563.4 716.7,563.4 717.3,563.4 717.9,563.4 718.5,563.4 719.1,563.4 719.7,563.4 720.3,563.4 720.9,563.4 721.5,563.4 722.0,563.4 722.6,563.4" fill="none" stroke="#c96b17" stroke-width="2.2" stroke-linejoin="round" stroke-linecap="round"/>
<polyline points="735.0,563.4 735.6,563.4 736.2,563.4 736.8,563.4 737.4,563.4 738.0,563.4 738.6,563.4 739.2,563.4 739.8,563.4 740.4,563.4 741.0,563.4 741.5,563.4 742.1,563.4 742.7,563.4 743.3,563.4 743.9,563.4" fill="none" stroke="#c96b17" stroke-width="2.2" stroke-linejoin="round" stroke-linecap="round"/>
<polyline points="748.0,563.4 748.6,563.4 749.2,563.4 749.8,563.4 750.4,563.4 751.0,563.4 751.6,563.4 752.2,563.4 752.8,562.1 753.4,561.0 754.0,561.1 754.5,561.7 755.1,562.5 755.7,563.2 756.3,563.7 756.9,564.1 757.5,564.4 758.1,564.5 758.7,564.5 759.3,564.5 759.9,564.4 760.5,564.3 761.1,564.1 761.6,564.0 762.2,563.8 762.8,563.6 763.4,563.5 764.0,563.4 764.6,563.3 765.2,563.2 765.8,563.2 766.4,563.1 767.0,563.1 767.6,563.1 768.1,563.1 768.7,563.2 769.3,563.2 769.9,563.2 770.5,563.3 771.1,563.3 771.7,563.4 772.3,563.4 772.9,563.5 773.5,563.5 774.1,563.5 774.6,563.6 775.2,563.6 775.8,563.6 776.4,563.6 777.0,563.6 777.6,563.6 778.2,563.6 778.8,563.6 779.4,563.6 780.0,563.6 780.6,563.6 781.1,563.6 781.7,563.6 782.3,563.5 782.9,563.5 783.5,563.5 784.1,563.5 784.7,563.5 785.3,563.5 785.9,563.5 786.5,563.5 787.1,563.5 787.6,563.5 788.2,563.5 788.8,563.4 789.4,563.4 790.0,563.4 790.6,563.4 791.2,563.4 791.8,563.4 792.4,563.4 793.0,563.4 793.6,563.4 794.1,563.4 794.7,563.4 795.3,563.4 795.9,563.4 796.5,563.4 797.1,563.4 797.7,563.4 798.3,563.4 798.9,563.4 799.5,563.4 800.1,563.4 800.6,563.4 801.2,563.4 801.8,563.4 802.4,563.4 803.0,563.4 803.6,563.4 804.2,563.4 804.8,563.4 805.4,563.2 806.0,562.7 806.6,562.2 807.1,561.5 807.7,560.9 808.3,560.3 808.9,559.8 809.5,561.9 810.1,559.5 810.7,559.5 811.3,562.8 811.9,560.0 812.5,560.3 813.1,560.8 813.6,561.4 814.2,562.1 814.8,562.8 815.4,563.5 816.0,564.2 816.6,564.7 817.2,565.2 817.8,565.5 818.4,565.7 819.0,565.7 819.6,565.7 820.2,565.5 820.7,565.3 821.3,565.0 821.9,564.7 822.5,564.4 823.1,564.1 823.7,563.8 824.3,563.6 824.9,563.4 825.5,563.3 826.1,563.3 826.7,563.3 827.2,563.3 827.8,563.4 828.4,563.5" fill="none" stroke="#c96b17" stroke-width="2.2" stroke-linejoin="round" stroke-linecap="round"/>
<polyline points="830.2,565.1 830.8,564.4 831.4,564.3 832.0,564.3 832.6,564.3 833.2,564.3 833.7,564.3 834.3,564.3 834.9,564.2 835.5,564.2 836.1,564.1 836.7,564.1 837.3,564.0 837.9,563.9 838.5,563.9 839.1,563.8 839.7,563.7 840.2,563.7 840.8,563.6 841.4,563.5 842.0,563.5 842.6,563.5 843.2,563.5 843.8,563.5 844.4,563.4 845.0,563.4 845.6,563.4 846.2,563.4 846.7,563.4 847.3,563.4 847.9,556.2 848.5,551.3 849.1,556.8 849.7,563.1 850.3,566.7 850.9,567.9 851.5,567.8 852.1,567.1 852.7,566.2 853.2,565.4 853.8,564.6" fill="none" stroke="#c96b17" stroke-width="2.2" stroke-linejoin="round" stroke-linecap="round"/>
<polyline points="856.2,563.3 856.8,563.2 857.4,563.0 858.0,562.8 858.6,563.2 859.2,562.8 859.7,562.6 860.3,564.5 860.9,562.8 861.5,562.9 862.1,563.0 862.7,563.1 863.3,563.3 863.9,563.5 864.5,563.6 865.1,563.8 865.7,563.9 866.2,564.0 866.8,564.0 867.4,564.0 868.0,564.0 868.6,564.0 869.2,563.9 869.8,563.8 870.4,563.8 871.0,563.7 871.6,563.6 872.2,563.5 872.7,563.4 873.3,555.4 873.9,528.8 874.5,536.7 875.1,558.1 875.7,572.1 876.3,577.1 876.9,576.9 877.5,574.5 878.1,571.6 878.7,568.9 879.2,566.7 879.8,565.1" fill="none" stroke="#c96b17" stroke-width="2.2" stroke-linejoin="round" stroke-linecap="round"/>
<polyline points="882.8,563.6 883.4,563.4 884.0,563.1 884.6,563.2 885.2,562.7 885.8,562.4 886.3,564.5 886.9,562.8 887.5,562.6 888.1,562.7 888.7,562.9 889.3,563.1 889.9,563.4 890.5,563.6 891.1,563.9 891.7,564.2 892.3,564.4 892.8,564.5 893.4,564.7 894.0,564.7 894.6,564.7 895.2,564.7 895.8,564.6 896.4,564.5 897.0,564.3 897.6,564.1 898.2,563.9 898.8,563.7 899.3,563.6" fill="none" stroke="#c96b17" stroke-width="2.2" stroke-linejoin="round" stroke-linecap="round"/>
<polyline points="901.7,562.9 902.3,559.4 902.9,560.0 903.5,560.7 904.1,563.2 904.7,564.8 905.3,565.5 905.8,565.7 906.4,565.6 907.0,565.4 907.6,565.1 908.2,564.8 908.8,564.5 909.4,564.2 910.0,563.7 910.6,563.6 911.2,563.7" fill="none" stroke="#c96b17" stroke-width="2.2" stroke-linejoin="round" stroke-linecap="round"/>
<polyline points="913.5,563.4 914.1,563.7 914.7,563.3 915.3,563.6 915.9,563.6 916.5,563.4 917.1,563.4 917.7,563.3 918.3,563.2 918.8,563.3 919.4,563.3 920.0,563.2 920.6,563.1 921.2,563.1 921.8,563.1 922.4,563.0 923.0,563.0 923.6,563.0 924.2,559.0 924.8,530.0 925.3,524.9 925.9,544.3 926.5,563.1 927.1,573.8 927.7,577.9 928.3,578.4 928.9,577.1 929.5,575.1 930.1,573.1 930.7,571.1 931.3,569.3 931.8,567.7 932.4,566.2 933.0,564.9 933.6,563.7 934.2,562.6 934.8,561.6 935.4,560.7 936.0,560.1 936.6,559.6 937.2,559.4 937.8,562.1 938.3,563.0 938.9,560.5 939.5,561.0 940.1,561.7 940.7,562.4 941.3,563.2 941.9,563.9 942.5,564.5 943.1,565.0 943.7,565.4 944.3,565.6 944.8,565.7 945.4,565.6 946.0,565.4 946.6,565.2 947.2,564.9 947.8,564.6 948.4,564.3 949.0,564.0 949.6,563.8 950.2,563.2 950.8,563.4 951.4,563.7 951.9,564.4 952.5,563.7 953.1,563.7 953.7,563.8 954.3,563.8 954.9,563.9 955.5,563.9 956.1,564.0 956.7,564.0 957.3,564.0 957.9,564.0 958.4,564.0 959.0,564.0 959.6,563.9 960.2,563.9 960.8,563.8 961.4,563.8 962.0,563.7 962.6,563.6 963.2,563.6 963.8,563.5 964.4,563.5 964.9,563.4 965.5,563.4 966.1,561.9 966.7,559.0 967.3,555.3 967.9,557.5 968.5,560.8 969.1,563.4 969.7,565.2 970.3,566.3 970.9,566.7 971.4,566.7 972.0,566.4 972.6,565.9 973.2,565.2 973.8,564.6" fill="none" stroke="#c96b17" stroke-width="2.2" stroke-linejoin="round" stroke-linecap="round"/>
<polyline points="976.2,563.1 976.8,509.6 977.4,465.6 977.9,508.0 978.5,557.7 979.1,585.5 979.7,594.6 980.3,593.8 980.9,588.9 981.5,583.4 982.1,578.5 982.7,574.7 983.3,571.9 983.9,569.9 984.4,568.4 985.0,567.1 985.6,565.9 986.2,564.8 986.8,563.8 987.4,562.8 988.0,561.8 988.6,561.0 989.2,562.6 989.8,560.5 990.4,564.9 990.9,560.7 991.5,561.1 992.1,561.7 992.7,562.5 993.3,563.5 993.9,564.4 994.5,565.4 995.1,566.2 995.7,566.9 996.3,567.3 996.9,567.6 997.4,567.6 998.0,567.5 998.6,567.2 999.2,566.7 999.8,566.2 1000.4,565.6 1001.0,565.0 1001.6,564.5 1002.2,564.0" fill="none" stroke="#c96b17" stroke-width="2.2" stroke-linejoin="round" stroke-linecap="round"/>
<polyline points="1003.9,556.8 1004.5,558.9 1005.1,563.2 1005.7,565.7 1006.3,566.6 1006.9,566.8 1007.5,566.5 1008.1,566.0 1008.7,565.5 1009.3,565.1 1009.9,564.6 1010.5,564.2 1011.0,563.9 1011.6,563.6 1012.2,563.4" fill="none" stroke="#c96b17" stroke-width="2.2" stroke-linejoin="round" stroke-linecap="round"/>
<polyline points="1015.8,563.5 1016.4,563.1 1017.0,561.6 1017.5,561.8 1018.1,562.5 1018.7,563.2 1019.3,563.6 1019.9,563.9 1020.5,564.1 1021.1,564.2 1021.7,564.2 1022.3,564.2 1022.9,564.2 1023.5,564.1 1024.0,564.0 1024.6,563.9 1025.2,563.8 1025.8,563.7 1026.4,563.6 1027.0,563.5" fill="none" stroke="#c96b17" stroke-width="2.2" stroke-linejoin="round" stroke-linecap="round"/>
<polyline points="1029.4,563.3 1030.0,515.5 1030.5,467.6 1031.1,501.6 1031.7,547.6 1032.3,576.1 1032.9,588.0 1033.5,590.3 1034.1,588.4 1034.7,585.2 1035.3,582.1 1035.9,579.6 1036.5,577.5 1037.0,575.9 1037.6,574.4 1038.2,573.0 1038.8,571.5 1039.4,569.9 1040.0,568.1" fill="none" stroke="#c96b17" stroke-width="2.2" stroke-linejoin="round" stroke-linecap="round"/>
<circle cx="96.2" cy="563.3" r="2.1" fill="#b3261e" opacity="0.8"/>
<circle cx="96.8" cy="562.9" r="2.1" fill="#b3261e" opacity="0.8"/>
<circle cx="97.4" cy="563.0" r="2.1" fill="#b3261e" opacity="0.8"/>
<circle cx="98.0" cy="563.1" r="2.1" fill="#b3261e" opacity="0.8"/>
<circle cx="98.5" cy="562.8" r="2.1" fill="#b3261e" opacity="0.8"/>
<circle cx="99.1" cy="562.8" r="2.1" fill="#b3261e" opacity="0.8"/>
<circle cx="99.7" cy="562.9" r="2.1" fill="#b3261e" opacity="0.8"/>
<circle cx="100.3" cy="563.0" r="2.1" fill="#b3261e" opacity="0.8"/>
<circle cx="100.9" cy="563.1" r="2.1" fill="#b3261e" opacity="0.8"/>
<circle cx="101.5" cy="563.2" r="2.1" fill="#b3261e" opacity="0.8"/>
<circle cx="102.1" cy="563.3" r="2.1" fill="#b3261e" opacity="0.8"/>
<circle cx="102.7" cy="563.4" r="2.1" fill="#b3261e" opacity="0.8"/>
<circle cx="228.6" cy="563.4" r="2.1" fill="#b3261e" opacity="0.8"/>
<circle cx="229.2" cy="563.4" r="2.1" fill="#b3261e" opacity="0.8"/>
<circle cx="233.3" cy="563.4" r="2.1" fill="#b3261e" opacity="0.8"/>
<circle cx="233.9" cy="563.4" r="2.1" fill="#b3261e" opacity="0.8"/>
<circle cx="234.5" cy="563.4" r="2.1" fill="#b3261e" opacity="0.8"/>
<circle cx="235.1" cy="563.2" r="2.1" fill="#b3261e" opacity="0.8"/>
<circle cx="235.7" cy="563.2" r="2.1" fill="#b3261e" opacity="0.8"/>
<circle cx="236.2" cy="563.4" r="2.1" fill="#b3261e" opacity="0.8"/>
<circle cx="240.4" cy="563.4" r="2.1" fill="#b3261e" opacity="0.8"/>
<circle cx="241.0" cy="563.1" r="2.1" fill="#b3261e" opacity="0.8"/>
<circle cx="241.6" cy="545.0" r="2.1" fill="#b3261e" opacity="0.8"/>
<circle cx="242.2" cy="535.0" r="2.1" fill="#b3261e" opacity="0.8"/>
<circle cx="242.7" cy="545.9" r="2.1" fill="#b3261e" opacity="0.8"/>
<circle cx="243.3" cy="559.3" r="2.1" fill="#b3261e" opacity="0.8"/>
<circle cx="251.0" cy="560.6" r="2.1" fill="#b3261e" opacity="0.8"/>
<circle cx="251.6" cy="534.1" r="2.1" fill="#b3261e" opacity="0.8"/>
<circle cx="252.2" cy="513.6" r="2.1" fill="#b3261e" opacity="0.8"/>
<circle cx="252.8" cy="522.7" r="2.1" fill="#b3261e" opacity="0.8"/>
<circle cx="253.4" cy="540.4" r="2.1" fill="#b3261e" opacity="0.8"/>
<circle cx="254.0" cy="555.8" r="2.1" fill="#b3261e" opacity="0.8"/>
<circle cx="267.0" cy="563.0" r="2.1" fill="#b3261e" opacity="0.8"/>
<circle cx="267.6" cy="561.9" r="2.1" fill="#b3261e" opacity="0.8"/>
<circle cx="268.2" cy="560.8" r="2.1" fill="#b3261e" opacity="0.8"/>
<circle cx="268.8" cy="559.9" r="2.1" fill="#b3261e" opacity="0.8"/>
<circle cx="269.3" cy="559.2" r="2.1" fill="#b3261e" opacity="0.8"/>
<circle cx="269.9" cy="558.7" r="2.1" fill="#b3261e" opacity="0.8"/>
<circle cx="270.5" cy="558.5" r="2.1" fill="#b3261e" opacity="0.8"/>
<circle cx="271.1" cy="558.6" r="2.1" fill="#b3261e" opacity="0.8"/>
<circle cx="271.7" cy="559.1" r="2.1" fill="#b3261e" opacity="0.8"/>
<circle cx="272.3" cy="559.8" r="2.1" fill="#b3261e" opacity="0.8"/>
<circle cx="272.9" cy="560.7" r="2.1" fill="#b3261e" opacity="0.8"/>
<circle cx="286.5" cy="563.4" r="2.1" fill="#b3261e" opacity="0.8"/>
<circle cx="287.1" cy="563.3" r="2.1" fill="#b3261e" opacity="0.8"/>
<circle cx="287.7" cy="563.2" r="2.1" fill="#b3261e" opacity="0.8"/>
<circle cx="288.3" cy="563.2" r="2.1" fill="#b3261e" opacity="0.8"/>
<circle cx="288.8" cy="563.1" r="2.1" fill="#b3261e" opacity="0.8"/>
<circle cx="289.4" cy="560.6" r="2.1" fill="#b3261e" opacity="0.8"/>
<circle cx="290.0" cy="558.8" r="2.1" fill="#b3261e" opacity="0.8"/>
<circle cx="290.6" cy="554.8" r="2.1" fill="#b3261e" opacity="0.8"/>
<circle cx="291.2" cy="556.3" r="2.1" fill="#b3261e" opacity="0.8"/>
<circle cx="291.8" cy="559.2" r="2.1" fill="#b3261e" opacity="0.8"/>
<circle cx="292.4" cy="562.2" r="2.1" fill="#b3261e" opacity="0.8"/>
<circle cx="299.5" cy="563.3" r="2.1" fill="#b3261e" opacity="0.8"/>
<circle cx="300.1" cy="562.9" r="2.1" fill="#b3261e" opacity="0.8"/>
<circle cx="300.7" cy="563.2" r="2.1" fill="#b3261e" opacity="0.8"/>
<circle cx="301.3" cy="562.8" r="2.1" fill="#b3261e" opacity="0.8"/>
<circle cx="301.8" cy="562.6" r="2.1" fill="#b3261e" opacity="0.8"/>
<circle cx="302.4" cy="563.1" r="2.1" fill="#b3261e" opacity="0.8"/>
<circle cx="303.0" cy="563.2" r="2.1" fill="#b3261e" opacity="0.8"/>
<circle cx="303.6" cy="562.8" r="2.1" fill="#b3261e" opacity="0.8"/>
<circle cx="304.2" cy="562.9" r="2.1" fill="#b3261e" opacity="0.8"/>
<circle cx="304.8" cy="563.0" r="2.1" fill="#b3261e" opacity="0.8"/>
<circle cx="305.4" cy="563.0" r="2.1" fill="#b3261e" opacity="0.8"/>
<circle cx="306.0" cy="563.1" r="2.1" fill="#b3261e" opacity="0.8"/>
<circle cx="306.6" cy="563.2" r="2.1" fill="#b3261e" opacity="0.8"/>
<circle cx="307.2" cy="563.3" r="2.1" fill="#b3261e" opacity="0.8"/>
<circle cx="307.8" cy="563.3" r="2.1" fill="#b3261e" opacity="0.8"/>
<circle cx="308.3" cy="563.4" r="2.1" fill="#b3261e" opacity="0.8"/>
<circle cx="331.4" cy="563.2" r="2.1" fill="#b3261e" opacity="0.8"/>
<circle cx="332.6" cy="563.2" r="2.1" fill="#b3261e" opacity="0.8"/>
<circle cx="333.2" cy="562.8" r="2.1" fill="#b3261e" opacity="0.8"/>
<circle cx="333.8" cy="562.2" r="2.1" fill="#b3261e" opacity="0.8"/>
<circle cx="334.4" cy="561.6" r="2.1" fill="#b3261e" opacity="0.8"/>
<circle cx="334.9" cy="561.0" r="2.1" fill="#b3261e" opacity="0.8"/>
<circle cx="335.5" cy="560.5" r="2.1" fill="#b3261e" opacity="0.8"/>
<circle cx="336.1" cy="561.0" r="2.1" fill="#b3261e" opacity="0.8"/>
<circle cx="336.7" cy="561.2" r="2.1" fill="#b3261e" opacity="0.8"/>
<circle cx="337.3" cy="559.9" r="2.1" fill="#b3261e" opacity="0.8"/>
<circle cx="337.9" cy="562.6" r="2.1" fill="#b3261e" opacity="0.8"/>
<circle cx="338.5" cy="560.3" r="2.1" fill="#b3261e" opacity="0.8"/>
<circle cx="339.1" cy="560.3" r="2.1" fill="#b3261e" opacity="0.8"/>
<circle cx="339.7" cy="560.7" r="2.1" fill="#b3261e" opacity="0.8"/>
<circle cx="340.3" cy="561.1" r="2.1" fill="#b3261e" opacity="0.8"/>
<circle cx="340.9" cy="561.7" r="2.1" fill="#b3261e" opacity="0.8"/>
<circle cx="341.4" cy="562.3" r="2.1" fill="#b3261e" opacity="0.8"/>
<circle cx="342.0" cy="562.9" r="2.1" fill="#b3261e" opacity="0.8"/>
<circle cx="352.1" cy="563.4" r="2.1" fill="#b3261e" opacity="0.8"/>
<circle cx="352.7" cy="563.3" r="2.1" fill="#b3261e" opacity="0.8"/>
<circle cx="353.3" cy="563.2" r="2.1" fill="#b3261e" opacity="0.8"/>
<circle cx="353.9" cy="563.2" r="2.1" fill="#b3261e" opacity="0.8"/>
<circle cx="354.4" cy="563.2" r="2.1" fill="#b3261e" opacity="0.8"/>
<circle cx="355.0" cy="563.3" r="2.1" fill="#b3261e" opacity="0.8"/>
<circle cx="355.6" cy="563.4" r="2.1" fill="#b3261e" opacity="0.8"/>
<circle cx="371.6" cy="563.4" r="2.1" fill="#b3261e" opacity="0.8"/>
<circle cx="372.2" cy="563.4" r="2.1" fill="#b3261e" opacity="0.8"/>
<circle cx="372.8" cy="563.4" r="2.1" fill="#b3261e" opacity="0.8"/>
<circle cx="373.4" cy="563.4" r="2.1" fill="#b3261e" opacity="0.8"/>
<circle cx="373.9" cy="562.7" r="2.1" fill="#b3261e" opacity="0.8"/>
<circle cx="374.5" cy="550.4" r="2.1" fill="#b3261e" opacity="0.8"/>
<circle cx="375.1" cy="547.4" r="2.1" fill="#b3261e" opacity="0.8"/>
<circle cx="375.7" cy="555.8" r="2.1" fill="#b3261e" opacity="0.8"/>
<circle cx="382.2" cy="563.3" r="2.1" fill="#b3261e" opacity="0.8"/>
<circle cx="382.8" cy="554.8" r="2.1" fill="#b3261e" opacity="0.8"/>
<circle cx="383.4" cy="549.6" r="2.1" fill="#b3261e" opacity="0.8"/>
<circle cx="384.0" cy="548.7" r="2.1" fill="#b3261e" opacity="0.8"/>
<circle cx="384.6" cy="553.9" r="2.1" fill="#b3261e" opacity="0.8"/>
<circle cx="385.2" cy="558.7" r="2.1" fill="#b3261e" opacity="0.8"/>
<circle cx="385.8" cy="562.4" r="2.1" fill="#b3261e" opacity="0.8"/>
<circle cx="396.4" cy="563.0" r="2.1" fill="#b3261e" opacity="0.8"/>
<circle cx="397.0" cy="504.0" r="2.1" fill="#b3261e" opacity="0.8"/>
<circle cx="397.6" cy="457.1" r="2.1" fill="#b3261e" opacity="0.8"/>
<circle cx="398.2" cy="502.8" r="2.1" fill="#b3261e" opacity="0.8"/>
<circle cx="398.8" cy="557.3" r="2.1" fill="#b3261e" opacity="0.8"/>
<circle cx="407.6" cy="562.8" r="2.1" fill="#b3261e" opacity="0.8"/>
<circle cx="408.2" cy="561.8" r="2.1" fill="#b3261e" opacity="0.8"/>
<circle cx="408.8" cy="560.9" r="2.1" fill="#b3261e" opacity="0.8"/>
<circle cx="409.4" cy="560.2" r="2.1" fill="#b3261e" opacity="0.8"/>
<circle cx="410.0" cy="562.0" r="2.1" fill="#b3261e" opacity="0.8"/>
<circle cx="410.6" cy="561.8" r="2.1" fill="#b3261e" opacity="0.8"/>
<circle cx="411.2" cy="562.2" r="2.1" fill="#b3261e" opacity="0.8"/>
<circle cx="411.8" cy="560.5" r="2.1" fill="#b3261e" opacity="0.8"/>
<circle cx="412.4" cy="560.9" r="2.1" fill="#b3261e" opacity="0.8"/>
<circle cx="413.0" cy="561.6" r="2.1" fill="#b3261e" opacity="0.8"/>
<circle cx="413.5" cy="562.4" r="2.1" fill="#b3261e" opacity="0.8"/>
<circle cx="414.1" cy="563.2" r="2.1" fill="#b3261e" opacity="0.8"/>
<circle cx="423.6" cy="563.4" r="2.1" fill="#b3261e" opacity="0.8"/>
<circle cx="424.2" cy="558.1" r="2.1" fill="#b3261e" opacity="0.8"/>
<circle cx="424.8" cy="550.1" r="2.1" fill="#b3261e" opacity="0.8"/>
<circle cx="425.4" cy="554.8" r="2.1" fill="#b3261e" opacity="0.8"/>
<circle cx="426.0" cy="561.8" r="2.1" fill="#b3261e" opacity="0.8"/>
<circle cx="434.8" cy="563.3" r="2.1" fill="#b3261e" opacity="0.8"/>
<circle cx="435.4" cy="555.9" r="2.1" fill="#b3261e" opacity="0.8"/>
<circle cx="436.0" cy="546.0" r="2.1" fill="#b3261e" opacity="0.8"/>
<circle cx="436.6" cy="548.1" r="2.1" fill="#b3261e" opacity="0.8"/>
<circle cx="437.2" cy="554.4" r="2.1" fill="#b3261e" opacity="0.8"/>
<circle cx="437.8" cy="560.3" r="2.1" fill="#b3261e" opacity="0.8"/>
<circle cx="447.2" cy="563.0" r="2.1" fill="#b3261e" opacity="0.8"/>
<circle cx="447.8" cy="531.9" r="2.1" fill="#b3261e" opacity="0.8"/>
<circle cx="448.4" cy="508.3" r="2.1" fill="#b3261e" opacity="0.8"/>
<circle cx="449.0" cy="530.5" r="2.1" fill="#b3261e" opacity="0.8"/>
<circle cx="449.6" cy="558.0" r="2.1" fill="#b3261e" opacity="0.8"/>
<circle cx="458.5" cy="563.0" r="2.1" fill="#b3261e" opacity="0.8"/>
<circle cx="459.1" cy="562.6" r="2.1" fill="#b3261e" opacity="0.8"/>
<circle cx="459.6" cy="563.1" r="2.1" fill="#b3261e" opacity="0.8"/>
<circle cx="460.2" cy="562.5" r="2.1" fill="#b3261e" opacity="0.8"/>
<circle cx="461.4" cy="563.1" r="2.1" fill="#b3261e" opacity="0.8"/>
<circle cx="462.0" cy="562.6" r="2.1" fill="#b3261e" opacity="0.8"/>
<circle cx="462.6" cy="562.8" r="2.1" fill="#b3261e" opacity="0.8"/>
<circle cx="463.2" cy="563.0" r="2.1" fill="#b3261e" opacity="0.8"/>
<circle cx="463.8" cy="563.3" r="2.1" fill="#b3261e" opacity="0.8"/>
<circle cx="474.4" cy="559.2" r="2.1" fill="#b3261e" opacity="0.8"/>
<circle cx="475.0" cy="560.5" r="2.1" fill="#b3261e" opacity="0.8"/>
<circle cx="482.1" cy="563.3" r="2.1" fill="#b3261e" opacity="0.8"/>
<circle cx="486.2" cy="552.1" r="2.1" fill="#b3261e" opacity="0.8"/>
<circle cx="486.8" cy="542.7" r="2.1" fill="#b3261e" opacity="0.8"/>
<circle cx="487.4" cy="553.2" r="2.1" fill="#b3261e" opacity="0.8"/>
<circle cx="496.9" cy="562.4" r="2.1" fill="#b3261e" opacity="0.8"/>
<circle cx="497.5" cy="478.0" r="2.1" fill="#b3261e" opacity="0.8"/>
<circle cx="498.1" cy="420.2" r="2.1" fill="#b3261e" opacity="0.8"/>
<circle cx="498.6" cy="480.5" r="2.1" fill="#b3261e" opacity="0.8"/>
<circle cx="499.2" cy="551.5" r="2.1" fill="#b3261e" opacity="0.8"/>
<circle cx="508.7" cy="563.2" r="2.1" fill="#b3261e" opacity="0.8"/>
<circle cx="509.3" cy="561.0" r="2.1" fill="#b3261e" opacity="0.8"/>
<circle cx="509.9" cy="558.9" r="2.1" fill="#b3261e" opacity="0.8"/>
<circle cx="510.5" cy="557.1" r="2.1" fill="#b3261e" opacity="0.8"/>
<circle cx="511.1" cy="555.6" r="2.1" fill="#b3261e" opacity="0.8"/>
<circle cx="511.7" cy="554.7" r="2.1" fill="#b3261e" opacity="0.8"/>
<circle cx="512.2" cy="559.6" r="2.1" fill="#b3261e" opacity="0.8"/>
<circle cx="512.8" cy="558.5" r="2.1" fill="#b3261e" opacity="0.8"/>
<circle cx="513.4" cy="556.1" r="2.1" fill="#b3261e" opacity="0.8"/>
<circle cx="514.0" cy="557.5" r="2.1" fill="#b3261e" opacity="0.8"/>
<circle cx="514.6" cy="559.2" r="2.1" fill="#b3261e" opacity="0.8"/>
<circle cx="515.2" cy="561.3" r="2.1" fill="#b3261e" opacity="0.8"/>
<circle cx="515.8" cy="563.4" r="2.1" fill="#b3261e" opacity="0.8"/>
<circle cx="524.7" cy="563.3" r="2.1" fill="#b3261e" opacity="0.8"/>
<circle cx="525.2" cy="562.9" r="2.1" fill="#b3261e" opacity="0.8"/>
<circle cx="525.8" cy="563.3" r="2.1" fill="#b3261e" opacity="0.8"/>
<circle cx="527.0" cy="563.4" r="2.1" fill="#b3261e" opacity="0.8"/>
<circle cx="540.6" cy="553.7" r="2.1" fill="#b3261e" opacity="0.8"/>
<circle cx="541.2" cy="558.5" r="2.1" fill="#b3261e" opacity="0.8"/>
<circle cx="545.9" cy="563.3" r="2.1" fill="#b3261e" opacity="0.8"/>
<circle cx="548.3" cy="562.1" r="2.1" fill="#b3261e" opacity="0.8"/>
<circle cx="548.9" cy="517.9" r="2.1" fill="#b3261e" opacity="0.8"/>
<circle cx="549.5" cy="483.5" r="2.1" fill="#b3261e" opacity="0.8"/>
<circle cx="550.1" cy="505.1" r="2.1" fill="#b3261e" opacity="0.8"/>
<circle cx="550.7" cy="539.5" r="2.1" fill="#b3261e" opacity="0.8"/>
<circle cx="560.1" cy="562.7" r="2.1" fill="#b3261e" opacity="0.8"/>
<circle cx="560.7" cy="559.4" r="2.1" fill="#b3261e" opacity="0.8"/>
<circle cx="561.3" cy="556.2" r="2.1" fill="#b3261e" opacity="0.8"/>
<circle cx="561.9" cy="553.3" r="2.1" fill="#b3261e" opacity="0.8"/>
<circle cx="562.5" cy="551.0" r="2.1" fill="#b3261e" opacity="0.8"/>
<circle cx="563.1" cy="549.5" r="2.1" fill="#b3261e" opacity="0.8"/>
<circle cx="563.7" cy="549.3" r="2.1" fill="#b3261e" opacity="0.8"/>
<circle cx="564.2" cy="560.8" r="2.1" fill="#b3261e" opacity="0.8"/>
<circle cx="564.8" cy="552.7" r="2.1" fill="#b3261e" opacity="0.8"/>
<circle cx="565.4" cy="555.2" r="2.1" fill="#b3261e" opacity="0.8"/>
<circle cx="566.0" cy="558.5" r="2.1" fill="#b3261e" opacity="0.8"/>
<circle cx="566.6" cy="562.0" r="2.1" fill="#b3261e" opacity="0.8"/>
<circle cx="572.5" cy="562.7" r="2.1" fill="#b3261e" opacity="0.8"/>
<circle cx="573.1" cy="560.1" r="2.1" fill="#b3261e" opacity="0.8"/>
<circle cx="573.7" cy="557.8" r="2.1" fill="#b3261e" opacity="0.8"/>
<circle cx="574.3" cy="560.0" r="2.1" fill="#b3261e" opacity="0.8"/>
<circle cx="574.9" cy="557.2" r="2.1" fill="#b3261e" opacity="0.8"/>
<circle cx="575.5" cy="557.7" r="2.1" fill="#b3261e" opacity="0.8"/>
<circle cx="576.1" cy="558.6" r="2.1" fill="#b3261e" opacity="0.8"/>
<circle cx="576.7" cy="559.7" r="2.1" fill="#b3261e" opacity="0.8"/>
<circle cx="577.3" cy="560.9" r="2.1" fill="#b3261e" opacity="0.8"/>
<circle cx="577.8" cy="561.9" r="2.1" fill="#b3261e" opacity="0.8"/>
<circle cx="578.4" cy="562.8" r="2.1" fill="#b3261e" opacity="0.8"/>
<circle cx="750.4" cy="563.4" r="2.1" fill="#b3261e" opacity="0.8"/>
<circle cx="751.0" cy="563.4" r="2.1" fill="#b3261e" opacity="0.8"/>
<circle cx="751.6" cy="563.4" r="2.1" fill="#b3261e" opacity="0.8"/>
<circle cx="752.2" cy="563.4" r="2.1" fill="#b3261e" opacity="0.8"/>
<circle cx="752.8" cy="562.1" r="2.1" fill="#b3261e" opacity="0.8"/>
<circle cx="753.4" cy="561.0" r="2.1" fill="#b3261e" opacity="0.8"/>
<circle cx="754.0" cy="561.1" r="2.1" fill="#b3261e" opacity="0.8"/>
<circle cx="754.5" cy="561.7" r="2.1" fill="#b3261e" opacity="0.8"/>
<circle cx="755.1" cy="562.5" r="2.1" fill="#b3261e" opacity="0.8"/>
<circle cx="755.7" cy="563.2" r="2.1" fill="#b3261e" opacity="0.8"/>
<circle cx="764.0" cy="563.4" r="2.1" fill="#b3261e" opacity="0.8"/>
<circle cx="764.6" cy="563.3" r="2.1" fill="#b3261e" opacity="0.8"/>
<circle cx="765.2" cy="563.2" r="2.1" fill="#b3261e" opacity="0.8"/>
<circle cx="765.8" cy="563.2" r="2.1" fill="#b3261e" opacity="0.8"/>
<circle cx="766.4" cy="563.1" r="2.1" fill="#b3261e" opacity="0.8"/>
<circle cx="767.0" cy="563.1" r="2.1" fill="#b3261e" opacity="0.8"/>
<circle cx="767.6" cy="563.1" r="2.1" fill="#b3261e" opacity="0.8"/>
<circle cx="768.1" cy="563.1" r="2.1" fill="#b3261e" opacity="0.8"/>
<circle cx="768.7" cy="563.2" r="2.1" fill="#b3261e" opacity="0.8"/>
<circle cx="769.3" cy="563.2" r="2.1" fill="#b3261e" opacity="0.8"/>
<circle cx="769.9" cy="563.2" r="2.1" fill="#b3261e" opacity="0.8"/>
<circle cx="770.5" cy="563.3" r="2.1" fill="#b3261e" opacity="0.8"/>
<circle cx="771.1" cy="563.3" r="2.1" fill="#b3261e" opacity="0.8"/>
<circle cx="771.7" cy="563.4" r="2.1" fill="#b3261e" opacity="0.8"/>
<circle cx="772.3" cy="563.4" r="2.1" fill="#b3261e" opacity="0.8"/>
<circle cx="791.2" cy="563.4" r="2.1" fill="#b3261e" opacity="0.8"/>
<circle cx="791.8" cy="563.4" r="2.1" fill="#b3261e" opacity="0.8"/>
<circle cx="792.4" cy="563.4" r="2.1" fill="#b3261e" opacity="0.8"/>
<circle cx="793.0" cy="563.4" r="2.1" fill="#b3261e" opacity="0.8"/>
<circle cx="793.6" cy="563.4" r="2.1" fill="#b3261e" opacity="0.8"/>
<circle cx="794.1" cy="563.4" r="2.1" fill="#b3261e" opacity="0.8"/>
<circle cx="794.7" cy="563.4" r="2.1" fill="#b3261e" opacity="0.8"/>
<circle cx="795.3" cy="563.4" r="2.1" fill="#b3261e" opacity="0.8"/>
<circle cx="795.9" cy="563.4" r="2.1" fill="#b3261e" opacity="0.8"/>
<circle cx="796.5" cy="563.4" r="2.1" fill="#b3261e" opacity="0.8"/>
<circle cx="797.1" cy="563.4" r="2.1" fill="#b3261e" opacity="0.8"/>
<circle cx="797.7" cy="563.4" r="2.1" fill="#b3261e" opacity="0.8"/>
<circle cx="798.3" cy="563.4" r="2.1" fill="#b3261e" opacity="0.8"/>
<circle cx="798.9" cy="563.4" r="2.1" fill="#b3261e" opacity="0.8"/>
<circle cx="799.5" cy="563.4" r="2.1" fill="#b3261e" opacity="0.8"/>
<circle cx="800.1" cy="563.4" r="2.1" fill="#b3261e" opacity="0.8"/>
<circle cx="800.6" cy="563.4" r="2.1" fill="#b3261e" opacity="0.8"/>
<circle cx="801.2" cy="563.4" r="2.1" fill="#b3261e" opacity="0.8"/>
<circle cx="801.8" cy="563.4" r="2.1" fill="#b3261e" opacity="0.8"/>
<circle cx="802.4" cy="563.4" r="2.1" fill="#b3261e" opacity="0.8"/>
<circle cx="803.0" cy="563.4" r="2.1" fill="#b3261e" opacity="0.8"/>
<circle cx="803.6" cy="563.4" r="2.1" fill="#b3261e" opacity="0.8"/>
<circle cx="805.4" cy="563.2" r="2.1" fill="#b3261e" opacity="0.8"/>
<circle cx="806.0" cy="562.7" r="2.1" fill="#b3261e" opacity="0.8"/>
<circle cx="806.6" cy="562.2" r="2.1" fill="#b3261e" opacity="0.8"/>
<circle cx="807.1" cy="561.5" r="2.1" fill="#b3261e" opacity="0.8"/>
<circle cx="807.7" cy="560.9" r="2.1" fill="#b3261e" opacity="0.8"/>
<circle cx="808.3" cy="560.3" r="2.1" fill="#b3261e" opacity="0.8"/>
<circle cx="808.9" cy="559.8" r="2.1" fill="#b3261e" opacity="0.8"/>
<circle cx="809.5" cy="561.9" r="2.1" fill="#b3261e" opacity="0.8"/>
<circle cx="810.1" cy="559.5" r="2.1" fill="#b3261e" opacity="0.8"/>
<circle cx="810.7" cy="559.5" r="2.1" fill="#b3261e" opacity="0.8"/>
<circle cx="811.3" cy="562.8" r="2.1" fill="#b3261e" opacity="0.8"/>
<circle cx="811.9" cy="560.0" r="2.1" fill="#b3261e" opacity="0.8"/>
<circle cx="812.5" cy="560.3" r="2.1" fill="#b3261e" opacity="0.8"/>
<circle cx="813.1" cy="560.8" r="2.1" fill="#b3261e" opacity="0.8"/>
<circle cx="813.6" cy="561.4" r="2.1" fill="#b3261e" opacity="0.8"/>
<circle cx="814.2" cy="562.1" r="2.1" fill="#b3261e" opacity="0.8"/>
<circle cx="814.8" cy="562.8" r="2.1" fill="#b3261e" opacity="0.8"/>
<circle cx="824.9" cy="563.4" r="2.1" fill="#b3261e" opacity="0.8"/>
<circle cx="825.5" cy="563.3" r="2.1" fill="#b3261e" opacity="0.8"/>
<circle cx="826.1" cy="563.3" r="2.1" fill="#b3261e" opacity="0.8"/>
<circle cx="826.7" cy="563.3" r="2.1" fill="#b3261e" opacity="0.8"/>
<circle cx="827.2" cy="563.3" r="2.1" fill="#b3261e" opacity="0.8"/>
<circle cx="827.8" cy="563.4" r="2.1" fill="#b3261e" opacity="0.8"/>
<circle cx="845.0" cy="563.4" r="2.1" fill="#b3261e" opacity="0.8"/>
<circle cx="845.6" cy="563.4" r="2.1" fill="#b3261e" opacity="0.8"/>
<circle cx="846.2" cy="563.4" r="2.1" fill="#b3261e" opacity="0.8"/>
<circle cx="846.7" cy="563.4" r="2.1" fill="#b3261e" opacity="0.8"/>
<circle cx="847.3" cy="563.4" r="2.1" fill="#b3261e" opacity="0.8"/>
<circle cx="847.9" cy="556.2" r="2.1" fill="#b3261e" opacity="0.8"/>
<circle cx="848.5" cy="551.3" r="2.1" fill="#b3261e" opacity="0.8"/>
<circle cx="849.1" cy="556.8" r="2.1" fill="#b3261e" opacity="0.8"/>
<circle cx="849.7" cy="563.1" r="2.1" fill="#b3261e" opacity="0.8"/>
<circle cx="856.2" cy="563.3" r="2.1" fill="#b3261e" opacity="0.8"/>
<circle cx="856.8" cy="563.2" r="2.1" fill="#b3261e" opacity="0.8"/>
<circle cx="857.4" cy="563.0" r="2.1" fill="#b3261e" opacity="0.8"/>
<circle cx="858.0" cy="562.8" r="2.1" fill="#b3261e" opacity="0.8"/>
<circle cx="858.6" cy="563.2" r="2.1" fill="#b3261e" opacity="0.8"/>
<circle cx="859.2" cy="562.8" r="2.1" fill="#b3261e" opacity="0.8"/>
<circle cx="859.7" cy="562.6" r="2.1" fill="#b3261e" opacity="0.8"/>
<circle cx="860.9" cy="562.8" r="2.1" fill="#b3261e" opacity="0.8"/>
<circle cx="861.5" cy="562.9" r="2.1" fill="#b3261e" opacity="0.8"/>
<circle cx="862.1" cy="563.0" r="2.1" fill="#b3261e" opacity="0.8"/>
<circle cx="862.7" cy="563.1" r="2.1" fill="#b3261e" opacity="0.8"/>
<circle cx="863.3" cy="563.3" r="2.1" fill="#b3261e" opacity="0.8"/>
<circle cx="872.7" cy="563.4" r="2.1" fill="#b3261e" opacity="0.8"/>
<circle cx="873.3" cy="555.4" r="2.1" fill="#b3261e" opacity="0.8"/>
<circle cx="873.9" cy="528.8" r="2.1" fill="#b3261e" opacity="0.8"/>
<circle cx="874.5" cy="536.7" r="2.1" fill="#b3261e" opacity="0.8"/>
<circle cx="875.1" cy="558.1" r="2.1" fill="#b3261e" opacity="0.8"/>
<circle cx="884.0" cy="563.1" r="2.1" fill="#b3261e" opacity="0.8"/>
<circle cx="884.6" cy="563.2" r="2.1" fill="#b3261e" opacity="0.8"/>
<circle cx="885.2" cy="562.7" r="2.1" fill="#b3261e" opacity="0.8"/>
<circle cx="885.8" cy="562.4" r="2.1" fill="#b3261e" opacity="0.8"/>
<circle cx="886.9" cy="562.8" r="2.1" fill="#b3261e" opacity="0.8"/>
<circle cx="887.5" cy="562.6" r="2.1" fill="#b3261e" opacity="0.8"/>
<circle cx="888.1" cy="562.7" r="2.1" fill="#b3261e" opacity="0.8"/>
<circle cx="888.7" cy="562.9" r="2.1" fill="#b3261e" opacity="0.8"/>
<circle cx="889.3" cy="563.1" r="2.1" fill="#b3261e" opacity="0.8"/>
<circle cx="889.9" cy="563.4" r="2.1" fill="#b3261e" opacity="0.8"/>
<circle cx="901.7" cy="562.9" r="2.1" fill="#b3261e" opacity="0.8"/>
<circle cx="902.3" cy="559.4" r="2.1" fill="#b3261e" opacity="0.8"/>
<circle cx="902.9" cy="560.0" r="2.1" fill="#b3261e" opacity="0.8"/>
<circle cx="903.5" cy="560.7" r="2.1" fill="#b3261e" opacity="0.8"/>
<circle cx="904.1" cy="563.2" r="2.1" fill="#b3261e" opacity="0.8"/>
<circle cx="913.5" cy="563.4" r="2.1" fill="#b3261e" opacity="0.8"/>
<circle cx="914.7" cy="563.3" r="2.1" fill="#b3261e" opacity="0.8"/>
<circle cx="916.5" cy="563.4" r="2.1" fill="#b3261e" opacity="0.8"/>
<circle cx="917.1" cy="563.4" r="2.1" fill="#b3261e" opacity="0.8"/>
<circle cx="917.7" cy="563.3" r="2.1" fill="#b3261e" opacity="0.8"/>
<circle cx="918.3" cy="563.2" r="2.1" fill="#b3261e" opacity="0.8"/>
<circle cx="918.8" cy="563.3" r="2.1" fill="#b3261e" opacity="0.8"/>
<circle cx="919.4" cy="563.3" r="2.1" fill="#b3261e" opacity="0.8"/>
<circle cx="920.0" cy="563.2" r="2.1" fill="#b3261e" opacity="0.8"/>
<circle cx="920.6" cy="563.1" r="2.1" fill="#b3261e" opacity="0.8"/>
<circle cx="921.2" cy="563.1" r="2.1" fill="#b3261e" opacity="0.8"/>
<circle cx="921.8" cy="563.1" r="2.1" fill="#b3261e" opacity="0.8"/>
<circle cx="922.4" cy="563.0" r="2.1" fill="#b3261e" opacity="0.8"/>
<circle cx="923.0" cy="563.0" r="2.1" fill="#b3261e" opacity="0.8"/>
<circle cx="923.6" cy="563.0" r="2.1" fill="#b3261e" opacity="0.8"/>
<circle cx="924.2" cy="559.0" r="2.1" fill="#b3261e" opacity="0.8"/>
<circle cx="924.8" cy="530.0" r="2.1" fill="#b3261e" opacity="0.8"/>
<circle cx="925.3" cy="524.9" r="2.1" fill="#b3261e" opacity="0.8"/>
<circle cx="925.9" cy="544.3" r="2.1" fill="#b3261e" opacity="0.8"/>
<circle cx="926.5" cy="563.1" r="2.1" fill="#b3261e" opacity="0.8"/>
<circle cx="934.2" cy="562.6" r="2.1" fill="#b3261e" opacity="0.8"/>
<circle cx="934.8" cy="561.6" r="2.1" fill="#b3261e" opacity="0.8"/>
<circle cx="935.4" cy="560.7" r="2.1" fill="#b3261e" opacity="0.8"/>
<circle cx="936.0" cy="560.1" r="2.1" fill="#b3261e" opacity="0.8"/>
<circle cx="936.6" cy="559.6" r="2.1" fill="#b3261e" opacity="0.8"/>
<circle cx="937.2" cy="559.4" r="2.1" fill="#b3261e" opacity="0.8"/>
<circle cx="937.8" cy="562.1" r="2.1" fill="#b3261e" opacity="0.8"/>
<circle cx="938.3" cy="563.0" r="2.1" fill="#b3261e" opacity="0.8"/>
<circle cx="938.9" cy="560.5" r="2.1" fill="#b3261e" opacity="0.8"/>
<circle cx="939.5" cy="561.0" r="2.1" fill="#b3261e" opacity="0.8"/>
<circle cx="940.1" cy="561.7" r="2.1" fill="#b3261e" opacity="0.8"/>
<circle cx="940.7" cy="562.4" r="2.1" fill="#b3261e" opacity="0.8"/>
<circle cx="941.3" cy="563.2" r="2.1" fill="#b3261e" opacity="0.8"/>
<circle cx="950.2" cy="563.2" r="2.1" fill="#b3261e" opacity="0.8"/>
<circle cx="950.8" cy="563.4" r="2.1" fill="#b3261e" opacity="0.8"/>
<circle cx="964.9" cy="563.4" r="2.1" fill="#b3261e" opacity="0.8"/>
<circle cx="965.5" cy="563.4" r="2.1" fill="#b3261e" opacity="0.8"/>
<circle cx="966.1" cy="561.9" r="2.1" fill="#b3261e" opacity="0.8"/>
<circle cx="966.7" cy="559.0" r="2.1" fill="#b3261e" opacity="0.8"/>
<circle cx="967.3" cy="555.3" r="2.1" fill="#b3261e" opacity="0.8"/>
<circle cx="967.9" cy="557.5" r="2.1" fill="#b3261e" opacity="0.8"/>
<circle cx="968.5" cy="560.8" r="2.1" fill="#b3261e" opacity="0.8"/>
<circle cx="976.2" cy="563.1" r="2.1" fill="#b3261e" opacity="0.8"/>
<circle cx="976.8" cy="509.6" r="2.1" fill="#b3261e" opacity="0.8"/>
<circle cx="977.4" cy="465.6" r="2.1" fill="#b3261e" opacity="0.8"/>
<circle cx="977.9" cy="508.0" r="2.1" fill="#b3261e" opacity="0.8"/>
<circle cx="978.5" cy="557.7" r="2.1" fill="#b3261e" opacity="0.8"/>
<circle cx="987.4" cy="562.8" r="2.1" fill="#b3261e" opacity="0.8"/>
<circle cx="988.0" cy="561.8" r="2.1" fill="#b3261e" opacity="0.8"/>
<circle cx="988.6" cy="561.0" r="2.1" fill="#b3261e" opacity="0.8"/>
<circle cx="989.2" cy="562.6" r="2.1" fill="#b3261e" opacity="0.8"/>
<circle cx="989.8" cy="560.5" r="2.1" fill="#b3261e" opacity="0.8"/>
<circle cx="990.9" cy="560.7" r="2.1" fill="#b3261e" opacity="0.8"/>
<circle cx="991.5" cy="561.1" r="2.1" fill="#b3261e" opacity="0.8"/>
<circle cx="992.1" cy="561.7" r="2.1" fill="#b3261e" opacity="0.8"/>
<circle cx="992.7" cy="562.5" r="2.1" fill="#b3261e" opacity="0.8"/>
<circle cx="1003.9" cy="556.8" r="2.1" fill="#b3261e" opacity="0.8"/>
<circle cx="1004.5" cy="558.9" r="2.1" fill="#b3261e" opacity="0.8"/>
<circle cx="1005.1" cy="563.2" r="2.1" fill="#b3261e" opacity="0.8"/>
<circle cx="1012.2" cy="563.4" r="2.1" fill="#b3261e" opacity="0.8"/>
<circle cx="1016.4" cy="563.1" r="2.1" fill="#b3261e" opacity="0.8"/>
<circle cx="1017.0" cy="561.6" r="2.1" fill="#b3261e" opacity="0.8"/>
<circle cx="1017.5" cy="561.8" r="2.1" fill="#b3261e" opacity="0.8"/>
<circle cx="1018.1" cy="562.5" r="2.1" fill="#b3261e" opacity="0.8"/>
<circle cx="1018.7" cy="563.2" r="2.1" fill="#b3261e" opacity="0.8"/>
<circle cx="1029.4" cy="563.3" r="2.1" fill="#b3261e" opacity="0.8"/>
<circle cx="1030.0" cy="515.5" r="2.1" fill="#b3261e" opacity="0.8"/>
<circle cx="1030.5" cy="467.6" r="2.1" fill="#b3261e" opacity="0.8"/>
<circle cx="1031.1" cy="501.6" r="2.1" fill="#b3261e" opacity="0.8"/>
<circle cx="1031.7" cy="547.6" r="2.1" fill="#b3261e" opacity="0.8"/>
<text x="95" y="393" font-size="16" font-weight="700" fill="#1f2937">Logged Delta V = V_k - V_{k-1}</text>
<text x="95" y="653" font-size="12" fill="#6b7280">step</text>
<line x1="95.0" x2="95.0" y1="625" y2="630" stroke="#6b7280"/>
<text x="95.0" y="645" font-size="12" text-anchor="middle" fill="#6b7280">0</text>
<line x1="567.5" x2="567.5" y1="625" y2="630" stroke="#6b7280"/>
<text x="567.5" y="645" font-size="12" text-anchor="middle" fill="#6b7280">799</text>
<line x1="1040.0" x2="1040.0" y1="625" y2="630" stroke="#6b7280"/>
<text x="1040.0" y="645" font-size="12" text-anchor="middle" fill="#6b7280">1599</text>
<rect x="720" y="28" width="370" height="58" rx="4" fill="#f8fafc" stroke="#d0d7de"/>
<text x="732" y="50" font-size="12" fill="#1f2937">first-step &lt;= 0: 1532/1532 (100.0%) | mean -10.053</text>
<text x="732" y="72" font-size="12" fill="#1f2937">logged &lt;= 0: 1118/1510 (74.0%) | mean -0.112</text>
</svg>