<svg xmlns="http://www.w3.org/2000/svg" width="1120" height="700" viewBox="0 0 1120 700">
<rect width="100%" height="100%" fill="#ffffff"/>
<text x="35" y="40" font-size="24" font-weight="700" fill="#1f2937">Lyapunov delta diagnostics: bounded_soft</text>
<text x="35" y="66" font-size="13" fill="#6b7280">Negative Delta V indicates decrease. Logged step-to-step delta is affected by moving targets x_s(k).</text>
<rect x="95" y="100" width="945" height="220" fill="white" stroke="#d0d7de"/>
<line x1="95" x2="1040" y1="320.0" y2="320.0" stroke="#eef2f7" stroke-width="1"/>
<text x="87" y="324.0" font-size="12" text-anchor="end" fill="#6b7280">-192.58</text>
<line x1="95" x2="1040" y1="265.0" y2="265.0" stroke="#eef2f7" stroke-width="1"/>
<text x="87" y="269.0" font-size="12" text-anchor="end" fill="#6b7280">-140.87</text>
<line x1="95" x2="1040" y1="210.0" y2="210.0" stroke="#eef2f7" stroke-width="1"/>
<text x="87" y="214.0" font-size="12" text-anchor="end" fill="#6b7280">-89.16</text>
<line x1="95" x2="1040" y1="155.0" y2="155.0" stroke="#eef2f7" stroke-width="1"/>
<text x="87" y="159.0" font-size="12" text-anchor="end" fill="#6b7280">-37.45</text>
<line x1="95" x2="1040" y1="100.0" y2="100.0" stroke="#eef2f7" stroke-width="1"/>
<text x="87" y="104.0" font-size="12" text-anchor="end" fill="#6b7280">14.26</text>
<line x1="95" x2="1040" y1="115.2" y2="115.2" stroke="#111827" stroke-width="1.5"/>
<text x="1046" y="119.2" font-size="12" fill="#1f2937">0</text>
<polyline points="95.0,115.2 95.6,115.2 96.2,115.3 96.8,115.6 97.4,116.0 98.0,116.3 98.5,116.8 99.1,117.2 99.7,117.5 100.3,117.8 100.9,117.9 101.5,117.9 102.1,117.9 102.7,117.8 103.3,117.6 103.9,117.4 104.5,117.2 105.0,116.9 105.6,116.7 106.2,116.5 106.8,116.3 107.4,116.2 108.0,116.0 108.6,115.9 109.2,115.8 109.8,115.8 110.4,115.7 111.0,115.7 111.5,115.7 112.1,115.7 112.7,115.7 113.3,115.7 113.9,115.7 114.5,115.8 115.1,115.8 115.7,115.8 116.3,115.8 116.9,115.8 117.5,115.8 118.0,115.9 118.6,115.9 119.2,115.8 119.8,115.8 120.4,115.8 121.0,115.8 121.6,115.8 122.2,115.8 122.8,115.8 123.4,115.7 124.0,115.7 124.5,115.7 125.1,115.7 125.7,115.6 126.3,115.6 126.9,115.6 127.5,115.6 128.1,115.5 128.7,115.5 129.3,115.5 129.9,115.5 130.5,115.5 131.1,115.5 131.6,115.4 132.2,115.4 132.8,115.4 133.4,115.4 134.0,115.4 134.6,115.4 135.2,115.4 135.8,115.4 136.4,115.4 137.0,115.4 137.6,115.4 138.1,115.4 138.7,115.4 139.3,115.4 139.9,115.4 140.5,115.4 141.1,115.4 141.7,115.3 142.3,115.3 142.9,115.3 143.5,115.3 144.1,115.3 144.6,115.3 145.2,115.3 145.8,115.3 146.4,115.3 147.0,115.3 147.6,115.3 148.2,115.3 148.8,115.3 149.4,115.3 150.0,115.3 150.6,115.3 151.1,115.3 151.7,115.3 152.3,115.3 152.9,115.3 153.5,115.3 154.1,115.3 154.7,115.3 155.3,115.3 155.9,115.3 156.5,115.3 157.1,115.3 157.6,115.3 158.2,115.3 158.8,115.3 159.4,115.3 160.0,115.3 160.6,115.3 161.2,115.2 161.8,115.2 162.4,115.2 163.0,115.2 163.6,115.2 164.1,115.2 164.7,115.2 165.3,115.2 165.9,115.2 166.5,115.2 167.1,115.2 167.7,115.2 168.3,115.2 168.9,115.2 169.5,115.2 170.1,115.2 170.6,115.2 171.2,115.2 171.8,115.2 172.4,115.2 173.0,115.2 173.6,115.2 174.2,115.2 174.8,115.2 175.4,115.2 176.0,115.2 176.6,115.2 177.1,115.2 177.7,115.2 178.3,115.2 178.9,115.2 179.5,115.2 180.1,115.2 180.7,115.2 181.3,115.2 181.9,115.2 182.5,115.2 183.1,115.2 183.6,115.2 184.2,115.2 184.8,115.2 185.4,115.2 186.0,115.2 186.6,115.2 187.2,115.2 187.8,115.2 188.4,115.2 189.0,115.2 189.6,115.2 190.2,115.2 190.7,115.2 191.3,115.2 191.9,115.2 192.5,115.2 193.1,115.2 193.7,115.2 194.3,115.2 194.9,115.2 195.5,115.2 196.1,115.2 196.7,115.2 197.2,115.2 197.8,115.2 198.4,115.2 199.0,115.2 199.6,115.2 200.2,115.2 200.8,115.2 201.4,115.2 202.0,115.2 202.6,115.2 203.2,115.2 203.7,115.2 204.3,115.2 204.9,115.2 205.5,115.2 206.1,115.2 206.7,115.2 207.3,115.2 207.9,115.2 208.5,115.2 209.1,115.2 209.7,115.2 210.2,115.2 210.8,115.2 211.4,115.2 212.0,115.2 212.6,115.2 213.2,115.2 213.8,115.2 214.4,115.2 215.0,115.2 215.6,115.2 216.2,115.2 216.7,115.2 217.3,115.2 217.9,115.2 218.5,115.2 219.1,115.2 219.7,115.2 220.3,115.2 220.9,115.2 221.5,115.2 222.1,115.2 222.7,115.2 223.2,115.2 223.8,115.2 224.4,115.2 225.0,115.2 225.6,115.2 226.2,115.2 226.8,115.2 227.4,115.2 228.0,115.2 228.6,115.2 229.2,115.2 229.7,115.2 230.3,115.2 230.9,115.2 231.5,115.2 232.1,115.2 232.7,115.2 233.3,115.2 233.9,115.2 234.5,115.2 235.1,115.4 235.7,115.6 236.2,115.6 236.8,115.6 237.4,115.5 238.0,115.4 238.6,115.3 239.2,115.2 239.8,115.2 240.4,115.2 241.0,115.5 241.6,127.2 242.2,145.0 242.7,156.5 243.3,159.9 243.9,157.4 244.5,151.3 245.1,143.5 245.7,135.5 246.3,128.2 246.9,122.3 247.5,118.0 248.1,116.0 248.7,115.4 249.2,140.3 249.8,177.5 250.4,191.2 251.0,187.4 251.6,178.3 252.2,169.4 252.8,161.2 253.4,153.0 254.0,144.6 254.6,136.6 255.2,129.7 255.8,124.1 256.3,120.0 256.9,117.2 257.5,116.0 258.1,115.4 258.7,128.1 259.3,153.5 259.9,169.6 260.5,173.4 261.1,169.2 261.7,160.7 262.3,150.8 262.8,141.0 263.4,132.5 264.0,125.7 264.6,121.0 265.2,118.2 265.8,117.3 266.4,118.1 267.0,119.5 267.6,122.4 268.2,126.2 268.8,130.8 269.3,135.7 269.9,141.1 270.5,146.6 271.1,152.1 271.7,157.5 272.3,162.6 272.9,167.2 273.5,171.3 274.1,174.5 274.7,176.9 275.3,178.2 275.8,178.4 276.4,177.6 277.0,175.8 277.6,173.2 278.2,169.9 278.8,165.9 279.4,161.6 280.0,156.9 280.6,152.1 281.2,147.1 281.8,142.3 282.3,137.5 282.9,133.0 283.5,128.8 284.1,125.0 284.7,121.7 285.3,119.2 285.9,117.3 286.5,116.3 287.1,116.1 287.7,116.9 288.3,118.4 288.8,120.8 289.4,123.7 290.0,127.0 290.6,130.4 291.2,133.8 291.8,136.9 292.4,139.4 293.0,141.3 293.6,142.2 294.2,141.8 294.8,141.5 295.3,140.6 295.9,139.2 296.5,137.4 297.1,135.3 297.7,133.2 298.3,131.0 298.9,128.8 299.5,126.8 300.1,125.0 300.7,123.4 301.3,122.1 301.8,120.9 302.4,119.8 303.0,118.9 303.6,118.1 304.2,117.5 304.8,117.1 305.4,116.7 306.0,116.5 306.6,116.4 307.2,116.5 307.8,116.5 308.3,116.8 308.9,117.1 309.5,117.4 310.1,117.7 310.7,118.0 311.3,118.3 311.9,118.6 312.5,118.8 313.1,118.9 313.7,119.0 314.3,119.1 314.8,119.2 315.4,119.2 316.0,119.2 316.6,119.2 317.2,119.1 317.8,119.0 318.4,118.9 319.0,118.8 319.6,118.6 320.2,118.5 320.8,118.3 321.4,118.2 321.9,118.1 322.5,117.9 323.1,117.8 323.7,117.6 324.3,117.5 324.9,117.4 325.5,117.2 326.1,117.1 326.7,117.0 327.3,116.9 327.9,116.8 328.4,116.7 329.0,116.6 329.6,116.5 330.2,116.4 330.8,116.4 331.4,116.5 332.0,116.4 332.6,116.5 333.2,117.0 333.8,117.8 334.4,119.1 334.9,120.8 335.5,122.8 336.1,124.7 336.7,126.7 337.3,129.0 337.9,129.9 338.5,131.8 339.1,133.5 339.7,134.9 340.3,135.9 340.9,136.4 341.4,136.6 342.0,136.3 342.6,135.5 343.2,134.5 343.8,133.1 344.4,131.4 345.0,129.6 345.6,127.7 346.2,125.9 346.8,124.0 347.4,122.3 347.9,120.8 348.5,119.5 349.1,118.5 349.7,117.7 350.3,117.1 350.9,116.8 351.5,116.7 352.1,116.9 352.7,117.1 353.3,117.6 353.9,118.1 354.4,118.7 355.0,119.3 355.6,119.9 356.2,120.4 356.8,120.9 357.4,121.0 358.0,121.0 358.6,121.0 359.2,120.9 359.8,120.7 360.4,120.5 360.9,120.2 361.5,119.8 362.1,119.3 362.7,118.9 363.3,118.4 363.9,117.9 364.5,117.5 365.1,117.0 365.7,116.7 366.3,116.3 366.9,116.1 367.4,115.8 368.0,115.7 368.6,115.5 369.2,115.4 369.8,115.3 370.4,115.2 371.0,115.2 371.6,115.2 372.2,115.2 372.8,115.2 373.4,115.5 373.9,121.2 374.5,128.7 375.1,132.8 375.7,133.4 376.3,131.6 376.9,128.8 377.5,125.6 378.1,122.5 378.7,119.9 379.3,117.9 379.9,116.5 380.5,115.7 381.0,115.5 381.6,115.8 382.2,117.2 382.8,119.4 383.4,121.2 384.0,123.1 384.6,124.5 385.2,125.4 385.8,125.8 386.4,125.9 387.0,125.6 387.5,125.0 388.1,124.2 388.7,123.3 389.3,122.2 389.9,121.1 390.5,119.9 391.1,118.9 391.7,117.9 392.3,117.1 392.9,116.4 393.5,115.9 394.0,115.7 394.6,115.6 395.2,133.0 395.8,179.2 396.4,208.8 397.0,214.4 397.6,206.1 398.2,191.5 398.8,174.3 399.4,157.1 400.0,141.7 400.5,129.6 401.1,121.4 401.7,117.5 402.3,116.1 402.9,126.9 403.5,150.6 404.1,166.3 404.7,170.1 405.3,166.4 405.9,159.0 406.5,150.7 407.0,142.7 407.6,135.8 408.2,130.2 408.8,125.8 409.4,122.5 410.0,121.0 410.6,119.0 411.2,117.7 411.8,116.9 412.4,116.5 413.0,116.5 413.5,116.8 414.1,127.1 414.7,168.6 415.3,214.4 415.9,244.1 416.5,257.5 417.1,260.1 417.7,255.6 418.3,246.4 418.9,233.5 419.5,218.5 420.0,202.7 420.6,187.1 421.2,172.5 421.8,159.3 422.4,147.5 423.0,137.2 423.6,128.6 424.2,121.9 424.8,117.3 425.4,115.5 426.0,116.2 426.5,116.2 427.1,115.8 427.7,116.7 428.3,119.2 428.9,122.3 429.5,125.3 430.1,127.9 430.7,130.3 431.3,132.9 431.9,136.2 432.5,140.1 433.0,144.8 433.6,149.8 434.2,154.9 434.8,158.3 435.4,162.2 436.0,164.4 436.6,167.1 437.2,168.8 437.8,169.6 438.4,169.5 439.0,168.5 439.5,166.8 440.1,164.5 440.7,161.6 441.3,158.3 441.9,154.8 442.5,151.2 443.1,147.4 443.7,143.7 444.3,140.1 444.9,136.7 445.5,133.5 446.1,130.5 446.6,127.8 447.2,125.4 447.8,123.3 448.4,121.5 449.0,119.9 449.6,118.6 450.2,117.6 450.8,116.8 451.4,116.2 452.0,115.7 452.6,115.4 453.1,115.2 453.7,115.2 454.3,115.6 454.9,143.9 455.5,188.5 456.1,210.8 456.7,210.6 457.3,198.5 457.9,181.7 458.5,164.1 459.1,148.1 459.6,135.1 460.2,125.9 460.8,120.3 461.4,118.3 462.0,118.1 462.6,121.2 463.2,128.5 463.8,134.7 464.4,138.0 465.0,139.2 465.6,139.6 466.1,139.0 466.7,137.8 467.3,136.2 467.9,134.4 468.5,132.5 469.1,130.7 469.7,128.9 470.3,127.1 470.9,125.4 471.5,123.8 472.1,122.2 472.6,120.7 473.2,119.3 473.8,118.1 474.4,117.0 475.0,116.6 475.6,116.1 476.2,147.0 476.8,209.7 477.4,239.3 478.0,238.6 478.6,226.0 479.1,210.4 479.7,193.4 480.3,175.2 480.9,157.3 481.5,141.5 482.1,129.2 482.7,121.0 483.3,116.7 483.9,115.5 484.5,124.1 485.1,147.4 485.6,167.3 486.2,174.1 486.8,171.3 487.4,163.6 488.0,154.3 488.6,145.2 489.2,137.2 489.8,130.7 490.4,125.6 491.0,121.9 491.6,119.5 492.1,118.3 492.7,116.8 493.3,116.1 493.9,116.2 494.5,119.1 495.1,169.1 495.7,219.7 496.3,230.7 496.9,217.4 497.5,199.1 498.1,182.8 498.6,168.6 499.2,155.2 499.8,142.8 500.4,132.2 501.0,124.3 501.6,119.4 502.2,117.2 502.8,117.3 503.4,119.0 504.0,121.7 504.6,125.1 505.2,128.7 505.7,131.5 506.3,134.8 506.9,136.7 507.5,139.1 508.1,141.1 508.7,142.8 509.3,143.8 509.9,144.4 510.5,144.5 511.1,144.1 511.7,143.2 512.2,141.8 512.8,140.2 513.4,138.2 514.0,136.0 514.6,133.6 515.2,131.2 515.8,128.8 516.4,126.5 517.0,124.4 517.6,122.4 518.2,120.6 518.7,119.1 519.3,117.9 519.9,116.9 520.5,116.2 521.1,115.8 521.7,115.7 522.3,115.7 522.9,146.2 523.5,202.9 524.1,234.0 524.7,237.0 525.2,224.7 525.8,205.7 526.4,184.6 527.0,164.3 527.6,146.9 528.2,133.5 528.8,124.3 529.4,119.1 530.0,117.5 530.6,117.5 531.2,129.0 531.7,150.5 532.3,163.8 532.9,165.8 533.5,161.0 534.1,153.3 534.7,145.2 535.3,137.7 535.9,131.4 536.5,126.4 537.1,122.7 537.7,120.0 538.2,119.0 538.8,117.5 539.4,116.5 540.0,116.5 540.6,116.6 541.2,152.1 541.8,229.1 542.4,264.4 543.0,254.3 543.6,227.9 544.2,202.7 544.7,182.1 545.3,164.9 545.9,150.0 546.5,137.6 547.1,128.1 547.7,121.8 548.3,118.5 548.9,117.7 549.5,118.7 550.1,121.0 550.7,124.1 551.2,127.5 551.8,130.2 552.4,133.5 553.0,136.0 553.6,137.9 554.2,140.1 554.8,141.8 555.4,143.0 556.0,143.7 556.6,143.9 557.2,143.6 557.7,142.8 558.3,141.5 558.9,139.9 559.5,138.0 560.1,135.8 560.7,133.5 561.3,131.2 561.9,128.8 562.5,126.5 563.1,124.4 563.7,122.4 564.2,120.7 564.8,119.2 565.4,118.0 566.0,117.1 566.6,116.4 567.2,115.9 567.8,115.8 568.4,115.8 569.0,129.6 569.6,156.7 570.2,180.2 570.8,192.7 571.3,196.6 571.9,194.7 572.5,188.7 573.1,179.8 573.7,169.5 574.3,158.8 574.9,148.8 575.5,140.2 576.1,133.4 576.7,128.4 577.3,124.9 577.8,122.8 578.4,121.6 579.0,121.1 579.6,121.1 580.2,121.3 580.8,121.7 581.4,122.1 582.0,122.4 582.6,122.7 583.2,122.9 583.8,123.0 584.3,123.0 584.9,122.8 585.5,122.3 586.1,121.8 586.7,121.4 587.3,121.0 587.9,120.6 588.5,120.1 589.1,119.7 589.7,119.2 590.3,118.8 590.8,118.4 591.4,118.0 592.0,117.6 592.6,117.3 593.2,116.9 593.8,116.7 594.4,116.4 595.0,116.2 595.6,116.0 596.2,115.8 596.8,115.7 597.3,115.6 597.9,115.5 598.5,115.4 599.1,115.4 599.7,115.3 600.3,115.3 600.9,115.3 601.5,115.2 602.1,115.2 602.7,115.2 603.3,115.2 603.8,115.2 604.4,115.2 605.0,115.2 605.6,115.2 606.2,115.2 606.8,115.2 607.4,115.2 608.0,115.2 608.6,115.2 609.2,115.2 609.8,115.2 610.3,115.2 610.9,115.2 611.5,115.2 612.1,115.2 612.7,115.2 613.3,115.2 613.9,115.2 614.5,115.2 615.1,115.2 615.7,115.2 616.3,115.2 616.8,115.2 617.4,115.2 618.0,115.2 618.6,115.2 619.2,115.2 619.8,115.2 620.4,115.2 621.0,115.2 621.6,115.2 622.2,115.2 622.8,115.2 623.3,115.2 623.9,115.2 624.5,115.2 625.1,115.2 625.7,115.2 626.3,115.2 626.9,115.2 627.5,115.2 628.1,115.2 628.7,115.2 629.3,115.2 629.8,115.2 630.4,115.2 631.0,115.2 631.6,115.2 632.2,115.2 632.8,115.2 633.4,115.2 634.0,115.2 634.6,115.2 635.2,115.2 635.8,115.2 636.4,115.2 636.9,115.2 637.5,115.2 638.1,115.2 638.7,115.2 639.3,115.2 639.9,115.2 640.5,115.2 641.1,115.2 641.7,115.2 642.3,115.2 642.9,115.2 643.4,115.2 644.0,115.2 644.6,115.2 645.2,115.2 645.8,115.2 646.4,115.2 647.0,115.2 647.6,115.2 648.2,115.3 648.8,115.3 649.4,115.3 649.9,115.3 650.5,115.3 651.1,115.3 651.7,115.2 652.3,115.2 652.9,115.2 653.5,115.2 654.1,115.2 654.7,115.2 655.3,115.2 655.9,115.6 656.4,116.1 657.0,116.4 657.6,116.4 658.2,116.3 658.8,116.1 659.4,115.9 660.0,115.6 660.6,115.4 661.2,115.3 661.8,115.2 662.4,115.2 662.9,117.9 663.5,123.6 664.1,127.1 664.7,127.9 665.3,127.1 665.9,125.3 666.5,123.2 667.1,121.0 667.7,119.0 668.3,117.4 668.9,116.2 669.4,115.6 670.0,115.4" fill="none" stroke="#1f5f99" stroke-width="2.2" stroke-linejoin="round" stroke-linecap="round"/>
<polyline points="671.2,126.9 671.8,145.9 672.4,157.9 673.0,161.0 673.6,158.1 674.2,151.8 674.8,144.1 675.4,136.1 675.9,129.0 676.5,123.1 677.1,118.9 677.7,116.7 678.3,115.9 678.9,144.0 679.5,188.9 680.1,204.5 680.7,197.0 681.3,183.2 681.9,171.1 682.4,161.8 683.0,153.9 683.6,146.3 684.2,139.0 684.8,132.3 685.4,126.7 686.0,122.3 686.6,119.2 687.2,117.1 687.8,116.0 688.4,115.9 688.9,116.0 689.5,125.1 690.1,146.4 690.7,169.1 691.3,186.9 691.9,197.4 692.5,200.7 693.1,197.7 693.7,189.9 694.3,179.0 694.9,166.5 695.5,154.0 696.0,142.5 696.6,132.7 697.2,125.0 697.8,119.7 698.4,116.6 699.0,115.5 699.6,116.0 700.2,134.9 700.8,167.1 701.4,194.3 702.0,212.2 702.5,221.7 703.1,224.1 703.7,221.5 704.3,215.7 704.9,208.1 705.5,200.3 706.1,193.2 706.7,187.1 707.3,182.1 707.9,178.0 708.5,174.6 709.0,171.6 709.6,168.7 710.2,165.7 710.8,162.6 711.4,159.3 712.0,155.6 712.6,151.7 713.2,147.5 713.8,143.0 714.4,138.4 715.0,133.7 715.5,129.1 716.1,124.8 716.7,121.1 717.3,118.1 717.9,116.4 718.5,115.6 719.1,115.9" fill="none" stroke="#1f5f99" stroke-width="2.2" stroke-linejoin="round" stroke-linecap="round"/>
<polyline points="720.3,118.5 720.9,122.8 721.5,129.1 722.0,136.4 722.6,143.5 723.2,149.6 723.8,154.2 724.4,157.1 725.0,158.5 725.6,157.5 726.2,156.2 726.8,152.7 727.4,150.2 728.0,147.3 728.5,144.3 729.1,141.3 729.7,138.4 730.3,135.7 730.9,133.2 731.5,131.0 732.1,129.1 732.7,127.4 733.3,126.0 733.9,124.8 734.5,123.8 735.0,123.0 735.6,122.2 736.2,121.6 736.8,121.1 737.4,120.7 738.0,120.3 738.6,120.0 739.2,119.7 739.8,119.4 740.4,119.1 741.0,118.9 741.5,118.6 742.1,118.4 742.7,118.2 743.3,118.0 743.9,117.7 744.5,117.5 745.1,117.3 745.7,117.1 746.3,117.0 746.9,116.8 747.5,116.6 748.0,116.5 748.6,116.3 749.2,116.2 749.8,116.1 750.4,115.9 751.0,115.8 751.6,115.8 752.2,115.7 752.8,115.6 753.4,115.5 754.0,115.5 754.5,115.4 755.1,115.4 755.7,115.4 756.3,115.3 756.9,115.3 757.5,115.3 758.1,115.3 758.7,115.3 759.3,115.2 759.9,115.2 760.5,115.2 761.1,115.2 761.6,115.2 762.2,115.2 762.8,115.2 763.4,115.2 764.0,115.2 764.6,115.2 765.2,115.2 765.8,115.2 766.4,115.2 767.0,115.2 767.6,115.2 768.1,115.2 768.7,115.2 769.3,115.2 769.9,115.2 770.5,115.2 771.1,115.2 771.7,115.2 772.3,115.2 772.9,115.2 773.5,115.2 774.1,115.2 774.6,115.2 775.2,115.2 775.8,115.2 776.4,115.2 777.0,115.2 777.6,115.2 778.2,115.2 778.8,115.2 779.4,115.2 780.0,115.2 780.6,115.2 781.1,115.2 781.7,115.2 782.3,115.2 782.9,115.2 783.5,115.2 784.1,115.2 784.7,115.2 785.3,115.2 785.9,115.2 786.5,115.2 787.1,115.2 787.6,115.2 788.2,115.2 788.8,115.2 789.4,115.2 790.0,115.2 790.6,115.2 791.2,115.2 791.8,115.2 792.4,115.2 793.0,115.2 793.6,115.2 794.1,115.2 794.7,115.2 795.3,115.2 795.9,115.2 796.5,115.2 797.1,115.2 797.7,115.2 798.3,115.2 798.9,115.2 799.5,115.2 800.1,115.2 800.6,115.2 801.2,115.2 801.8,115.2 802.4,115.2 803.0,115.2 803.6,115.2 804.2,115.2 804.8,115.2 805.4,115.2 806.0,115.2 806.6,120.9 807.1,131.0 807.7,143.3 808.3,153.7 808.9,161.4 809.5,166.5 810.1,169.2 810.7,169.8 811.3,168.4 811.9,165.5 812.5,161.3 813.1,156.1 813.6,150.5 814.2,144.7 814.8,139.0 815.4,133.7 816.0,129.0 816.6,125.1 817.2,121.9 817.8,119.6 818.4,118.2 819.0,118.0 819.6,118.1 820.2,167.3 820.7,254.1 821.3,299.5 821.9,304.8 822.5,289.8 823.1,265.7 823.7,237.0 824.3,207.2 824.9,179.2 825.5,155.8 826.1,138.2 826.7,126.3 827.2,119.3 827.8,116.7 828.4,116.2 829.0,127.8 829.6,148.8 830.2,161.6 830.8,163.2 831.4,158.2 832.0,150.5 832.6,142.4 833.2,135.1 833.7,129.1 834.3,124.4 834.9,120.9 835.5,118.5 836.1,117.7 836.7,116.6 837.3,116.3 837.9,116.2 838.5,160.9 839.1,220.8 839.7,239.1 840.2,227.2 840.8,207.4 841.4,189.5 842.0,174.4 842.6,160.5 843.2,147.6 843.8,136.2 844.4,127.4 845.0,121.4 845.6,118.2 846.2,117.3 846.7,118.2 847.3,120.4 847.9,123.2 848.5,126.3 849.1,129.1 849.7,132.3 850.3,134.1 850.9,136.5 851.5,138.6 852.1,140.2 852.7,141.4 853.2,142.1 853.8,142.3 854.4,142.0 855.0,141.2 855.6,140.0 856.2,138.4 856.8,136.5 857.4,134.4 858.0,132.2 858.6,129.9 859.2,127.6 859.7,125.5 860.3,123.4 860.9,121.6 861.5,120.0 862.1,118.7 862.7,117.6 863.3,116.8 863.9,116.2 864.5,116.0 865.1,116.0 865.7,119.1 866.2,140.2 866.8,164.3 867.4,175.8 868.0,176.4 868.6,170.9 869.2,162.5 869.8,152.8 870.4,143.0 871.0,134.2 871.6,126.9 872.2,121.5 872.7,117.8 873.3,116.0 873.9,115.5 874.5,115.8 875.1,125.0 875.7,140.4 876.3,147.5 876.9,146.4 877.5,141.3 878.1,135.2 878.7,129.7 879.2,125.2 879.8,121.9 880.4,119.5 881.0,117.9 881.6,117.0 882.2,117.0 882.8,116.4 883.4,116.6 884.0,116.9 884.6,129.2 885.2,152.3 885.8,171.8 886.3,183.0 886.9,187.4 887.5,187.7 888.1,185.7 888.7,182.0 889.3,177.2 889.9,171.3 890.5,164.8 891.1,157.9 891.7,150.9 892.3,144.2 892.8,137.9 893.4,132.2 894.0,127.3 894.6,123.2 895.2,120.0 895.8,117.8 896.4,116.5 897.0,116.2 897.6,116.8 898.2,118.1 898.8,120.1 899.3,122.5 899.9,125.1 900.5,127.7 901.1,130.1 901.7,132.2 902.3,133.7 902.9,134.1 903.5,133.8 904.1,133.5 904.7,132.8 905.3,131.7 905.8,130.3 906.4,128.7 907.0,127.2 907.6,125.7 908.2,124.5 908.8,123.7 909.4,122.8 910.0,122.0 910.6,121.5 911.2,121.1 911.8,120.9 912.3,120.7 912.9,120.6 913.5,120.4 914.1,120.2 914.7,120.0 915.3,119.6 915.9,119.2 916.5,118.7 917.1,118.1 917.7,117.6 918.3,117.0 918.8,116.5 919.4,116.1 920.0,115.8 920.6,115.5 921.2,115.4 921.8,115.4 922.4,115.5 923.0,117.5 923.6,120.5 924.2,123.0 924.8,125.4 925.3,126.8 925.9,127.4 926.5,127.1 927.1,126.3 927.7,125.1 928.3,123.6 928.9,122.0 929.5,120.5 930.1,119.1 930.7,117.9 931.3,116.9 931.8,116.1 932.4,115.6 933.0,115.4 933.6,115.2 934.2,115.2 934.8,115.2 935.4,115.3 936.0,115.4 936.6,115.6 937.2,115.8 937.8,115.9 938.3,116.0 938.9,116.0 939.5,116.0 940.1,116.0 940.7,115.9 941.3,115.8 941.9,115.7 942.5,115.6 943.1,115.5 943.7,115.5 944.3,115.5 944.8,115.5 945.4,116.4 946.0,121.4 946.6,125.7 947.2,126.2 947.8,124.4 948.4,122.0 949.0,120.0 949.6,118.6 950.2,117.7 950.8,117.5 951.4,117.8 951.9,118.3 952.5,119.1 953.1,120.1 953.7,121.2 954.3,122.5 954.9,123.7 955.5,125.0 956.1,126.2 956.7,127.4 957.3,128.4 957.9,129.4 958.4,130.2 959.0,130.9 959.6,131.4 960.2,131.6 960.8,131.7 961.4,131.5 962.0,131.0 962.6,130.4 963.2,129.5 963.8,128.4 964.4,127.1 964.9,125.7 965.5,124.3 966.1,122.9 966.7,121.5 967.3,120.2 967.9,119.0 968.5,118.0 969.1,117.2 969.7,116.5 970.3,116.1 970.9,115.9 971.4,115.9 972.0,116.1 972.6,116.4 973.2,116.8 973.8,117.3 974.4,117.8 975.0,118.3 975.6,118.8 976.2,119.3 976.8,119.6 977.4,119.9 977.9,120.1 978.5,120.2 979.1,120.2 979.7,120.1 980.3,120.0 980.9,119.8 981.5,119.5 982.1,119.2 982.7,118.9 983.3,118.6 983.9,118.2 984.4,117.9 985.0,117.6 985.6,117.4 986.2,117.1 986.8,116.9 987.4,116.7 988.0,116.5 988.6,116.4 989.2,116.3 989.8,116.2 990.4,116.1 990.9,116.1 991.5,116.0 992.1,116.0 992.7,116.0 993.3,116.1 993.9,116.1 994.5,116.2 995.1,116.2 995.7,116.3 996.3,116.4 996.9,116.5 997.4,116.6 998.0,116.7 998.6,116.7 999.2,116.8 999.8,116.9 1000.4,116.9 1001.0,117.0 1001.6,117.0 1002.2,117.0 1002.8,117.0 1003.4,117.0 1003.9,117.0 1004.5,117.0 1005.1,117.0 1005.7,116.9 1006.3,116.8 1006.9,116.7 1007.5,116.7 1008.1,116.6 1008.7,116.5 1009.3,116.4 1009.9,116.3 1010.5,116.3 1011.0,116.2 1011.6,116.1 1012.2,116.0 1012.8,116.0 1013.4,115.9 1014.0,115.9 1014.6,115.8 1015.2,115.8 1015.8,115.7 1016.4,115.7 1017.0,115.6 1017.5,115.6 1018.1,115.6 1018.7,115.6 1019.3,115.5 1019.9,115.5 1020.5,115.5 1021.1,115.5 1021.7,115.5 1022.3,115.4 1022.9,115.4 1023.5,115.4 1024.0,115.4 1024.6,115.4 1025.2,115.4 1025.8,115.4 1026.4,115.4 1027.0,115.4 1027.6,115.4 1028.2,115.4 1028.8,115.4 1029.4,115.3 1030.0,115.3 1030.5,115.3 1031.1,115.3 1031.7,115.3 1032.3,115.3 1032.9,115.3 1033.5,115.3 1034.1,115.3 1034.7,115.3 1035.3,115.3 1035.9,115.3 1036.5,115.3 1037.0,115.3 1037.6,115.3 1038.2,115.3 1038.8,115.3 1039.4,115.3 1040.0,115.3" fill="none" stroke="#1f5f99" stroke-width="2.2" stroke-linejoin="round" stroke-linecap="round"/>
<text x="95" y="88" font-size="16" font-weight="700" fill="#1f2937">First-step predicted Delta V = V_1|k - V_k</text>
<text x="95" y="348" font-size="12" fill="#6b7280">step</text>
<line x1="95.0" x2="95.0" y1="320" y2="325" stroke="#6b7280"/>
<text x="95.0" y="340" font-size="12" text-anchor="middle" fill="#6b7280">0</text>
<line x1="567.5" x2="567.5" y1="320" y2="325" stroke="#6b7280"/>
<text x="567.5" y="340" font-size="12" text-anchor="middle" fill="#6b7280">799</text>
<line x1="1040.0" x2="1040.0" y1="320" y2="325" stroke="#6b7280"/>
<text x="1040.0" y="340" font-size="12" text-anchor="middle" fill="#6b7280">1599</text>
<rect x="95" y="405" width="945" height="220" fill="white" stroke="#d0d7de"/>
<line x1="95" x2="1040" y1="625.0" y2="625.0" stroke="#eef2f7" stroke-width="1"/>
<text x="87" y="629.0" font-size="12" text-anchor="end" fill="#6b7280">-392.48</text>
<line x1="95" x2="1040" y1="570.0" y2="570.0" stroke="#eef2f7" stroke-width="1"/>
<text x="87" y="574.0" font-size="12" text-anchor="end" fill="#6b7280">-90.29</text>
<line x1="95" x2="1040" y1="515.0" y2="515.0" stroke="#eef2f7" stroke-width="1"/>
<text x="87" y="519.0" font-size="12" text-anchor="end" fill="#6b7280">211.91</text>
<line x1="95" x2="1040" y1="460.0" y2="460.0" stroke="#eef2f7" stroke-width="1"/>
<text x="87" y="464.0" font-size="12" text-anchor="end" fill="#6b7280">514.11</text>
<line x1="95" x2="1040" y1="405.0" y2="405.0" stroke="#eef2f7" stroke-width="1"/>
<text x="87" y="409.0" font-size="12" text-anchor="end" fill="#6b7280">816.30</text>
<line x1="95" x2="1040" y1="553.6" y2="553.6" stroke="#111827" stroke-width="1.5"/>
<text x="1046" y="557.6" font-size="12" fill="#1f2937">0</text>
<polyline points="95.6,553.6 96.2,553.4 96.8,553.0 97.4,553.2 98.0,553.3 98.5,552.9 99.1,553.0 99.7,553.1 100.3,553.2 100.9,553.3 101.5,553.4 102.1,553.5 102.7,553.5 103.3,553.6 103.9,553.7 104.5,553.7 105.0,553.7 105.6,553.7 106.2,553.8 106.8,553.8 107.4,553.8 108.0,553.7 108.6,553.7 109.2,553.7 109.8,553.7 110.4,553.7 111.0,553.7 111.5,553.7 112.1,553.6 112.7,553.6 113.3,553.6 113.9,553.6 114.5,553.6 115.1,553.6 115.7,553.6 116.3,553.6 116.9,553.6 117.5,553.6 118.0,553.6 118.6,553.6 119.2,553.6 119.8,553.6 120.4,553.6 121.0,553.6 121.6,553.6 122.2,553.6 122.8,553.6 123.4,553.6 124.0,553.6 124.5,553.6 125.1,553.6 125.7,553.6 126.3,553.6 126.9,553.6 127.5,553.6 128.1,553.6 128.7,553.6 129.3,553.6 129.9,553.6 130.5,553.6 131.1,553.6 131.6,553.6 132.2,553.6 132.8,553.6 133.4,553.6 134.0,553.6 134.6,553.6 135.2,553.6 135.8,553.6 136.4,553.6 137.0,553.6 137.6,553.6 138.1,553.6 138.7,553.6 139.3,553.6 139.9,553.6 140.5,553.6 141.1,553.6 141.7,553.6 142.3,553.6 142.9,553.6 143.5,553.6 144.1,553.6 144.6,553.6 145.2,553.6 145.8,553.6 146.4,553.6 147.0,553.6 147.6,553.6 148.2,553.6 148.8,553.6 149.4,553.6 150.0,553.6 150.6,553.6 151.1,553.6 151.7,553.6 152.3,553.6 152.9,553.6 153.5,553.6 154.1,553.6 154.7,553.6 155.3,553.6 155.9,553.6 156.5,553.6 157.1,553.6 157.6,553.6 158.2,553.6 158.8,553.6 159.4,553.6 160.0,553.6 160.6,553.6 161.2,553.6 161.8,553.6 162.4,553.6 163.0,553.6 163.6,553.6 164.1,553.6 164.7,553.6 165.3,553.6 165.9,553.6 166.5,553.6 167.1,553.6 167.7,553.6 168.3,553.6 168.9,553.6 169.5,553.6 170.1,553.6 170.6,553.6 171.2,553.6 171.8,553.6 172.4,553.6 173.0,553.6 173.6,553.6 174.2,553.6 174.8,553.6 175.4,553.6 176.0,553.6 176.6,553.6 177.1,553.6 177.7,553.6 178.3,553.6 178.9,553.6 179.5,553.6 180.1,553.6 180.7,553.6 181.3,553.6 181.9,553.6 182.5,553.6 183.1,553.6 183.6,553.6 184.2,553.6 184.8,553.6 185.4,553.6 186.0,553.6 186.6,553.6 187.2,553.6 187.8,553.6 188.4,553.6 189.0,553.6 189.6,553.6 190.2,553.6 190.7,553.6 191.3,553.6 191.9,553.6 192.5,553.6 193.1,553.6 193.7,553.6 194.3,553.6 194.9,553.6 195.5,553.6 196.1,553.6 196.7,553.6 197.2,553.6 197.8,553.6 198.4,553.6 199.0,553.6 199.6,553.6 200.2,553.6 200.8,553.6 201.4,553.6 202.0,553.6 202.6,553.6 203.2,553.6 203.7,553.6 204.3,553.6 204.9,553.6 205.5,553.6 206.1,553.6 206.7,553.6 207.3,553.6 207.9,553.6 208.5,553.6 209.1,553.6 209.7,553.6 210.2,553.6 210.8,553.6 211.4,553.6 212.0,553.6 212.6,553.6 213.2,553.6 213.8,553.6 214.4,553.6 215.0,553.6 215.6,553.6 216.2,553.6 216.7,553.6 217.3,553.6 217.9,553.6 218.5,553.6 219.1,553.6 219.7,553.6 220.3,553.6 220.9,553.6 221.5,553.6 222.1,553.6 222.7,553.6 223.2,553.6 223.8,553.6 224.4,553.6 225.0,553.6 225.6,553.6 226.2,553.6 226.8,553.6 227.4,553.6 228.0,553.6 228.6,553.6 229.2,553.6 229.7,553.6 230.3,553.6 230.9,553.6 231.5,553.6 232.1,553.6 232.7,553.6 233.3,553.6 233.9,553.6 234.5,553.6 235.1,553.4 235.7,553.4 236.2,553.5 236.8,553.6 237.4,553.6 238.0,553.6 238.6,553.6 239.2,553.6 239.8,553.6 240.4,553.6 241.0,553.3 241.6,536.4 242.2,526.8 242.7,537.1 243.3,549.6 243.9,558.1 244.5,562.3 245.1,563.8 245.7,563.4 246.3,561.8 246.9,559.6 247.5,557.0 248.1,554.3 248.7,551.9 249.2,513.5 249.8,494.2 250.4,535.4 251.0,568.5 251.6,580.4 252.2,579.9 252.8,574.8 253.4,569.0 254.0,563.9 254.6,559.9 255.2,556.9 255.8,554.9 256.3,553.7 256.9,553.0 257.5,552.6 258.1,552.6 258.7,534.0 259.3,515.9 259.9,534.3 260.5,555.0 261.1,566.4 261.7,570.0 262.3,569.5 262.8,566.9 263.4,563.5 264.0,560.0 264.6,556.6 265.2,553.5 265.8,550.7 266.4,548.4 267.0,547.5 267.6,548.2 268.2,545.0 268.8,544.2 269.3,543.9 269.9,544.0 270.5,544.4 271.1,545.2 271.7,546.2 272.3,547.4 272.9,548.8 273.5,550.3 274.1,551.8 274.7,553.3 275.3,554.6 275.8,555.9 276.4,557.0 277.0,557.9 277.6,558.7 278.2,559.4 278.8,559.9 279.4,560.3 280.0,560.5 280.6,560.7 281.2,560.7 281.8,560.7 282.3,560.5 282.9,560.1 283.5,559.6 284.1,559.0 284.7,558.1 285.3,557.1 285.9,556.0 286.5,554.7 287.1,553.4 287.7,552.0 288.3,550.7 288.8,549.6 289.4,548.8 290.0,548.2 290.6,548.1 291.2,548.3 291.8,548.9 292.4,549.8 293.0,550.9 293.6,553.0 294.2,556.4 294.8,554.6 295.3,555.5 295.9,556.3 296.5,556.8 297.1,557.1 297.7,557.2 298.3,557.1 298.9,556.9 299.5,556.5 300.1,556.1 300.7,555.5 301.3,554.1 301.8,554.0 302.4,554.5 303.0,554.2 303.6,553.8 304.2,553.6 304.8,553.4 305.4,553.2 306.0,553.1 306.6,553.1 307.2,553.0 307.8,553.0 308.3,552.9 308.9,552.9 309.5,553.1 310.1,553.2 310.7,553.3 311.3,553.5 311.9,553.6 312.5,553.6 313.1,553.7 313.7,553.8 314.3,553.8 314.8,553.9 315.4,553.9 316.0,553.9 316.6,554.0 317.2,554.1 317.8,554.2 318.4,554.1 319.0,554.1 319.6,554.1 320.2,554.1 320.8,554.1 321.4,554.1 321.9,554.0 322.5,554.0 323.1,554.0 323.7,554.0 324.3,553.9 324.9,553.9 325.5,553.9 326.1,553.9 326.7,553.9 327.3,553.8 327.9,553.8 328.4,553.8 329.0,553.8 329.6,553.8 330.2,553.8 330.8,553.8 331.4,553.0 332.0,553.8 332.6,553.4 333.2,552.9 333.8,552.4 334.4,551.8 334.9,551.3 335.5,550.9 336.1,551.5 336.7,551.4 337.3,550.4 337.9,553.5 338.5,550.7 339.1,550.9 339.7,551.2 340.3,551.7 340.9,552.2 341.4,552.7 342.0,553.3 342.6,553.9 343.2,554.4 343.8,554.9 344.4,555.2 345.0,555.5 345.6,555.6 346.2,555.7 346.8,555.6 347.4,555.5 347.9,555.2 348.5,555.0 349.1,554.7 349.7,554.4 350.3,554.1 350.9,553.9 351.5,553.7 352.1,553.5 352.7,553.4 353.3,553.3 353.9,553.3 354.4,553.3 355.0,553.3 355.6,553.4 356.2,553.5 356.8,553.7 357.4,554.9 358.0,554.7 358.6,554.3 359.2,554.4 359.8,554.3 360.4,554.3 360.9,554.3 361.5,554.3 362.1,554.3 362.7,554.3 363.3,554.2 363.9,554.2 364.5,554.1 365.1,554.1 365.7,554.0 366.3,553.9 366.9,553.8 367.4,553.7 368.0,553.7 368.6,553.7 369.2,553.7 369.8,553.7 370.4,553.6 371.0,553.6 371.6,553.6 372.2,553.6 372.8,553.6 373.4,553.3 373.9,545.3 374.5,542.1 375.1,547.5 375.7,553.3 376.3,556.6 376.9,557.8 377.5,557.8 378.1,557.3 378.7,556.6 379.3,555.8 379.9,555.2 380.5,554.5 381.0,554.0 381.6,553.6 382.2,551.7 382.8,551.2 383.4,552.8 384.0,551.7 384.6,552.2 385.2,552.7 385.8,553.1 386.4,553.4 387.0,553.7 387.5,554.0 388.1,554.2 388.7,554.4 389.3,554.5 389.9,554.6 390.5,554.5 391.1,554.5 391.7,554.4 392.3,554.2 392.9,554.1 393.5,553.9 394.0,553.7 394.6,553.6 395.2,527.4 395.8,482.5 396.4,512.5 397.0,554.4 397.6,576.4 398.2,581.3 398.8,577.9 399.4,571.8 400.0,565.9 400.5,561.1 401.1,557.6 401.7,555.2 402.3,553.9 402.9,536.4 403.5,524.8 404.1,538.8 404.7,558.1 405.3,567.9 405.9,570.1 406.5,568.4 407.0,565.3 407.6,562.1 408.2,559.2 408.8,556.8 409.4,555.0 410.0,553.3 410.6,552.7 411.2,552.3 411.8,551.8 412.4,551.4 413.0,551.2 413.5,551.0 414.1,536.1 414.7,486.8 415.3,480.3 415.9,507.9 416.5,537.3 417.1,557.4 417.7,568.9 418.3,574.6 418.9,576.7 419.5,576.9 420.0,576.2 420.6,574.9 421.2,573.5 421.8,571.9 422.4,570.3 423.0,568.4 423.6,566.1 424.2,563.3 424.8,559.8 425.4,555.6 426.0,550.8 426.5,552.9 427.1,554.5 427.7,554.2 428.3,554.0 428.9,553.6 429.5,552.3 430.1,550.2 430.7,547.9 431.3,545.8 431.9,544.3 432.5,543.5 433.0,543.3 433.6,543.7 434.2,544.5 434.8,549.6 435.4,548.6 436.0,553.6 436.6,550.3 437.2,551.8 437.8,553.3 438.4,554.7 439.0,555.9 439.5,557.0 440.1,557.9 440.7,558.5 441.3,559.0 441.9,559.3 442.5,559.4 443.1,559.4 443.7,559.3 444.3,559.1 444.9,558.7 445.5,558.3 446.1,557.9 446.6,557.4 447.2,556.9 447.8,556.5 448.4,556.0 449.0,555.6 449.6,555.2 450.2,554.8 450.8,554.5 451.4,554.2 452.0,554.0 452.6,553.8 453.1,553.7 453.7,553.6 454.3,552.8 454.9,510.0 455.5,483.9 456.1,521.7 456.7,558.6 457.3,575.9 457.9,579.0 458.5,575.6 459.1,570.3 459.6,565.4 460.2,561.5 460.8,558.6 461.4,556.6 462.0,555.3 462.6,551.5 463.2,547.7 463.8,551.0 464.4,556.6 465.0,558.5 465.6,557.3 466.1,557.0 466.7,556.4 467.3,555.7 467.9,555.0 468.5,554.5 469.1,554.0 469.7,553.7 470.3,553.5 470.9,553.4 471.5,553.4 472.1,553.3 472.6,553.3 473.2,553.3 473.8,553.2 474.4,553.1 475.0,552.9 475.6,552.7 476.2,504.4 476.8,454.3 477.4,512.3 478.0,568.5 478.6,592.7 479.1,595.2 479.7,588.6 480.3,579.6 480.9,571.2 481.5,564.4 482.1,559.3 482.7,555.8 483.3,553.5 483.9,552.1 484.5,537.9 485.1,522.3 485.6,528.6 486.2,550.7 486.8,565.0 487.4,570.3 488.0,570.1 488.6,567.5 489.2,564.2 489.8,561.0 490.4,558.3 491.0,556.1 491.6,554.2 492.1,553.0 492.7,552.0 493.3,552.1 493.9,551.6 494.5,547.1 495.1,472.7 495.7,471.9 496.3,539.2 496.9,584.8 497.5,598.0 498.1,593.8 498.6,584.0 499.2,574.2 499.8,566.0 500.4,559.8 501.0,555.4 501.6,552.5 502.2,550.8 502.8,549.9 503.4,549.5 504.0,549.4 504.6,549.5 505.2,549.7 505.7,552.1 506.3,550.5 506.9,554.3 507.5,551.9 508.1,551.8 508.7,552.2 509.3,552.7 509.9,553.2 510.5,553.8 511.1,554.3 511.7,554.9 512.2,555.4 512.8,555.8 513.4,556.1 514.0,556.4 514.6,556.5 515.2,556.6 515.8,556.5 516.4,556.4 517.0,556.1 517.6,555.9 518.2,555.5 518.7,555.2 519.3,554.8 519.9,554.5 520.5,554.2 521.1,553.9 521.7,553.6 522.3,553.5 522.9,506.8 523.5,465.8 524.1,510.6 524.7,558.2 525.2,581.5 525.8,586.6 526.4,583.0 527.0,576.7 527.6,570.4 528.2,565.2 528.8,561.3 529.4,558.4 530.0,556.4 530.6,555.1 531.2,537.9 531.7,528.4 532.3,541.0 532.9,558.3 533.5,566.6 534.1,568.1 534.7,566.3 535.3,563.3 535.9,560.3 536.5,557.6 537.1,555.5 537.7,553.8 538.2,552.6 538.8,552.0 539.4,551.4 540.0,551.2 540.6,551.0 541.2,495.7 541.8,428.9 542.4,498.1 543.0,576.9 543.6,609.5 544.2,609.8 544.7,598.0 545.3,584.6 545.9,573.2 546.5,564.6 547.1,558.5 547.7,554.4 548.3,551.9 548.9,550.4 549.5,549.6 550.1,549.2 550.7,549.2 551.2,549.3 551.8,551.8 552.4,550.1 553.0,552.3 553.6,552.9 554.2,551.4 554.8,551.9 555.4,552.4 556.0,552.9 556.6,553.5 557.2,554.1 557.7,554.7 558.3,555.2 558.9,555.7 559.5,556.0 560.1,556.3 560.7,556.5 561.3,556.5 561.9,556.5 562.5,556.4 563.1,556.1 563.7,555.9 564.2,555.5 564.8,555.2 565.4,554.8 566.0,554.5 566.6,554.2 567.2,553.9 567.8,553.7 568.4,553.5 569.0,529.8 569.6,515.3 570.2,520.2 570.8,539.8 571.3,554.2 571.9,561.8 572.5,564.8 573.1,565.2 573.7,564.4 574.3,562.9 574.9,561.4 575.5,560.0 576.1,558.8 576.7,557.8 577.3,557.0 577.8,556.5 578.4,556.0 579.0,555.7 579.6,555.5 580.2,555.3 580.8,555.2 581.4,555.1 582.0,555.0 582.6,554.9 583.2,554.9 583.8,554.4 584.3,554.8 584.9,554.9 585.5,555.4 586.1,555.1 586.7,554.6 587.3,554.5 587.9,554.5 588.5,554.4 589.1,554.3 589.7,554.3 590.3,554.2 590.8,554.2 591.4,554.1 592.0,554.0 592.6,554.0 593.2,553.9 593.8,553.9 594.4,553.8 595.0,553.8 595.6,553.8 596.2,553.7 596.8,553.7 597.3,553.7 597.9,553.6 598.5,553.6 599.1,553.6 599.7,553.6 600.3,553.6 600.9,553.6 601.5,553.6 602.1,553.6 602.7,553.6 603.3,553.6 603.8,553.6 604.4,553.6 605.0,553.6 605.6,553.6 606.2,553.6 606.8,553.6 607.4,553.6 608.0,553.6 608.6,553.6 609.2,553.6 609.8,553.6 610.3,553.6 610.9,553.6 611.5,553.6 612.1,553.6 612.7,553.6 613.3,553.6 613.9,553.6 614.5,553.6 615.1,553.6 615.7,553.6 616.3,553.6 616.8,553.6 617.4,553.6 618.0,553.6 618.6,553.6 619.2,553.6 619.8,553.6 620.4,553.6 621.0,553.6 621.6,553.6 622.2,553.6 622.8,553.6 623.3,553.6 623.9,553.6 624.5,553.6 625.1,553.6 625.7,553.6 626.3,553.6 626.9,553.5 627.5,553.5 628.1,553.6 628.7,553.6 629.3,553.6 629.8,553.6 630.4,553.6 631.0,553.6 631.6,553.6 632.2,553.6 632.8,553.6 633.4,553.6 634.0,553.6 634.6,553.6 635.2,553.6 635.8,553.6 636.4,553.6 636.9,553.6 637.5,553.6 638.1,553.6 638.7,553.6 639.3,553.6 639.9,553.6 640.5,553.6 641.1,553.6 641.7,553.6 642.3,553.6 642.9,553.6 643.4,553.6 644.0,553.6 644.6,553.6 645.2,553.6 645.8,553.6 646.4,553.6 647.0,553.6 647.6,553.6 648.2,553.5 648.8,553.6 649.4,553.6 649.9,553.5 650.5,553.6 651.1,553.6 651.7,553.6 652.3,553.6 652.9,553.6 653.5,553.6 654.1,553.6 654.7,553.5 655.3,553.6 655.9,553.1 656.4,553.0 657.0,553.3 657.6,553.6 658.2,553.7 658.8,553.8 659.4,553.7 660.0,553.7 660.6,553.6 661.2,553.5 661.8,553.5 662.4,553.5 662.9,549.9 663.5,545.1 664.1,549.2 664.7,553.8 665.3,556.2 665.9,556.8 666.5,556.4 667.1,555.7 667.7,555.0 668.3,554.4 668.9,554.0 669.4,553.7 670.0,553.5" fill="none" stroke="#c96b17" stroke-width="2.2" stroke-linejoin="round" stroke-linecap="round"/>
<polyline points="671.8,526.7 672.4,539.3 673.0,553.1 673.6,560.7 674.2,563.5 674.8,563.6 675.4,562.3 675.9,560.3 676.5,558.0 677.1,555.6 677.7,553.1 678.3,550.9 678.9,507.1 679.5,479.6 680.1,529.1 680.7,571.2 681.3,586.4 681.9,585.8 682.4,579.6 683.0,572.6 683.6,566.6 684.2,561.9 684.8,558.4 685.4,556.0 686.0,554.4 686.6,553.4 687.2,552.8 687.8,552.5 688.4,552.5 688.9,552.6 689.5,541.0 690.1,522.7 690.7,521.9 691.3,530.3 691.9,540.7 692.5,550.3 693.1,558.4 693.7,564.5 694.3,568.6 694.9,570.6 695.5,570.6 696.0,569.2 696.6,566.6 697.2,563.5 697.8,560.2 698.4,557.2 699.0,554.6 699.6,552.6 700.2,526.9 700.8,506.5 701.4,516.5 702.0,532.5 702.5,544.9 703.1,552.4 703.7,556.3 704.3,558.4 704.9,559.7 705.5,560.5 706.1,561.0 706.7,561.2 707.3,561.1 707.9,561.0 708.5,560.8 709.0,560.5 709.6,560.2 710.2,559.9 710.8,559.7 711.4,559.5 712.0,559.3 712.6,559.2 713.2,559.1 713.8,559.0 714.4,558.9 715.0,558.7 715.5,558.3 716.1,557.7 716.7,556.9 717.3,555.8 717.9,554.3 718.5,552.6 719.1,551.4" fill="none" stroke="#c96b17" stroke-width="2.2" stroke-linejoin="round" stroke-linecap="round"/>
<polyline points="720.9,551.1 721.5,549.0 722.0,547.0 722.6,545.9 723.2,545.8 723.8,546.6 724.4,548.0 725.0,549.7 725.6,556.4 726.2,554.0 726.8,558.6 727.4,555.8 728.0,556.5 728.5,557.0 729.1,557.2 729.7,557.2 730.3,557.1 730.9,556.9 731.5,556.6 732.1,556.3 732.7,556.0 733.3,555.7 733.9,555.4 734.5,555.2 735.0,555.0 735.6,554.9 736.2,554.7 736.8,554.6 737.4,554.5 738.0,554.4 738.6,554.4 739.2,554.3 739.8,554.3 740.4,554.2 741.0,554.2 741.5,554.1 742.1,554.1 742.7,554.1 743.3,554.1 743.9,554.0 744.5,554.0 745.1,554.0 745.7,553.9 746.3,553.9 746.9,553.9 747.5,553.8 748.0,553.8 748.6,553.8 749.2,553.8 749.8,553.8 750.4,553.7 751.0,553.7 751.6,553.7 752.2,553.7 752.8,553.7 753.4,553.6 754.0,553.6 754.5,553.6 755.1,553.6 755.7,553.6 756.3,553.6 756.9,553.6 757.5,553.6 758.1,553.6 758.7,553.6 759.3,553.6 759.9,553.6 760.5,553.6 761.1,553.6 761.6,553.6 762.2,553.6 762.8,553.6 763.4,553.6 764.0,553.6 764.6,553.6 765.2,553.6 765.8,553.6 766.4,553.6 767.0,553.6 767.6,553.6 768.1,553.6 768.7,553.6 769.3,553.6 769.9,553.6 770.5,553.6 771.1,553.6 771.7,553.6 772.3,553.6 772.9,553.6 773.5,553.6 774.1,553.6 774.6,553.6 775.2,553.6 775.8,553.6 776.4,553.6 777.0,553.6 777.6,553.6 778.2,553.6 778.8,553.6 779.4,553.6 780.0,553.6 780.6,553.6 781.1,553.6 781.7,553.6 782.3,553.6 782.9,553.6 783.5,553.6 784.1,553.6 784.7,553.6 785.3,553.6 785.9,553.6 786.5,553.6 787.1,553.6 787.6,553.6 788.2,553.6 788.8,553.6 789.4,553.6 790.0,553.6 790.6,553.6 791.2,553.6 791.8,553.6 792.4,553.6 793.0,553.6 793.6,553.5 794.1,553.5 794.7,553.6 795.3,553.6 795.9,553.6 796.5,553.6 797.1,553.6 797.7,553.6 798.3,553.6 798.9,553.6 799.5,553.6 800.1,553.6 800.6,553.6 801.2,553.6 801.8,553.6 802.4,553.6 803.0,553.6 803.6,553.6 804.2,553.7 804.8,553.5 805.4,553.6 806.0,553.4 806.6,544.3 807.1,540.2 807.7,535.2 808.3,538.1 808.9,541.9 809.5,545.4 810.1,548.5 810.7,551.4 811.3,554.0 811.9,556.3 812.5,558.2 813.1,559.6 813.6,560.5 814.2,560.8 814.8,560.7 815.4,560.1 816.0,559.2 816.6,558.2 817.2,557.0 817.8,555.8 818.4,554.7 819.0,553.7 819.6,552.9 820.2,477.0 820.7,420.2 821.3,494.6 821.9,566.6 822.5,600.5 823.1,607.3 823.7,601.6 824.3,591.9 824.9,582.1 825.5,573.8 826.1,567.4 826.7,562.6 827.2,559.1 827.8,556.7 828.4,555.0 829.0,536.9 829.6,527.8 830.2,540.7 830.8,557.8 831.4,566.0 832.0,567.4 832.6,565.5 833.2,562.6 833.7,559.6 834.3,557.0 834.9,554.9 835.5,553.3 836.1,552.3 836.7,551.6 837.3,550.9 837.9,551.0 838.5,481.0 839.1,456.4 839.7,526.3 840.2,581.2 840.8,600.0 841.4,597.9 842.0,588.4 842.6,578.2 843.2,569.4 843.8,562.7 844.4,557.8 845.0,554.4 845.6,552.2 846.2,550.8 846.7,550.1 847.3,549.7 847.9,549.6 848.5,550.2 849.1,551.3 849.7,550.2 850.3,553.9 850.9,551.3 851.5,551.3 852.1,551.8 852.7,552.2 853.2,552.8 853.8,553.3 854.4,553.9 855.0,554.5 855.6,555.0 856.2,555.4 856.8,555.8 857.4,556.1 858.0,556.2 858.6,556.3 859.2,556.2 859.7,556.1 860.3,555.9 860.9,555.6 861.5,555.3 862.1,554.9 862.7,554.6 863.3,554.3 863.9,554.0 864.5,553.7 865.1,553.5 865.7,547.9 866.2,522.8 866.8,518.1 867.4,540.3 868.0,558.8 868.6,567.5 869.2,569.4 869.8,568.0 870.4,565.4 871.0,562.6 871.6,560.1 872.2,558.0 872.7,556.4 873.3,555.1 873.9,554.2 874.5,553.5 875.1,541.2 875.7,532.0 876.3,546.2 876.9,559.2 877.5,564.3 878.1,564.1 878.7,561.8 879.2,559.0 879.8,556.4 880.4,554.4 881.0,552.9 881.6,551.9 882.2,552.0 882.8,551.1 883.4,550.9 884.0,550.7 884.6,532.7 885.2,515.3 885.8,521.3 886.3,535.7 886.9,547.9 887.5,555.9 888.1,560.6 888.7,563.2 889.3,564.5 889.9,565.1 890.5,565.1 891.1,564.8 891.7,564.3 892.3,563.5 892.8,562.6 893.4,561.5 894.0,560.4 894.6,559.1 895.2,557.7 895.8,556.2 896.4,554.7 897.0,553.2 897.6,551.8 898.2,550.6 898.8,549.7 899.3,549.1 899.9,548.8 900.5,548.9 901.1,549.3 901.7,550.0 902.3,550.9 902.9,553.3 903.5,554.6 904.1,554.1 904.7,555.0 905.3,555.7 905.8,556.3 906.4,556.6 907.0,556.7 907.6,556.7 908.2,556.4 908.8,555.7 909.4,556.4 910.0,556.1 910.6,555.8 911.2,555.5 911.8,555.3 912.3,555.0 912.9,554.8 913.5,554.7 914.1,554.5 914.7,554.4 915.3,554.2 915.9,554.1 916.5,554.0 917.1,553.9 917.7,553.8 918.3,553.7 918.8,553.6 919.4,553.5 920.0,553.4 920.6,553.3 921.2,553.2 921.8,553.2 922.4,553.1 923.0,549.9 923.6,549.7 924.2,550.8 924.8,550.6 925.3,552.1 925.9,553.4 926.5,554.4 927.1,555.1 927.7,555.5 928.3,555.8 928.9,555.8 929.5,555.7 930.1,555.5 930.7,555.2 931.3,554.8 931.8,554.5 932.4,554.1 933.0,553.7 933.6,553.8 934.2,553.6 934.8,553.5 935.4,553.5 936.0,553.4 936.6,553.3 937.2,553.3 937.8,553.3 938.3,553.3 938.9,553.3 939.5,553.4 940.1,553.4 940.7,553.4 941.3,553.4 941.9,553.5 942.5,553.5 943.1,553.5 943.7,553.5 944.3,553.5 944.8,553.6 945.4,552.5 946.0,546.5 946.6,548.0 947.2,554.2 947.8,557.8 948.4,558.3 949.0,557.1 949.6,555.5 950.2,554.0 950.8,553.2 951.4,552.6 951.9,551.8 952.5,551.2 953.1,550.8 953.7,550.6 954.3,550.6 954.9,550.6 955.5,550.8 956.1,551.0 956.7,551.3 957.3,551.7 957.9,552.1 958.4,552.5 959.0,553.0 959.6,553.4 960.2,553.9 960.8,554.3 961.4,554.7 962.0,555.1 962.6,555.4 963.2,555.7 963.8,555.9 964.4,556.0 964.9,556.0 965.5,556.0 966.1,555.9 966.7,555.7 967.3,555.5 967.9,555.3 968.5,555.0 969.1,554.7 969.7,554.3 970.3,554.0 970.9,553.7 971.4,553.4 972.0,553.2 972.6,552.9 973.2,552.8 973.8,552.7 974.4,552.7 975.0,552.7 975.6,552.7 976.2,552.8 976.8,553.0 977.4,553.1 977.9,553.3 978.5,553.5 979.1,553.6 979.7,553.7 980.3,553.9 980.9,554.0 981.5,554.0 982.1,554.1 982.7,554.1 983.3,554.1 983.9,554.1 984.4,554.0 985.0,554.0 985.6,553.9 986.2,553.9 986.8,553.8 987.4,553.7 988.0,553.7 988.6,553.6 989.2,553.6 989.8,553.5 990.4,553.5 990.9,553.5 991.5,553.4 992.1,553.4 992.7,553.4 993.3,553.4 993.9,553.4 994.5,553.4 995.1,553.4 995.7,553.4 996.3,553.4 996.9,553.4 997.4,553.5 998.0,553.5 998.6,553.5 999.2,553.5 999.8,553.6 1000.4,553.6 1001.0,553.6 1001.6,553.6 1002.2,553.7 1002.8,553.7 1003.4,553.7 1003.9,553.7 1004.5,553.7 1005.1,553.7 1005.7,553.8 1006.3,553.9 1006.9,553.8 1007.5,553.8 1008.1,553.8 1008.7,553.8 1009.3,553.8 1009.9,553.8 1010.5,553.7 1011.0,553.7 1011.6,553.7 1012.2,553.7 1012.8,553.7 1013.4,553.7 1014.0,553.7 1014.6,553.7 1015.2,553.7 1015.8,553.6 1016.4,553.6 1017.0,553.6 1017.5,553.6 1018.1,553.6 1018.7,553.6 1019.3,553.6 1019.9,553.6 1020.5,553.6 1021.1,553.6 1021.7,553.6 1022.3,553.6 1022.9,553.6 1023.5,553.6 1024.0,553.6 1024.6,553.6 1025.2,553.6 1025.8,553.6 1026.4,553.6 1027.0,553.6 1027.6,553.6 1028.2,553.6 1028.8,553.6 1029.4,553.6 1030.0,553.6 1030.5,553.6 1031.1,553.6 1031.7,553.6 1032.3,553.6 1032.9,553.6 1033.5,553.6 1034.1,553.6 1034.7,553.6 1035.3,553.6 1035.9,553.6 1036.5,553.6 1037.0,553.6 1037.6,553.6 1038.2,553.6 1038.8,553.6 1039.4,553.6 1040.0,553.6" fill="none" stroke="#c96b17" stroke-width="2.2" stroke-linejoin="round" stroke-linecap="round"/>
<circle cx="96.2" cy="553.4" r="2.1" fill="#b3261e" opacity="0.8"/>
<circle cx="97.4" cy="553.2" r="2.1" fill="#b3261e" opacity="0.8"/>
<circle cx="98.5" cy="552.9" r="2.1" fill="#b3261e" opacity="0.8"/>
<circle cx="99.7" cy="553.1" r="2.1" fill="#b3261e" opacity="0.8"/>
<circle cx="100.9" cy="553.3" r="2.1" fill="#b3261e" opacity="0.8"/>
<circle cx="102.1" cy="553.5" r="2.1" fill="#b3261e" opacity="0.8"/>
<circle cx="228.6" cy="553.6" r="2.1" fill="#b3261e" opacity="0.8"/>
<circle cx="233.3" cy="553.6" r="2.1" fill="#b3261e" opacity="0.8"/>
<circle cx="234.5" cy="553.6" r="2.1" fill="#b3261e" opacity="0.8"/>
<circle cx="235.7" cy="553.4" r="2.1" fill="#b3261e" opacity="0.8"/>
<circle cx="240.4" cy="553.6" r="2.1" fill="#b3261e" opacity="0.8"/>
<circle cx="241.6" cy="536.4" r="2.1" fill="#b3261e" opacity="0.8"/>
<circle cx="242.7" cy="537.1" r="2.1" fill="#b3261e" opacity="0.8"/>
<circle cx="248.7" cy="551.9" r="2.1" fill="#b3261e" opacity="0.8"/>
<circle cx="249.8" cy="494.2" r="2.1" fill="#b3261e" opacity="0.8"/>
<circle cx="256.9" cy="553.0" r="2.1" fill="#b3261e" opacity="0.8"/>
<circle cx="258.1" cy="552.6" r="2.1" fill="#b3261e" opacity="0.8"/>
<circle cx="259.3" cy="515.9" r="2.1" fill="#b3261e" opacity="0.8"/>
<circle cx="265.2" cy="553.5" r="2.1" fill="#b3261e" opacity="0.8"/>
<circle cx="266.4" cy="548.4" r="2.1" fill="#b3261e" opacity="0.8"/>
<circle cx="267.6" cy="548.2" r="2.1" fill="#b3261e" opacity="0.8"/>
<circle cx="268.8" cy="544.2" r="2.1" fill="#b3261e" opacity="0.8"/>
<circle cx="269.9" cy="544.0" r="2.1" fill="#b3261e" opacity="0.8"/>
<circle cx="271.1" cy="545.2" r="2.1" fill="#b3261e" opacity="0.8"/>
<circle cx="272.3" cy="547.4" r="2.1" fill="#b3261e" opacity="0.8"/>
<circle cx="273.5" cy="550.3" r="2.1" fill="#b3261e" opacity="0.8"/>
<circle cx="274.7" cy="553.3" r="2.1" fill="#b3261e" opacity="0.8"/>
<circle cx="287.7" cy="552.0" r="2.1" fill="#b3261e" opacity="0.8"/>
<circle cx="288.8" cy="549.6" r="2.1" fill="#b3261e" opacity="0.8"/>
<circle cx="290.0" cy="548.2" r="2.1" fill="#b3261e" opacity="0.8"/>
<circle cx="291.2" cy="548.3" r="2.1" fill="#b3261e" opacity="0.8"/>
<circle cx="292.4" cy="549.8" r="2.1" fill="#b3261e" opacity="0.8"/>
<circle cx="293.6" cy="553.0" r="2.1" fill="#b3261e" opacity="0.8"/>
<circle cx="305.4" cy="553.2" r="2.1" fill="#b3261e" opacity="0.8"/>
<circle cx="306.6" cy="553.1" r="2.1" fill="#b3261e" opacity="0.8"/>
<circle cx="307.8" cy="553.0" r="2.1" fill="#b3261e" opacity="0.8"/>
<circle cx="308.9" cy="552.9" r="2.1" fill="#b3261e" opacity="0.8"/>
<circle cx="310.1" cy="553.2" r="2.1" fill="#b3261e" opacity="0.8"/>
<circle cx="311.3" cy="553.5" r="2.1" fill="#b3261e" opacity="0.8"/>
<circle cx="331.4" cy="553.0" r="2.1" fill="#b3261e" opacity="0.8"/>
<circle cx="333.2" cy="552.9" r="2.1" fill="#b3261e" opacity="0.8"/>
<circle cx="334.4" cy="551.8" r="2.1" fill="#b3261e" opacity="0.8"/>
<circle cx="335.5" cy="550.9" r="2.1" fill="#b3261e" opacity="0.8"/>
<circle cx="336.7" cy="551.4" r="2.1" fill="#b3261e" opacity="0.8"/>
<circle cx="337.9" cy="553.5" r="2.1" fill="#b3261e" opacity="0.8"/>
<circle cx="339.1" cy="550.9" r="2.1" fill="#b3261e" opacity="0.8"/>
<circle cx="340.3" cy="551.7" r="2.1" fill="#b3261e" opacity="0.8"/>
<circle cx="341.4" cy="552.7" r="2.1" fill="#b3261e" opacity="0.8"/>
<circle cx="352.1" cy="553.5" r="2.1" fill="#b3261e" opacity="0.8"/>
<circle cx="353.3" cy="553.3" r="2.1" fill="#b3261e" opacity="0.8"/>
<circle cx="354.4" cy="553.3" r="2.1" fill="#b3261e" opacity="0.8"/>
<circle cx="355.6" cy="553.4" r="2.1" fill="#b3261e" opacity="0.8"/>
<circle cx="371.6" cy="553.6" r="2.1" fill="#b3261e" opacity="0.8"/>
<circle cx="372.8" cy="553.6" r="2.1" fill="#b3261e" opacity="0.8"/>
<circle cx="373.9" cy="545.3" r="2.1" fill="#b3261e" opacity="0.8"/>
<circle cx="375.1" cy="547.5" r="2.1" fill="#b3261e" opacity="0.8"/>
<circle cx="381.6" cy="553.6" r="2.1" fill="#b3261e" opacity="0.8"/>
<circle cx="382.8" cy="551.2" r="2.1" fill="#b3261e" opacity="0.8"/>
<circle cx="384.0" cy="551.7" r="2.1" fill="#b3261e" opacity="0.8"/>
<circle cx="385.2" cy="552.7" r="2.1" fill="#b3261e" opacity="0.8"/>
<circle cx="386.4" cy="553.4" r="2.1" fill="#b3261e" opacity="0.8"/>
<circle cx="395.2" cy="527.4" r="2.1" fill="#b3261e" opacity="0.8"/>
<circle cx="396.4" cy="512.5" r="2.1" fill="#b3261e" opacity="0.8"/>
<circle cx="403.5" cy="524.8" r="2.1" fill="#b3261e" opacity="0.8"/>
<circle cx="410.0" cy="553.3" r="2.1" fill="#b3261e" opacity="0.8"/>
<circle cx="411.2" cy="552.3" r="2.1" fill="#b3261e" opacity="0.8"/>
<circle cx="412.4" cy="551.4" r="2.1" fill="#b3261e" opacity="0.8"/>
<circle cx="413.5" cy="551.0" r="2.1" fill="#b3261e" opacity="0.8"/>
<circle cx="414.7" cy="486.8" r="2.1" fill="#b3261e" opacity="0.8"/>
<circle cx="415.9" cy="507.9" r="2.1" fill="#b3261e" opacity="0.8"/>
<circle cx="426.0" cy="550.8" r="2.1" fill="#b3261e" opacity="0.8"/>
<circle cx="429.5" cy="552.3" r="2.1" fill="#b3261e" opacity="0.8"/>
<circle cx="430.7" cy="547.9" r="2.1" fill="#b3261e" opacity="0.8"/>
<circle cx="431.9" cy="544.3" r="2.1" fill="#b3261e" opacity="0.8"/>
<circle cx="433.0" cy="543.3" r="2.1" fill="#b3261e" opacity="0.8"/>
<circle cx="434.2" cy="544.5" r="2.1" fill="#b3261e" opacity="0.8"/>
<circle cx="435.4" cy="548.6" r="2.1" fill="#b3261e" opacity="0.8"/>
<circle cx="437.2" cy="551.8" r="2.1" fill="#b3261e" opacity="0.8"/>
<circle cx="453.7" cy="553.6" r="2.1" fill="#b3261e" opacity="0.8"/>
<circle cx="454.9" cy="510.0" r="2.1" fill="#b3261e" opacity="0.8"/>
<circle cx="456.1" cy="521.7" r="2.1" fill="#b3261e" opacity="0.8"/>
<circle cx="463.2" cy="547.7" r="2.1" fill="#b3261e" opacity="0.8"/>
<circle cx="470.3" cy="553.5" r="2.1" fill="#b3261e" opacity="0.8"/>
<circle cx="471.5" cy="553.4" r="2.1" fill="#b3261e" opacity="0.8"/>
<circle cx="472.6" cy="553.3" r="2.1" fill="#b3261e" opacity="0.8"/>
<circle cx="473.8" cy="553.2" r="2.1" fill="#b3261e" opacity="0.8"/>
<circle cx="475.0" cy="552.9" r="2.1" fill="#b3261e" opacity="0.8"/>
<circle cx="476.2" cy="504.4" r="2.1" fill="#b3261e" opacity="0.8"/>
<circle cx="477.4" cy="512.3" r="2.1" fill="#b3261e" opacity="0.8"/>
<circle cx="483.9" cy="552.1" r="2.1" fill="#b3261e" opacity="0.8"/>
<circle cx="485.1" cy="522.3" r="2.1" fill="#b3261e" opacity="0.8"/>
<circle cx="486.2" cy="550.7" r="2.1" fill="#b3261e" opacity="0.8"/>
<circle cx="492.7" cy="552.0" r="2.1" fill="#b3261e" opacity="0.8"/>
<circle cx="493.9" cy="551.6" r="2.1" fill="#b3261e" opacity="0.8"/>
<circle cx="495.1" cy="472.7" r="2.1" fill="#b3261e" opacity="0.8"/>
<circle cx="496.3" cy="539.2" r="2.1" fill="#b3261e" opacity="0.8"/>
<circle cx="502.2" cy="550.8" r="2.1" fill="#b3261e" opacity="0.8"/>
<circle cx="503.4" cy="549.5" r="2.1" fill="#b3261e" opacity="0.8"/>
<circle cx="504.6" cy="549.5" r="2.1" fill="#b3261e" opacity="0.8"/>
<circle cx="505.7" cy="552.1" r="2.1" fill="#b3261e" opacity="0.8"/>
<circle cx="507.5" cy="551.9" r="2.1" fill="#b3261e" opacity="0.8"/>
<circle cx="508.7" cy="552.2" r="2.1" fill="#b3261e" opacity="0.8"/>
<circle cx="509.9" cy="553.2" r="2.1" fill="#b3261e" opacity="0.8"/>
<circle cx="522.9" cy="506.8" r="2.1" fill="#b3261e" opacity="0.8"/>
<circle cx="524.1" cy="510.6" r="2.1" fill="#b3261e" opacity="0.8"/>
<circle cx="531.7" cy="528.4" r="2.1" fill="#b3261e" opacity="0.8"/>
<circle cx="538.2" cy="552.6" r="2.1" fill="#b3261e" opacity="0.8"/>
<circle cx="539.4" cy="551.4" r="2.1" fill="#b3261e" opacity="0.8"/>
<circle cx="540.6" cy="551.0" r="2.1" fill="#b3261e" opacity="0.8"/>
<circle cx="541.8" cy="428.9" r="2.1" fill="#b3261e" opacity="0.8"/>
<circle cx="548.3" cy="551.9" r="2.1" fill="#b3261e" opacity="0.8"/>
<circle cx="549.5" cy="549.6" r="2.1" fill="#b3261e" opacity="0.8"/>
<circle cx="550.7" cy="549.2" r="2.1" fill="#b3261e" opacity="0.8"/>
<circle cx="551.8" cy="551.8" r="2.1" fill="#b3261e" opacity="0.8"/>
<circle cx="553.0" cy="552.3" r="2.1" fill="#b3261e" opacity="0.8"/>
<circle cx="554.2" cy="551.4" r="2.1" fill="#b3261e" opacity="0.8"/>
<circle cx="555.4" cy="552.4" r="2.1" fill="#b3261e" opacity="0.8"/>
<circle cx="556.6" cy="553.5" r="2.1" fill="#b3261e" opacity="0.8"/>
<circle cx="569.0" cy="529.8" r="2.1" fill="#b3261e" opacity="0.8"/>
<circle cx="570.2" cy="520.2" r="2.1" fill="#b3261e" opacity="0.8"/>
<circle cx="601.5" cy="553.6" r="2.1" fill="#b3261e" opacity="0.8"/>
<circle cx="602.7" cy="553.6" r="2.1" fill="#b3261e" opacity="0.8"/>
<circle cx="603.8" cy="553.6" r="2.1" fill="#b3261e" opacity="0.8"/>
<circle cx="605.0" cy="553.6" r="2.1" fill="#b3261e" opacity="0.8"/>
<circle cx="606.2" cy="553.6" r="2.1" fill="#b3261e" opacity="0.8"/>
<circle cx="607.4" cy="553.6" r="2.1" fill="#b3261e" opacity="0.8"/>
<circle cx="608.6" cy="553.6" r="2.1" fill="#b3261e" opacity="0.8"/>
<circle cx="626.3" cy="553.6" r="2.1" fill="#b3261e" opacity="0.8"/>
<circle cx="627.5" cy="553.5" r="2.1" fill="#b3261e" opacity="0.8"/>
<circle cx="636.4" cy="553.6" r="2.1" fill="#b3261e" opacity="0.8"/>
<circle cx="648.2" cy="553.5" r="2.1" fill="#b3261e" opacity="0.8"/>
<circle cx="649.9" cy="553.5" r="2.1" fill="#b3261e" opacity="0.8"/>
<circle cx="654.7" cy="553.5" r="2.1" fill="#b3261e" opacity="0.8"/>
<circle cx="656.4" cy="553.0" r="2.1" fill="#b3261e" opacity="0.8"/>
<circle cx="661.2" cy="553.5" r="2.1" fill="#b3261e" opacity="0.8"/>
<circle cx="662.4" cy="553.5" r="2.1" fill="#b3261e" opacity="0.8"/>
<circle cx="663.5" cy="545.1" r="2.1" fill="#b3261e" opacity="0.8"/>
<circle cx="670.0" cy="553.5" r="2.1" fill="#b3261e" opacity="0.8"/>
<circle cx="672.4" cy="539.3" r="2.1" fill="#b3261e" opacity="0.8"/>
<circle cx="677.7" cy="553.1" r="2.1" fill="#b3261e" opacity="0.8"/>
<circle cx="678.9" cy="507.1" r="2.1" fill="#b3261e" opacity="0.8"/>
<circle cx="680.1" cy="529.1" r="2.1" fill="#b3261e" opacity="0.8"/>
<circle cx="687.2" cy="552.8" r="2.1" fill="#b3261e" opacity="0.8"/>
<circle cx="688.4" cy="552.5" r="2.1" fill="#b3261e" opacity="0.8"/>
<circle cx="689.5" cy="541.0" r="2.1" fill="#b3261e" opacity="0.8"/>
<circle cx="690.7" cy="521.9" r="2.1" fill="#b3261e" opacity="0.8"/>
<circle cx="691.9" cy="540.7" r="2.1" fill="#b3261e" opacity="0.8"/>
<circle cx="699.6" cy="552.6" r="2.1" fill="#b3261e" opacity="0.8"/>
<circle cx="700.8" cy="506.5" r="2.1" fill="#b3261e" opacity="0.8"/>
<circle cx="702.0" cy="532.5" r="2.1" fill="#b3261e" opacity="0.8"/>
<circle cx="703.1" cy="552.4" r="2.1" fill="#b3261e" opacity="0.8"/>
<circle cx="719.1" cy="551.4" r="2.1" fill="#b3261e" opacity="0.8"/>
<circle cx="721.5" cy="549.0" r="2.1" fill="#b3261e" opacity="0.8"/>
<circle cx="722.6" cy="545.9" r="2.1" fill="#b3261e" opacity="0.8"/>
<circle cx="723.8" cy="546.6" r="2.1" fill="#b3261e" opacity="0.8"/>
<circle cx="725.0" cy="549.7" r="2.1" fill="#b3261e" opacity="0.8"/>
<circle cx="763.4" cy="553.6" r="2.1" fill="#b3261e" opacity="0.8"/>
<circle cx="764.6" cy="553.6" r="2.1" fill="#b3261e" opacity="0.8"/>
<circle cx="784.7" cy="553.6" r="2.1" fill="#b3261e" opacity="0.8"/>
<circle cx="785.9" cy="553.6" r="2.1" fill="#b3261e" opacity="0.8"/>
<circle cx="793.6" cy="553.5" r="2.1" fill="#b3261e" opacity="0.8"/>
<circle cx="803.6" cy="553.6" r="2.1" fill="#b3261e" opacity="0.8"/>
<circle cx="806.0" cy="553.4" r="2.1" fill="#b3261e" opacity="0.8"/>
<circle cx="807.1" cy="540.2" r="2.1" fill="#b3261e" opacity="0.8"/>
<circle cx="808.3" cy="538.1" r="2.1" fill="#b3261e" opacity="0.8"/>
<circle cx="809.5" cy="545.4" r="2.1" fill="#b3261e" opacity="0.8"/>
<circle cx="810.7" cy="551.4" r="2.1" fill="#b3261e" opacity="0.8"/>
<circle cx="820.2" cy="477.0" r="2.1" fill="#b3261e" opacity="0.8"/>
<circle cx="821.3" cy="494.6" r="2.1" fill="#b3261e" opacity="0.8"/>
<circle cx="829.6" cy="527.8" r="2.1" fill="#b3261e" opacity="0.8"/>
<circle cx="835.5" cy="553.3" r="2.1" fill="#b3261e" opacity="0.8"/>
<circle cx="836.7" cy="551.6" r="2.1" fill="#b3261e" opacity="0.8"/>
<circle cx="837.9" cy="551.0" r="2.1" fill="#b3261e" opacity="0.8"/>
<circle cx="839.1" cy="456.4" r="2.1" fill="#b3261e" opacity="0.8"/>
<circle cx="845.6" cy="552.2" r="2.1" fill="#b3261e" opacity="0.8"/>
<circle cx="846.7" cy="550.1" r="2.1" fill="#b3261e" opacity="0.8"/>
<circle cx="847.9" cy="549.6" r="2.1" fill="#b3261e" opacity="0.8"/>
<circle cx="849.1" cy="551.3" r="2.1" fill="#b3261e" opacity="0.8"/>
<circle cx="850.9" cy="551.3" r="2.1" fill="#b3261e" opacity="0.8"/>
<circle cx="852.1" cy="551.8" r="2.1" fill="#b3261e" opacity="0.8"/>
<circle cx="853.2" cy="552.8" r="2.1" fill="#b3261e" opacity="0.8"/>
<circle cx="865.1" cy="553.5" r="2.1" fill="#b3261e" opacity="0.8"/>
<circle cx="866.2" cy="522.8" r="2.1" fill="#b3261e" opacity="0.8"/>
<circle cx="867.4" cy="540.3" r="2.1" fill="#b3261e" opacity="0.8"/>
<circle cx="875.1" cy="541.2" r="2.1" fill="#b3261e" opacity="0.8"/>
<circle cx="876.3" cy="546.2" r="2.1" fill="#b3261e" opacity="0.8"/>
<circle cx="881.6" cy="551.9" r="2.1" fill="#b3261e" opacity="0.8"/>
<circle cx="882.8" cy="551.1" r="2.1" fill="#b3261e" opacity="0.8"/>
<circle cx="884.0" cy="550.7" r="2.1" fill="#b3261e" opacity="0.8"/>
<circle cx="885.2" cy="515.3" r="2.1" fill="#b3261e" opacity="0.8"/>
<circle cx="886.3" cy="535.7" r="2.1" fill="#b3261e" opacity="0.8"/>
<circle cx="897.0" cy="553.2" r="2.1" fill="#b3261e" opacity="0.8"/>
<circle cx="898.2" cy="550.6" r="2.1" fill="#b3261e" opacity="0.8"/>
<circle cx="899.3" cy="549.1" r="2.1" fill="#b3261e" opacity="0.8"/>
<circle cx="900.5" cy="548.9" r="2.1" fill="#b3261e" opacity="0.8"/>
<circle cx="901.7" cy="550.0" r="2.1" fill="#b3261e" opacity="0.8"/>
<circle cx="902.9" cy="553.3" r="2.1" fill="#b3261e" opacity="0.8"/>
<circle cx="919.4" cy="553.5" r="2.1" fill="#b3261e" opacity="0.8"/>
<circle cx="920.6" cy="553.3" r="2.1" fill="#b3261e" opacity="0.8"/>
<circle cx="921.8" cy="553.2" r="2.1" fill="#b3261e" opacity="0.8"/>
<circle cx="923.0" cy="549.9" r="2.1" fill="#b3261e" opacity="0.8"/>
<circle cx="924.2" cy="550.8" r="2.1" fill="#b3261e" opacity="0.8"/>
<circle cx="925.3" cy="552.1" r="2.1" fill="#b3261e" opacity="0.8"/>
<circle cx="934.8" cy="553.5" r="2.1" fill="#b3261e" opacity="0.8"/>
<circle cx="936.0" cy="553.4" r="2.1" fill="#b3261e" opacity="0.8"/>
<circle cx="937.2" cy="553.3" r="2.1" fill="#b3261e" opacity="0.8"/>
<circle cx="938.3" cy="553.3" r="2.1" fill="#b3261e" opacity="0.8"/>
<circle cx="939.5" cy="553.4" r="2.1" fill="#b3261e" opacity="0.8"/>
<circle cx="940.7" cy="553.4" r="2.1" fill="#b3261e" opacity="0.8"/>
<circle cx="941.9" cy="553.5" r="2.1" fill="#b3261e" opacity="0.8"/>
<circle cx="943.1" cy="553.5" r="2.1" fill="#b3261e" opacity="0.8"/>
<circle cx="944.3" cy="553.5" r="2.1" fill="#b3261e" opacity="0.8"/>
<circle cx="946.0" cy="546.5" r="2.1" fill="#b3261e" opacity="0.8"/>
<circle cx="950.8" cy="553.2" r="2.1" fill="#b3261e" opacity="0.8"/>
<circle cx="951.9" cy="551.8" r="2.1" fill="#b3261e" opacity="0.8"/>
<circle cx="953.1" cy="550.8" r="2.1" fill="#b3261e" opacity="0.8"/>
<circle cx="954.3" cy="550.6" r="2.1" fill="#b3261e" opacity="0.8"/>
<circle cx="955.5" cy="550.8" r="2.1" fill="#b3261e" opacity="0.8"/>
<circle cx="956.7" cy="551.3" r="2.1" fill="#b3261e" opacity="0.8"/>
<circle cx="957.9" cy="552.1" r="2.1" fill="#b3261e" opacity="0.8"/>
<circle cx="959.0" cy="553.0" r="2.1" fill="#b3261e" opacity="0.8"/>
<circle cx="971.4" cy="553.4" r="2.1" fill="#b3261e" opacity="0.8"/>
<circle cx="972.6" cy="552.9" r="2.1" fill="#b3261e" opacity="0.8"/>
<circle cx="973.8" cy="552.7" r="2.1" fill="#b3261e" opacity="0.8"/>
<circle cx="975.0" cy="552.7" r="2.1" fill="#b3261e" opacity="0.8"/>
<circle cx="976.2" cy="552.8" r="2.1" fill="#b3261e" opacity="0.8"/>
<circle cx="977.4" cy="553.1" r="2.1" fill="#b3261e" opacity="0.8"/>
<circle cx="978.5" cy="553.5" r="2.1" fill="#b3261e" opacity="0.8"/>
<circle cx="989.8" cy="553.5" r="2.1" fill="#b3261e" opacity="0.8"/>
<circle cx="990.9" cy="553.5" r="2.1" fill="#b3261e" opacity="0.8"/>
<circle cx="992.1" cy="553.4" r="2.1" fill="#b3261e" opacity="0.8"/>
<circle cx="993.3" cy="553.4" r="2.1" fill="#b3261e" opacity="0.8"/>
<circle cx="994.5" cy="553.4" r="2.1" fill="#b3261e" opacity="0.8"/>
<circle cx="995.7" cy="553.4" r="2.1" fill="#b3261e" opacity="0.8"/>
<circle cx="996.9" cy="553.4" r="2.1" fill="#b3261e" opacity="0.8"/>
<circle cx="998.0" cy="553.5" r="2.1" fill="#b3261e" opacity="0.8"/>
<circle cx="999.2" cy="553.5" r="2.1" fill="#b3261e" opacity="0.8"/>
<text x="95" y="393" font-size="16" font-weight="700" fill="#1f2937">Logged Delta V = V_k - V_{k-1}</text>
<text x="95" y="653" font-size="12" fill="#6b7280">step</text>
<line x1="95.0" x2="95.0" y1="625" y2="630" stroke="#6b7280"/>
<text x="95.0" y="645" font-size="12" text-anchor="middle" fill="#6b7280">0</text>
<line x1="567.5" x2="567.5" y1="625" y2="630" stroke="#6b7280"/>
<text x="567.5" y="645" font-size="12" text-anchor="middle" fill="#6b7280">799</text>
<line x1="1040.0" x2="1040.0" y1="625" y2="630" stroke="#6b7280"/>
<text x="1040.0" y="645" font-size="12" text-anchor="middle" fill="#6b7280">1599</text>
<rect x="720" y="28" width="370" height="58" rx="4" fill="#f8fafc" stroke="#d0d7de"/>
<text x="732" y="50" font-size="12" fill="#1f2937">first-step &lt;= 0: 1598/1598 (100.0%) | mean -13.767</text>
<text x="732" y="72" font-size="12" fill="#1f2937">logged &lt;= 0: 1121/1595 (70.3%) | mean -0.062</text>
</svg>