<svg xmlns="http://www.w3.org/2000/svg" width="1150" height="560" viewBox="0 0 1150 560">
<rect width="100%" height="100%" fill="#ffffff"/>
<text x="35" y="42" font-size="24" font-weight="700" fill="#1f2937">Lyapunov delta comparison across cases</text>
<text x="35" y="68" font-size="13" fill="#6b7280">Left: percentage of finite deltas at or below zero. Right: mean Delta V. First-step delta is the direct contraction diagnostic.</text>
<rect x="80" y="120" width="465" height="330" fill="white" stroke="#d0d7de"/>
<rect x="650" y="120" width="420" height="330" fill="white" stroke="#d0d7de"/>
<text x="80" y="104" font-size="16" font-weight="700" fill="#1f2937">Delta V &lt;= 0 rate</text>
<text x="650" y="104" font-size="16" font-weight="700" fill="#1f2937">Mean Delta V</text>
<line x1="80" x2="545" y1="450.0" y2="450.0" stroke="#eef2f7"/>
<text x="72" y="454.0" font-size="12" text-anchor="end" fill="#6b7280">0%</text>
<line x1="80" x2="545" y1="367.5" y2="367.5" stroke="#eef2f7"/>
<text x="72" y="371.5" font-size="12" text-anchor="end" fill="#6b7280">25%</text>
<line x1="80" x2="545" y1="285.0" y2="285.0" stroke="#eef2f7"/>
<text x="72" y="289.0" font-size="12" text-anchor="end" fill="#6b7280">50%</text>
<line x1="80" x2="545" y1="202.5" y2="202.5" stroke="#eef2f7"/>
<text x="72" y="206.5" font-size="12" text-anchor="end" fill="#6b7280">75%</text>
<line x1="80" x2="545" y1="120.0" y2="120.0" stroke="#eef2f7"/>
<text x="72" y="124.0" font-size="12" text-anchor="end" fill="#6b7280">100%</text>
<text x="122.1" y="442.0" font-size="10" text-anchor="middle" fill="#6b7280">n/a</text>
<text x="154.1" y="442.0" font-size="10" text-anchor="middle" fill="#6b7280">n/a</text>
<text x="138.1" y="474" font-size="11" text-anchor="middle" fill="#1f2937">unbounded_hard</text>
<rect x="225.4" y="120.0" width="26" height="330.0" fill="#1f5f99"/>
<text x="238.4" y="115.0" font-size="10" text-anchor="middle" fill="#1f2937">100%</text>
<rect x="257.4" y="205.7" width="26" height="244.3" fill="#c96b17"/>
<text x="270.4" y="200.7" font-size="10" text-anchor="middle" fill="#1f2937">74%</text>
<text x="254.4" y="474" font-size="11" text-anchor="middle" fill="#1f2937">bounded_hard</text>
<rect x="341.6" y="320.4" width="26" height="129.6" fill="#1f5f99"/>
<text x="354.6" y="315.4" font-size="10" text-anchor="middle" fill="#1f2937">39%</text>
<rect x="373.6" y="272.8" width="26" height="177.2" fill="#c96b17"/>
<text x="386.6" y="267.8" font-size="10" text-anchor="middle" fill="#1f2937">54%</text>
<text x="370.6" y="474" font-size="11" text-anchor="middle" fill="#1f2937">unbounded_soft</text>
<rect x="457.9" y="120.0" width="26" height="330.0" fill="#1f5f99"/>
<text x="470.9" y="115.0" font-size="10" text-anchor="middle" fill="#1f2937">100%</text>
<rect x="489.9" y="218.1" width="26" height="231.9" fill="#c96b17"/>
<text x="502.9" y="213.1" font-size="10" text-anchor="middle" fill="#1f2937">70%</text>
<text x="486.9" y="474" font-size="11" text-anchor="middle" fill="#1f2937">bounded_soft</text>
<line x1="650" x2="1070" y1="450.0" y2="450.0" stroke="#eef2f7"/>
<text x="642" y="454.0" font-size="12" text-anchor="end" fill="#6b7280">-14.99</text>
<line x1="650" x2="1070" y1="367.5" y2="367.5" stroke="#eef2f7"/>
<text x="642" y="371.5" font-size="12" text-anchor="end" fill="#6b7280">-10.56</text>
<line x1="650" x2="1070" y1="285.0" y2="285.0" stroke="#eef2f7"/>
<text x="642" y="289.0" font-size="12" text-anchor="end" fill="#6b7280">-6.14</text>
<line x1="650" x2="1070" y1="202.5" y2="202.5" stroke="#eef2f7"/>
<text x="642" y="206.5" font-size="12" text-anchor="end" fill="#6b7280">-1.71</text>
<line x1="650" x2="1070" y1="120.0" y2="120.0" stroke="#eef2f7"/>
<text x="642" y="124.0" font-size="12" text-anchor="end" fill="#6b7280">2.71</text>
<line x1="650" x2="1070" y1="170.6" y2="170.6" stroke="#111827" stroke-width="1.5"/>
<text x="686.5" y="442.0" font-size="10" text-anchor="middle" fill="#6b7280">n/a</text>
<text x="718.5" y="442.0" font-size="10" text-anchor="middle" fill="#6b7280">n/a</text>
<text x="702.5" y="474" font-size="11" text-anchor="middle" fill="#1f2937">unbounded_hard</text>
<rect x="778.5" y="170.6" width="26" height="187.4" fill="#1f5f99"/>
<text x="791.5" y="372.0" font-size="10" text-anchor="middle" fill="#1f2937">-10.1</text>
<rect x="810.5" y="170.6" width="26" height="2.1" fill="#c96b17"/>
<text x="823.5" y="186.6" font-size="10" text-anchor="middle" fill="#1f2937">-0.1</text>
<text x="807.5" y="474" font-size="11" text-anchor="middle" fill="#1f2937">bounded_hard</text>
<rect x="883.5" y="142.8" width="26" height="27.8" fill="#1f5f99"/>
<text x="896.5" y="136.8" font-size="10" text-anchor="middle" fill="#1f2937">1.5</text>
<rect x="915.5" y="170.6" width="26" height="13.3" fill="#c96b17"/>
<text x="928.5" y="197.9" font-size="10" text-anchor="middle" fill="#1f2937">-0.7</text>
<text x="912.5" y="474" font-size="11" text-anchor="middle" fill="#1f2937">unbounded_soft</text>
<rect x="988.5" y="170.6" width="26" height="256.7" fill="#1f5f99"/>
<text x="1001.5" y="441.2" font-size="10" text-anchor="middle" fill="#1f2937">-13.8</text>
<rect x="1020.5" y="170.6" width="26" height="1.2" fill="#c96b17"/>
<text x="1033.5" y="185.7" font-size="10" text-anchor="middle" fill="#1f2937">-0.1</text>
<text x="1017.5" y="474" font-size="11" text-anchor="middle" fill="#1f2937">bounded_soft</text>
<rect x="80" y="491" width="16" height="10" fill="#1f5f99"/>
<text x="103" y="500" font-size="12" fill="#1f2937">first-step V_1|k - V_k</text>
<rect x="280" y="491" width="16" height="10" fill="#c96b17"/>
<text x="303" y="500" font-size="12" fill="#1f2937">logged V_k - V_(k-1)</text>
</svg>