<svg xmlns="http://www.w3.org/2000/svg" width="1120" height="700" viewBox="0 0 1120 700">
<rect width="100%" height="100%" fill="#ffffff"/>
<text x="35" y="40" font-size="24" font-weight="700" fill="#1f2937">Lyapunov delta diagnostics: unbounded_soft</text>
<text x="35" y="66" font-size="13" fill="#6b7280">Negative Delta V indicates decrease. Logged step-to-step delta is affected by moving targets x_s(k).</text>
<rect x="95" y="100" width="945" height="220" fill="white" stroke="#d0d7de"/>
<line x1="95" x2="1040" y1="320.0" y2="320.0" stroke="#eef2f7" stroke-width="1"/>
<text x="87" y="324.0" font-size="12" text-anchor="end" fill="#6b7280">-67.25</text>
<line x1="95" x2="1040" y1="265.0" y2="265.0" stroke="#eef2f7" stroke-width="1"/>
<text x="87" y="269.0" font-size="12" text-anchor="end" fill="#6b7280">-36.68</text>
<line x1="95" x2="1040" y1="210.0" y2="210.0" stroke="#eef2f7" stroke-width="1"/>
<text x="87" y="214.0" font-size="12" text-anchor="end" fill="#6b7280">-6.11</text>
<line x1="95" x2="1040" y1="155.0" y2="155.0" stroke="#eef2f7" stroke-width="1"/>
<text x="87" y="159.0" font-size="12" text-anchor="end" fill="#6b7280">24.45</text>
<line x1="95" x2="1040" y1="100.0" y2="100.0" stroke="#eef2f7" stroke-width="1"/>
<text x="87" y="104.0" font-size="12" text-anchor="end" fill="#6b7280">55.02</text>
<line x1="95" x2="1040" y1="199.0" y2="199.0" stroke="#111827" stroke-width="1.5"/>
<text x="1046" y="203.0" font-size="12" fill="#1f2937">0</text>
<polyline points="95.0,200.1 95.6,200.0 96.2,201.4 96.8,207.3 97.4,216.9 98.0,226.1 98.5,231.0 99.1,229.9 99.7,224.0 100.3,215.5 100.9,207.0 101.5,200.9 102.1,196.5 102.7,198.3 103.3,199.1" fill="none" stroke="#1f5f99" stroke-width="2.2" stroke-linejoin="round" stroke-linecap="round"/>
<polyline points="106.2,202.1 106.8,202.5 107.4,192.5 108.0,182.9 108.6,178.4 109.2,180.8 109.8,187.1 110.4,193.6 111.0,206.8 111.5,208.5 112.1,201.6 112.7,189.6 113.3,173.2 113.9,176.1" fill="none" stroke="#1f5f99" stroke-width="2.2" stroke-linejoin="round" stroke-linecap="round"/>
<polyline points="116.9,202.4 117.5,204.3 118.0,204.3 118.6,202.5 119.2,199.9 119.8,198.2 120.4,198.1 121.0,203.7 121.6,204.8 122.2,201.2 122.8,191.1 123.4,176.6 124.0,187.6 124.5,193.8 125.1,193.6 125.7,192.8 126.3,193.4 126.9,196.1 127.5,199.2 128.1,200.6 128.7,199.9 129.3,198.6 129.9,196.2 130.5,200.0 131.1,199.9 131.6,196.1 132.2,188.8 132.8,180.0 133.4,194.3 134.0,199.0 134.6,195.4 135.2,190.9 135.8,188.8 136.4,190.4 137.0,193.9 137.6,197.0 138.1,205.7 138.7,204.9 139.3,198.0 139.9,187.1 140.5,189.4 141.1,191.7 141.7,192.5 142.3,193.6 142.9,195.5 143.5,198.2" fill="none" stroke="#1f5f99" stroke-width="2.2" stroke-linejoin="round" stroke-linecap="round"/>
<polyline points="144.6,200.6 145.2,199.7 145.8,197.5 146.4,201.1 147.0,200.9 147.6,197.2 148.2,189.9 148.8,181.0 149.4,193.1 150.0,197.0 150.6,193.8 151.1,189.9 151.7,188.4 152.3,190.5 152.9,194.4 153.5,197.6 154.1,206.5 154.7,206.0 155.3,199.2 155.9,188.4 156.5,189.8 157.1,191.6 157.6,192.2 158.2,193.4 158.8,195.4 159.4,198.4 160.0,200.8 160.6,201.6 161.2,206.8 161.8,203.7 162.4,196.1 163.0,185.5 163.6,189.9 164.1,193.6 164.7,194.3 165.3,194.9 165.9,196.0 166.5,198.0 167.1,199.6 167.7,200.0 168.3,204.7 168.9,201.7 169.5,194.5 170.1,184.4 170.6,190.3 171.2,194.7 171.8,195.3 172.4,195.4 173.0,196.1 173.6,197.6 174.2,199.0 174.8,199.2 175.4,203.8 176.0,201.0 176.6,194.1 177.1,184.1 177.7,190.6 178.3,195.1 178.9,195.6 179.5,195.6 180.1,196.1 180.7,197.4" fill="none" stroke="#1f5f99" stroke-width="2.2" stroke-linejoin="round" stroke-linecap="round"/>
<polyline points="181.9,198.8 182.5,197.4 183.1,201.4 183.6,199.9 184.2,194.8 184.8,186.9 185.4,178.0 186.0,190.8 186.6,195.4 187.2,192.8 187.8,189.7 188.4,189.0 189.0,191.7 189.6,195.8 190.2,198.9 190.7,207.6 191.3,206.9 191.9,199.6 192.5,188.7 193.1,173.6 193.7,179.1 194.3,185.6 194.9,190.7 195.5,196.4" fill="none" stroke="#1f5f99" stroke-width="2.2" stroke-linejoin="round" stroke-linecap="round"/>
<polyline points="196.7,207.4 197.2,210.1 197.8,209.4 198.4,205.8 199.0,200.8 199.6,196.9 200.2,193.4 200.8,196.8 201.4,198.1 202.0,197.0" fill="none" stroke="#1f5f99" stroke-width="2.2" stroke-linejoin="round" stroke-linecap="round"/>
<polyline points="203.2,188.6 203.7,181.3 204.3,194.7 204.9,195.5 205.5,188.3 206.1,181.7" fill="none" stroke="#1f5f99" stroke-width="2.2" stroke-linejoin="round" stroke-linecap="round"/>
<polyline points="208.5,197.6 209.1,201.1 209.7,211.0 210.2,211.4 210.8,205.2 211.4,194.3 212.0,178.9 212.6,180.5 213.2,184.4 213.8,188.7 214.4,194.3 215.0,200.5 215.6,206.3 216.2,209.7 216.7,209.6 217.3,206.4 217.9,201.7 218.5,197.9 219.1,194.3 219.7,198.1" fill="none" stroke="#1f5f99" stroke-width="2.2" stroke-linejoin="round" stroke-linecap="round"/>
<polyline points="220.9,197.9 221.5,193.1 222.1,185.5 222.7,197.5 223.2,200.1 223.8,195.0 224.4,189.5 225.0,186.8 225.6,188.4 226.2,192.2 226.8,195.6 227.4,205.5 228.0,206.2 228.6,200.1 229.2,189.7 229.7,174.9 230.3,179.9 230.9,185.7 231.5,190.2 232.1,195.4 232.7,200.9 233.3,206.0 233.9,208.9 234.5,208.4 235.1,205.1 235.7,200.4 236.2,196.7 236.8,193.3 237.4,197.2 238.0,199.0 238.6,198.2 239.2,195.1 239.8,190.0 240.4,200.8 241.0,200.5 241.6,192.6 242.2,184.9 242.7,181.2 243.3,183.2 243.9,188.6 244.5,203.2 245.1,207.5 245.7,202.7 246.3,192.2 246.9,177.0 247.5,178.0 248.1,182.2 248.7,187.6 249.2,195.4 249.8,205.2 250.4,214.0 251.0,218.5 251.6,217.6 252.2,212.5 252.8,205.5 253.4,199.3 254.0,193.9 254.6,195.4 255.2,195.6 255.8,194.6 256.3,192.4 256.9,188.4 257.5,201.9 258.1,202.9 258.7,195.1 259.3,187.0" fill="none" stroke="#1f5f99" stroke-width="2.2" stroke-linejoin="round" stroke-linecap="round"/>
<polyline points="260.5,184.0 261.1,188.6 261.7,202.5 262.3,206.4 262.8,201.7 263.4,191.4 264.0,176.4 264.6,178.1 265.2,182.5 265.8,187.7 266.4,195.1 267.0,204.6 267.6,213.1 268.2,217.5 268.8,216.6 269.3,211.7 269.9,204.7 270.5,198.8 271.1,193.6 271.7,195.4 272.3,195.9 272.9,195.2 273.5,193.1 274.1,189.0 274.7,202.2 275.3,202.8 275.8,194.9 276.4,186.7 277.0,182.3 277.6,183.7 278.2,188.3 278.8,202.4 279.4,206.5 280.0,201.9 280.6,191.8 281.2,176.9 281.8,178.2 282.3,182.4 282.9,187.4" fill="none" stroke="#1f5f99" stroke-width="2.2" stroke-linejoin="round" stroke-linecap="round"/>
<polyline points="284.1,204.3 284.7,213.0 285.3,217.4 285.9,216.6 286.5,211.7 287.1,204.8 287.7,198.8 288.3,193.6" fill="none" stroke="#1f5f99" stroke-width="2.2" stroke-linejoin="round" stroke-linecap="round"/>
<polyline points="289.4,196.3 290.0,195.0 290.6,190.1 291.2,183.2 291.8,198.3 292.4,202.7 293.0,198.0 293.6,192.2 294.2,189.0 294.8,189.6 295.3,192.4 295.9,195.0 296.5,204.0 297.1,204.7 297.7,199.4 298.3,190.0 298.9,185.6 299.5,189.0" fill="none" stroke="#1f5f99" stroke-width="2.2" stroke-linejoin="round" stroke-linecap="round"/>
<polyline points="300.7,190.6 301.3,192.0 301.8,193.9 302.4,196.5 303.0,198.8 303.6,207.8 304.2,207.8 304.8,201.5 305.4,191.3 306.0,176.9 306.6,179.9 307.2,184.4 307.8,188.8 308.3,195.0 308.9,203.3 309.5,211.0 310.1,214.9 310.7,214.0 311.3,209.3 311.9,202.8 312.5,197.4 313.1,192.7 313.7,195.3 314.3,196.7 314.8,196.6" fill="none" stroke="#1f5f99" stroke-width="2.2" stroke-linejoin="round" stroke-linecap="round"/>
<polyline points="316.0,190.2 316.6,183.2 317.2,196.4 317.8,196.6 318.4,188.7 319.0,181.5 319.6,179.3 320.2,183.2 320.8,190.0 321.4,196.1 321.9,209.1 322.5,211.3 323.1,205.7 323.7,195.0 324.3,180.0 324.9,179.5 325.5,182.4 326.1,187.0 326.7,194.2 327.3,203.8 327.9,212.6 328.4,217.1 329.0,216.3 329.6,211.5 330.2,204.7 330.8,198.9 331.4,115.2" fill="none" stroke="#1f5f99" stroke-width="2.2" stroke-linejoin="round" stroke-linecap="round"/>
<polyline points="333.2,255.9 333.8,290.1 334.4,304.8 334.9,302.0 335.5,287.6 336.1,267.6 336.7,246.6 337.3,227.5 337.9,211.8 338.5,200.8 339.1,192.5 339.7,235.8 340.3,247.3 340.9,230.9 341.4,203.7 342.0,176.7 342.6,149.6 343.2,148.6 343.8,158.6" fill="none" stroke="#1f5f99" stroke-width="2.2" stroke-linejoin="round" stroke-linecap="round"/>
<polyline points="345.0,196.9 345.6,211.9 346.2,218.6 346.8,219.4 347.4,217.5 347.9,214.6 348.5,211.7 349.1,209.2 349.7,207.0 350.3,205.1 350.9,203.4 351.5,202.0 352.1,201.3 352.7,201.8 353.3,193.6 353.9,174.9 354.4,168.7 355.0,178.1 355.6,187.8 356.2,209.5 356.8,209.6 357.4,205.7 358.0,206.5 358.6,208.5 359.2,207.1 359.8,201.1 360.4,193.1 360.9,184.7 361.5,199.9 362.1,202.3 362.7,195.6 363.3,185.8 363.9,172.6 364.5,178.2 365.1,178.3" fill="none" stroke="#1f5f99" stroke-width="2.2" stroke-linejoin="round" stroke-linecap="round"/>
<polyline points="367.4,202.8 368.0,204.2 368.6,203.6 369.2,202.2 369.8,200.8 370.4,199.9 371.0,199.1 371.6,205.3 372.2,197.3 372.8,175.3 373.4,157.8 373.9,152.9 374.5,180.7 375.1,196.0 375.7,202.6 376.3,207.4 376.9,209.8 377.5,207.7 378.1,201.3 378.7,193.2 379.3,184.8 379.9,198.3 380.5,199.7 381.0,192.9 381.6,185.2 382.2,176.8 382.8,184.6 383.4,182.8 384.0,182.4 384.6,188.5 385.2,196.6" fill="none" stroke="#1f5f99" stroke-width="2.2" stroke-linejoin="round" stroke-linecap="round"/>
<polyline points="386.4,206.6 387.0,207.4 387.5,206.3 388.1,204.3 388.7,201.9 389.3,199.8 389.9,197.7 390.5,199.4 391.1,187.6 391.7,166.5 392.3,157.7 392.9,162.0 393.5,193.5 394.0,206.1 394.6,207.7 395.2,208.0 395.8,207.6 396.4,204.2 397.0,198.0 397.6,190.5 398.2,199.5 398.8,197.7 399.4,189.0 400.0,180.2 400.5,192.2 401.1,195.2 401.7,193.3 402.3,193.5 402.9,195.1 403.5,197.1 404.1,198.4 404.7,199.1 405.3,209.1 405.9,196.1 406.5,173.6 407.0,181.1 407.6,193.1 408.2,200.4 408.8,203.3 409.4,202.7 410.0,198.9 410.6,193.2 411.2,199.0 411.8,194.8 412.4,185.0 413.0,176.2 413.5,190.7 414.1,196.0 414.7,195.7 415.3,196.7 415.9,198.2 416.5,197.9 417.1,196.7 417.7,195.8 418.3,207.7 418.9,197.6 419.5,177.9 420.0,184.9 420.6,194.9 421.2,200.1 421.8,201.6 422.4,200.2 423.0,196.6 423.6,191.2 424.2,199.7 424.8,196.5 425.4,186.6 426.0,177.0 426.5,190.1 427.1,194.5 427.7,194.2 428.3,195.6 428.9,198.0 429.5,199.9 430.1,200.7 430.7,200.3 431.3,199.4 431.9,204.7 432.5,197.3 433.0,175.8 433.6,157.3 434.2,178.0 434.8,195.4 435.4,203.5 436.0,206.5 436.6,205.9 437.2,201.8 437.8,195.5 438.4,188.2 439.0,197.0 439.5,195.7 440.1,188.4 440.7,181.8 441.3,195.7 441.9,198.6 442.5,195.7 443.1,194.9 443.7,195.9 444.3,197.3 444.9,198.2 445.5,198.5 446.1,206.8 446.6,193.2" fill="none" stroke="#1f5f99" stroke-width="2.2" stroke-linejoin="round" stroke-linecap="round"/>
<polyline points="447.8,180.3 448.4,193.2 449.0,200.8 449.6,204.0 450.2,203.4 450.8,199.4 451.4,193.5 452.0,186.9 452.6,196.4 453.1,195.4 453.7,188.4 454.3,182.4 454.9,194.2 455.5,198.3 456.1,195.6 456.7,194.8 457.3,196.1 457.9,196.7 458.5,196.5 459.1,196.2 459.6,208.0 460.2,197.6 460.8,177.4 461.4,184.4 462.0,194.5 462.6,200.0 463.2,201.9 463.8,201.0 464.4,197.6 465.0,192.3 465.6,199.9 466.1,195.8 466.7,185.4 467.3,175.6 467.9,189.2 468.5,194.4 469.1,194.8 469.7,196.8 470.3,199.4 470.9,201.3 471.5,201.8 472.1,201.0 472.6,199.7 473.2,198.0 473.8,202.0 474.4,189.6 475.0,167.1 475.6,151.2 476.2,176.2 476.8,195.8 477.4,205.0 478.0,208.9 478.6,209.1 479.1,205.3 479.7,198.8 480.3,191.1 480.9,196.3 481.5,193.5 482.1,187.2 482.7,184.5 483.3,200.3 483.9,201.8 484.5,196.3 485.1,193.4 485.6,193.3 486.2,194.5 486.8,195.8 487.4,196.7 488.0,207.9 488.6,195.8 489.2,174.4 489.8,182.2 490.4,193.6 491.0,200.2 491.6,202.8 492.1,202.2 492.7,198.8 493.3,193.4 493.9,198.9 494.5,194.0 495.1,183.9 495.7,174.9 496.3,190.0 496.9,195.9 497.5,196.4 498.1,198.1 498.6,200.1 499.2,200.1 499.8,198.7 500.4,197.3 501.0,202.1 501.6,203.5 502.2,187.2 502.8,167.2 503.4,179.1 504.0,192.6 504.6,200.4 505.2,204.4 505.7,205.0 506.3,202.0 506.9,196.5 507.5,189.6 508.1,197.3 508.7,194.7 509.3,186.4 509.9,179.4 510.5,194.5 511.1,198.6 511.7,196.7 512.2,196.5 512.8,197.4 513.4,197.1 514.0,196.1 514.6,195.3 515.2,206.5 515.8,196.1 516.4,176.7 517.0,184.6 517.6,195.0 518.2,200.3 518.7,202.0 519.3,200.9 519.9,197.6 520.5,192.4 521.1,199.2 521.7,194.9 522.3,184.6 522.9,175.2 523.5,189.6 524.1,195.0 524.7,195.5 525.2,197.5 525.8,199.8 526.4,200.2 527.0,199.0 527.6,197.6 528.2,196.1 528.8,205.8 529.4,193.3 530.0,172.4 530.6,156.3 531.2,176.2 531.7,191.4 532.3,199.7 532.9,205.4 533.5,208.2 534.1,206.7 534.7,201.1 535.3,194.0 535.9,186.3 536.5,198.6 537.1,198.0 537.7,189.7 538.2,181.9 538.8,193.4 539.4,196.8 540.0,194.4 540.6,194.1 541.2,195.9 541.8,198.1 542.4,199.4 543.0,199.9 543.6,207.7 544.2,193.4 544.7,170.7 545.3,179.4 545.9,192.4 546.5,200.5 547.1,204.3 547.7,204.3 548.3,200.8 548.9,195.2 549.5,188.4 550.1,196.5 550.7,194.4 551.2,186.8 551.8,180.5 552.4,195.9 553.0,199.6 553.6,197.2 554.2,196.6 554.8,197.5 555.4,197.3 556.0,196.3 556.6,195.3 557.2,205.8 557.7,195.1 558.3,175.8 558.9,184.2 559.5,195.0 560.1,200.5 560.7,202.3 561.3,201.4 561.9,198.2 562.5,193.1 563.1,199.0 563.7,194.1 564.2,183.8" fill="none" stroke="#1f5f99" stroke-width="2.2" stroke-linejoin="round" stroke-linecap="round"/>
<polyline points="565.4,189.4 566.0,195.3 566.6,196.1 567.2,198.3 567.8,166.4 568.4,140.9 569.0,168.6 569.6,194.6" fill="none" stroke="#1f5f99" stroke-width="2.2" stroke-linejoin="round" stroke-linecap="round"/>
<polyline points="570.8,246.4 571.3,267.1 571.9,273.4 572.5,263.0 573.1,240.8 573.7,214.6 574.3,193.1 574.9,176.2 575.5,185.1 576.1,202.6 576.7,218.5 577.3,223.4 577.8,214.2 578.4,194.3 579.0,170.0 579.6,154.7 580.2,151.0 580.8,160.1" fill="none" stroke="#1f5f99" stroke-width="2.2" stroke-linejoin="round" stroke-linecap="round"/>
<polyline points="582.0,206.0 582.6,227.9 583.2,240.4 583.8,242.1 584.3,235.4 584.9,224.3 585.5,212.5 586.1,202.8" fill="none" stroke="#1f5f99" stroke-width="2.2" stroke-linejoin="round" stroke-linecap="round"/>
<polyline points="588.5,204.1 589.1,213.4 589.7,218.7 590.3,217.9 590.8,210.7 591.4,199.5 592.0,186.7 592.6,191.9 593.2,185.4 593.8,174.0 594.4,167.2 595.0,170.3 595.6,180.4 596.2,191.5 596.8,199.5 597.3,203.1 597.9,212.9 598.5,213.2 599.1,207.6 599.7,197.9 600.3,183.9 600.9,181.7 601.5,181.4 602.1,182.8 602.7,187.8 603.3,196.3 603.8,204.8 604.4,209.9 605.0,210.2 605.6,206.7 606.2,201.5 606.8,197.5 607.4,193.9 608.0,200.4 608.6,205.2 609.2,206.5 609.8,202.3 610.3,190.4 610.9,174.1 611.5,185.0 612.1,190.3 612.7,189.8 613.3,189.7 613.9,191.9 614.5,196.0 615.1,199.8 615.7,201.1 616.3,200.2 616.8,199.2 617.4,203.3 618.0,204.4 618.6,201.9 619.2,195.3 619.8,183.1 620.4,186.9 621.0,189.0 621.6,189.1 622.2,190.7 622.8,194.1 623.3,198.3 623.9,201.2 624.5,201.9 625.1,207.4 625.7,205.4 626.3,199.5 626.9,191.1 627.5,190.5 628.1,191.5 628.7,190.3 629.3,189.6 629.8,191.0 630.4,194.4 631.0,197.7 631.6,199.2 632.2,206.9 632.8,207.0 633.4,202.0 634.0,193.6 634.6,180.8 635.2,183.2 635.8,185.5 636.4,187.5 636.9,191.8 637.5,198.8 638.1,205.9 638.7,209.7 639.3,209.1 639.9,205.0 640.5,199.7 641.1,195.2 641.7,194.4 642.3,199.3 642.9,203.0 643.4,203.3 644.0,199.5 644.6,192.5 645.2,198.6 645.8,195.2 646.4,186.9 647.0,181.1 647.6,182.2 648.2,188.0 648.8,194.5 649.4,198.6 649.9,208.6 650.5,209.3 651.1,203.8 651.7,194.5 652.3,181.2 652.9,182.3 653.5,184.5 654.1,187.2 654.7,192.3" fill="none" stroke="#1f5f99" stroke-width="2.2" stroke-linejoin="round" stroke-linecap="round"/>
<polyline points="655.9,207.8 656.4,211.7 657.0,210.9 657.6,206.4 658.2,200.4 658.8,195.7 659.4,191.7 660.0,197.2 660.6,201.9 661.2,204.0 661.8,200.6 662.4,192.9 662.9,182.6 663.5,192.3 664.1,192.4 664.7,186.6 665.3,182.1 665.9,181.8 666.5,186.3 667.1,192.3 667.7,197.0 668.3,208.6 668.9,210.7 669.4,206.3 670.0,197.2 670.6,183.8 671.2,181.9 671.8,182.7 672.4,185.4 673.0,191.6 673.6,201.0 674.2,209.8 674.8,214.4 675.4,213.8 675.9,209.2 676.5,202.7 677.1,197.6 677.7,193.0 678.3,198.5 678.9,202.7 679.5,203.9 680.1,200.0 680.7,188.7 681.3,173.0 681.9,184.9 682.4,191.2 683.0,191.5 683.6,192.0 684.2,194.3 684.8,198.3 685.4,201.7 686.0,202.4 686.6,200.3 687.2,197.5 687.8,194.0 688.4,199.9 688.9,203.3 689.5,203.5 690.1,198.8 690.7,187.7 691.3,190.3 691.9,192.5" fill="none" stroke="#1f5f99" stroke-width="2.2" stroke-linejoin="round" stroke-linecap="round"/>
<polyline points="693.1,191.4 693.7,192.6 694.3,193.8 694.9,195.0 695.5,195.7 696.0,204.1 696.6,205.7 697.2,202.3 697.8,194.9 698.4,182.6 699.0,183.8 699.6,185.3 700.2,187.0 700.8,191.4" fill="none" stroke="#1f5f99" stroke-width="2.2" stroke-linejoin="round" stroke-linecap="round"/>
<polyline points="702.0,206.6 702.5,210.7 703.1,210.2 703.7,206.0 704.3,200.1 704.9,195.6 705.5,191.6 706.1,197.3 706.7,202.0 707.3,204.1 707.9,200.7 708.5,192.9 709.0,182.6 709.6,192.3 710.2,192.5 710.8,186.8 711.4,182.4 712.0,182.2 712.6,186.7 713.2,192.7 713.8,197.3 714.4,208.8 715.0,210.7 715.5,206.2 716.1,197.1 716.7,183.8 717.3,182.1 717.9,183.0 718.5,185.7 719.1,191.9 719.7,201.3 720.3,210.0 720.9,214.5 721.5,213.8 722.0,209.0 722.6,202.5 723.2,197.3 723.8,192.7 724.4,198.1 725.0,202.5 725.6,204.3 726.2,200.9 726.8,193.0 727.4,182.6 728.0,191.6" fill="none" stroke="#1f5f99" stroke-width="2.2" stroke-linejoin="round" stroke-linecap="round"/>
<polyline points="729.1,185.9 729.7,181.7 730.3,181.8 730.9,186.6 731.5,192.8 732.1,197.5 732.7,209.1 733.3,211.1 733.9,206.5 734.5,197.3 735.0,183.9 735.6,182.0 736.2,182.7 736.8,185.4 737.4,191.7 738.0,201.1 738.6,209.9 739.2,214.5 739.8,213.8 740.4,209.1 741.0,202.6 741.5,197.4 742.1,192.8 742.7,198.2" fill="none" stroke="#1f5f99" stroke-width="2.2" stroke-linejoin="round" stroke-linecap="round"/>
<polyline points="743.9,203.7 744.5,199.9 745.1,188.7 745.7,173.0 746.3,185.2 746.9,191.7 747.5,192.0 748.0,192.3 748.6,194.6 749.2,198.5 749.8,201.7 750.4,202.3 751.0,200.2 751.6,197.3 752.2,193.9 752.8,199.6 753.4,202.9 754.0,203.2 754.5,198.5 755.1,187.4 755.7,192.0 756.3,193.5 756.9,192.2 757.5,192.1 758.1,193.9 758.7,197.0 759.3,199.3 759.9,199.8 760.5,205.3 761.1,203.6 761.6,198.3 762.2,190.4 762.8,193.3 763.4,194.0 764.0,192.4 764.6,191.6 765.2,192.3 765.8,194.4 766.4,196.5 767.0,205.2 767.6,205.7 768.1,200.6 768.7,192.0 769.3,179.2 769.9,182.3 770.5,185.5 771.1,188.4 771.7,193.4 772.3,201.0 772.9,208.2 773.5,211.8 774.1,210.7 774.6,205.9 775.2,199.7 775.8,194.8 776.4,191.3 777.0,196.5 777.6,201.1 778.2,203.0 778.8,199.5 779.4,191.6 780.0,181.5 780.6,192.5 781.1,193.4 781.7,187.9 782.3,183.5 782.9,183.3 783.5,187.6 784.1,193.4 784.7,197.7 785.3,208.7 785.9,210.2 786.5,205.4 787.1,196.3 787.6,183.1 788.2,182.1 788.8,183.3 789.4,186.2 790.0,192.3 790.6,201.5 791.2,210.0 791.8,214.3 792.4,213.4 793.0,208.5 793.6,201.9 794.1,196.7 794.7,192.1 795.3,197.4 795.9,201.9 796.5,203.9 797.1,200.7 797.7,193.0 798.3,182.7 798.9,192.3 799.5,192.4 800.1,186.7 800.6,182.4 801.2,182.3 801.8,186.9 802.4,192.9 803.0,197.5 803.6,208.8 804.2,195.5 804.8,239.7 805.4,272.5 806.0,288.2 806.6,287.7 807.1,275.7 807.7,257.7 808.3,238.1 808.9,219.8 809.5,204.1 810.1,193.4 810.7,185.5 811.3,215.3 811.9,222.6 812.5,210.3 813.1,191.9 813.6,171.5 814.2,171.6 814.8,173.7 815.4,179.5 816.0,189.6 816.6,199.3 817.2,206.1 817.8,209.6 818.4,210.3 819.0,209.2 819.6,207.2 820.2,205.0 820.7,202.6 821.3,201.1 821.9,199.5 822.5,199.6 823.1,186.7 823.7,173.4 824.3,174.3 824.9,184.3 825.5,212.1 826.1,216.2 826.7,210.4 827.2,206.8 827.8,205.3 828.4,202.5 829.0,197.4 829.6,191.1 830.2,200.7 830.8,199.3 831.4,190.8 832.0,181.6 832.6,192.0 833.2,193.3 833.7,190.9 834.3,191.6 834.9,194.4 835.5,197.4 836.1,199.2 836.7,199.9 837.3,199.6 837.9,206.9 838.5,192.1 839.1,169.9 839.7,179.8 840.2,193.4 840.8,201.3 841.4,204.6 842.0,204.2 842.6,200.6 843.2,195.0 843.8,188.5 844.4,196.4 845.0,195.4 845.6,190.5 846.2,188.5 846.7,184.0 847.3,191.1 847.9,185.5 848.5,182.5 849.1,188.2 849.7,197.1 850.3,204.3 850.9,208.1 851.5,208.6 852.1,207.1 852.7,204.5 853.2,201.5 853.8,199.4 854.4,196.6 855.0,196.8 855.6,177.0 856.2,157.2 856.8,153.2 857.4,185.8 858.0,203.9 858.6,209.0 859.2,210.1 859.7,209.3 860.3,205.5 860.9,199.1 861.5,191.8 862.1,197.1 862.7,194.1 863.3,187.7 863.9,184.6 864.5,199.5 865.1,200.1" fill="none" stroke="#1f5f99" stroke-width="2.2" stroke-linejoin="round" stroke-linecap="round"/>
<polyline points="866.2,192.6 866.8,193.1 867.4,193.4 868.0,193.7 868.6,194.0 869.2,209.0 869.8,199.8" fill="none" stroke="#1f5f99" stroke-width="2.2" stroke-linejoin="round" stroke-linecap="round"/>
<polyline points="871.0,160.2 871.6,140.7 872.2,152.5 872.7,168.5" fill="none" stroke="#1f5f99" stroke-width="2.2" stroke-linejoin="round" stroke-linecap="round"/>
<polyline points="873.9,209.8 874.5,224.9 875.1,230.1 875.7,226.1 876.3,216.2 876.9,204.0 877.5,193.2 878.1,184.0 878.7,199.2 879.2,199.9 879.8,191.9 880.4,183.9 881.0,176.4 881.6,185.7 882.2,184.6 882.8,184.4 883.4,190.8" fill="none" stroke="#1f5f99" stroke-width="2.2" stroke-linejoin="round" stroke-linecap="round"/>
<polyline points="884.6,205.9 885.2,209.1 885.8,209.3 886.3,207.6 886.9,204.8 887.5,201.6 888.1,199.3 888.7,196.2 889.3,195.6 889.9,175.4 890.5,155.9 891.1,152.4" fill="none" stroke="#1f5f99" stroke-width="2.2" stroke-linejoin="round" stroke-linecap="round"/>
<polyline points="892.3,204.1 892.8,209.3 893.4,210.5 894.0,209.7 894.6,205.9 895.2,199.4 895.8,191.9 896.4,195.3 897.0,195.5 897.6,189.2 898.2,183.6 898.8,178.5 899.3,190.6 899.9,190.2 900.5,189.0 901.1,194.0 901.7,201.0 902.3,206.2 902.9,208.3 903.5,207.8 904.1,205.6 904.7,202.6 905.3,199.5 905.8,197.0 906.4,195.6" fill="none" stroke="#1f5f99" stroke-width="2.2" stroke-linejoin="round" stroke-linecap="round"/>
<polyline points="907.6,168.5 908.2,148.6 908.8,140.7 909.4,173.5 910.0,195.6 910.6,206.9 911.2,214.0 911.8,217.4 912.3,215.6 912.9,208.9 913.5,199.3 914.1,190.0 914.7,181.7 915.3,191.5 915.9,193.7 916.5,192.9 917.1,195.0 917.7,194.2 918.3,201.6 918.8,192.6 919.4,185.4 920.0,188.0 920.6,195.3 921.2,202.1 921.8,206.0 922.4,206.8 923.0,205.6 923.6,203.2 924.2,200.3" fill="none" stroke="#1f5f99" stroke-width="2.2" stroke-linejoin="round" stroke-linecap="round"/>
<polyline points="925.3,195.3 925.9,192.2 926.5,190.6 927.1,170.7 927.7,153.8 928.3,154.4 928.9,190.5 929.5,208.6 930.1,212.2 930.7,212.1 931.3,210.6 931.8,206.4 932.4,199.4 933.0,191.6 933.6,189.5 934.2,194.8 934.8,192.6 935.4,189.3 936.0,188.4 936.6,202.3 937.2,200.0 937.8,193.4 938.3,192.3 938.9,194.9 939.5,198.2 940.1,200.3 940.7,200.8 941.3,200.1 941.9,207.5 942.5,192.0 943.1,169.3 943.7,179.3" fill="none" stroke="#1f5f99" stroke-width="2.2" stroke-linejoin="round" stroke-linecap="round"/>
<polyline points="944.8,200.8 945.4,204.0 946.0,203.6 946.6,199.8 947.2,194.3 947.8,187.6 948.4,195.2 949.0,193.3 949.6,187.1 950.2,183.3 950.8,199.1 951.4,201.1 951.9,196.9 952.5,195.8 953.1,197.1 953.7,198.8 954.3,199.6 954.9,199.6 955.5,205.8 956.1,191.1 956.7,169.3 957.3,179.6 957.9,193.0 958.4,201.0 959.0,204.6 959.6,204.6 960.2,201.1 960.8,195.5 961.4,188.7 962.0,196.2 962.6,193.7 963.2,186.4 963.8,180.7 964.4,196.1 964.9,199.3 965.5,196.6 966.1,196.3 966.7,197.8 967.3,198.1 967.9,197.4 968.5,196.5 969.1,206.6 969.7,195.5 970.3,175.9 970.9,184.2 971.4,194.8 972.0,200.2 972.6,202.2 973.2,201.5 973.8,198.5 974.4,193.5 975.0,199.6 975.6,194.5 976.2,184.0 976.8,174.5 977.4,188.7 977.9,193.9 978.5,194.6 979.1,197.4 979.7,200.7 980.3,202.0 980.9,201.5 981.5,200.1 982.1,198.4 982.7,206.2 983.3,192.2 983.9,171.1 984.4,181.2 985.0,194.2 985.6,201.1 986.2,203.6 986.8,202.7 987.4,199.2 988.0,193.8 988.6,197.7 989.2,192.6 989.8,184.4 990.4,180.1 990.9,195.8 991.5,198.2" fill="none" stroke="#1f5f99" stroke-width="2.2" stroke-linejoin="round" stroke-linecap="round"/>
<polyline points="992.7,194.5 993.3,196.1 993.9,196.7 994.5,196.5 995.1,196.3 995.7,209.2 996.3,199.1 996.9,179.1 997.4,185.3 998.0,194.5 998.6,199.3 999.2,201.1 999.8,200.6 1000.4,197.8 1001.0,193.1 1001.6,200.8 1002.2,196.1 1002.8,185.0 1003.4,174.6 1003.9,187.6 1004.5,192.4 1005.1,193.3 1005.7,196.5 1006.3,200.5 1006.9,203.3 1007.5,204.3 1008.1,203.4 1008.7,201.5 1009.3,199.4 1009.9,197.1 1010.5,198.6 1011.0,183.8 1011.6,163.9 1012.2,156.7 1012.8,186.2 1013.4,203.5 1014.0,207.9 1014.6,208.0 1015.2,206.3 1015.8,202.0 1016.4,196.0 1017.0,189.1 1017.5,196.9 1018.1,194.9 1018.7,187.7 1019.3,181.6 1019.9,195.6 1020.5,197.8 1021.1,194.9 1021.7,195.2 1022.3,197.5 1022.9,199.9 1023.5,200.9 1024.0,200.5 1024.6,199.4 1025.2,197.5 1025.8,201.1 1026.4,184.0 1027.0,162.2 1027.6,148.7 1028.2,174.3 1028.8,192.8 1029.4,202.5 1030.0,208.8 1030.5,211.8 1031.1,210.2 1031.7,204.2 1032.3,196.2 1032.9,187.9 1033.5,195.9 1034.1,194.3 1034.7,187.6 1035.3,182.5 1035.9,197.6 1036.5,200.1 1037.0,196.4 1037.6,195.4 1038.2,196.7 1038.8,198.4 1039.4,199.3 1040.0,199.5" fill="none" stroke="#1f5f99" stroke-width="2.2" stroke-linejoin="round" stroke-linecap="round"/>
<circle cx="102.1" cy="196.5" r="2.1" fill="#b3261e" opacity="0.8"/>
<circle cx="107.4" cy="192.5" r="2.1" fill="#b3261e" opacity="0.8"/>
<circle cx="109.2" cy="180.8" r="2.1" fill="#b3261e" opacity="0.8"/>
<circle cx="112.7" cy="189.6" r="2.1" fill="#b3261e" opacity="0.8"/>
<circle cx="115.7" cy="192.7" r="2.1" fill="#b3261e" opacity="0.8"/>
<circle cx="122.8" cy="191.1" r="2.1" fill="#b3261e" opacity="0.8"/>
<circle cx="124.5" cy="193.8" r="2.1" fill="#b3261e" opacity="0.8"/>
<circle cx="126.3" cy="193.4" r="2.1" fill="#b3261e" opacity="0.8"/>
<circle cx="129.9" cy="196.2" r="2.1" fill="#b3261e" opacity="0.8"/>
<circle cx="132.8" cy="180.0" r="2.1" fill="#b3261e" opacity="0.8"/>
<circle cx="135.2" cy="190.9" r="2.1" fill="#b3261e" opacity="0.8"/>
<circle cx="137.0" cy="193.9" r="2.1" fill="#b3261e" opacity="0.8"/>
<circle cx="139.9" cy="187.1" r="2.1" fill="#b3261e" opacity="0.8"/>
<circle cx="141.7" cy="192.5" r="2.1" fill="#b3261e" opacity="0.8"/>
<circle cx="143.5" cy="198.2" r="2.1" fill="#b3261e" opacity="0.8"/>
<circle cx="148.2" cy="189.9" r="2.1" fill="#b3261e" opacity="0.8"/>
<circle cx="150.0" cy="197.0" r="2.1" fill="#b3261e" opacity="0.8"/>
<circle cx="151.7" cy="188.4" r="2.1" fill="#b3261e" opacity="0.8"/>
<circle cx="153.5" cy="197.6" r="2.1" fill="#b3261e" opacity="0.8"/>
<circle cx="157.1" cy="191.6" r="2.1" fill="#b3261e" opacity="0.8"/>
<circle cx="158.8" cy="195.4" r="2.1" fill="#b3261e" opacity="0.8"/>
<circle cx="163.0" cy="185.5" r="2.1" fill="#b3261e" opacity="0.8"/>
<circle cx="164.7" cy="194.3" r="2.1" fill="#b3261e" opacity="0.8"/>
<circle cx="166.5" cy="198.0" r="2.1" fill="#b3261e" opacity="0.8"/>
<circle cx="170.6" cy="190.3" r="2.1" fill="#b3261e" opacity="0.8"/>
<circle cx="172.4" cy="195.4" r="2.1" fill="#b3261e" opacity="0.8"/>
<circle cx="176.6" cy="194.1" r="2.1" fill="#b3261e" opacity="0.8"/>
<circle cx="178.3" cy="195.1" r="2.1" fill="#b3261e" opacity="0.8"/>
<circle cx="180.1" cy="196.1" r="2.1" fill="#b3261e" opacity="0.8"/>
<circle cx="182.5" cy="197.4" r="2.1" fill="#b3261e" opacity="0.8"/>
<circle cx="185.4" cy="178.0" r="2.1" fill="#b3261e" opacity="0.8"/>
<circle cx="187.2" cy="192.8" r="2.1" fill="#b3261e" opacity="0.8"/>
<circle cx="189.0" cy="191.7" r="2.1" fill="#b3261e" opacity="0.8"/>
<circle cx="192.5" cy="188.7" r="2.1" fill="#b3261e" opacity="0.8"/>
<circle cx="194.3" cy="185.6" r="2.1" fill="#b3261e" opacity="0.8"/>
<circle cx="199.6" cy="196.9" r="2.1" fill="#b3261e" opacity="0.8"/>
<circle cx="201.4" cy="198.1" r="2.1" fill="#b3261e" opacity="0.8"/>
<circle cx="203.7" cy="181.3" r="2.1" fill="#b3261e" opacity="0.8"/>
<circle cx="205.5" cy="188.3" r="2.1" fill="#b3261e" opacity="0.8"/>
<circle cx="208.5" cy="197.6" r="2.1" fill="#b3261e" opacity="0.8"/>
<circle cx="212.6" cy="180.5" r="2.1" fill="#b3261e" opacity="0.8"/>
<circle cx="214.4" cy="194.3" r="2.1" fill="#b3261e" opacity="0.8"/>
<circle cx="219.7" cy="198.1" r="2.1" fill="#b3261e" opacity="0.8"/>
<circle cx="222.1" cy="185.5" r="2.1" fill="#b3261e" opacity="0.8"/>
<circle cx="224.4" cy="189.5" r="2.1" fill="#b3261e" opacity="0.8"/>
<circle cx="226.2" cy="192.2" r="2.1" fill="#b3261e" opacity="0.8"/>
<circle cx="229.7" cy="174.9" r="2.1" fill="#b3261e" opacity="0.8"/>
<circle cx="231.5" cy="190.2" r="2.1" fill="#b3261e" opacity="0.8"/>
<circle cx="236.8" cy="193.3" r="2.1" fill="#b3261e" opacity="0.8"/>
<circle cx="239.2" cy="195.1" r="2.1" fill="#b3261e" opacity="0.8"/>
<circle cx="242.2" cy="184.9" r="2.1" fill="#b3261e" opacity="0.8"/>
<circle cx="243.9" cy="188.6" r="2.1" fill="#b3261e" opacity="0.8"/>
<circle cx="247.5" cy="178.0" r="2.1" fill="#b3261e" opacity="0.8"/>
<circle cx="249.2" cy="195.4" r="2.1" fill="#b3261e" opacity="0.8"/>
<circle cx="255.2" cy="195.6" r="2.1" fill="#b3261e" opacity="0.8"/>
<circle cx="256.9" cy="188.4" r="2.1" fill="#b3261e" opacity="0.8"/>
<circle cx="260.5" cy="184.0" r="2.1" fill="#b3261e" opacity="0.8"/>
<circle cx="264.0" cy="176.4" r="2.1" fill="#b3261e" opacity="0.8"/>
<circle cx="265.8" cy="187.7" r="2.1" fill="#b3261e" opacity="0.8"/>
<circle cx="271.1" cy="193.6" r="2.1" fill="#b3261e" opacity="0.8"/>
<circle cx="272.9" cy="195.2" r="2.1" fill="#b3261e" opacity="0.8"/>
<circle cx="275.8" cy="194.9" r="2.1" fill="#b3261e" opacity="0.8"/>
<circle cx="277.6" cy="183.7" r="2.1" fill="#b3261e" opacity="0.8"/>
<circle cx="281.2" cy="176.9" r="2.1" fill="#b3261e" opacity="0.8"/>
<circle cx="282.9" cy="187.4" r="2.1" fill="#b3261e" opacity="0.8"/>
<circle cx="289.4" cy="196.3" r="2.1" fill="#b3261e" opacity="0.8"/>
<circle cx="291.2" cy="183.2" r="2.1" fill="#b3261e" opacity="0.8"/>
<circle cx="293.6" cy="192.2" r="2.1" fill="#b3261e" opacity="0.8"/>
<circle cx="295.3" cy="192.4" r="2.1" fill="#b3261e" opacity="0.8"/>
<circle cx="298.9" cy="185.6" r="2.1" fill="#b3261e" opacity="0.8"/>
<circle cx="301.3" cy="192.0" r="2.1" fill="#b3261e" opacity="0.8"/>
<circle cx="303.0" cy="198.8" r="2.1" fill="#b3261e" opacity="0.8"/>
<circle cx="306.6" cy="179.9" r="2.1" fill="#b3261e" opacity="0.8"/>
<circle cx="308.3" cy="195.0" r="2.1" fill="#b3261e" opacity="0.8"/>
<circle cx="313.7" cy="195.3" r="2.1" fill="#b3261e" opacity="0.8"/>
<circle cx="316.0" cy="190.2" r="2.1" fill="#b3261e" opacity="0.8"/>
<circle cx="317.8" cy="196.6" r="2.1" fill="#b3261e" opacity="0.8"/>
<circle cx="319.6" cy="179.3" r="2.1" fill="#b3261e" opacity="0.8"/>
<circle cx="321.4" cy="196.1" r="2.1" fill="#b3261e" opacity="0.8"/>
<circle cx="324.9" cy="179.5" r="2.1" fill="#b3261e" opacity="0.8"/>
<circle cx="326.7" cy="194.2" r="2.1" fill="#b3261e" opacity="0.8"/>
<circle cx="339.1" cy="192.5" r="2.1" fill="#b3261e" opacity="0.8"/>
<circle cx="343.2" cy="148.6" r="2.1" fill="#b3261e" opacity="0.8"/>
<circle cx="353.3" cy="193.6" r="2.1" fill="#b3261e" opacity="0.8"/>
<circle cx="355.0" cy="178.1" r="2.1" fill="#b3261e" opacity="0.8"/>
<circle cx="360.9" cy="184.7" r="2.1" fill="#b3261e" opacity="0.8"/>
<circle cx="363.9" cy="172.6" r="2.1" fill="#b3261e" opacity="0.8"/>
<circle cx="366.3" cy="189.2" r="2.1" fill="#b3261e" opacity="0.8"/>
<circle cx="373.4" cy="157.8" r="2.1" fill="#b3261e" opacity="0.8"/>
<circle cx="375.1" cy="196.0" r="2.1" fill="#b3261e" opacity="0.8"/>
<circle cx="379.9" cy="198.3" r="2.1" fill="#b3261e" opacity="0.8"/>
<circle cx="382.2" cy="176.8" r="2.1" fill="#b3261e" opacity="0.8"/>
<circle cx="384.0" cy="182.4" r="2.1" fill="#b3261e" opacity="0.8"/>
<circle cx="389.9" cy="197.7" r="2.1" fill="#b3261e" opacity="0.8"/>
<circle cx="392.3" cy="157.7" r="2.1" fill="#b3261e" opacity="0.8"/>
<circle cx="397.0" cy="198.0" r="2.1" fill="#b3261e" opacity="0.8"/>
<circle cx="399.4" cy="189.0" r="2.1" fill="#b3261e" opacity="0.8"/>
<circle cx="401.1" cy="195.2" r="2.1" fill="#b3261e" opacity="0.8"/>
<circle cx="402.9" cy="195.1" r="2.1" fill="#b3261e" opacity="0.8"/>
<circle cx="405.9" cy="196.1" r="2.1" fill="#b3261e" opacity="0.8"/>
<circle cx="407.6" cy="193.1" r="2.1" fill="#b3261e" opacity="0.8"/>
<circle cx="411.8" cy="194.8" r="2.1" fill="#b3261e" opacity="0.8"/>
<circle cx="413.5" cy="190.7" r="2.1" fill="#b3261e" opacity="0.8"/>
<circle cx="415.3" cy="196.7" r="2.1" fill="#b3261e" opacity="0.8"/>
<circle cx="417.1" cy="196.7" r="2.1" fill="#b3261e" opacity="0.8"/>
<circle cx="419.5" cy="177.9" r="2.1" fill="#b3261e" opacity="0.8"/>
<circle cx="423.0" cy="196.6" r="2.1" fill="#b3261e" opacity="0.8"/>
<circle cx="425.4" cy="186.6" r="2.1" fill="#b3261e" opacity="0.8"/>
<circle cx="427.1" cy="194.5" r="2.1" fill="#b3261e" opacity="0.8"/>
<circle cx="428.9" cy="198.0" r="2.1" fill="#b3261e" opacity="0.8"/>
<circle cx="433.6" cy="157.3" r="2.1" fill="#b3261e" opacity="0.8"/>
<circle cx="437.8" cy="195.5" r="2.1" fill="#b3261e" opacity="0.8"/>
<circle cx="439.5" cy="195.7" r="2.1" fill="#b3261e" opacity="0.8"/>
<circle cx="441.3" cy="195.7" r="2.1" fill="#b3261e" opacity="0.8"/>
<circle cx="443.1" cy="194.9" r="2.1" fill="#b3261e" opacity="0.8"/>
<circle cx="444.9" cy="198.2" r="2.1" fill="#b3261e" opacity="0.8"/>
<circle cx="447.8" cy="180.3" r="2.1" fill="#b3261e" opacity="0.8"/>
<circle cx="452.0" cy="186.9" r="2.1" fill="#b3261e" opacity="0.8"/>
<circle cx="453.7" cy="188.4" r="2.1" fill="#b3261e" opacity="0.8"/>
<circle cx="455.5" cy="198.3" r="2.1" fill="#b3261e" opacity="0.8"/>
<circle cx="457.3" cy="196.1" r="2.1" fill="#b3261e" opacity="0.8"/>
<circle cx="459.1" cy="196.2" r="2.1" fill="#b3261e" opacity="0.8"/>
<circle cx="461.4" cy="184.4" r="2.1" fill="#b3261e" opacity="0.8"/>
<circle cx="465.0" cy="192.3" r="2.1" fill="#b3261e" opacity="0.8"/>
<circle cx="467.3" cy="175.6" r="2.1" fill="#b3261e" opacity="0.8"/>
<circle cx="469.1" cy="194.8" r="2.1" fill="#b3261e" opacity="0.8"/>
<circle cx="474.4" cy="189.6" r="2.1" fill="#b3261e" opacity="0.8"/>
<circle cx="476.2" cy="176.2" r="2.1" fill="#b3261e" opacity="0.8"/>
<circle cx="480.3" cy="191.1" r="2.1" fill="#b3261e" opacity="0.8"/>
<circle cx="482.1" cy="187.2" r="2.1" fill="#b3261e" opacity="0.8"/>
<circle cx="485.1" cy="193.4" r="2.1" fill="#b3261e" opacity="0.8"/>
<circle cx="486.8" cy="195.8" r="2.1" fill="#b3261e" opacity="0.8"/>
<circle cx="489.2" cy="174.4" r="2.1" fill="#b3261e" opacity="0.8"/>
<circle cx="492.7" cy="198.8" r="2.1" fill="#b3261e" opacity="0.8"/>
<circle cx="494.5" cy="194.0" r="2.1" fill="#b3261e" opacity="0.8"/>
<circle cx="496.3" cy="190.0" r="2.1" fill="#b3261e" opacity="0.8"/>
<circle cx="498.1" cy="198.1" r="2.1" fill="#b3261e" opacity="0.8"/>
<circle cx="502.2" cy="187.2" r="2.1" fill="#b3261e" opacity="0.8"/>
<circle cx="504.0" cy="192.6" r="2.1" fill="#b3261e" opacity="0.8"/>
<circle cx="508.1" cy="197.3" r="2.1" fill="#b3261e" opacity="0.8"/>
<circle cx="509.9" cy="179.4" r="2.1" fill="#b3261e" opacity="0.8"/>
<circle cx="511.7" cy="196.7" r="2.1" fill="#b3261e" opacity="0.8"/>
<circle cx="513.4" cy="197.1" r="2.1" fill="#b3261e" opacity="0.8"/>
<circle cx="515.8" cy="196.1" r="2.1" fill="#b3261e" opacity="0.8"/>
<circle cx="517.6" cy="195.0" r="2.1" fill="#b3261e" opacity="0.8"/>
<circle cx="521.7" cy="194.9" r="2.1" fill="#b3261e" opacity="0.8"/>
<circle cx="523.5" cy="189.6" r="2.1" fill="#b3261e" opacity="0.8"/>
<circle cx="525.2" cy="197.5" r="2.1" fill="#b3261e" opacity="0.8"/>
<circle cx="529.4" cy="193.3" r="2.1" fill="#b3261e" opacity="0.8"/>
<circle cx="531.2" cy="176.2" r="2.1" fill="#b3261e" opacity="0.8"/>
<circle cx="535.9" cy="186.3" r="2.1" fill="#b3261e" opacity="0.8"/>
<circle cx="537.7" cy="189.7" r="2.1" fill="#b3261e" opacity="0.8"/>
<circle cx="539.4" cy="196.8" r="2.1" fill="#b3261e" opacity="0.8"/>
<circle cx="541.2" cy="195.9" r="2.1" fill="#b3261e" opacity="0.8"/>
<circle cx="544.7" cy="170.7" r="2.1" fill="#b3261e" opacity="0.8"/>
<circle cx="548.9" cy="195.2" r="2.1" fill="#b3261e" opacity="0.8"/>
<circle cx="550.7" cy="194.4" r="2.1" fill="#b3261e" opacity="0.8"/>
<circle cx="552.4" cy="195.9" r="2.1" fill="#b3261e" opacity="0.8"/>
<circle cx="554.8" cy="197.5" r="2.1" fill="#b3261e" opacity="0.8"/>
<circle cx="556.6" cy="195.3" r="2.1" fill="#b3261e" opacity="0.8"/>
<circle cx="558.9" cy="184.2" r="2.1" fill="#b3261e" opacity="0.8"/>
<circle cx="562.5" cy="193.1" r="2.1" fill="#b3261e" opacity="0.8"/>
<circle cx="564.2" cy="183.8" r="2.1" fill="#b3261e" opacity="0.8"/>
<circle cx="566.6" cy="196.1" r="2.1" fill="#b3261e" opacity="0.8"/>
<circle cx="568.4" cy="140.9" r="2.1" fill="#b3261e" opacity="0.8"/>
<circle cx="574.3" cy="193.1" r="2.1" fill="#b3261e" opacity="0.8"/>
<circle cx="578.4" cy="194.3" r="2.1" fill="#b3261e" opacity="0.8"/>
<circle cx="580.2" cy="151.0" r="2.1" fill="#b3261e" opacity="0.8"/>
<circle cx="592.0" cy="186.7" r="2.1" fill="#b3261e" opacity="0.8"/>
<circle cx="593.8" cy="174.0" r="2.1" fill="#b3261e" opacity="0.8"/>
<circle cx="595.6" cy="180.4" r="2.1" fill="#b3261e" opacity="0.8"/>
<circle cx="600.3" cy="183.9" r="2.1" fill="#b3261e" opacity="0.8"/>
<circle cx="602.1" cy="182.8" r="2.1" fill="#b3261e" opacity="0.8"/>
<circle cx="606.8" cy="197.5" r="2.1" fill="#b3261e" opacity="0.8"/>
<circle cx="610.9" cy="174.1" r="2.1" fill="#b3261e" opacity="0.8"/>
<circle cx="612.7" cy="189.8" r="2.1" fill="#b3261e" opacity="0.8"/>
<circle cx="614.5" cy="196.0" r="2.1" fill="#b3261e" opacity="0.8"/>
<circle cx="620.4" cy="186.9" r="2.1" fill="#b3261e" opacity="0.8"/>
<circle cx="622.2" cy="190.7" r="2.1" fill="#b3261e" opacity="0.8"/>
<circle cx="626.9" cy="191.1" r="2.1" fill="#b3261e" opacity="0.8"/>
<circle cx="628.7" cy="190.3" r="2.1" fill="#b3261e" opacity="0.8"/>
<circle cx="630.4" cy="194.4" r="2.1" fill="#b3261e" opacity="0.8"/>
<circle cx="634.6" cy="180.8" r="2.1" fill="#b3261e" opacity="0.8"/>
<circle cx="636.4" cy="187.5" r="2.1" fill="#b3261e" opacity="0.8"/>
<circle cx="641.1" cy="195.2" r="2.1" fill="#b3261e" opacity="0.8"/>
<circle cx="645.2" cy="198.6" r="2.1" fill="#b3261e" opacity="0.8"/>
<circle cx="647.0" cy="181.1" r="2.1" fill="#b3261e" opacity="0.8"/>
<circle cx="648.8" cy="194.5" r="2.1" fill="#b3261e" opacity="0.8"/>
<circle cx="652.3" cy="181.2" r="2.1" fill="#b3261e" opacity="0.8"/>
<circle cx="654.1" cy="187.2" r="2.1" fill="#b3261e" opacity="0.8"/>
<circle cx="659.4" cy="191.7" r="2.1" fill="#b3261e" opacity="0.8"/>
<circle cx="662.9" cy="182.6" r="2.1" fill="#b3261e" opacity="0.8"/>
<circle cx="664.7" cy="186.6" r="2.1" fill="#b3261e" opacity="0.8"/>
<circle cx="666.5" cy="186.3" r="2.1" fill="#b3261e" opacity="0.8"/>
<circle cx="670.0" cy="197.2" r="2.1" fill="#b3261e" opacity="0.8"/>
<circle cx="671.8" cy="182.7" r="2.1" fill="#b3261e" opacity="0.8"/>
<circle cx="677.1" cy="197.6" r="2.1" fill="#b3261e" opacity="0.8"/>
<circle cx="680.7" cy="188.7" r="2.1" fill="#b3261e" opacity="0.8"/>
<circle cx="682.4" cy="191.2" r="2.1" fill="#b3261e" opacity="0.8"/>
<circle cx="684.2" cy="194.3" r="2.1" fill="#b3261e" opacity="0.8"/>
<circle cx="687.8" cy="194.0" r="2.1" fill="#b3261e" opacity="0.8"/>
<circle cx="691.3" cy="190.3" r="2.1" fill="#b3261e" opacity="0.8"/>
<circle cx="693.7" cy="192.6" r="2.1" fill="#b3261e" opacity="0.8"/>
<circle cx="695.5" cy="195.7" r="2.1" fill="#b3261e" opacity="0.8"/>
<circle cx="699.0" cy="183.8" r="2.1" fill="#b3261e" opacity="0.8"/>
<circle cx="700.8" cy="191.4" r="2.1" fill="#b3261e" opacity="0.8"/>
<circle cx="706.1" cy="197.3" r="2.1" fill="#b3261e" opacity="0.8"/>
<circle cx="709.6" cy="192.3" r="2.1" fill="#b3261e" opacity="0.8"/>
<circle cx="711.4" cy="182.4" r="2.1" fill="#b3261e" opacity="0.8"/>
<circle cx="713.2" cy="192.7" r="2.1" fill="#b3261e" opacity="0.8"/>
<circle cx="716.7" cy="183.8" r="2.1" fill="#b3261e" opacity="0.8"/>
<circle cx="718.5" cy="185.7" r="2.1" fill="#b3261e" opacity="0.8"/>
<circle cx="723.8" cy="192.7" r="2.1" fill="#b3261e" opacity="0.8"/>
<circle cx="727.4" cy="182.6" r="2.1" fill="#b3261e" opacity="0.8"/>
<circle cx="729.7" cy="181.7" r="2.1" fill="#b3261e" opacity="0.8"/>
<circle cx="731.5" cy="192.8" r="2.1" fill="#b3261e" opacity="0.8"/>
<circle cx="735.0" cy="183.9" r="2.1" fill="#b3261e" opacity="0.8"/>
<circle cx="736.8" cy="185.4" r="2.1" fill="#b3261e" opacity="0.8"/>
<circle cx="742.1" cy="192.8" r="2.1" fill="#b3261e" opacity="0.8"/>
<circle cx="745.7" cy="173.0" r="2.1" fill="#b3261e" opacity="0.8"/>
<circle cx="747.5" cy="192.0" r="2.1" fill="#b3261e" opacity="0.8"/>
<circle cx="749.2" cy="198.5" r="2.1" fill="#b3261e" opacity="0.8"/>
<circle cx="754.5" cy="198.5" r="2.1" fill="#b3261e" opacity="0.8"/>
<circle cx="756.3" cy="193.5" r="2.1" fill="#b3261e" opacity="0.8"/>
<circle cx="758.1" cy="193.9" r="2.1" fill="#b3261e" opacity="0.8"/>
<circle cx="762.2" cy="190.4" r="2.1" fill="#b3261e" opacity="0.8"/>
<circle cx="764.0" cy="192.4" r="2.1" fill="#b3261e" opacity="0.8"/>
<circle cx="765.8" cy="194.4" r="2.1" fill="#b3261e" opacity="0.8"/>
<circle cx="769.3" cy="179.2" r="2.1" fill="#b3261e" opacity="0.8"/>
<circle cx="771.1" cy="188.4" r="2.1" fill="#b3261e" opacity="0.8"/>
<circle cx="776.4" cy="191.3" r="2.1" fill="#b3261e" opacity="0.8"/>
<circle cx="780.0" cy="181.5" r="2.1" fill="#b3261e" opacity="0.8"/>
<circle cx="781.7" cy="187.9" r="2.1" fill="#b3261e" opacity="0.8"/>
<circle cx="783.5" cy="187.6" r="2.1" fill="#b3261e" opacity="0.8"/>
<circle cx="787.1" cy="196.3" r="2.1" fill="#b3261e" opacity="0.8"/>
<circle cx="788.8" cy="183.3" r="2.1" fill="#b3261e" opacity="0.8"/>
<circle cx="794.1" cy="196.7" r="2.1" fill="#b3261e" opacity="0.8"/>
<circle cx="797.7" cy="193.0" r="2.1" fill="#b3261e" opacity="0.8"/>
<circle cx="799.5" cy="192.4" r="2.1" fill="#b3261e" opacity="0.8"/>
<circle cx="801.2" cy="182.3" r="2.1" fill="#b3261e" opacity="0.8"/>
<circle cx="803.0" cy="197.5" r="2.1" fill="#b3261e" opacity="0.8"/>
<circle cx="810.7" cy="185.5" r="2.1" fill="#b3261e" opacity="0.8"/>
<circle cx="814.2" cy="171.6" r="2.1" fill="#b3261e" opacity="0.8"/>
<circle cx="816.0" cy="189.6" r="2.1" fill="#b3261e" opacity="0.8"/>
<circle cx="824.3" cy="174.3" r="2.1" fill="#b3261e" opacity="0.8"/>
<circle cx="829.6" cy="191.1" r="2.1" fill="#b3261e" opacity="0.8"/>
<circle cx="832.6" cy="192.0" r="2.1" fill="#b3261e" opacity="0.8"/>
<circle cx="834.3" cy="191.6" r="2.1" fill="#b3261e" opacity="0.8"/>
<circle cx="838.5" cy="192.1" r="2.1" fill="#b3261e" opacity="0.8"/>
<circle cx="840.2" cy="193.4" r="2.1" fill="#b3261e" opacity="0.8"/>
<circle cx="844.4" cy="196.4" r="2.1" fill="#b3261e" opacity="0.8"/>
<circle cx="846.2" cy="188.5" r="2.1" fill="#b3261e" opacity="0.8"/>
<circle cx="847.9" cy="185.5" r="2.1" fill="#b3261e" opacity="0.8"/>
<circle cx="849.7" cy="197.1" r="2.1" fill="#b3261e" opacity="0.8"/>
<circle cx="855.6" cy="177.0" r="2.1" fill="#b3261e" opacity="0.8"/>
<circle cx="857.4" cy="185.8" r="2.1" fill="#b3261e" opacity="0.8"/>
<circle cx="862.7" cy="194.1" r="2.1" fill="#b3261e" opacity="0.8"/>
<circle cx="866.2" cy="192.6" r="2.1" fill="#b3261e" opacity="0.8"/>
<circle cx="868.0" cy="193.7" r="2.1" fill="#b3261e" opacity="0.8"/>
<circle cx="871.6" cy="140.7" r="2.1" fill="#b3261e" opacity="0.8"/>
<circle cx="877.5" cy="193.2" r="2.1" fill="#b3261e" opacity="0.8"/>
<circle cx="880.4" cy="183.9" r="2.1" fill="#b3261e" opacity="0.8"/>
<circle cx="882.2" cy="184.6" r="2.1" fill="#b3261e" opacity="0.8"/>
<circle cx="888.7" cy="196.2" r="2.1" fill="#b3261e" opacity="0.8"/>
<circle cx="890.5" cy="155.9" r="2.1" fill="#b3261e" opacity="0.8"/>
<circle cx="896.4" cy="195.3" r="2.1" fill="#b3261e" opacity="0.8"/>
<circle cx="898.2" cy="183.6" r="2.1" fill="#b3261e" opacity="0.8"/>
<circle cx="899.9" cy="190.2" r="2.1" fill="#b3261e" opacity="0.8"/>
<circle cx="905.8" cy="197.0" r="2.1" fill="#b3261e" opacity="0.8"/>
<circle cx="908.2" cy="148.6" r="2.1" fill="#b3261e" opacity="0.8"/>
<circle cx="910.0" cy="195.6" r="2.1" fill="#b3261e" opacity="0.8"/>
<circle cx="915.3" cy="191.5" r="2.1" fill="#b3261e" opacity="0.8"/>
<circle cx="917.1" cy="195.0" r="2.1" fill="#b3261e" opacity="0.8"/>
<circle cx="919.4" cy="185.4" r="2.1" fill="#b3261e" opacity="0.8"/>
<circle cx="925.3" cy="195.3" r="2.1" fill="#b3261e" opacity="0.8"/>
<circle cx="927.1" cy="170.7" r="2.1" fill="#b3261e" opacity="0.8"/>
<circle cx="928.9" cy="190.5" r="2.1" fill="#b3261e" opacity="0.8"/>
<circle cx="934.2" cy="194.8" r="2.1" fill="#b3261e" opacity="0.8"/>
<circle cx="936.0" cy="188.4" r="2.1" fill="#b3261e" opacity="0.8"/>
<circle cx="938.9" cy="194.9" r="2.1" fill="#b3261e" opacity="0.8"/>
<circle cx="943.1" cy="169.3" r="2.1" fill="#b3261e" opacity="0.8"/>
<circle cx="947.8" cy="187.6" r="2.1" fill="#b3261e" opacity="0.8"/>
<circle cx="949.6" cy="187.1" r="2.1" fill="#b3261e" opacity="0.8"/>
<circle cx="952.5" cy="195.8" r="2.1" fill="#b3261e" opacity="0.8"/>
<circle cx="956.1" cy="191.1" r="2.1" fill="#b3261e" opacity="0.8"/>
<circle cx="957.9" cy="193.0" r="2.1" fill="#b3261e" opacity="0.8"/>
<circle cx="962.0" cy="196.2" r="2.1" fill="#b3261e" opacity="0.8"/>
<circle cx="963.8" cy="180.7" r="2.1" fill="#b3261e" opacity="0.8"/>
<circle cx="966.1" cy="196.3" r="2.1" fill="#b3261e" opacity="0.8"/>
<circle cx="967.9" cy="197.4" r="2.1" fill="#b3261e" opacity="0.8"/>
<circle cx="970.3" cy="175.9" r="2.1" fill="#b3261e" opacity="0.8"/>
<circle cx="973.8" cy="198.5" r="2.1" fill="#b3261e" opacity="0.8"/>
<circle cx="976.2" cy="184.0" r="2.1" fill="#b3261e" opacity="0.8"/>
<circle cx="977.9" cy="193.9" r="2.1" fill="#b3261e" opacity="0.8"/>
<circle cx="982.1" cy="198.4" r="2.1" fill="#b3261e" opacity="0.8"/>
<circle cx="984.4" cy="181.2" r="2.1" fill="#b3261e" opacity="0.8"/>
<circle cx="988.6" cy="197.7" r="2.1" fill="#b3261e" opacity="0.8"/>
<circle cx="990.4" cy="180.1" r="2.1" fill="#b3261e" opacity="0.8"/>
<circle cx="992.7" cy="194.5" r="2.1" fill="#b3261e" opacity="0.8"/>
<circle cx="994.5" cy="196.5" r="2.1" fill="#b3261e" opacity="0.8"/>
<circle cx="997.4" cy="185.3" r="2.1" fill="#b3261e" opacity="0.8"/>
<circle cx="1001.0" cy="193.1" r="2.1" fill="#b3261e" opacity="0.8"/>
<circle cx="1003.4" cy="174.6" r="2.1" fill="#b3261e" opacity="0.8"/>
<circle cx="1005.1" cy="193.3" r="2.1" fill="#b3261e" opacity="0.8"/>
<circle cx="1010.5" cy="198.6" r="2.1" fill="#b3261e" opacity="0.8"/>
<circle cx="1012.2" cy="156.7" r="2.1" fill="#b3261e" opacity="0.8"/>
<circle cx="1017.0" cy="189.1" r="2.1" fill="#b3261e" opacity="0.8"/>
<circle cx="1018.7" cy="187.7" r="2.1" fill="#b3261e" opacity="0.8"/>
<circle cx="1020.5" cy="197.8" r="2.1" fill="#b3261e" opacity="0.8"/>
<circle cx="1022.3" cy="197.5" r="2.1" fill="#b3261e" opacity="0.8"/>
<circle cx="1027.0" cy="162.2" r="2.1" fill="#b3261e" opacity="0.8"/>
<circle cx="1028.8" cy="192.8" r="2.1" fill="#b3261e" opacity="0.8"/>
<circle cx="1033.5" cy="195.9" r="2.1" fill="#b3261e" opacity="0.8"/>
<circle cx="1035.3" cy="182.5" r="2.1" fill="#b3261e" opacity="0.8"/>
<circle cx="1037.6" cy="195.4" r="2.1" fill="#b3261e" opacity="0.8"/>
<text x="95" y="88" font-size="16" font-weight="700" fill="#1f2937">First-step predicted Delta V = V_1|k - V_k</text>
<text x="95" y="348" font-size="12" fill="#6b7280">step</text>
<line x1="95.0" x2="95.0" y1="320" y2="325" stroke="#6b7280"/>
<text x="95.0" y="340" font-size="12" text-anchor="middle" fill="#6b7280">0</text>
<line x1="567.5" x2="567.5" y1="320" y2="325" stroke="#6b7280"/>
<text x="567.5" y="340" font-size="12" text-anchor="middle" fill="#6b7280">799</text>
<line x1="1040.0" x2="1040.0" y1="320" y2="325" stroke="#6b7280"/>
<text x="1040.0" y="340" font-size="12" text-anchor="middle" fill="#6b7280">1599</text>
<rect x="95" y="405" width="945" height="220" fill="white" stroke="#d0d7de"/>
<line x1="95" x2="1040" y1="625.0" y2="625.0" stroke="#eef2f7" stroke-width="1"/>
<text x="87" y="629.0" font-size="12" text-anchor="end" fill="#6b7280">-304.36</text>
<line x1="95" x2="1040" y1="570.0" y2="570.0" stroke="#eef2f7" stroke-width="1"/>
<text x="87" y="574.0" font-size="12" text-anchor="end" fill="#6b7280">96.33</text>
<line x1="95" x2="1040" y1="515.0" y2="515.0" stroke="#eef2f7" stroke-width="1"/>
<text x="87" y="519.0" font-size="12" text-anchor="end" fill="#6b7280">497.02</text>
<line x1="95" x2="1040" y1="460.0" y2="460.0" stroke="#eef2f7" stroke-width="1"/>
<text x="87" y="464.0" font-size="12" text-anchor="end" fill="#6b7280">897.71</text>
<line x1="95" x2="1040" y1="405.0" y2="405.0" stroke="#eef2f7" stroke-width="1"/>
<text x="87" y="409.0" font-size="12" text-anchor="end" fill="#6b7280">1.30e+03</text>
<line x1="95" x2="1040" y1="583.2" y2="583.2" stroke="#111827" stroke-width="1.5"/>
<text x="1046" y="587.2" font-size="12" fill="#1f2937">0</text>
<polyline points="95.6,583.3 96.2,581.4 96.8,583.7 97.4,587.3 98.0,590.2 98.5,591.4 99.1,590.5 99.7,588.2 100.3,585.2 100.9,582.3 101.5,580.1 102.1,578.7 102.7,575.5 103.3,576.2" fill="none" stroke="#c96b17" stroke-width="2.2" stroke-linejoin="round" stroke-linecap="round"/>
<polyline points="106.8,583.5 107.4,578.9 108.0,578.3 108.6,580.6 109.2,584.1 109.8,586.3 110.4,587.0 111.0,588.2 111.5,585.2 112.1,583.4 112.7,582.6 113.3,581.6 113.9,581.5" fill="none" stroke="#c96b17" stroke-width="2.2" stroke-linejoin="round" stroke-linecap="round"/>
<polyline points="117.5,588.7 118.0,588.7 118.6,587.0 119.2,584.8 119.8,582.8 120.4,581.4 121.0,579.7 121.6,580.4 122.2,582.8 122.8,584.9 123.4,585.3 124.0,588.5 124.5,582.8 125.1,579.4 125.7,579.4 126.3,581.8 126.9,584.9 127.5,586.6 128.1,586.6 128.7,585.4 129.3,583.6 129.9,582.0 130.5,579.8 131.1,579.3 131.6,581.4 132.2,584.2 132.8,585.7 133.4,588.9 134.0,583.1 134.6,579.5 135.2,579.2 135.8,581.4 136.4,584.4 137.0,586.2 137.6,586.4 138.1,587.0 138.7,584.1 139.3,582.7 139.9,582.4 140.5,584.1 141.1,581.1 141.7,579.3 142.3,579.9 142.9,582.3 143.5,585.1" fill="none" stroke="#c96b17" stroke-width="2.2" stroke-linejoin="round" stroke-linecap="round"/>
<polyline points="145.2,584.7 145.8,583.1 146.4,581.4 147.0,580.2 147.6,581.5 148.2,583.7 148.8,585.0 149.4,587.6 150.0,582.1 150.6,578.8 151.1,578.8 151.7,581.2 152.3,584.5 152.9,586.4 153.5,586.6 154.1,587.4 154.7,584.4 155.3,583.0 155.9,582.6 156.5,583.8 157.1,580.8 157.6,579.0 158.2,579.7 158.8,582.3 159.4,585.1 160.0,586.5 160.6,586.2 161.2,586.1 161.8,583.2 162.4,582.3 163.0,582.5 163.6,585.1 164.1,582.1 164.7,580.0 165.3,580.3 165.9,582.3 166.5,584.8 167.1,585.9 167.7,585.6 168.3,585.2 168.9,582.5 169.5,581.9 170.1,582.4 170.6,585.6 171.2,582.6 171.8,580.4 172.4,580.5 173.0,582.3 173.6,584.7 174.2,585.7 174.8,585.3 175.4,584.9 176.0,582.3 176.6,581.8 177.1,582.4 177.7,585.7 178.3,582.8 178.9,580.5 179.5,580.5 180.1,582.4 180.7,584.6" fill="none" stroke="#c96b17" stroke-width="2.2" stroke-linejoin="round" stroke-linecap="round"/>
<polyline points="182.5,584.1 183.1,582.7 183.6,580.9 184.2,581.5 184.8,583.2 185.4,584.1 186.0,586.0 186.6,580.6 187.2,577.8 187.8,578.4 188.4,581.3 189.0,585.0 189.6,587.0 190.2,587.3 190.7,588.1 191.3,584.9 191.9,583.2 192.5,582.6 193.1,581.7 193.7,581.6 194.3,577.8 194.9,576.7 195.5,578.8" fill="none" stroke="#c96b17" stroke-width="2.2" stroke-linejoin="round" stroke-linecap="round"/>
<polyline points="197.2,588.9 197.8,588.6 198.4,586.8 199.0,584.5 199.6,582.4 200.2,580.8 200.8,578.5 201.4,578.9 202.0,582.2" fill="none" stroke="#c96b17" stroke-width="2.2" stroke-linejoin="round" stroke-linecap="round"/>
<polyline points="203.7,585.9 204.3,585.2 204.9,578.5 205.5,575.4 206.1,576.3" fill="none" stroke="#c96b17" stroke-width="2.2" stroke-linejoin="round" stroke-linecap="round"/>
<polyline points="209.1,588.1 209.7,588.5 210.2,585.4 210.8,583.8 211.4,583.2 212.0,582.2 212.6,581.6 213.2,577.6 213.8,576.3 214.4,578.4 215.0,582.6 215.6,586.8 216.2,588.9 216.7,588.7 217.3,587.0 217.9,584.8 218.5,582.7 219.1,581.1 219.7,578.9" fill="none" stroke="#c96b17" stroke-width="2.2" stroke-linejoin="round" stroke-linecap="round"/>
<polyline points="221.5,585.4 222.1,586.6 222.7,589.4 223.2,583.3 223.8,579.4 224.4,578.9 225.0,581.0 225.6,584.0 226.2,586.0 226.8,586.3 227.4,587.3 228.0,584.5 228.6,583.1 229.2,582.7 229.7,581.9 230.3,581.8 230.9,577.9 231.5,576.7 232.1,578.8 232.7,582.8 233.3,586.8 233.9,588.8 234.5,588.5 235.1,586.8 235.7,584.5 236.2,582.4 236.8,580.9 237.4,578.8 238.0,579.1 238.6,582.3 239.2,585.9 239.8,587.1 240.4,589.1 241.0,582.7 241.6,578.6 242.2,578.1 242.7,580.3 243.3,583.7 243.9,585.9 244.5,589.2 245.1,586.6 245.7,584.3 246.3,582.8 246.9,581.1 247.5,579.0 248.1,575.4 248.7,575.1 249.2,578.7 249.8,584.2 250.4,588.6 251.0,590.4 251.6,589.9 252.2,587.9 252.8,585.2 253.4,582.7 254.0,580.8 254.6,578.1 255.2,578.3 255.8,581.7 256.3,585.8 256.9,587.4 257.5,590.2 258.1,583.6 258.7,579.4 259.3,578.6" fill="none" stroke="#c96b17" stroke-width="2.2" stroke-linejoin="round" stroke-linecap="round"/>
<polyline points="261.1,585.7 261.7,588.7 262.3,586.2 262.8,584.1 263.4,582.7 264.0,581.2 264.6,579.3 265.2,575.7 265.8,575.3 266.4,578.7 267.0,584.2 267.6,588.4 268.2,590.2 268.8,589.7 269.3,587.7 269.9,585.1 270.5,582.6 271.1,580.7 271.7,578.0 272.3,578.3 272.9,581.8 273.5,585.8 274.1,587.5 274.7,590.2 275.3,583.6 275.8,579.4 276.4,578.6 277.0,580.5 277.6,583.6 278.2,585.7 278.8,588.7 279.4,586.3 280.0,584.1 280.6,582.7 281.2,581.2 281.8,579.2 282.3,575.6 282.9,575.2" fill="none" stroke="#c96b17" stroke-width="2.2" stroke-linejoin="round" stroke-linecap="round"/>
<polyline points="284.7,588.4 285.3,590.3 285.9,589.8 286.5,587.7 287.1,585.1 287.7,582.6 288.3,580.8" fill="none" stroke="#c96b17" stroke-width="2.2" stroke-linejoin="round" stroke-linecap="round"/>
<polyline points="290.0,581.5 290.6,585.0 291.2,586.9 291.8,590.6 292.4,584.4 293.0,580.2 293.6,579.5 294.2,581.3 294.8,584.0 295.3,585.7 295.9,586.0 296.5,586.7 297.1,584.0 297.7,582.9 298.3,582.7 298.9,583.3 299.5,581.3" fill="none" stroke="#c96b17" stroke-width="2.2" stroke-linejoin="round" stroke-linecap="round"/>
<polyline points="301.3,580.0 301.8,583.3 302.4,586.4 303.0,587.4 303.6,588.9 304.2,585.7 304.8,583.7 305.4,582.7 306.0,581.6 306.6,580.7 307.2,576.9 307.8,576.0 308.3,578.8 308.9,583.7 309.5,587.7 310.1,589.4 310.7,588.9 311.3,587.0 311.9,584.5 312.5,582.2 313.1,580.5 313.7,577.9 314.3,578.4 314.8,582.0" fill="none" stroke="#c96b17" stroke-width="2.2" stroke-linejoin="round" stroke-linecap="round"/>
<polyline points="316.6,586.5 317.2,586.0 317.8,579.0 318.4,575.8 319.0,576.5 319.6,580.0 320.2,584.6 320.8,587.6 321.4,588.5 321.9,590.4 322.5,587.1 323.1,584.5 323.7,583.1 324.3,581.6 324.9,579.6 325.5,575.8 326.1,575.2 326.7,578.5 327.3,583.9 327.9,588.2 328.4,590.1 329.0,589.6 329.6,587.7 330.2,585.1 330.8,582.6 331.4,420.2" fill="none" stroke="#c96b17" stroke-width="2.2" stroke-linejoin="round" stroke-linecap="round"/>
<polyline points="333.8,597.1 334.4,606.2 334.9,609.8 335.5,609.2 336.1,606.1 336.7,602.1 337.3,598.1 337.9,594.5 338.5,591.6 339.1,589.3 339.7,596.5 340.3,590.4 340.9,586.5 341.4,584.8 342.0,583.2 342.6,580.4 343.2,577.1 343.8,572.2" fill="none" stroke="#c96b17" stroke-width="2.2" stroke-linejoin="round" stroke-linecap="round"/>
<polyline points="345.6,585.1 346.2,589.5 346.8,591.7 347.4,591.4 347.9,589.8 348.5,587.7 349.1,585.7 349.7,583.8 350.3,582.2 350.9,580.7 351.5,579.4 352.1,578.1 352.7,574.8 353.3,566.7 353.9,569.2 354.4,579.9 355.0,591.3 355.6,597.6 356.2,602.1 356.8,590.9 357.4,583.1 358.0,581.7 358.6,583.6 359.2,585.5 359.8,586.2 360.4,585.5 360.9,584.2 361.5,584.3 362.1,580.1 362.7,580.2 363.3,582.8 363.9,584.3 364.5,584.9 365.1,577.1" fill="none" stroke="#c96b17" stroke-width="2.2" stroke-linejoin="round" stroke-linecap="round"/>
<polyline points="368.0,589.0 368.6,589.2 369.2,588.1 369.8,586.3 370.4,584.5 371.0,582.9 371.6,580.4 372.2,575.3 372.8,575.1 373.4,580.1 373.9,586.4 374.5,594.1 375.1,587.7 375.7,582.6 376.3,581.9 376.9,583.5 377.5,585.0 378.1,585.5 378.7,584.9 379.3,583.7 379.9,583.8 380.5,579.8 381.0,580.2 381.6,583.2 382.2,585.0 382.8,584.5 383.4,576.1 384.0,573.3 384.6,576.5 385.2,582.1" fill="none" stroke="#c96b17" stroke-width="2.2" stroke-linejoin="round" stroke-linecap="round"/>
<polyline points="387.0,589.7 387.5,588.5 388.1,586.7 388.7,584.9 389.3,583.1 389.9,581.5 390.5,578.2 391.1,572.8 391.7,574.1 392.3,581.4 392.9,588.3 393.5,596.5 394.0,589.4 394.6,583.5 395.2,582.1 395.8,583.3 396.4,584.7 397.0,585.1 397.6,584.6 398.2,585.6 398.8,581.1 399.4,580.5 400.0,582.5 400.5,586.8 401.1,581.7 401.7,578.5 402.3,579.2 402.9,582.1 403.5,585.1 404.1,586.5 404.7,586.5 405.3,587.5 405.9,581.5 406.5,579.7 407.0,585.9 407.6,585.0 408.2,583.4 408.8,583.0 409.4,583.4 410.0,583.6 410.6,583.5 411.2,583.8 411.8,580.1 412.4,580.1 413.0,582.5 413.5,587.4 414.1,582.4 414.7,579.1 415.3,579.7 415.9,582.2 416.5,584.7 417.1,586.2 417.7,586.3 418.3,587.7 418.9,581.8 419.5,580.0 420.0,585.9 420.6,584.9 421.2,583.1 421.8,582.7 422.4,583.1 423.0,583.5 423.6,583.4 424.2,584.3 424.8,580.6 425.4,580.5 426.0,582.6 426.5,586.9 427.1,581.7 427.7,578.6 428.3,579.4 428.9,582.3 429.5,585.3 430.1,586.7 430.7,586.6 431.3,585.5 431.9,584.6 432.5,579.6 433.0,577.3 433.6,579.8 434.2,589.5 434.8,587.2 435.4,584.1 436.0,583.1 436.6,583.5 437.2,584.0 437.8,583.9 438.4,583.2 439.0,583.1 439.5,579.4 440.1,580.0 440.7,583.1 441.3,588.7 441.9,583.3 442.5,579.5 443.1,579.6 443.7,582.1 444.3,584.8 444.9,586.2 445.5,586.0 446.1,586.6 446.6,580.7" fill="none" stroke="#c96b17" stroke-width="2.2" stroke-linejoin="round" stroke-linecap="round"/>
<polyline points="448.4,585.4 449.0,583.7 449.6,583.2 450.2,583.4 450.8,583.7 451.4,583.4 452.0,582.8 452.6,582.1 453.1,578.8 453.7,580.0 454.3,583.6 454.9,589.1 455.5,584.2 456.1,579.4 456.7,579.0 457.3,581.3 457.9,584.1 458.5,586.0 459.1,586.4 459.6,588.2 460.2,582.2 460.8,580.2 461.4,585.6 462.0,584.5 462.6,582.9 463.2,582.6 463.8,583.2 464.4,583.6 465.0,583.6 465.6,584.6 466.1,580.7 466.7,580.4 467.3,582.4 467.9,586.7 468.5,581.6 469.1,578.6 469.7,579.5 470.3,582.5 470.9,585.4 471.5,586.8 472.1,586.6 472.6,585.5 473.2,584.1 473.8,581.9 474.4,576.7 475.0,576.2 475.6,580.3 476.2,591.4 476.8,588.8 477.4,585.0 478.0,583.6 478.6,583.8 479.1,584.2 479.7,584.1 480.3,583.3 480.9,582.6 481.5,578.9 482.1,579.9 482.7,583.7 483.3,589.0 483.9,583.3 484.5,579.4 485.1,579.4 485.6,581.9 486.2,584.6 486.8,586.0 487.4,586.0 488.0,587.2 488.6,581.3 489.2,579.8 489.8,586.0 490.4,585.1 491.0,583.3 491.6,582.9 492.1,583.3 492.7,583.6 493.3,583.5 493.9,583.8 494.5,580.1 495.1,580.1 495.7,582.4 496.3,587.2 496.9,582.2 497.5,579.1 498.1,579.7 498.6,582.3 499.2,584.9 499.8,586.4 500.4,586.4 501.0,586.6 501.6,583.5 502.2,579.3 502.8,579.6 503.4,587.1 504.0,585.6 504.6,583.4 505.2,582.9 505.7,583.4 506.3,584.0 506.9,583.9 507.5,583.3 508.1,582.9 508.7,579.3 509.3,579.8 509.9,583.0 510.5,588.9 511.1,583.6 511.7,579.8 512.2,579.9 512.8,582.0 513.4,584.4 514.0,585.8 514.6,585.9 515.2,587.1 515.8,581.3 516.4,579.8 517.0,586.1 517.6,585.1 518.2,583.3 518.7,582.8 519.3,583.2 519.9,583.5 520.5,583.4 521.1,584.0 521.7,580.3 522.3,580.2 522.9,582.5 523.5,587.1 524.1,582.0 524.7,578.8 525.2,579.6 525.8,582.3 526.4,584.9 527.0,586.5 527.6,586.5 528.2,585.5 528.8,584.9 529.4,579.4 530.0,578.8 530.6,581.5 531.2,588.5 531.7,584.5 532.3,581.4 532.9,581.5 533.5,583.3 534.1,584.9 534.7,585.3 535.3,584.8 535.9,583.8 536.5,584.0 537.1,579.9 537.7,580.2 538.2,583.1 538.8,588.4 539.4,583.3 540.0,579.3 540.6,579.3 541.2,581.8 541.8,584.7 542.4,586.2 543.0,586.2 543.6,586.9 544.2,581.0 544.7,579.4 545.3,585.9 545.9,585.2 546.5,583.6 547.1,583.2 547.7,583.5 548.3,583.8 548.9,583.6 549.5,582.9 550.1,582.0 550.7,578.7 551.2,579.7 551.8,583.4 552.4,589.7 553.0,584.3 553.6,580.2 554.2,580.0 554.8,582.1 555.4,584.3 556.0,585.7 556.6,585.7 557.2,586.6 557.7,580.9 558.3,579.6 558.9,586.2 559.5,585.3 560.1,583.4 560.7,582.9 561.3,583.2 561.9,583.6 562.5,583.4 563.1,583.8 563.7,580.1 564.2,580.1" fill="none" stroke="#c96b17" stroke-width="2.2" stroke-linejoin="round" stroke-linecap="round"/>
<polyline points="566.0,582.2 566.6,579.1 567.2,579.8 567.8,534.6 568.4,577.1 569.0,569.7 569.6,569.2" fill="none" stroke="#c96b17" stroke-width="2.2" stroke-linejoin="round" stroke-linecap="round"/>
<polyline points="571.3,598.4 571.9,604.0 572.5,603.7 573.1,599.2 573.7,592.9 574.3,587.1 574.9,583.0 575.5,581.9 576.1,582.4 576.7,584.6 577.3,586.2 577.8,585.6 578.4,582.8 579.0,579.0 579.6,573.5 580.2,569.6 580.8,571.4" fill="none" stroke="#c96b17" stroke-width="2.2" stroke-linejoin="round" stroke-linecap="round"/>
<polyline points="582.6,591.8 583.2,595.0 583.8,594.7 584.3,591.9 584.9,587.9 585.5,583.9 586.1,580.8" fill="none" stroke="#c96b17" stroke-width="2.2" stroke-linejoin="round" stroke-linecap="round"/>
<polyline points="589.1,578.6 589.7,584.7 590.3,590.1 590.8,592.0 591.4,590.6 592.0,587.1 592.6,584.6 593.2,577.1 593.8,574.0 594.4,575.7 595.0,580.6 595.6,585.5 596.2,588.5 596.8,589.5 597.3,588.7 597.9,588.7 598.5,585.4 599.1,583.8 599.7,583.4 600.3,582.6 600.9,581.8 601.5,577.6 602.1,576.1 602.7,578.5 603.3,583.1 603.8,587.0 604.4,588.7 605.0,588.4 605.6,586.6 606.2,584.3 606.8,582.1 607.4,580.6 608.0,578.7 608.6,579.5 609.2,582.8 609.8,585.8 610.3,586.7 610.9,585.4 611.5,586.4 612.1,580.1 612.7,577.2 613.3,578.2 613.9,581.7 614.5,585.6 615.1,587.9 615.7,588.0 616.3,586.7 616.8,584.9 617.4,583.2 618.0,581.8 618.6,582.5 619.2,583.7 619.8,583.8 620.4,584.9 621.0,580.1 621.6,577.8 622.2,578.8 622.8,581.9 623.3,585.5 623.9,587.3 624.5,587.2 625.1,587.3 625.7,584.1 626.3,582.8 626.9,582.8 627.5,584.1 628.1,581.3 628.7,578.7 629.3,578.8 629.8,581.3 630.4,584.5 631.0,586.3 631.6,586.5 632.2,587.0 632.8,584.3 633.4,583.2 634.0,583.0 634.6,582.4 635.2,582.1 635.8,577.9 636.4,576.4 636.9,578.7 637.5,583.1 638.1,586.9 638.7,588.6 639.3,588.2 639.9,586.4 640.5,584.1 641.1,582.0 641.7,580.5 642.3,579.0 642.9,580.4 643.4,583.8 644.0,586.7 644.6,587.0 645.2,587.2 645.8,580.6 646.4,577.0 647.0,577.6 647.6,581.1 648.2,584.6 648.8,586.7 649.4,587.2 649.9,588.4 650.5,585.5 651.1,583.8 651.7,583.1 652.3,582.1 652.9,581.0 653.5,577.0 654.1,575.9 654.7,578.6" fill="none" stroke="#c96b17" stroke-width="2.2" stroke-linejoin="round" stroke-linecap="round"/>
<polyline points="656.4,589.1 657.0,588.7 657.6,586.9 658.2,584.5 658.8,582.2 659.4,580.7 660.0,578.8 660.6,579.5 661.2,582.7 661.8,585.9 662.4,587.3 662.9,586.0 663.5,585.1 664.1,578.4 664.7,575.4 665.3,576.5 665.9,580.3 666.5,585.0 667.1,587.9 667.7,588.6 668.3,590.3 668.9,586.9 669.4,584.5 670.0,583.2 670.6,581.8 671.2,579.6 671.8,575.6 672.4,574.9 673.0,578.1 673.6,583.6 674.2,587.9 674.8,589.9 675.4,589.6 675.9,587.7 676.5,585.1 677.1,582.8 677.7,581.1 678.3,579.2 678.9,579.8 679.5,582.7 680.1,585.5 680.7,586.3 681.3,585.0 681.9,585.7 682.4,579.5 683.0,576.9 683.6,578.1 684.2,581.7 684.8,585.9 685.4,588.1 686.0,588.3 686.6,586.9 687.2,584.8 687.8,582.8 688.4,581.2 688.9,580.6 689.5,582.5 690.1,584.6 690.7,585.1 691.3,586.6 691.9,581.9" fill="none" stroke="#c96b17" stroke-width="2.2" stroke-linejoin="round" stroke-linecap="round"/>
<polyline points="693.7,581.0 694.3,584.0 694.9,586.4 695.5,586.8 696.0,587.7 696.6,584.8 697.2,583.4 697.8,583.0 698.4,582.2 699.0,581.3 699.6,577.1 700.2,575.8 700.8,578.4" fill="none" stroke="#c96b17" stroke-width="2.2" stroke-linejoin="round" stroke-linecap="round"/>
<polyline points="702.5,589.0 703.1,588.6 703.7,586.9 704.3,584.5 704.9,582.3 705.5,580.7 706.1,578.9 706.7,579.6 707.3,582.7 707.9,585.9 708.5,587.3 709.0,586.0 709.6,585.0 710.2,578.3 710.8,575.4 711.4,576.5 712.0,580.4 712.6,585.0 713.2,587.9 713.8,588.7 714.4,590.3 715.0,586.8 715.5,584.5 716.1,583.2 716.7,581.8 717.3,579.7 717.9,575.7 718.5,575.0 719.1,578.2 719.7,583.6 720.3,588.0 720.9,589.9 721.5,589.5 722.0,587.6 722.6,585.1 723.2,582.7 723.8,581.0 724.4,579.1 725.0,579.7 725.6,582.7 726.2,585.9 726.8,587.2 727.4,585.9 728.0,584.9" fill="none" stroke="#c96b17" stroke-width="2.2" stroke-linejoin="round" stroke-linecap="round"/>
<polyline points="729.7,576.5 730.3,580.4 730.9,585.1 731.5,588.0 732.1,588.7 732.7,590.3 733.3,586.9 733.9,584.5 734.5,583.3 735.0,581.9 735.6,579.7 736.2,575.7 736.8,575.0 737.4,578.2 738.0,583.6 738.6,588.0 739.2,589.9 739.8,589.5 740.4,587.6 741.0,585.0 741.5,582.6 742.1,580.9 742.7,579.0" fill="none" stroke="#c96b17" stroke-width="2.2" stroke-linejoin="round" stroke-linecap="round"/>
<polyline points="744.5,585.6 745.1,586.4 745.7,585.2 746.3,585.9 746.9,579.8 747.5,577.0 748.0,578.2 748.6,581.8 749.2,585.9 749.8,588.1 750.4,588.2 751.0,586.8 751.6,584.7 752.2,582.7 752.8,581.0 753.4,580.5 754.0,582.4 754.5,584.6 755.1,585.2 755.7,587.1 756.3,581.9 756.9,578.9 757.5,579.1 758.1,581.7 758.7,584.9 759.3,586.6 759.9,586.5 760.5,586.6 761.1,583.6 761.6,582.6 762.2,582.7 762.8,584.6 763.4,581.5 764.0,579.4 764.6,579.8 765.2,582.0 765.8,584.6 766.4,585.9 767.0,587.5 767.6,584.9 768.1,583.3 768.7,582.8 769.3,581.9 769.9,581.0 770.5,577.1 771.1,576.1 771.7,578.8 772.3,583.5 772.9,587.4 773.5,589.1 774.1,588.6 774.6,586.7 775.2,584.2 775.8,582.0 776.4,580.4 777.0,578.5 777.6,579.4 778.2,582.8 778.8,586.0 779.4,587.4 780.0,586.1 780.6,585.2 781.1,578.5 781.7,575.6 782.3,576.7 782.9,580.6 783.5,585.2 784.1,588.0 784.7,588.7 785.3,590.1 785.9,586.7 786.5,584.3 787.1,583.2 787.6,581.9 788.2,579.9 788.8,575.9 789.4,575.2 790.0,578.3 790.6,583.6 791.2,587.9 791.8,589.8 792.4,589.4 793.0,587.4 793.6,584.8 794.1,582.4 794.7,580.7 795.3,578.8 795.9,579.4 796.5,582.7 797.1,585.9 797.7,587.4 798.3,586.1 798.9,585.2 799.5,578.4 800.1,575.5 800.6,576.6 801.2,580.4 801.8,585.1 802.4,587.9 803.0,588.6 803.6,590.1 804.2,477.9 804.8,579.4 805.4,589.5 806.0,596.9 806.6,600.5 807.1,600.6 807.7,598.6 808.3,595.6 808.9,592.5 809.5,589.6 810.1,587.2 810.7,585.4 811.3,587.6 811.9,583.3 812.5,582.0 813.1,583.0 813.6,583.6 814.2,585.4 814.8,579.5 815.4,577.1 816.0,579.0 816.6,583.0 817.2,586.5 817.8,588.0 818.4,587.8 819.0,586.5 819.6,584.8 820.2,583.0 820.7,581.4 821.3,579.9 821.9,578.6 822.5,573.0 823.1,568.5 823.7,573.7 824.3,583.6 824.9,592.4 825.5,602.1 826.1,593.7 826.7,585.9 827.2,583.1 827.8,583.5 828.4,584.5 829.0,584.7 829.6,584.1 830.2,584.0 830.8,579.9 831.4,580.0 832.0,582.7 832.6,588.0 833.2,582.8 833.7,579.2 834.3,579.6 834.9,582.3 835.5,585.1 836.1,586.4 836.7,586.2 837.3,585.2 837.9,583.5 838.5,578.2 839.1,578.2 839.7,587.5 840.2,587.2 840.8,585.1 841.4,584.0 842.0,583.7 842.6,583.5 843.2,583.0 843.8,582.2 844.4,580.2 845.0,577.5 845.6,579.9 846.2,584.9 846.7,587.0 847.3,586.1 847.9,576.5 848.5,573.1 849.1,576.3 849.7,582.2 850.3,587.4 850.9,589.9 851.5,589.9 852.1,588.6 852.7,586.7 853.2,584.8 853.8,582.9 854.4,581.3 855.0,575.6 855.6,572.4 856.2,576.4 856.8,584.3 857.4,596.2 858.0,591.5 858.6,586.0 859.2,583.8 859.7,583.8 860.3,584.3 860.9,584.2 861.5,583.5 862.1,582.7 862.7,579.0 863.3,580.0 863.9,583.7 864.5,588.7 865.1,582.8" fill="none" stroke="#c96b17" stroke-width="2.2" stroke-linejoin="round" stroke-linecap="round"/>
<polyline points="866.8,581.7 867.4,584.3 868.0,586.0 868.6,586.3 869.2,588.3 869.8,582.3" fill="none" stroke="#c96b17" stroke-width="2.2" stroke-linejoin="round" stroke-linecap="round"/>
<polyline points="871.6,581.0 872.2,581.1 872.7,575.8" fill="none" stroke="#c96b17" stroke-width="2.2" stroke-linejoin="round" stroke-linecap="round"/>
<polyline points="874.5,585.0 875.1,588.7 875.7,590.0 876.3,589.3 876.9,587.6 877.5,585.6 878.1,583.8 878.7,583.6 879.2,579.6 879.8,580.1 880.4,583.4 881.0,585.6 881.6,585.6 882.2,576.8 882.8,573.6 883.4,576.6" fill="none" stroke="#c96b17" stroke-width="2.2" stroke-linejoin="round" stroke-linecap="round"/>
<polyline points="885.2,589.4 885.8,589.5 886.3,588.3 886.9,586.5 887.5,584.6 888.1,582.8 888.7,581.2 889.3,575.3 889.9,572.2 890.5,576.4 891.1,584.4" fill="none" stroke="#c96b17" stroke-width="2.2" stroke-linejoin="round" stroke-linecap="round"/>
<polyline points="892.8,586.1 893.4,583.8 894.0,583.8 894.6,584.3 895.2,584.3 895.8,583.5 896.4,583.0 897.0,579.3 897.6,579.0 898.2,582.3 898.8,585.2 899.3,586.4 899.9,578.4 900.5,575.0 901.1,577.4 901.7,582.4 902.3,586.9 902.9,589.0 903.5,589.0 904.1,587.7 904.7,585.9 905.3,584.0 905.8,582.2 906.4,580.4" fill="none" stroke="#c96b17" stroke-width="2.2" stroke-linejoin="round" stroke-linecap="round"/>
<polyline points="908.2,576.2 908.8,583.5 909.4,596.0 910.0,591.6 910.6,586.2 911.2,584.2 911.8,584.5 912.3,585.1 912.9,585.0 913.5,584.1 914.1,582.8 914.7,581.5 915.3,578.9 915.9,576.5 916.5,579.8 917.1,585.8 917.7,588.8 918.3,588.3 918.8,577.9 919.4,573.4 920.0,575.9 920.6,581.6 921.2,586.8 921.8,589.4 922.4,589.6 923.0,588.5 923.6,586.6 924.2,584.7" fill="none" stroke="#c96b17" stroke-width="2.2" stroke-linejoin="round" stroke-linecap="round"/>
<polyline points="925.9,579.9 926.5,573.1 927.1,570.9 927.7,576.4 928.3,585.7 928.9,598.7 929.5,593.4 930.1,587.1 930.7,584.2 931.3,584.0 931.8,584.3 932.4,584.2 933.0,583.4 933.6,582.7 934.2,580.0 934.8,578.2 935.4,581.2 936.0,585.5 936.6,589.4 937.2,581.9 937.8,577.4 938.3,578.2 938.9,581.7 939.5,585.4 940.1,587.3 940.7,587.3 941.3,586.3 941.9,585.8 942.5,579.9 943.1,578.9 943.7,586.7" fill="none" stroke="#c96b17" stroke-width="2.2" stroke-linejoin="round" stroke-linecap="round"/>
<polyline points="945.4,583.4 946.0,583.5 946.6,583.6 947.2,583.3 947.8,582.6 948.4,581.4 949.0,578.3 949.6,579.9 950.2,584.0 950.8,590.1 951.4,584.0 951.9,579.6 952.5,579.5 953.1,582.1 953.7,584.9 954.3,586.3 954.9,586.2 955.5,586.5 956.1,580.5 956.7,579.2 957.3,586.0 957.9,585.3 958.4,583.6 959.0,583.1 959.6,583.5 960.2,583.8 960.8,583.6 961.4,582.9 962.0,582.2 962.6,578.8 963.2,579.9 963.8,583.5 964.4,589.4 964.9,583.6 965.5,579.5 966.1,579.6 966.7,582.0 967.3,584.5 967.9,586.1 968.5,586.2 969.1,587.3 969.7,581.4 970.3,579.9 970.9,586.0 971.4,584.8 972.0,583.0 972.6,582.6 973.2,583.2 973.8,583.7 974.4,583.6 975.0,584.3 975.6,580.5 976.2,580.3 976.8,582.4 977.4,586.5 977.9,581.2 978.5,578.2 979.1,579.3 979.7,582.3 980.3,585.3 980.9,586.9 981.5,586.9 982.1,585.9 982.7,585.2 983.3,579.5 983.9,578.9 984.4,586.9 985.0,586.3 985.6,584.3 986.2,583.4 986.8,583.4 987.4,583.5 988.0,583.2 988.6,582.7 989.2,579.4 989.8,580.2 990.4,583.5 990.9,587.7 991.5,581.9" fill="none" stroke="#c96b17" stroke-width="2.2" stroke-linejoin="round" stroke-linecap="round"/>
<polyline points="993.3,581.9 993.9,584.7 994.5,586.5 995.1,586.7 995.7,588.7 996.3,582.5 996.9,580.5 997.4,585.7 998.0,584.3 998.6,582.5 999.2,582.4 999.8,583.1 1000.4,583.7 1001.0,583.7 1001.6,584.9 1002.2,581.0 1002.8,580.6 1003.4,582.4 1003.9,586.1 1004.5,580.8 1005.1,577.8 1005.7,579.1 1006.3,582.5 1006.9,585.8 1007.5,587.3 1008.1,587.1 1008.7,585.9 1009.3,584.3 1009.9,582.7 1010.5,579.3 1011.0,574.5 1011.6,576.0 1012.2,582.4 1012.8,593.7 1013.4,589.9 1014.0,585.3 1014.6,583.4 1015.2,583.5 1015.8,584.0 1016.4,584.0 1017.0,583.3 1017.5,583.0 1018.1,579.3 1018.7,580.1 1019.3,583.3 1019.9,588.5 1020.5,582.7 1021.1,578.8 1021.7,579.3 1022.3,582.1 1022.9,585.2 1023.5,586.7 1024.0,586.5 1024.6,585.4 1025.2,584.0 1025.8,581.0 1026.4,576.2 1027.0,577.3 1027.6,581.8 1028.2,591.2 1028.8,587.1 1029.4,583.2 1030.0,582.5 1030.5,583.7 1031.1,584.9 1031.7,585.2 1032.3,584.5 1032.9,583.4 1033.5,582.5 1034.1,578.8 1034.7,579.7 1035.3,583.4 1035.9,589.6 1036.5,583.9 1037.0,579.7 1037.6,579.6 1038.2,582.0 1038.8,584.8 1039.4,586.2 1040.0,586.1" fill="none" stroke="#c96b17" stroke-width="2.2" stroke-linejoin="round" stroke-linecap="round"/>
<circle cx="96.2" cy="581.4" r="2.1" fill="#b3261e" opacity="0.8"/>
<circle cx="101.5" cy="580.1" r="2.1" fill="#b3261e" opacity="0.8"/>
<circle cx="102.7" cy="575.5" r="2.1" fill="#b3261e" opacity="0.8"/>
<circle cx="107.4" cy="578.9" r="2.1" fill="#b3261e" opacity="0.8"/>
<circle cx="108.6" cy="580.6" r="2.1" fill="#b3261e" opacity="0.8"/>
<circle cx="113.3" cy="581.6" r="2.1" fill="#b3261e" opacity="0.8"/>
<circle cx="119.8" cy="582.8" r="2.1" fill="#b3261e" opacity="0.8"/>
<circle cx="121.0" cy="579.7" r="2.1" fill="#b3261e" opacity="0.8"/>
<circle cx="122.2" cy="582.8" r="2.1" fill="#b3261e" opacity="0.8"/>
<circle cx="125.1" cy="579.4" r="2.1" fill="#b3261e" opacity="0.8"/>
<circle cx="126.3" cy="581.8" r="2.1" fill="#b3261e" opacity="0.8"/>
<circle cx="130.5" cy="579.8" r="2.1" fill="#b3261e" opacity="0.8"/>
<circle cx="131.6" cy="581.4" r="2.1" fill="#b3261e" opacity="0.8"/>
<circle cx="134.6" cy="579.5" r="2.1" fill="#b3261e" opacity="0.8"/>
<circle cx="135.8" cy="581.4" r="2.1" fill="#b3261e" opacity="0.8"/>
<circle cx="139.9" cy="582.4" r="2.1" fill="#b3261e" opacity="0.8"/>
<circle cx="141.7" cy="579.3" r="2.1" fill="#b3261e" opacity="0.8"/>
<circle cx="142.9" cy="582.3" r="2.1" fill="#b3261e" opacity="0.8"/>
<circle cx="146.4" cy="581.4" r="2.1" fill="#b3261e" opacity="0.8"/>
<circle cx="147.6" cy="581.5" r="2.1" fill="#b3261e" opacity="0.8"/>
<circle cx="150.6" cy="578.8" r="2.1" fill="#b3261e" opacity="0.8"/>
<circle cx="151.7" cy="581.2" r="2.1" fill="#b3261e" opacity="0.8"/>
<circle cx="155.9" cy="582.6" r="2.1" fill="#b3261e" opacity="0.8"/>
<circle cx="157.6" cy="579.0" r="2.1" fill="#b3261e" opacity="0.8"/>
<circle cx="158.8" cy="582.3" r="2.1" fill="#b3261e" opacity="0.8"/>
<circle cx="162.4" cy="582.3" r="2.1" fill="#b3261e" opacity="0.8"/>
<circle cx="164.1" cy="582.1" r="2.1" fill="#b3261e" opacity="0.8"/>
<circle cx="165.3" cy="580.3" r="2.1" fill="#b3261e" opacity="0.8"/>
<circle cx="168.9" cy="582.5" r="2.1" fill="#b3261e" opacity="0.8"/>
<circle cx="170.1" cy="582.4" r="2.1" fill="#b3261e" opacity="0.8"/>
<circle cx="171.8" cy="580.4" r="2.1" fill="#b3261e" opacity="0.8"/>
<circle cx="173.0" cy="582.3" r="2.1" fill="#b3261e" opacity="0.8"/>
<circle cx="176.6" cy="581.8" r="2.1" fill="#b3261e" opacity="0.8"/>
<circle cx="178.3" cy="582.8" r="2.1" fill="#b3261e" opacity="0.8"/>
<circle cx="179.5" cy="580.5" r="2.1" fill="#b3261e" opacity="0.8"/>
<circle cx="183.1" cy="582.7" r="2.1" fill="#b3261e" opacity="0.8"/>
<circle cx="184.2" cy="581.5" r="2.1" fill="#b3261e" opacity="0.8"/>
<circle cx="186.6" cy="580.6" r="2.1" fill="#b3261e" opacity="0.8"/>
<circle cx="187.8" cy="578.4" r="2.1" fill="#b3261e" opacity="0.8"/>
<circle cx="191.9" cy="583.2" r="2.1" fill="#b3261e" opacity="0.8"/>
<circle cx="193.1" cy="581.7" r="2.1" fill="#b3261e" opacity="0.8"/>
<circle cx="194.3" cy="577.8" r="2.1" fill="#b3261e" opacity="0.8"/>
<circle cx="195.5" cy="578.8" r="2.1" fill="#b3261e" opacity="0.8"/>
<circle cx="200.2" cy="580.8" r="2.1" fill="#b3261e" opacity="0.8"/>
<circle cx="201.4" cy="578.9" r="2.1" fill="#b3261e" opacity="0.8"/>
<circle cx="204.9" cy="578.5" r="2.1" fill="#b3261e" opacity="0.8"/>
<circle cx="206.1" cy="576.3" r="2.1" fill="#b3261e" opacity="0.8"/>
<circle cx="212.0" cy="582.2" r="2.1" fill="#b3261e" opacity="0.8"/>
<circle cx="213.2" cy="577.6" r="2.1" fill="#b3261e" opacity="0.8"/>
<circle cx="214.4" cy="578.4" r="2.1" fill="#b3261e" opacity="0.8"/>
<circle cx="218.5" cy="582.7" r="2.1" fill="#b3261e" opacity="0.8"/>
<circle cx="219.7" cy="578.9" r="2.1" fill="#b3261e" opacity="0.8"/>
<circle cx="224.4" cy="578.9" r="2.1" fill="#b3261e" opacity="0.8"/>
<circle cx="228.6" cy="583.1" r="2.1" fill="#b3261e" opacity="0.8"/>
<circle cx="229.7" cy="581.9" r="2.1" fill="#b3261e" opacity="0.8"/>
<circle cx="230.9" cy="577.9" r="2.1" fill="#b3261e" opacity="0.8"/>
<circle cx="232.1" cy="578.8" r="2.1" fill="#b3261e" opacity="0.8"/>
<circle cx="236.2" cy="582.4" r="2.1" fill="#b3261e" opacity="0.8"/>
<circle cx="237.4" cy="578.8" r="2.1" fill="#b3261e" opacity="0.8"/>
<circle cx="238.6" cy="582.3" r="2.1" fill="#b3261e" opacity="0.8"/>
<circle cx="241.6" cy="578.6" r="2.1" fill="#b3261e" opacity="0.8"/>
<circle cx="242.7" cy="580.3" r="2.1" fill="#b3261e" opacity="0.8"/>
<circle cx="246.9" cy="581.1" r="2.1" fill="#b3261e" opacity="0.8"/>
<circle cx="248.1" cy="575.4" r="2.1" fill="#b3261e" opacity="0.8"/>
<circle cx="249.2" cy="578.7" r="2.1" fill="#b3261e" opacity="0.8"/>
<circle cx="254.0" cy="580.8" r="2.1" fill="#b3261e" opacity="0.8"/>
<circle cx="255.2" cy="578.3" r="2.1" fill="#b3261e" opacity="0.8"/>
<circle cx="258.7" cy="579.4" r="2.1" fill="#b3261e" opacity="0.8"/>
<circle cx="263.4" cy="582.7" r="2.1" fill="#b3261e" opacity="0.8"/>
<circle cx="264.6" cy="579.3" r="2.1" fill="#b3261e" opacity="0.8"/>
<circle cx="265.8" cy="575.3" r="2.1" fill="#b3261e" opacity="0.8"/>
<circle cx="270.5" cy="582.6" r="2.1" fill="#b3261e" opacity="0.8"/>
<circle cx="271.7" cy="578.0" r="2.1" fill="#b3261e" opacity="0.8"/>
<circle cx="272.9" cy="581.8" r="2.1" fill="#b3261e" opacity="0.8"/>
<circle cx="276.4" cy="578.6" r="2.1" fill="#b3261e" opacity="0.8"/>
<circle cx="280.6" cy="582.7" r="2.1" fill="#b3261e" opacity="0.8"/>
<circle cx="281.8" cy="579.2" r="2.1" fill="#b3261e" opacity="0.8"/>
<circle cx="282.9" cy="575.2" r="2.1" fill="#b3261e" opacity="0.8"/>
<circle cx="288.3" cy="580.8" r="2.1" fill="#b3261e" opacity="0.8"/>
<circle cx="293.0" cy="580.2" r="2.1" fill="#b3261e" opacity="0.8"/>
<circle cx="294.2" cy="581.3" r="2.1" fill="#b3261e" opacity="0.8"/>
<circle cx="298.3" cy="582.7" r="2.1" fill="#b3261e" opacity="0.8"/>
<circle cx="301.3" cy="580.0" r="2.1" fill="#b3261e" opacity="0.8"/>
<circle cx="306.0" cy="581.6" r="2.1" fill="#b3261e" opacity="0.8"/>
<circle cx="307.2" cy="576.9" r="2.1" fill="#b3261e" opacity="0.8"/>
<circle cx="308.3" cy="578.8" r="2.1" fill="#b3261e" opacity="0.8"/>
<circle cx="313.1" cy="580.5" r="2.1" fill="#b3261e" opacity="0.8"/>
<circle cx="314.3" cy="578.4" r="2.1" fill="#b3261e" opacity="0.8"/>
<circle cx="317.8" cy="579.0" r="2.1" fill="#b3261e" opacity="0.8"/>
<circle cx="319.0" cy="576.5" r="2.1" fill="#b3261e" opacity="0.8"/>
<circle cx="323.7" cy="583.1" r="2.1" fill="#b3261e" opacity="0.8"/>
<circle cx="324.9" cy="579.6" r="2.1" fill="#b3261e" opacity="0.8"/>
<circle cx="326.1" cy="575.2" r="2.1" fill="#b3261e" opacity="0.8"/>
<circle cx="330.8" cy="582.6" r="2.1" fill="#b3261e" opacity="0.8"/>
<circle cx="342.0" cy="583.2" r="2.1" fill="#b3261e" opacity="0.8"/>
<circle cx="343.2" cy="577.1" r="2.1" fill="#b3261e" opacity="0.8"/>
<circle cx="350.3" cy="582.2" r="2.1" fill="#b3261e" opacity="0.8"/>
<circle cx="351.5" cy="579.4" r="2.1" fill="#b3261e" opacity="0.8"/>
<circle cx="352.7" cy="574.8" r="2.1" fill="#b3261e" opacity="0.8"/>
<circle cx="353.9" cy="569.2" r="2.1" fill="#b3261e" opacity="0.8"/>
<circle cx="357.4" cy="583.1" r="2.1" fill="#b3261e" opacity="0.8"/>
<circle cx="362.1" cy="580.1" r="2.1" fill="#b3261e" opacity="0.8"/>
<circle cx="363.3" cy="582.8" r="2.1" fill="#b3261e" opacity="0.8"/>
<circle cx="371.0" cy="582.9" r="2.1" fill="#b3261e" opacity="0.8"/>
<circle cx="372.2" cy="575.3" r="2.1" fill="#b3261e" opacity="0.8"/>
<circle cx="373.4" cy="580.1" r="2.1" fill="#b3261e" opacity="0.8"/>
<circle cx="376.3" cy="581.9" r="2.1" fill="#b3261e" opacity="0.8"/>
<circle cx="381.0" cy="580.2" r="2.1" fill="#b3261e" opacity="0.8"/>
<circle cx="384.0" cy="573.3" r="2.1" fill="#b3261e" opacity="0.8"/>
<circle cx="385.2" cy="582.1" r="2.1" fill="#b3261e" opacity="0.8"/>
<circle cx="389.9" cy="581.5" r="2.1" fill="#b3261e" opacity="0.8"/>
<circle cx="391.1" cy="572.8" r="2.1" fill="#b3261e" opacity="0.8"/>
<circle cx="392.3" cy="581.4" r="2.1" fill="#b3261e" opacity="0.8"/>
<circle cx="398.8" cy="581.1" r="2.1" fill="#b3261e" opacity="0.8"/>
<circle cx="400.0" cy="582.5" r="2.1" fill="#b3261e" opacity="0.8"/>
<circle cx="401.7" cy="578.5" r="2.1" fill="#b3261e" opacity="0.8"/>
<circle cx="402.9" cy="582.1" r="2.1" fill="#b3261e" opacity="0.8"/>
<circle cx="406.5" cy="579.7" r="2.1" fill="#b3261e" opacity="0.8"/>
<circle cx="411.8" cy="580.1" r="2.1" fill="#b3261e" opacity="0.8"/>
<circle cx="413.0" cy="582.5" r="2.1" fill="#b3261e" opacity="0.8"/>
<circle cx="414.7" cy="579.1" r="2.1" fill="#b3261e" opacity="0.8"/>
<circle cx="415.9" cy="582.2" r="2.1" fill="#b3261e" opacity="0.8"/>
<circle cx="419.5" cy="580.0" r="2.1" fill="#b3261e" opacity="0.8"/>
<circle cx="421.8" cy="582.7" r="2.1" fill="#b3261e" opacity="0.8"/>
<circle cx="424.8" cy="580.6" r="2.1" fill="#b3261e" opacity="0.8"/>
<circle cx="426.0" cy="582.6" r="2.1" fill="#b3261e" opacity="0.8"/>
<circle cx="427.7" cy="578.6" r="2.1" fill="#b3261e" opacity="0.8"/>
<circle cx="428.9" cy="582.3" r="2.1" fill="#b3261e" opacity="0.8"/>
<circle cx="433.0" cy="577.3" r="2.1" fill="#b3261e" opacity="0.8"/>
<circle cx="436.0" cy="583.1" r="2.1" fill="#b3261e" opacity="0.8"/>
<circle cx="439.5" cy="579.4" r="2.1" fill="#b3261e" opacity="0.8"/>
<circle cx="440.7" cy="583.1" r="2.1" fill="#b3261e" opacity="0.8"/>
<circle cx="443.1" cy="579.6" r="2.1" fill="#b3261e" opacity="0.8"/>
<circle cx="446.6" cy="580.7" r="2.1" fill="#b3261e" opacity="0.8"/>
<circle cx="452.0" cy="582.8" r="2.1" fill="#b3261e" opacity="0.8"/>
<circle cx="453.1" cy="578.8" r="2.1" fill="#b3261e" opacity="0.8"/>
<circle cx="456.1" cy="579.4" r="2.1" fill="#b3261e" opacity="0.8"/>
<circle cx="457.3" cy="581.3" r="2.1" fill="#b3261e" opacity="0.8"/>
<circle cx="460.8" cy="580.2" r="2.1" fill="#b3261e" opacity="0.8"/>
<circle cx="463.2" cy="582.6" r="2.1" fill="#b3261e" opacity="0.8"/>
<circle cx="466.1" cy="580.7" r="2.1" fill="#b3261e" opacity="0.8"/>
<circle cx="467.3" cy="582.4" r="2.1" fill="#b3261e" opacity="0.8"/>
<circle cx="469.1" cy="578.6" r="2.1" fill="#b3261e" opacity="0.8"/>
<circle cx="470.3" cy="582.5" r="2.1" fill="#b3261e" opacity="0.8"/>
<circle cx="474.4" cy="576.7" r="2.1" fill="#b3261e" opacity="0.8"/>
<circle cx="475.6" cy="580.3" r="2.1" fill="#b3261e" opacity="0.8"/>
<circle cx="481.5" cy="578.9" r="2.1" fill="#b3261e" opacity="0.8"/>
<circle cx="484.5" cy="579.4" r="2.1" fill="#b3261e" opacity="0.8"/>
<circle cx="485.6" cy="581.9" r="2.1" fill="#b3261e" opacity="0.8"/>
<circle cx="489.2" cy="579.8" r="2.1" fill="#b3261e" opacity="0.8"/>
<circle cx="494.5" cy="580.1" r="2.1" fill="#b3261e" opacity="0.8"/>
<circle cx="495.7" cy="582.4" r="2.1" fill="#b3261e" opacity="0.8"/>
<circle cx="497.5" cy="579.1" r="2.1" fill="#b3261e" opacity="0.8"/>
<circle cx="498.6" cy="582.3" r="2.1" fill="#b3261e" opacity="0.8"/>
<circle cx="502.8" cy="579.6" r="2.1" fill="#b3261e" opacity="0.8"/>
<circle cx="508.1" cy="582.9" r="2.1" fill="#b3261e" opacity="0.8"/>
<circle cx="509.3" cy="579.8" r="2.1" fill="#b3261e" opacity="0.8"/>
<circle cx="511.7" cy="579.8" r="2.1" fill="#b3261e" opacity="0.8"/>
<circle cx="512.8" cy="582.0" r="2.1" fill="#b3261e" opacity="0.8"/>
<circle cx="516.4" cy="579.8" r="2.1" fill="#b3261e" opacity="0.8"/>
<circle cx="519.3" cy="583.2" r="2.1" fill="#b3261e" opacity="0.8"/>
<circle cx="522.3" cy="580.2" r="2.1" fill="#b3261e" opacity="0.8"/>
<circle cx="524.1" cy="582.0" r="2.1" fill="#b3261e" opacity="0.8"/>
<circle cx="525.2" cy="579.6" r="2.1" fill="#b3261e" opacity="0.8"/>
<circle cx="529.4" cy="579.4" r="2.1" fill="#b3261e" opacity="0.8"/>
<circle cx="530.6" cy="581.5" r="2.1" fill="#b3261e" opacity="0.8"/>
<circle cx="532.9" cy="581.5" r="2.1" fill="#b3261e" opacity="0.8"/>
<circle cx="537.7" cy="580.2" r="2.1" fill="#b3261e" opacity="0.8"/>
<circle cx="540.0" cy="579.3" r="2.1" fill="#b3261e" opacity="0.8"/>
<circle cx="541.2" cy="581.8" r="2.1" fill="#b3261e" opacity="0.8"/>
<circle cx="544.7" cy="579.4" r="2.1" fill="#b3261e" opacity="0.8"/>
<circle cx="549.5" cy="582.9" r="2.1" fill="#b3261e" opacity="0.8"/>
<circle cx="550.7" cy="578.7" r="2.1" fill="#b3261e" opacity="0.8"/>
<circle cx="553.6" cy="580.2" r="2.1" fill="#b3261e" opacity="0.8"/>
<circle cx="554.8" cy="582.1" r="2.1" fill="#b3261e" opacity="0.8"/>
<circle cx="558.3" cy="579.6" r="2.1" fill="#b3261e" opacity="0.8"/>
<circle cx="563.7" cy="580.1" r="2.1" fill="#b3261e" opacity="0.8"/>
<circle cx="566.0" cy="582.2" r="2.1" fill="#b3261e" opacity="0.8"/>
<circle cx="567.2" cy="579.8" r="2.1" fill="#b3261e" opacity="0.8"/>
<circle cx="568.4" cy="577.1" r="2.1" fill="#b3261e" opacity="0.8"/>
<circle cx="569.6" cy="569.2" r="2.1" fill="#b3261e" opacity="0.8"/>
<circle cx="575.5" cy="581.9" r="2.1" fill="#b3261e" opacity="0.8"/>
<circle cx="578.4" cy="582.8" r="2.1" fill="#b3261e" opacity="0.8"/>
<circle cx="579.6" cy="573.5" r="2.1" fill="#b3261e" opacity="0.8"/>
<circle cx="580.8" cy="571.4" r="2.1" fill="#b3261e" opacity="0.8"/>
<circle cx="589.1" cy="578.6" r="2.1" fill="#b3261e" opacity="0.8"/>
<circle cx="593.8" cy="574.0" r="2.1" fill="#b3261e" opacity="0.8"/>
<circle cx="595.0" cy="580.6" r="2.1" fill="#b3261e" opacity="0.8"/>
<circle cx="600.9" cy="581.8" r="2.1" fill="#b3261e" opacity="0.8"/>
<circle cx="602.1" cy="576.1" r="2.1" fill="#b3261e" opacity="0.8"/>
<circle cx="603.3" cy="583.1" r="2.1" fill="#b3261e" opacity="0.8"/>
<circle cx="607.4" cy="580.6" r="2.1" fill="#b3261e" opacity="0.8"/>
<circle cx="608.6" cy="579.5" r="2.1" fill="#b3261e" opacity="0.8"/>
<circle cx="612.1" cy="580.1" r="2.1" fill="#b3261e" opacity="0.8"/>
<circle cx="613.3" cy="578.2" r="2.1" fill="#b3261e" opacity="0.8"/>
<circle cx="617.4" cy="583.2" r="2.1" fill="#b3261e" opacity="0.8"/>
<circle cx="618.6" cy="582.5" r="2.1" fill="#b3261e" opacity="0.8"/>
<circle cx="621.6" cy="577.8" r="2.1" fill="#b3261e" opacity="0.8"/>
<circle cx="622.8" cy="581.9" r="2.1" fill="#b3261e" opacity="0.8"/>
<circle cx="626.9" cy="582.8" r="2.1" fill="#b3261e" opacity="0.8"/>
<circle cx="628.7" cy="578.7" r="2.1" fill="#b3261e" opacity="0.8"/>
<circle cx="629.8" cy="581.3" r="2.1" fill="#b3261e" opacity="0.8"/>
<circle cx="634.0" cy="583.0" r="2.1" fill="#b3261e" opacity="0.8"/>
<circle cx="635.2" cy="582.1" r="2.1" fill="#b3261e" opacity="0.8"/>
<circle cx="636.4" cy="576.4" r="2.1" fill="#b3261e" opacity="0.8"/>
<circle cx="637.5" cy="583.1" r="2.1" fill="#b3261e" opacity="0.8"/>
<circle cx="641.7" cy="580.5" r="2.1" fill="#b3261e" opacity="0.8"/>
<circle cx="642.9" cy="580.4" r="2.1" fill="#b3261e" opacity="0.8"/>
<circle cx="646.4" cy="577.0" r="2.1" fill="#b3261e" opacity="0.8"/>
<circle cx="647.6" cy="581.1" r="2.1" fill="#b3261e" opacity="0.8"/>
<circle cx="652.3" cy="582.1" r="2.1" fill="#b3261e" opacity="0.8"/>
<circle cx="653.5" cy="577.0" r="2.1" fill="#b3261e" opacity="0.8"/>
<circle cx="654.7" cy="578.6" r="2.1" fill="#b3261e" opacity="0.8"/>
<circle cx="659.4" cy="580.7" r="2.1" fill="#b3261e" opacity="0.8"/>
<circle cx="660.6" cy="579.5" r="2.1" fill="#b3261e" opacity="0.8"/>
<circle cx="664.1" cy="578.4" r="2.1" fill="#b3261e" opacity="0.8"/>
<circle cx="665.3" cy="576.5" r="2.1" fill="#b3261e" opacity="0.8"/>
<circle cx="670.6" cy="581.8" r="2.1" fill="#b3261e" opacity="0.8"/>
<circle cx="671.8" cy="575.6" r="2.1" fill="#b3261e" opacity="0.8"/>
<circle cx="673.0" cy="578.1" r="2.1" fill="#b3261e" opacity="0.8"/>
<circle cx="677.7" cy="581.1" r="2.1" fill="#b3261e" opacity="0.8"/>
<circle cx="678.9" cy="579.8" r="2.1" fill="#b3261e" opacity="0.8"/>
<circle cx="682.4" cy="579.5" r="2.1" fill="#b3261e" opacity="0.8"/>
<circle cx="683.6" cy="578.1" r="2.1" fill="#b3261e" opacity="0.8"/>
<circle cx="687.8" cy="582.8" r="2.1" fill="#b3261e" opacity="0.8"/>
<circle cx="688.9" cy="580.6" r="2.1" fill="#b3261e" opacity="0.8"/>
<circle cx="691.9" cy="581.9" r="2.1" fill="#b3261e" opacity="0.8"/>
<circle cx="697.8" cy="583.0" r="2.1" fill="#b3261e" opacity="0.8"/>
<circle cx="699.0" cy="581.3" r="2.1" fill="#b3261e" opacity="0.8"/>
<circle cx="700.2" cy="575.8" r="2.1" fill="#b3261e" opacity="0.8"/>
<circle cx="704.9" cy="582.3" r="2.1" fill="#b3261e" opacity="0.8"/>
<circle cx="706.1" cy="578.9" r="2.1" fill="#b3261e" opacity="0.8"/>
<circle cx="707.3" cy="582.7" r="2.1" fill="#b3261e" opacity="0.8"/>
<circle cx="710.8" cy="575.4" r="2.1" fill="#b3261e" opacity="0.8"/>
<circle cx="712.0" cy="580.4" r="2.1" fill="#b3261e" opacity="0.8"/>
<circle cx="717.3" cy="579.7" r="2.1" fill="#b3261e" opacity="0.8"/>
<circle cx="718.5" cy="575.0" r="2.1" fill="#b3261e" opacity="0.8"/>
<circle cx="723.2" cy="582.7" r="2.1" fill="#b3261e" opacity="0.8"/>
<circle cx="724.4" cy="579.1" r="2.1" fill="#b3261e" opacity="0.8"/>
<circle cx="725.6" cy="582.7" r="2.1" fill="#b3261e" opacity="0.8"/>
<circle cx="730.3" cy="580.4" r="2.1" fill="#b3261e" opacity="0.8"/>
<circle cx="735.6" cy="579.7" r="2.1" fill="#b3261e" opacity="0.8"/>
<circle cx="736.8" cy="575.0" r="2.1" fill="#b3261e" opacity="0.8"/>
<circle cx="741.5" cy="582.6" r="2.1" fill="#b3261e" opacity="0.8"/>
<circle cx="742.7" cy="579.0" r="2.1" fill="#b3261e" opacity="0.8"/>
<circle cx="747.5" cy="577.0" r="2.1" fill="#b3261e" opacity="0.8"/>
<circle cx="748.6" cy="581.8" r="2.1" fill="#b3261e" opacity="0.8"/>
<circle cx="752.8" cy="581.0" r="2.1" fill="#b3261e" opacity="0.8"/>
<circle cx="754.0" cy="582.4" r="2.1" fill="#b3261e" opacity="0.8"/>
<circle cx="756.9" cy="578.9" r="2.1" fill="#b3261e" opacity="0.8"/>
<circle cx="758.1" cy="581.7" r="2.1" fill="#b3261e" opacity="0.8"/>
<circle cx="762.2" cy="582.7" r="2.1" fill="#b3261e" opacity="0.8"/>
<circle cx="764.0" cy="579.4" r="2.1" fill="#b3261e" opacity="0.8"/>
<circle cx="765.2" cy="582.0" r="2.1" fill="#b3261e" opacity="0.8"/>
<circle cx="769.3" cy="581.9" r="2.1" fill="#b3261e" opacity="0.8"/>
<circle cx="770.5" cy="577.1" r="2.1" fill="#b3261e" opacity="0.8"/>
<circle cx="771.7" cy="578.8" r="2.1" fill="#b3261e" opacity="0.8"/>
<circle cx="776.4" cy="580.4" r="2.1" fill="#b3261e" opacity="0.8"/>
<circle cx="777.6" cy="579.4" r="2.1" fill="#b3261e" opacity="0.8"/>
<circle cx="781.1" cy="578.5" r="2.1" fill="#b3261e" opacity="0.8"/>
<circle cx="782.3" cy="576.7" r="2.1" fill="#b3261e" opacity="0.8"/>
<circle cx="787.1" cy="583.2" r="2.1" fill="#b3261e" opacity="0.8"/>
<circle cx="788.2" cy="579.9" r="2.1" fill="#b3261e" opacity="0.8"/>
<circle cx="789.4" cy="575.2" r="2.1" fill="#b3261e" opacity="0.8"/>
<circle cx="794.1" cy="582.4" r="2.1" fill="#b3261e" opacity="0.8"/>
<circle cx="795.3" cy="578.8" r="2.1" fill="#b3261e" opacity="0.8"/>
<circle cx="796.5" cy="582.7" r="2.1" fill="#b3261e" opacity="0.8"/>
<circle cx="800.1" cy="575.5" r="2.1" fill="#b3261e" opacity="0.8"/>
<circle cx="801.2" cy="580.4" r="2.1" fill="#b3261e" opacity="0.8"/>
<circle cx="804.8" cy="579.4" r="2.1" fill="#b3261e" opacity="0.8"/>
<circle cx="813.1" cy="583.0" r="2.1" fill="#b3261e" opacity="0.8"/>
<circle cx="815.4" cy="577.1" r="2.1" fill="#b3261e" opacity="0.8"/>
<circle cx="816.6" cy="583.0" r="2.1" fill="#b3261e" opacity="0.8"/>
<circle cx="820.7" cy="581.4" r="2.1" fill="#b3261e" opacity="0.8"/>
<circle cx="821.9" cy="578.6" r="2.1" fill="#b3261e" opacity="0.8"/>
<circle cx="823.1" cy="568.5" r="2.1" fill="#b3261e" opacity="0.8"/>
<circle cx="827.2" cy="583.1" r="2.1" fill="#b3261e" opacity="0.8"/>
<circle cx="831.4" cy="580.0" r="2.1" fill="#b3261e" opacity="0.8"/>
<circle cx="833.2" cy="582.8" r="2.1" fill="#b3261e" opacity="0.8"/>
<circle cx="834.3" cy="579.6" r="2.1" fill="#b3261e" opacity="0.8"/>
<circle cx="838.5" cy="578.2" r="2.1" fill="#b3261e" opacity="0.8"/>
<circle cx="843.2" cy="583.0" r="2.1" fill="#b3261e" opacity="0.8"/>
<circle cx="844.4" cy="580.2" r="2.1" fill="#b3261e" opacity="0.8"/>
<circle cx="845.6" cy="579.9" r="2.1" fill="#b3261e" opacity="0.8"/>
<circle cx="848.5" cy="573.1" r="2.1" fill="#b3261e" opacity="0.8"/>
<circle cx="849.7" cy="582.2" r="2.1" fill="#b3261e" opacity="0.8"/>
<circle cx="854.4" cy="581.3" r="2.1" fill="#b3261e" opacity="0.8"/>
<circle cx="855.6" cy="572.4" r="2.1" fill="#b3261e" opacity="0.8"/>
<circle cx="862.1" cy="582.7" r="2.1" fill="#b3261e" opacity="0.8"/>
<circle cx="863.3" cy="580.0" r="2.1" fill="#b3261e" opacity="0.8"/>
<circle cx="866.8" cy="581.7" r="2.1" fill="#b3261e" opacity="0.8"/>
<circle cx="871.6" cy="581.0" r="2.1" fill="#b3261e" opacity="0.8"/>
<circle cx="872.7" cy="575.8" r="2.1" fill="#b3261e" opacity="0.8"/>
<circle cx="879.8" cy="580.1" r="2.1" fill="#b3261e" opacity="0.8"/>
<circle cx="882.8" cy="573.6" r="2.1" fill="#b3261e" opacity="0.8"/>
<circle cx="888.1" cy="582.8" r="2.1" fill="#b3261e" opacity="0.8"/>
<circle cx="889.3" cy="575.3" r="2.1" fill="#b3261e" opacity="0.8"/>
<circle cx="890.5" cy="576.4" r="2.1" fill="#b3261e" opacity="0.8"/>
<circle cx="897.0" cy="579.3" r="2.1" fill="#b3261e" opacity="0.8"/>
<circle cx="898.2" cy="582.3" r="2.1" fill="#b3261e" opacity="0.8"/>
<circle cx="900.5" cy="575.0" r="2.1" fill="#b3261e" opacity="0.8"/>
<circle cx="901.7" cy="582.4" r="2.1" fill="#b3261e" opacity="0.8"/>
<circle cx="906.4" cy="580.4" r="2.1" fill="#b3261e" opacity="0.8"/>
<circle cx="914.1" cy="582.8" r="2.1" fill="#b3261e" opacity="0.8"/>
<circle cx="915.3" cy="578.9" r="2.1" fill="#b3261e" opacity="0.8"/>
<circle cx="916.5" cy="579.8" r="2.1" fill="#b3261e" opacity="0.8"/>
<circle cx="919.4" cy="573.4" r="2.1" fill="#b3261e" opacity="0.8"/>
<circle cx="920.6" cy="581.6" r="2.1" fill="#b3261e" opacity="0.8"/>
<circle cx="926.5" cy="573.1" r="2.1" fill="#b3261e" opacity="0.8"/>
<circle cx="927.7" cy="576.4" r="2.1" fill="#b3261e" opacity="0.8"/>
<circle cx="934.2" cy="580.0" r="2.1" fill="#b3261e" opacity="0.8"/>
<circle cx="935.4" cy="581.2" r="2.1" fill="#b3261e" opacity="0.8"/>
<circle cx="937.8" cy="577.4" r="2.1" fill="#b3261e" opacity="0.8"/>
<circle cx="938.9" cy="581.7" r="2.1" fill="#b3261e" opacity="0.8"/>
<circle cx="943.1" cy="578.9" r="2.1" fill="#b3261e" opacity="0.8"/>
<circle cx="948.4" cy="581.4" r="2.1" fill="#b3261e" opacity="0.8"/>
<circle cx="949.6" cy="579.9" r="2.1" fill="#b3261e" opacity="0.8"/>
<circle cx="952.5" cy="579.5" r="2.1" fill="#b3261e" opacity="0.8"/>
<circle cx="956.1" cy="580.5" r="2.1" fill="#b3261e" opacity="0.8"/>
<circle cx="959.0" cy="583.1" r="2.1" fill="#b3261e" opacity="0.8"/>
<circle cx="962.0" cy="582.2" r="2.1" fill="#b3261e" opacity="0.8"/>
<circle cx="963.2" cy="579.9" r="2.1" fill="#b3261e" opacity="0.8"/>
<circle cx="966.1" cy="579.6" r="2.1" fill="#b3261e" opacity="0.8"/>
<circle cx="969.7" cy="581.4" r="2.1" fill="#b3261e" opacity="0.8"/>
<circle cx="972.0" cy="583.0" r="2.1" fill="#b3261e" opacity="0.8"/>
<circle cx="973.2" cy="583.2" r="2.1" fill="#b3261e" opacity="0.8"/>
<circle cx="976.2" cy="580.3" r="2.1" fill="#b3261e" opacity="0.8"/>
<circle cx="977.9" cy="581.2" r="2.1" fill="#b3261e" opacity="0.8"/>
<circle cx="979.1" cy="579.3" r="2.1" fill="#b3261e" opacity="0.8"/>
<circle cx="983.3" cy="579.5" r="2.1" fill="#b3261e" opacity="0.8"/>
<circle cx="988.6" cy="582.7" r="2.1" fill="#b3261e" opacity="0.8"/>
<circle cx="989.8" cy="580.2" r="2.1" fill="#b3261e" opacity="0.8"/>
<circle cx="993.3" cy="581.9" r="2.1" fill="#b3261e" opacity="0.8"/>
<circle cx="996.9" cy="580.5" r="2.1" fill="#b3261e" opacity="0.8"/>
<circle cx="999.2" cy="582.4" r="2.1" fill="#b3261e" opacity="0.8"/>
<circle cx="1002.2" cy="581.0" r="2.1" fill="#b3261e" opacity="0.8"/>
<circle cx="1003.4" cy="582.4" r="2.1" fill="#b3261e" opacity="0.8"/>
<circle cx="1005.1" cy="577.8" r="2.1" fill="#b3261e" opacity="0.8"/>
<circle cx="1006.3" cy="582.5" r="2.1" fill="#b3261e" opacity="0.8"/>
<circle cx="1010.5" cy="579.3" r="2.1" fill="#b3261e" opacity="0.8"/>
<circle cx="1011.6" cy="576.0" r="2.1" fill="#b3261e" opacity="0.8"/>
<circle cx="1017.5" cy="583.0" r="2.1" fill="#b3261e" opacity="0.8"/>
<circle cx="1018.7" cy="580.1" r="2.1" fill="#b3261e" opacity="0.8"/>
<circle cx="1021.1" cy="578.8" r="2.1" fill="#b3261e" opacity="0.8"/>
<circle cx="1022.3" cy="582.1" r="2.1" fill="#b3261e" opacity="0.8"/>
<circle cx="1026.4" cy="576.2" r="2.1" fill="#b3261e" opacity="0.8"/>
<circle cx="1027.6" cy="581.8" r="2.1" fill="#b3261e" opacity="0.8"/>
<circle cx="1030.0" cy="582.5" r="2.1" fill="#b3261e" opacity="0.8"/>
<circle cx="1034.1" cy="578.8" r="2.1" fill="#b3261e" opacity="0.8"/>
<circle cx="1037.0" cy="579.7" r="2.1" fill="#b3261e" opacity="0.8"/>
<circle cx="1038.2" cy="582.0" r="2.1" fill="#b3261e" opacity="0.8"/>
<text x="95" y="393" font-size="16" font-weight="700" fill="#1f2937">Logged Delta V = V_k - V_{k-1}</text>
<text x="95" y="653" font-size="12" fill="#6b7280">step</text>
<line x1="95.0" x2="95.0" y1="625" y2="630" stroke="#6b7280"/>
<text x="95.0" y="645" font-size="12" text-anchor="middle" fill="#6b7280">0</text>
<line x1="567.5" x2="567.5" y1="625" y2="630" stroke="#6b7280"/>
<text x="567.5" y="645" font-size="12" text-anchor="middle" fill="#6b7280">799</text>
<line x1="1040.0" x2="1040.0" y1="625" y2="630" stroke="#6b7280"/>
<text x="1040.0" y="645" font-size="12" text-anchor="middle" fill="#6b7280">1599</text>
<rect x="720" y="28" width="370" height="58" rx="4" fill="#f8fafc" stroke="#d0d7de"/>
<text x="732" y="50" font-size="12" fill="#1f2937">first-step &lt;= 0: 611/1556 (39.3%) | mean 1.491</text>
<text x="732" y="72" font-size="12" fill="#1f2937">logged &lt;= 0: 813/1514 (53.7%) | mean -0.715</text>
</svg>